<?xml version="1.0" encoding="UTF-8"?>
<svg xmlns="http://www.w3.org/2000/svg" id="Layer_1" data-name="Layer 1" viewBox="0 0 24 24" width="512" height="512"><path d="M15.61,23.859c-.362,0-.717-.122-1.011-.357l-2.587-2.065-2.587,2.065c-.447,.357-1.034,.453-1.571,.258-.538-.195-.926-.647-1.04-1.208l-.654-3.245-3.31-.081c-.571-.014-1.083-.318-1.369-.813-.286-.495-.293-1.09-.02-1.592l1.585-2.906L.563,11.725c-.429-.378-.625-.939-.526-1.503,.099-.562,.476-1.023,1.008-1.233l3.083-1.208-.495-3.272c-.086-.566,.125-1.123,.563-1.49,.437-.368,1.022-.48,1.564-.295l3.138,1.055,1.725-2.825C11.205-.075,12.817-.075,13.4,.952l1.725,2.825,3.138-1.055c.541-.184,1.126-.073,1.564,.295,.438,.367,.648,.925,.562,1.49l-.495,3.272,3.083,1.208c.533,.21,.91,.671,1.009,1.234,.099,.562-.098,1.124-.527,1.502l-2.483,2.189,1.585,2.906c.274,.502,.267,1.097-.019,1.592-.286,.495-.798,.8-1.37,.813l-3.31,.081-.654,3.245c-.113,.561-.501,1.012-1.039,1.208-.183,.066-.373,.1-.56,.1Zm-3.598-3.562c.11,0,.221,.036,.312,.109l2.899,2.314c.174,.141,.396,.175,.605,.099,.21-.076,.356-.246,.4-.465l.733-3.637c.046-.229,.245-.396,.478-.401l3.708-.091c.224-.005,.416-.119,.528-.313,.112-.193,.114-.417,.007-.613l-1.776-3.257c-.112-.205-.067-.46,.108-.614l2.783-2.453c.167-.147,.242-.358,.203-.579-.039-.221-.181-.395-.39-.476l-3.454-1.354c-.217-.086-.347-.31-.312-.541l.555-3.668c.033-.221-.046-.43-.217-.574-.17-.142-.389-.183-.603-.113l-3.517,1.183c-.219,.073-.464-.015-.586-.213l-1.933-3.166c-.233-.383-.837-.383-1.071,0l-1.933,3.166c-.122,.198-.366,.286-.586,.213l-3.516-1.183c-.212-.069-.432-.028-.603,.113-.171,.144-.25,.354-.217,.575l.554,3.667c.035,.231-.094,.455-.312,.541l-3.454,1.354c-.208,.081-.35,.255-.389,.476-.039,.22,.035,.432,.203,.579l2.783,2.453c.175,.154,.22,.409,.108,.614l-1.776,3.257c-.107,.196-.104,.42,.007,.613,.112,.194,.304,.309,.528,.313l3.709,.091c.233,.006,.432,.172,.478,.401l.733,3.637c.044,.219,.19,.389,.401,.465,.211,.078,.432,.041,.605-.099l2.899-2.314c.091-.073,.202-.109,.312-.109Z"/></svg>
