<?xml version="1.0" encoding="UTF-8"?>
<svg xmlns="http://www.w3.org/2000/svg" id="Layer_1" data-name="Layer 1" width="512" height="512" viewBox="0 0 24 24"><path d="M12,19c-2.891,0-5.678-2.011-5.795-2.097-.223-.162-.271-.475-.109-.698,.162-.223,.475-.271,.698-.109,.026,.02,2.645,1.904,5.206,1.904s5.179-1.885,5.206-1.904c.223-.162,.537-.113,.698,.109,.163,.224,.114,.536-.109,.698-.117,.086-2.904,2.097-5.795,2.097Zm12-.5c0-1.778-.848-3.41-2.29-4.445,.192-.508,.29-1.028,.29-1.555,0-1.517-.775-2.921-2.045-3.751,.031-.172,.045-.336,.045-.499,0-1.792-1.458-3.25-3.25-3.25h-.785c-.278-2.112-2.209-5-4.465-5-.276,0-.5,.224-.5,.5,0,3.239-1.719,4.301-2.11,4.5h-1.64c-1.792,0-3.25,1.458-3.25,3.25,0,.163,.015,.327,.045,.499-1.271,.83-2.045,2.234-2.045,3.751,0,.526,.097,1.047,.29,1.555-1.441,1.035-2.29,2.667-2.29,4.445,0,3.032,2.467,5.5,5.5,5.5h13c3.033,0,5.5-2.468,5.5-5.5ZM9.186,5.964c.11-.044,2.572-1.073,2.798-4.892,1.512,.438,3.017,2.785,3.017,4.428,0,.276,.224,.5,.5,.5h1.25c1.241,0,2.25,1.01,2.25,2.25,0,.183-.03,.375-.096,.606-.063,.226,.038,.465,.244,.576,1.142,.615,1.852,1.791,1.852,3.067,0,.514-.123,1.026-.364,1.521-.113,.231-.031,.512,.19,.646,1.361,.828,2.174,2.261,2.174,3.833,0,2.481-2.019,4.5-4.5,4.5H5.5c-2.481,0-4.5-2.019-4.5-4.5,0-1.572,.812-3.005,2.174-3.833,.221-.134,.303-.414,.19-.646-.241-.495-.364-1.008-.364-1.521,0-1.276,.709-2.452,1.852-3.067,.206-.111,.308-.351,.244-.576-.065-.231-.096-.424-.096-.606,0-1.24,1.009-2.25,2.25-2.25,0,0,1.876-.012,1.936-.036Z"/><circle cx="8" cy="12" r="1"/><circle cx="16" cy="12" r="1"/></svg>
