<?xml version="1.0" encoding="UTF-8"?>
<svg xmlns="http://www.w3.org/2000/svg" id="Layer_1" data-name="Layer 1" viewBox="0 0 24 24" width="512" height="512"><path d="M12,24C5.383,24,0,18.617,0,12S5.383,0,12,0s12,5.383,12,12-5.383,12-12,12ZM12,1C5.935,1,1,5.935,1,12s4.935,11,11,11,11-4.935,11-11S18.065,1,12,1Zm4,12.5c-1.262,0-2.25-1.538-2.25-3.5s.988-3.5,2.25-3.5,2.25,1.538,2.25,3.5-.988,3.5-2.25,3.5Zm0-6c-.591,0-1.25,1.027-1.25,2.5s.659,2.5,1.25,2.5,1.25-1.027,1.25-2.5-.659-2.5-1.25-2.5ZM6.724,11.947l4-2c.247-.124,.347-.424,.224-.671-.124-.247-.423-.346-.671-.224l-4,2c-.247,.124-.347,.424-.224,.671,.088,.175,.265,.276,.447,.276,.075,0,.151-.017,.224-.053Zm11.195,4.826c.15-.231,.086-.541-.146-.692-.229-.149-.539-.087-.692,.145-.322,.493-1.415,1.773-2.581,1.773-.593,0-1.174-.513-1.735-1.009-.576-.51-1.12-.991-1.765-.991-.651,0-1.117,.31-1.527,.584-.335,.223-.624,.416-.973,.416-.671,0-1.411-.612-1.641-.848-.189-.197-.507-.203-.706-.011-.198,.191-.205,.507-.014,.706,.045,.047,1.124,1.153,2.36,1.153,.651,0,1.117-.31,1.527-.584,.335-.223,.624-.416,.973-.416,.266,0,.71,.393,1.103,.74,.668,.591,1.426,1.26,2.397,1.26,1.94,0,3.359-2.135,3.419-2.227ZM4.638,8.981c2.257-.645,3.737-2.446,4.27-3.19,.16-.225,.108-.537-.116-.697-.227-.16-.537-.109-.698,.116-.471,.659-1.776,2.251-3.73,2.81-.266,.076-.419,.353-.343,.618,.062,.22,.263,.363,.48,.363,.045,0,.092-.006,.138-.019Z"/></svg>
