<?xml version="1.0" encoding="UTF-8"?>
<svg xmlns="http://www.w3.org/2000/svg" id="Layer_1" data-name="Layer 1" viewBox="0 0 24 24" width="512" height="512"><path d="M17.373,17.832c-.099,.111-.236,.168-.374,.168-.118,0-.237-.042-.332-.127-.021-.019-2.138-1.873-4.667-1.873s-4.646,1.854-4.667,1.873c-.207,.184-.523,.165-.706-.041-.184-.206-.166-.521,.04-.705,.097-.087,2.415-2.127,5.333-2.127s5.236,2.04,5.333,2.127c.206,.184,.224,.499,.04,.705Zm-.186-8.723l-2.389,1.911c-.456,.093-.799,.496-.799,.98,0,.552,.448,1,1,1s1-.448,1-1c0-.197-.057-.38-.155-.535l1.968-1.574c.215-.173,.25-.487,.078-.703-.172-.215-.487-.25-.703-.078Zm-9.187,2.891c0,.552,.448,1,1,1s1-.448,1-1c0-.483-.343-.887-.799-.98l-2.389-1.911c-.216-.171-.53-.136-.703,.078-.172,.216-.137,.53,.078,.703l1.968,1.574c-.098,.155-.155,.338-.155,.535Zm16,0c0,6.617-5.383,12-12,12S0,18.618,0,12.001c0-1.784,.392-3.478,1.093-5.001L.026,1.715C-.074,1.185,.125,.654,.545,.325,.965-.005,1.528-.072,2.014,.151l3.624,1.679C7.484,.672,9.665,0,12,0s4.516,.671,6.362,1.83L21.984,.151c.488-.225,1.051-.156,1.471,.175,.419,.328,.618,.858,.52,1.383l-1.068,5.291c.701,1.523,1.093,3.217,1.093,5.001ZM19.312,2.493c1.125,.867,2.092,1.929,2.851,3.135l.83-4.111c.028-.149-.031-.308-.156-.405-.125-.1-.292-.118-.434-.053l-3.091,1.434ZM1.837,5.628c.759-1.206,1.726-2.268,2.851-3.135L1.595,1.06c-.141-.067-.307-.046-.431,.052-.126,.099-.186,.257-.156,.412l.829,4.105Zm21.163,6.373c0-6.065-4.935-11-11-11S1,5.936,1,12.001s4.935,11,11,11,11-4.935,11-11Z"/></svg>
