<?xml version="1.0" encoding="UTF-8"?>
<svg xmlns="http://www.w3.org/2000/svg" id="Layer_1" data-name="Layer 1" viewBox="0 0 24 24">
  <path d="m16.5,5c-1.378,0-2.5,1.121-2.5,2.5s1.122,2.5,2.5,2.5,2.5-1.121,2.5-2.5-1.122-2.5-2.5-2.5Zm0,4c-.827,0-1.5-.673-1.5-1.5s.673-1.5,1.5-1.5,1.5.673,1.5,1.5-.673,1.5-1.5,1.5Zm2,13H5.5c-1.862,0-3.389-1.462-3.494-3.299l6.348-6.348c.195-.195.195-.512,0-.707s-.512-.195-.707,0l-5.646,5.646V5.5c0-.276-.224-.5-.5-.5s-.5.224-.5.5v13c0,2.481,2.019,4.5,4.5,4.5h13c.276,0,.5-.224.5-.5s-.224-.5-.5-.5Zm5.354,1.146l-1.838-1.838c.636-.796.984-1.784.984-2.809V5.5c0-2.481-2.019-4.5-4.5-4.5H5.5c-1.024,0-2.013.348-2.809.984L.854.146C.658-.049.342-.049.146.146S-.049.658.146.854l23,23c.098.098.226.146.354.146s.256-.049.354-.146c.195-.195.195-.512,0-.707Zm-1.854-4.646c0,.759-.246,1.493-.698,2.095L3.404,2.697c.603-.451,1.337-.697,2.096-.697h13c1.93,0,3.5,1.57,3.5,3.5v13Z"/>
</svg>
