<?xml version="1.0" encoding="UTF-8"?>
<svg xmlns="http://www.w3.org/2000/svg" id="Layer_1" data-name="Layer 1" width="512" height="512" viewBox="0 0 24 24"><path d="M23.5,24h-4.578c-.738,0-1.373-.551-1.477-1.281-.383-2.69-2.724-4.719-5.445-4.719s-5.062,2.029-5.445,4.719c-.104,.73-.738,1.281-1.477,1.281H.5c-.276,0-.5-.224-.5-.5s.224-.5,.5-.5H5.079c.243,0,.452-.181,.486-.422,.096-.673,.295-1.312,.581-1.9l-4.299-2.556c-.237-.141-.315-.448-.174-.685,.141-.237,.449-.315,.685-.174l4.293,2.552c.452-.651,1.02-1.215,1.67-1.664l-2.549-4.4c-.139-.239-.057-.545,.182-.683,.239-.138,.545-.056,.683,.182l2.547,4.398c.713-.346,1.496-.564,2.315-.628v-4.52c0-.276,.224-.5,.5-.5s.5,.224,.5,.5v4.52c.818,.063,1.6,.282,2.312,.627l2.523-4.396c.138-.241,.444-.322,.683-.185,.239,.137,.322,.443,.185,.683l-2.526,4.4c.653,.45,1.223,1.017,1.676,1.67l4.346-2.509c.238-.138,.545-.057,.683,.183,.139,.239,.057,.545-.183,.683l-4.342,2.506c.285,.587,.483,1.223,.579,1.895,.034,.245,.239,.422,.486,.422h4.578c.276,0,.5,.224,.5,.5s-.224,.5-.5,.5ZM12,9.001c-.526,0-1.021-.205-1.394-.577l-2.468-2.578c-.191-.2-.184-.516,.016-.707,.199-.19,.516-.184,.707,.016l2.46,2.57c.055,.055,.115,.102,.179,.14V.5c0-.276,.224-.5,.5-.5s.5,.224,.5,.5V7.863c.066-.04,.129-.089,.187-.146l2.452-2.562c.192-.198,.508-.207,.707-.016s.206,.507,.016,.707l-2.46,2.57c-.38,.38-.875,.585-1.401,.585Z"/></svg>
