<?xml version="1.0" encoding="UTF-8"?>
<svg xmlns="http://www.w3.org/2000/svg" id="arrow-circle-down" viewBox="0 0 24 24" width="512" height="512"><path d="M12,0C5.383,0,0,5.383,0,12s5.383,12,12,12,12-5.383,12-12S18.617,0,12,0Zm0,23c-6.065,0-11-4.935-11-11S5.935,1,12,1s11,4.935,11,11-4.935,11-11,11Z"/><path d="M13,7.419c-.533-.541-1.467-.541-2,0l-5.087,5.154c-.406,.411-.523,1.021-.3,1.556,.224,.537,.722,.87,1.3,.87h10.174c.577,0,1.075-.333,1.3-.87,.224-.535,.106-1.146-.3-1.557l-5.087-5.154Zm4.464,6.325c-.031,.077-.133,.255-.377,.255H6.913c-.244,0-.345-.179-.377-.255-.026-.062-.097-.28,.089-.469l5.087-5.154c.078-.079,.18-.122,.288-.122s.21,.043,.288,.122l5.088,5.154c.185,.188,.114,.406,.088,.469Z"/></svg>
