<?xml version="1.0" encoding="UTF-8"?>
<svg xmlns="http://www.w3.org/2000/svg" id="Layer_1" data-name="Layer 1" viewBox="0 0 24 24" width="512" height="512"><path d="m22.5,13H1.5c-.827,0-1.5.673-1.5,1.5v5c0,2.481,2.019,4.5,4.5,4.5h15c2.481,0,4.5-2.019,4.5-4.5v-5c0-.827-.673-1.5-1.5-1.5Zm-5.5,1h3v3.5c0,.827-.673,1.5-1.5,1.5s-1.5-.673-1.5-1.5v-3.5Zm-1,3.25c0,.965-.785,1.75-1.75,1.75s-1.75-.785-1.75-1.75v-3.25h3.5v3.25Zm-9,.25c0,.827-.673,1.5-1.5,1.5s-1.5-.673-1.5-1.5v-3.5h3v3.5Zm1-3.5h3.5v3.25c0,.965-.785,1.75-1.75,1.75s-1.75-.785-1.75-1.75v-3.25Zm15,5.5c0,1.93-1.57,3.5-3.5,3.5H4.5c-1.93,0-3.5-1.57-3.5-3.5v-5c0-.275.224-.5.5-.5h1.5v3.5c0,1.379,1.122,2.5,2.5,2.5.858,0,1.617-.435,2.067-1.096.503.662,1.29,1.096,2.183,1.096.931,0,1.752-.467,2.25-1.177.498.71,1.319,1.177,2.25,1.177.893,0,1.68-.435,2.183-1.096.45.661,1.208,1.096,2.067,1.096,1.378,0,2.5-1.121,2.5-2.5v-3.5h1.5c.276,0,.5.225.5.5v5ZM19.5,0H4.5C2.019,0,0,2.019,0,4.5v5c0,.827.673,1.5,1.5,1.5h21c.827,0,1.5-.673,1.5-1.5v-5c0-2.481-2.019-4.5-4.5-4.5Zm-2.5,6.5c0-.827.673-1.5,1.5-1.5s1.5.673,1.5,1.5v3.5h-3v-3.5Zm-1,3.5h-3.5v-4.25c0-.965.785-1.75,1.75-1.75s1.75.785,1.75,1.75v4.25Zm-4.5,0h-3.5v-4.25c0-.965.785-1.75,1.75-1.75s1.75.785,1.75,1.75v4.25Zm-4.5,0h-3v-3.5c0-.827.673-1.5,1.5-1.5s1.5.673,1.5,1.5v3.5Zm16-.5c0,.275-.224.5-.5.5h-1.5v-3.5c0-1.379-1.122-2.5-2.5-2.5-.664,0-1.266.265-1.714.689-.416-.991-1.396-1.689-2.536-1.689-.931,0-1.752.467-2.25,1.177-.498-.71-1.319-1.177-2.25-1.177-1.141,0-2.12.698-2.536,1.689-.448-.424-1.049-.689-1.714-.689-1.378,0-2.5,1.121-2.5,2.5v3.5h-1.5c-.276,0-.5-.225-.5-.5v-5c0-1.93,1.57-3.5,3.5-3.5h15c1.93,0,3.5,1.57,3.5,3.5v5Z"/></svg>
