<?xml version="1.0" encoding="UTF-8"?>
<svg xmlns="http://www.w3.org/2000/svg" id="Layer_1" data-name="Layer 1" viewBox="0 0 24 24" width="512" height="512"><path d="M23.206,4.81L19.093,.697h0c-.646-.644-1.591-.861-2.466-.567-.819,.274-1.378,.933-1.502,1.801-.09,.704-.403,1.343-.908,1.848-.504,.503-1.144,.817-1.849,.908-1.265,.162-2.301,1.197-2.463,2.462-.09,.705-.404,1.344-.908,1.848-.504,.504-1.144,.818-1.849,.908-1.265,.162-2.3,1.197-2.463,2.462-.09,.705-.404,1.344-.908,1.848-.504,.504-1.143,.818-1.887,.914-.831,.119-1.491,.679-1.764,1.499-.292,.876-.075,1.819,.568,2.462l4.125,4.123c.529,.529,1.217,.796,1.92,.796,.621,0,1.254-.209,1.797-.632,.194-.151,.39-.261,.579-.327l.327-.11c.659-.218,1.406-.464,2.001-1.06,.663-.662,1.076-1.501,1.194-2.428,.105-.821,.777-1.492,1.597-1.597,.927-.118,1.767-.531,2.43-1.193,.663-.663,1.075-1.502,1.193-2.428,.104-.807,.79-1.494,1.598-1.597,.927-.119,1.766-.531,2.429-1.193,.658-.658,.915-1.493,1.141-2.23,.06-.191,.201-.501,.354-.696,.896-1.152,.824-2.712-.172-3.708ZM3.223,20.204l-1.823-1.822c-.446-.446-.461-1.036-.326-1.439,.072-.217,.311-.733,.98-.828,.927-.119,1.767-.531,2.429-1.193,.662-.661,1.075-1.501,1.193-2.428,.104-.807,.791-1.494,1.598-1.597,.927-.119,1.767-.531,2.429-1.193,.662-.661,1.075-1.501,1.193-2.428,.104-.807,.791-1.494,1.598-1.597,.927-.119,1.767-.531,2.429-1.193,.663-.663,1.075-1.502,1.197-2.453,.091-.644,.606-.882,.823-.955,.138-.046,.297-.075,.466-.075,.324,0,.682,.107,.976,.401l1.822,1.821c-.844,.416-1.466,1.241-1.589,2.197-.091,.705-.405,1.344-.909,1.848s-1.144,.818-1.849,.908c-1.266,.162-2.301,1.198-2.463,2.463-.09,.705-.404,1.343-.909,1.847-.504,.504-1.143,.818-1.849,.908-1.265,.162-2.301,1.198-2.463,2.462-.09,.705-.404,1.344-.909,1.848-.504,.504-1.143,.818-1.849,.908-.957,.123-1.782,.745-2.198,1.589ZM22.589,7.903c-.227,.291-.426,.709-.521,1.017-.21,.687-.409,1.334-.892,1.817-.505,.504-1.144,.818-1.849,.908-1.265,.162-2.301,1.197-2.463,2.462-.09,.704-.403,1.343-.908,1.848-.505,.504-1.144,.818-1.85,.908-1.265,.162-2.3,1.197-2.462,2.462-.09,.705-.404,1.344-.909,1.848-.428,.428-1.001,.617-1.608,.817l-.341,.115c-.293,.102-.584,.264-.865,.482-.754,.587-1.763,.551-2.397-.082l-1.529-1.529c.19-.705,.822-1.276,1.552-1.369,.927-.119,1.767-.531,2.428-1.193,.663-.662,1.076-1.501,1.194-2.428,.103-.807,.79-1.494,1.598-1.597,.927-.119,1.767-.531,2.428-1.193,.663-.662,1.076-1.502,1.194-2.428,.104-.807,.79-1.494,1.598-1.597,.927-.119,1.767-.531,2.429-1.193,.662-.661,1.075-1.501,1.194-2.428,.094-.73,.664-1.361,1.369-1.552l1.518,1.518c.635,.635,.672,1.638,.09,2.386Z"/></svg>
