<?xml version="1.0" encoding="UTF-8"?>
<svg xmlns="http://www.w3.org/2000/svg" id="Layer_1" data-name="Layer 1" viewBox="0 0 24 24" width="512" height="512"><path d="M19,0c-1.654,0-3,1.346-3,3s1.346,3,3,3c.753,0,1.433-.288,1.96-.747-.144,1.414-.786,3.747-3.46,3.747-.276,0-.5,.224-.5,.5s.224,.5,.5,.5c2.776,0,4.5-2.107,4.5-5.5v-1.5c0-1.654-1.346-3-3-3Zm0,5c-1.103,0-2-.897-2-2s.897-2,2-2,2,.897,2,2-.897,2-2,2Zm1,9.5v9c0,.276-.224,.5-.5,.5s-.5-.224-.5-.5v-7.793l-1.146,1.146c-.195,.195-.512,.195-.707,0s-.195-.512,0-.707l2-2c.143-.144,.358-.186,.545-.108s.309,.26,.309,.462Zm-7.146,4.061c.195,.195,.195,.512,0,.707l-4.293,4.293c-.283,.283-.66,.439-1.061,.439s-.777-.156-1.061-.439l-4.293-4.293c-.195-.195-.195-.512,0-.707s.512-.195,.707,0l4.146,4.146V.5c0-.276,.224-.5,.5-.5s.5,.224,.5,.5V22.707l4.146-4.146c.195-.195,.512-.195,.707,0Z"/></svg>
