<?xml version="1.0" encoding="UTF-8"?>
<svg xmlns="http://www.w3.org/2000/svg" id="Layer_1" data-name="Layer 1" viewBox="0 0 24 24" width="512" height="512"><path d="M1,4.5v15c0,1.93,1.57,3.5,3.5,3.5h2c.28,0,.5,.22,.5,.5s-.22,.5-.5,.5h-2c-2.48,0-4.5-2.02-4.5-4.5V4.5C0,2.02,2.02,0,4.5,0h2c.28,0,.5,.22,.5,.5s-.22,.5-.5,.5h-2c-1.93,0-3.5,1.57-3.5,3.5ZM19.5,0h-2c-.28,0-.5,.22-.5,.5s.22,.5,.5,.5h2c1.93,0,3.5,1.57,3.5,3.5v15c0,1.93-1.57,3.5-3.5,3.5h-2c-.28,0-.5,.22-.5,.5s.22,.5,.5,.5h2c2.48,0,4.5-2.02,4.5-4.5V4.5c0-2.48-2.02-4.5-4.5-4.5Z"/></svg>
