<?xml version="1.0" encoding="UTF-8"?>
<svg xmlns="http://www.w3.org/2000/svg" id="Layer_1" data-name="Layer 1" viewBox="0 0 24 24" width="512" height="512"><path d="M19.5,3h-7.03c-.23,0-.46-.05-.67-.16l-3.16-1.58c-.34-.17-.73-.26-1.12-.26h-3.03C2.02,1,0,3.02,0,5.5v13c0,2.48,2.02,4.5,4.5,4.5H12.5c.28,0,.5-.22,.5-.5s-.22-.5-.5-.5H4.5c-1.93,0-3.5-1.57-3.5-3.5V8H23v6.5c0,.28,.22,.5,.5,.5s.5-.22,.5-.5V7.5c0-2.48-2.02-4.5-4.5-4.5ZM1,5.5c0-1.93,1.57-3.5,3.5-3.5h3.03c.23,0,.46,.05,.67,.16l3.16,1.58c.34,.17,.73,.26,1.12,.26h7.03c1.76,0,3.22,1.31,3.46,3H1v-1.5Zm23,14s0,0,0,0c0,.5-.19,1-.58,1.38l-2.57,2.52c-.1,.1-.22,.14-.35,.14s-.26-.05-.36-.15c-.19-.2-.19-.51,0-.71l2.57-2.52c.06-.06,.1-.12,.14-.18H13.5c-.28,0-.5-.22-.5-.5s.22-.5,.5-.5h9.36c-.04-.07-.09-.13-.15-.19l-2.57-2.51c-.2-.19-.2-.51,0-.71,.19-.2,.51-.2,.71,0l2.57,2.52c.38,.38,.58,.89,.58,1.39,0,0,0,0,0,0Z"/></svg>
