<?xml version="1.0" encoding="UTF-8"?>
<svg xmlns="http://www.w3.org/2000/svg" id="Layer_1" data-name="Layer 1" viewBox="0 0 24 24" width="512" height="512"><path d="M8.341,24c-2.229,0-4.323-.868-5.897-2.443C-3.979,14.765,3.488,5.077,9.806,1.259c.649-.416,1.44-.445,2.116-.076,.675,.369,1.078,1.048,1.078,1.817v1.486C15.478,2.656,18.673,.886,20.469,.182h0c.971-.378,2.029-.156,2.767,.583,.738,.738,.962,1.798,.583,2.767-.704,1.796-2.475,4.991-4.305,7.469h1.413c.77,0,1.448,.403,1.817,1.078,.369,.677,.341,1.468-.076,2.116-3.049,4.74-8.413,9.806-14.327,9.806ZM10.927,1.927c-.201,0-.401,.059-.58,.174C4.51,5.685-2.7,14.5,3.15,20.85c6.337,5.842,15.069-1.343,18.676-7.196,.217-.336,.231-.746,.04-1.096-.19-.35-.542-.558-.939-.558h-2.427c-.192,0-.367-.11-.45-.283-.084-.174-.061-.379,.06-.529,1.917-2.396,4.018-6.082,4.777-8.021,.277-.708-.003-1.34-.358-1.694-.355-.355-.985-.637-1.694-.358-1.939,.76-5.626,2.86-8.021,4.777-.151,.119-.355,.143-.529,.06-.173-.083-.283-.258-.283-.45V3c0-.397-.208-.749-.558-.939-.163-.089-.34-.134-.516-.134Zm-1.927,17.073c-5.275-.138-5.274-7.863,0-8,5.275,.138,5.273,7.863,0,8Zm0-7c-3.956,.104-3.955,5.897,0,6,3.956-.104,3.955-5.897,0-6Z"/></svg>
