<?xml version="1.0" encoding="UTF-8"?>
<svg xmlns="http://www.w3.org/2000/svg" id="Layer_1" data-name="Layer 1" viewBox="0 0 24 24" width="512" height="512"><path d="M18.5,23c-1.378,0-2.5-1.122-2.5-2.5v-5.357c.481,.253,.893,.516,1.191,.75,.092,.072,.2,.106,.308,.106,.148,0,.295-.066,.394-.191,.17-.217,.132-.532-.085-.702-1.302-1.021-3.78-2.106-5.809-2.106s-4.507,1.085-5.809,2.106c-.217,.17-.255,.485-.085,.702,.17,.218,.485,.255,.702,.085,.299-.234,.71-.497,1.191-.75v5.357c0,1.378-1.122,2.5-2.5,2.5-.276,0-.5,.224-.5,.5s.224,.5,.5,.5h13c.276,0,.5-.224,.5-.5s-.224-.5-.5-.5Zm-10.553,0c.649-.636,1.053-1.521,1.053-2.5v-5.823c.949-.388,2.021-.677,3-.677s2.051,.29,3,.677v5.823c0,.979,.403,1.864,1.053,2.5H7.947Zm-3.947-3c0,.552-.448,1-1,1s-1-.448-1-1,.448-1,1-1,1,.448,1,1Zm20,3c0,.552-.448,1-1,1s-1-.448-1-1,.448-1,1-1,1,.448,1,1Zm0-11c0,3.497-1.521,6.813-4.174,9.097-.094,.081-.21,.121-.326,.121-.14,0-.28-.059-.379-.174-.18-.209-.157-.525,.053-.705,2.432-2.094,3.826-5.133,3.826-8.339,0-6.065-4.935-11-11-11S1,5.935,1,12c0,1.677,.367,3.286,1.091,4.782,.12,.249,.016,.547-.232,.668-.25,.122-.547,.016-.668-.232-.79-1.633-1.191-3.389-1.191-5.218C0,5.383,5.383,0,12,0s12,5.383,12,12Zm-6.223-5.084l-2.376,1.584,2.376,1.584c.23,.153,.292,.463,.139,.693-.096,.145-.255,.223-.417,.223-.095,0-.191-.027-.277-.084l-3-2c-.139-.093-.223-.249-.223-.416s.083-.323,.223-.416l3-2c.23-.153,.541-.092,.693,.139,.153,.23,.091,.54-.139,.693Zm-11.555,3.168l2.376-1.584-2.376-1.584c-.23-.153-.292-.463-.139-.693,.152-.23,.462-.292,.693-.139l3,2c.139,.093,.223,.249,.223,.416s-.083,.323-.223,.416l-3,2c-.085,.057-.182,.084-.277,.084-.162,0-.32-.078-.417-.223-.153-.23-.091-.54,.139-.693Z"/></svg>
