<?xml version="1.0" encoding="UTF-8"?>
<svg xmlns="http://www.w3.org/2000/svg" id="Layer_1" data-name="Layer 1" viewBox="0 0 24 24" width="512" height="512"><path d="M23.5,22h-1.5V5.707l1.445-1.445c.557-.557,.716-1.355,.414-2.083s-.979-1.18-1.766-1.18H1.906C1.119,1,.442,1.452,.141,2.18S-.002,3.705,.555,4.262l1.445,1.445V22H.5c-.276,0-.5,.224-.5,.5s.224,.5,.5,.5H4.5c1.379,0,2.5-1.122,2.5-2.5v-4.5c0-2.757,2.243-5,5-5s5,2.243,5,5v4.5c0,1.378,1.121,2.5,2.5,2.5h4c.276,0,.5-.224,.5-.5s-.224-.5-.5-.5ZM1.064,2.562c.146-.352,.461-.562,.842-.562H22.094c.381,0,.695,.21,.842,.562,.146,.352,.072,.723-.197,.993l-1.445,1.445H2.707l-1.445-1.445c-.27-.27-.343-.641-.197-.993ZM18,20.5v-4.5c0-3.309-2.691-6-6-6s-6,2.691-6,6v4.5c0,.827-.673,1.5-1.5,1.5h-1.5V6H21V22h-1.5c-.827,0-1.5-.673-1.5-1.5Z"/></svg>
