<?xml version="1.0" encoding="UTF-8"?>
<svg xmlns="http://www.w3.org/2000/svg" id="Layer_1" data-name="Layer 1" viewBox="0 0 24 24" width="512" height="512"><path d="M20.5,15H12.5v-6h1.64c.48,0,.91-.29,1.09-.73,.18-.44,.08-.95-.25-1.28l-2.14-2.14c-.46-.46-1.21-.46-1.67,0l-2.14,2.14c-.34,.34-.44,.84-.25,1.28,.18,.44,.61,.73,1.09,.73h1.64v6H3.5c-1.93,0-3.5,1.57-3.5,3.5v2c0,1.93,1.57,3.5,3.5,3.5H20.5c1.93,0,3.5-1.57,3.5-3.5v-2c0-1.93-1.57-3.5-3.5-3.5ZM9.69,7.89s-.04-.12,.04-.19l2.14-2.14s.08-.05,.13-.05,.09,.02,.13,.05l2.14,2.14c.07,.07,.06,.15,.04,.19-.02,.04-.06,.11-.16,.11h-4.29c-.1,0-.15-.07-.16-.11Zm13.31,12.61c0,1.38-1.12,2.5-2.5,2.5H3.5c-1.38,0-2.5-1.12-2.5-2.5v-2c0-1.38,1.12-2.5,2.5-2.5H20.5c1.38,0,2.5,1.12,2.5,2.5v2ZM20.5,0H3.5C1.57,0,0,1.57,0,3.5v2c0,1.93,1.57,3.5,3.5,3.5h3c.28,0,.5-.22,.5-.5s-.22-.5-.5-.5h-2.14L11.36,1h3.59l-1.48,1.48c-.2,.2-.2,.51,0,.71,.1,.1,.23,.15,.35,.15s.26-.05,.35-.15l2.19-2.19h3.59l-3.86,3.86c-.2,.2-.2,.51,0,.71,.1,.1,.23,.15,.35,.15s.26-.05,.35-.15L21.25,1.11c.86,.27,1.52,.99,1.7,1.88l-5,5h-.45c-.28,0-.5,.22-.5,.5s.22,.5,.5,.5h3c1.93,0,3.5-1.57,3.5-3.5V3.5c0-1.93-1.57-3.5-3.5-3.5ZM3.5,1h1.45L1,4.95v-1.45c0-1.38,1.12-2.5,2.5-2.5Zm-.48,6.93s-.01,.01-.02,.02c-.89-.18-1.62-.84-1.89-1.7L6.36,1h3.59L3.02,7.93Zm17.48,.07h-1.14l3.64-3.64v1.14c0,1.38-1.12,2.5-2.5,2.5Z"/></svg>
