<?xml version="1.0" encoding="UTF-8"?>
<svg xmlns="http://www.w3.org/2000/svg" id="Layer_1" data-name="Layer 1" viewBox="0 0 24 24">
  <path d="m19.5,2H4.5C2.019,2,0,4.019,0,6.5v11c0,2.481,2.019,4.5,4.5,4.5h15c2.481,0,4.5-2.019,4.5-4.5V6.5c0-2.481-2.019-4.5-4.5-4.5Zm3.5,15.5c0,1.93-1.57,3.5-3.5,3.5H4.5c-1.93,0-3.5-1.57-3.5-3.5V6.5c0-1.93,1.57-3.5,3.5-3.5h15c1.93,0,3.5,1.57,3.5,3.5v11Zm-7-10.5h-1c-1.103,0-2,.897-2,2v6c0,1.103.897,2,2,2h1c2.206,0,4-1.794,4-4v-2c0-2.206-1.794-4-4-4Zm3,6c0,1.654-1.346,3-3,3h-1c-.552,0-1-.449-1-1v-6c0-.551.448-1,1-1h1c1.654,0,3,1.346,3,3v2Zm-8,1.25c0,1.517-1.233,2.75-2.75,2.75h-1.801c-.979,0-1.892-.526-2.382-1.375-.139-.239-.057-.545.183-.683.235-.138.544-.057.683.183.312.54.894.875,1.517.875h1.801c.965,0,1.75-.785,1.75-1.75,0-.732-.524-1.351-1.246-1.472l-2.694-.575c-1.184-.197-2.06-1.23-2.06-2.454,0-1.517,1.233-2.75,2.75-2.75h1.801c.979,0,1.892.526,2.382,1.375.139.239.057.545-.183.683-.236.136-.545.056-.683-.183-.312-.54-.894-.875-1.517-.875h-1.801c-.965,0-1.75.785-1.75,1.75,0,.732.524,1.351,1.246,1.472l2.694.575c1.184.197,2.06,1.23,2.06,2.454Z"/>
</svg>
