<?xml version="1.0" encoding="UTF-8"?>
<svg xmlns="http://www.w3.org/2000/svg" id="Layer_1" data-name="Layer 1" width="512" height="512" viewBox="0 0 24 24"><path d="M23.5,20h-2.5V4.5c0-2.481-2.019-4.5-4.5-4.5H4.5C2.019,0,0,2.019,0,4.5v12c0,2.324,1.77,4.241,4.032,4.476,.233,1.706,1.699,3.024,3.468,3.024s3.221-1.306,3.464-3h12.536c.276,0,.5-.224,.5-.5s-.224-.5-.5-.5ZM1,7H6c.551,0,1,.448,1,1v2c0,.552-.449,1-1,1H1V7Zm0,9.5v-4.5H6c1.103,0,2-.897,2-2v-2c0-1.103-.897-2-2-2H1v-1.5c0-1.93,1.57-3.5,3.5-3.5h12c1.93,0,3.5,1.57,3.5,3.5v15.5H10.964c-.243-1.694-1.704-3-3.464-3-1.749,0-3.204,1.291-3.46,2.97-1.713-.226-3.04-1.696-3.04-3.47Zm6.5,6.5c-1.378,0-2.5-1.121-2.5-2.5s1.122-2.5,2.5-2.5,2.5,1.121,2.5,2.5-1.122,2.5-2.5,2.5Zm5.5-11h2c1.103,0,2-.897,2-2v-2c0-1.103-.897-2-2-2h-2c-1.103,0-2,.897-2,2v2c0,1.103,.897,2,2,2Zm-1-4c0-.552,.449-1,1-1h2c.551,0,1,.448,1,1v2c0,.552-.449,1-1,1h-2c-.551,0-1-.448-1-1v-2Z"/></svg>
