<?xml version="1.0" encoding="UTF-8"?>
<svg xmlns="http://www.w3.org/2000/svg" id="Layer_1" data-name="Layer 1" viewBox="0 0 24 24" width="512" height="512"><path d="M8.85,4.85c.14-.14,.19-.36,.11-.54s-.26-.31-.46-.31h-3c-.83,0-1.5,.67-1.5,1.5v11c0,.83,.67,1.5,1.5,1.5h4c.28,0,.5-.22,.5-.5s-.22-.5-.5-.5H5.5c-.28,0-.5-.22-.5-.5v-7.79l3.85-3.85Zm-3.85,.65c0-.28,.22-.5,.5-.5h1.79l-2.29,2.29v-1.79Zm12,4V5.5c0-.28-.22-.5-.5-.5h-2.17c-.39,0-.78,.16-1.06,.44l-3.83,3.83c-.28,.28-.44,.66-.44,1.06v2.17c0,.28,.22,.5,.5,.5h1c.28,0,.5,.22,.5,.5s-.22,.5-.5,.5h-1c-.83,0-1.5-.67-1.5-1.5v-2.17c0-.67,.26-1.3,.73-1.77l3.83-3.83c.47-.47,1.1-.73,1.77-.73h2.17c.83,0,1.5,.67,1.5,1.5v4c0,.28-.22,.5-.5,.5s-.5-.22-.5-.5Zm-3.5-.5c.28,0,.5,.22,.5,.5v1c0,.28-.22,.5-.5,.5s-.5-.22-.5-.5v-1c0-.28,.22-.5,.5-.5Zm-1.5,12.5c0,.28-.22,.5-.5,.5H4.5c-2.48,0-4.5-2.02-4.5-4.5V4.5C0,2.02,2.02,0,4.5,0h13c2.48,0,4.5,2.02,4.5,4.5v7c0,.28-.22,.5-.5,.5s-.5-.22-.5-.5V4.5c0-1.93-1.57-3.5-3.5-3.5H4.5c-1.93,0-3.5,1.57-3.5,3.5v13c0,1.93,1.57,3.5,3.5,3.5h7c.28,0,.5,.22,.5,.5Zm11.85,1.65l-2.98-2.98c.71-.86,1.13-1.96,1.13-3.16,0-2.76-2.24-5-5-5s-5,2.24-5,5,2.24,5,5,5c1.2,0,2.3-.42,3.16-1.13l2.98,2.98c.1,.1,.23,.15,.35,.15s.26-.05,.35-.15c.2-.2,.2-.51,0-.71Zm-6.85-2.15c-2.21,0-4-1.79-4-4s1.79-4,4-4,4,1.79,4,4-1.79,4-4,4Z"/></svg>
