<?xml version="1.0" encoding="UTF-8"?>
<svg xmlns="http://www.w3.org/2000/svg" id="Layer_1" data-name="Layer 1" viewBox="0 0 24 24" width="512" height="512"><path d="m4,4.5c0-.276.224-.5.5-.5h3.5V.5c0-.276.224-.5.5-.5s.5.224.5.5v3.5h3.5c.276,0,.5.224.5.5s-.224.5-.5.5h-3.5v3.5c0,.276-.224.5-.5.5s-.5-.224-.5-.5v-3.5h-3.5c-.276,0-.5-.224-.5-.5Zm19.364,8.681l-6.806,7.639c-1.801,2.021-4.387,3.181-7.093,3.181H3.5c-1.93,0-3.5-1.57-3.5-3.5v-5c0-1.93,1.57-3.5,3.5-3.5h9.858c1.208,0,2.229.814,2.542,1.922l3.732-4.102c.451-.496,1.069-.787,1.739-.818.67-.022,1.312.2,1.809.652,1.011.922,1.093,2.504.184,3.526Zm-.857-2.787c-.298-.272-.688-.407-1.088-.393-.403.019-.775.194-1.047.492l-4.495,4.94c-.301.945-1.124,1.678-2.146,1.824l-6.172.739c-.283.033-.523-.163-.556-.437-.033-.274.163-.523.437-.556l6.161-.737c.792-.113,1.399-.812,1.399-1.624,0-.905-.737-1.642-1.642-1.642H3.5c-1.378,0-2.5,1.122-2.5,2.5v5c0,1.378,1.122,2.5,2.5,2.5h5.965c2.422,0,4.735-1.037,6.346-2.846l6.806-7.639c.548-.615.498-1.567-.11-2.122Z"/></svg>
