<?xml version="1.0" encoding="UTF-8"?>
<svg xmlns="http://www.w3.org/2000/svg" id="Layer_1" data-name="Layer 1" viewBox="0 0 24 24">
  <path d="m14.751,19.002c-.314,0-.619-.122-.858-.354l-5.188-5.048c-.442-.396-.705-.984-.705-1.6s.263-1.203.72-1.613l5.173-5.033c.364-.355.881-.452,1.349-.255s.759.636.759,1.145v11.514c0,.508-.291.946-.759,1.145-.16.067-.326.101-.49.101Zm.003-13.002c-.05,0-.108.016-.164.07l-5.188,5.047c-.265.238-.402.547-.402.883s.138.645.388.869l5.202,5.062c.104.102.217.067.263.049.044-.019.147-.078.147-.223V6.243c0-.145-.104-.204-.147-.223-.021-.009-.057-.021-.099-.021Z"/>
</svg>
