<?xml version="1.0" encoding="UTF-8"?>
<svg xmlns="http://www.w3.org/2000/svg" id="Layer_1" data-name="Layer 1" viewBox="0 0 24 24" width="512" height="512"><path d="m22.703,15.576c-.042.037-.055.098-.03.151.217.484.327.996.327,1.522,0,1.156-.521,2.23-1.43,2.946-.909.716-2.09.97-3.242.693-1.047-.251-1.961-1.006-2.446-2.017-.341-.713-.455-1.445-.338-2.183l-3.544-1.018-3.544,1.018c.03.188.044.375.044.561,0,1.104-.483,2.146-1.326,2.861-.682.579-1.543.888-2.432.888-.209,0-.419-.017-.629-.052-1.503-.249-2.755-1.472-3.044-2.975-.148-.769-.057-1.549.262-2.254.021-.047.007-.105-.034-.141C.263,14.682-.194,13.34.076,11.986c.286-1.433,1.435-2.598,2.859-2.9,1.027-.216,2.059-.021,2.908.555.686.465,1.198,1.15,1.458,1.93l3.08-.931c.263-.081.543.069.623.334.08.264-.069.543-.334.623l-3.58,1.083c-.136.043-.285.023-.408-.053-.122-.075-.206-.2-.229-.341-.126-.735-.553-1.397-1.17-1.816-.621-.421-1.379-.565-2.14-.404-1.039.22-1.877,1.071-2.085,2.117-.198.996.136,1.982.895,2.639.375.324.495.862.291,1.31-.233.516-.299,1.088-.19,1.653.211,1.101,1.126,1.996,2.225,2.178.827.135,1.625-.081,2.251-.613.618-.524.972-1.289.972-2.098,0-.252-.039-.511-.115-.771-.037-.127-.022-.265.042-.381.064-.117.172-.203.3-.24l4.135-1.188c.091-.026.186-.026.276,0l4.135,1.188c.128.037.236.123.3.24.064.117.079.254.041.382-.197.669-.142,1.31.169,1.96.356.743,1.021,1.295,1.778,1.477.851.205,1.722.02,2.389-.506.667-.526,1.049-1.313,1.049-2.161,0-.384-.081-.758-.239-1.113-.207-.46-.091-.99.289-1.317.758-.655,1.092-1.641.894-2.636-.209-1.052-1.052-1.904-2.098-2.121-.763-.159-1.525-.009-2.146.421-.618.428-1.039,1.101-1.154,1.844-.022.144-.106.271-.23.348-.123.077-.274.096-.414.052l-3.55-1.116c-.264-.083-.41-.363-.327-.627.083-.263.361-.412.627-.327l3.039.955c.251-.786.757-1.479,1.441-1.952.848-.588,1.886-.794,2.919-.578,1.434.298,2.589,1.465,2.875,2.905.27,1.353-.187,2.694-1.221,3.588ZM12,7c.276,0,.5-.224.5-.5V2.5c0-.276-.224-.5-.5-.5s-.5.224-.5.5v4c0,.276.224.5.5.5Zm3.89.188c.08.047.167.069.252.069.172,0,.339-.088.432-.247l1.759-3c.14-.238.06-.544-.178-.684-.24-.141-.545-.06-.684.178l-1.759,3c-.14.238-.06.544.178.684Zm-8.435-.138c.092.163.261.254.436.254.083,0,.168-.021.246-.065.241-.136.325-.441.189-.681l-1.698-3c-.136-.241-.442-.325-.681-.189-.241.136-.325.441-.189.681l1.698,3Z"/></svg>
