<?xml version="1.0" encoding="UTF-8"?>
<svg xmlns="http://www.w3.org/2000/svg" id="Layer_1" data-name="Layer 1" viewBox="0 0 24 24" width="512" height="512"><path d="M21.12,1.6c-.56-.48-1.3-.68-2.04-.56-1.19,.19-2.08,1.3-2.08,2.57v4.89c-.42-.31-.94-.5-1.5-.5-.82,0-1.54,.39-2,1-.46-.61-1.18-1-2-1-.56,0-1.08,.19-1.5,.5V2.61C10,1.33,9.1,.23,7.92,.03c-.73-.12-1.47,.09-2.04,.56-.56,.48-.88,1.17-.88,1.9V12.43l-1.65,1.58c-.87,.87-1.35,2.02-1.35,3.25,0,1.23,.48,2.38,1.35,3.25l1.59,1.59c1.23,1.23,2.86,1.9,4.6,1.9h6.97c3.03,0,5.5-2.47,5.5-5.5V3.5c0-.73-.32-1.43-.88-1.9Zm-7.12,8.9c0-.83,.67-1.5,1.5-1.5s1.5,.67,1.5,1.5v3c0,.83-.67,1.5-1.5,1.5s-1.5-.67-1.5-1.5v-3Zm-4,0c0-.83,.67-1.5,1.5-1.5s1.5,.67,1.5,1.5v3c0,.83-.67,1.5-1.5,1.5s-1.5-.67-1.5-1.5v-3ZM6,2.5c0-.44,.19-.86,.53-1.14,.34-.29,.78-.41,1.23-.34,.71,.12,1.24,.8,1.24,1.59V11.5c-.89-.67-2.12-.67-3,0V2.5Zm15,16c0,2.48-2.02,4.5-4.5,4.5h-6.97c-1.47,0-2.85-.57-3.89-1.61l-1.59-1.59c-.68-.68-1.05-1.58-1.05-2.54,0-.96,.38-1.86,1.05-2.53l2.39-2.29c.58-.58,1.54-.58,2.12,0,.28,.28,.44,.66,.44,1.06s-.16,.78-.43,1.05l-2.41,2.32c-.2,.19-.21,.51-.01,.71,.19,.2,.51,.21,.71,.01l2.42-2.33c.08-.08,.16-.17,.23-.27,.46,.61,1.18,1,2,1s1.54-.39,2-1c.46,.61,1.18,1,2,1,1.38,0,2.5-1.12,2.5-2.5V3.61c0-.79,.53-1.47,1.24-1.59,.45-.08,.89,.05,1.23,.34,.34,.29,.53,.7,.53,1.14v15Z"/></svg>
