<?xml version="1.0" encoding="UTF-8"?>
<svg xmlns="http://www.w3.org/2000/svg" id="Layer_1" data-name="Layer 1" width="512" height="512" viewBox="0 0 24 24"><path d="M24,19.405c0-1.321-.226-2.623-.67-3.868l-.911-2.551c-.638-1.787-2.341-2.987-4.238-2.987h-3.361c-1.897,0-3.601,1.2-4.238,2.987l-.911,2.551c-.444,1.245-.67,2.546-.67,3.962,0,1.207,.86,2.217,2,2.45v.55c0,.827,.673,1.5,1.5,1.5s1.5-.673,1.5-1.5v-.5h5v.5c0,.827,.673,1.5,1.5,1.5s1.5-.673,1.5-1.5v-.55c1.14-.234,2-1.254,2-2.544Zm-12.478-6.083c.496-1.389,1.821-2.323,3.297-2.323h3.361c1.476,0,2.801,.934,3.297,2.323,0,0,.94,2.635,.955,2.677H10.568c.014-.042,.955-2.677,.955-2.677Zm9.978,7.677H11.5c-.827,0-1.5-.673-1.5-1.595,0-.814,.094-1.619,.279-2.405h2.721v1.5c0,.276,.224,.5,.5,.5s.5-.224,.5-.5v-1.5h5v1.5c0,.276,.224,.5,.5,.5s.5-.224,.5-.5v-1.5h2.72c.186,.795,.28,1.621,.28,2.5,0,.827-.673,1.5-1.5,1.5ZM4.5,1c-1.93,0-3.5,1.57-3.5,3.5V23.5c0,.276-.224,.5-.5,.5s-.5-.224-.5-.5V4.5C0,2.019,2.019,0,4.5,0h7c2.481,0,4.5,2.019,4.5,4.5v3c0,.276-.224,.5-.5,.5s-.5-.224-.5-.5v-3c0-1.93-1.57-3.5-3.5-3.5H4.5Zm2,3h-2c-.276,0-.5,.224-.5,.5v2c0,.276,.224,.5,.5,.5h2c.276,0,.5-.224,.5-.5v-2c0-.276-.224-.5-.5-.5Zm-.5,2h-1v-1h1v1Zm.5,3h-2c-.276,0-.5,.224-.5,.5v2c0,.276,.224,.5,.5,.5h2c.276,0,.5-.224,.5-.5v-2c0-.276-.224-.5-.5-.5Zm-.5,2h-1v-1h1v1Zm.5,3h-2c-.276,0-.5,.224-.5,.5v2c0,.276,.224,.5,.5,.5h2c.276,0,.5-.224,.5-.5v-2c0-.276-.224-.5-.5-.5Zm-.5,2h-1v-1h1v1Zm.5,3h-2c-.276,0-.5,.224-.5,.5v2c0,.276,.224,.5,.5,.5h2c.276,0,.5-.224,.5-.5v-2c0-.276-.224-.5-.5-.5Zm-.5,2h-1v-1h1v1ZM9.5,4c-.276,0-.5,.224-.5,.5v2c0,.276,.224,.5,.5,.5h2c.276,0,.5-.224,.5-.5v-2c0-.276-.224-.5-.5-.5h-2Zm1.5,2h-1v-1h1v1Z"/></svg>
