<?xml version="1.0" encoding="UTF-8"?>
<svg xmlns="http://www.w3.org/2000/svg" id="Layer_1" data-name="Layer 1" viewBox="0 0 24 24">
  <path d="m5,21c0,.552-.448,1-1,1s-1-.448-1-1,.448-1,1-1,1,.448,1,1ZM12,3c.552,0,1-.448,1-1s-.448-1-1-1-1,.448-1,1,.448,1,1,1Zm-8,3c.552,0,1-.448,1-1s-.448-1-1-1-1,.448-1,1,.448,1,1,1Zm-3,6c-.552,0-1,.448-1,1s.448,1,1,1,1-.448,1-1-.448-1-1-1Zm22,0c-.552,0-1,.448-1,1s.448,1,1,1,1-.448,1-1-.448-1-1-1Zm-3-8c-.552,0-1,.448-1,1s.448,1,1,1,1-.448,1-1-.448-1-1-1Zm0,16c-.552,0-1,.448-1,1s.448,1,1,1,1-.448,1-1-.448-1-1-1Zm-1-7c0,3.86-3.141,7-7,7s-7-3.14-7-7,3.141-7,7-7,7,3.14,7,7Zm-1,0c0-3.309-2.691-6-6-6s-6,2.691-6,6c0,1.475.535,2.827,1.421,3.872l4.226-4.226c.195-.195.512-.195.707,0s.195.512,0,.707l-4.226,4.226c1.046.886,2.398,1.421,3.872,1.421,3.309,0,6-2.691,6-6Z"/>
</svg>
