<?xml version="1.0" encoding="UTF-8"?>
<svg xmlns="http://www.w3.org/2000/svg" id="Layer_1" data-name="Layer 1" viewBox="0 0 24 24" width="512" height="512"><path d="m23.783,2.448l-1.238-.853c-1.566-1.044-3.389-1.596-5.27-1.596h-5.275c-1.654,0-3,1.346-3,3v3.15c-2.999,1.217-5,4.134-5,7.397v5.953c0,2.481,2.019,4.5,4.5,4.5h7c2.481,0,4.5-2.019,4.5-4.5v-5.953c0-3.253-2.003-6.182-5-7.401V1h2.275c1.683,0,3.313.494,4.709,1.424l1.232.849c.224.155.536.101.695-.129.156-.228.099-.538-.129-.695Zm-13.783.552c0-1.103.897-2,2-2h2v5h-4v-3Zm9,10.547v5.953c0,1.93-1.57,3.5-3.5,3.5h-7c-1.93,0-3.5-1.57-3.5-3.5v-5.953c0-2.917,1.823-5.526,4.544-6.547h4.925c2.712,1.024,4.531,3.643,4.531,6.547Zm-3.5.953c.276,0,.5.224.5.5s-.224.5-.5.5h-3v3c0,.276-.224.5-.5.5s-.5-.224-.5-.5v-3h-3c-.276,0-.5-.224-.5-.5s.224-.5.5-.5h3v-3c0-.276.224-.5.5-.5s.5.224.5.5v3h3Z"/></svg>
