<?xml version="1.0" encoding="UTF-8"?>
<svg xmlns="http://www.w3.org/2000/svg" id="Layer_1" data-name="Layer 1" viewBox="0 0 24 24" width="512" height="512"><path d="M23.43,23.25l-5.51-9.5c-.03-.06-.08-.11-.13-.15l-3.91-2.93-1.4-2.63c-.83-1.28-2.24-2.04-3.77-2.04h-.96c-1.55,0-2.98,.78-3.81,2.1L.08,14.23c-.15,.23-.08,.54,.16,.69,.23,.15,.54,.08,.69-.16l3.87-6.13c.31-.49,.72-.88,1.21-1.16v5.66c0,1.19,.6,2.29,1.59,2.94l3.52,2.29,3.14,5.4c.09,.16,.26,.25,.43,.25,.09,0,.17-.02,.25-.07,.24-.14,.32-.44,.18-.68l-3.2-5.5c-.04-.07-.09-.13-.16-.17l-.76-.5V7.84c.24,.2,.44,.44,.62,.7l1.43,2.69c.03,.06,.08,.12,.14,.17l3.92,2.94,5.46,9.41c.09,.16,.26,.25,.43,.25,.09,0,.17-.02,.25-.07,.24-.14,.32-.44,.18-.68Zm-13.43-6.81l-1.86-1.21c-.71-.46-1.14-1.25-1.14-2.1V7.08c.24-.05,.5-.08,.75-.08h.96c.45,0,.89,.09,1.29,.24v9.19Zm.99,.64s0,0,0,0h0Zm-2.48-12.08c1.38,0,2.5-1.12,2.5-2.5s-1.12-2.5-2.5-2.5-2.5,1.12-2.5,2.5,1.12,2.5,2.5,2.5Zm0-4c.83,0,1.5,.67,1.5,1.5s-.67,1.5-1.5,1.5-1.5-.67-1.5-1.5,.67-1.5,1.5-1.5Zm-1.52,17.6l-1,5c-.05,.24-.26,.4-.49,.4-.03,0-.07,0-.1,0-.27-.05-.45-.32-.39-.59l1-5c.05-.27,.33-.45,.59-.39,.27,.05,.45,.32,.39,.59Z"/></svg>
