<?xml version="1.0" encoding="UTF-8"?>
<svg xmlns="http://www.w3.org/2000/svg" id="Layer_1" data-name="Layer 1" viewBox="0 0 24 24" width="512" height="512"><path d="m12,0C5.383,0,0,5.383,0,12s5.383,12,12,12c2.447,0,4.793-.722,6.783-2.088.228-.156.286-.467.129-.695-.156-.229-.466-.286-.695-.129-1.823,1.251-3.973,1.912-6.217,1.912-6.065,0-11-4.935-11-11S5.935,1,12,1s11,4.935,11,11v2.5c0,1.378-1.122,2.5-2.5,2.5s-2.5-1.122-2.5-2.5v-2.5c0-3.309-2.691-6-6-6s-6,2.691-6,6,2.691,6,6,6c2.131,0,4.006-1.117,5.071-2.796.327,1.594,1.74,2.796,3.429,2.796,1.93,0,3.5-1.57,3.5-3.5v-2.5C24,5.383,18.617,0,12,0Zm0,17c-2.757,0-5-2.243-5-5s2.243-5,5-5,5,2.243,5,5-2.243,5-5,5Z"/></svg>
