<?xml version="1.0" encoding="UTF-8"?>
<svg xmlns="http://www.w3.org/2000/svg" id="Layer_1" data-name="Layer 1" viewBox="0 0 24 24" width="512" height="512"><path d="m10.838,14.212c-1.353.497-2.193,1.664-2.193,3.046,0,1.842,1.013,3.954,1.862,5.4.309.526.866.841,1.491.841h0c.625,0,1.182-.314,1.491-.84,1.213-2.067,1.84-3.857,1.862-5.322.013-.858-.354-1.718-1.005-2.357-.933-.916-2.273-1.224-3.509-.769Zm1.789,7.941c-.127.217-.362.347-.628.347h0c-.266,0-.501-.13-.629-.347-1.128-1.922-1.725-3.614-1.725-4.895,0-.952.589-1.76,1.538-2.108.271-.1.547-.15.818-.15.605,0,1.189.247,1.646.695s.714,1.042.705,1.628c-.02,1.271-.616,2.942-1.725,4.831Zm11.07-7.786c-.259-.83-.885-1.549-1.717-1.972-.823-.418-1.74-.509-2.582-.254-.378.115-.736.299-1.064.547-1.162.882-1.61,2.261-1.169,3.599.585,1.778,2.24,3.519,3.526,4.667.329.293.742.447,1.169.447.187,0,.375-.029.562-.089.593-.191,1.024-.657,1.156-1.247.524-2.358.564-4.275.12-5.697Zm-1.097,5.48c-.077.346-.365.473-.486.512-.271.087-.553.03-.758-.152-1.713-1.529-2.834-2.992-3.242-4.233-.303-.92.013-1.874.823-2.489.233-.177.486-.307.75-.387.218-.066.444-.099.673-.099.393,0,.792.097,1.166.288.593.301,1.036.804,1.216,1.378.386,1.235.336,3.028-.143,5.183ZM5.666,12.689c-.328-.249-.686-.433-1.063-.547-.839-.255-1.758-.164-2.582.254-.832.423-1.458,1.142-1.717,1.972-.444,1.422-.404,3.339.12,5.697.131.59.563,1.056,1.156,1.247.186.06.375.089.562.089.427,0,.84-.154,1.169-.447,1.286-1.147,2.941-2.889,3.526-4.667.44-1.338-.008-2.717-1.17-3.599Zm.22,3.286c-.408,1.241-1.529,2.704-3.242,4.233-.204.182-.487.239-.758.152-.121-.039-.409-.167-.486-.512-.479-2.155-.528-3.947-.143-5.183.18-.574.623-1.077,1.216-1.378.375-.19.773-.288,1.166-.288.228,0,.455.033.673.099.264.08.517.21.75.387.811.615,1.127,1.569.824,2.489ZM.151,2.858c-.198-.192-.202-.508-.01-.707.193-.199.509-.203.707-.011.05.049,5.085,4.861,11.152,4.861s11.102-4.812,11.152-4.861c.198-.192.514-.188.707.011.192.198.188.515-.01.707-.145.141-2.522,2.417-6.032,3.894l1.152,3.072c.097.259-.034.547-.292.644-.058.021-.117.032-.176.032-.202,0-.393-.124-.468-.324l-1.148-3.062c-1.342.478-2.821.817-4.384.877,0,.004,0,.007,0,.01v3.498c0,.276-.224.5-.5.5s-.5-.224-.5-.5v-3.498s0-.007,0-.01c-1.57-.061-3.055-.403-4.402-.884l-1.198,3.025c-.078.196-.266.316-.465.316-.062,0-.124-.011-.184-.035-.257-.102-.382-.392-.281-.649l1.196-3.02C2.666,5.268.297,3,.151,2.858Z"/></svg>
