<?xml version="1.0" encoding="UTF-8"?>
<svg xmlns="http://www.w3.org/2000/svg" id="Layer_1" data-name="Layer 1" viewBox="0 0 24 24" width="512" height="512"><path d="M12,20c5.514,0,10-4.486,10-10S17.514,0,12,0,2,4.486,2,10s4.486,10,10,10ZM12,1c4.962,0,9,4.037,9,9s-4.038,9-9,9S3,14.963,3,10,7.038,1,12,1Zm-4,6.626c0-1.448,1.178-2.626,2.626-2.626h.874v-1.5c0-.276,.224-.5,.5-.5s.5,.224,.5,.5v1.5h.926c.979,0,1.891,.526,2.381,1.375,.139,.238,.057,.545-.182,.683-.241,.138-.546,.057-.683-.183-.312-.54-.894-.875-1.516-.875h-2.8c-.896,0-1.626,.729-1.626,1.626,0,.803,.575,1.479,1.368,1.604l3.423,.552c1.28,.204,2.209,1.295,2.209,2.592,0,1.448-1.178,2.626-2.626,2.626h-.874v1.5c0,.276-.224,.5-.5,.5s-.5-.224-.5-.5v-1.5h-.926c-.979,0-1.891-.526-2.381-1.375-.139-.238-.057-.545,.182-.683,.239-.14,.545-.057,.683,.183,.312,.54,.894,.875,1.516,.875h2.8c.896,0,1.626-.729,1.626-1.626,0-.803-.575-1.479-1.368-1.604l-3.423-.552c-1.28-.204-2.209-1.295-2.209-2.592Zm16,13.374c0,1.654-1.346,3-3,3H3c-1.654,0-3-1.346-3-3s1.346-3,3-3h.5c.276,0,.5,.224,.5,.5s-.224,.5-.5,.5h-.5c-1.103,0-2,.897-2,2s.897,2,2,2H21c1.103,0,2-.897,2-2s-.897-2-2-2h-.5c-.276,0-.5-.224-.5-.5s.224-.5,.5-.5h.5c1.654,0,3,1.346,3,3Z"/></svg>
