<?xml version="1.0" encoding="UTF-8"?>
<svg xmlns="http://www.w3.org/2000/svg" id="Layer_1" data-name="Layer 1" viewBox="0 0 24 24" width="512" height="512"><path d="M16.854,7.854l-4.146,4.146,4.146,4.146c.195,.195,.195,.512,0,.707-.098,.098-.226,.146-.354,.146s-.256-.049-.354-.146l-4.146-4.146-4.146,4.146c-.098,.098-.226,.146-.354,.146s-.256-.049-.354-.146c-.195-.195-.195-.512,0-.707l4.146-4.146L7.146,7.854c-.195-.195-.195-.512,0-.707s.512-.195,.707,0l4.146,4.146,4.146-4.146c.195-.195,.512-.195,.707,0s.195,.512,0,.707Zm7.146,4.502v7.145c0,2.481-2.019,4.5-4.5,4.5h-6.367c-3.855,0-7.341-1.383-9.814-3.893C1.136,17.894-.042,14.965,.003,11.862,.094,5.542,5.309,.224,11.629,.008c3.182-.09,6.229,1.068,8.552,3.314,2.428,2.346,3.819,5.638,3.819,9.033Zm-1,0c0-3.126-1.281-6.156-3.514-8.314-2.037-1.969-4.671-3.04-7.453-3.04-.124,0-.247,.002-.371,.007C5.868,1.205,1.086,6.081,1.003,11.876c-.041,2.833,1.034,5.508,3.027,7.529,2.284,2.318,5.518,3.595,9.103,3.595h6.367c1.93,0,3.5-1.57,3.5-3.5v-7.145Z"/></svg>
