<?xml version="1.0" encoding="UTF-8"?>
<svg xmlns="http://www.w3.org/2000/svg" id="Layer_1" data-name="Layer 1" viewBox="0 0 24 24" width="512" height="512"><path d="M1.2,4.67c-.09-.26,.04-.55,.3-.64,.26-.09,.55,.04,.64,.3,.25,.71,.82,1.27,1.52,1.52,.26,.09,.4,.38,.3,.64-.07,.21-.27,.33-.47,.33-.06,0-.11,0-.17-.03-1-.35-1.78-1.13-2.13-2.13ZM23.85,23.85c-.1,.1-.23,.15-.35,.15s-.26-.05-.35-.15L.15,.85C-.05,.66-.05,.34,.15,.15S.66-.05,.85,.15L6.49,5.79c.06-.15,.11-.26,.14-.32,.93-2.1,3.04-3.46,5.37-3.46s4.44,1.36,5.37,3.46c0,.01,.09,.21,.22,.54h1.91c1.38,0,2.5-1.12,2.5-2.5V1.5c0-.28,.22-.5,.5-.5s.5,.22,.5,.5V3.5c0,1.93-1.57,3.5-3.5,3.5h-1.52c.42,1.08,.97,2.59,1.39,4h3.12c.28,0,.5,.22,.5,.5s-.22,.5-.5,.5h-2.85c.21,.82,.35,1.57,.35,2.11,0,.65-.1,1.29-.26,1.91,1.81,.13,3.26,1.63,3.26,3.48v2c0,.22-.14,.39-.33,.47l1.18,1.18c.2,.2,.2,.51,0,.71Zm-4.42-6.87c-.16,.4-.35,.79-.58,1.16l3.15,3.15v-1.79c0-1.38-1.12-2.5-2.5-2.5-.02,0-.05-.01-.07-.01ZM7.26,6.55l10.86,10.86c.56-1.01,.88-2.14,.88-3.3,0-1.98-2.24-7.56-2.55-8.24-.77-1.74-2.52-2.87-4.45-2.87s-3.68,1.13-4.45,2.87c-.05,.1-.15,.35-.28,.69Zm8.47,13.38c-1.12,.69-2.41,1.06-3.74,1.06-3.86,0-7-3.14-7-7,0-.37,.09-1.06,.43-2.25,.04-.07,.41-1.37,.66-2.08,.09-.26-.05-.55-.31-.64-.26-.09-.55,.05-.64,.31-.21,.6-.39,1.16-.54,1.66H1.5c-.28,0-.5,.22-.5,.5s.22,.5,.5,.5h2.82c-.21,.84-.32,1.52-.32,2,0,.7,.1,1.38,.27,2.02-1.82,.12-3.27,1.63-3.27,3.48v2c0,.28,.22,.5,.5,.5s.5-.22,.5-.5v-2c0-1.38,1.12-2.5,2.5-2.5,.03,0,.05-.01,.08-.02,1.19,2.94,4.06,5.02,7.42,5.02,1.51,0,2.99-.42,4.26-1.21,.23-.15,.31-.45,.16-.69-.15-.24-.46-.31-.69-.16Z"/></svg>
