<?xml version="1.0" encoding="UTF-8"?>
<svg xmlns="http://www.w3.org/2000/svg" id="Layer_1" data-name="Layer 1" viewBox="0 0 24 24" width="512" height="512"><path d="M8,7v-3C8,1.79,6.21,0,4,0S0,1.79,0,4v3c0,2.21,1.79,4,4,4s4-1.79,4-4Zm-4,3c-1.65,0-3-1.35-3-3v-3c0-1.65,1.35-3,3-3s3,1.35,3,3v3c0,1.65-1.35,3-3,3ZM10.2,3.8c-.2-.2-.2-.51,0-.71L13.15,.15c.14-.14,.36-.19,.54-.11,.19,.08,.31,.26,.31,.46V9.5c0,.28-.22,.5-.5,.5s-.5-.22-.5-.5V1.71l-2.09,2.09c-.2,.2-.51,.2-.71,0ZM4,13.5v10c0,.28-.22,.5-.5,.5s-.5-.22-.5-.5V14.71l-2.09,2.09c-.2,.2-.51,.2-.71,0s-.2-.51,0-.71l2.94-2.94c.14-.14,.36-.19,.54-.11,.19,.08,.31,.26,.31,.46Zm13.5-2.5c-3.58,0-6.5,2.92-6.5,6.5s2.92,6.5,6.5,6.5,6.5-2.92,6.5-6.5-2.92-6.5-6.5-6.5Zm0,12c-3.03,0-5.5-2.47-5.5-5.5s2.47-5.5,5.5-5.5,5.5,2.47,5.5,5.5-2.47,5.5-5.5,5.5Zm3.85-6.65l-3.21,3.21c-.29,.29-.68,.44-1.06,.44s-.77-.15-1.06-.44l-1.86-1.69c-.21-.19-.22-.5-.03-.71,.19-.2,.5-.22,.71-.03l1.88,1.71c.21,.21,.53,.21,.72,.02l3.21-3.21c.2-.2,.51-.2,.71,0s.2,.51,0,.71Zm-14.35,.65v3c0,1.65,1.35,3,3,3,.15,0,.29-.01,.43-.03,.27-.04,.53,.15,.57,.42,.04,.27-.15,.53-.42,.57-.19,.03-.38,.04-.57,.04-2.21,0-4-1.79-4-4v-3c0-2.21,1.79-4,4-4,.19,0,.38,.01,.57,.04,.27,.04,.46,.29,.42,.57-.04,.27-.3,.46-.57,.42-.14-.02-.28-.03-.43-.03-1.65,0-3,1.35-3,3Z"/></svg>
