<?xml version="1.0" encoding="UTF-8"?>
<svg xmlns="http://www.w3.org/2000/svg" id="Layer_1" data-name="Layer 1" viewBox="0 0 24 24">
  <path d="m23.5,0h-1.5c-1.103,0-2.063.708-2.388,1.761-.145.468-.318,1.054-.514,1.727-.341-.104-.579-.173-.773-.229-.256-.074-.432-.125-.671-.207-.261-.088-.545.05-.635.313-.089.261.052.545.312.634.256.086.442.141.715.22.193.056.431.125.774.229-.117.406-.239.835-.365,1.281-.08.235-.184.547-.306.922-.111.339-.25.762-.412,1.243-.4-.123-.669-.2-.883-.262-.258-.075-.433-.125-.674-.208-.262-.091-.545.05-.635.312-.089.261.051.545.312.634.256.087.442.142.718.222.205.059.46.133.837.248-1.263,3.623-3.459,9.159-5.413,9.159-1.103,0-2-.897-2-2v-3.5c0-1.107.393-1.5,1.5-1.5.276,0,.5-.224.5-.5s-.224-.5-.5-.5H.5c-.276,0-.5.224-.5.5s.224.5.5.5c1.107,0,1.5.393,1.5,1.5v4.461c0,3.824,3,7.04,7.08,7.04,2.801,0,5.615-2.095,6.573-4.907.476-1.397,1.585-5.347,2.657-9.165.904-3.218,1.758-6.257,2.257-7.873.195-.631.771-1.056,1.433-1.056h1.5c.276,0,.5-.224.5-.5s-.224-.5-.5-.5Zm-8.794,18.771c-.82,2.408-3.31,4.253-5.756,4.228-3.281-.048-5.95-2.757-5.95-6.038v-4.461c0-.612-.115-1.112-.342-1.5h6.685c-.228.388-.342.888-.342,1.5v3.5c0,1.654,1.346,3,3,3,1.319,0,2.546-1.371,3.679-3.449-.415,1.436-.76,2.595-.973,3.22Z"/>
</svg>
