<?xml version="1.0" encoding="UTF-8"?>
<svg xmlns="http://www.w3.org/2000/svg" id="Layer_1" data-name="Layer 1" width="512" height="512" viewBox="0 0 24 24"><path d="M23.5,20c-.276,0-.5,.224-.5,.5,0,.827-.673,1.5-1.5,1.5h-2.5v-4h.5c2.481,0,4.5-2.019,4.5-4.5,0-4.136-3.364-7.5-7.5-7.5h-1.5V3h7.5c.276,0,.5-.224,.5-.5s-.224-.5-.5-.5h-7.5v-.5c0-.276-.224-.5-.5-.5s-.5,.224-.5,.5v.5H6.5c-.276,0-.5,.224-.5,.5s.224,.5,.5,.5h7.5v3H1v-1.5c0-.276-.224-.5-.5-.5s-.5,.224-.5,.5v2.237c0,1.555,1.044,2.938,2.539,3.365l4.461,1.274v1.123c0,2.513,1.694,4.638,4,5.292v4.208H6.5c-.276,0-.5,.224-.5,.5s.224,.5,.5,.5h15c1.379,0,2.5-1.122,2.5-2.5,0-.276-.224-.5-.5-.5Zm-7-13c3.416,0,6.225,2.649,6.481,6h-6.481c-.827,0-1.5-.673-1.5-1.5V7h1.5Zm-8.5,5.5v-1.5c0-.223-.148-.419-.363-.481l-4.824-1.378c-.982-.28-1.692-1.14-1.799-2.141H14v4.5c0,1.378,1.121,2.5,2.5,2.5h6.464c-.243,1.694-1.704,3-3.464,3h-7c-2.481,0-4.5-2.019-4.5-4.5Zm4,5.477c.165,.015,.331,.023,.5,.023h5.5v4h-6v-4.023Z"/></svg>
