<?xml version="1.0" encoding="UTF-8"?>
<svg xmlns="http://www.w3.org/2000/svg" id="Layer_1" data-name="Layer 1" viewBox="0 0 24 24" width="512" height="512"><path d="M3,22c0,.552-.448,1-1,1s-1-.448-1-1,.448-1,1-1,1,.448,1,1Zm2.5-4c-.828,0-1.5,.672-1.5,1.5s.672,1.5,1.5,1.5,1.5-.672,1.5-1.5-.672-1.5-1.5-1.5Zm18.499-7.917c-.039,2.979-2.391,5.562-5.354,5.882-.51,.057-1.028,.046-1.538-.032-.309-.042-.622,.056-.838,.274-1.136,1.156-2.652,1.793-4.27,1.793-1.95,0-3.786-.957-4.909-2.56-.142-.201-.358-.44-.591-.44-1.747,0-3.387-.684-4.617-1.924C.653,11.835-.016,10.189,0,8.442,.028,5.151,2.612,2.335,5.882,2.028c.595-.054,1.188-.03,1.764,.073,.305,.054,.604-.041,.819-.252,1.221-1.192,2.831-1.85,4.535-1.85,2.492,0,4.795,1.457,5.867,3.713,.109,.229,.325,.404,.579,.467,2.72,.674,4.592,3.102,4.553,5.903Zm-4.793-4.933c-.541-.134-1.006-.511-1.242-1.008-.907-1.909-2.855-3.143-4.964-3.143-1.441,0-2.804,.556-3.836,1.564-.445,.437-1.079,.636-1.693,.521-.319-.058-.646-.086-.974-.086-.173,0-.348,.008-.522,.024-2.765,.259-4.95,2.643-4.975,5.426-.013,1.479,.553,2.872,1.594,3.922,1.04,1.05,2.428,1.628,3.906,1.628,.365,0,.906,.15,1.409,.866,.937,1.336,2.466,2.134,4.091,2.134,1.347,0,2.609-.53,3.557-1.494,.438-.447,1.068-.66,1.7-.562,.427,.064,.857,.073,1.28,.026,2.47-.267,4.429-2.42,4.462-4.901,.032-2.335-1.527-4.357-3.793-4.919Z"/></svg>
