<?xml version="1.0" encoding="UTF-8"?>
<svg xmlns="http://www.w3.org/2000/svg" id="Layer_1" data-name="Layer 1" viewBox="0 0 24 24">
  <path d="m20,6h2c1.103,0,2-.897,2-2v-2c0-1.103-.897-2-2-2h-2c-1.103,0-2,.897-2,2H6c0-1.103-.897-2-2-2h-2C.897,0,0,.897,0,2v2c0,1.103.897,2,2,2v12c-1.103,0-2,.897-2,2v2c0,1.103.897,2,2,2h2c1.103,0,2-.897,2-2h12c0,1.103.897,2,2,2h2c1.103,0,2-.897,2-2v-2c0-1.103-.897-2-2-2h-2c-.237,0-.464.042-.675.118l-3.812-3.812c.303-.351.487-.807.487-1.306v-2c0-.499-.184-.955-.487-1.306l3.812-3.812c.211.076.438.118.675.118Zm-1-4c0-.551.449-1,1-1h2c.551,0,1,.449,1,1v2c0,.551-.449,1-1,1h-2c-.551,0-1-.449-1-1v-2ZM1,4v-2c0-.551.449-1,1-1h2c.551,0,1,.449,1,1v2c0,.551-.449,1-1,1h-2c-.551,0-1-.449-1-1Zm4,18c0,.551-.449,1-1,1h-2c-.551,0-1-.449-1-1v-2c0-.551.449-1,1-1h2c.551,0,1,.449,1,1v2Zm1-1v-1c0-1.103-.897-2-2-2h-1V6h1c1.103,0,2-.897,2-2v-1h12v1c0,.499.184.955.487,1.306l-3.812,3.812c-.211-.076-.438-.118-.675-.118h-2c-1.103,0-2,.897-2,2v2c0,1.103.897,2,2,2h2c.237,0,.464-.042.675-.118l3.812,3.812c-.303.351-.487.807-.487,1.306v1H6Zm9-10v2c0,.551-.449,1-1,1h-2c-.551,0-1-.449-1-1v-2c0-.551.449-1,1-1h2c.551,0,1,.449,1,1Zm7,8c.551,0,1,.449,1,1v2c0,.551-.449,1-1,1h-2c-.551,0-1-.449-1-1v-2c0-.551.449-1,1-1h2Z"/>
</svg>
