<?xml version="1.0" encoding="UTF-8"?>
<svg xmlns="http://www.w3.org/2000/svg" id="Layer_1" data-name="Layer 1" viewBox="0 0 24 24" width="512" height="512"><path d="m15.5,2.999h-6c-1.619,0-3.131-1.128-3.516-2.624-.069-.268-.338-.427-.609-.359-.268.069-.428.342-.359.609.463,1.799,2.096,3.144,3.984,3.348v10.528c0,2.58-3.191,3.557-3.22,3.572-2.138.347-3.78,2.192-3.78,4.427v1c0,.276.224.5.5.5s.5-.224.5-.5v-1c0-1.74,1.28-3.176,2.946-3.444.285.173.565.348.834.518,1.946,1.234,3.785,2.4,8.217,2.426h.037c1.845,0,3.685-.778,5.053-2.138,1.233-1.227,1.913-2.776,1.913-4.362v-6.001c0-3.584-2.916-6.5-6.5-6.5Zm0,1c3.032,0,5.5,2.468,5.5,5.5v2.48c-.69-.457-1.743-.979-3-.979-1.093,0-1.801.271-2.485.533-.628.24-1.221.467-2.128.467-1.469,0-2.899-.912-3.387-1.255v-6.745h5.5Zm3.882,15.153c-1.165,1.158-2.788,1.847-4.35,1.847h-.029c-4.145-.023-5.786-1.064-7.688-2.271-.07-.045-.141-.09-.212-.135,1.146-.562,2.896-1.799,2.896-4.094v-2.564c.786.467,2.05,1.063,3.387,1.063,1.093,0,1.801-.271,2.485-.533.628-.24,1.221-.467,2.128-.467,1.443,0,2.613.892,3,1.224v2.276c0,1.318-.575,2.615-1.618,3.653Z"/></svg>
