<?xml version="1.0" encoding="UTF-8"?>
<svg xmlns="http://www.w3.org/2000/svg" id="Layer_1" data-name="Layer 1" viewBox="0 0 24 24" width="512" height="512"><path d="m21,19.036v-6.036c0-4.963-4.037-9-9-9S3,8.037,3,13v6.036c-1.694.243-3,1.704-3,3.464,0,.827.673,1.5,1.5,1.5h21c.827,0,1.5-.673,1.5-1.5,0-1.76-1.306-3.221-3-3.464ZM4,13c0-4.411,3.589-8,8-8s8,3.589,8,8v6H4v-6Zm18.5,10H1.5c-.275,0-.5-.225-.5-.5,0-1.379,1.121-2.5,2.5-2.5h17c1.379,0,2.5,1.121,2.5,2.5,0,.275-.225.5-.5.5ZM17.053,2.276l1-2c.125-.246.424-.347.671-.224.247.124.347.424.224.671l-1,2c-.088.175-.265.276-.447.276-.075,0-.151-.017-.224-.053-.247-.124-.347-.424-.224-.671Zm4.094,3.577c-.195-.195-.195-.512,0-.707l2-2c.195-.195.512-.195.707,0s.195.512,0,.707l-2,2c-.098.098-.226.146-.354.146s-.256-.049-.354-.146ZM5.053.724c-.123-.247-.023-.547.224-.671s.547-.023.671.224l1,2c.123.247.023.547-.224.671-.072.036-.148.053-.224.053-.183,0-.359-.102-.447-.276l-1-2ZM.146,3.854c-.195-.195-.195-.512,0-.707s.512-.195.707,0l2,2c.195.195.195.512,0,.707-.098.098-.226.146-.354.146s-.256-.049-.354-.146L.146,3.854Zm11.854,5.646c0,.276-.224.5-.5.5-1.379,0-2.5,1.121-2.5,2.5,0,.276-.224.5-.5.5s-.5-.224-.5-.5c0-1.93,1.57-3.5,3.5-3.5.276,0,.5.224.5.5Z"/></svg>
