<?xml version="1.0" encoding="UTF-8"?>
<svg xmlns="http://www.w3.org/2000/svg" id="Layer_1" data-name="Layer 1" viewBox="0 0 24 24" width="512" height="512"><path d="M15.6,17.75c.27-.05,.45-.32,.39-.59-.05-.27-.32-.45-.59-.39-2.34,.46-4.92,.22-7.06-.69-.34-.66-1.39-2.64-2.1-3.35-.64-.64-1.61-.85-2.46-.61-.52-.99-.79-2.04-.79-3.12C3,4.59,7.49,1,13,1s10,3.59,10,8c0,1.49-.51,2.94-1.49,4.19-.17,.22-.13,.53,.09,.7,.09,.07,.2,.1,.31,.1,.15,0,.3-.07,.4-.19,1.11-1.43,1.7-3.1,1.7-4.81C24,4.04,19.07,0,13,0S2,4.04,2,9c0,1.24,.3,2.45,.9,3.57-.06,.05-.12,.1-.17,.15-.47,.47-.73,1.09-.73,1.76,0,.46,.13,.91,.36,1.29-1,.92-2.36,2.57-2.36,4.72,0,2.77,2.29,3.5,3.5,3.5h.5c.28,0,.5-.22,.5-.5s-.22-.5-.5-.5h-.5c-.26,0-2.5-.09-2.5-2.5,0-1.84,1.3-3.3,2.07-4.01,.87,.45,2.62,.53,3.85,.53,.42,0,.78-.01,1.03-.02,1.55,.65,3.29,1,5.04,1,.88,0,1.75-.08,2.6-.25ZM3.44,15.54c-.28-.28-.44-.66-.44-1.05s.15-.77,.44-1.05,.66-.44,1.05-.44,.77,.16,1.05,.44c.45,.45,1.16,1.69,1.64,2.58-1.7,0-3.43-.16-3.75-.48Zm12.08-7.05l-.53-2.11c-.06-.22-.26-.38-.48-.38s-.43,.16-.48,.38l-.53,2.1-2.1,.49c-.22,.05-.38,.25-.39,.48,0,.23,.15,.43,.37,.49l2.12,.57,.53,2.12c.06,.22,.26,.38,.48,.38s.43-.16,.48-.38l.53-2.11,2.11-.53c.22-.06,.38-.26,.38-.49s-.16-.43-.38-.49l-2.11-.53Zm8.17,10.55l-2.66-1.06-1.06-2.66c-.15-.38-.78-.38-.93,0l-1.06,2.65-2.65,1c-.19,.07-.32,.25-.32,.46,0,.21,.12,.39,.31,.47l2.66,1.12,1.07,2.66c.08,.19,.26,.31,.46,.31s.39-.12,.46-.31l1.06-2.66,2.66-1.06c.19-.08,.31-.26,.31-.46s-.12-.39-.31-.46Zm-3.23,1.14c-.13,.05-.23,.15-.28,.28l-.68,1.7-.68-1.7c-.05-.12-.15-.22-.27-.28l-1.7-.72,1.69-.64c.13-.05,.24-.15,.29-.28l.68-1.7,.68,1.7c.05,.13,.15,.23,.28,.28l1.7,.68-1.7,.68Z"/></svg>
