<?xml version="1.0" encoding="UTF-8"?>
<svg xmlns="http://www.w3.org/2000/svg" id="Layer_1" data-name="Layer 1" viewBox="0 0 24 24" width="512" height="512"><path d="m23.854.854l-11,11c-.098.098-.226.146-.354.146s-.256-.049-.354-.146c-.195-.195-.195-.512,0-.707L23.146.146c.195-.195.512-.195.707,0s.195.512,0,.707ZM7.5,9c.128,0,.256-.049.354-.146l6-6c.195-.195.195-.512,0-.707s-.512-.195-.707,0l-6,6c-.195.195-.195.512,0,.707.098.098.226.146.354.146Zm13.646,1.146l-6,6c-.195.195-.195.512,0,.707.098.098.226.146.354.146s.256-.049.354-.146l6-6c.195-.195.195-.512,0-.707s-.512-.195-.707,0Zm-9.207,6.498c.143.393.027.835-.289,1.102l-2.373,1.934.979,2.981c.133.401-.002.847-.338,1.104-.338.261-.804.279-1.158.047l-2.753-1.794-2.708,1.812c-.166.111-.361.166-.556.166-.213,0-.426-.066-.601-.197-.338-.254-.48-.696-.353-1.102l.94-3.015-2.369-1.928c-.327-.278-.444-.724-.299-1.114.144-.391.521-.654.938-.654h3.001l1.062-2.853c.14-.374.507-.617.937-.617s.797.243.937.618l1.062,2.852h3.001c.418,0,.796.265.939.657Zm-.94.343h-3.347c-.209,0-.396-.13-.469-.325l-1.184-3.178-1.183,3.178c-.073.195-.26.325-.469.325H1l2.624,2.135c.159.129.223.342.162.536l-1.042,3.339,2.981-1.993c.167-.111.383-.113.551-.004l3.031,1.975-1.086-3.31c-.064-.197,0-.413.159-.544l2.619-2.134Z"/></svg>
