<?xml version="1.0" encoding="UTF-8"?>
<svg xmlns="http://www.w3.org/2000/svg" id="Layer_1" data-name="Layer 1" width="512" height="512" viewBox="0 0 24 24"><path d="M12,4c-4.411,0-8,3.589-8,8s3.589,8,8,8,8-3.589,8-8-3.589-8-8-8Zm0,15c-3.86,0-7-3.141-7-7s3.14-7,7-7,7,3.141,7,7-3.141,7-7,7Zm-.5-6.5V7.5c0-.276,.224-.5,.5-.5s.5,.224,.5,.5v5c0,.276-.224,.5-.5,.5s-.5-.224-.5-.5Zm12.5-.5c0,2.783-.975,5.495-2.743,7.637-.1,.12-.242,.182-.386,.182-.112,0-.226-.037-.318-.114-.213-.176-.243-.491-.067-.704,1.622-1.963,2.515-4.448,2.515-7s-.893-5.037-2.515-7c-.176-.213-.146-.528,.067-.704,.21-.177,.526-.147,.704,.067,1.769,2.142,2.743,4.854,2.743,7.637ZM3.515,5c-1.622,1.963-2.515,4.449-2.515,7s.893,5.037,2.515,7c.176,.213,.146,.528-.067,.704-.093,.077-.206,.114-.318,.114-.144,0-.287-.062-.386-.182C.974,17.495,0,14.782,0,12S.974,6.505,2.743,4.363c.176-.214,.49-.244,.704-.067,.213,.176,.243,.491,.067,.704Zm9.485,11c0,.552-.448,1-1,1s-1-.448-1-1,.448-1,1-1,1,.448,1,1Z"/></svg>
