<?xml version="1.0" encoding="UTF-8"?>
<svg xmlns="http://www.w3.org/2000/svg" id="Layer_1" data-name="Layer 1" viewBox="0 0 24 24" width="512" height="512"><path d="M23.956,5.862c-.113-.252-.407-.364-.662-.251l-3.294,1.477V.502C20,.226,19.776,.002,19.5,.002s-.5,.224-.5,.5V7.536l-4,1.793V.502C15,.226,14.776,.002,14.5,.002s-.5,.224-.5,.5V9.777l-4,1.793V.502C10,.226,9.776,.002,9.5,.002s-.5,.224-.5,.5V12.018l-4,1.793V.502C5,.226,4.776,.002,4.5,.002s-.5,.224-.5,.5V14.259L.296,15.919c-.252,.113-.365,.408-.252,.661,.083,.185,.265,.295,.457,.295,.068,0,.138-.014,.204-.044l3.295-1.477v8.148c0,.276,.224,.5,.5,.5s.5-.224,.5-.5V14.906l4-1.793v10.389c0,.276,.224,.5,.5,.5s.5-.224,.5-.5V12.665l4-1.793v12.63c0,.276,.224,.5,.5,.5s.5-.224,.5-.5V10.424l4-1.793v14.87c0,.276,.224,.5,.5,.5s.5-.224,.5-.5V8.183l3.705-1.66c.252-.113,.365-.409,.251-.661Z"/></svg>
