<?xml version="1.0" encoding="UTF-8"?>
<svg xmlns="http://www.w3.org/2000/svg" id="Layer_1" data-name="Layer 1" viewBox="0 0 24 24" width="512" height="512"><path d="M22.935,16.313c1.417,1.418,1.417,3.726,0,5.143l-1.479,1.479c-.687,.688-1.6,1.065-2.571,1.065s-1.885-.378-2.571-1.065l-3.625-3.624c-.195-.195-.195-.512,0-.707s.512-.195,.707,0l3.625,3.624c.996,.996,2.732,.996,3.729,0l1.479-1.479c1.027-1.027,1.027-2.7,0-3.729l-.271-.271-1.865,1.865c-.098,.098-.226,.146-.354,.146s-.256-.049-.354-.146c-.195-.195-.195-.512,0-.707l1.865-1.865-2.239-2.239-1.864,1.864c-.195,.195-.512,.195-.707,0s-.195-.512,0-.707l2.218-2.218c.195-.195,.512-.195,.707,0l3.57,3.57ZM4.689,11.311c.098,.098,.226,.146,.354,.146s.256-.049,.354-.146c.195-.195,.195-.512,0-.707L1.772,6.979c-1.027-1.028-1.027-2.701,0-3.729l1.479-1.479c.996-.996,2.732-.996,3.729,0l.521,.521-1.864,1.864c-.195,.195-.195,.512,0,.707,.098,.098,.226,.146,.354,.146s.256-.049,.354-.146l1.864-1.864,1.989,1.989-1.864,1.864c-.195,.195-.195,.512,0,.707s.512,.195,.707,0l2.218-2.218c.195-.195,.195-.512,0-.707L7.686,1.065C6.314-.309,3.918-.31,2.543,1.065l-1.479,1.479C-.353,3.961-.353,6.269,1.065,7.687l3.625,3.624ZM23.035,5.622L6.335,22.322c-1.081,1.082-2.52,1.678-4.049,1.678H.5c-.276,0-.5-.224-.5-.5v-1.785c0-1.529,.596-2.968,1.678-4.05L18.377,.965c1.284-1.283,3.374-1.283,4.658,0,.622,.622,.965,1.449,.965,2.329s-.343,1.706-.965,2.328Zm-4.278,2.864l-3.243-3.243L2.385,18.372c-.893,.893-1.385,2.08-1.385,3.343v1.285h1.286c1.263,0,2.45-.492,3.342-1.385l13.129-13.129Zm4.243-5.192c0-.613-.238-1.188-.672-1.622-.894-.895-2.349-.895-3.244,0l-2.864,2.864,3.243,3.243,2.864-2.864c.434-.434,.672-1.009,.672-1.621Z"/></svg>
