<?xml version="1.0" encoding="UTF-8"?>
<svg xmlns="http://www.w3.org/2000/svg" id="Layer_1" data-name="Layer 1" viewBox="0 0 24 24" width="512" height="512"><path d="M23.651,22.461c-.516,.964-1.476,1.539-2.569,1.539h-4.582c-.276,0-.5-.224-.5-.5s.224-.5,.5-.5h4.582c.718,0,1.349-.378,1.688-1.011,.338-.633,.303-1.367-.096-1.964l-2.613-4.786c-.084-.154-.081-.343,.009-.494,.09-.152,.254-.245,.43-.245h.732c.287,0,.54-.151,.675-.404,.136-.254,.122-.548-.038-.787l-3.053-4.579c-.102-.153-.112-.351-.025-.514,.087-.162,.256-.264,.441-.264,.285,0,.537-.149,.673-.399s.125-.542-.029-.782L15.528,1.23c-.184-.181-.23-.228-.528-.228s-.344,.047-.566,.271l-4.335,5.534c-.17,.218-.484,.254-.702,.085-.217-.171-.255-.484-.085-.702L13.685,.613C14,.291,14.286,.003,15,.003s1,.288,1.276,.566l4.413,5.622c.383,.59,.408,1.264,.093,1.84-.176,.322-.435,.572-.744,.73l2.662,3.992c.362,.543,.396,1.238,.088,1.813-.291,.543-.839,.892-1.449,.93l2.189,4.012c.583,.871,.638,1.988,.122,2.952Zm-8.651-6.613v4.152c0,2.206-1.794,4-4,4H4c-2.206,0-4-1.794-4-4v-4.152c0-1.393,.629-2.685,1.727-3.544l3-2.348c1.633-1.277,3.914-1.277,5.547,0l3,2.348c1.097,.859,1.727,2.151,1.727,3.544Zm-1,0c0-1.083-.489-2.088-1.343-2.757l-3-2.348c-.635-.496-1.396-.745-2.157-.745s-1.522,.249-2.157,.745l-3,2.348c-.854,.669-1.343,1.674-1.343,2.757v4.152c0,1.654,1.346,3,3,3h7c1.654,0,3-1.346,3-3v-4.152Zm-4,.652v2c0,.827-.673,1.5-1.5,1.5h-2c-.827,0-1.5-.673-1.5-1.5v-2c0-.827,.673-1.5,1.5-1.5h2c.827,0,1.5,.673,1.5,1.5Zm-1,0c0-.275-.224-.5-.5-.5h-2c-.276,0-.5,.225-.5,.5v2c0,.275,.224,.5,.5,.5h2c.276,0,.5-.225,.5-.5v-2Z"/></svg>
