<?xml version="1.0" encoding="UTF-8"?>
<svg xmlns="http://www.w3.org/2000/svg" id="Layer_1" data-name="Layer 1" viewBox="0 0 24 24" width="512" height="512"><path d="M19.5,10H7V6h3c1.654,0,3-1.346,3-3s-1.346-3-3-3H3C1.346,0,0,1.346,0,3s1.346,3,3,3h3v4h-1.5c-2.481,0-4.5,2.019-4.5,4.5v5c0,2.481,2.019,4.5,4.5,4.5h15c2.481,0,4.5-2.019,4.5-4.5v-5c0-2.481-2.019-4.5-4.5-4.5ZM1,3C1,1.897,1.897,1,3,1h7c1.103,0,2,.897,2,2s-.897,2-2,2H3c-1.103,0-2-.897-2-2Zm3.5,8h15c1.93,0,3.5,1.57,3.5,3.5v4.5H1v-4.5c0-1.93,1.57-3.5,3.5-3.5Zm15,12H4.5c-1.758,0-3.204-1.308-3.449-3H22.949c-.245,1.692-1.691,3-3.449,3ZM9,15c0-.552,.448-1,1-1s1,.448,1,1-.448,1-1,1-1-.448-1-1Zm-4,0c0-.552,.448-1,1-1s1,.448,1,1-.448,1-1,1-1-.448-1-1Zm8,0c0-.552,.448-1,1-1s1,.448,1,1-.448,1-1,1-1-.448-1-1Zm4,0c0-.552,.448-1,1-1s1,.448,1,1-.448,1-1,1-1-.448-1-1Z"/></svg>
