<?xml version="1.0" encoding="UTF-8"?>
<svg xmlns="http://www.w3.org/2000/svg" id="Layer_1" data-name="Layer 1" viewBox="0 0 24 24" width="512" height="512"><path d="M21.958,2.042c-3.145-3.145-8.826-2.582-12.662,1.255-2.422,2.423-3.539,5.58-3.242,8.37-.002,.04,.058,.44,.076,.541,.166,1.17,.481,4.474-.984,5.939L.146,23.146c-.195,.195-.195,.512,0,.707,.098,.098,.226,.146,.354,.146s.256-.049,.354-.146l5-5c1.321-1.322,4.307-1.179,5.797-1.01,.276,.054,1.387,.15,1.577,.15,1.753,0,3.602-.529,5.29-1.562,.742-.522,1.6-1.141,2.187-1.728,3.836-3.837,4.399-9.517,1.255-12.662Zm.022,9.236l-2.545-2.545,3.329-3.329c.487,1.813,.208,3.922-.784,5.873Zm.406-6.909l-3.658,3.658-2.842-2.842,3.625-3.625c.641,.285,1.229,.681,1.738,1.19,.478,.478,.855,1.024,1.136,1.619ZM8.749,15.251c-.509-.509-.905-1.097-1.19-1.738l3.866-3.866,2.842,2.841-3.898,3.898c-.595-.28-1.142-.658-1.619-1.135Zm3.383-6.311l3.049-3.049,2.842,2.842-3.049,3.049-2.842-2.841ZM16.771,1.001c.58,0,1.146,.066,1.687,.199l-3.278,3.278-2.458-2.458c1.324-.673,2.721-1.018,4.048-1.018Zm-6.768,3.002c.569-.569,1.182-1.059,1.821-1.469l2.649,2.649-3.049,3.049-2.698-2.698c.368-.535,.795-1.049,1.277-1.532Zm-1.818,2.406l2.532,2.532-3.518,3.518c-.023-.092-.133-.746-.148-.827-.197-1.675,.193-3.519,1.134-5.222Zm-.932,8.6c.23,.337,.493,.654,.788,.95,.303,.303,.631,.572,.977,.807-.727,.047-1.476,.162-2.159,.387,.232-.685,.348-1.429,.394-2.144Zm5.421,1.97c-.121-.022-.461-.08-.939-.133-.111-.024-.221-.05-.331-.08l3.569-3.569,2.618,2.618c-1.6,.885-3.325,1.283-4.917,1.164Zm5.791-1.704l-2.785-2.785,3.049-3.049,2.736,2.736c-.41,.639-.9,1.252-1.469,1.821-.483,.483-.997,.909-1.532,1.277Z"/></svg>
