<?xml version="1.0" encoding="UTF-8"?>
<svg xmlns="http://www.w3.org/2000/svg" id="Layer_1" data-name="Layer 1" width="512" height="512" viewBox="0 0 24 24"><path d="M18.5,7c-2.742,0-3.813,1.129-4.232,2.001-.169,.292-.267,.63-.268,.99v.008c0,1.103,.897,2,2,2s2-.897,2-2c0-.797-.468-1.486-1.144-1.807,.437-.119,.977-.193,1.644-.193,.276,0,.5-.224,.5-.5s-.224-.5-.5-.5Zm-2.5,4c-.55,0-.998-.447-1-.997,0-.031,.011-.208,.104-.446,.164-.33,.504-.557,.896-.557,.551,0,1,.449,1,1s-.449,1-1,1Zm-10-1c0,1.103,.897,2,2,2s2-.897,2-2v-.008c-.002-.361-.099-.699-.268-.99-.418-.873-1.489-2.001-4.232-2.001-.276,0-.5,.224-.5,.5s.224,.5,.5,.5c.667,0,1.207,.074,1.644,.193-.676,.321-1.144,1.01-1.144,1.807Zm2-1c.395,0,.737,.23,.9,.564,.092,.239,.1,.414,.1,.436,0,.551-.449,1-1,1s-1-.449-1-1,.449-1,1-1ZM12,0C5.383,0,0,5.383,0,12s5.383,12,12,12,12-5.383,12-12S18.617,0,12,0Zm0,23c-6.065,0-11-4.935-11-11S5.935,1,12,1s11,4.935,11,11-4.935,11-11,11Zm5.888-5.186c-.099,.122-.243,.185-.389,.185-.11,0-.222-.036-.314-.111-.023-.019-2.369-1.889-5.185-1.889s-5.162,1.87-5.185,1.889c-.214,.174-.53,.141-.703-.074-.174-.214-.141-.529,.073-.703,.106-.086,2.637-2.112,5.815-2.112s5.709,2.026,5.815,2.112c.214,.174,.247,.488,.073,.703Z"/></svg>
