<?xml version="1.0" encoding="UTF-8"?>
<svg xmlns="http://www.w3.org/2000/svg" id="Layer_1" data-name="Layer 1" viewBox="0 0 24 24" width="512" height="512"><path d="m3,20c0,.552-.448,1-1,1s-1-.448-1-1,.448-1,1-1,1,.448,1,1Zm10-9c-.552,0-1,.448-1,1s.448,1,1,1,1-.448,1-1-.448-1-1-1Zm8-7c.552,0,1-.448,1-1s-.448-1-1-1-1,.448-1,1,.448,1,1,1Zm2.354,2.006c-.195-.195-.512-.195-.707,0-3.344,3.343-6.244,1.845-8.09,0-.195-.195-.512-.195-.707,0s-.195.512,0,.707c1.532,1.532,3.142,2.298,4.752,2.298s3.22-.766,4.752-2.298c.195-.195.195-.512,0-.707Zm-15.641,7.844c-.195-.195-.512-.195-.707,0s-.195.512,0,.707c1,1,1.632,2.035,1.878,3.077.397,1.683-.234,3.369-1.878,5.013-.195.195-.195.512,0,.707.098.098.226.146.354.146s.256-.049.354-.146c1.905-1.905,2.626-3.906,2.145-5.95-.29-1.225-1.011-2.421-2.145-3.554Zm8.425,1.769c-.211-.178-.526-.15-.705.059-.178.211-.152.526.059.705.014.012,1.432,1.231,1.505,2.979.046,1.114-.47,2.22-1.536,3.285-.195.195-.195.512,0,.707.098.098.226.146.354.146s.256-.049.354-.146c1.271-1.271,1.886-2.629,1.828-4.034-.091-2.182-1.786-3.64-1.858-3.701Zm5.862-.618c0,.552.448,1,1,1s1-.448,1-1-.448-1-1-1-1,.448-1,1Zm1,7c-.552,0-1,.448-1,1s.448,1,1,1,1-.448,1-1-.448-1-1-1ZM13.287,4.808L4.807,13.287c-.458.459-1.085.713-1.729.713-.119,0-.238-.009-.356-.026-.735-.108-1.354-.539-1.697-1.182C-.794,9.394-.183,5.275,2.546,2.546,5.275-.184,9.393-.795,12.792,1.025c.642.343,1.072.961,1.181,1.696.113.763-.144,1.543-.687,2.086Zm-.303-1.939c-.062-.419-.304-.77-.664-.962-1.129-.604-2.369-.897-3.604-.897-2.003,0-3.992.773-5.463,2.244C.876,5.631.322,9.359,1.906,12.32c.192.36.543.603.962.664.452.07.913-.083,1.232-.404L12.58,4.101c.32-.32.471-.781.404-1.232Z"/></svg>
