<?xml version="1.0" encoding="UTF-8"?>
<svg xmlns="http://www.w3.org/2000/svg" id="Layer_1" data-name="Layer 1" viewBox="0 0 24 24" width="512" height="512"><path d="M19.5,2H4.5C2.019,2,0,4.019,0,6.5V14.5c0,2.481,2.019,4.5,4.5,4.5h7v2H7.5c-.276,0-.5,.224-.5,.5s.224,.5,.5,.5h9c.276,0,.5-.224,.5-.5s-.224-.5-.5-.5h-4v-2h7c2.481,0,4.5-2.019,4.5-4.5V6.5c0-2.481-2.019-4.5-4.5-4.5Zm3.5,12.5c0,1.93-1.57,3.5-3.5,3.5H4.5c-1.93,0-3.5-1.57-3.5-3.5V6.5c0-1.93,1.57-3.5,3.5-3.5h15c1.93,0,3.5,1.57,3.5,3.5V14.5Zm-6.5-8.5h-2c-.827,0-1.5,.673-1.5,1.5v3.005c-.418-.315-.937-.505-1.5-.505-1.378,0-2.5,1.122-2.5,2.5s1.122,2.5,2.5,2.5,2.5-1.121,2.5-2.5V7.5c0-.276,.225-.5,.5-.5h2c.276,0,.5-.224,.5-.5s-.224-.5-.5-.5Zm-5,8c-.827,0-1.5-.673-1.5-1.5s.673-1.5,1.5-1.5,1.5,.673,1.5,1.5-.673,1.5-1.5,1.5Z"/></svg>
