<?xml version="1.0" encoding="UTF-8"?>
<svg xmlns="http://www.w3.org/2000/svg" id="Layer_1" data-name="Layer 1" viewBox="0 0 24 24" width="512" height="512"><path d="M21.913,18.765c-2.241,3.278-5.946,5.235-9.913,5.235C5.383,24,0,18.617,0,12S5.383,0,12,0c5.246,0,9.84,3.354,11.434,8.348,.083,.264-.062,.545-.325,.629-.264,.08-.545-.062-.628-.324-1.46-4.577-5.672-7.652-10.481-7.652C5.935,1,1,5.935,1,12s4.935,11,11,11c3.636,0,7.033-1.794,9.087-4.8,.155-.228,.466-.286,.695-.131,.228,.156,.287,.467,.13,.695Zm-.413-7.765h-7c-.276,0-.5,.224-.5,.5s.224,.5,.5,.5h7c.827,0,1.5,.673,1.5,1.5s-.673,1.5-1.5,1.5h-7c-.276,0-.5,.224-.5,.5s.224,.5,.5,.5h7c1.378,0,2.5-1.121,2.5-2.5s-1.122-2.5-2.5-2.5Zm-14,7c.12,0,.24-.043,.335-.13,.017-.015,1.686-1.507,3.752-1.878,.272-.049,.453-.309,.404-.58-.048-.271-.309-.446-.581-.404-2.356,.423-4.172,2.053-4.248,2.122-.204,.186-.219,.501-.034,.706,.099,.108,.234,.164,.371,.164Zm7.5-10c0,.552,.448,1,1,1s1-.448,1-1-.448-1-1-1-1,.448-1,1Zm-7,1c.552,0,1-.448,1-1s-.448-1-1-1-1,.448-1,1,.448,1,1,1Z"/></svg>
