<?xml version="1.0" encoding="UTF-8"?>
<svg xmlns="http://www.w3.org/2000/svg" id="Layer_1" data-name="Layer 1" viewBox="0 0 24 24" width="512" height="512"><path d="M12,2C5.271,2,0,4.855,0,8.5v7c0,3.645,5.271,6.5,12,6.5s12-2.855,12-6.5v-7c0-3.645-5.271-6.5-12-6.5ZM3,18.611c-1.253-.892-2-1.967-2-3.111v-4.365c.5,.627,1.18,1.196,2,1.697v5.78Zm.027-5.763l.003,.002-.003-.002Zm.973,6.374v-5.849c.889,.427,1.896,.782,3,1.049v5.949c-1.124-.296-2.136-.687-3-1.149Zm3.014-4.796h0Zm4.486,6.56c-1.224-.029-2.402-.161-3.5-.383v-5.968c1.098,.204,2.272,.325,3.5,.351v6Zm4.5-.383c-1.098,.222-2.276,.354-3.5,.383v-6c1.228-.026,2.402-.147,3.5-.351v5.968Zm4-1.381c-.864,.462-1.876,.853-3,1.149v-5.949c1.104-.268,2.111-.623,3-1.049v5.849Zm.97-6.373l.003-.002-.003,.002Zm2.03,2.65c0,1.145-.747,2.219-2,3.111v-5.78c.82-.501,1.5-1.07,2-1.697v4.365Zm-11-1.5c-5.962,0-11-2.519-11-5.5S6.038,3,12,3s11,2.519,11,5.5-5.038,5.5-11,5.5Z"/></svg>
