<?xml version="1.0" encoding="UTF-8"?>
<svg xmlns="http://www.w3.org/2000/svg" id="Layer_1" data-name="Layer 1" viewBox="0 0 24 24" width="512" height="512"><path d="M20,15.5c0,.276-.224,.5-.5,.5h-3c-.276,0-.5-.224-.5-.5s.224-.5,.5-.5h3c.276,0,.5,.224,.5,.5Zm4-1v6c0,1.93-1.57,3.5-3.5,3.5H3.5c-1.93,0-3.5-1.57-3.5-3.5v-6c0-1.93,1.57-3.5,3.5-3.5h1.5V3.5c0-1.93,1.57-3.5,3.5-3.5h7c1.93,0,3.5,1.57,3.5,3.5v7.5h1.5c1.93,0,3.5,1.57,3.5,3.5ZM6,11h12V3.5c0-1.379-1.121-2.5-2.5-2.5h-7c-1.379,0-2.5,1.121-2.5,2.5v7.5Zm-2.5,12H11.5V12H3.5c-1.379,0-2.5,1.121-2.5,2.5v6c0,1.379,1.121,2.5,2.5,2.5ZM23,14.5c0-1.379-1.121-2.5-2.5-2.5H12.5v11h8c1.379,0,2.5-1.121,2.5-2.5v-6Zm-15.5,.5h-3c-.276,0-.5,.224-.5,.5s.224,.5,.5,.5h3c.276,0,.5-.224,.5-.5s-.224-.5-.5-.5ZM14,4.5c0-.276-.224-.5-.5-.5h-3c-.276,0-.5,.224-.5,.5s.224,.5,.5,.5h3c.276,0,.5-.224,.5-.5Z"/></svg>
