<?xml version="1.0" encoding="UTF-8"?>
<svg xmlns="http://www.w3.org/2000/svg" id="Layer_1" data-name="Layer 1" viewBox="0 0 24 24" width="512" height="512"><path d="m13.038,17.594l1.878-2.816c.153-.23.091-.54-.139-.693-.231-.153-.541-.092-.693.139l-1.667,2.501-2.152-3.013c1.022-.479,1.735-1.51,1.735-2.711,0-1.654-1.346-3-3-3h-1.5c-1.378,0-2.5,1.122-2.5,2.5v6c0,.276.224.5.5.5s.5-.224.5-.5v-2.5h3c.078,0,.15-.017.227-.023l2.597,3.636-1.74,2.61c-.153.23-.091.54.139.693.085.057.182.084.277.084.162,0,.32-.078.417-.223l1.529-2.294,1.648,2.307c.098.137.251.209.407.209.101,0,.202-.03.29-.093.225-.16.277-.473.116-.697l-1.868-2.616Zm-7.038-4.594v-2.5c0-.827.673-1.5,1.5-1.5h1.5c1.103,0,2,.897,2,2s-.897,2-2,2h-3Zm14.096-7.611l-3.485-3.485c-1.228-1.228-2.86-1.904-4.596-1.904h-5.515C4.019,0,2,2.019,2,4.5v15c0,2.481,2.019,4.5,4.5,4.5h11c2.481,0,4.5-2.019,4.5-4.5v-9.515c0-1.736-.676-3.369-1.904-4.596Zm-.707.707c.55.55.959,1.2,1.231,1.904h-5.121c-.827,0-1.5-.673-1.5-1.5V1.379c.704.273,1.354.682,1.904,1.231l3.485,3.485Zm1.611,13.404c0,1.93-1.57,3.5-3.5,3.5H6.5c-1.93,0-3.5-1.57-3.5-3.5V4.5c0-1.93,1.57-3.5,3.5-3.5h5.515c.335,0,.663.038.985.096v5.404c0,1.378,1.122,2.5,2.5,2.5h5.404c.058.323.096.651.096.985v9.515Z"/></svg>
