<?xml version="1.0" encoding="UTF-8"?>
<svg xmlns="http://www.w3.org/2000/svg" id="Layer_1" data-name="Layer 1" viewBox="0 0 24 24" width="512" height="512"><path d="M17.5,.013H6.5C4.019,.013,2,2.031,2,4.513V20.513c0,1.93,1.57,3.5,3.5,3.5h12c2.481,0,4.5-2.019,4.5-4.5V4.513C22,2.031,19.981,.013,17.5,.013ZM3,4.513c0-1.93,1.57-3.5,3.5-3.5h11c1.93,0,3.5,1.57,3.5,3.5v12.5H5.5c-.978,0-1.864,.404-2.5,1.053V4.513Zm14.5,18.5H5.5c-1.379,0-2.5-1.121-2.5-2.5s1.121-2.5,2.5-2.5h15.5v1.5c0,1.93-1.57,3.5-3.5,3.5Zm-5.5-8.013c3.309,0,6-2.691,6-6s-2.691-6-6-6-6,2.691-6,6,2.691,6,6,6Zm-4.975-5.5h1.984c.063,1.671,.439,3.108,1.018,4.094-1.633-.704-2.819-2.254-3.003-4.094Zm4.975-5.5c.888,0,1.875,1.893,1.989,4.5h-3.978c.114-2.607,1.101-4.5,1.989-4.5Zm1.989,5.5c-.114,2.607-1.101,4.5-1.989,4.5s-1.875-1.893-1.989-4.5h3.978Zm-.017,4.094c.58-.986,.956-2.424,1.018-4.094h1.984c-.184,1.841-1.37,3.39-3.003,4.094Zm3.003-5.094h-1.984c-.063-1.671-.439-3.108-1.018-4.094,1.633,.704,2.819,2.254,3.003,4.094Zm-6.947-4.094c-.58,.986-.956,2.424-1.018,4.094h-1.984c.184-1.841,1.37-3.39,3.003-4.094Z"/></svg>
