<?xml version="1.0" encoding="UTF-8"?>
<svg xmlns="http://www.w3.org/2000/svg" id="Layer_1" data-name="Layer 1" viewBox="0 0 24 24" width="512" height="512"><path d="M12.5,.5V23.5c0,.28-.22,.5-.5,.5s-.5-.22-.5-.5V.5c0-.28,.22-.5,.5-.5s.5,.22,.5,.5Zm-3.5,11.5c0,.56-.24,1.1-.66,1.48l-5.84,5.13c-.28,.26-.63,.39-1,.39-.21,0-.41-.04-.61-.13-.55-.24-.9-.77-.9-1.37V6.5c0-.6,.34-1.13,.9-1.37,.55-.24,1.17-.14,1.62,.27l5.82,5.12c.42,.38,.66,.92,.66,1.48Zm-1,0c0-.28-.12-.54-.33-.73L1.85,6.14c-.12-.11-.24-.14-.34-.14s-.17,.03-.21,.04c-.07,.03-.3,.16-.3,.46v11c0,.3,.23,.43,.3,.46,.07,.03,.32,.11,.54-.09l5.84-5.14c.21-.19,.32-.45,.32-.73ZM24,6.5v11c0,.6-.34,1.13-.9,1.37-.2,.09-.41,.13-.61,.13-.36,0-.72-.14-1.01-.4l-5.83-5.12c-.42-.38-.66-.92-.66-1.48s.24-1.1,.66-1.48l5.84-5.13c.44-.4,1.06-.5,1.61-.26,.55,.24,.9,.77,.9,1.37Z"/></svg>
