<?xml version="1.0" encoding="UTF-8"?>
<svg xmlns="http://www.w3.org/2000/svg" id="Layer_1" data-name="Layer 1" viewBox="0 0 24 24" width="512" height="512"><path d="m20.977,20.27c1.95-2.126,3.023-4.879,3.023-7.77,0-.276-.224-.5-.5-.5s-.5.224-.5.5c0,2.625-.969,5.125-2.731,7.062l-2.27-2.27c1.145-1.296,1.832-2.914,1.973-4.629.018-.051.028-4.663.028-4.663C20,3.589,16.411,0,12,0c-2.97,0-5.676,1.642-7.059,4.234L.854.146C.658-.049.342-.049.146.146S-.049.658.146.854l23,23c.098.098.226.146.354.146s.256-.049.354-.146c.195-.195.195-.512,0-.707l-2.876-2.876ZM12,1c3.86,0,7,3.14,7,7h-3.5c-.276,0-.5.224-.5.5s.224.5.5.5h3.5v3h-3.5c-.276,0-.5.224-.5.5s.224.5.5.5h3.429c-.19,1.323-.754,2.564-1.638,3.583L5.684,4.977c1.162-2.424,3.614-3.977,6.316-3.977Zm-7,7.5v3.5h3.5c.276,0,.5.224.5.5s-.224.5-.5.5h-3.428c.487,3.388,3.408,6,6.928,6,.974,0,1.916-.196,2.8-.582.254-.112.548.005.658.258.111.253-.005.548-.258.658-1.011.442-2.088.666-3.2.666-4.411,0-8-3.589-8-8v-3.5c0-.276.224-.5.5-.5s.5.224.5.5Zm13.48,13.248c.139.238.059.544-.179.684-1.752,1.026-3.759,1.568-5.801,1.568h-1C5.159,24,0,18.841,0,12.5c0-.276.224-.5.5-.5s.5.224.5.5c0,5.79,4.71,10.5,10.5,10.5h1c1.865,0,3.697-.495,5.296-1.432.237-.139.544-.06.684.179Z"/></svg>
