<?xml version="1.0" encoding="UTF-8"?>
<svg xmlns="http://www.w3.org/2000/svg" id="Layer_1" data-name="Layer 1" width="512" height="512" viewBox="0 0 24 24"><path d="M23.9,11.478c-.685-5.417-5.107-9.79-10.515-10.399-3.456-.386-6.783,.665-9.361,2.968C1.467,6.332,0,9.614,0,13.05c0,3.288,1.299,6.361,3.659,8.652,.861,.837,1.987,1.298,3.17,1.298h10.347c1.149,0,2.217-.406,3.005-1.144,2.86-2.677,4.216-6.46,3.72-10.379Zm-4.404,9.648c-.602,.563-1.426,.874-2.321,.874H6.829c-.921,0-1.799-.36-2.473-1.015-2.164-2.102-3.355-4.92-3.355-7.936,0-3.151,1.345-6.161,3.691-8.258,2.04-1.823,4.592-2.793,7.294-2.793,.426,0,.856,.024,1.288,.073,4.955,.558,9.007,4.566,9.635,9.53,.455,3.598-.789,7.068-3.412,9.523Zm-2.85-13.479l-3.631,3.631c-.298-.176-.645-.278-1.015-.278-1.103,0-2,.897-2,2s.897,2,2,2,2-.897,2-2c0-.37-.102-.717-.278-1.015l3.631-3.631c.195-.195,.195-.512,0-.707s-.512-.195-.707,0Zm-4.646,6.354c-.551,0-1-.448-1-1s.449-1,1-1,1,.448,1,1-.449,1-1,1Z"/></svg>
