<?xml version="1.0" encoding="UTF-8"?>
<svg xmlns="http://www.w3.org/2000/svg" id="Layer_1" data-name="Layer 1" viewBox="0 0 24 24">
  <path d="m23.854,23.146l-3.853-3.853.025-14.293h1.379c.276,0,.5-.224.5-.5s-.224-.5-.5-.5h-4.028c-.25-2.247-2.16-4-4.472-4h-2c-2.312,0-4.223,1.753-4.472,4h-1.725L.854.146C.658-.049.342-.049.146.146S-.049.658.146.854l23,23c.098.098.226.146.354.146s.256-.049.354-.146c.195-.195.195-.512,0-.707ZM10.904,1h2c1.76,0,3.221,1.306,3.464,3H7.44c.243-1.694,1.704-3,3.464-3Zm8.121,4l-.023,13.295L5.707,5h13.318Zm-.648,17.193c.181.209.159.524-.05.706-.818.71-1.865,1.101-2.949,1.101h-7c-2.481,0-4.5-2.019-4.5-4.5l.025-11.001c0-.276.225-.499.5-.499h0c.276,0,.5.225.499.501l-.025,11c0,1.929,1.57,3.499,3.5,3.499h7c.843,0,1.658-.304,2.294-.856.208-.181.525-.158.705.05Z"/>
</svg>
