<?xml version="1.0" encoding="UTF-8"?>
<svg xmlns="http://www.w3.org/2000/svg" id="Layer_1" data-name="Layer 1" viewBox="0 0 24 24" width="512" height="512"><path d="M23.789,12.595c-.319,.878-.962,1.58-1.809,1.976L.702,23.958c-.066,.029-.135,.042-.202,.042-.191,0-.375-.111-.457-.298-.112-.252,.003-.548,.255-.659l5.703-2.516v-6.76c-.001-1.47,.571-2.851,1.61-3.889l3.837-3.838c-.145-.026-.293-.04-.442-.04H2.5c-.276,0-.5-.224-.5-.5s.224-.5,.5-.5H11.007c.819,0,1.616,.289,2.244,.814l.948,.792c.517,.49,.792,1.122,.801,1.802,.009,.679-.252,1.318-.732,1.798l-4.414,4.414c-.098,.098-.226,.146-.354,.146s-.256-.049-.354-.146c-.195-.195-.195-.512,0-.707l4.414-4.414c.288-.289,.444-.671,.439-1.079s-.17-.787-.466-1.068c0,0-1.032-.857-1.088-.896l-4.128,4.128c-.851,.85-1.318,1.979-1.318,3.182v6.32l14.566-6.426c.596-.278,1.055-.779,1.282-1.407,.229-.627,.198-1.307-.084-1.912-.117-.25-.009-.548,.241-.665,.248-.115,.548-.01,.665,.242,.396,.847,.438,1.797,.118,2.676ZM14,2.5c0-1.378,1.121-2.5,2.5-2.5s2.5,1.122,2.5,2.5-1.121,2.5-2.5,2.5-2.5-1.122-2.5-2.5Zm1,0c0,.827,.673,1.5,1.5,1.5s1.5-.673,1.5-1.5-.673-1.5-1.5-1.5-1.5,.673-1.5,1.5Z"/></svg>
