<?xml version="1.0" encoding="UTF-8"?>
<svg xmlns="http://www.w3.org/2000/svg" id="Layer_1" data-name="Layer 1" viewBox="0 0 24 24" width="512" height="512"><path d="M20.183,4.888c.852-.835,1.386-1.818,1.719-2.757,.161-.452,.12-.95-.111-1.364-.222-.396-.601-.678-1.041-.771-.524-.11-1.075-.166-1.638-.166-4.096,0-6.022,2.858-6.853,4.773-.527-2.062-1.913-4.603-4.759-4.603-.276,0-.5,.224-.5,.5s.224,.5,.5,.5c2.795,0,3.676,3.198,3.919,4.502-1.122-.95-2.542-1.502-4.123-1.502C3.272,4,0,7.303,0,11.361c0,8.178,7.927,12.639,12,12.639s12-4.461,12-12.639c0-2.729-1.476-5.195-3.817-6.473Zm-1.071-4.058c.493,0,.976,.049,1.432,.145,.159,.033,.292,.133,.374,.28,.092,.163,.106,.36,.043,.542-1.109,3.123-3.843,4.519-8.144,4.147,.416-1.413,1.922-5.114,6.295-5.114Zm-7.112,22.17c-3.29,0-11-3.96-11-11.639,0-3.508,2.824-6.361,6.296-6.361,3.306,0,5.704,2.733,5.704,6.5,0,3.505-1.908,6.71-1.928,6.741-.143,.236-.067,.544,.169,.687,.237,.143,.544,.067,.687-.169,.085-.14,2.072-3.469,2.072-7.259,0-1.746-.481-3.316-1.31-4.564,.494,.044,.963,.065,1.409,.065,2.341,0,4.028-.572,5.243-1.418,2.23,1.039,3.657,3.282,3.657,5.778,0,7.679-7.71,11.639-11,11.639Z"/></svg>
