<?xml version="1.0" encoding="UTF-8"?>
<svg xmlns="http://www.w3.org/2000/svg" id="Layer_1" data-name="Layer 1" viewBox="0 0 24 24" width="512" height="512"><path d="M19.5,19h-.5V8.95c1.14-.232,2-1.243,2-2.45V2.5c0-1.379-1.122-2.5-2.5-2.5h-1c-.817,0-1.543,.394-2,1.002-.457-.608-1.183-1.002-2-1.002h-3c-.817,0-1.543,.394-2,1.002-.457-.608-1.183-1.002-2-1.002h-1c-1.378,0-2.5,1.121-2.5,2.5V6.5c0,1.207,.86,2.218,2,2.45v10.05h-.5c-1.378,0-2.5,1.121-2.5,2.5s1.122,2.5,2.5,2.5h15c1.378,0,2.5-1.121,2.5-2.5s-1.122-2.5-2.5-2.5ZM5.5,8c-.827,0-1.5-.673-1.5-1.5V2.5c0-.827,.673-1.5,1.5-1.5h1c.827,0,1.5,.673,1.5,1.5v2c0,.276,.224,.5,.5,.5s.5-.224,.5-.5V2.5c0-.827,.673-1.5,1.5-1.5h3c.827,0,1.5,.673,1.5,1.5v2c0,.276,.224,.5,.5,.5s.5-.224,.5-.5V2.5c0-.827,.673-1.5,1.5-1.5h1c.827,0,1.5,.673,1.5,1.5V6.5c0,.827-.673,1.5-1.5,1.5-.276,0-.5,.224-.5,.5v10.5H6V8.5c0-.276-.224-.5-.5-.5Zm14,15H4.5c-.827,0-1.5-.673-1.5-1.5s.673-1.5,1.5-1.5h15c.827,0,1.5,.673,1.5,1.5s-.673,1.5-1.5,1.5ZM11,13h2c.551,0,1-.448,1-1v-2c0-1.103-.897-2-2-2s-2,.897-2,2v2c0,.552,.449,1,1,1Zm0-3c0-.552,.449-1,1-1s1,.448,1,1v2h-2v-2Z"/></svg>
