<?xml version="1.0" encoding="UTF-8"?>
<svg xmlns="http://www.w3.org/2000/svg" id="Layer_1" data-name="Layer 1" viewBox="0 0 24 24" width="512" height="512"><path d="m12,0C5.383,0,0,5.383,0,12s5.383,12,12,12,12-5.383,12-12S18.617,0,12,0Zm0,23c-6.065,0-11-4.935-11-11S5.935,1,12,1s11,4.935,11,11-4.935,11-11,11Zm4.668-5.775c.151.231.088.541-.143.693-.085.056-.181.082-.275.082-.162,0-.321-.079-.418-.225l-3.802-5.775h-3.902l.122,5.238c.006.276-.212.505-.488.512h-.012c-.271,0-.493-.216-.5-.488l-.25-10.75c-.006-.276.212-.505.488-.512.299.017.505.212.512.488l.105,4.512h3.952l3.8-4.81c.172-.216.486-.253.702-.082.217.171.254.485.083.702l-3.727,4.717,3.752,5.698Z"/></svg>
