<?xml version="1.0" encoding="UTF-8"?>
<svg xmlns="http://www.w3.org/2000/svg" id="Layer_1" data-name="Layer 1" viewBox="0 0 24 24" width="512" height="512"><path d="m15.309,24.02h-.005c-.498-.002-.897-.355-.95-.841L12,1.468l-2.354,21.711c-.053.485-.452.839-.95.841h-.005c-.496,0-.896-.35-.954-.832L5.41,4.37l-1.91,14.817c-.061.456-.429.788-.896.812-.462,0-.868-.273-.973-.722L.011,11.604c-.057-.271.116-.535.386-.593.268-.05.535.114.593.386l1.557,7.369,1.928-14.955c.059-.47.453-.811.938-.811h.003c.485,0,.879.345.935.816l2.382,19.251L11.062.847c.052-.479.446-.827.938-.827s.887.348.938.827l2.409,22.225,2.304-19.257c.056-.47.449-.813.935-.814.475-.007.882.34.94.812l1.928,14.955,1.568-7.371c.058-.271.33-.435.594-.385.27.058.442.323.385.594l-1.631,7.664c-.106.456-.515.729-.975.73-.467-.023-.835-.355-.896-.81l-1.91-14.819-2.328,18.82c-.057.479-.457.829-.953.829Z"/></svg>
