<?xml version="1.0" encoding="UTF-8"?>
<svg xmlns="http://www.w3.org/2000/svg" id="Layer_1" data-name="Layer 1" viewBox="0 0 24 24" width="512" height="512"><path d="M23.581,11l-3.342-3.299c-.385-.38-.933-.487-1.432-.277-.499,.208-.808,.673-.808,1.213v2.863h-5.5V6.001h2.863c.54,0,1.005-.31,1.213-.808,.208-.499,.102-1.047-.277-1.432L13,.419c-.532-.54-1.468-.54-2,0l-3.299,3.342c-.379,.385-.486,.933-.277,1.432,.208,.499,.673,.808,1.213,.808h2.863v5.5H6v-2.863c0-.54-.31-1.005-.808-1.213-.5-.21-1.048-.103-1.432,.277L.419,11C.149,11.267,0,11.622,0,12.001s.149,.734,.418,.999l3.342,3.299c.254,.251,.581,.383,.917,.383,.172,0,.346-.034,.515-.104,.499-.209,.808-.674,.808-1.214v-2.863h5.5v5.5h-2.863c-.54,0-1.005,.31-1.213,.808-.208,.499-.102,1.048,.277,1.433l3.299,3.342c.266,.27,.621,.418,1,.418s.734-.148,1-.418l3.299-3.342c.379-.385,.486-.934,.277-1.433-.208-.498-.673-.808-1.213-.808h-2.863v-5.5h5.5v2.863c0,.54,.31,1.005,.808,1.214,.169,.07,.343,.104,.515,.104,.336,0,.662-.132,.916-.383l3.342-3.298c.27-.266,.418-.621,.418-1s-.148-.734-.418-1ZM8.346,4.807c-.024-.058-.066-.208,.067-.343l3.299-3.342c.077-.078,.179-.121,.288-.121s.211,.043,.288,.121l3.299,3.342h0c.133,.135,.091,.285,.067,.343s-.102,.194-.291,.194h-6.726c-.189,0-.267-.136-.291-.194Zm-3.54,10.847c-.058,.023-.208,.065-.343-.066l-3.342-3.3c-.078-.076-.121-.178-.121-.287s.043-.212,.121-.289l3.342-3.299h0c.073-.072,.15-.093,.215-.093,.055,0,.101,.015,.128,.026,.058,.024,.194,.102,.194,.291v6.726c0,.189-.136,.267-.194,.291Zm10.847,3.539c.024,.059,.066,.209-.067,.344l-3.299,3.342c-.153,.156-.423,.156-.576,0l-3.299-3.342c-.133-.135-.091-.285-.067-.344,.024-.058,.102-.193,.291-.193h6.726c.189,0,.267,.136,.291,.193Zm7.225-6.905l-3.343,3.299c-.135,.132-.285,.089-.343,.066-.058-.024-.194-.102-.194-.291v-6.726c0-.189,.136-.267,.194-.291,.027-.011,.073-.026,.128-.026,.065,0,.142,.021,.215,.093l3.343,3.299c.078,.077,.121,.179,.121,.289s-.043,.211-.121,.288Z"/></svg>
