<?xml version="1.0" encoding="UTF-8"?>
<svg xmlns="http://www.w3.org/2000/svg" id="Layer_1" data-name="Layer 1" viewBox="0 0 24 24" width="512" height="512"><path d="M18.5,5c1.38,0,2.5-1.12,2.5-2.5s-1.12-2.5-2.5-2.5-2.5,1.12-2.5,2.5,1.12,2.5,2.5,2.5Zm0-4c.83,0,1.5,.67,1.5,1.5s-.67,1.5-1.5,1.5-1.5-.67-1.5-1.5,.67-1.5,1.5-1.5Zm5.47,16.15l-1.66-8.04c-.37-1.8-1.97-3.11-3.81-3.11s-3.44,1.31-3.81,3.11l-1.67,8.08c-.09,.71,.13,1.43,.61,1.96,.47,.54,1.16,.85,1.87,.85h.5v3.5c0,.28,.22,.5,.5,.5s.5-.22,.5-.5v-3.5h3v3.5c0,.28,.22,.5,.5,.5s.5-.22,.5-.5v-3.5h.5c.72,0,1.4-.31,1.87-.85,.47-.54,.7-1.25,.6-2Zm-1.35,1.34c-.29,.32-.7,.51-1.12,.51h-6c-.43,0-.84-.18-1.12-.51-.28-.32-.42-.75-.37-1.14l1.66-8.04c.28-1.34,1.47-2.31,2.83-2.31s2.56,.97,2.83,2.31l1.65,8c.05,.43-.08,.86-.36,1.18ZM5.5,5c1.38,0,2.5-1.12,2.5-2.5S6.88,0,5.5,0,3,1.12,3,2.5s1.12,2.5,2.5,2.5Zm0-4c.83,0,1.5,.67,1.5,1.5s-.67,1.5-1.5,1.5-1.5-.67-1.5-1.5,.67-1.5,1.5-1.5Zm1,5h-2c-1.93,0-3.5,1.57-3.5,3.5v4c0,1.39,.82,2.6,2,3.16v6.84c0,.28,.22,.5,.5,.5s.5-.22,.5-.5v-6.54c.16,.02,.33,.04,.5,.04h2c.17,0,.34-.01,.5-.04v6.54c0,.28,.22,.5,.5,.5s.5-.22,.5-.5v-6.84c1.18-.56,2-1.77,2-3.16v-4c0-1.93-1.57-3.5-3.5-3.5Zm2.5,7.5c0,1.38-1.12,2.5-2.5,2.5h-2c-1.38,0-2.5-1.12-2.5-2.5v-4c0-1.38,1.12-2.5,2.5-2.5h2c1.38,0,2.5,1.12,2.5,2.5v4Z"/></svg>
