<?xml version="1.0" encoding="UTF-8"?>
<svg xmlns="http://www.w3.org/2000/svg" id="Layer_1" data-name="Layer 1" viewBox="0 0 24 24" width="512" height="512"><path d="M20.33,16.85c-.25-.13-.55-.03-.67,.21-1.26,2.43-3.73,3.94-6.46,3.94h-1.85L16.89,4c1.19,.7,2.18,1.74,2.82,3.04,.12,.25,.42,.35,.67,.23,.25-.12,.35-.42,.23-.67-.77-1.55-1.96-2.77-3.4-3.57l.77-2.37c.09-.26-.06-.54-.32-.63-.26-.08-.54,.06-.63,.32l-.73,2.25c-.96-.39-2.01-.59-3.1-.59h-.15l.44-1.34c.09-.26-.06-.54-.32-.63-.26-.08-.54,.06-.63,.32l-.54,1.66h-.71C6.71,2,3,5.71,3,10.27v3.46c0,2.59,1.2,4.91,3.07,6.42l-1.04,3.19c-.09,.26,.06,.54,.32,.63,.05,.02,.1,.02,.15,.02,.21,0,.41-.13,.48-.34l.94-2.9c.92,.57,1.96,.97,3.08,1.14l-.47,1.44c-.09,.26,.06,.54,.32,.63,.05,.02,.1,.02,.15,.02,.21,0,.41-.13,.48-.34l.54-1.66c.09,0,.17,0,.26,0h1.92c3.11,0,5.93-1.72,7.35-4.48,.13-.25,.03-.55-.21-.67ZM4,13.73v-3.46c0-4.01,3.26-7.27,7.27-7.27h.39L6.4,19.12c-1.47-1.33-2.4-3.26-2.4-5.39Zm3.24,6.05L12.71,3h.48c.98,0,1.92,.19,2.79,.55l-5.67,17.39c-1.12-.15-2.17-.56-3.07-1.16Z"/></svg>
