<?xml version="1.0" encoding="UTF-8"?>
<svg xmlns="http://www.w3.org/2000/svg" id="Layer_1" data-name="Layer 1" viewBox="0 0 24 24" width="512" height="512"><path d="M18.5,24H5.5c-3.032,0-5.5-2.468-5.5-5.5V2C0,.897,.897,0,2,0h1.29c.935,0,1.757,.663,1.954,1.577l2.049,9.423,3.712-3.699c.406-.327,.895-.381,1.313-.181,.421,.202,.682,.618,.682,1.084v2.263l4.047-3.203c.363-.291,.852-.347,1.271-.144,.421,.202,.682,.618,.682,1.084v2.092l3.005-2.995c.406-.327,.895-.381,1.313-.181,.421,.202,.682,.618,.682,1.084v10.296c0,3.032-2.468,5.5-5.5,5.5ZM2,1c-.552,0-1,.448-1,1V18.5c0,2.481,2.019,4.5,4.5,4.5h13c2.481,0,4.5-2.019,4.5-4.5V8.204c0-.11-.072-.162-.115-.183-.044-.021-.13-.045-.215,.024l-3.817,3.809c-.143,.142-.358,.184-.544,.107-.187-.077-.309-.26-.309-.462v-3.296c0-.11-.072-.162-.115-.183-.043-.021-.129-.045-.215,.024l-4.859,3.846c-.15,.119-.356,.142-.528,.059-.173-.084-.282-.259-.282-.45v-3.296c0-.11-.072-.162-.115-.183-.043-.021-.13-.045-.215,.024l-3.817,3.809c-.094,.093-.221,.146-.353,.146h-.615c-.235,0-.438-.164-.488-.394L4.268,1.789c-.1-.457-.51-.789-.978-.789h-1.29ZM7.5,20h-1c-.827,0-1.5-.673-1.5-1.5v-1c0-.827,.673-1.5,1.5-1.5h1c.827,0,1.5,.673,1.5,1.5v1c0,.827-.673,1.5-1.5,1.5Zm-1-3c-.275,0-.5,.225-.5,.5v1c0,.275,.225,.5,.5,.5h1c.275,0,.5-.225,.5-.5v-1c0-.275-.225-.5-.5-.5h-1Zm7,3h-1c-.827,0-1.5-.673-1.5-1.5v-1c0-.827,.673-1.5,1.5-1.5h1c.827,0,1.5,.673,1.5,1.5v1c0,.827-.673,1.5-1.5,1.5Zm-1-3c-.275,0-.5,.225-.5,.5v1c0,.275,.225,.5,.5,.5h1c.275,0,.5-.225,.5-.5v-1c0-.275-.225-.5-.5-.5h-1Zm7,3h-1c-.827,0-1.5-.673-1.5-1.5v-1c0-.827,.673-1.5,1.5-1.5h1c.827,0,1.5,.673,1.5,1.5v1c0,.827-.673,1.5-1.5,1.5Zm-1-3c-.275,0-.5,.225-.5,.5v1c0,.275,.225,.5,.5,.5h1c.275,0,.5-.225,.5-.5v-1c0-.275-.225-.5-.5-.5h-1Z"/></svg>
