<?xml version="1.0" encoding="UTF-8"?>
<svg xmlns="http://www.w3.org/2000/svg" id="Layer_1" data-name="Layer 1" viewBox="0 0 24 24" width="512" height="512"><path d="m24,12c0,.276-.224.5-.5.5H.5c-.276,0-.5-.224-.5-.5s.224-.5.5-.5h7.55l-1.844-.475c-2.476-.638-4.206-2.868-4.206-5.425C2,2.513,4.513,0,7.601,0h8.798c3.088,0,5.601,2.513,5.601,5.601v.899c0,.276-.224.5-.5.5s-.5-.224-.5-.5v-.899c0-2.537-2.064-4.601-4.601-4.601H7.601c-2.537,0-4.601,2.063-4.601,4.601,0,2.101,1.42,3.933,3.455,4.456l5.609,1.443h11.436c.276,0,.5.224.5.5Zm-4.354,2.433c-.195.196-.195.513,0,.708.873.87,1.353,2.027,1.353,3.259,0,2.537-2.064,4.601-4.601,4.601H7.601c-2.537,0-4.601-2.063-4.601-4.601v-.899c0-.276-.224-.5-.5-.5s-.5.224-.5.5v.899c0,3.088,2.513,5.601,5.601,5.601h8.798c3.088,0,5.601-2.513,5.601-5.601,0-1.499-.585-2.908-1.647-3.968-.195-.193-.511-.194-.707,0Z"/></svg>
