<?xml version="1.0" encoding="UTF-8"?>
<svg xmlns="http://www.w3.org/2000/svg" id="Layer_1" data-name="Layer 1" viewBox="0 0 24 24" width="512" height="512"><path d="M12.36,9.86l-1.33-.78c.29-.64,.47-1.34,.47-2.08s-.18-1.45-.47-2.08l1.33-.78c.24-.14,.32-.45,.18-.68-.14-.24-.45-.32-.68-.18l-1.33,.78c-.82-1.11-2.08-1.86-3.52-2V.5c0-.28-.22-.5-.5-.5s-.5,.22-.5,.5v1.55c-1.44,.15-2.7,.89-3.52,2l-1.33-.78c-.24-.14-.54-.06-.68,.18-.14,.24-.06,.54,.18,.68l1.33,.78c-.29,.64-.47,1.34-.47,2.08s.18,1.45,.47,2.08l-1.33,.78c-.24,.14-.32,.45-.18,.68,.09,.16,.26,.25,.43,.25,.09,0,.17-.02,.25-.07l1.33-.78c.82,1.11,2.08,1.86,3.52,2v1.55c0,.28,.22,.5,.5,.5s.5-.22,.5-.5v-1.55c1.44-.15,2.7-.89,3.52-2l1.33,.78c.08,.05,.17,.07,.25,.07,.17,0,.34-.09,.43-.25,.14-.24,.06-.54-.18-.68Zm-5.86,1.14c-2.21,0-4-1.79-4-4S4.29,3,6.5,3s4,1.79,4,4-1.79,4-4,4Zm16.86,8.86l-1.33-.78c.29-.64,.47-1.34,.47-2.08s-.18-1.45-.47-2.08l1.33-.78c.24-.14,.32-.45,.18-.68-.14-.24-.45-.32-.68-.18l-1.33,.78c-.82-1.11-2.08-1.86-3.52-2v-1.55c0-.28-.22-.5-.5-.5s-.5,.22-.5,.5v1.55c-1.44,.15-2.7,.89-3.52,2l-1.33-.78c-.24-.14-.54-.06-.68,.18-.14,.24-.06,.54,.18,.68l1.33,.78c-.29,.64-.47,1.34-.47,2.08s.18,1.45,.47,2.08l-1.33,.78c-.24,.14-.32,.45-.18,.68,.09,.16,.26,.25,.43,.25,.09,0,.17-.02,.25-.07l1.33-.78c.82,1.11,2.08,1.86,3.52,2v1.55c0,.28,.22,.5,.5,.5s.5-.22,.5-.5v-1.55c1.44-.15,2.7-.89,3.52-2l1.33,.78c.08,.05,.17,.07,.25,.07,.17,0,.34-.09,.43-.25,.14-.24,.06-.54-.18-.68Zm-5.86,1.14c-2.21,0-4-1.79-4-4s1.79-4,4-4,4,1.79,4,4-1.79,4-4,4Z"/></svg>
