<?xml version="1.0" encoding="UTF-8"?>
<svg xmlns="http://www.w3.org/2000/svg" id="Layer_1" data-name="Layer 1" width="512" height="512" viewBox="0 0 24 24"><path d="M16.87,19.581c.193,.358,.173,.793-.052,1.133l-1.891,3.05c-.095,.152-.258,.236-.425,.236-.091,0-.182-.024-.264-.075-.234-.146-.307-.453-.161-.688l1.898-3.062c.03-.047,.032-.083,.013-.119s-.05-.055-.091-.055h-2.78c-.356,0-.683-.164-.896-.45-.212-.287-.275-.646-.171-.988,.013-.041,2.026-3.323,2.026-3.323,.146-.236,.456-.31,.688-.164,.235,.145,.309,.452,.164,.688l-1.926,3.13c.002,.026,.013,.048,.023,.062,.016,.021,.044,.047,.092,.047h2.78c.407,0,.779,.223,.972,.581ZM6.046,12.382c-.764-1.202-1.251-2.638-.959-3.769,.584-2.26,2.375-3.331,3.49-3.521,1.094-.187,3.115,.062,4.371,1.514,.626,.724,1.277,.712,1.909,.343l2.667-1.561c.238-.14,.318-.446,.179-.685s-.445-.315-.685-.179l-2.666,1.561c-.207,.123-.476,.069-.639-.124-.324-.385-.689-.717-1.087-.993l1.726-3.066c.136-.24,.051-.546-.19-.681-.238-.135-.544-.052-.681,.19l-1.725,3.064c-.551-.247-1.142-.401-1.753-.455V.5c0-.276-.224-.5-.5-.5s-.5,.224-.5,.5v3.522c-.206,.019-.413,.048-.62,.089-.415,.082-.814,.213-1.191,.387l-1.756-3.042c-.139-.239-.445-.323-.683-.183-.239,.138-.321,.443-.183,.683l1.756,3.042c-.523,.369-.979,.829-1.346,1.354l-3.054-1.736c-.24-.136-.545-.054-.682,.188-.137,.24-.053,.545,.188,.682l3.054,1.737c-.172,.381-.302,.784-.381,1.203-.036,.191-.062,.383-.079,.574H.502C.226,9,.002,9.224,.002,9.5s.224,.5,.5,.5h3.524c.058,.629,.221,1.241,.485,1.812l-3.049,1.765c-.239,.139-.321,.444-.182,.683,.093,.16,.26,.25,.433,.25,.085,0,.171-.021,.25-.067l3.049-1.765c.083,.118,.172,.233,.266,.346,.176,.211,.492,.241,.704,.063,.212-.177,.212-.471,.063-.704Zm14.441,1.28c-.409-.109-.722-.382-.857-.747-.914-2.466-3.284-4.031-5.926-3.907-3.051,.147-5.552,2.654-5.694,5.705-.024,.519,.018,1.036,.124,1.538,.05,.233-.051,.46-.244,.549-1.464,.678-2.202,2.314-1.753,3.892,.296,1.045,1.13,1.878,2.176,2.176,.286,.08,.575,.125,.858,.132,.332,.009,.572,.012,1.072,.012,.29,0,1.259-.011,1.259-.011,.276,0,.5-.224,.5-.5s-.224-.5-.5-.5c0,0-1.5,0-2.306,0-.2,0-.406-.036-.61-.094-.703-.2-1.287-.784-1.486-1.487-.318-1.118,.18-2.233,1.212-2.711,.619-.287,.949-.971,.802-1.664-.089-.418-.124-.85-.104-1.283,.117-2.5,2.245-4.632,4.744-4.754,2.206-.106,4.178,1.202,4.939,3.257,.25,.674,.81,1.171,1.536,1.365,1.973,.53,3.143,2.527,2.665,4.547-.315,1.328-1.376,2.393-2.701,2.712-.336,.081-.676,.113-1.006,.112l-.68-.006h-.004c-.274,0-.498,.221-.5,.496s.22,.502,.496,.504l.674,.006c.414,0,.834-.04,1.253-.14,1.688-.406,3.039-1.763,3.44-3.454,.604-2.549-.88-5.071-3.379-5.743Z"/></svg>
