<?xml version="1.0" encoding="UTF-8"?>
<svg xmlns="http://www.w3.org/2000/svg" id="Layer_1" data-name="Layer 1" viewBox="0 0 24 24" width="512" height="512"><path d="m19.5,0H4.5C2.019,0,0,2.019,0,4.5v15c0,2.481,2.019,4.5,4.5,4.5h15c2.481,0,4.5-2.019,4.5-4.5V4.5c0-2.481-2.019-4.5-4.5-4.5Zm3.5,19.5c0,1.93-1.57,3.5-3.5,3.5H4.5c-1.93,0-3.5-1.57-3.5-3.5V4.5c0-1.93,1.57-3.5,3.5-3.5h15c1.93,0,3.5,1.57,3.5,3.5v15Zm-3.006-14.924l-2.187,14.192c-.102.658-.615,1.15-1.277,1.223-.664.069-1.271-.295-1.513-.917l-3.018-7.749-3.018,7.749c-.222.569-.75.926-1.347.926-.636,0-1.342-.573-1.443-1.231l-2.187-14.192c-.042-.273.146-.528.418-.57.268-.037.528.146.57.418l2.187,14.192c.049.318.317.372.398.381.078.004.354.014.472-.286l3.483-8.945c.148-.383.783-.383.932,0l3.483,8.945c.117.3.393.291.472.286.081-.009.35-.062.398-.381l2.187-14.192c.042-.273.304-.455.57-.418.272.042.46.297.418.57Z"/></svg>
