<?xml version="1.0" encoding="UTF-8"?>
<svg xmlns="http://www.w3.org/2000/svg" id="Layer_1" data-name="Layer 1" viewBox="0 0 24 24" width="512" height="512"><path d="M20.096,5.404l-3.485-3.485C15.383,.691,13.751,.015,12.015,.015H6.5C4.019,.015,2,2.033,2,4.515v15c0,2.481,2.019,4.5,4.5,4.5h11c2.481,0,4.5-2.019,4.5-4.5V10c0-1.736-.676-3.368-1.904-4.596Zm-.707,.707c.551,.551,.97,1.198,1.243,1.904h-5.132c-.827,0-1.5-.673-1.5-1.5V1.382c.706,.273,1.353,.692,1.904,1.243l3.485,3.485Zm1.611,13.404c0,1.93-1.57,3.5-3.5,3.5H6.5c-1.93,0-3.5-1.57-3.5-3.5V4.515c0-1.93,1.57-3.5,3.5-3.5h5.515c.334,0,.663,.03,.985,.088V6.515c0,1.378,1.122,2.5,2.5,2.5h5.412c.058,.322,.088,.651,.088,.985v9.515ZM7.451,14.979c-.291,.291-.451,.677-.451,1.088s.16,.797,.451,1.088l2.903,2.903c.195,.195,.195,.512,0,.707-.098,.098-.226,.146-.354,.146s-.256-.049-.354-.146l-2.903-2.903c-.479-.479-.744-1.117-.744-1.795s.264-1.316,.744-1.795l2.903-2.903c.195-.195,.512-.195,.707,0s.195,.512,0,.707l-2.903,2.903Zm9.806-.707c.479,.479,.744,1.117,.744,1.795s-.264,1.316-.744,1.795l-2.903,2.903c-.098,.098-.226,.146-.354,.146s-.256-.049-.354-.146c-.195-.195-.195-.512,0-.707l2.903-2.903c.291-.291,.451-.677,.451-1.088s-.16-.798-.451-1.088l-2.903-2.903c-.195-.195-.195-.512,0-.707s.512-.195,.707,0l2.903,2.903Z"/></svg>
