<?xml version="1.0" encoding="UTF-8"?>
<svg xmlns="http://www.w3.org/2000/svg" id="Layer_1" data-name="Layer 1" viewBox="0 0 24 24" width="512" height="512"><path d="m5.208,5.604l.792.396v2.001c0,3.309,2.691,6,6,6s6-2.691,6-6v-2.001l.791-.396c.746-.371,1.209-1.12,1.209-1.953,0-.971-.652-1.835-1.587-2.103L13.665.2c-1.093-.271-2.26-.269-3.394.018l-4.686,1.332c-.934.266-1.586,1.13-1.586,2.101,0,.833.463,1.582,1.208,1.953Zm6.792,7.396c-2.757,0-5-2.243-5-5v-.639c.928.275,2.611.639,5,.639s4.072-.365,5-.639v.639c0,2.757-2.243,5-5,5ZM5.859,2.511l4.67-1.327c.958-.24,1.959-.244,2.879-.017l4.73,1.343c.507.146.861.614.861,1.141,0,.451-.251.857-.655,1.059l-1.068.534c-.169.085-.276.258-.276.447v.624c-.776.256-2.457.686-5,.686s-4.224-.43-5-.686v-.624c0-.189-.107-.362-.276-.447l-1.069-.534c-.403-.201-.654-.607-.654-1.059,0-.526.354-.995.859-1.14Zm3.212,1.232c.143-.237.452-.313.686-.172l2.243,1.346,2.243-1.346c.234-.142.544-.065.686.172.143.236.065.544-.172.686l-2.5,1.5c-.079.048-.168.071-.257.071s-.178-.023-.257-.071l-2.5-1.5c-.237-.142-.314-.449-.172-.686Zm5.953,11.782c-.633-.224-1.336.022-1.674.586l-1.279,2.132c-.047.078-.071.166-.071.256,0-.09-.024-.178-.071-.256l-1.274-2.125c-.341-.564-1.049-.809-1.678-.583-3.403,1.221-5.737,4.336-5.946,7.936-.017.276.194.513.47.528.276.027.513-.194.528-.47.186-3.199,2.261-5.968,5.286-7.053.189-.066.387-.003.482.156l1.153,1.922-1.365,3.838c-.146.361-.102.77.117,1.092.219.323.581.516.971.516h2.654c.39,0,.752-.192.971-.516.219-.322.263-.73.124-1.074l-1.372-3.855,1.158-1.929c.096-.161.293-.224.482-.157,3.039,1.078,5.124,3.85,5.311,7.061.016.266.235.471.499.471.01,0,.02,0,.029,0,.275-.016.486-.252.47-.528-.21-3.613-2.555-6.731-5.975-7.945Zm-1.537,7.238c.029.074.002.133-.018.16-.02.028-.063.076-.143.076h-2.654c-.079,0-.123-.048-.143-.076-.02-.027-.047-.086-.011-.178l1.451-4.078c.02-.055.029-.11.029-.167,0,.057.01.112.029.167l1.458,4.096Z"/></svg>
