<?xml version="1.0" encoding="UTF-8"?>
<svg xmlns="http://www.w3.org/2000/svg" id="Layer_1" data-name="Layer 1" width="512" height="512" viewBox="0 0 24 24"><path d="M12,24C5.383,24,0,18.617,0,12S5.383,0,12,0s12,5.383,12,12-5.383,12-12,12ZM12,1C5.935,1,1,5.935,1,12s4.935,11,11,11,11-4.935,11-11S18.065,1,12,1Zm4.5,11.306c-.276,0-.553-.091-.778-.272-1.241-.997-2.722-2.48-2.722-3.884,0-1.186,.897-2.15,2-2.15,.597,0,1.133,.282,1.5,.729,.367-.447,.903-.729,1.5-.729,1.103,0,2,.964,2,2.15,0,1.404-1.48,2.887-2.722,3.884-.226,.181-.502,.271-.778,.272Zm-1.5-5.306c-.552,0-1,.516-1,1.15,0,.763,.878,1.924,2.349,3.105,.088,.07,.215,.07,.303,0,1.471-1.181,2.349-2.342,2.349-3.105,0-.634-.448-1.15-1-1.15s-1,.516-1,1.15c0,.276-.224,.5-.5,.5s-.5-.224-.5-.5c0-.634-.448-1.15-1-1.15Zm-7.5,5.306c-.276,0-.553-.091-.778-.272-1.241-.997-2.722-2.48-2.722-3.884,0-1.186,.897-2.15,2-2.15,.597,0,1.133,.282,1.5,.729,.367-.447,.903-.729,1.5-.729,1.103,0,2,.964,2,2.15,0,1.404-1.48,2.887-2.722,3.884-.226,.181-.502,.271-.778,.272Zm-1.5-5.306c-.552,0-1,.516-1,1.15,0,.763,.878,1.924,2.349,3.105,.088,.07,.215,.07,.303,0,1.471-1.181,2.349-2.342,2.349-3.105,0-.634-.448-1.15-1-1.15s-1,.516-1,1.15c0,.276-.224,.5-.5,.5s-.5-.224-.5-.5c0-.634-.448-1.15-1-1.15Zm6,13c-3.051,0-5.596-1.854-6.764-3.69-.331-.521-.316-1.16,.039-1.668,.352-.505,.942-.739,1.542-.606,.288,.063,.614,.156,.981,.262,1.028,.296,2.436,.702,4.197,.702,1.764,0,3.176-.407,4.206-.703,.367-.105,.693-.199,.979-.261,.604-.133,1.191,.101,1.543,.606,.355,.508,.37,1.147,.039,1.668h0c-1.168,1.836-3.713,3.69-6.764,3.69Zm-5.509-5c-.227,0-.357,.16-.396,.215-.045,.065-.181,.297-.015,.558,1.021,1.606,3.248,3.227,5.92,3.227s4.898-1.621,5.92-3.227h0c.166-.261,.03-.493-.015-.558-.045-.064-.211-.264-.51-.203-.268,.059-.573,.147-.917,.246-1.088,.312-2.578,.741-4.482,.742-1.902,0-3.389-.429-4.474-.741-.344-.099-.649-.188-.919-.247-.039-.009-.077-.012-.112-.012Z"/></svg>
