<?xml version="1.0" encoding="UTF-8"?>
<svg xmlns="http://www.w3.org/2000/svg" id="Layer_1" data-name="Layer 1" viewBox="0 0 24 24" width="512" height="512"><path d="M17.977,9.673c.185-2.62-.771-5.185-2.622-7.037S10.955-.164,8.348,.022C3.823,.342,0,4.596,0,9.312v5.188c0,2.29,1.21,3.5,3.5,3.5h5.185c4.718,0,8.974-3.812,9.292-8.326Zm-9.292,7.326H3.5c-1.729,0-2.5-.771-2.5-2.5v-5.188C1,5.101,4.397,1.304,8.418,1.02c.189-.013,.378-.02,.566-.02,2.118,0,4.156,.837,5.663,2.344,1.647,1.647,2.497,3.928,2.333,6.259-.283,4.009-4.082,7.396-8.295,7.396Zm15.315-.725v4.726c0,1.85-1.149,2.999-3,2.999h-4.722c-2.698,0-5.354-1.424-6.931-3.716-.157-.228-.099-.538,.128-.695,.229-.156,.539-.1,.696,.129,1.394,2.024,3.734,3.282,6.107,3.282h4.722c.913,0,2-.347,2-1.999v-4.726c0-2.373-1.258-4.713-3.283-6.105-.228-.157-.285-.468-.129-.695,.158-.228,.468-.285,.695-.129,2.292,1.576,3.717,4.231,3.717,6.929Zm-11-4.9c0,1.448-1.178,2.626-2.626,2.626h-.874v1.5c0,.276-.224,.5-.5,.5s-.5-.224-.5-.5v-1.5h-.926c-.979,0-1.891-.526-2.381-1.374-.139-.239-.057-.545,.182-.683,.24-.139,.544-.057,.683,.182,.312,.54,.894,.875,1.516,.875h2.8c.896,0,1.626-.729,1.626-1.626,0-.803-.575-1.478-1.368-1.605l-3.422-.55c-1.28-.206-2.209-1.296-2.209-2.593,0-1.448,1.178-2.626,2.626-2.626h.874v-1.5c0-.276,.224-.5,.5-.5s.5,.224,.5,.5v1.5h.926c.978,0,1.891,.527,2.381,1.375,.139,.239,.057,.545-.182,.683-.241,.139-.545,.057-.683-.182-.312-.54-.894-.875-1.516-.875h-2.8c-.896,0-1.626,.729-1.626,1.626,0,.803,.575,1.478,1.368,1.605l3.422,.55c1.28,.206,2.209,1.296,2.209,2.593Z"/></svg>
