<?xml version="1.0" encoding="UTF-8"?>
<svg xmlns="http://www.w3.org/2000/svg" id="Layer_1" data-name="Layer 1" viewBox="0 0 24 24" width="512" height="512"><path d="M3,1c0,.552-.448,1-1,1s-1-.448-1-1,.448-1,1-1,1,.448,1,1Zm7,1c.552,0,1-.448,1-1s-.448-1-1-1-1,.448-1,1,.448,1,1,1Zm4,0c.552,0,1-.448,1-1s-.448-1-1-1-1,.448-1,1,.448,1,1,1Zm4.848,7.641c.198,.192,.204,.508,.012,.707-.098,.101-.229,.152-.359,.152-.125,0-.25-.047-.348-.141l-5.086-4.914c-.163-.163-.358-.278-.566-.349V23.577c0,.276-.224,.5-.5,.5s-.5-.224-.5-.5V5.095c-.208,.07-.401,.184-.561,.344l-5.092,4.92c-.198,.193-.515,.187-.707-.012-.192-.199-.187-.515,.012-.707l5.086-4.914c.932-.933,2.586-.938,3.529,.006l5.08,4.908ZM6,2c.552,0,1-.448,1-1s-.448-1-1-1-1,.448-1,1,.448,1,1,1ZM18,0c-.552,0-1,.448-1,1s.448,1,1,1,1-.448,1-1-.448-1-1-1Zm4,0c-.552,0-1,.448-1,1s.448,1,1,1,1-.448,1-1-.448-1-1-1Z"/></svg>
