<?xml version="1.0" encoding="UTF-8"?>
<svg xmlns="http://www.w3.org/2000/svg" id="Layer_1" data-name="Layer 1" viewBox="0 0 24 24" width="512" height="512"><path d="M23.984,11.69c-.146-1.455-1.573-2.683-3.116-2.683l-6.019,.006-1.082-5.014h2.233v1.5c0,.276,.224,.5,.5,.5s.5-.224,.5-.5V1.5c0-.276-.224-.5-.5-.5s-.5,.224-.5,.5v1.5h-2.449l-.28-1.296c-.213-.987-1.102-1.704-2.111-1.704-1.191,0-2.16,.969-2.16,2.16v.84h-1.5c-.276,0-.5,.224-.5,.5s.224,.5,.5,.5h1.5v5.021l-4.014,.004-1.428-2.156c-.361-.544-.965-.868-1.618-.868-1.07,0-1.94,.87-1.94,1.94v8.108c0,1.076,.875,1.951,1.951,1.951,.66,0,1.27-.329,1.631-.881l1.387-2.113,4.031-.004v4.998h-1.5c-.276,0-.5,.224-.5,.5s.224,.5,.5,.5h1.5v.84c0,1.191,.969,2.16,2.16,2.16,1.01,0,1.898-.717,2.112-1.704l.28-1.296h2.448v1.5c0,.276,.224,.5,.5,.5s.5-.224,.5-.5v-4c0-.276-.224-.5-.5-.5s-.5,.224-.5,.5v1.5h-2.232l1.081-5.004,6.16-.007c.843,0,1.652-.359,2.218-.985,.566-.625,.842-1.469,.757-2.313Zm-1.499,1.643c-.377,.417-.915,.656-1.477,.656l-6.563,.007c-.235,0-.438,.164-.488,.395l-1.663,7.694c-.115,.53-.592,.915-1.134,.915-.64,0-1.16-.521-1.16-1.16v-7.339c0-.133-.053-.26-.146-.354s-.221-.146-.354-.146h0l-4.801,.005c-.168,0-.325,.085-.417,.226l-1.536,2.339c-.176,.27-.473,.43-.794,.43-.524,0-.951-.427-.951-.951V7.94c0-.519,.422-.94,.94-.94,.316,0,.609,.157,.784,.421l1.576,2.38c.093,.14,.249,.224,.417,.224h0l4.783-.005c.276,0,.5-.224,.5-.5V2.16c0-.64,.521-1.16,1.16-1.16,.542,0,1.019,.385,1.134,.915l1.664,7.704c.05,.23,.253,.395,.489,.395h0l6.421-.006c1.035,0,2.025,.832,2.121,1.782,.058,.572-.121,1.121-.503,1.543Z"/></svg>
