<?xml version="1.0" encoding="UTF-8"?>
<svg xmlns="http://www.w3.org/2000/svg" id="Layer_1" data-name="Layer 1" viewBox="0 0 24 24" width="512" height="512"><path d="M6,9.5v8c0,.28,.22,.5,.5,.5H14.5c.28,0,.5,.22,.5,.5s-.22,.5-.5,.5H6.5c-.83,0-1.5-.67-1.5-1.5V9.5c0-.28,.22-.5,.5-.5s.5,.22,.5,.5Zm5,5c0-.28-.22-.5-.5-.5s-.5-.22-.5-.5-.22-.5-.5-.5-.5,.22-.5,.5c0,.83,.67,1.5,1.5,1.5,.28,0,.5-.22,.5-.5Zm7.44,7.47c-.14,.02-.29,.03-.44,.03H5.5c-1.93,0-3.5-1.57-3.5-3.5V5.5c0-.28-.22-.5-.5-.5s-.5,.22-.5,.5v13c0,2.48,2.02,4.5,4.5,4.5h12.5c.19,0,.38-.01,.56-.03,.27-.03,.47-.28,.44-.56-.03-.27-.29-.48-.56-.44Zm5.41,1.88c-.1,.1-.23,.15-.35,.15s-.26-.05-.35-.15L.15,.85C-.05,.66-.05,.34,.15,.15S.66-.05,.85,.15l1.84,1.84c.8-.64,1.78-.98,2.81-.98h13c2.48,0,4.5,2.02,4.5,4.5v13c0,1.02-.35,2.02-.98,2.81l1.84,1.84c.2,.2,.2,.51,0,.71ZM3.4,2.7l2.45,2.45c.2-.1,.42-.15,.65-.15h3c.2,0,.38,.12,.46,.31s.03,.4-.11,.54l-1.65,1.65,1.79,1.79,3.56-3.56c.47-.47,1.1-.73,1.77-.73h2.17c.83,0,1.5,.67,1.5,1.5v11c0,.14-.02,.27-.05,.4-.02,.08-.07,.16-.13,.22l2.48,2.48c.46-.61,.7-1.33,.7-2.1V5.5c0-1.93-1.57-3.5-3.5-3.5H5.5c-.76,0-1.49,.25-2.1,.7Zm14.6,14.6V6.5c0-.28-.22-.5-.5-.5h-2.17c-.39,0-.78,.16-1.06,.44l-3.56,3.56,3.29,3.29v-2.79c0-.28,.22-.5,.5-.5s.5,.22,.5,.5v3c0,.23-.05,.45-.15,.65l3.15,3.15ZM7.5,6.79l.79-.79h-1.59l.79,.79Z"/></svg>
