<?xml version="1.0" encoding="UTF-8"?>
<svg xmlns="http://www.w3.org/2000/svg" id="Layer_1" data-name="Layer 1" viewBox="0 0 24 24">
  <path d="m13.74,12.815c-.425-.518-1.053-.815-1.723-.816h-.002c-.669,0-1.297.297-1.723.813l-6.467,7.856c-.353.431-.424,1.011-.186,1.515s.733.816,1.29.816h14.142c.558,0,1.052-.313,1.29-.817s.167-1.084-.187-1.515l-6.435-7.853Zm5.717,8.94c-.027.057-.135.244-.386.244H4.929c-.251,0-.359-.188-.386-.244-.035-.073-.099-.265.055-.453l6.466-7.854c.235-.285.582-.449.951-.449h.001c.37,0,.716.165.951.451l6.435,7.853c.159.193.083.396.056.453Zm4.543-16.256v9c0,1.844-1.104,3.481-2.813,4.173-.062.024-.125.036-.187.036-.197,0-.385-.118-.464-.312-.104-.256.021-.548.276-.651,1.329-.537,2.188-1.811,2.188-3.245V5.5c0-1.93-1.57-3.5-3.5-3.5H4.5c-1.93,0-3.5,1.57-3.5,3.5v9c0,1.435.858,2.708,2.188,3.245.256.104.379.396.276.651s-.393.378-.651.276c-1.708-.691-2.812-2.329-2.812-4.173V5.5C0,3.019,2.019,1,4.5,1h15c2.481,0,4.5,2.019,4.5,4.5Z"/>
</svg>
