<?xml version="1.0" encoding="UTF-8"?>
<svg xmlns="http://www.w3.org/2000/svg" id="Layer_1" data-name="Layer 1" viewBox="0 0 24 24" width="512" height="512"><path d="M19.5,19h-.665c-.542-1.333-2.662-6.795-2.825-11h1.49c.276,0,.5-.224,.5-.5s-.224-.5-.5-.5h-1.241l1.599-3.716c.293-.65,.116-1.387-.439-1.833-.558-.445-1.316-.457-1.82-.07l-1.259,.677-1.194-1.575c-.607-.621-1.643-.669-2.332,.048l-1.155,1.527-1.193-.637c-.57-.426-1.327-.414-1.884,.03-.556,.446-.732,1.183-.442,1.824l1.602,3.725h-1.241c-.276,0-.5,.224-.5,.5s.224,.5,.5,.5h1.49c-.163,4.205-2.283,9.667-2.825,11h-.665c-1.379,0-2.5,1.121-2.5,2.5s1.121,2.5,2.5,2.5h15c1.379,0,2.5-1.121,2.5-2.5s-1.121-2.5-2.5-2.5ZM7.054,2.872c-.159-.353,.077-.579,.153-.641,.075-.061,.349-.241,.722,.03l1.635,.879c.214,.115,.486,.059,.635-.139l1.371-1.82c.229-.234,.674-.187,.82-.048l1.412,1.868c.148,.197,.422,.254,.635,.139l1.698-.919c.308-.233,.582-.052,.658,.01s.312,.288,.15,.649l-1.772,4.119h-6.342l-1.775-4.128Zm1.937,5.128h6.018c.146,4.095,2.015,9.163,2.745,11H6.245c.73-1.837,2.599-6.905,2.745-11Zm10.509,15H4.5c-.827,0-1.5-.673-1.5-1.5s.673-1.5,1.5-1.5h15c.827,0,1.5,.673,1.5,1.5s-.673,1.5-1.5,1.5Z"/></svg>
