<?xml version="1.0" encoding="UTF-8"?>
<svg xmlns="http://www.w3.org/2000/svg" id="Layer_1" data-name="Layer 1" viewBox="0 0 24 24" width="512" height="512"><path d="M12,0C5.383,0,0,5.383,0,12s5.383,12,12,12,12-5.383,12-12S18.617,0,12,0Zm0,23c-6.065,0-11-4.935-11-11S5.935,1,12,1s11,4.935,11,11-4.935,11-11,11Zm-3-12c0,.552-.448,1-1,1s-1-.448-1-1,.448-1,1-1,1,.448,1,1Zm8,0c0,.552-.448,1-1,1s-1-.448-1-1,.448-1,1-1,1,.448,1,1Zm-5,3c-1.654,0-3,1.346-3,3s1.346,3,3,3,3-1.346,3-3-1.346-3-3-3Zm0,5c-1.103,0-2-.897-2-2s.897-2,2-2,2,.897,2,2-.897,2-2,2Zm7.791-10.093c-.089,.062-.19,.093-.291,.093-.155,0-.31-.073-.407-.209-.471-.659-1.776-2.253-3.73-2.811-.265-.075-.419-.353-.343-.618,.075-.265,.347-.425,.618-.343,2.257,.644,3.737,2.445,4.27,3.189,.16,.226,.108,.537-.116,.698Zm-11.153-2.927c-1.954,.558-3.26,2.151-3.73,2.811-.098,.136-.252,.209-.407,.209-.101,0-.202-.03-.291-.093-.225-.161-.276-.473-.116-.698,.532-.744,2.013-2.546,4.27-3.189,.267-.081,.543,.079,.618,.343,.076,.266-.078,.543-.343,.618Z"/></svg>
