<?xml version="1.0" encoding="UTF-8"?>
<svg xmlns="http://www.w3.org/2000/svg" id="Layer_1" data-name="Layer 1" viewBox="0 0 24 24" width="512" height="512"><path d="M5.5,5c1.38,0,2.5-1.12,2.5-2.5S6.88,0,5.5,0,3,1.12,3,2.5s1.12,2.5,2.5,2.5Zm0-4c.83,0,1.5,.67,1.5,1.5s-.67,1.5-1.5,1.5-1.5-.67-1.5-1.5,.67-1.5,1.5-1.5Zm1,5h-2c-1.93,0-3.5,1.57-3.5,3.5v4c0,1.39,.82,2.6,2,3.16v6.84c0,.28,.22,.5,.5,.5s.5-.22,.5-.5v-6.54c.16,.02,.33,.04,.5,.04h2c.17,0,.34-.01,.5-.04v6.54c0,.28,.22,.5,.5,.5s.5-.22,.5-.5v-6.84c1.18-.56,2-1.77,2-3.16v-4c0-1.93-1.57-3.5-3.5-3.5Zm2.5,7.5c0,1.38-1.12,2.5-2.5,2.5h-2c-1.38,0-2.5-1.12-2.5-2.5v-4c0-1.38,1.12-2.5,2.5-2.5h2c1.38,0,2.5,1.12,2.5,2.5v4ZM18.5,5c1.38,0,2.5-1.12,2.5-2.5s-1.12-2.5-2.5-2.5-2.5,1.12-2.5,2.5,1.12,2.5,2.5,2.5Zm0-4c.83,0,1.5,.67,1.5,1.5s-.67,1.5-1.5,1.5-1.5-.67-1.5-1.5,.67-1.5,1.5-1.5Zm1,5h-2c-1.93,0-3.5,1.57-3.5,3.5v4c0,1.39,.82,2.6,2,3.16v6.84c0,.28,.22,.5,.5,.5s.5-.22,.5-.5v-6.54c.16,.02,.33,.04,.5,.04h2c.17,0,.34-.01,.5-.04v6.54c0,.28,.22,.5,.5,.5s.5-.22,.5-.5v-6.84c1.18-.56,2-1.77,2-3.16v-4c0-1.93-1.57-3.5-3.5-3.5Zm2.5,7.5c0,1.38-1.12,2.5-2.5,2.5h-2c-1.38,0-2.5-1.12-2.5-2.5v-4c0-1.38,1.12-2.5,2.5-2.5h2c1.38,0,2.5,1.12,2.5,2.5v4Z"/></svg>
