<?xml version="1.0" encoding="UTF-8"?>
<svg xmlns="http://www.w3.org/2000/svg" id="Layer_1" data-name="Layer 1" viewBox="0 0 24 24" width="512" height="512"><path d="M12,24c-1.358,0-2.641-.521-3.612-1.467l-4.151-3.818c-2.093-2.083-3.237-4.834-3.237-7.761s1.144-5.678,3.222-7.747C6.3,1.139,9.062,0,12,0s5.7,1.139,7.777,3.208c2.078,2.069,3.223,4.821,3.223,7.747s-1.145,5.678-3.223,7.747l-4.176,3.842c-.96,.936-2.243,1.457-3.602,1.457Zm0-23c-2.672,0-5.183,1.036-7.072,2.917-1.889,1.88-2.928,4.379-2.928,7.038s1.04,5.158,2.928,7.038l4.147,3.814c1.587,1.546,4.273,1.536,5.838,.01l4.172-3.838c1.874-1.866,2.914-4.366,2.914-7.024s-1.04-5.158-2.929-7.038c-1.889-1.881-4.4-2.917-7.071-2.917Zm.5,14v-1.167c0-.893,.601-1.872,1.428-2.328,1.5-.827,2.307-2.525,2.009-4.226-.283-1.611-1.605-2.934-3.216-3.216-1.185-.207-2.384,.11-3.292,.873-.908,.763-1.429,1.88-1.429,3.064,0,.276,.224,.5,.5,.5s.5-.224,.5-.5c0-.889,.391-1.727,1.072-2.298,.691-.581,1.571-.812,2.476-.653,1.204,.211,2.193,1.2,2.404,2.404,.229,1.3-.363,2.547-1.506,3.177-1.146,.632-1.946,1.949-1.946,3.204v1.167c0,.276,.224,.5,.5,.5s.5-.224,.5-.5Zm.5,3h0c0-.552-.448-1-1-1h0c-.552,0-1,.448-1,1h0c0,.552,.448,1,1,1h0c.552,0,1-.448,1-1Z"/></svg>
