<?xml version="1.0" encoding="UTF-8"?>
<svg xmlns="http://www.w3.org/2000/svg" id="Layer_1" data-name="Layer 1" viewBox="0 0 24 24">
  <path d="m.948,5.533c-.611-.611-.948-1.426-.948-2.292S.337,1.56.948.949c1.219-1.225,3.36-1.226,4.585,0l5.118,5.118c.195.195.195.512,0,.707s-.512.195-.707,0L4.826,1.655c-.848-.847-2.327-.845-3.17,0-.423.423-.656.985-.656,1.586s.232,1.162.655,1.585l5.118,5.119c.195.195.195.512,0,.707-.098.098-.226.146-.354.146s-.256-.049-.354-.146L.948,5.533Zm21.44,12.271l-4.436-4.436c-.195-.195-.512-.195-.707,0s-.195.512,0,.707l4.436,4.436c.851.851,1.318,1.98,1.318,3.183v1.307h-1.308c-1.202,0-2.332-.468-3.182-1.318l-4.436-4.436c-.195-.195-.512-.195-.707,0s-.195.512,0,.707l4.436,4.436c1.038,1.039,2.419,1.611,3.889,1.611h1.808c.276,0,.5-.224.5-.5v-1.807c0-1.47-.572-2.851-1.611-3.89Zm-11.417-.294c.146,1.447-.335,2.946-1.441,4.052-1.274,1.274-5.01,2.146-7.209,2.422-.088.011-.175.017-.262.017-.544,0-1.062-.214-1.455-.605-.454-.454-.669-1.08-.589-1.717.275-2.199,1.147-5.935,2.422-7.209,1.106-1.106,2.605-1.586,4.052-1.441L18.59.929c1.236-1.236,3.246-1.236,4.482,0s1.235,3.245,0,4.481l-12.1,12.099Zm-3.324-4.225c.688.241,1.334.635,1.883,1.184.549.549.944,1.195,1.184,1.883l11.65-11.649c.845-.846.846-2.222,0-3.067s-2.223-.846-3.068,0L7.648,13.285Zm1.176,1.891c-.783-.782-1.812-1.174-2.84-1.174s-2.057.392-2.839,1.174c-1.03,1.03-1.87,4.495-2.137,6.627-.041.328.069.65.304.885.233.234.551.348.885.304,2.132-.267,5.597-1.106,6.627-2.137,1.565-1.565,1.564-4.112,0-5.679Z"/>
</svg>
