<?xml version="1.0" encoding="UTF-8"?>
<svg xmlns="http://www.w3.org/2000/svg" id="Layer_1" data-name="Layer 1" viewBox="0 0 24 24" width="512" height="512"><path d="m4.5,4h-2c-1.378,0-2.5,1.122-2.5,2.5v2c0,.827.673,1.5,1.5,1.5h3c.827,0,1.5-.673,1.5-1.5v-3c0-.827-.673-1.5-1.5-1.5Zm.5,4.5c0,.276-.224.5-.5.5H1.5c-.276,0-.5-.224-.5-.5v-2c0-.827.673-1.5,1.5-1.5h2c.276,0,.5.224.5.5v3Zm8.5-4.5h-3c-.827,0-1.5.673-1.5,1.5v3c0,.827.673,1.5,1.5,1.5h3c.827,0,1.5-.673,1.5-1.5v-3c0-.827-.673-1.5-1.5-1.5Zm.5,4.5c0,.276-.224.5-.5.5h-3c-.276,0-.5-.224-.5-.5v-3c0-.276.224-.5.5-.5h3c.276,0,.5.224.5.5v3Zm7.5-4.5h-2c-.827,0-1.5.673-1.5,1.5v3c0,.827.673,1.5,1.5,1.5h3c.827,0,1.5-.673,1.5-1.5v-2c0-1.378-1.122-2.5-2.5-2.5Zm1.5,4.5c0,.276-.224.5-.5.5h-3c-.276,0-.5-.224-.5-.5v-3c0-.276.224-.5.5-.5h2c.827,0,1.5.673,1.5,1.5v2ZM4.5,14H1.5c-.827,0-1.5.673-1.5,1.5v2c0,1.378,1.122,2.5,2.5,2.5h2c.827,0,1.5-.673,1.5-1.5v-3c0-.827-.673-1.5-1.5-1.5Zm.5,4.5c0,.276-.224.5-.5.5h-2c-.827,0-1.5-.673-1.5-1.5v-2c0-.276.224-.5.5-.5h3c.276,0,.5.224.5.5v3Zm8.5-4.5h-3c-.827,0-1.5.673-1.5,1.5v3c0,.827.673,1.5,1.5,1.5h3c.827,0,1.5-.673,1.5-1.5v-3c0-.827-.673-1.5-1.5-1.5Zm.5,4.5c0,.276-.224.5-.5.5h-3c-.276,0-.5-.224-.5-.5v-3c0-.276.224-.5.5-.5h3c.276,0,.5.224.5.5v3Zm8.5-4.5h-3c-.827,0-1.5.673-1.5,1.5v3c0,.827.673,1.5,1.5,1.5h2c1.378,0,2.5-1.122,2.5-2.5v-2c0-.827-.673-1.5-1.5-1.5Zm.5,3.5c0,.827-.673,1.5-1.5,1.5h-2c-.276,0-.5-.224-.5-.5v-3c0-.276.224-.5.5-.5h3c.276,0,.5.224.5.5v2Z"/></svg>
