<?xml version="1.0" encoding="UTF-8"?>
<svg xmlns="http://www.w3.org/2000/svg" id="Layer_1" data-name="Layer 1" viewBox="0 0 24 24" width="512" height="512"><path d="M17,10.257v-1.757c0-1.379-1.122-2.5-2.5-2.5h-.102l-.766-4.596c-.135-.813-.833-1.404-1.658-1.404s-1.522,.591-1.657,1.404l-.766,4.596h-.051c-1.378,0-2.5,1.121-2.5,2.5v1.757c-1.746,.619-3,2.287-3,4.243v5c0,2.481,2.019,4.5,4.5,4.5h7c2.481,0,4.5-2.019,4.5-4.5v-5c0-1.956-1.254-3.624-3-4.243ZM11.303,1.568c.055-.329,.337-.568,.671-.568s.617,.239,.671,.568l.738,4.432h-2.82l.739-4.432Zm-3.303,6.932c0-.827,.673-1.5,1.5-1.5h5c.827,0,1.5,.673,1.5,1.5v1.528c-.164-.018-.331-.028-.5-.028h-7c-.169,0-.336,.01-.5,.028v-1.528Zm11,11c0,1.93-1.57,3.5-3.5,3.5h-7c-1.93,0-3.5-1.57-3.5-3.5v-5c0-1.93,1.57-3.5,3.5-3.5h7c1.93,0,3.5,1.57,3.5,3.5v5Zm-3.526-4.5h-7c-.276,0-.5,.224-.5,.5v4c0,.276,.224,.5,.5,.5h7c.276,0,.5-.224,.5-.5v-4c0-.276-.224-.5-.5-.5Zm-.5,4h-6v-3h6v3Z"/></svg>
