<?xml version="1.0" encoding="UTF-8"?>
<svg xmlns="http://www.w3.org/2000/svg" id="Layer_1" data-name="Layer 1" viewBox="0 0 24 24" width="512" height="512"><path d="M16.5,10h4c1.38,0,2.5-1.12,2.5-2.5V3.5c0-1.38-1.12-2.5-2.5-2.5h-4c-1.38,0-2.5,1.12-2.5,2.5V7.5c0,1.38,1.12,2.5,2.5,2.5Zm-1.5-6.5c0-.83,.67-1.5,1.5-1.5h4c.83,0,1.5,.67,1.5,1.5V7.5c0,.83-.67,1.5-1.5,1.5h-4c-.83,0-1.5-.67-1.5-1.5V3.5Zm-4.14,15.66c.19,.2,.18,.52-.02,.71l-3.59,3.41c-.46,.46-1.09,.72-1.76,.72s-1.3-.26-1.77-.73L.16,19.86c-.2-.19-.21-.51-.02-.71,.19-.2,.51-.21,.71-.02l3.59,3.41c.16,.16,.36,.28,.57,.35V.5c0-.28,.22-.5,.5-.5s.5,.22,.5,.5V22.91c.21-.07,.4-.19,.56-.35l3.59-3.42c.2-.19,.52-.18,.71,.02Zm12.46,.92l-3.09-5.04c-.35-.64-1-1.03-1.73-1.03s-1.38,.38-1.72,1.01l-3.12,5.09c-.33,.62-.32,1.34,.04,1.94s.99,.96,1.69,.96h6.21c.7,0,1.33-.36,1.69-.96s.37-1.33,.03-1.97Zm-.89,1.46c-.18,.3-.49,.47-.83,.47h-6.21c-.34,0-.65-.18-.83-.47-.18-.3-.18-.65-.03-.93l3.12-5.09c.17-.32,.49-.51,.85-.51s.68,.19,.86,.53l3.09,5.04c.16,.3,.16,.66-.02,.96Z"/></svg>
