<?xml version="1.0" encoding="UTF-8"?>
<svg xmlns="http://www.w3.org/2000/svg" id="Layer_1" data-name="Layer 1" viewBox="0 0 24 24" width="512" height="512"><path d="M19.5,22h-4.721c-2.138,0-3.993-1.521-4.413-3.617l-1.276-6.383H2.607C1.333,12,.228,11.104,.034,9.917c-.119-.734,.085-1.476,.562-2.036s1.17-.881,1.905-.881H11.002L15.048,2.927c.593-.596,1.382-.925,2.223-.927,.841,.039,1.63,.325,2.225,.919l2.308,2.308c1.417,1.416,2.197,3.299,2.197,5.303v6.969c0,2.481-2.019,4.5-4.5,4.5ZM2.5,8c-.44,0-.857,.193-1.143,.529-.29,.341-.409,.776-.336,1.227,.115,.709,.797,1.244,1.586,1.244h6.893c.238,0,.443,.168,.49,.402l1.357,6.785c.326,1.63,1.77,2.813,3.432,2.813h4.721c1.93,0,3.5-1.57,3.5-3.5v-6.969c0-1.737-.676-3.369-1.904-4.596l-2.308-2.308c-.405-.405-.935-.603-1.516-.626-.573,0-1.111,.225-1.515,.632l-3.346,3.368h5.088c.276,0,.5,.224,.5,.5s-.224,.5-.5,.5H2.5Z"/></svg>
