<?xml version="1.0" encoding="UTF-8"?>
<svg xmlns="http://www.w3.org/2000/svg" id="Layer_1" data-name="Layer 1" viewBox="0 0 24 24" width="512" height="512"><path d="M10,8.5v10c0,.28-.22,.5-.5,.5s-.5-.22-.5-.5V8.5c0-.28,.22-.5,.5-.5s.5,.22,.5,.5Zm-4.5,2.5c-.28,0-.5,.22-.5,.5v7c0,.28,.22,.5,.5,.5s.5-.22,.5-.5v-7c0-.28-.22-.5-.5-.5ZM24,4.5v15c0,2.48-2.02,4.5-4.5,4.5H4.5c-2.48,0-4.5-2.02-4.5-4.5V4.5C0,2.02,2.02,0,4.5,0h15c2.48,0,4.5,2.02,4.5,4.5Zm-1,0c0-1.93-1.57-3.5-3.5-3.5H4.5c-1.93,0-3.5,1.57-3.5,3.5v15c0,1.93,1.57,3.5,3.5,3.5h15c1.93,0,3.5-1.57,3.5-3.5V4.5Zm-9.5,.5c-.28,0-.5,.22-.5,.5v13c0,.28,.22,.5,.5,.5s.5-.22,.5-.5V5.5c0-.28-.22-.5-.5-.5Zm4,10c-.28,0-.5,.22-.5,.5v3c0,.28,.22,.5,.5,.5s.5-.22,.5-.5v-3c0-.28-.22-.5-.5-.5Z"/></svg>
