<?xml version="1.0" encoding="UTF-8"?>
<svg xmlns="http://www.w3.org/2000/svg" id="Layer_1" data-name="Layer 1" viewBox="0 0 24 24" width="512" height="512"><path d="m11.5,23H3.5c-1.378,0-2.5-1.121-2.5-2.5s1.122-2.5,2.5-2.5h5c.276,0,.5-.224.5-.5s-.224-.5-.5-.5h-3.5V1h10.5c1.93,0,3.5,1.57,3.5,3.5v4c0,.276.224.5.5.5s.5-.224.5-.5v-4c0-2.481-2.019-4.5-4.5-4.5H4.5C2.019,0,0,2.019,0,4.5v16c0,1.93,1.57,3.5,3.5,3.5h8c.276,0,.5-.224.5-.5s-.224-.5-.5-.5ZM1,4.5c0-1.76,1.306-3.221,3-3.464v15.964h-.5c-.978,0-1.864.404-2.5,1.053V4.5Zm16.5,6.5c-3.584,0-6.5,2.916-6.5,6.5s2.916,6.5,6.5,6.5,6.5-2.916,6.5-6.5-2.916-6.5-6.5-6.5Zm0,12c-3.033,0-5.5-2.468-5.5-5.5s2.467-5.5,5.5-5.5,5.5,2.468,5.5,5.5-2.467,5.5-5.5,5.5Zm.991-9.089c-.267-.266-.622-.412-1-.412h-.005c-.377.002-.731.148-.997.415l-1.854,1.831c-.273.318-.334.754-.158,1.136s.546.619.966.619h1.558v3c0,.276.224.5.5.5s.5-.224.5-.5v-3h1.551c.421,0,.792-.238.967-.621.175-.383.113-.818-.19-1.167l-1.837-1.801Zm1.061,2.589h-4.109l-.077-.073,1.828-1.802s.002-.003.004-.004c.077-.078.181-.121.292-.122h0c.112,0,.216.043.297.124l1.838,1.802-.075.075Z"/></svg>
