<?xml version="1.0" encoding="UTF-8"?>
<svg xmlns="http://www.w3.org/2000/svg" id="Layer_1" data-name="Layer 1" viewBox="0 0 24 24" width="512" height="512"><path d="m21,18c-.557,0-1.078.153-1.526.418l-3.436-4.219c.591-.548.962-1.331.962-2.199s-.372-1.654-.966-2.203l3.408-4.234c.454.277.987.437,1.557.437,1.654,0,3-1.346,3-3s-1.346-3-3-3c-1.304,0-2.415.836-2.828,2H5.828c-.413-1.164-1.524-2-2.828-2C1.346,0,0,1.346,0,3c0,1.304.836,2.415,2,2.828v12.344c-1.164.413-2,1.524-2,2.828,0,1.654,1.346,3,3,3,1.304,0,2.415-.836,2.828-2h12.344c.413,1.164,1.524,2,2.828,2,1.654,0,3-1.346,3-3s-1.346-3-3-3Zm-5-6c0,1.103-.897,2-2,2s-2-.897-2-2,.897-2,2-2,2,.897,2,2ZM21,1c1.103,0,2,.897,2,2s-.897,2-2,2-2-.897-2-2,.897-2,2-2ZM1,3c0-1.103.897-2,2-2s2,.897,2,2-.897,2-2,2-2-.897-2-2Zm2,20c-1.103,0-2-.897-2-2s.897-2,2-2,2,.897,2,2-.897,2-2,2Zm3-2c0-1.654-1.346-3-3-3V6c1.654,0,3-1.346,3-3h12c0,.724.258,1.389.686,1.908l-3.494,4.34c-.366-.159-.769-.248-1.193-.248-1.654,0-3,1.346-3,3s1.346,3,3,3c.425,0,.83-.089,1.197-.25l3.514,4.314c-.443.523-.71,1.198-.71,1.935H6Zm15,2c-1.103,0-2-.897-2-2s.897-2,2-2,2,.897,2,2-.897,2-2,2Z"/></svg>
