<?xml version="1.0" encoding="UTF-8"?>
<svg xmlns="http://www.w3.org/2000/svg" id="Layer_1" data-name="Layer 1" viewBox="0 0 24 24" width="512" height="512"><path d="m23.5,23h-.654l-5.728-15.187c-.174-.434-.155-.923.028-1.295l2.59-4.047c.29-.581.229-1.264-.159-1.784-.389-.521-1.029-.775-1.694-.654l-3.398.812c-3.036.535-5.534,2.562-6.685,5.425L1.16,23h-.66c-.276,0-.5.224-.5.5s.224.5.5.5h23c.276,0,.5-.224.5-.5s-.224-.5-.5-.5ZM8.73,6.641c1.02-2.538,3.236-4.336,5.959-4.817l3.398-.812c.269-.047.526.055.689.274.163.218.188.495.092.692l-2.59,4.047c-.337.674-.369,1.462-.092,2.151l5.591,14.824H2.237L8.73,6.641Zm8.956,10.895l-2.301-.92-.92-2.301c-.152-.38-.776-.38-.929,0l-.918,2.296-2.294.868c-.191.073-.319.254-.323.458s.117.391.306.47l2.308.972.922,2.306c.076.19.26.314.464.314s.388-.125.464-.314l.92-2.301,2.301-.92c.19-.076.314-.26.314-.464s-.125-.388-.314-.464Zm-2.871,1c-.127.051-.228.151-.279.279l-.536,1.339-.536-1.339c-.05-.124-.147-.223-.27-.275l-1.348-.568,1.33-.503c.131-.05.235-.152.288-.282l.536-1.339.536,1.339c.051.127.151.228.279.279l1.339.536-1.339.536Zm-4.333-4.536c.229,0,.43-.156.485-.379l.323-1.293,1.294-.324c.222-.056.378-.255.378-.485s-.156-.43-.379-.485l-1.294-.323-.323-1.294c-.055-.223-.255-.379-.485-.379s-.429.156-.485.378l-.319,1.274c-.444.111-1.292.312-1.292.312-.223.053-.381.25-.385.479-.003.229.149.431.37.49l1.301.35.325,1.3c.056.222.255.378.485.378Z"/></svg>
