<?xml version="1.0" encoding="UTF-8"?>
<svg xmlns="http://www.w3.org/2000/svg" id="Layer_1" data-name="Layer 1" viewBox="0 0 24 24" width="512" height="512"><path d="m11.5,6.5V.5c0-.276.224-.5.5-.5s.5.224.5.5v6c0,.276-.224.5-.5.5s-.5-.224-.5-.5Zm-5.129,15.914l-1.642.438c-.294.098-.596.148-.897.148h-.004c-.741,0-1.47-.304-2.001-.834-.533-.532-.827-1.243-.827-2.001,0-1.437.164-2.874.479-4.239l2.096-7.007c.532-2.307,2.558-3.918,4.926-3.918.276,0,.5-.224.5-.5s-.224-.5-.5-.5c-2.837,0-5.264,1.93-5.893,4.663L.512,15.669c-.34,1.47-.512,2.982-.512,4.495,0,1.026.397,1.988,1.12,2.709.718.716,1.704,1.127,2.707,1.127h.007c.408,0,.815-.068,1.183-.19l1.612-.429c.267-.071.426-.345.354-.612s-.343-.424-.612-.355Zm17.108-6.775l-2.079-6.944c-.637-2.764-3.063-4.694-5.9-4.694-.276,0-.5.224-.5.5s.224.5.5.5c2.368,0,4.394,1.611,4.934,3.95l2.08,6.945c.322,1.396.486,2.833.486,4.27,0,.758-.294,1.469-.827,2.001-.531.53-1.26.834-2.001.834h-.004c-.302,0-.604-.05-.927-.157l-1.612-.429c-.271-.069-.542.088-.612.355-.071.267.088.541.354.612l1.583.42c.396.131.804.199,1.212.199h.006c1.004,0,1.99-.411,2.708-1.127.723-.721,1.12-1.683,1.12-2.709,0-1.513-.172-3.025-.521-4.526Zm-6.979,5.362c-.827,0-1.5-.673-1.5-1.5,0-.231.057-.447.15-.643l-.711-.71c-.552.429-1.213.711-1.94.803v1.551c0,.276-.224.5-.5.5s-.5-.224-.5-.5v-1.551c-.727-.092-1.388-.374-1.94-.803l-.71.71c.094.196.15.412.15.643,0,.827-.673,1.5-1.5,1.5s-1.5-.673-1.5-1.5.673-1.5,1.5-1.5c.231,0,.447.057.643.15l.711-.711c-.429-.552-.711-1.213-.803-1.94h-1.551c-.276,0-.5-.224-.5-.5s.224-.5.5-.5h1.551c.092-.727.374-1.388.803-1.94l-.711-.711c-.196.094-.412.15-.643.15-.827,0-1.5-.673-1.5-1.5s.673-1.5,1.5-1.5,1.5.673,1.5,1.5c0,.231-.057.447-.15.643l.71.71c.552-.429,1.213-.711,1.94-.803v-1.551c0-.276.224-.5.5-.5s.5.224.5.5v1.551c.727.092,1.388.374,1.94.803l.71-.71c-.094-.196-.15-.412-.15-.643,0-.827.673-1.5,1.5-1.5s1.5.673,1.5,1.5-.673,1.5-1.5,1.5c-.231,0-.447-.057-.643-.15l-.711.711c.429.552.711,1.213.803,1.94h1.551c.276,0,.5.224.5.5s-.224.5-.5.5h-1.551c-.092.727-.374,1.388-.803,1.94l.711.71c.195-.094.412-.15.642-.15.827,0,1.5.673,1.5,1.5s-.673,1.5-1.5,1.5Zm-2.379-3.881c.543-.543.879-1.293.879-2.119,0-1.654-1.346-3-3-3s-3,1.346-3,3,1.346,3,3,3c.827,0,1.576-.336,2.119-.879,0,0,0,0,0,0s0,0,0,0Zm1.879-6.619c0,.276.225.5.5.5s.5-.224.5-.5-.225-.5-.5-.5-.5.224-.5.5Zm-8.5.5c.275,0,.5-.224.5-.5s-.225-.5-.5-.5-.5.224-.5.5.225.5.5.5Zm.5,8.5c0-.276-.225-.5-.5-.5s-.5.224-.5.5.225.5.5.5.5-.224.5-.5Zm9,0c0-.276-.225-.5-.5-.5s-.5.224-.5.5.225.5.5.5.5-.224.5-.5Z"/></svg>
