<?xml version="1.0" encoding="UTF-8"?>
<svg xmlns="http://www.w3.org/2000/svg" id="Layer_1" data-name="Layer 1" viewBox="0 0 24 24" width="512" height="512"><path d="m19.5,0H4.5C2.019,0,0,2.019,0,4.5v15c0,2.481,2.019,4.5,4.5,4.5h15c2.481,0,4.5-2.019,4.5-4.5V4.5c0-2.481-2.019-4.5-4.5-4.5Zm3.5,19.5c0,1.93-1.57,3.5-3.5,3.5H4.5c-1.93,0-3.5-1.57-3.5-3.5V4.5c0-1.93,1.57-3.5,3.5-3.5h15c1.93,0,3.5,1.57,3.5,3.5v15Zm-3-13.986v13.986c0,.276-.224.5-.5.5s-.5-.224-.5-.5V5.514c0-.256-.107-.432-.303-.493-.16-.051-.409-.023-.58.221l-5.688,9.515c-.181.301-.678.301-.858,0L5.863,5.212c-.151-.216-.402-.242-.56-.191-.195.062-.303.237-.303.493v13.986c0,.276-.224.5-.5.5s-.5-.224-.5-.5V5.514c0-.698.384-1.252,1.002-1.447.625-.196,1.31.044,1.7.602l5.298,8.857,5.279-8.828c.41-.587,1.092-.827,1.719-.631.618.195,1.002.749,1.002,1.447Z"/></svg>
