<?xml version="1.0" encoding="UTF-8"?>
<svg xmlns="http://www.w3.org/2000/svg" id="Layer_1" data-name="Layer 1" viewBox="0 0 24 24" width="512" height="512"><path d="M16.115,16.823l.003,.002,7.028,7.028c.098,.098,.226,.146,.354,.146s.256-.049,.354-.146c.195-.195,.195-.512,0-.707l-6.678-6.678,4.828-4.835c2.657-2.657,2.657-6.981,0-9.638C20.717,.709,19.006,0,17.186,0s-3.532,.709-4.819,1.996L7.531,6.824,.854,.146c-.195-.195-.512-.195-.707,0s-.195,.512,0,.707l15.967,15.967,.002,.003Zm.354-1.062l-3.763-3.763,3.147-3.146c.195-.195,.195-.512,0-.707s-.512-.195-.707,0l-3.147,3.146-3.761-3.761L13.073,2.704c1.099-1.099,2.559-1.704,4.112-1.704s3.013,.605,4.111,1.703c2.267,2.267,2.267,5.956,0,8.224l-4.828,4.835ZM5.184,9.168c.195-.194,.512-.195,.707,0,.195,.195,.195,.512,0,.707l-3.187,3.18c-2.267,2.267-2.267,5.956,0,8.223,1.102,1.101,2.563,1.712,4.114,1.721h.033c1.542,0,2.988-.598,4.076-1.685l3.197-3.205c.195-.196,.512-.195,.707,0,.195,.195,.195,.512,0,.707l-3.197,3.206c-1.276,1.277-2.974,1.979-4.783,1.979h-.038c-1.817-.01-3.528-.726-4.816-2.014-2.657-2.657-2.657-6.98,0-9.638l3.187-3.18Zm5.169,4.477c.195,.195,.195,.512,0,.708l-1.499,1.501c-.098,.098-.226,.146-.354,.146s-.256-.049-.354-.146c-.195-.195-.195-.512,0-.708l1.499-1.501c.195-.195,.512-.195,.707,0Z"/></svg>
