<?xml version="1.0" encoding="UTF-8"?>
<svg xmlns="http://www.w3.org/2000/svg" id="Layer_1" data-name="Layer 1" width="512" height="512" viewBox="0 0 24 24"><path d="M12,0C5.383,0,0,5.383,0,12s5.383,12,12,12,12-5.383,12-12S18.617,0,12,0Zm0,23c-6.065,0-11-4.935-11-11S5.935,1,12,1s11,4.935,11,11-4.935,11-11,11Zm0-10c-2.206,0-4,1.794-4,4s1.794,4,4,4,4-1.794,4-4-1.794-4-4-4Zm0,7c-1.654,0-3-1.346-3-3s1.346-3,3-3,3,1.346,3,3-1.346,3-3,3Zm6.854-13.146l-1.646,1.646,1.646,1.646c.195,.195,.195,.512,0,.707-.098,.098-.226,.146-.354,.146s-.256-.049-.354-.146l-1.646-1.646-1.646,1.646c-.098,.098-.226,.146-.354,.146s-.256-.049-.354-.146c-.195-.195-.195-.512,0-.707l1.646-1.646-1.646-1.646c-.195-.195-.195-.512,0-.707s.512-.195,.707,0l1.646,1.646,1.646-1.646c.195-.195,.512-.195,.707,0s.195,.512,0,.707Zm-9.707,4l-1.646-1.646-1.646,1.646c-.098,.098-.226,.146-.354,.146s-.256-.049-.354-.146c-.195-.195-.195-.512,0-.707l1.646-1.646-1.646-1.646c-.195-.195-.195-.512,0-.707s.512-.195,.707,0l1.646,1.646,1.646-1.646c.195-.195,.512-.195,.707,0s.195,.512,0,.707l-1.646,1.646,1.646,1.646c.195,.195,.195,.512,0,.707-.098,.098-.226,.146-.354,.146s-.256-.049-.354-.146Z"/></svg>
