<?xml version="1.0" encoding="UTF-8"?>
<svg xmlns="http://www.w3.org/2000/svg" id="Layer_1" data-name="Layer 1" viewBox="0 0 24 24" width="512" height="512"><path d="m24,2v4.5c0,.276-.224.5-.5.5s-.5-.224-.5-.5V2c0-.089-.012-.176-.034-.259l-7.112,7.112c-.098.098-.226.146-.354.146s-.256-.049-.354-.146c-.195-.195-.195-.512,0-.707l7.112-7.112c-.083-.022-.169-.034-.259-.034h-4.5c-.276,0-.5-.224-.5-.5s.224-.5.5-.5h4.5c1.103,0,2,.897,2,2Zm-.837,15.298c1.098,1.092,1.098,2.799.049,3.848l-.978,1.125c-1.121,1.124-2.608,1.729-4.211,1.729C10.275,24,0,13.725,0,5.976c0-1.603.605-3.089,1.704-4.187l1.176-1.024c.965-.97,2.764-.993,3.779.023l1.959,2.543c1.006,1,1.006,2.707-.043,3.756l-1.487,1.525c1.617,3.803,4.614,6.804,8.295,8.303l1.532-1.494c1.017-1.014,2.787-1.013,3.802.003l2.446,1.873Zm-.658.75l-2.446-1.873c-.736-.725-1.801-.682-2.439-.043,0,.002-1.771,1.727-1.771,1.727-.139.136-.343.18-.527.108-4.172-1.593-7.556-4.975-9.285-9.28-.074-.184-.032-.394.105-.536l1.722-1.766c.664-.664.664-1.736.005-2.396l-1.959-2.543c-.302-.299-.714-.452-1.133-.452-.436,0-.879.165-1.215.5l-1.176,1.025c-.885.885-1.386,2.121-1.386,3.456,0,7.16,9.864,17.024,17.023,17.024,1.335,0,2.571-.501,3.48-1.411l.978-1.125c.683-.685.683-1.757.023-2.416Z"/></svg>
