<?xml version="1.0" encoding="UTF-8"?>
<svg xmlns="http://www.w3.org/2000/svg" id="Layer_1" data-name="Layer 1" viewBox="0 0 24 24" width="512" height="512"><path d="M19.608,14.06L23.896,3.054c.22-.725,.088-1.489-.363-2.097s-1.144-.957-1.9-.957c-1.103,0-2.06,.705-2.387,1.756l-3.473,9.052c-.575,1.891-2.278,3.168-4.25,3.191-1.484-.357-2.748-1.604-3.242-3.225L4.827,1.774c-.322-1.061-1.284-1.774-2.393-1.774C1.677,0,.985,.349,.534,.957,.083,1.565-.05,2.33,.179,3.081L4.21,14.092C1.995,14.509,.234,16.3,.023,18.511c-.136,1.429,.317,2.797,1.276,3.852,.946,1.041,2.295,1.637,3.701,1.637h4.769c.55,0,1.086-.048,1.606-.142,.014,.004,.028,.007,.042,.009,.521,.088,1.054,.132,1.583,.132h6c1.405,0,2.754-.597,3.7-1.637,.959-1.055,1.412-2.423,1.276-3.853-.217-2.273-2.031-4.099-4.369-4.45ZM1.337,1.552c.26-.351,.66-.552,1.097-.552,.666,0,1.242,.428,1.447,1.098l3.455,9c.354,1.169,1.066,2.186,1.978,2.902H5.241L1.127,2.764c-.127-.418-.05-.86,.21-1.211Zm3.663,21.448c-1.125,0-2.204-.478-2.96-1.31-.768-.844-1.13-1.939-1.021-3.084,.193-2.021,2.027-3.605,4.175-3.605h6.274c2.439,0,4.554-1.568,5.251-3.868,0,0,3.475-9.056,3.479-9.068,.193-.636,.771-1.064,1.436-1.064,.437,0,.837,.202,1.097,.553,.261,.351,.337,.792,.223,1.174l-5.55,14.243c-1.129,3.72-4.054,6.03-7.633,6.03H5Zm16.96-1.31c-.757,.833-1.836,1.31-2.96,1.31h-5.138c2.091-1.112,3.695-3.101,4.484-5.704l.886-2.275c1.996,.197,3.568,1.698,3.747,3.583,.109,1.146-.253,2.241-1.021,3.085Z"/></svg>
