<?xml version="1.0" encoding="UTF-8"?>
<svg xmlns="http://www.w3.org/2000/svg" id="Layer_1" data-name="Layer 1" width="512" height="512" viewBox="0 0 24 24"><path d="M10.471,24c-.806,0-1.537-.375-2.006-1.029-.47-.654-.591-1.467-.333-2.23l2.042-5.741H5.388l-1.228,1.872c-.464,.707-1.246,1.128-2.091,1.128-.676,0-1.306-.328-1.689-.877-.385-.55-.477-1.254-.246-1.885l1.129-3.23L.067,8.875c-.158-.809,.032-1.564,.484-2.108,.411-.494,.982-.766,1.608-.766,.842,0,1.621,.418,2.085,1.12l1.245,1.88h4.684l-2.039-5.733c-.261-.771-.14-1.583,.33-2.237,.469-.654,1.2-1.029,2.006-1.029,1.037,0,1.99,.565,2.487,1.476l4.307,7.524h3.602c1.531,0,2.861,1.075,3.093,2.5h0c.144,.881-.102,1.771-.673,2.443s-1.404,1.057-2.286,1.057h-3.735l-4.312,7.533c-.492,.902-1.445,1.467-2.482,1.467ZM5.118,14h5.765c.162,0,.314,.079,.408,.212s.117,.303,.062,.456l-2.277,6.401c-.15,.447-.078,.93,.201,1.319s.714,.612,1.193,.612c.671,0,1.288-.366,1.61-.956l4.46-7.793c.089-.155,.254-.251,.434-.251h4.025c.588,0,1.144-.257,1.524-.705,.387-.455,.546-1.035,.448-1.634h0c-.154-.947-1.06-1.661-2.106-1.661h-3.892c-.18,0-.345-.096-.434-.251L12.086,1.964c-.327-.598-.944-.964-1.615-.964-.479,0-.914,.223-1.193,.612s-.352,.873-.198,1.327l2.274,6.394c.055,.153,.031,.323-.062,.456s-.246,.212-.408,.212H5.222c-.168,0-.324-.084-.417-.224l-1.394-2.104c-.457-.69-1.533-.935-2.091-.266-.265,.318-.375,.767-.295,1.2l1.236,3.216c.042,.11,.044,.232,.005,.343l-1.191,3.41c-.122,.335-.076,.688,.124,.975s.516,.451,.865,.451c.512,0,.981-.253,1.26-.677l1.376-2.097c.093-.141,.249-.226,.418-.226Z"/></svg>
