<?xml version="1.0" encoding="UTF-8"?>
<svg xmlns="http://www.w3.org/2000/svg" id="Layer_1" data-name="Layer 1" viewBox="0 0 24 24" width="512" height="512"><path d="M12,0C5.38,0,0,5.38,0,12s5.38,12,12,12,12-5.38,12-12S18.62,0,12,0Zm0,23c-6.07,0-11-4.93-11-11S5.93,1,12,1s11,4.93,11,11-4.93,11-11,11Zm0-15c1.1,0,2-.9,2-2s-.9-2-2-2-2,.9-2,2,.9,2,2,2Zm0-3c.55,0,1,.45,1,1s-.45,1-1,1-1-.45-1-1,.45-1,1-1Zm5.3,2.04l-4.4,1.96h-1.79l-4.4-1.96c-.25-.11-.55,0-.66,.25-.11,.25,0,.55,.25,.66l3.7,1.65v4.69l-1.95,3.98c-.12,.25-.02,.55,.23,.67,.07,.03,.15,.05,.22,.05,.18,0,.36-.1,.45-.28l1.82-3.72h2.46l1.82,3.72c.09,.18,.26,.28,.45,.28,.07,0,.15-.02,.22-.05,.25-.12,.35-.42,.23-.67l-1.95-3.98v-4.69l3.7-1.65c.25-.11,.37-.41,.25-.66-.11-.25-.41-.37-.66-.25Zm-4.3,2.96v4h-2v-4h2Z"/></svg>
