<?xml version="1.0" encoding="UTF-8"?>
<svg xmlns="http://www.w3.org/2000/svg" id="Layer_1" data-name="Layer 1" width="512" height="512" viewBox="0 0 24 24"><path d="M21.409,24c-1.239,0-2.434-.594-3.136-1.494-.703,.9-1.897,1.494-3.136,1.494s-2.434-.594-3.136-1.494c-.703,.9-1.897,1.494-3.136,1.494s-2.434-.594-3.137-1.494c-.703,.9-1.896,1.494-3.136,1.494-.893,0-1.751-.315-2.417-.888-.209-.18-.233-.496-.053-.705,.18-.209,.496-.232,.705-.053,.484,.416,1.111,.646,1.765,.646,1.167,0,2.313-.718,2.667-1.671,0-.003,.135-.329,.475-.329s.462,.322,.465,.33c.354,.952,1.5,1.67,2.667,1.67s2.312-.718,2.666-1.67c.002-.007,.149-.33,.471-.33s.46,.308,.46,.308h0l.008,.022c.354,.952,1.5,1.67,2.666,1.67s2.312-.718,2.666-1.67c.002-.006,.121-.33,.47-.33s.461,.308,.461,.308h0l.008,.022c.354,.952,1.5,1.67,2.666,1.67,.654,0,1.281-.229,1.766-.646,.209-.179,.525-.156,.705,.054,.18,.209,.156,.525-.054,.705-.666,.572-1.524,.887-2.417,.887Zm2.091-5c-.276,0-.5-.224-.5-.5V8.498c0-.5-.247-.964-.661-1.243L13.958,1.599c-1.188-.803-2.726-.803-3.915,0L1.661,7.254c-.414,.279-.661,.744-.661,1.243v10.002c0,.276-.224,.5-.5,.5s-.5-.224-.5-.5V8.498c0-.833,.412-1.607,1.102-2.072L9.483,.77c1.53-1.031,3.506-1.031,5.034,0l8.381,5.656c.689,.465,1.102,1.24,1.102,2.072v10.002c0,.276-.224,.5-.5,.5Zm-7,0c-.276,0-.5-.224-.5-.5v-1.5c0-2.206-1.794-4-4-4s-4,1.794-4,4v1.5c0,.276-.224,.5-.5,.5s-.5-.224-.5-.5v-1.5c0-2.757,2.243-5,5-5s5,2.243,5,5v1.5c0,.276-.224,.5-.5,.5Z"/></svg>
