<?xml version="1.0" encoding="UTF-8"?>
<svg xmlns="http://www.w3.org/2000/svg" id="Layer_1" data-name="Layer 1" viewBox="0 0 24 24" width="512" height="512"><path d="M19.5,4h-1.55C17.7,1.75,15.81,0,13.5,0H4.5C2.02,0,0,2.02,0,4.5v13.85c0,.61,.33,1.17,.87,1.45,.24,.13,.51,.2,.78,.2,.32,0,.64-.09,.91-.28l3.53-2.35c.41,2.06,2.23,3.62,4.41,3.62h6.85l4.09,2.73c.28,.18,.59,.28,.91,.28,.27,0,.53-.06,.78-.2,.54-.29,.87-.84,.87-1.45V8.5c0-2.48-2.02-4.5-4.5-4.5ZM2.01,18.89c-.2,.13-.45,.15-.67,.03-.21-.11-.34-.33-.34-.57V4.5C1,2.57,2.57,1,4.5,1H13.5c1.93,0,3.5,1.57,3.5,3.5V12.5c0,1.93-1.57,3.5-3.5,3.5H6.5c-.09,0-.17,.03-.25,.08,0,0-.02,0-.03,0l-4.21,2.81Zm20.99,3.46c0,.24-.13,.46-.34,.57-.21,.12-.46,.1-.67-.03l-4.22-2.81c-.08-.05-.18-.08-.28-.08h-7c-1.76,0-3.2-1.31-3.45-3h6.45c2.48,0,4.5-2.02,4.5-4.5V5h1.5c1.93,0,3.5,1.57,3.5,3.5v13.85ZM7.95,13c-.98,0-1.89-.53-2.38-1.37-.14-.24-.06-.54,.18-.68,.24-.14,.54-.06,.68,.18,.31,.54,.89,.88,1.52,.88h2.31c.69,0,1.24-.56,1.24-1.24,0-.54-.34-1.01-.85-1.18l-3.62-1.21c-.92-.31-1.53-1.16-1.53-2.13,0-1.24,1.01-2.24,2.24-2.24h.76v-.5c0-.28,.22-.5,.5-.5s.5,.22,.5,.5v.5h.55c.98,0,1.89,.53,2.38,1.37,.14,.24,.06,.54-.18,.68-.24,.14-.54,.06-.68-.18-.31-.54-.89-.87-1.52-.87h-2.31c-.69,0-1.24,.56-1.24,1.24,0,.54,.34,1.01,.85,1.18l3.62,1.21c.92,.31,1.53,1.16,1.53,2.13,0,1.24-1.01,2.24-2.24,2.24h-.76v.5c0,.28-.22,.5-.5,.5s-.5-.22-.5-.5v-.5h-.55Z"/></svg>
