<?xml version="1.0" encoding="UTF-8"?>
<svg xmlns="http://www.w3.org/2000/svg" id="Layer_1" data-name="Layer 1" viewBox="0 0 24 24">
  <path d="m23.854,23.146l-6.925-6.925,2.636-4.321c.528-.778.581-1.739.141-2.57-.44-.831-1.265-1.327-2.206-1.327l-4.864-.004,1.413-5.796c.294-1.029-.218-1.796-.817-2.073-.555-.257-1.351-.157-1.892.654l-3.732,6.115L.854.146C.658-.049.342-.049.146.146S-.049.658.146.854l23,23c.098.098.226.146.354.146s.256-.049.354-.146c.195-.195.195-.512,0-.707ZM12.182,1.323c.186-.28.416-.384.629-.285.226.104.408.428.271.91l-1.568,6.434c-.036.148-.002.307.093.427.094.121.239.191.393.191l5.5.004c.564,0,1.058.298,1.322.796.264.498.232,1.073-.097,1.56l-2.523,4.135-7.866-7.866,3.847-6.305Zm3.153,17.512l-2.675,4.383c-.372.56-.866.78-1.317.78-.205,0-.401-.045-.574-.125-.6-.277-1.112-1.044-.818-2.074l1.414-5.799h-4.864c-.94,0-1.765-.496-2.205-1.326-.441-.831-.389-1.793.139-2.571l1.233-2.022c.144-.235.452-.31.687-.166.236.144.311.451.167.688l-1.246,2.042c-.33.487-.361,1.063-.097,1.562s.758.795,1.322.795h5.5c.153,0,.298.07.393.191.095.12.129.278.093.427l-1.569,6.437c-.138.483.045.807.271.911.211.098.442-.006.629-.286l2.665-4.366c.144-.235.451-.311.688-.166.235.144.31.451.166.688Z"/>
</svg>
