<?xml version="1.0" encoding="UTF-8"?>
<svg xmlns="http://www.w3.org/2000/svg" id="Layer_1" data-name="Layer 1" viewBox="0 0 24 24" width="512" height="512"><path d="M6.5,8c-.276,0-.5-.224-.5-.5,0-1.652,1.069-3.5,2.5-3.5s2.5,1.848,2.5,3.5c0,.276-.224,.5-.5,.5s-.5-.224-.5-.5c0-1.215-.771-2.5-1.5-2.5s-1.5,1.285-1.5,2.5c0,.276-.224,.5-.5,.5Zm7.5-.5c0-1.215,.771-2.5,1.5-2.5s1.5,1.285,1.5,2.5c0,.276,.224,.5,.5,.5s.5-.224,.5-.5c0-1.652-1.069-3.5-2.5-3.5s-2.5,1.848-2.5,3.5c0,.276,.224,.5,.5,.5s.5-.224,.5-.5Zm2.878,3.173c-.181-.209-.496-.232-.705-.052-.016,.014-1.627,1.378-4.173,1.378-2.527,0-4.158-1.366-4.174-1.379-.208-.178-.524-.154-.705,.054-.18,.209-.156,.524,.052,.704,.077,.066,1.913,1.622,4.827,1.622s4.75-1.555,4.827-1.622c.209-.18,.232-.496,.052-.705Zm5.26,8.195l-3.302,3.302c-1.104,1.104-2.902,1.104-4.007,0-.535-.535-.83-1.247-.83-2.003v-.787l5.708-5.707c.195-.195,.195-.512,0-.707s-.512-.195-.707,0l-5,5v-2.466c0-.276-.224-.5-.5-.5s-.5,.224-.5,.5v4.667c0,1.024,.399,1.987,1.123,2.71,.747,.748,1.729,1.121,2.71,1.121s1.963-.374,2.71-1.121l3.302-3.302c.195-.195,.195-.512,0-.707s-.512-.195-.707,0Zm-.88-5.123l-4.245,4.245c-.195,.195-.195,.512,0,.707,.098,.098,.226,.146,.354,.146s.256-.049,.354-.146l4.245-4.245c.195-.195,.195-.512,0-.707s-.512-.195-.707,0Zm-2.772,5.717c-.195,.195-.195,.512,0,.707,.098,.098,.226,.146,.354,.146s.256-.049,.354-.146l3.479-3.479c.195-.195,.195-.512,0-.707s-.512-.195-.707,0l-3.479,3.479Zm-7.986-4.462c-.276,0-.5,.224-.5,.5v2.466l-5.047-5.046c-.195-.195-.512-.195-.707,0s-.195,.512,0,.707l5.754,5.753v.787c0,.757-.295,1.469-.83,2.004-1.104,1.104-2.902,1.104-4.007,0l-3.348-3.349c-.195-.195-.512-.195-.707,0s-.195,.512,0,.707l3.348,3.349c.748,.747,1.729,1.121,2.71,1.121s1.963-.374,2.71-1.121c.724-.724,1.123-1.686,1.123-2.71v-4.667c0-.276-.224-.5-.5-.5Zm-3.867,3.843c.128,0,.256-.049,.354-.146,.195-.195,.195-.512,0-.707L2.695,13.699c-.195-.195-.512-.195-.707,0s-.195,.512,0,.707l4.291,4.291c.098,.098,.226,.146,.354,.146ZM1.282,15.938c-.195,.195-.195,.512,0,.707l3.525,3.525c.098,.098,.226,.146,.354,.146s.256-.049,.354-.146c.195-.195,.195-.512,0-.707l-3.525-3.525c-.195-.195-.512-.195-.707,0ZM12,0C5.383,0,0,5.383,0,12c0,.175,.003,.349,.011,.522,.012,.276,.252,.494,.521,.478,.276-.012,.49-.246,.478-.521-.007-.159-.01-.318-.01-.478C1,5.935,5.935,1,12,1s11,4.935,11,11c0,.16-.003,.319-.01,.478-.012,.276,.202,.509,.478,.521,.007,0,.015,0,.022,0,.266,0,.487-.209,.499-.478,.008-.173,.011-.347,.011-.522C24,5.383,18.617,0,12,0Z"/></svg>
