<?xml version="1.0" encoding="UTF-8"?>
<svg xmlns="http://www.w3.org/2000/svg" id="Layer_1" data-name="Layer 1" width="512" height="512" viewBox="0 0 24 24"><path d="M10.992,22.603c-.173,0-.342-.09-.434-.251l-1.059-1.846-1.059,1.846c-.138,.24-.442,.32-.683,.185-.239-.137-.322-.443-.185-.682l1.062-1.854h-2.137c-.276,0-.5-.224-.5-.5s.224-.5,.5-.5h2.137l-1.062-1.854c-.138-.239-.055-.545,.185-.682,.24-.137,.545-.055,.683,.185l1.059,1.846,1.059-1.846c.137-.24,.442-.322,.683-.185,.239,.137,.322,.443,.185,.682l-1.062,1.854h2.137c.276,0,.5,.224,.5,.5s-.224,.5-.5,.5h-2.137l1.062,1.854c.138,.239,.055,.545-.185,.682-.079,.045-.164,.066-.249,.066Zm4.508-2.607c-.276,0-.5-.224-.5-.5s.224-.5,.5-.5h.736c3.6,0,6.632-2.803,6.759-6.249,.116-3.131-2.015-5.899-5.065-6.584-.735-.165-1.347-.636-1.677-1.294-1.413-2.82-4.466-4.324-7.598-3.744C5.918,1.633,3.704,3.816,3.146,6.559c-.167,.82-.191,1.646-.073,2.452,.13,.893-.119,1.715-.685,2.255-1.128,1.078-1.609,2.646-1.289,4.196,.286,1.381,1.282,2.596,2.601,3.17,.253,.11,.368,.405,.258,.658-.11,.254-.405,.368-.658,.259-1.635-.712-2.823-2.165-3.179-3.884-.392-1.89,.198-3.804,1.576-5.122,.328-.313,.469-.819,.386-1.387-.134-.921-.106-1.862,.083-2.796C2.805,3.222,5.339,.723,8.474,.142c3.573-.665,7.06,1.058,8.674,4.279,.194,.389,.56,.668,1.001,.767,3.521,.79,5.98,3.984,5.847,7.597-.147,3.976-3.628,7.211-7.759,7.211h-.736Zm.492-5.393c-.173,0-.342-.09-.434-.251l-1.059-1.846-1.059,1.846c-.137,.24-.443,.321-.683,.185-.239-.137-.322-.443-.185-.682l1.062-1.854h-2.137c-.276,0-.5-.224-.5-.5s.224-.5,.5-.5h2.137l-1.062-1.854c-.138-.239-.055-.545,.185-.682,.239-.137,.546-.056,.683,.185l1.059,1.846,1.059-1.846c.137-.241,.441-.322,.683-.185,.239,.137,.322,.443,.185,.682l-1.062,1.854h2.137c.276,0,.5,.224,.5,.5s-.224,.5-.5,.5h-2.137l1.062,1.854c.138,.239,.055,.545-.185,.682-.079,.045-.164,.066-.249,.066Z"/></svg>
