<?xml version="1.0" encoding="UTF-8"?>
<svg xmlns="http://www.w3.org/2000/svg" id="Layer_1" data-name="Layer 1" viewBox="0 0 24 24" width="512" height="512"><path d="m19.5,0H4.5C2.019,0,0,2.019,0,4.5v15c0,2.481,2.019,4.5,4.5,4.5h15c2.481,0,4.5-2.019,4.5-4.5V4.5c0-2.481-2.019-4.5-4.5-4.5Zm3.5,19.5c0,1.93-1.57,3.5-3.5,3.5H4.5c-1.93,0-3.5-1.57-3.5-3.5V4.5c0-1.93,1.57-3.5,3.5-3.5h15c1.93,0,3.5,1.57,3.5,3.5v15Zm-16.763-1.988c-.234.233-.308.59-.169.929.111.271.392.56.847.56h11.585c.276,0,.5.224.5.5s-.224.5-.5.5H6.915c-.794,0-1.474-.452-1.772-1.181-.293-.716-.132-1.5.421-2.046l12.199-10.285c.234-.233.308-.59.169-.929-.111-.271-.392-.56-.847-.56H5.5c-.276,0-.5-.224-.5-.5s.224-.5.5-.5h11.585c.794,0,1.474.452,1.772,1.181.293.716.132,1.5-.421,2.046l-12.199,10.285Z"/></svg>
