<?xml version="1.0" encoding="UTF-8"?>
<svg xmlns="http://www.w3.org/2000/svg" id="Layer_1" data-name="Layer 1" viewBox="0 0 24 24" width="512" height="512"><path d="M19.5,8h-.099l.599-6.872c0-.535-.378-1.097-1.01-1.111-.52,0-1.138,.376-1.839,1.147-.344,.378-.867,.831-1.396,.836-.497-.005-1.033-.454-1.507-.852-.574-.48-1.372-1.148-2.226-1.148-.862,0-1.696,.668-2.271,1.148-.474,.397-1.01,.847-1.497,.852-.539-.005-1.062-.458-1.406-.836C6.137,.38,5.521,.017,5.01,.017c-.632,.015-1.01,.576-1.01,1.111,0,.015,.599,6.872,.599,6.872h-.099c-2.481,0-4.5,2.019-4.5,4.5v7c0,2.481,2.019,4.5,4.5,4.5h15c2.481,0,4.5-2.019,4.5-4.5v-7c0-2.481-2.019-4.5-4.5-4.5ZM5.033,1.017c.023,0,.345,.016,1.075,.819,.695,.766,1.414,1.157,2.146,1.164,.854-.009,1.567-.605,2.14-1.085,.473-.396,1.093-.915,1.603-.915h.008c.511-.052,1.125,.517,1.601,.915,.572,.479,1.285,1.076,2.149,1.085,.723-.007,1.441-.398,2.137-1.164,.743-.817,1.062-.819,1.069-.823,.013,.011,.039,.061,.041,.071l-.907,10.389c-.071,.856-.79,1.527-1.638,1.527h-1.905l.445-4.45c.028-.274-.173-.52-.447-.547-.273-.029-.52,.173-.547,.447l-.455,4.55h-3.082l-.467-6.535c-.021-.276-.285-.481-.534-.464-.276,.02-.483,.259-.464,.534l.462,6.465h-1.92c-.848,0-1.566-.671-1.638-1.53L5.001,1.113c.004-.049,.025-.091,.032-.097ZM23,19.5c0,1.93-1.57,3.5-3.5,3.5H4.5c-1.93,0-3.5-1.57-3.5-3.5v-.5H23v.5Zm0-1.5H1v-5.5c0-1.93,1.57-3.5,3.5-3.5h.186l.223,2.555c.113,1.371,1.271,2.445,2.634,2.445h8.914c1.363,0,2.521-1.074,2.634-2.442l.223-2.558h.186c1.93,0,3.5,1.57,3.5,3.5v5.5Z"/></svg>
