<?xml version="1.0" encoding="UTF-8"?>
<svg xmlns="http://www.w3.org/2000/svg" id="Layer_1" data-name="Layer 1" viewBox="0 0 24 24" width="512" height="512"><path d="M23.854,.146c-.195-.195-.512-.195-.707,0l-3.646,3.646-2.646-2.646c-.195-.195-.512-.195-.707,0s-.195,.512,0,.707l2.646,2.646-2.293,2.293-2.646-2.646c-.195-.195-.512-.195-.707,0s-.195,.512,0,.707l2.646,2.646-1.774,1.774-1.745-1.745c-.428-.427-1.041-.611-1.638-.495-.572,.112-1.026,.479-1.246,1.003-.728,1.733-.43,3.691,.744,5.122l-1.634,1.634-2.646-2.646c-.195-.195-.512-.195-.707,0s-.195,.512,0,.707l2.646,2.646-1.452,1.452c-.392,.394-1.009,.495-1.611,.27-1.499-.556-3.187-.03-4.111,1.288-.821,1.172-.821,2.809,0,3.98,.604,.861,1.543,1.406,2.576,1.496,.103,.01,.204,.014,.307,.014,.925,0,1.813-.365,2.474-1.025,.195-.195,.195-.512,0-.707s-.512-.195-.707,0c-.523,.524-1.247,.796-1.986,.723-.749-.065-1.404-.446-1.845-1.074-.584-.834-.584-1.998,0-2.832,.663-.943,1.874-1.326,2.942-.926,.975,.366,1.995,.174,2.669-.499l1.452-1.452,2.646,2.646c.098,.098,.226,.146,.354,.146s.256-.049,.354-.146c.195-.195,.195-.512,0-.707l-2.646-2.646,1.634-1.634c.909,.746,2.031,1.138,3.173,1.138,.655,0,1.317-.129,1.949-.395,.524-.22,.891-.674,1.003-1.246,.117-.598-.067-1.21-.495-1.638l-1.745-1.745,1.774-1.774,2.646,2.646c.098,.098,.226,.146,.354,.146s.256-.049,.354-.146c.195-.195,.195-.512,0-.707l-2.646-2.646,2.293-2.293,2.646,2.646c.098,.098,.226,.146,.354,.146s.256-.049,.354-.146c.195-.195,.195-.512,0-.707l-2.646-2.646,3.646-3.646c.195-.195,.195-.512,0-.707Zm-7.869,13.024c-.027,.141-.117,.395-.408,.517-1.509,.634-3.237,.296-4.399-.864-1.159-1.16-1.499-2.888-.864-4.399,.122-.291,.376-.381,.517-.408,.055-.011,.108-.016,.162-.016,.216,0,.423,.083,.576,.236l4.196,4.196c.191,.191,.274,.468,.221,.738Z"/></svg>
