<?xml version="1.0" encoding="UTF-8"?>
<svg xmlns="http://www.w3.org/2000/svg" id="Layer_1" data-name="Layer 1" viewBox="0 0 24 24">
  <path d="m11.938,15.779l-1.239,3.941c-.398,1.268-1.449,2.243-2.741,2.545,0,0-7.42,1.735-7.458,1.735-.131,0-.259-.052-.354-.146-.122-.122-.173-.299-.133-.468l1.722-7.344c.303-1.293,1.278-2.344,2.544-2.742l3.941-1.239c.268-.081.545.064.627.327.083.263-.063.544-.326.627l-3.941,1.239c-.932.292-1.648,1.065-1.872,2.016l-1.321,5.635,3.759-3.759c.195-.195.512-.195.707,0s.195.512,0,.707l-3.759,3.759,5.635-1.321c.95-.223,1.723-.94,2.017-1.872l1.239-3.941c.082-.263.358-.408.627-.327.263.083.409.364.326.627Zm11.915,7.368c.195.195.195.512,0,.707-.098.098-.226.146-.354.146s-.256-.049-.354-.146L.146.854C-.049.658-.049.342.146.146S.658-.049.854.146l9.643,9.643L19.517.769c1.022-1.023,2.689-1.025,3.714,0,.496.496.77,1.156.77,1.857s-.273,1.361-.77,1.857l-9.02,9.02,9.643,9.643Zm-12.65-12.65l2.3,2.3L22.523,3.776c.308-.308.477-.716.477-1.15s-.169-.842-.477-1.15c-.634-.633-1.664-.635-2.3,0l-9.02,9.02Z"/>
</svg>
