<?xml version="1.0" encoding="UTF-8"?>
<svg xmlns="http://www.w3.org/2000/svg" id="Layer_1" data-name="Layer 1" viewBox="0 0 24 24" width="512" height="512"><path d="m5.882,15H.5c-.276,0-.5-.224-.5-.5s.224-.5.5-.5h5.382c.191,0,.362-.106.447-.276l1.048-2.096c.209-.419.627-.664,1.098-.639.468.025.86.312,1.024.75l1.939,5.17c.03.081.093.101.14.103.054.003.112-.01.15-.087l1.048-2.096c.256-.511.77-.829,1.342-.829h4.382c.276,0,.5.224.5.5s-.224.5-.5.5h-4.382c-.191,0-.362.106-.447.276l-1.048,2.096c-.2.399-.592.641-1.033.641-.021,0-.043,0-.064-.002-.468-.025-.86-.312-1.024-.75l-1.939-5.17c-.03-.081-.093-.101-.14-.103-.049.005-.112.011-.15.087l-1.048,2.096c-.256.511-.77.829-1.342.829Zm16.118-5.015v9.515c0,2.481-2.019,4.5-4.5,4.5H6.5c-2.481,0-4.5-2.019-4.5-4.5v-2c0-.276.224-.5.5-.5s.5.224.5.5v2c0,1.93,1.57,3.5,3.5,3.5h11c1.93,0,3.5-1.57,3.5-3.5v-9.515c0-.335-.038-.663-.096-.985h-5.404c-1.378,0-2.5-1.122-2.5-2.5V1.096c-.323-.058-.651-.096-.985-.096h-5.515c-1.93,0-3.5,1.57-3.5,3.5v7c0,.276-.224.5-.5.5s-.5-.224-.5-.5v-7C2,2.019,4.019,0,6.5,0h5.515c1.736,0,3.369.676,4.596,1.904l3.485,3.485c1.228,1.228,1.904,2.86,1.904,4.596Zm-1.379-1.985c-.273-.704-.682-1.354-1.231-1.904l-3.485-3.485c-.55-.55-1.2-.959-1.904-1.231v5.121c0,.827.673,1.5,1.5,1.5h5.121Z"/></svg>
