<?xml version="1.0" encoding="UTF-8"?>
<svg xmlns="http://www.w3.org/2000/svg" id="Layer_1" data-name="Layer 1" viewBox="0 0 24 24" width="512" height="512"><path d="M19.561,24.014H4.438C2.144,24.014,.201,22.311,.015,20.136c-.173-2.029,1.126-3.899,3.09-4.446,.256-.071,.467-.234,.578-.448,1.04-1.991,3.076-3.228,5.316-3.228,.901,0,1.771,.197,2.583,.586,.266,.128,.569,.126,.835,0,.812-.389,1.681-.586,2.583-.586,2.24,0,4.277,1.237,5.316,3.228,.111,.213,.322,.376,.578,.447h0c1.963,.547,3.263,2.417,3.09,4.446-.186,2.175-2.128,3.878-4.423,3.878ZM8.999,13.014c-1.866,0-3.563,1.031-4.429,2.691-.239,.458-.675,.803-1.197,.948-1.501,.417-2.494,1.847-2.362,3.397,.142,1.662,1.647,2.963,3.427,2.963h15.123c1.779,0,3.285-1.302,3.427-2.963,.132-1.551-.861-2.979-2.362-3.397h0c-.522-.146-.958-.491-1.197-.948-.866-1.66-2.563-2.691-4.43-2.691-.751,0-1.475,.164-2.15,.488-.54,.26-1.159,.26-1.7,0-.675-.324-1.399-.488-2.15-.488ZM14.634,1.756c-.223-.16-.433-.329-.633-.518L12.868,.169c-.175-.115-.371-.169-.564-.169-.365,0-.719,.194-.9,.544-.214,.414-.404,1.317-.404,1.753,0,1.5,1,1.954,1,2.954,0,.828-.462,1.75-1.741,1.75s-1.759-.922-1.759-1.75c0-.454,.194-.727,.194-.973,0-.438-.355-.792-.793-.792-.156,0-.294,.057-.417,.135,0,0-2.483,1.48-2.483,5.36v.022c0,.451,.05,.89,.134,1.316,.043,.232,.237,.411,.482,.411,.276,0,.5-.224,.5-.5,0-.034-.013-.063-.017-.108-.077-.358-.099-.746-.099-1.141,0-2.23,.924-3.509,1.525-4.106-.017,.114-.027,.24-.027,.376,0,1.324,.864,2.75,2.759,2.75,1.883,0,2.741-1.426,2.741-2.75,0-.725-.313-1.251-.565-1.674-.243-.407-.435-.729-.435-1.28,0-.313,.166-1.051,.292-1.293h.002l1.022,.963c.225,.212,.466,.409,.737,.603,.924,.662,3.939,3.081,3.947,6.433,0,.387-.031,.766-.104,1.132-.004,.027-.016,.051-.016,.079,0,.276,.224,.5,.5,.5,.224,0,.407-.151,.471-.354,0,0,.149-.508,.149-1.356v-.01c-.008-3.761-3.174-6.383-4.364-7.236Z"/></svg>
