<?xml version="1.0" encoding="UTF-8"?>
<svg xmlns="http://www.w3.org/2000/svg" id="Layer_1" data-name="Layer 1" viewBox="0 0 24 24" width="512" height="512"><path d="M2.5,24c-.276,0-.5-.224-.5-.5V3.23C2,1.412,3.295,.333,4.578,.069c1.278-.266,2.897,.218,3.614,1.89l8.534,19.686c.529,1.235,1.68,1.472,2.495,1.307,.82-.168,1.778-.841,1.778-2.181V.5c-.01-.649,1.01-.649,1,0V20.771c0,1.817-1.295,2.896-2.577,3.16-1.284,.26-2.899-.22-3.615-1.89L7.273,2.354c-.529-1.233-1.676-1.477-2.494-1.306-.821,.168-1.779,.841-1.779,2.181V23.5c0,.276-.224,.5-.5,.5Z"/></svg>
