<?xml version="1.0" encoding="UTF-8"?>
<svg xmlns="http://www.w3.org/2000/svg" id="Layer_1" data-name="Layer 1" width="512" height="512" viewBox="0 0 24 24"><path d="M24,13c0,2.911-1.06,5.721-2.984,7.909-1.171,1.332-3.22,1.465-4.568,.3l-.593-.512c-.209-.181-.232-.497-.052-.706s.498-.23,.705-.052l.594,.513c.935,.81,2.354,.717,3.163-.203,1.764-2.006,2.735-4.581,2.735-7.249,0-3.257-1.431-6.327-3.927-8.425-2.494-2.096-5.797-2.973-9.06-2.401C5.285,2.999,1.7,6.771,1.092,11.56c-.407,3.206,.533,6.294,2.648,8.695,.794,.899,2.239,.99,3.158,.198l.593-.513c.209-.181,.524-.158,.706,.051,.181,.209,.157,.524-.051,.705l-.593,.513c-.616,.533-1.379,.795-2.137,.795-.899,0-1.792-.368-2.426-1.089C.682,18.296-.344,14.929,.1,11.435,.763,6.207,4.678,2.09,9.842,1.189c3.556-.626,7.154,.333,9.875,2.62,2.722,2.288,4.283,5.638,4.283,9.19Zm-10,0c0,1.103-.897,2-2,2s-2-.897-2-2c0-.93,.638-1.714,1.5-1.937V6c0-.276,.224-.5,.5-.5s.5,.224,.5,.5v5.063c.862,.223,1.5,1.007,1.5,1.937Zm-1,0c0-.552-.449-1-1-1s-1,.448-1,1,.449,1,1,1,1-.448,1-1Z"/></svg>
