<?xml version="1.0" encoding="UTF-8"?>
<svg xmlns="http://www.w3.org/2000/svg" id="Layer_1" data-name="Layer 1" width="512" height="512" viewBox="0 0 24 24"><path d="M21.04,8.279c1.491,.545,2.594,1.831,2.879,3.357,.126,.674,.105,1.343-.061,1.988-.059,.226-.261,.375-.484,.375-.042,0-.083-.005-.125-.016-.267-.069-.428-.342-.359-.609,.13-.503,.146-1.025,.046-1.555-.217-1.163-1.096-2.185-2.239-2.602-.708-.259-1.421-.288-2.117-.088-.599,.173-1.24-.021-1.629-.494-.858-1.04-2.117-1.637-3.451-1.637-1.601,0-3.092,.871-3.891,2.273-.338,.595-.999,.903-1.642,.774-.372-.075-.75-.061-1.123,.045-.777,.218-1.429,.822-1.703,1.577-.094,.261-.382,.395-.641,.3-.259-.094-.394-.38-.3-.64,.381-1.054,1.291-1.896,2.373-2.2,.528-.148,1.064-.17,1.593-.062,.219,.049,.45-.072,.574-.288,.977-1.715,2.8-2.779,4.76-2.779,1.634,0,3.173,.729,4.223,2.001,.138,.168,.359,.234,.581,.169,.906-.258,1.826-.223,2.736,.109Zm-1.011-4.224c.015,.002-.015-.003,0,0h0Zm3.9,14.288c.194,.907-.023,1.833-.596,2.542-.573,.708-1.423,1.114-2.333,1.114-.229,0-.431-.022-.619-.068-.263-.062-.43,.104-.489,.178-.955,1.202-2.374,1.891-3.892,1.891-.617,0-1.225-.117-1.808-.348-.368-.146-.761-.156-1.106-.026-1.542,.575-3.291,.482-4.772-.265-.299-.149-.646-.139-.954,.029-2.012,1.103-4.606,.614-6.104-1.077-.948-1.071-1.392-2.508-1.216-3.94,.184-1.507,1.132-2.887,2.536-3.691,1.042-.598,2.125-.806,3.225-.611,.357,.062,.699-.043,.943-.29,1.135-1.148,2.647-1.78,4.258-1.78,1.493,0,2.953,.58,4.111,1.634q.401,.366,.889,.366c1.497,0,2.902,.673,3.856,1.846,.143,.176,.343,.263,.509,.226,.56-.127,1.124-.085,1.679,.122,.955,.355,1.677,1.18,1.885,2.15Zm-.978,.209c-.135-.63-.628-1.188-1.256-1.422h0c-.369-.138-.741-.165-1.107-.085-.546,.126-1.121-.093-1.507-.569-.763-.938-1.886-1.477-3.08-1.477-.76,0-.964-.082-1.562-.627-.973-.885-2.194-1.373-3.438-1.373-1.342,0-2.602,.526-3.547,1.483-.478,.483-1.144,.691-1.827,.571-.871-.149-1.708,.01-2.555,.494-1.131,.649-1.895,1.75-2.041,2.945-.142,1.166,.203,2.287,.973,3.156,1.196,1.351,3.263,1.746,4.875,.863,.592-.323,1.296-.34,1.884-.045,1.233,.621,2.69,.698,3.975,.22,.274-.102,.565-.152,.857-.152,.324,0,.652,.062,.966,.187,1.612,.638,3.475,.115,4.548-1.235,.289-.362,.835-.692,1.511-.526,.108,.026,.232,.039,.38,.039,.607,0,1.174-.271,1.556-.743,.388-.479,.528-1.085,.396-1.704ZM1.5,10.299c.122,0,.244-.044,.34-.134,.203-.188,.214-.504,.027-.706-.559-.603-.867-1.387-.867-2.209,0-1.883,1.262-3.25,3-3.25,.175,0,.491,.023,.643,.073,.68,.227,1.433-.138,1.791-.858,.682-1.366,2.048-2.215,3.566-2.215,1.293,0,2.512,.638,3.261,1.704,.374,.535,1.048,.732,1.674,.491,1.202-.458,2.622-.061,3.458,1.008,.571,.729,1.175,.801,1.426,.83,.415,.091,.775,.354,.986,.726,.135,.238,.442,.321,.682,.187,.24-.137,.324-.442,.187-.683-.352-.616-.95-1.057-1.644-1.207-.157-.019-.535-.067-.85-.469-1.102-1.408-2.99-1.937-4.602-1.326-.194,.077-.39,.023-.499-.13-.936-1.334-2.461-2.131-4.08-2.131-1.9,0-3.609,1.061-4.461,2.769-.114,.229-.358,.428-.583,.355-.365-.12-.896-.124-.956-.124C1.72,3,0,4.827,0,7.25c0,1.075,.402,2.101,1.133,2.889,.099,.106,.232,.16,.367,.16Z"/></svg>
