<?xml version="1.0" encoding="UTF-8"?>
<svg xmlns="http://www.w3.org/2000/svg" id="Layer_1" data-name="Layer 1" viewBox="0 0 24 24" width="512" height="512"><path d="M12,24C5.38,24,0,18.62,0,12S5.38,0,12,0s12,5.38,12,12-5.38,12-12,12ZM12,1C5.93,1,1,5.93,1,12s4.93,11,11,11,11-4.93,11-11S18.07,1,12,1Zm0,17c-.42,0-.83-.14-1.17-.42-1.8-1.49-4.83-4.37-4.83-6.97,0-1.99,1.46-3.61,3.25-3.61,1.16,0,2.17,.67,2.75,1.69,.58-1.01,1.59-1.69,2.75-1.69,1.79,0,3.25,1.62,3.25,3.61,0,2.6-3.03,5.48-4.83,6.97-.34,.28-.76,.42-1.17,.42Zm-2.75-10c-1.24,0-2.25,1.17-2.25,2.61,0,2.27,3.12,5.09,4.47,6.2,.31,.26,.75,.26,1.07,0,1.34-1.11,4.46-3.93,4.46-6.2,0-1.44-1.01-2.61-2.25-2.61s-2.25,1.17-2.25,2.61c0,.28-.22,.5-.5,.5s-.5-.22-.5-.5c0-1.44-1.01-2.61-2.25-2.61Z"/></svg>
