<?xml version="1.0" encoding="UTF-8"?>
<svg xmlns="http://www.w3.org/2000/svg" id="Layer_1" data-name="Layer 1" viewBox="0 0 24 24" width="512" height="512"><path d="M22,19.05V4.5c0-2.481-2.019-4.5-4.5-4.5H4.5C2.019,0,0,2.019,0,4.5v15c0,2.481,2.019,4.5,4.5,4.5h12c.276,0,.5-.224,.5-.5s-.224-.5-.5-.5H4.5c-1.93,0-3.5-1.57-3.5-3.5V9H18.5c.276,0,.5-.224,.5-.5V1.338c1.181,.563,2,1.769,2,3.162v14.55c-1.14,.232-2,1.242-2,2.45,0,1.379,1.122,2.5,2.5,2.5s2.5-1.121,2.5-2.5c0-1.208-.86-2.217-2-2.45ZM1,8v-3H18v3H1ZM18,4H1.036c.243-1.694,1.704-3,3.464-3h13c.17,0,.337,.012,.5,.036v2.964Zm3.5,19c-.827,0-1.5-.673-1.5-1.5s.673-1.5,1.5-1.5,1.5,.673,1.5,1.5-.673,1.5-1.5,1.5Z"/></svg>
