<?xml version="1.0" encoding="UTF-8"?>
<svg xmlns="http://www.w3.org/2000/svg" id="Layer_1" data-name="Layer 1" width="512" height="512" viewBox="0 0 24 24"><path d="M17.5,11c-.096,0-.192-.027-.277-.084l-3-2c-.139-.093-.223-.249-.223-.416s.084-.323,.223-.416l3-2c.227-.152,.539-.092,.693,.139,.153,.23,.091,.54-.139,.693l-2.376,1.584,2.376,1.584c.229,.153,.292,.463,.139,.693-.097,.145-.255,.223-.416,.223Zm-10.723-.084l3-2c.139-.093,.223-.249,.223-.416s-.084-.323-.223-.416l-3-2c-.229-.151-.539-.091-.693,.139-.153,.23-.091,.54,.139,.693l2.376,1.584-2.376,1.584c-.229,.153-.292,.463-.139,.693,.097,.145,.255,.223,.416,.223,.096,0,.192-.027,.277-.084Zm17.223,1.084C24,5.383,18.617,0,12,0S0,5.383,0,12s5.383,12,12,12,12-5.383,12-12Zm-1,0c0,6.065-4.935,11-11,11S1,18.065,1,12,5.935,1,12,1s11,4.935,11,11Zm-4.236,3.31h0c.331-.521,.316-1.16-.039-1.668-.352-.505-.939-.74-1.543-.606-.286,.062-.612,.156-.979,.261-1.03,.296-2.442,.703-4.206,.703-1.762,0-3.169-.406-4.197-.702-.367-.106-.693-.199-.981-.262-.599-.132-1.189,.102-1.542,.606-.355,.508-.37,1.147-.039,1.668,1.168,1.836,3.713,3.69,6.764,3.69s5.596-1.854,6.764-3.69Zm-12.16-1.298c.27,.059,.575,.147,.919,.247,1.085,.312,2.571,.74,4.474,.741,1.904,0,3.395-.429,4.482-.742,.344-.099,.649-.187,.917-.246,.297-.061,.465,.139,.51,.203,.045,.065,.181,.297,.015,.558h0c-1.021,1.606-3.248,3.227-5.92,3.227s-4.898-1.621-5.92-3.227c-.166-.261-.03-.493,.015-.558,.039-.055,.17-.215,.396-.215,.035,0,.073,.003,.112,.012Z"/></svg>
