<?xml version="1.0" encoding="UTF-8"?>
<svg xmlns="http://www.w3.org/2000/svg" id="Layer_1" data-name="Layer 1" viewBox="0 0 24 24" width="512" height="512"><path d="M7,4.5c0-1.93-1.57-3.5-3.5-3.5S0,2.57,0,4.5c0,1.76,1.306,3.221,3,3.464v9.072c-1.694,.243-3,1.704-3,3.464,0,1.93,1.57,3.5,3.5,3.5s3.5-1.57,3.5-3.5c0-1.76-1.306-3.221-3-3.464V7.964c1.694-.243,3-1.704,3-3.464Zm-6,0c0-1.378,1.122-2.5,2.5-2.5s2.5,1.122,2.5,2.5-1.122,2.5-2.5,2.5-2.5-1.122-2.5-2.5ZM6,20.5c0,1.378-1.122,2.5-2.5,2.5s-2.5-1.122-2.5-2.5,1.122-2.5,2.5-2.5,2.5,1.122,2.5,2.5Zm15-3.464V8.5c0-2.481-2.019-4.5-4.5-4.5h-4.427c.071-.224,.196-.436,.375-.615L14.862,.844c.19-.2,.183-.517-.018-.707-.199-.19-.518-.182-.707,.018l-2.405,2.531c-.975,.975-.975,2.561-.015,3.52l2.414,2.631c.099,.107,.233,.162,.368,.162,.121,0,.242-.043,.338-.131,.204-.187,.217-.503,.03-.707l-2.429-2.646c-.151-.151-.263-.328-.336-.516h4.397c1.93,0,3.5,1.57,3.5,3.5v8.536c-1.694,.243-3,1.704-3,3.464,0,1.93,1.57,3.5,3.5,3.5s3.5-1.57,3.5-3.5c0-1.76-1.306-3.221-3-3.464Zm-.5,5.964c-1.379,0-2.5-1.122-2.5-2.5s1.121-2.5,2.5-2.5,2.5,1.122,2.5,2.5-1.121,2.5-2.5,2.5Z"/></svg>
