<?xml version="1.0" encoding="UTF-8"?>
<svg xmlns="http://www.w3.org/2000/svg" id="Layer_1" data-name="Layer 1" viewBox="0 0 24 24" width="512" height="512"><path d="M23.5,0c-.276,0-.5,.224-.5,.5v1.5h-3V.5c0-.276-.224-.5-.5-.5s-.5,.224-.5,.5v1.5h-3V.5c0-.276-.224-.5-.5-.5s-.5,.224-.5,.5V4.5c0,1.208,.86,2.218,2,2.45v4.05H7V6.95c1.14-.232,2-1.242,2-2.45V.5c0-.276-.224-.5-.5-.5s-.5,.224-.5,.5v1.5h-3V.5c0-.276-.224-.5-.5-.5s-.5,.224-.5,.5v1.5H1V.5c0-.276-.224-.5-.5-.5S0,.224,0,.5V4.5c0,1.208,.86,2.218,2,2.45v13.55c0,1.93,1.57,3.5,3.5,3.5h13c1.93,0,3.5-1.57,3.5-3.5V6.95c1.14-.232,2-1.242,2-2.45V.5c0-.276-.224-.5-.5-.5Zm-6.5,12v11h-2v-5c0-1.654-1.346-3-3-3s-3,1.346-3,3v5h-2V12h10Zm-3,11h-4v-5c0-1.103,.897-2,2-2s2,.897,2,2v5ZM1,4.5v-1.5h7v1.5c0,.827-.673,1.5-1.5,1.5H2.5c-.827,0-1.5-.673-1.5-1.5ZM3,20.5V7h3V23h-.5c-1.379,0-2.5-1.121-2.5-2.5Zm15.5,2.5h-.5V7h3v13.5c0,1.379-1.121,2.5-2.5,2.5Zm3-17h-4c-.827,0-1.5-.673-1.5-1.5v-1.5h7v1.5c0,.827-.673,1.5-1.5,1.5Z"/></svg>
