<?xml version="1.0" encoding="UTF-8"?>
<svg xmlns="http://www.w3.org/2000/svg" id="Layer_1" data-name="Layer 1" viewBox="0 0 24 24" width="512" height="512"><path d="M12.5,19c-.28,0-.5-.22-.5-.5v-7c0-.83-.67-1.5-1.5-1.5-.28,0-.5-.22-.5-.5s.22-.5,.5-.5c1.38,0,2.5,1.12,2.5,2.5v7c0,.28-.22,.5-.5,.5Zm-.5-14c-.55,0-1,.45-1,1s.45,1,1,1,1-.45,1-1-.45-1-1-1Zm12,14.5V4.5c0-2.48-2.02-4.5-4.5-4.5H4.5C2.02,0,0,2.02,0,4.5v15c0,2.48,2.02,4.5,4.5,4.5h15c2.48,0,4.5-2.02,4.5-4.5ZM19.5,1c1.93,0,3.5,1.57,3.5,3.5v15c0,1.93-1.57,3.5-3.5,3.5H4.5c-1.93,0-3.5-1.57-3.5-3.5V4.5c0-1.93,1.57-3.5,3.5-3.5h15Z"/></svg>
