<?xml version="1.0" encoding="UTF-8"?>
<svg xmlns="http://www.w3.org/2000/svg" id="Layer_1" data-name="Layer 1" viewBox="0 0 24 24">
  <path d="m21.803,5.228l-2.308-2.308c-.593-.593-1.381-.919-2.22-.919h-.005c-.841.001-1.63.331-2.222.927l-3.035,3.055-8.953-1.917c-.716-.166-1.464-.008-2.054.431S.052,5.611.003,6.353c-.078,1.201.798,2.322,2.053,2.611l5.157,1.036-5.171,1.04C.802,11.326-.075,12.447.003,13.648c.048.742.414,1.419,1.004,1.857s1.337.595,2.037.434l6.578-1.28.745,3.723c.419,2.096,2.275,3.617,4.413,3.617h4.721c2.481,0,4.5-2.019,4.5-4.5v-6.969c0-2.004-.78-3.887-2.197-5.303Zm1.197,12.272c0,1.93-1.57,3.5-3.5,3.5h-4.721c-1.663,0-3.106-1.183-3.432-2.813l-.842-4.211c-.047-.237-.256-.402-.49-.402-.032,0-.064.003-.096.009l-7.083,1.379c-.43.101-.878.005-1.232-.258-.359-.267-.573-.665-.603-1.121-.047-.717.498-1.391,1.252-1.565l7.595-1.527c.233-.047.401-.252.401-.49s-.168-.443-.401-.49l-7.582-1.523c-.769-.177-1.313-.852-1.266-1.568.03-.456.244-.854.603-1.121.354-.263.8-.359,1.24-.257l14.128,3.025c.269.059.535-.114.593-.384s-.114-.536-.384-.593l-4.005-.858,2.581-2.599c.404-.407.942-.631,1.515-.632h.003c.571,0,1.108.222,1.513.626l2.308,2.308c1.228,1.228,1.904,2.859,1.904,4.596v6.969Z"/>
</svg>
