<?xml version="1.0" encoding="UTF-8"?>
<svg xmlns="http://www.w3.org/2000/svg" id="Layer_1" data-name="Layer 1" viewBox="0 0 24 24" width="512" height="512"><path d="m23.949,9.603c0-1.637-1.318-2.971-2.949-2.999V.5c0-.262-.202-.479-.463-.499-.258-.018-.492.166-.532.425-.482,3.226-4.746,3.574-6.557,3.574h-7.949C2.467,4,0,6.467,0,9.5c0,1.651.738,3.134,1.904,4.143l3.247,8.713c.229.627.688,1.128,1.293,1.41.336.156.694.235,1.054.235.289,0,.579-.051.858-.153,1.295-.472,1.964-1.91,1.493-3.204l-2.046-5.644h5.698c2.207,0,5.987.465,6.507,3.582.041.243.25.418.493.418.014,0,.028,0,.042-.001.259-.021.459-.238.459-.499v-5.899c1.631-.028,2.949-1.362,2.949-2.999Zm-22.949-.103c0-2.481,2.019-4.5,4.5-4.5h2.5v9h-2.449c-2.51,0-4.551-2.019-4.551-4.5Zm7.909,11.486c.137.376.12.784-.049,1.146-.169.363-.47.639-.846.776-.779.284-1.64-.119-1.924-.899l-2.788-7.482c.688.303,1.449.473,2.25.473h1.187l2.17,5.986Zm11.091-4.737c-1.229-1.451-3.478-2.249-6.5-2.249h-4.5V5h4.449c3.057,0,5.321-.788,6.551-2.223v13.472Zm1-4.648v-3.997c1.079.027,1.949.913,1.949,1.999s-.869,1.971-1.949,1.999Z"/></svg>
