<?xml version="1.0" encoding="UTF-8"?>
<svg xmlns="http://www.w3.org/2000/svg" id="Layer_1" data-name="Layer 1" viewBox="0 0 24 24">
  <path d="m8,15.051v-6.551c0-.276-.224-.5-.5-.5s-.5.224-.5.5v6.551c-1.14.232-2,1.242-2,2.449,0,1.379,1.121,2.5,2.5,2.5s2.5-1.121,2.5-2.5c0-1.208-.86-2.217-2-2.449Zm-.5,3.949c-.827,0-1.5-.673-1.5-1.5s.673-1.5,1.5-1.5,1.5.673,1.5,1.5-.673,1.5-1.5,1.5Zm4.5-14.5c0-2.481-2.019-4.5-4.5-4.5S3,2.019,3,4.5v8.319c-1.273,1.225-2,2.918-2,4.681,0,3.584,2.916,6.5,6.5,6.5s6.5-2.916,6.5-6.5c0-1.763-.727-3.456-2-4.681V4.5Zm1,13c0,3.032-2.468,5.5-5.5,5.5s-5.5-2.468-5.5-5.5c0-1.554.668-3.045,1.834-4.091.105-.095.166-.23.166-.372V4.5c0-1.93,1.57-3.5,3.5-3.5s3.5,1.57,3.5,3.5v8.537c0,.142.061.277.166.372,1.166,1.046,1.834,2.537,1.834,4.091ZM14,.5c0-.276.224-.5.5-.5h9c.276,0,.5.224.5.5s-.224.5-.5.5h-9c-.276,0-.5-.224-.5-.5Zm10,4c0,.276-.224.5-.5.5h-9c-.276,0-.5-.224-.5-.5s.224-.5.5-.5h9c.276,0,.5.224.5.5Zm0,4c0,.276-.224.5-.5.5h-9c-.276,0-.5-.224-.5-.5s.224-.5.5-.5h9c.276,0,.5.224.5.5Zm0,4c0,.276-.224.5-.5.5h-7c-.276,0-.5-.224-.5-.5s.224-.5.5-.5h7c.276,0,.5.224.5.5Z"/>
</svg>
