<?xml version="1.0" encoding="UTF-8"?>
<svg xmlns="http://www.w3.org/2000/svg" id="Layer_1" data-name="Layer 1" viewBox="0 0 24 24" width="512" height="512"><path d="M8.854,16.914c.195,.195,.195,.512,0,.707l-4.371,4.371,.547,.558c.28,.286,.655,.446,1.056,.45,.377-.012,.778-.149,1.065-.429,.197-.194,.514-.189,.707,.007,.193,.197,.189,.514-.008,.707-.471,.462-1.091,.715-1.749,.715h-.025c-.668-.007-1.293-.273-1.761-.75l-2.8-2.856c-.193-.197-.189-.514,.008-.707s.513-.189,.707,.007l1.553,1.584,4.364-4.364c.195-.195,.512-.195,.707,0Zm10.146,4.586c0,1.378-1.121,2.5-2.5,2.5h-4c-.276,0-.5-.224-.5-.5s.224-.5,.5-.5h2.5v-4.44l-5.097-4.841c-.562-.534-.877-1.254-.887-2.03-.01-.775,.287-1.503,.835-2.052l4.553-4.553c-.248-.055-.503-.084-.76-.084H5.5c-.276,0-.5-.224-.5-.5s.224-.5,.5-.5H13.645c1.052,0,2.076,.372,2.885,1.047l.67,.56c.517,.49,.792,1.122,.801,1.802,.009,.679-.252,1.318-.732,1.798l-5.194,5.194,3.771,3.582c.099,.094,.155,.225,.155,.362v4.655h.5c.827,0,1.5-.673,1.5-1.5,0-.276,.224-.5,.5-.5s.5,.224,.5,.5ZM10.593,12.994l.756,.718,5.212-5.212c.288-.289,.444-.671,.439-1.079s-.17-.787-.466-1.068l-.646-.538c-.148-.124-.306-.234-.47-.331l-4.86,4.86c-.355,.356-.548,.829-.542,1.332,.007,.503,.211,.971,.576,1.318ZM22,2.5c0,1.378-1.121,2.5-2.5,2.5s-2.5-1.122-2.5-2.5,1.121-2.5,2.5-2.5,2.5,1.122,2.5,2.5Zm-1,0c0-.827-.673-1.5-1.5-1.5s-1.5,.673-1.5,1.5,.673,1.5,1.5,1.5,1.5-.673,1.5-1.5Z"/></svg>
