<?xml version="1.0" encoding="UTF-8"?>
<svg xmlns="http://www.w3.org/2000/svg" id="Layer_1" data-name="Layer 1" width="512" height="512" viewBox="0 0 24 24"><path d="M19.976,4.046C17.399,1.744,14.078,.69,10.614,1.078,5.206,1.688,.784,6.061,.1,11.478c-.481,3.806,.799,7.516,3.512,10.178,.883,.867,2.05,1.345,3.286,1.345h10.211c1.204,0,2.317-.427,3.135-1.203,2.423-2.3,3.757-5.406,3.757-8.747,0-3.436-1.467-6.718-4.024-9.004Zm-.421,17.026c-.631,.598-1.5,.928-2.446,.928H6.897c-.973,0-1.891-.376-2.585-1.058C1.823,18.5,.649,15.096,1.092,11.603,1.72,6.639,5.771,2.63,10.726,2.072c.433-.049,.862-.073,1.289-.073,2.701,0,5.254,.97,7.294,2.793,2.346,2.097,3.691,5.106,3.691,8.258,0,3.063-1.224,5.913-3.445,8.022Zm-.44-5.496l-5.14-2.256c.017-.104,.026-.211,.026-.32,0-1.103-.897-2-2-2s-2,.897-2,2,.897,2,2,2c.636,0,1.204-.299,1.571-.764l5.141,2.257c.065,.028,.134,.042,.201,.042,.192,0,.376-.111,.458-.299,.11-.253-.004-.548-.257-.659Zm-7.114-1.576c-.552,0-1-.448-1-1s.448-1,1-1,1,.448,1,1-.448,1-1,1Zm7.517-1.001c-.269,.024-.514-.19-.532-.466-.24-3.664-3.309-6.533-6.984-6.533-3.859,0-7,3.141-7,7,0,1.941,.817,3.812,2.241,5.134,.202,.188,.215,.504,.026,.706-.098,.106-.232,.16-.366,.16-.122,0-.244-.044-.34-.134-1.628-1.509-2.562-3.647-2.562-5.866,0-4.411,3.589-8,8-8,4.201,0,7.707,3.28,7.982,7.467,.018,.276-.19,.514-.466,.532Z"/></svg>
