<?xml version="1.0" encoding="UTF-8"?>
<svg xmlns="http://www.w3.org/2000/svg" id="Layer_1" data-name="Layer 1" viewBox="0 0 24 24" width="512" height="512"><path d="m16,10c1.654,0,3-1.346,3-3s-1.346-3-3-3-3,1.346-3,3c0,.35.061.687.172.999l-3.831,2.128c-.55-.686-1.395-1.127-2.341-1.127-1.654,0-3,1.346-3,3s1.346,3,3,3c.946,0,1.791-.441,2.341-1.127l3.83,2.128c-.111.313-.172.649-.172.999,0,1.654,1.346,3,3,3s3-1.346,3-3-1.346-3-3-3c-.946,0-1.791.441-2.341,1.127l-3.83-2.128c.111-.313.172-.649.172-.999s-.061-.686-.172-.999l3.831-2.128c.55.686,1.395,1.127,2.341,1.127Zm0,5c1.103,0,2,.897,2,2s-.897,2-2,2-2-.897-2-2c0-1.359,1.259-2,2-2Zm-9-1c-1.103,0-2-.897-2-2s.897-2,2-2,2,.897,2,2-.897,2-2,2Zm9-9c1.103,0,2,.897,2,2s-.897,2-2,2c-1.128,0-2-1-2-2,0-1.103.897-2,2-2Zm3.5-5H4.5C2.019,0,0,2.019,0,4.5v15c0,2.481,2.019,4.5,4.5,4.5h15c2.481,0,4.5-2.019,4.5-4.5V4.5c0-2.481-2.019-4.5-4.5-4.5Zm3.5,19.5c0,1.93-1.57,3.5-3.5,3.5H4.5c-1.93,0-3.5-1.57-3.5-3.5V4.5c0-1.93,1.57-3.5,3.5-3.5h15c1.93,0,3.5,1.57,3.5,3.5v15Z"/></svg>
