<?xml version="1.0" encoding="UTF-8"?>
<svg xmlns="http://www.w3.org/2000/svg" id="Layer_1" data-name="Layer 1" width="512" height="512" viewBox="0 0 24 24"><path d="M21.011,20.915c-.634,.72-1.527,1.088-2.427,1.088-.758,0-1.521-.261-2.137-.794l-.593-.513c-.209-.181-.231-.496-.051-.705,.181-.21,.496-.231,.705-.051l.593,.513c.919,.792,2.366,.702,3.159-.199,2.114-2.401,3.055-5.489,2.647-8.694-.608-4.789-4.193-8.561-8.922-9.386-3.269-.571-6.566,.307-9.06,2.401C2.432,6.673,1,9.743,1,13c0,2.669,.972,5.243,2.734,7.249,.811,.922,2.228,1.014,3.163,.204l.594-.514c.208-.179,.523-.158,.706,.052,.18,.209,.157,.525-.052,.706l-.594,.513c-1.347,1.165-3.396,1.031-4.568-.301-1.924-2.188-2.983-4.997-2.983-7.909C0,9.447,1.562,6.098,4.283,3.81,7.003,1.524,10.598,.565,14.158,1.189c5.163,.899,9.078,5.017,9.742,10.244,.443,3.494-.583,6.861-2.89,9.481Zm-7.011-7.915c0,1.103-.897,2-2,2s-2-.897-2-2c0-.37,.102-.717,.278-1.015l-3.631-3.631c-.195-.195-.195-.512,0-.707s.512-.195,.707,0l3.631,3.631c.298-.176,.645-.278,1.015-.278,1.103,0,2,.897,2,2Zm-1,0c0-.552-.448-1-1-1s-1,.448-1,1,.448,1,1,1,1-.448,1-1Z"/></svg>
