<?xml version="1.0" encoding="UTF-8"?>
<svg xmlns="http://www.w3.org/2000/svg" id="Layer_1" data-name="Layer 1" viewBox="0 0 24 24" width="512" height="512"><path d="m14.641,11.001c.833-.733,1.359-1.807,1.359-3.001,0-2.206-1.794-4-4-4h-3.5c-1.93,0-3.5,1.57-3.5,3.5v9c0,1.929,1.57,3.5,3.5,3.5h5.999c2.482,0,4.501-2.019,4.501-4.5,0-2.434-1.943-4.423-4.359-4.498Zm-8.641-3.501c0-1.378,1.122-2.5,2.5-2.5h3.5c1.654,0,3,1.346,3,3,0,1.639-1.321,2.975-2.954,3h-6.046s0-3.499,0-3.499Zm8.499,11.5h-5.999c-1.378,0-2.5-1.123-2.5-2.5v-4.5h6c.018,0,.036,0,.054,0h2.446c1.93,0,3.5,1.57,3.5,3.5s-1.571,3.501-3.501,3.501ZM19.5,0H4.5C2.019,0,0,2.019,0,4.5v15c0,2.481,2.019,4.5,4.5,4.5h15c2.481,0,4.5-2.019,4.5-4.5V4.5c0-2.481-2.019-4.5-4.5-4.5Zm3.5,19.5c0,1.93-1.57,3.5-3.5,3.5H4.5c-1.93,0-3.5-1.57-3.5-3.5V4.5c0-1.93,1.57-3.5,3.5-3.5h15c1.93,0,3.5,1.57,3.5,3.5v15Z"/></svg>
