<?xml version="1.0" encoding="UTF-8"?>
<svg xmlns="http://www.w3.org/2000/svg" id="Layer_1" data-name="Layer 1" viewBox="0 0 24 24">
  <path d="m24,8.059C24,3.636,18.617.037,12,.037S0,3.651,0,8.095c0,.005,0,.011,0,.016,0,.002,0,.004,0,.006v7.691c0,4.517,5.383,8.191,12,8.191s12-3.675,12-8.191v-7.691c0-.005,0-.011,0-.016,0-.014,0-.028,0-.042Zm-1,0c0,1.042-.367,2.031-1.022,2.919-.122.009-1.027.02-1.027.02-1.395-.036-3.593-.35-4.527-1.867-.841-1.788-.326-3.311,1.408-7.023,3.101,1.243,5.168,3.445,5.168,5.951ZM3.428,11.997c2.155-.007,5.412-.022,6.348.449,1.241.625,1.59,1.855,1.687,2.545-3.537-.107-6.64-1.268-8.53-2.992.022,0,.495-.003.495-.003Zm5.489-5.301c.818.869,1.75,1.304,3.084,1.304s2.271-.438,3.09-1.311c-.138,1.015-.008,1.933.456,2.917.381.621.903,1.085,1.488,1.43-1.49.06-2.63.201-3.26.518-.901.454-1.446,1.136-1.775,1.807-.329-.671-.874-1.354-1.775-1.807-.634-.319-1.784-.46-3.287-.519.605-.354,1.145-.832,1.541-1.478.451-.958.575-1.86.438-2.861Zm5.308,5.75c.936-.473,4.189-.458,6.348-.449,0,0,.438.003.476.004-1.891,1.723-4.985,2.883-8.509,2.991.1-.69.453-1.924,1.685-2.545Zm2.65-10.681c-1.903,3.803-2.667,5.235-4.874,5.235s-2.968-1.425-4.861-5.209c1.475-.481,3.129-.754,4.861-.754,1.749,0,3.404.262,4.874.728Zm-10.691.376c1.72,3.688,2.23,5.204,1.417,6.94-1.001,1.63-3.398,1.903-4.773,1.917,0,0-.674-.012-.823-.023-.645-.878-1.005-1.854-1.005-2.882,0-2.467,2.096-4.687,5.183-5.953Zm16.817,13.667c0,3.966-4.935,7.191-11,7.191S1,19.774,1,15.809v-4.556c.1.151,2.529,4.747,11.014,4.747s10.894-4.63,10.986-4.769v4.578Z"/>
</svg>
