<?xml version="1.0" encoding="UTF-8"?>
<svg xmlns="http://www.w3.org/2000/svg" id="Layer_1" data-name="Layer 1" viewBox="0 0 24 24" width="512" height="512"><path d="M17.159,24.013c-1.316,0-2.453-.812-2.877-2.084l-2.282-6.848-2.283,6.848c-.451,1.353-1.713,2.187-3.129,2.074-1.421-.111-2.533-1.131-2.767-2.537L.008,.59C-.042,.318,.139,.058,.41,.008c.271-.043,.532,.131,.582,.402l3.814,20.884c.196,1.173,1.125,1.654,1.86,1.712,.741,.051,1.729-.272,2.103-1.394l2.757-8.271c.136-.408,.812-.408,.948,0l2.757,8.271c.374,1.122,1.36,1.448,2.103,1.394,.735-.058,1.664-.539,1.858-1.704L23.008,.41c.049-.272,.314-.449,.582-.402,.271,.05,.451,.311,.402,.582l-3.814,20.884c-.233,1.398-1.345,2.418-2.766,2.529-.085,.007-.17,.01-.253,.01Z"/></svg>
