<?xml version="1.0" encoding="UTF-8"?>
<svg xmlns="http://www.w3.org/2000/svg" id="Layer_1" data-name="Layer 1" viewBox="0 0 24 24" width="512" height="512"><path d="M18.914,2l-1.425,.011c-1.601,0-2.354-.505-3.227-1.09-.299-.2-.6-.401-.934-.583-.411-.224-.838-.327-1.325-.337-.438,0-.921,.114-1.333,.337-.334,.182-.635,.383-.934,.583-.872,.585-1.626,1.09-3.227,1.09l-1.425-.011c-1.788,0-3.086,1.224-3.086,2.911v7.504c0,5.482,5.146,9.301,8.12,11.033,.474,.283,.926,.55,1.88,.551,.954-.001,1.406-.269,1.88-.551,2.974-1.733,8.12-5.551,8.12-11.033V4.911c0-1.687-1.298-2.911-3.086-2.911Zm2.086,10.416c0,4.982-4.845,8.55-7.633,10.175-.427,.255-.686,.409-1.367,.41-.682,0-.94-.155-1.367-.41-2.788-1.625-7.633-5.193-7.633-10.175v-3.416H21v3.416Zm0-4.416H3v-3.089c0-1.125,.857-1.911,2.086-1.911l1.425,.011c1.905,0,2.86-.641,3.783-1.26,.274-.184,.549-.369,.855-.536,.263-.144,.551-.2,.854-.215,.292-.032,.584,.072,.847,.215,.307,.167,.581,.353,.855,.536,.923,.619,1.878,1.26,3.783,1.26l1.425-.011c1.229,0,2.086,.786,2.086,1.911v3.089Z"/></svg>
