<?xml version="1.0" encoding="UTF-8"?>
<svg xmlns="http://www.w3.org/2000/svg" id="Layer_1" data-name="Layer 1" viewBox="0 0 24 24" width="512" height="512"><path d="M24,5.5c0,.276-.224,.5-.5,.5H11.964c-.085,.595-.32,1.155-.694,1.639-.38,.491-.38,1.231,0,1.723,.477,.617,.729,1.357,.729,2.139s-.252,1.521-.729,2.139c-.38,.491-.38,1.231,0,1.723,.477,.617,.729,1.357,.729,2.139s-.252,1.521-.729,2.139c-.38,.491-.38,1.231,0,1.723,.477,.617,.729,1.357,.729,2.139,0,.276-.224,.5-.5,.5s-.5-.224-.5-.5c0-.559-.18-1.087-.521-1.527-.66-.854-.66-2.092,0-2.945,.34-.44,.521-.969,.521-1.527s-.18-1.087-.521-1.527c-.66-.854-.66-2.092,0-2.945,.34-.44,.521-.969,.521-1.527s-.18-1.087-.521-1.527c-.66-.854-.66-2.092,0-2.945,.237-.306,.396-.655,.471-1.027h-2.971c-.084,.596-.32,1.156-.694,1.639-.379,.491-.379,1.231,0,1.723,.477,.616,.729,1.356,.729,2.139s-.252,1.522-.729,2.139c-.379,.491-.379,1.231,0,1.723,.477,.616,.729,1.356,.729,2.139s-.252,1.522-.729,2.139c-.379,.491-.379,1.231,0,1.723,.477,.616,.729,1.356,.729,2.139,0,.276-.224,.5-.5,.5s-.5-.224-.5-.5c0-.559-.18-1.087-.521-1.527-.66-.854-.66-2.092,0-2.945,.34-.44,.521-.969,.521-1.527s-.18-1.087-.521-1.527c-.66-.854-.66-2.092,0-2.945,.34-.44,.521-.969,.521-1.527s-.18-1.087-.521-1.527c-.66-.854-.66-2.092,0-2.945,.237-.306,.396-.655,.471-1.027H3.964c-.085,.595-.32,1.155-.694,1.639-.38,.491-.38,1.231,0,1.723,.477,.617,.729,1.357,.729,2.139s-.252,1.521-.729,2.139c-.38,.491-.38,1.231,0,1.723,.477,.617,.729,1.357,.729,2.139s-.252,1.521-.729,2.139c-.38,.491-.38,1.231,0,1.723,.477,.617,.729,1.357,.729,2.139,0,.276-.224,.5-.5,.5s-.5-.224-.5-.5c0-.559-.18-1.087-.521-1.527-.66-.854-.66-2.092,0-2.945,.34-.44,.521-.969,.521-1.527s-.18-1.087-.521-1.527c-.66-.854-.66-2.092,0-2.945,.34-.44,.521-.969,.521-1.527s-.18-1.087-.521-1.527c-.66-.854-.66-2.092,0-2.945,.237-.306,.396-.655,.471-1.027H.5c-.276,0-.5-.224-.5-.5s.224-.5,.5-.5H23.5c.276,0,.5,.224,.5,.5ZM.5,3c.015,0,.029,0,.044-.002L23.543,.998c.275-.023,.479-.267,.455-.541-.023-.276-.272-.477-.541-.455L.457,2.002C.182,2.025-.022,2.269,.002,2.543c.022,.261,.241,.457,.498,.457Z"/></svg>
