<?xml version="1.0" encoding="UTF-8"?>
<svg xmlns="http://www.w3.org/2000/svg" id="Layer_1" data-name="Layer 1" viewBox="0 0 24 24" width="512" height="512"><path d="M23.83,10.124l-2.907-2.548c-.826-.964-2.052-1.576-3.417-1.576h-6.838l-1.667-1.256V1.5c0-.276-.224-.5-.5-.5-1.216,0-2.232,.873-2.455,2.024-.031-.004-.062-.007-.093-.011-.227-1.146-1.24-2.014-2.453-2.014-.276,0-.5,.224-.5,.5v3.029L.829,7.171c-1.104,1.104-1.104,2.9,0,4.004,.54,.539,1.285,.824,2.155,.824,.465,0,1.04-.226,1.591-.47,.141-.062,.299-.057,.435,.013,.079,.041,.217,.14,.261,.359l.729,3.155v4.446c0,1.376,1.12,2.497,2.497,2.497,.668,0,1.296-.261,1.769-.734,.472-.474,.73-1.103,.729-1.771,0-.132,.051-.256,.144-.35,.093-.093,.218-.145,.35-.145h5.032c.271,0,.493,.221,.493,.517,.005,1.369,1.123,2.483,2.492,2.483,1.376,0,2.496-1.12,2.497-2.495l.005-9.012c0-.233-.018-.461-.053-.684l1.218,1.067c.095,.083,.212,.124,.33,.124,.139,0,.277-.058,.376-.17,.182-.208,.161-.523-.046-.706Zm-18.36,.531c-.406-.211-.88-.225-1.299-.04-.238,.105-.869,.384-1.187,.384-.418,0-1.008-.092-1.448-.531-.714-.714-.714-1.876,.033-2.626l2.317-2.817c.074-.09,.114-.202,.114-.318V2.086c.582,.207,1,.766,1,1.433,0,.139,.058,.272,.16,.367,.103,.095,.239,.144,.378,.132,.012,0,.119-.016,.131-.018,.221,0,.444,.04,.663,.117,.154,.055,.323,.03,.456-.062,.132-.094,.211-.246,.211-.409v-.146c0-.652,.418-1.208,1-1.415v2.907c0,.157,.074,.305,.199,.399l2,1.507c.086,.065,.192,.101,.301,.101h7.006c1.927,0,3.497,1.568,3.5,3.494l-.002,3.506H6.782l-.534-2.309c-.089-.448-.373-.826-.778-1.036Zm14.035,10.345c-.82,0-1.489-.667-1.492-1.511-.002-.821-.672-1.489-1.493-1.489h-5.032c-.4,0-.776,.156-1.058,.439s-.437,.659-.436,1.059c.001,.401-.154,.778-.437,1.062-.283,.284-.659,.44-1.06,.44-.825,0-1.497-.671-1.497-1.497v-4.503h14.003l-.002,4.504c0,.825-.672,1.496-1.497,1.496Zm-6.504-10c0-.552,.448-1,1-1s1,.448,1,1-.448,1-1,1-1-.448-1-1Zm4,0c0-.552,.448-1,1-1s1,.448,1,1-.448,1-1,1-1-.448-1-1Zm-8,0c0-.552,.448-1,1-1s1,.448,1,1-.448,1-1,1-1-.448-1-1Z"/></svg>
