<?xml version="1.0" encoding="UTF-8"?>
<svg xmlns="http://www.w3.org/2000/svg" id="Layer_1" data-name="Layer 1" viewBox="0 0 24 24" width="512" height="512"><path d="M23.5,1H.5c-.28,0-.5-.22-.5-.5S.22,0,.5,0H23.5c.28,0,.5,.22,.5,.5s-.22,.5-.5,.5Zm-.5,23c.55,0,1-.45,1-1s-.45-1-1-1-1,.45-1,1,.45,1,1,1Zm0-5c.55,0,1-.45,1-1s-.45-1-1-1-1,.45-1,1,.45,1,1,1Zm-22,0c.55,0,1-.45,1-1s-.45-1-1-1S0,17.45,0,18s.45,1,1,1ZM23,7c.55,0,1-.45,1-1s-.45-1-1-1-1,.45-1,1,.45,1,1,1ZM1,7c.55,0,1-.45,1-1s-.45-1-1-1S0,5.45,0,6s.45,1,1,1Zm0,17c.55,0,1-.45,1-1s-.45-1-1-1S0,22.45,0,23s.45,1,1,1Zm5,0c.55,0,1-.45,1-1s-.45-1-1-1-1,.45-1,1,.45,1,1,1Zm6,0c.55,0,1-.45,1-1s-.45-1-1-1-1,.45-1,1,.45,1,1,1Zm6,0c.55,0,1-.45,1-1s-.45-1-1-1-1,.45-1,1,.45,1,1,1Zm5-11c.55,0,1-.45,1-1s-.45-1-1-1-1,.45-1,1,.45,1,1,1ZM1,13c.55,0,1-.45,1-1s-.45-1-1-1S0,11.45,0,12s.45,1,1,1Zm5,0c.55,0,1-.45,1-1s-.45-1-1-1-1,.45-1,1,.45,1,1,1Zm6,0c.55,0,1-.45,1-1s-.45-1-1-1-1,.45-1,1,.45,1,1,1Zm6,0c.55,0,1-.45,1-1s-.45-1-1-1-1,.45-1,1,.45,1,1,1Zm-7-7c0,.55,.45,1,1,1s1-.45,1-1-.45-1-1-1-1,.45-1,1Zm0,12c0,.55,.45,1,1,1s1-.45,1-1-.45-1-1-1-1,.45-1,1Z"/></svg>
