<?xml version="1.0" encoding="UTF-8"?>
<svg xmlns="http://www.w3.org/2000/svg" id="Layer_1" data-name="Layer 1" viewBox="0 0 24 24" width="512" height="512"><path d="M7,3.5c0-1.93-1.57-3.5-3.5-3.5S0,1.57,0,3.5c0,1.76,1.306,3.221,3,3.464v10.072c-1.694,.243-3,1.704-3,3.464,0,1.93,1.57,3.5,3.5,3.5s3.5-1.57,3.5-3.5c0-1.76-1.306-3.221-3-3.464V6.964c1.694-.243,3-1.704,3-3.464ZM1,3.5c0-1.378,1.121-2.5,2.5-2.5s2.5,1.122,2.5,2.5-1.121,2.5-2.5,2.5S1,4.878,1,3.5ZM6,20.5c0,1.378-1.121,2.5-2.5,2.5s-2.5-1.122-2.5-2.5,1.121-2.5,2.5-2.5,2.5,1.122,2.5,2.5Zm15-3.464V7.5c0-.276-.224-.5-.5-.5s-.5,.224-.5,.5v9.536c-1.694,.243-3,1.704-3,3.464,0,1.93,1.57,3.5,3.5,3.5s3.5-1.57,3.5-3.5c0-1.76-1.306-3.221-3-3.464Zm-.5,5.964c-1.379,0-2.5-1.122-2.5-2.5s1.121-2.5,2.5-2.5,2.5,1.122,2.5,2.5-1.121,2.5-2.5,2.5Zm3.354-16.854c.195,.195,.195,.512,0,.707-.098,.098-.226,.146-.354,.146s-.256-.049-.354-.146l-2.646-2.646-2.646,2.646c-.098,.098-.226,.146-.354,.146s-.256-.049-.354-.146c-.195-.195-.195-.512,0-.707l2.646-2.646-2.646-2.646c-.195-.195-.195-.512,0-.707s.512-.195,.707,0l2.646,2.646L23.146,.146c.195-.195,.512-.195,.707,0s.195,.512,0,.707l-2.646,2.646,2.646,2.646Z"/></svg>
