<?xml version="1.0" encoding="UTF-8"?>
<svg xmlns="http://www.w3.org/2000/svg" id="Layer_1" data-name="Layer 1" viewBox="0 0 24 24" width="512" height="512"><path d="M24,.5V23.5c0,.28-.22,.5-.5,.5s-.5-.22-.5-.5V.5c0-.28,.22-.5,.5-.5s.5,.22,.5,.5Zm-3.5,11H1.09c.07-.21,.2-.4,.36-.57L5.86,6.35c.19-.2,.19-.52-.01-.71-.2-.19-.51-.19-.71,.01L.73,10.23c-.47,.47-.73,1.1-.73,1.77s.26,1.3,.73,1.76l4.41,4.59c.1,.1,.23,.15,.36,.15s.25-.05,.35-.14c.2-.19,.21-.51,.01-.71L1.44,13.06c-.16-.16-.28-.35-.35-.56,0,0,0,0,0,0H20.5c.28,0,.5-.22,.5-.5s-.22-.5-.5-.5Z"/></svg>
