<?xml version="1.0" encoding="UTF-8"?>
<svg xmlns="http://www.w3.org/2000/svg" id="Layer_1" data-name="Layer 1" viewBox="0 0 24 24" width="512" height="512"><path d="m2.154,6.861c-.199-.191-.206-.507-.016-.707l1.913-2c.286-.298.948-.067.948.346v10c0,.276-.224.5-.5.5s-.5-.224-.5-.5V5.655l-1.139,1.19c-.19.199-.507.207-.707.016Zm13.846.639V3.5c0-1.93,1.57-3.5,3.5-3.5s3.5,1.57,3.5,3.5v4c0,1.93-1.57,3.5-3.5,3.5s-3.5-1.57-3.5-3.5Zm1,0c0,1.378,1.121,2.5,2.5,2.5s2.5-1.122,2.5-2.5V3.5c0-1.378-1.121-2.5-2.5-2.5s-2.5,1.122-2.5,2.5v4Zm-10,2v-4c0-1.93,1.57-3.5,3.5-3.5s3.5,1.57,3.5,3.5v4c0,1.93-1.57,3.5-3.5,3.5s-3.5-1.57-3.5-3.5Zm1,0c0,1.378,1.121,2.5,2.5,2.5s2.5-1.122,2.5-2.5v-4c0-1.378-1.121-2.5-2.5-2.5s-2.5,1.122-2.5,2.5v4Zm15.988,4.894c-.059-.269-.321-.441-.595-.382L.394,19.011c-.27.059-.44.325-.382.595.051.234.258.394.488.394.035,0,.07-.003.106-.011l23-5c.27-.059.44-.325.382-.595Zm0,5.496c-.06-.268-.325-.438-.598-.377l-15.5,3.5c-.27.061-.438.329-.377.598.052.232.258.39.487.39.036,0,.073-.004.11-.012l15.5-3.5c.27-.061.438-.329.377-.598Z"/></svg>
