<?xml version="1.0" encoding="UTF-8"?>
<svg xmlns="http://www.w3.org/2000/svg" id="Layer_1" data-name="Layer 1" viewBox="0 0 24 24">
  <path d="m14.25,12c-.962,0-1.765.415-2.25,1.09-.485-.675-1.288-1.09-2.25-1.09-1.517,0-2.75,1.314-2.75,2.93,0,2.115,2.549,4.708,3.897,5.783.325.259.714.388,1.103.388s.778-.129,1.104-.388c1.348-1.075,3.896-3.667,3.896-5.783,0-1.616-1.233-2.93-2.75-2.93Zm-1.77,7.931c-.282.226-.677.226-.959,0-1.462-1.166-3.521-3.488-3.521-5,0-1.064.785-1.93,1.75-1.93,1.03,0,1.75.703,1.75,1.709,0,.276.224.5.5.5s.5-.224.5-.5c0-1.006.72-1.709,1.75-1.709.965,0,1.75.866,1.75,1.93,0,1.512-2.059,3.835-3.52,5ZM19.5,2h-1.5V.5c0-.276-.224-.5-.5-.5s-.5.224-.5.5v1.5H7V.5c0-.276-.224-.5-.5-.5s-.5.224-.5.5v1.5h-1.5C2.019,2,0,4.019,0,6.5v13c0,2.481,2.019,4.5,4.5,4.5h15c2.481,0,4.5-2.019,4.5-4.5V6.5c0-2.481-2.019-4.5-4.5-4.5Zm-15,1h15c1.93,0,3.5,1.57,3.5,3.5v1.5H1v-1.5c0-1.93,1.57-3.5,3.5-3.5Zm15,20H4.5c-1.93,0-3.5-1.57-3.5-3.5v-10.5h22v10.5c0,1.93-1.57,3.5-3.5,3.5Z"/>
</svg>
