<?xml version="1.0" encoding="UTF-8"?>
<svg xmlns="http://www.w3.org/2000/svg" id="Layer_1" data-name="Layer 1" width="512" height="512" viewBox="0 0 24 24"><path d="M23.5,20h-2.5V4.5c0-2.481-2.019-4.5-4.5-4.5H4.5C2.019,0,0,2.019,0,4.5v12c0,2.324,1.77,4.241,4.032,4.476,.233,1.706,1.699,3.024,3.468,3.024s3.221-1.306,3.464-3h12.536c.276,0,.5-.224,.5-.5s-.224-.5-.5-.5ZM4.5,1h12c1.93,0,3.5,1.57,3.5,3.5V13h-3V4.5c0-.276-.224-.5-.5-.5s-.5,.224-.5,.5V13h-3V4.5c0-.276-.224-.5-.5-.5s-.5,.224-.5,.5V13h-3V4.5c0-.276-.224-.5-.5-.5s-.5,.224-.5,.5V13h-3V4.5c0-.276-.224-.5-.5-.5s-.5,.224-.5,.5V13H1V4.5c0-1.93,1.57-3.5,3.5-3.5ZM1,16.5v-2.5H20v6H10.964c-.243-1.694-1.704-3-3.464-3-1.749,0-3.204,1.291-3.46,2.97-1.713-.226-3.04-1.696-3.04-3.47Zm6.5,6.5c-1.378,0-2.5-1.121-2.5-2.5s1.122-2.5,2.5-2.5,2.5,1.121,2.5,2.5-1.122,2.5-2.5,2.5Z"/></svg>
