<?xml version="1.0" encoding="UTF-8"?>
<svg xmlns="http://www.w3.org/2000/svg" id="Layer_1" data-name="Layer 1" viewBox="0 0 24 24" width="512" height="512"><path d="M12.85,.03C9.37-.21,5.97,1.06,3.51,3.51,1.06,5.97-.21,9.38,.03,12.85c.43,6.25,5.85,11.15,12.32,11.15h6.15c3.39,0,5.5-2.07,5.5-5.4v-6.25C24,5.88,19.1,.46,12.85,.03Zm10.15,18.57c0,2.75-1.68,4.4-4.5,4.4h-6.15c-5.95,0-10.93-4.49-11.33-10.21-.22-3.19,.94-6.31,3.19-8.56,2.07-2.07,4.88-3.22,7.79-3.22,.25,0,.51,0,.77,.03,5.73,.4,10.21,5.37,10.21,11.33v6.25Z"/></svg>
