<?xml version="1.0" encoding="UTF-8"?>
<svg xmlns="http://www.w3.org/2000/svg" id="Layer_1" data-name="Layer 1" viewBox="0 0 24 24" width="512" height="512"><path d="M23.28,16.74c.48,.48,.72,1.12,.72,1.76,0,.64-.25,1.28-.73,1.77l-3.41,3.58c-.1,.1-.23,.16-.36,.16-.12,0-.25-.05-.34-.14-.2-.19-.21-.51-.02-.71l3.41-3.59c.17-.17,.27-.36,.35-.57h-7.65c-1.25,0-2.46-.53-3.31-1.45l-4.66-5.05H.5c-.28,0-.5-.22-.5-.5s.22-.5,.5-.5H7.28l4.66-5.05c.85-.92,2.05-1.45,3.31-1.45h7.65c-.07-.2-.18-.4-.34-.56l-3.42-3.59c-.19-.2-.18-.52,.02-.71,.2-.19,.51-.18,.71,.02l3.41,3.59c.48,.48,.72,1.12,.72,1.76,0,.64-.25,1.28-.73,1.77l-3.41,3.58c-.1,.1-.23,.16-.36,.16-.12,0-.25-.05-.34-.14-.2-.19-.21-.51-.02-.71l3.41-3.59c.17-.17,.27-.36,.35-.57h-7.65c-.97,0-1.91,.41-2.57,1.13l-4.5,4.87,4.5,4.87c.66,.72,1.6,1.13,2.57,1.13h7.65c-.07-.2-.18-.4-.34-.56l-3.42-3.59c-.19-.2-.18-.52,.02-.71,.2-.19,.51-.18,.71,.02l3.41,3.59Z"/></svg>
