<?xml version="1.0" encoding="UTF-8"?>
<svg xmlns="http://www.w3.org/2000/svg" id="Layer_1" data-name="Layer 1" viewBox="0 0 24 24" width="512" height="512"><path d="M13,12c0,.552-.448,1-1,1s-1-.448-1-1,.448-1,1-1,1,.448,1,1Zm-1,2c-.552,0-1,.448-1,1s.448,1,1,1,1-.448,1-1-.448-1-1-1Zm9.788-4.406c-.288,.678-.854,1.204-1.549,1.444l-1.577,.562c-.994,.354-1.662,1.3-1.662,2.355v.377c0,1.054,.301,2.08,.869,2.967l1.718,2.682c.397,.62,.515,1.383,.321,2.093-.192,.71-.683,1.31-1.343,1.646-1.178,.597-2.688,.148-3.439-1.024l-2.01-3.073c-.252-.386-.662-.609-1.123-.61h-.005c-.46,0-.868,.219-1.122,.603l-2.115,3.189c-.394,.613-1.038,1.039-1.766,1.16-.142,.023-.284,.035-.426,.035-.586,0-1.162-.198-1.63-.568-1.001-.793-1.232-2.42-.506-3.553l1.707-2.665c.568-.887,.869-1.913,.869-2.967v-.282c0-1.05-.663-1.995-1.65-2.352l-1.6-.578c-.689-.238-1.255-.765-1.543-1.442-.289-.677-.275-1.452,.035-2.124,.534-1.158,2.058-1.767,3.334-1.327l2.73,.925c-.508-.729-.806-1.613-.806-2.567C7.5,2.019,9.519,0,12,0s4.5,2.019,4.5,4.5c0,.953-.298,1.837-.805,2.566l2.728-.925c1.27-.438,2.797,.17,3.331,1.328,.311,.673,.323,1.447,.034,2.125ZM8.5,4.5c0,1.93,1.57,3.5,3.5,3.5s3.5-1.57,3.5-3.5-1.57-3.5-3.5-3.5-3.5,1.57-3.5,3.5Zm12.346,3.388c-.317-.688-1.315-1.069-2.1-.801l-4.653,1.577c-1.349,.457-2.837,.458-4.186,0l-4.654-1.577c-.173-.06-.356-.088-.54-.088-.652,0-1.314,.351-1.562,.888-.195,.423-.204,.889-.023,1.312,.178,.418,.526,.743,.956,.892l1.606,.581c1.382,.5,2.311,1.823,2.311,3.292v.282c0,1.246-.355,2.458-1.027,3.507l-1.707,2.665c-.446,.695-.311,1.758,.285,2.229,.363,.288,.809,.406,1.271,.331,.448-.075,.847-.337,1.092-.72l2.119-3.196c.437-.658,1.167-1.05,1.956-1.05h.008c.792,.002,1.524,.4,1.958,1.063l2.012,3.077c.479,.749,1.422,1.044,2.146,.676,.415-.211,.71-.572,.831-1.017,.119-.438,.047-.909-.198-1.292l-1.718-2.682c-.672-1.048-1.027-2.261-1.027-3.506v-.377c0-1.477,.935-2.802,2.326-3.298l1.582-.563c.434-.149,.782-.474,.96-.892,.181-.424,.173-.89-.022-1.313Z"/></svg>
