<?xml version="1.0" encoding="UTF-8"?>
<svg xmlns="http://www.w3.org/2000/svg" id="Layer_1" data-name="Layer 1" viewBox="0 0 24 24" width="512" height="512"><path d="M9.915,12.089L.33,15.561c-.161,.058-.281,.195-.318,.362-.037,.167,.014,.341,.135,.462l3.381,3.381L.159,23.134c-.195,.195-.195,.512,0,.707,.098,.098,.226,.146,.354,.146s.256-.049,.354-.146l3.368-3.368,3.381,3.381c.095,.095,.223,.146,.354,.146,.036,0,.072-.004,.108-.012,.167-.038,.304-.157,.361-.318l3.472-9.586,.003-.009c.195-.57,.052-1.189-.374-1.615-.428-.427-1.046-.57-1.624-.372Zm1.054,1.66l-3.202,8.842L1.409,16.233l8.838-3.201c.21-.071,.428-.021,.585,.136,.155,.155,.206,.372,.137,.581Zm13.031-3.749c0,5.514-4.486,10-10,10-.527,0-1.058-.042-1.578-.124-.272-.043-.459-.299-.416-.572,.043-.273,.306-.463,.572-.416,.469,.074,.947,.111,1.422,.111,4.963,0,9-4.038,9-9S18.963,1,14,1,5,5.038,5,10c0,.477,.037,.955,.111,1.422,.043,.273-.144,.529-.416,.572-.268,.043-.529-.143-.572-.416-.082-.519-.123-1.049-.123-1.578C4,4.486,8.486,0,14,0s10,4.486,10,10Zm-5,0c0-2.757-2.243-5-5-5-2.605,0-4.747,1.954-4.979,4.545-.025,.275-.276,.477-.543,.453-.274-.025-.478-.268-.453-.543,.279-3.11,2.849-5.455,5.976-5.455,3.309,0,6,2.691,6,6,0,3.126-2.345,5.695-5.455,5.976-.016,.001-.03,.002-.046,.002-.256,0-.474-.195-.497-.455-.024-.275,.178-.518,.453-.543,2.591-.234,4.545-2.375,4.545-4.979Z"/></svg>
