<?xml version="1.0" encoding="UTF-8"?>
<svg xmlns="http://www.w3.org/2000/svg" id="Layer_1" data-name="Layer 1" viewBox="0 0 24 24">
  <path d="m22.887,6.487c.718-.718,1.113-1.672,1.113-2.688s-.396-1.97-1.113-2.687c-1.434-1.437-3.938-1.435-5.374,0-.527.529-.646.423-1.09.021-.854-.773-1.751-1.134-2.823-1.134-2.096,0-3.8,1.704-3.8,3.816,0,.201-.062.368-.174.472-.097.089-.227.123-.385.114-.196-.018-.899-.002-.899-.002-2.229,0-4.042,1.813-4.042,4.042,0,.31-.12.388-.562.512-.076.021-.146.042-.204.062-1.516.534-2.534,1.975-2.534,3.583,0,1.692,2.392,5.286,3.218,6.476L.146,23.146c-.195.195-.195.512,0,.707.098.098.226.146.354.146s.256-.049.354-.146l4.071-4.071c1.19.826,4.784,3.218,6.476,3.218,1.608,0,3.049-1.019,3.582-2.533.021-.06.042-.129.063-.205.124-.441.202-.562.512-.562,2.229,0,4.042-1.813,4.042-4.042,0-.228-.016-.502-.038-.776-.015-.179.044-.35.165-.481.119-.129.281-.2.474-.2,2.096,0,3.8-1.704,3.8-3.8,0-1.072-.36-1.97-1.134-2.823-.401-.442-.509-.561.021-1.09Zm-2.703,6.713c-.451,0-.886.19-1.192.522-.308.335-.463.787-.426,1.241.021.245.034.49.034.694,0,1.678-1.364,3.042-3.042,3.042-1.11,0-1.518,1.434-1.518,1.434-.394,1.116-1.454,1.866-2.64,1.866-1.222,0-4.225-1.887-5.756-2.937l8.209-8.209c.195-.195.195-.512,0-.707s-.512-.195-.707,0l-8.209,8.209c-1.05-1.531-2.937-4.534-2.937-5.756,0-1.186.75-2.246,1.867-2.641,0,0,1.433-.406,1.433-1.517,0-1.678,1.364-3.042,3.042-3.042,0,0,.653-.014.817-.002.442.039.843-.097,1.145-.375.319-.295.496-.724.496-1.224,0-1.544,1.256-2.8,2.8-2.8.82,0,1.484.27,2.151.874.442.402,1.27,1.146,2.469-.054,1.059-1.059,2.903-1.059,3.96,0,.529.528.82,1.231.82,1.979s-.291,1.451-.82,1.98c-1.204,1.202-.456,2.026-.054,2.469.604.667.874,1.331.874,2.151,0,1.544-1.256,2.8-2.816,2.8Z"/>
</svg>
