<?xml version="1.0" encoding="UTF-8"?>
<svg xmlns="http://www.w3.org/2000/svg" id="Layer_1" data-name="Layer 1" viewBox="0 0 24 24" width="512" height="512"><path d="m19.5,2h-1.5V.5c0-.276-.224-.5-.5-.5s-.5.224-.5.5v1.5H7V.5c0-.276-.224-.5-.5-.5s-.5.224-.5.5v1.5h-1.5C2.019,2,0,4.019,0,6.5v13c0,2.481,2.019,4.5,4.5,4.5h15c2.481,0,4.5-2.019,4.5-4.5V6.5c0-2.481-2.019-4.5-4.5-4.5Zm-15,1h15c1.93,0,3.5,1.57,3.5,3.5v1.5H1v-1.5c0-1.93,1.57-3.5,3.5-3.5ZM1,19.5v-10.5h22v.129l-7.334,7.334c-.71.711-1.948.711-2.658,0l-.635-.635c-1.088-1.088-2.984-1.088-4.072,0l-6.208,6.208c-.672-.638-1.092-1.54-1.092-2.537Zm18.5,3.5H4.5c-.568,0-1.105-.136-1.579-.377l6.087-6.087c.71-.711,1.948-.711,2.658,0l.635.635c1.088,1.088,2.984,1.088,4.072,0l6.627-6.627v8.957c0,1.93-1.57,3.5-3.5,3.5ZM4,13c0-.552.448-1,1-1s1,.448,1,1-.448,1-1,1-1-.448-1-1Z"/></svg>
