<?xml version="1.0" encoding="UTF-8"?>
<svg xmlns="http://www.w3.org/2000/svg" id="Layer_1" data-name="Layer 1" viewBox="0 0 24 24">
  <path d="m22.671,15.17c-5.653-1.051-8.751,3.008-10.171,5.765v-6.009c.275-.088.528-.239.724-.456.778-.863,1.25-1.778,1.386-2.676.965.289,1.992.199,2.75.048.453-.09.85-.372,1.087-.772.241-.408.297-.901.154-1.354-.205-.649-.571-1.506-1.193-2.19.622-.684.988-1.541,1.193-2.19.143-.452.087-.945-.154-1.353-.237-.4-.633-.683-1.087-.773-.755-.15-1.779-.242-2.742.047-.123-.903-.59-1.81-1.393-2.701-.623-.69-1.827-.69-2.449,0-.803.892-1.271,1.798-1.393,2.701-.963-.289-1.988-.197-2.742-.047-.454.09-.85.372-1.087.773-.241.408-.297.901-.154,1.353.204.644.566,1.496,1.183,2.179-.617.683-.979,1.535-1.183,2.179-.143.452-.087.945.154,1.353.237.401.633.683,1.087.773.757.152,1.784.242,2.747-.048.131.904.604,1.827,1.388,2.697.196.217.449.368.724.456v5.955c-1.429-2.758-4.521-6.761-10.147-5.711-.824.153-1.404.922-1.32,1.748.211,2.095,1.088,3.766,2.606,4.968,2.294,1.816,5.514,2.145,7.543,2.145.928,0,1.603-.068,1.83-.094.227.026.902.094,1.83.094,2.029,0,5.249-.328,7.543-2.144,1.519-1.203,2.396-2.874,2.606-4.968.084-.827-.495-1.596-1.32-1.749Zm-12.32-3.909v-.218c0-.176-.093-.34-.245-.43-.079-.046-.167-.07-.255-.07-.083,0-.165.021-.239.061-.923.503-2.134.364-2.775.236-.178-.036-.328-.143-.421-.301-.097-.164-.119-.361-.062-.542.204-.645.589-1.531,1.269-2.096.114-.095.18-.236.18-.384s-.066-.289-.18-.384c-.679-.565-1.064-1.452-1.269-2.097-.057-.181-.035-.379.062-.542.094-.159.244-.266.421-.301.64-.127,1.851-.267,2.775.237.147.08.326.083.474.002.148-.079.248-.228.263-.395.011-.121.022-.244.003-.361.02-.788.413-1.611,1.167-2.449.247-.273.715-.273.962,0,.775.861,1.168,1.706,1.168,2.512v.251c0,.176.093.34.245.43.151.091.341.094.494.009.924-.503,2.134-.364,2.775-.237.178.036.327.143.421.301.097.164.119.362.062.543-.206.649-.595,1.542-1.279,2.105-.116.095-.183.237-.183.386s.066.291.183.386c.685.563,1.073,1.456,1.279,2.105.057.182.034.38-.062.543-.094.159-.243.265-.421.301-.64.127-1.852.267-2.775-.235-.157-.085-.343-.081-.495.009-.151.09-.244.253-.244.43v.195c0,1.027-.636,1.948-1.168,2.539-.12.133-.292.199-.465.203-.006,0-.01-.003-.016-.003s-.01.003-.016.003c-.173-.004-.345-.07-.465-.203-.533-.591-1.168-1.512-1.168-2.539Zm-7.093,9.84c-1.296-1.028-2.047-2.469-2.229-4.283-.032-.313.191-.605.508-.665.563-.104,1.098-.152,1.606-.152,5.26,0,7.576,5.207,8.213,6.988-1.516.096-5.544.136-8.098-1.888Zm17.509,0c-2.553,2.024-6.578,1.986-8.097,1.888.7-1.954,3.402-8.028,9.819-6.836.317.06.54.352.509.666-.184,1.813-.934,3.254-2.23,4.282Zm-8.767-12.588c-.552,0-1-.448-1-1s.448-1,1-1,1,.448,1,1-.448,1-1,1Z"/>
</svg>
