<?xml version="1.0" encoding="UTF-8"?>
<svg xmlns="http://www.w3.org/2000/svg" id="Layer_1" data-name="Layer 1" viewBox="0 0 24 24" width="512" height="512"><path d="M10.32,22c-.68,0-1.34-.27-1.86-.78L1.12,14.67c-1.48-1.48-1.48-3.85-.02-5.31L8.48,2.77c.75-.76,1.86-.98,2.88-.56,1.01,.42,1.64,1.36,1.65,2.45v2.34h7.53c1.92,0,3.47,1.57,3.47,3.5v2.99c0,1.93-1.56,3.51-3.47,3.51h-7.53v2.34c0,1.1-.64,2.04-1.65,2.45-.34,.14-.69,.21-1.03,.21Zm0-19c-.38,0-.8,.13-1.16,.49L1.78,10.08c-1.05,1.05-1.05,2.79,.02,3.86l7.34,6.55s.01,.01,.02,.02c.58,.58,1.31,.57,1.81,.36,.5-.2,1.03-.71,1.03-1.53v-2.84c0-.28,.22-.5,.5-.5h8.03c1.36,0,2.47-1.12,2.47-2.51v-2.99c0-1.38-1.11-2.51-2.47-2.51H12.5s0,0,0,0c-.13,0-.26-.05-.35-.15s-.15-.22-.15-.35v-2.84c0-.82-.53-1.33-1.03-1.53-.19-.08-.41-.13-.65-.13Z"/></svg>
