<?xml version="1.0" encoding="UTF-8"?>
<svg xmlns="http://www.w3.org/2000/svg" id="Layer_1" data-name="Layer 1" viewBox="0 0 24 24" width="512" height="512"><path d="M24,8.5c0-.041-.005-.082-.015-.121L21.985,.379c-.056-.223-.256-.379-.485-.379H2.5c-.229,0-.429,.156-.485,.379L.015,8.379c-.01,.04-.015,.08-.015,.121,0,.951,.382,1.815,1,2.447v9.553c0,1.93,1.57,3.5,3.5,3.5h7c1.93,0,3.5-1.57,3.5-3.5V11.662c.623-.297,1.146-.773,1.5-1.361,.613,1.017,1.728,1.699,3,1.699h1c.536,0,1.045-.122,1.5-.338v11.838c0,.276,.224,.5,.5,.5s.5-.224,.5-.5V10.987c0-.013,0-.026-.002-.039,.619-.632,1.002-1.496,1.002-2.449Zm-12.5,14.5H4.5c-1.378,0-2.5-1.122-2.5-2.5v-2.5H14v2.5c0,1.378-1.122,2.5-2.5,2.5Zm2.5-6H2v-5.338c.455,.217,.964,.338,1.5,.338h1c1.272,0,2.387-.682,3-1.699,.613,1.017,1.728,1.699,3,1.699h3c.17,0,.337-.012,.5-.036v5.036Zm5.5-6c-1.379,0-2.5-1.122-2.5-2.5,0-.276-.224-.5-.5-.5s-.5,.224-.5,.5c0,1.378-1.121,2.5-2.5,2.5h-3c-1.378,0-2.5-1.122-2.5-2.5,0-.276-.224-.5-.5-.5s-.5,.224-.5,.5c0,1.378-1.122,2.5-2.5,2.5h-1c-.625,0-1.198-.231-1.637-.612-.019-.02-.039-.038-.06-.054-.48-.445-.786-1.074-.803-1.775L2.891,1H7v3.5c0,.276,.224,.5,.5,.5s.5-.224,.5-.5V1h8v3.5c0,.276,.224,.5,.5,.5s.5-.224,.5-.5V1h4.109l1.89,7.559c-.031,1.352-1.141,2.441-2.499,2.441h-1Z"/></svg>
