<?xml version="1.0" encoding="UTF-8"?>
<svg xmlns="http://www.w3.org/2000/svg" id="Layer_1" data-name="Layer 1" viewBox="0 0 24 24" width="512" height="512"><path d="M23.854,23.146l-6.428-6.428c1.607-1.775,2.596-4.12,2.596-6.697C20.021,4.508,15.535,.021,10.021,.021S.021,4.508,.021,10.021s4.486,10,10,10c2.577,0,4.922-.989,6.697-2.596l6.428,6.428c.098,.098,.226,.146,.354,.146s.256-.049,.354-.146c.195-.195,.195-.512,0-.707ZM1.021,10.021C1.021,5.059,5.059,1.021,10.021,1.021s9,4.037,9,9-4.037,9-9,9S1.021,14.984,1.021,10.021ZM10,4.008c-1.334,0-2.589,.513-3.532,1.443-.946,.933-1.468,2.173-1.468,3.492s.521,2.562,1.472,3.499l2.039,1.967c.417,.402,.953,.604,1.489,.604s1.071-.201,1.488-.604l2.044-1.971c.947-.934,1.468-2.175,1.468-3.495s-.521-2.56-1.468-3.492c-.944-.931-2.199-1.443-3.532-1.443Zm2.835,7.714l-2.04,1.967c-.439,.425-1.151,.423-1.591,0l-2.035-1.963c-.754-.743-1.169-1.731-1.169-2.781s.415-2.037,1.17-2.781c.755-.745,1.76-1.155,2.83-1.155s2.074,.41,2.831,1.156c.754,.743,1.169,1.73,1.169,2.78s-.415,2.038-1.165,2.777Zm-1.835-2.728c0,.552-.448,1-1,1s-1-.448-1-1,.448-1,1-1,1,.448,1,1Z"/></svg>
