<?xml version="1.0" encoding="UTF-8"?>
<svg xmlns="http://www.w3.org/2000/svg" id="Layer_1" data-name="Layer 1" viewBox="0 0 24 24" width="512" height="512"><path d="M1,12c0,6.98,4.77,11.08,4.82,11.12,.21,.18,.24,.49,.06,.7-.1,.12-.24,.18-.38,.18-.11,0-.23-.04-.32-.12-.21-.18-5.18-4.42-5.18-11.88S4.97,.29,5.18,.12c.21-.18,.53-.15,.7,.06,.18,.21,.15,.53-.06,.7-.05,.04-4.82,4.13-4.82,11.12ZM18.82,.12c-.21-.18-.53-.15-.7,.06-.18,.21-.15,.53,.06,.7,.05,.04,4.82,4.13,4.82,11.12s-4.77,11.08-4.82,11.12c-.21,.18-.24,.49-.06,.7,.1,.12,.24,.18,.38,.18,.11,0,.23-.04,.32-.12,.21-.18,5.18-4.42,5.18-11.88S19.03,.29,18.82,.12Z"/></svg>
