<?xml version="1.0" encoding="UTF-8"?>
<svg xmlns="http://www.w3.org/2000/svg" id="Layer_1" data-name="Layer 1" viewBox="0 0 24 24" width="512" height="512"><path d="M21.5,0h-3c-.276,0-.5,.224-.5,.5s.224,.5,.5,.5h3c.231,0,.451,.053,.646,.147l-4.446,4.446C13.225,1.44,6.385,.819,1.238,4.159,.548,4.607,.102,5.338,.016,6.164c-.088,.837,.201,1.657,.794,2.25l7.035,7.035-2.552,2.552H.5c-.276,0-.5,.224-.5,.5s.224,.5,.5,.5h3.793l-3.146,3.146c-.195,.195-.195,.512,0,.707,.098,.098,.226,.146,.354,.146s.256-.049,.354-.146l3.146-3.146v3.793c0,.276,.224,.5,.5,.5s.5-.224,.5-.5v-4.793l2.552-2.552,7.035,7.035c.523,.523,1.223,.81,1.955,.81,.098,0,.196-.005,.295-.016,.826-.086,1.556-.532,2.004-1.223,3.34-5.146,2.719-11.987-1.433-16.462L22.853,1.854c.094,.196,.147,.415,.147,.646v3c0,.276,.224,.5,.5,.5s.5-.224,.5-.5V2.5c0-1.378-1.122-2.5-2.5-2.5ZM1.517,7.707c-.378-.379-.563-.903-.507-1.438,.055-.524,.337-.987,.773-1.27,2.056-1.334,4.404-1.986,6.743-1.986,3.067,0,6.116,1.121,8.467,3.288L8.552,14.741,1.517,7.707Zm17.485,14.51c-.283,.437-.746,.718-1.27,.773-.538,.056-1.06-.128-1.438-.507l-7.035-7.035L17.7,7.007c3.82,4.143,4.387,10.458,1.302,15.21Z"/></svg>
