<?xml version="1.0" encoding="UTF-8"?>
<svg xmlns="http://www.w3.org/2000/svg" id="Layer_1" data-name="Layer 1" viewBox="0 0 24 24" width="512" height="512"><path d="m12,18c-.276,0-.5-.224-.5-.5v-8.039c0-.276.224-.5.5-.5s.5.224.5.5v8.039c0,.276-.224.5-.5.5Zm0,2c-.552,0-1,.448-1,1s.448,1,1,1,1-.448,1-1-.448-1-1-1Zm11.852-11.136c-.381-1.167-1.386-1.864-2.688-1.864h-4.956l-1.515-5.038c-.389-1.21-1.42-1.962-2.692-1.962s-2.304.752-2.695,1.972l-1.512,5.028H2.836c-1.302,0-2.307.697-2.688,1.864-.393,1.203-.002,2.414,1.019,3.16l4.034,2.949-1.529,4.5c-.391,1.208.007,2.42,1.038,3.164.496.357,1.067.546,1.653.546.595,0,1.175-.194,1.675-.562l.758-.558c.222-.164.27-.477.106-.699-.164-.223-.477-.271-.699-.106l-.758.558c-.649.478-1.497.481-2.151.011-.676-.488-.927-1.252-.673-2.038l1.646-4.841c.07-.207-.002-.436-.179-.565l-4.331-3.166c-.67-.489-.916-1.252-.659-2.042.244-.747.877-1.175,1.738-1.175h5.328c.221,0,.415-.145.479-.356l1.617-5.375c.255-.794.905-1.269,1.74-1.269s1.485.474,1.737,1.259l1.62,5.385c.064.211.258.356.479.356h5.328c.86,0,1.494.428,1.738,1.175.257.789.011,1.552-.659,2.042l-4.331,3.166c-.177.129-.249.358-.179.565l1.644,4.834c.256.792.005,1.557-.67,2.044-.655.471-1.504.466-2.152-.01l-.758-.558c-.224-.164-.536-.116-.699.106-.164.223-.116.536.106.699l.758.558c.991.729,2.328.736,3.329.016,1.03-.743,1.427-1.955,1.035-3.17l-1.527-4.493,4.034-2.949c1.021-.747,1.413-1.957,1.02-3.16Z"/></svg>
