<?xml version="1.0" encoding="UTF-8"?>
<svg xmlns="http://www.w3.org/2000/svg" id="Layer_1" data-name="Layer 1" viewBox="0 0 24 24" width="512" height="512"><path d="M12.838,.028C9.369-.208,5.962,1.065,3.509,3.521,1.057,5.976-.211,9.378,.029,12.855c.44,6.354,6.074,11.145,13.104,11.145h6.367c2.481,0,4.5-2.019,4.5-4.5v-7.145C24,5.868,19.097,.454,12.838,.028Zm10.162,19.472c0,1.93-1.57,3.5-3.5,3.5h-6.367c-6.604,0-11.695-4.296-12.105-10.214-.221-3.188,.941-6.308,3.189-8.558,2.07-2.074,4.878-3.227,7.8-3.227,.25,0,.502,.009,.753,.026,5.737,.39,10.23,5.366,10.23,11.329v7.145Zm-7-5.126c0,1.448-1.178,2.626-2.626,2.626h-.874v1.5c0,.276-.224,.5-.5,.5s-.5-.224-.5-.5v-1.5h-.926c-.979,0-1.892-.526-2.382-1.375-.139-.239-.057-.545,.183-.683,.235-.138,.544-.058,.683,.183,.312,.54,.894,.875,1.517,.875h2.8c.896,0,1.626-.729,1.626-1.626,0-.803-.575-1.478-1.368-1.605l-3.422-.55c-1.28-.206-2.21-1.296-2.21-2.593,0-1.448,1.178-2.626,2.626-2.626h.874v-1.5c0-.276,.224-.5,.5-.5s.5,.224,.5,.5v1.5h.926c.979,0,1.892,.527,2.382,1.375,.139,.239,.057,.545-.183,.683-.236,.136-.545,.057-.683-.183-.312-.54-.894-.875-1.517-.875h-2.8c-.896,0-1.626,.729-1.626,1.626,0,.803,.575,1.478,1.368,1.605l3.422,.55c1.28,.206,2.21,1.296,2.21,2.593Z"/></svg>
