<?xml version="1.0" encoding="UTF-8"?>
<svg xmlns="http://www.w3.org/2000/svg" id="Layer_1" data-name="Layer 1" viewBox="0 0 24 24" width="512" height="512"><path d="M23.997,11.987c0-.01,.003-.019,.003-.029-.003-.812-.323-1.572-.902-2.142l-3.732-3.672c-.197-.192-.514-.192-.707,.006-.193,.197-.191,.513,.006,.707l3.732,3.672c.274,.27,.457,.606,.543,.971H1.06c.087-.365,.269-.701,.544-.971l3.732-3.672c.197-.194,.2-.51,.006-.707-.194-.198-.511-.2-.707-.006L.902,9.816C.324,10.385,.003,11.146,0,11.958c0,.01,.003,.019,.003,.029l-.003,.013c0,.013,.006,.024,.007,.037,.017,.782,.322,1.514,.877,2.07l3.747,3.747c.098,.098,.226,.146,.354,.146s.256-.049,.354-.146c.195-.195,.195-.512,0-.707l-3.747-3.747c-.253-.253-.422-.564-.513-.899H22.921c-.091,.336-.26,.647-.513,.899l-3.747,3.747c-.195,.195-.195,.512,0,.707,.098,.098,.226,.146,.354,.146s.256-.049,.354-.146l3.747-3.747c.555-.554,.86-1.288,.877-2.07,0-.013,.007-.024,.007-.037l-.003-.013Z"/></svg>
