<?xml version="1.0" encoding="UTF-8"?>
<svg xmlns="http://www.w3.org/2000/svg" id="Layer_1" data-name="Layer 1" width="512" height="512" viewBox="0 0 24 24"><path d="M17.5,24c-3.584,0-6.5-2.916-6.5-6.5,0-1.763,.727-3.456,2-4.681V4.5c0-2.481,2.019-4.5,4.5-4.5s4.5,2.019,4.5,4.5V12.819c1.273,1.225,2,2.918,2,4.681,0,3.584-2.916,6.5-6.5,6.5Zm0-23c-1.93,0-3.5,1.57-3.5,3.5V13.037c0,.142-.061,.277-.166,.372-1.166,1.046-1.834,2.537-1.834,4.091,0,3.032,2.468,5.5,5.5,5.5s5.5-2.468,5.5-5.5c0-1.554-.668-3.045-1.834-4.091-.105-.095-.166-.23-.166-.372V4.5c0-1.93-1.57-3.5-3.5-3.5Zm0,19c-1.379,0-2.5-1.121-2.5-2.5,0-1.207,.86-2.218,2-2.45v-6.55c0-.276,.224-.5,.5-.5s.5,.224,.5,.5v6.55c1.14,.232,2,1.243,2,2.45,0,1.379-1.121,2.5-2.5,2.5Zm0-4c-.827,0-1.5,.673-1.5,1.5s.673,1.5,1.5,1.5,1.5-.673,1.5-1.5-.673-1.5-1.5-1.5Zm-12.438,1.85c-.088,0-.177-.022-.257-.071-.237-.142-.314-.449-.172-.686l1.812-3.021c-.562-.377-1.051-.855-1.441-1.407l-3.05,1.737c-.24,.134-.544,.053-.682-.188-.137-.239-.053-.545,.188-.682l3.044-1.734c-.257-.556-.424-1.162-.481-1.799H.5c-.276,0-.5-.224-.5-.5s.224-.5,.5-.5h3.522c.054-.604,.205-1.181,.438-1.715l-3.045-1.79c-.238-.14-.318-.446-.178-.684,.14-.24,.449-.317,.684-.178l3.022,1.775c.366-.541,.827-1.013,1.361-1.394l-1.713-3.084c-.134-.242-.047-.546,.194-.681,.241-.131,.545-.047,.681,.194l1.702,3.068c.435-.202,.902-.35,1.396-.435,.256-.044,.435-.246,.435-.49V.5c0-.276,.224-.5,.5-.5s.5,.224,.5,.5V3.589c0,.729-.532,1.35-1.266,1.477-2.164,.37-3.734,2.235-3.734,4.435,0,2.481,2.019,4.5,4.5,4.5,.276,0,.5,.224,.5,.5s-.224,.5-.5,.5c-.772,0-1.509-.16-2.176-.449l-1.833,3.056c-.094,.156-.26,.243-.429,.243Z"/></svg>
