<?xml version="1.0" encoding="UTF-8"?>
<svg xmlns="http://www.w3.org/2000/svg" id="Layer_1" data-name="Layer 1" viewBox="0 0 24 24" width="512" height="512"><path d="M19.5,13h-3.325l.764-5.942c.167-.745-.012-1.513-.489-2.108s-1.188-.937-1.951-.937h-2.934l.212-1.699c.094-.749,.733-1.314,1.488-1.314h3.234c.276,0,.5-.224,.5-.5s-.224-.5-.5-.5h-3.234c-1.258,0-2.325,.941-2.48,2.19l-.228,1.823H2.501c-.762,0-1.472,.341-1.949,.935C.075,5.542-.105,6.309,.051,7.003l1.536,13.023c.268,2.265,2.189,3.973,4.469,3.973h13.444c2.481,0,4.5-2.019,4.5-4.5v-2c0-2.481-2.019-4.5-4.5-4.5Zm3.5,4.5v.5h-2.491c-.005,0-.01,0-.015,0h-5.988c-.005,0-.01,0-.016,0h-4.49v-.5c0-1.93,1.57-3.5,3.5-3.5h6c1.93,0,3.5,1.57,3.5,3.5Zm-4.151,1.5l-1.349,.899-1.349-.899h2.697ZM14.499,5.013c.458,0,.884,.205,1.17,.562,.287,.357,.394,.818,.286,1.31l-.144,1.115h-4.745l.374-2.987h3.059ZM1.332,5.573c.286-.356,.712-.561,1.169-.561h7.931l-.374,2.987H1.174l-.137-1.163c-.099-.446,.009-.907,.295-1.264ZM6.056,23c-1.774,0-3.268-1.329-3.476-3.09L1.292,9H15.682l-.516,4h-1.667c-2.481,0-4.5,2.019-4.5,4.5v2c0,1.412,.654,2.674,1.675,3.5H6.056Zm13.444,0h-6c-1.93,0-3.5-1.57-3.5-3.5v-.5h4.349l2.874,1.916c.084,.056,.181,.084,.277,.084s.193-.028,.277-.084l2.874-1.916h2.349v.5c0,1.93-1.57,3.5-3.5,3.5Z"/></svg>
