<?xml version="1.0" encoding="UTF-8"?>
<svg xmlns="http://www.w3.org/2000/svg" id="Layer_1" data-name="Layer 1" viewBox="0 0 24 24" width="512" height="512"><path d="M23.5,10H3v-3.5c0-1.93,1.57-3.5,3.5-3.5h.551c.232,1.14,1.242,2,2.449,2h4c1.379,0,2.5-1.121,2.5-2.5s-1.121-2.5-2.5-2.5h-4c-1.208,0-2.217,.86-2.449,2h-.551c-2.481,0-4.5,2.019-4.5,4.5v3.5H.5c-.276,0-.5,.224-.5,.5s.224,.5,.5,.5h1.571l1.413,9.185c.34,2.211,2.21,3.815,4.447,3.815h8.137c2.237,0,4.107-1.604,4.447-3.815l1.413-9.185h1.571c.276,0,.5-.224,.5-.5s-.224-.5-.5-.5ZM9.5,1h4c.827,0,1.5,.673,1.5,1.5s-.673,1.5-1.5,1.5h-4c-.827,0-1.5-.673-1.5-1.5s.673-1.5,1.5-1.5Zm10.027,19.032c-.265,1.72-1.719,2.968-3.459,2.968H7.932c-1.74,0-3.194-1.248-3.459-2.968l-1.39-9.032H20.917l-1.39,9.032Zm-11.146-2.699l1.074,.786-.408,1.262c-.169,.521,.01,1.062,.452,1.381,.435,.314,1.019,.312,1.453-.007l1.048-.77,1.048,.77c.221,.163,.476,.244,.73,.244,.251,0,.502-.078,.722-.236,.443-.319,.622-.861,.453-1.382l-.408-1.262,1.076-.786c.438-.321,.612-.862,.443-1.38-.155-.475-.578-.953-1.173-.953h-1.324l-.392-1.143c-.167-.521-.628-.857-1.176-.857s-1.009,.337-1.172,.848l-.396,1.152h-1.324c-.595,0-1.018,.479-1.174,.955-.168,.517,.007,1.058,.446,1.378Zm.504-1.067c.053-.16,.17-.266,.224-.266h1.682c.214,0,.403-.136,.473-.338l.515-1.5c.068-.215,.373-.225,.449,.01l.511,1.49c.069,.202,.259,.338,.473,.338h1.682c.054,0,.171,.105,.223,.264,.035,.107,.006,.196-.084,.263l-1.367,.999c-.175,.127-.247,.352-.181,.558l.52,1.606c.035,.107,.006,.195-.086,.261-.093,.068-.186,.066-.276,0l-1.344-.988c-.088-.065-.191-.098-.296-.098s-.208,.032-.296,.098l-1.344,.987c-.086,.062-.192,.063-.276,0-.092-.065-.121-.153-.086-.261l.52-1.606c.066-.206-.006-.431-.181-.558l-1.366-.999c-.091-.067-.12-.155-.086-.261Z"/></svg>
