<?xml version="1.0" encoding="UTF-8"?>
<svg xmlns="http://www.w3.org/2000/svg" id="Layer_1" data-name="Layer 1" viewBox="0 0 24 24" width="512" height="512"><path d="M12,4c0-2.21-1.79-4-4-4S4,1.79,4,4v3c0,2.21,1.79,4,4,4s4-1.79,4-4v-3Zm-1,3c0,1.65-1.35,3-3,3s-3-1.35-3-3v-3c0-1.65,1.35-3,3-3s3,1.35,3,3v3Zm5,6c-2.21,0-4,1.79-4,4v3c0,2.21,1.79,4,4,4s4-1.79,4-4v-3c0-2.21-1.79-4-4-4Zm3,7c0,1.65-1.35,3-3,3s-3-1.35-3-3v-3c0-1.65,1.35-3,3-3s3,1.35,3,3v3ZM15.2,3.8c-.2-.2-.2-.51,0-.71L18.15,.15c.14-.14,.36-.19,.54-.11,.19,.08,.31,.26,.31,.46V10.5c0,.28-.22,.5-.5,.5s-.5-.22-.5-.5V1.71l-2.09,2.09c-.2,.2-.51,.2-.71,0Zm-7.2,9.7v10c0,.28-.22,.5-.5,.5s-.5-.22-.5-.5V14.71l-2.09,2.09c-.2,.2-.51,.2-.71,0s-.2-.51,0-.71l2.94-2.94c.14-.14,.36-.19,.54-.11,.19,.08,.31,.26,.31,.46Z"/></svg>
