<?xml version="1.0" encoding="UTF-8"?>
<svg xmlns="http://www.w3.org/2000/svg" id="Layer_1" data-name="Layer 1" viewBox="0 0 24 24" width="512" height="512"><path d="M12,11c-2.757,0-5,2.243-5,5s2.243,5,5,5,5-2.243,5-5-2.243-5-5-5Zm3.455,2.986l-2.504,1.074c-.144,.062-.263,.001-.306-.028-.044-.028-.146-.112-.146-.269v-2.732c1.26,.158,2.34,.904,2.955,1.955Zm-3.455,6.014c-2.206,0-4-1.794-4-4,0-2.036,1.529-3.722,3.5-3.969v2.732c0,.446,.223,.858,.595,1.104,.22,.145,.473,.219,.728,.219,.177,0,.354-.036,.522-.107l2.503-1.073c.099,.348,.152,.715,.152,1.095,0,2.206-1.794,4-4,4ZM20.096,5.389l-3.484-3.485c-1.229-1.228-2.861-1.904-4.597-1.904H6.5C4.019,0,2,2.019,2,4.5v15c0,2.481,2.019,4.5,4.5,4.5h11c2.481,0,4.5-2.019,4.5-4.5V9.985c0-1.737-.677-3.369-1.904-4.596Zm-.707,.707c.551,.551,.971,1.198,1.244,1.904h-5.132c-.827,0-1.5-.673-1.5-1.5V1.368c.705,.273,1.353,.692,1.904,1.243l3.484,3.485Zm1.611,13.404c0,1.93-1.57,3.5-3.5,3.5H6.5c-1.93,0-3.5-1.57-3.5-3.5V4.5c0-1.93,1.57-3.5,3.5-3.5h5.515c.334,0,.663,.03,.985,.088V6.5c0,1.378,1.121,2.5,2.5,2.5h5.412c.058,.322,.088,.651,.088,.985v9.515Z"/></svg>
