<?xml version="1.0" encoding="UTF-8"?>
<svg xmlns="http://www.w3.org/2000/svg" id="Layer_1" data-name="Layer 1" viewBox="0 0 24 24" width="512" height="512"><path d="m20.5,14h-3.429l2.904-2.904c.661-.661,1.025-1.54,1.025-2.475s-.364-1.814-1.025-2.475l-2.121-2.121c-1.322-1.323-3.629-1.322-4.95,0l-2.904,2.904v-3.429c0-1.93-1.57-3.5-3.5-3.5h-3C1.57,0,0,1.57,0,3.5v15.5c0,2.757,2.243,5,5,5h15.5c1.93,0,3.5-1.57,3.5-3.5v-3c0-1.93-1.57-3.5-3.5-3.5Zm-6.889-9.268c.944-.944,2.591-.945,3.536,0l2.121,2.121c.472.472.732,1.1.732,1.768s-.26,1.296-.732,1.768l-9.318,9.318c.033-.231.05-.467.05-.707v-10.657l3.611-3.611ZM1,7h8v5H1v-5ZM3.5,1h3c1.378,0,2.5,1.122,2.5,2.5v2.5H1v-2.5c0-1.378,1.122-2.5,2.5-2.5ZM1,19v-6h8v6c0,2.102-1.798,3.999-3.899,3.999s-4.101-1.793-4.101-3.999Zm22,1.5c0,1.378-1.122,2.5-2.5,2.5h-12.499c.187-.141.366-.296.535-.464l7.535-7.536h4.429c1.378,0,2.5,1.122,2.5,2.5v3Zm-18-.5c-.552,0-1-.448-1-1s.448-1,1-1,1,.448,1,1-.448,1-1,1Z"/></svg>
