<?xml version="1.0" encoding="UTF-8"?>
<svg xmlns="http://www.w3.org/2000/svg" id="Layer_1" data-name="Layer 1" viewBox="0 0 24 24" width="512" height="512"><path d="M23.5,23c-.544,0-1.123-.226-1.734-.466-.671-.263-1.366-.534-2.099-.534s-1.427,.271-2.099,.534c-.612,.24-1.19,.466-1.734,.466s-1.123-.226-1.734-.466c-.671-.263-1.366-.534-2.099-.534s-1.428,.271-2.099,.534c-.612,.24-1.19,.466-1.734,.466-.151,0-.304-.018-.46-.048l4.397-9.928,8.072,3.741c.338,.157,.698,.235,1.059,.235,.395,0,.79-.094,1.155-.281,.714-.366,1.212-1.035,1.365-1.835,1.113-5.815-1.601-11.495-6.598-13.811C12.086-1.277,5.792,.409,2.514,4.994c-.48,.671-.634,1.518-.421,2.322,.204,.773,.726,1.404,1.431,1.731l7.673,3.556-4.452,10.052c-.103-.039-.207-.08-.313-.121-.671-.263-1.365-.534-2.099-.534s-1.428,.271-2.099,.534c-.612,.24-1.19,.466-1.734,.466-.276,0-.5,.224-.5,.5s.224,.5,.5,.5c.733,0,1.428-.271,2.099-.534,.612-.24,1.19-.466,1.734-.466s1.123,.226,1.734,.466c.671,.263,1.365,.534,2.099,.534s1.428-.271,2.099-.534c.612-.24,1.19-.466,1.734-.466s1.123,.226,1.734,.466c.671,.263,1.366,.534,2.099,.534s1.427-.271,2.099-.534c.612-.24,1.19-.466,1.734-.466s1.123,.226,1.734,.466c.671,.263,1.366,.534,2.099,.534,.276,0,.5-.224,.5-.5s-.224-.5-.5-.5ZM3.945,8.14c-.435-.202-.757-.595-.885-1.08-.136-.515-.039-1.057,.268-1.485C5.418,2.651,8.846,1.014,12.302,1.014c1.509,0,3.024,.312,4.435,.966,4.581,2.123,7.062,7.352,6.036,12.715-.095,.496-.4,.909-.839,1.133-.423,.216-.911,.227-1.336,.029L3.945,8.14Z"/></svg>
