<?xml version="1.0" encoding="UTF-8"?>
<svg xmlns="http://www.w3.org/2000/svg" id="Layer_1" data-name="Layer 1" viewBox="0 0 24 24" width="512" height="512"><path d="M23.85,6.771c-.227-.613-1.154-2.538-3.85-2.752v-1.52c0-1.379-1.122-2.5-2.5-2.5H6.5c-1.378,0-2.5,1.121-2.5,2.5v1.52C1.304,4.233,.377,6.158,.15,6.772c-.275,.742-.168,1.578,.284,2.233,.376,.545,.935,.89,1.565,.974v8.52c0,3.032,2.467,5.5,5.5,5.5h9c3.033,0,5.5-2.468,5.5-5.5V9.98c.629-.083,1.189-.429,1.565-.974,.453-.655,.559-1.491,.284-2.234Zm-2.85,11.729c0,2.481-2.019,4.5-4.5,4.5H7.5c-2.481,0-4.5-2.019-4.5-4.5V9.97c.707-.076,1.622-.301,2.139-.7,.491-.378,1.231-.379,1.723,0,1.235,.955,3.042,.955,4.277,0,.491-.378,1.231-.379,1.723,0,1.235,.955,3.042,.955,4.277,0,.492-.378,1.232-.379,1.723,0,.516,.399,1.431,.624,2.139,.7v8.53Zm1.742-10.062c-.244,.354-.709,.558-1.116,.562-.64-.001-1.769-.223-2.153-.52-.854-.66-2.092-.66-2.945,0-.882,.682-2.173,.682-3.055,0-.854-.66-2.092-.66-2.945,0-.882,.682-2.173,.682-3.055,0-.854-.66-2.092-.66-2.945,0-.386,.298-1.49,.521-2.128,.521-.412-.004-.897-.208-1.141-.562-.268-.388-.332-.881-.17-1.318,.184-.497,.975-2.119,3.412-2.119h12c.276,0,.5-.224,.5-.5s-.224-.5-.5-.5H5v-1.5c0-.827,.673-1.5,1.5-1.5h11c.827,0,1.5,.673,1.5,1.5v2c0,.276,.224,.5,.5,.5,2.438,0,3.228,1.622,3.412,2.118,.162,.438,.099,.932-.169,1.319Z"/></svg>
