<?xml version="1.0" encoding="UTF-8"?>
<svg xmlns="http://www.w3.org/2000/svg" id="Layer_1" data-name="Layer 1" viewBox="0 0 24 24">
  <path d="m17.5,11c-3.584,0-6.5,2.916-6.5,6.5s2.916,6.5,6.5,6.5,6.5-2.916,6.5-6.5-2.916-6.5-6.5-6.5Zm0,12c-3.032,0-5.5-2.468-5.5-5.5s2.468-5.5,5.5-5.5,5.5,2.468,5.5,5.5-2.468,5.5-5.5,5.5Zm1.354-4.854c.195.195.195.512,0,.707-.098.098-.226.146-.354.146s-.256-.049-.354-.146l-1-1c-.094-.094-.146-.221-.146-.354v-2c0-.276.224-.5.5-.5s.5.224.5.5v1.793l.854.854Zm-8.354,4.854h-4.025c-1.93,0-3.5-1.57-3.5-3.499l.025-14.501h14l-.006,3.499c0,.276.223.501.499.501h0c.275,0,.5-.224.5-.499l.006-3.501h1.501c.276,0,.5-.224.5-.5s-.224-.5-.5-.5h-4.028c-.25-2.247-2.16-4-4.472-4h-2c-2.312,0-4.223,1.753-4.472,4H.5c-.276,0-.5.224-.5.5s.224.5.5.5h1.499l-.025,14.5c0,2.481,2.019,4.5,4.5,4.5h4.025c.276,0,.5-.224.5-.5s-.224-.5-.5-.5ZM9,1h2c1.76,0,3.221,1.306,3.464,3H5.536c.243-1.694,1.704-3,3.464-3Z"/>
</svg>
