<?xml version="1.0" encoding="UTF-8"?>
<svg xmlns="http://www.w3.org/2000/svg" id="Layer_1" data-name="Layer 1" viewBox="0 0 24 24" width="512" height="512"><path d="m19.5,0H4.5C2.019,0,0,2.019,0,4.5v15c0,2.481,2.019,4.5,4.5,4.5h15c2.481,0,4.5-2.019,4.5-4.5V4.5c0-2.481-2.019-4.5-4.5-4.5Zm3.5,19.5c0,1.93-1.57,3.5-3.5,3.5H4.5c-1.93,0-3.5-1.57-3.5-3.5V4.5c0-1.93,1.57-3.5,3.5-3.5h15c1.93,0,3.5,1.57,3.5,3.5v15Zm-4-15v13.862c0,.73-.463,1.343-1.179,1.561-.728.221-1.497-.048-1.912-.668L7.25,5.287c-.2-.296-.535-.329-.78-.254-.11.034-.47.176-.47.605v13.862c0,.276-.224.5-.5.5s-.5-.224-.5-.5V5.638c0-.731.463-1.344,1.18-1.562.727-.222,1.496.048,1.911.669l8.659,13.967c.199.297.534.328.781.253.11-.033.47-.176.47-.604V4.5c0-.276.224-.5.5-.5s.5.224.5.5Z"/></svg>
