<?xml version="1.0" encoding="UTF-8"?>
<svg xmlns="http://www.w3.org/2000/svg" id="Layer_1" data-name="Layer 1" viewBox="0 0 24 24" width="512" height="512"><path d="M13.83,5.268c1.11-.592,2.461-1.581,3.06-3.087,.193-.486,.133-1.018-.166-1.458-.307-.453-.815-.724-1.36-.724h-6.728c-.544,0-1.053,.271-1.36,.724-.299,.44-.359,.972-.167,1.458,.599,1.506,1.95,2.495,3.06,3.087C5.238,6.62,1,13.094,1,18.25c0,3.17,2.58,5.75,5.75,5.75h10.5c3.17,0,5.75-2.58,5.75-5.75,0-5.156-4.238-11.63-9.17-12.982ZM8.039,1.812c-.094-.236,0-.432,.064-.526,.121-.179,.32-.285,.533-.285h6.728c.212,0,.412,.106,.533,.285,.064,.095,.158,.29,.064,.527-.788,1.982-3.337,2.952-3.961,3.163-.625-.21-3.169-1.174-3.96-3.164Zm9.211,21.188H6.75c-2.619,0-4.75-2.131-4.75-4.75,0-5.349,4.849-12.25,10-12.25s10,6.901,10,12.25c0,2.619-2.131,4.75-4.75,4.75Zm-1.25-5.626c0,1.448-1.178,2.626-2.626,2.626h-.874v1.5c0,.276-.224,.5-.5,.5s-.5-.224-.5-.5v-1.5h-.926c-.979,0-1.891-.526-2.381-1.374-.139-.239-.057-.545,.182-.683,.239-.14,.544-.057,.683,.182,.312,.54,.894,.875,1.516,.875h2.8c.896,0,1.626-.729,1.626-1.626,0-.803-.575-1.478-1.368-1.605l-3.422-.55c-1.28-.206-2.209-1.296-2.209-2.593,0-1.448,1.178-2.626,2.626-2.626h.874v-1.5c0-.276,.224-.5,.5-.5s.5,.224,.5,.5v1.5h.926c.978,0,1.891,.527,2.381,1.375,.139,.239,.057,.545-.182,.683-.241,.138-.544,.056-.683-.182-.312-.54-.894-.875-1.516-.875h-2.8c-.896,0-1.626,.729-1.626,1.626,0,.803,.575,1.478,1.368,1.605l3.422,.55c1.28,.206,2.209,1.296,2.209,2.593Z"/></svg>
