<?xml version="1.0" encoding="UTF-8"?>
<svg xmlns="http://www.w3.org/2000/svg" id="Layer_1" data-name="Layer 1" viewBox="0 0 24 24">
  <path d="m20.942,15.21l2.434-3.219c.5-.666.71-1.487.593-2.312-.118-.825-.55-1.555-1.217-2.055-1.136-.851-2.663-.795-3.761.046.002-.057.009-.112.009-.169,0-.539-.081-1.059-.215-1.56.116-.083.206-.15.225-.169,1.318-1.318,1.318-3.463,0-4.781s-3.463-1.318-4.782,0c-.096.096-.155.19-.225.284-.635-.177-1.306-.274-2.003-.274s-1.368.098-2.003.274c-.071-.094-.13-.188-.226-.284-1.318-1.318-3.463-1.318-4.781,0s-1.318,3.463,0,4.781c.019.019.109.086.225.169-.134.501-.215,1.021-.215,1.56,0,.052.007.103.008.154-1.081-.826-2.618-.886-3.76-.031-.667.5-1.099,1.229-1.217,2.055-.118.825.093,1.646.599,2.321l2.37,3.02c-.75.021-1.476.296-2.035.81-1.162,1.067-1.288,2.947-.3,4.264l.845,1.229c1.275,1.699,3.304,2.714,5.428,2.714h10.145c2.125,0,4.154-1.015,5.42-2.702l.82-1.033c1-1.332.873-3.211-.288-4.277-.574-.528-1.327-.808-2.094-.813Zm-2.639-13.512c.883.883.916,2.287.119,3.222-.674-1.439-1.894-2.604-3.415-3.28.933-.862,2.389-.847,3.296.058Zm-6.303.303c3.309,0,6,2.468,6,5.5s-2.691,5.5-6,5.5-6-2.468-6-5.5,2.691-5.5,6-5.5Zm-6.303-.303c.908-.906,2.365-.92,3.296-.058-1.52.676-2.741,1.841-3.414,3.28-.797-.935-.764-2.338.119-3.222Zm1.241,21.338c-1.811,0-3.542-.865-4.616-2.297l-.845-1.229c-.695-.928-.623-2.221.165-2.944.401-.368.904-.565,1.435-.565.795,0,1.342.37,1.705.853l1.747,2.269c.014.019,1.275,1.725,1.451,3.914h-1.042Zm2.044,0c-.173-2.513-1.59-4.429-1.658-4.519l-1.747-2.269c-.215-.287-.488-.511-.782-.703l-3.372-4.154c-.34-.453-.482-1.011-.402-1.571s.374-1.057.826-1.396c.935-.701,2.266-.51,2.936.378l1.104,1.867.005-.003c1.199,1.987,3.486,3.334,6.108,3.334s4.909-1.348,6.108-3.335l.004.003,1.073-1.821c.701-.934,2.031-1.124,2.967-.423.453.339.746.835.826,1.396s-.062,1.118-.401,1.569c0,0-4.011,4.863-4.12,5.009l-1.734,1.846c-.067.053-1.59,1.283-1.715,4.792h-6.026Zm13.55-3.347l-.82,1.033c-1.087,1.448-2.817,2.313-4.629,2.313h-1.074c.116-2.971,1.325-3.999,1.386-4.055l1.826-1.94c.359-.478.906-.783,1.501-.838.604-.063,1.185.142,1.636.557.787.724.86,2.015.173,2.93Zm-12.032-11.688c0-.552.672-1,1.5-1s1.5.448,1.5,1-.672,1-1.5,1-1.5-.448-1.5-1Z"/>
</svg>
