<?xml version="1.0" encoding="UTF-8"?>
<svg xmlns="http://www.w3.org/2000/svg" id="Layer_1" data-name="Layer 1" viewBox="0 0 24 24" width="512" height="512"><path d="m14.75,7c-1.199,0-2.189.551-2.75,1.434-.561-.883-1.551-1.434-2.75-1.434-1.792,0-3.25,1.57-3.25,3.5,0,3.363,5.479,7.246,5.713,7.409.086.061.187.091.287.091s.201-.03.287-.091c.233-.163,5.713-4.046,5.713-7.409,0-1.93-1.458-3.5-3.25-3.5Zm-2.75,9.883c-1.625-1.203-5-4.163-5-6.383,0-1.379,1.009-2.5,2.25-2.5,1.325,0,2.25.916,2.25,2.228v.272c0,.276.224.5.5.5s.5-.224.5-.5v-.272c0-1.312.925-2.228,2.25-2.228,1.241,0,2.25,1.121,2.25,2.5,0,2.22-3.375,5.18-5,6.383ZM12.837.028c-3.477-.236-6.876,1.036-9.329,3.492C1.057,5.977-.211,9.379.029,12.854c.441,6.354,6.074,11.146,13.104,11.146h6.367c2.481,0,4.5-2.019,4.5-4.5v-7.145C24,5.869,19.097.454,12.837.028Zm10.163,19.472c0,1.93-1.57,3.5-3.5,3.5h-6.367c-6.604,0-11.695-4.296-12.105-10.214-.221-3.188.941-6.308,3.188-8.559,2.071-2.073,4.878-3.227,7.8-3.227.25,0,.502.008.753.025,5.737.39,10.23,5.366,10.23,11.329v7.145Z"/></svg>
