<?xml version="1.0" encoding="UTF-8"?>
<svg xmlns="http://www.w3.org/2000/svg" id="Layer_1" data-name="Layer 1" viewBox="0 0 24 24" width="512" height="512"><path d="M24,2.95c-.04-.88-.47-1.71-1.16-2.28-1.23-1.01-3.12-.86-4.31,.32l-1.99,1.99c-.8-.64-1.78-.99-2.82-.99-1.2,0-2.33,.47-3.18,1.32l-3.03,3.03c-.2,.2-.2,.51,0,.71s.51,.2,.71,0l3.03-3.03c1.21-1.21,3.23-1.31,4.58-.32L1.91,17.64c-.59,.59-.92,1.38-.92,2.22,0,.67,.21,1.31,.59,1.84l-1.45,1.45c-.2,.2-.2,.51,0,.71,.1,.1,.23,.15,.35,.15s.26-.05,.35-.15l1.45-1.45c.53,.39,1.17,.59,1.84,.59,.84,0,1.63-.33,2.22-.92L23.08,5.33c.63-.63,.96-1.49,.92-2.38ZM5.65,21.37c-.81,.81-2.22,.81-3.03,0-.4-.4-.63-.94-.63-1.51s.22-1.11,.63-1.51L16.56,4.39l3.03,3.03L5.65,21.37ZM22.37,4.62l-2.08,2.08-3.03-3.03,1.97-1.98c.46-.46,1.08-.7,1.67-.7,.47,0,.93,.15,1.29,.45,.48,.39,.76,.94,.79,1.55,.03,.6-.2,1.19-.62,1.62Z"/></svg>
