<?xml version="1.0" encoding="UTF-8"?>
<svg xmlns="http://www.w3.org/2000/svg" id="Layer_1" data-name="Layer 1" viewBox="0 0 24 24" width="512" height="512"><path d="m23.965,23.695c-.077.197-.266.317-.465.317-.061,0-.123-.011-.183-.035l-11.317-4.435L.683,23.978c-.06.023-.122.035-.183.035-.2,0-.388-.121-.465-.317-.101-.257.026-.547.283-.648l10.312-4.041L.317,14.965c-.257-.101-.384-.391-.283-.648.1-.257.391-.384.648-.283l11.317,4.435,11.317-4.435c.256-.101.547.026.648.283.101.257-.026.547-.283.648l-10.312,4.041,10.312,4.041c.257.101.384.391.283.648Zm-13.965-15.695c.552,0,1-.448,1-1s-.448-1-1-1-1,.448-1,1,.448,1,1,1Zm4,0c.552,0,1-.448,1-1s-.448-1-1-1-1,.448-1,1,.448,1,1,1Zm-9,1.5v-2.274C5,3.584,7.615.503,11.083.059c2.01-.252,4.028.357,5.538,1.687,1.513,1.331,2.38,3.247,2.38,5.255v2.5c0,1.378-1.122,2.5-2.5,2.5h-.5v.5c0,1.378-1.122,2.5-2.5,2.5h-3c-1.378,0-2.5-1.122-2.5-2.5v-.5h-.5c-1.378,0-2.5-1.122-2.5-2.5Zm1,0c0,.827.673,1.5,1.5,1.5h1c.276,0,.5.224.5.5v1c0,.827.673,1.5,1.5,1.5h3c.827,0,1.5-.673,1.5-1.5v-1c0-.276.224-.5.5-.5h1c.827,0,1.5-.673,1.5-1.5v-2.5c0-1.721-.744-3.363-2.041-4.504-1.313-1.156-2.999-1.669-4.75-1.445-2.97.38-5.209,3.035-5.209,6.175v2.274Z"/></svg>
