<?xml version="1.0" encoding="UTF-8"?>
<svg xmlns="http://www.w3.org/2000/svg" id="Layer_1" data-name="Layer 1" viewBox="0 0 24 24" width="512" height="512"><path d="M12.5,1.1V19.5c0,.28-.22,.5-.5,.5s-.5-.22-.5-.5V1.09c-.21,.07-.4,.19-.56,.35L6.35,5.86c-.2,.19-.52,.18-.71-.01-.19-.2-.19-.52,.01-.71L10.24,.73c.93-.93,2.58-.94,3.53,0l4.58,4.41c.2,.19,.21,.51,.01,.71-.1,.1-.23,.15-.36,.15s-.25-.05-.35-.14L13.07,1.45c-.16-.16-.36-.28-.57-.35ZM6,22c-.55,0-1,.45-1,1s.45,1,1,1,1-.45,1-1-.45-1-1-1Zm4,0c-.55,0-1,.45-1,1s.45,1,1,1,1-.45,1-1-.45-1-1-1Zm-8,0c-.55,0-1,.45-1,1s.45,1,1,1,1-.45,1-1-.45-1-1-1Zm16,0c-.55,0-1,.45-1,1s.45,1,1,1,1-.45,1-1-.45-1-1-1Zm-4,0c-.55,0-1,.45-1,1s.45,1,1,1,1-.45,1-1-.45-1-1-1Zm8,0c-.55,0-1,.45-1,1s.45,1,1,1,1-.45,1-1-.45-1-1-1Z"/></svg>
