<?xml version="1.0" encoding="UTF-8"?>
<svg xmlns="http://www.w3.org/2000/svg" id="Layer_1" data-name="Layer 1" width="512" height="512" viewBox="0 0 24 24"><path d="M19.5,24c-.276,0-.5-.224-.5-.5v-3c0-.276,.224-.5,.5-.5s.5,.224,.5,.5v3c0,.276-.224,.5-.5,.5Zm-4,0c-.276,0-.5-.224-.5-.5v-3c0-.276,.224-.5,.5-.5s.5,.224,.5,.5v3c0,.276-.224,.5-.5,.5Zm-4,0c-.276,0-.5-.224-.5-.5v-3c0-.276,.224-.5,.5-.5s.5,.224,.5,.5v3c0,.276-.224,.5-.5,.5Zm-3.005-1.1c-.04,0-.178-.031-.178-.031-1.054-.3-1.887-1.133-2.184-2.178-.449-1.577,.289-3.214,1.753-3.892,.193-.09,.294-.315,.244-.548-.106-.504-.148-1.021-.124-1.539,.143-3.051,2.644-5.558,5.694-5.705,2.641-.123,5.012,1.441,5.926,3.907,.136,.365,.448,.638,.857,.747,2.499,.672,3.982,3.194,3.379,5.743-.166,.701-.506,1.367-.982,1.928-.179,.211-.496,.235-.705,.057-.21-.179-.235-.495-.057-.705,.375-.44,.642-.962,.771-1.51,.478-2.02-.692-4.017-2.665-4.547-.727-.194-1.286-.691-1.536-1.365-.762-2.055-2.742-3.354-4.939-3.257-2.499,.122-4.628,2.254-4.745,4.754-.02,.432,.016,.864,.104,1.284,.147,.691-.183,1.376-.803,1.663-1.031,.478-1.529,1.593-1.212,2.711,.2,.703,.784,1.287,1.486,1.487,.264,.074,.445,.355,.373,.62-.061,.223-.244,.375-.459,.375ZM1.711,14.509c-.172,0-.34-.09-.433-.25-.139-.238-.057-.544,.183-.683l3.049-1.765c-.264-.57-.428-1.183-.484-1.812H.5c-.276,0-.5-.224-.5-.5s.224-.5,.5-.5h3.523c.017-.191,.043-.383,.079-.574,.08-.419,.209-.822,.381-1.203l-3.054-1.737c-.24-.137-.324-.441-.188-.682,.136-.24,.441-.323,.682-.188l3.054,1.737c.366-.526,.823-.986,1.346-1.355l-1.756-3.042c-.139-.239-.057-.545,.183-.683,.238-.139,.545-.058,.683,.183l1.757,3.042c.377-.174,.775-.305,1.191-.387,.207-.041,.413-.07,.619-.089V.5c0-.276,.224-.5,.5-.5s.5,.224,.5,.5v3.521c.611,.054,1.202,.208,1.754,.456l1.725-3.065c.136-.242,.442-.325,.681-.19,.241,.135,.326,.44,.19,.681l-1.726,3.067c.397,.275,.763,.607,1.087,.992,.163,.193,.433,.244,.639,.124l2.666-1.561c.24-.137,.545-.059,.685,.179,.14,.238,.06,.545-.179,.685l-2.667,1.561c-.631,.369-1.42,.213-1.909-.343-1.279-1.452-3.276-1.729-4.371-1.514-.439,.087-2.856,1.004-3.489,3.521-.188,.746-.034,2.31,.959,3.769,.155,.228,.148,.527-.063,.704-.213,.176-.527,.148-.704-.063-.094-.112-.183-.228-.267-.346l-3.048,1.765c-.079,.046-.165,.067-.251,.067Z"/></svg>
