<?xml version="1.0" encoding="UTF-8"?>
<svg xmlns="http://www.w3.org/2000/svg" id="Layer_1" data-name="Layer 1" width="512" height="512" viewBox="0 0 24 24"><path d="M19.976,4.046C17.398,1.744,14.078,.69,10.614,1.078,5.206,1.688,.784,6.061,.1,11.478c-.481,3.806,.799,7.516,3.512,10.178,.883,.867,2.05,1.345,3.286,1.345h10.211c1.204,0,2.317-.427,3.135-1.203,2.423-2.3,3.757-5.406,3.757-8.747,0-3.436-1.467-6.718-4.024-9.004Zm-.421,17.026c-.631,.598-1.5,.928-2.446,.928H6.897c-.973,0-1.891-.376-2.585-1.058C1.823,18.5,.649,15.096,1.092,11.603,1.72,6.639,5.771,2.63,10.726,2.072c.433-.049,.862-.073,1.289-.073,2.701,0,5.254,.97,7.294,2.793,2.346,2.097,3.691,5.106,3.691,8.258,0,3.063-1.224,5.913-3.445,8.022Zm-7.555-10.072c-.37,0-.717,.102-1.015,.278l-3.631-3.631c-.195-.195-.512-.195-.707,0s-.195,.512,0,.707l3.631,3.631c-.176,.298-.278,.645-.278,1.015,0,1.103,.897,2,2,2s2-.897,2-2-.897-2-2-2Zm0,3c-.552,0-1-.448-1-1s.448-1,1-1,1,.448,1,1-.448,1-1,1Zm-4.759,4.134c.202,.188,.215,.504,.026,.706-.098,.106-.232,.16-.366,.16-.122,0-.244-.044-.34-.134-1.628-1.509-2.562-3.647-2.562-5.866,0-.914,.153-1.812,.455-2.667,.094-.26,.379-.396,.639-.305,.26,.092,.396,.378,.305,.639-.265,.747-.398,1.532-.398,2.333,0,1.941,.817,3.812,2.241,5.134Zm12.759-5.134c0,2.219-.934,4.357-2.562,5.866-.096,.09-.218,.134-.34,.134-.134,0-.269-.054-.366-.16-.188-.202-.176-.519,.026-.706,1.424-1.321,2.241-3.192,2.241-5.134,0-3.859-3.141-7-7-7-.801,0-1.586,.134-2.333,.398-.263,.091-.546-.044-.639-.305-.092-.261,.045-.547,.305-.639,.855-.302,1.753-.455,2.667-.455,4.411,0,8,3.589,8,8Z"/></svg>
