<?xml version="1.0" encoding="UTF-8"?>
<svg xmlns="http://www.w3.org/2000/svg" id="Layer_1" data-name="Layer 1" viewBox="0 0 24 24" width="512" height="512"><path d="m19.5,0h-5.671c-.668,0-1.296.26-1.768.732l-1.828,1.828c-.284.283-.66.439-1.061.439h-2.171v-.5c0-.276-.224-.5-.5-.5h-1c-.276,0-.5.224-.5.5v.5h-.5C2.019,3,0,5.019,0,7.5v12c0,2.481,2.019,4.5,4.5,4.5h15c2.481,0,4.5-2.019,4.5-4.5V4.5c0-2.481-2.019-4.5-4.5-4.5ZM4.5,4h4.671c.668,0,1.296-.26,1.768-.732l1.828-1.828c.284-.283.66-.439,1.061-.439h5.671c1.93,0,3.5,1.57,3.5,3.5v8.5h-5.523c-.254-2.799-2.613-5-5.477-5s-5.224,2.201-5.477,5H1v-5.5c0-1.93,1.57-3.5,3.5-3.5Zm12,9.5c0,2.481-2.019,4.5-4.5,4.5s-4.5-2.019-4.5-4.5,2.019-4.5,4.5-4.5,4.5,2.019,4.5,4.5Zm3,9.5H4.5c-1.93,0-3.5-1.57-3.5-3.5v-5.5h5.523c.254,2.799,2.613,5,5.477,5s5.224-2.201,5.477-5h5.523v5.5c0,1.93-1.57,3.5-3.5,3.5Z"/></svg>
