<?xml version="1.0" encoding="UTF-8"?>
<svg xmlns="http://www.w3.org/2000/svg" id="Layer_1" data-name="Layer 1" viewBox="0 0 24 24">
  <path d="m23.667,19.853L14.106,1.29C13.685.496,12.897.022,12,.022s-1.685.474-2.109,1.273L.334,19.85c-.471.889-.442,1.935.076,2.798.518.861,1.426,1.375,2.429,1.375h18.321c1.003,0,1.911-.514,2.429-1.375.519-.863.547-1.91.078-2.795ZM10.777,1.759c.245-.461.702-.736,1.223-.736s.978.275,1.22.731l3.663,7.111c-.021.024-1.74,2.936-1.74,2.936-.102.174-.269.194-.336.194-.08-.03-.235-.017-.339-.19l-1.041-1.717c-.09-.148-.25-.239-.424-.241-.129.019-.335.088-.427.235l-1.688,2.7c-.124.197-.295.257-.393.218-.078,0-.269-.021-.391-.216,0,0-2.748-4.33-2.766-4.35l3.438-6.675Zm11.956,20.374c-.335.557-.923.89-1.572.89H2.839c-.649,0-1.237-.333-1.572-.89-.337-.56-.355-1.239-.048-1.816,0-.002.001-.003.002-.005l5.594-10.861,2.443,3.869c.27.427.732.682,1.237.682h.003c.506,0,.969-.258,1.237-.688l1.257-2.011.62,1.022c.255.421.7.672,1.191.672h.011c.496-.004.941-.261,1.192-.689l1.409-2.407,5.366,10.418c.307.577.289,1.256-.048,1.816Z"/>
</svg>
