<?xml version="1.0" encoding="UTF-8"?>
<svg xmlns="http://www.w3.org/2000/svg" id="Layer_1" data-name="Layer 1" viewBox="0 0 24 24" width="512" height="512"><path d="M23.5,24H2.5c-1.378,0-2.5-1.122-2.5-2.5V.5C0,.224,.224,0,.5,0s.5,.224,.5,.5V21.5c0,.827,.673,1.5,1.5,1.5H23.5c.276,0,.5,.224,.5,.5s-.224,.5-.5,.5Zm.5-5.494v-6.236c0-.621-.229-1.216-.645-1.677l-2.587-2.861c-.943-.944-2.592-.944-3.535,0l-2.232,2.232-4.232-4.232c-.944-.944-2.596-.94-3.531-.004l-3.485,3.412c-.478,.467-.751,1.119-.751,1.787v7.573c0,1.378,1.122,2.5,2.5,2.5H21.5c1.374,0,2.496-1.118,2.5-2.494ZM10.061,6.439h0l4.586,4.585c.195,.195,.512,.195,.707,0l2.586-2.585c.566-.566,1.572-.548,2.104-.018l2.57,2.842c.25,.277,.387,.634,.387,1.006v6.234c-.002,.825-.675,1.496-1.5,1.496H5.5c-.827,0-1.5-.673-1.5-1.5v-7.573c0-.401,.164-.792,.451-1.072l3.489-3.416c.283-.283,.66-.439,1.061-.439s.777,.156,1.061,.439Z"/></svg>
