<?xml version="1.0" encoding="UTF-8"?>
<svg xmlns="http://www.w3.org/2000/svg" id="Layer_1" data-name="Layer 1" viewBox="0 0 24 24" width="512" height="512"><path d="M23.8,9.99l-2.06,1.57s0,.05-.01,.07l-2,7.1c-.54,1.92-2.31,3.27-4.31,3.28h-4.07s0-.01,0-.01c-.41,0-.8,.17-1.08,.46l-1.33,1.38c-.1,.1-.23,.15-.36,.15s-.25-.05-.35-.14c-.2-.19-.21-.51-.01-.71l1.33-1.38c.47-.49,1.16-.79,1.81-.77h4.06c1.55,0,2.93-1.05,3.35-2.54l1.82-6.46h-7.58v1.5c0,1.38-1.12,2.5-2.5,2.5s-2.5-1.12-2.5-2.5v-5.5h-.9c-1.6,0-2.99,1.08-3.39,2.62l-1.09,4.22c-.11,.43-.34,.83-.65,1.14l-1.11,1.11c-.1,.1-.23,.15-.35,.15s-.26-.05-.35-.15c-.2-.2-.2-.51,0-.71l1.11-1.11c.19-.19,.32-.43,.39-.69l1.09-4.22c.51-1.99,2.3-3.38,4.36-3.38h.9c.04-2.01,1.42-3.75,3.37-4.26l4.22-1.09c.26-.07,.5-.2,.69-.39l1.11-1.11c.2-.2,.51-.2,.71,0s.2,.51,0,.71l-1.11,1.11c-.32,.32-.71,.54-1.14,.65l-4.22,1.09c-1.55,.4-2.62,1.79-2.62,3.39v6.4c0,.83,.67,1.5,1.5,1.5s1.5-.67,1.5-1.5V7.5c0-.28,.22-.5,.5-.5s.5,.22,.5,.5v3.5h7.83l2.37-1.8c.22-.17,.53-.12,.7,.09,.17,.22,.13,.53-.09,.7Z"/></svg>
