<?xml version="1.0" encoding="UTF-8"?>
<svg xmlns="http://www.w3.org/2000/svg" id="Layer_1" data-name="Layer 1" viewBox="0 0 24 24" width="512" height="512"><path d="M23.358,7.657l-2.052-3.42c-.379-.632-.912-1.165-1.544-1.544l-3.419-2.052c-.699-.42-1.5-.642-2.315-.642h-4.057c-.815,0-1.616,.222-2.314,.642l-3.42,2.052c-.632,.379-1.165,.912-1.544,1.544L.642,7.656c-.42,.699-.642,1.5-.642,2.315v4.057c0,.815,.222,1.616,.642,2.314l2.052,3.42c.379,.632,.912,1.165,1.544,1.544l3.419,2.052c.699,.42,1.5,.642,2.315,.642h4.057c.815,0,1.616-.222,2.314-.642l3.42-2.052c.632-.379,1.165-.912,1.544-1.544l2.052-3.419c.42-.699,.642-1.5,.642-2.315v-4.057c0-.815-.222-1.616-.642-2.314Zm-3.295-3.43c.144,.162,.274,.338,.386,.524l2.052,3.421c.136,.227,.245,.468,.327,.717l-4.686,5.623-5.642-2.821V6.118l7.563-1.891ZM8.172,1.499c.543-.326,1.166-.499,1.8-.499h4.057c.634,0,1.257,.173,1.801,.499l3.242,1.945-7.071,1.768-7.071-1.768,3.243-1.945ZM1.499,8.171l2.052-3.42c.112-.187,.242-.362,.387-.525l.02,.006,7.543,1.886v5.573l-5.642,2.821S1.182,8.903,1.171,8.892c.081-.251,.191-.493,.328-.722Zm3.252,12.278c-.49-.295-.905-.71-1.2-1.2l-2.052-3.421c-.326-.543-.499-1.166-.499-1.8v-3.783l4.29,5.147,2.603,6.942-3.141-1.885Zm9.277,2.551h-4.057c-.269,0-.537-.032-.797-.093l-2.821-7.525,5.646-2.824,5.646,2.824s-2.81,7.501-2.815,7.523c-.262,.062-.531,.094-.803,.094Zm8.972-8.972c0,.634-.173,1.257-.499,1.801l-2.052,3.42c-.295,.49-.71,.905-1.2,1.2l-3.141,1.884,2.603-6.941,4.29-5.148v3.784Z"/></svg>
