<?xml version="1.0" encoding="UTF-8"?>
<svg xmlns="http://www.w3.org/2000/svg" id="Layer_1" data-name="Layer 1" viewBox="0 0 24 24" width="512" height="512"><path d="M12.079,24c-2.742,0-5.255-1.041-7.146-2.932-1.891-1.891-2.933-4.405-2.933-7.079v-3.649C2,4.83,6.163,.294,11.476,.014c3.959-.215,7.653,1.946,9.415,5.49,.123,.248,.022,.547-.225,.67-.248,.125-.548,.021-.67-.225C18.412,2.764,15.096,.822,11.529,1.013,6.746,1.265,3,5.362,3,10.34v3.649c.062,10.079,14.12,12.343,17.82,3.377,.306-.739,.22-1.553-.235-2.233-.474-.709-1.263-1.133-2.111-1.133h-5.974c-.649,.01-.649-1.01,0-1h5.974c1.182,0,2.282,.59,2.942,1.577,.644,.963,.763,2.119,.327,3.171-1.619,3.916-5.233,6.253-9.665,6.252Z"/></svg>
