<?xml version="1.0" encoding="UTF-8"?>
<svg xmlns="http://www.w3.org/2000/svg" id="Layer_1" data-name="Layer 1" width="512" height="512" viewBox="0 0 24 24"><path d="M17.5,11c-.095,0-.191-.027-.277-.084l-3-2c-.139-.093-.223-.249-.223-.416s.083-.323,.223-.416l3-2c.23-.154,.54-.091,.693,.139s.091,.54-.139,.693l-2.376,1.584,2.376,1.584c.23,.153,.292,.464,.139,.693-.096,.145-.255,.223-.417,.223Zm-10.722-.084l3-2c.139-.093,.223-.249,.223-.416s-.083-.323-.223-.416l-3-2c-.231-.154-.541-.091-.693,.139-.153,.229-.091,.54,.139,.693l2.376,1.584-2.376,1.584c-.23,.153-.292,.464-.139,.693,.096,.145,.255,.223,.417,.223,.095,0,.191-.027,.277-.084Zm17.223,1.084C24,5.383,18.617,0,12,0S0,5.383,0,12s5.383,12,12,12,12-5.383,12-12Zm-1,0c0,6.065-4.935,11-11,11S1,18.065,1,12,5.935,1,12,1s11,4.935,11,11ZM6.818,18.964c.288-.062,.614-.156,.982-.262,1.028-.296,2.435-.701,4.197-.702,1.763,0,3.174,.406,4.205,.702,.367,.105,.694,.199,.98,.262,.595,.132,1.19-.101,1.542-.605,.355-.508,.37-1.147,.039-1.669h0c-1.169-1.836-3.714-3.689-6.764-3.689s-5.595,1.854-6.764,3.689c-.331,.521-.316,1.161,.039,1.669,.288,.411,.734,.642,1.213,.642,.108,0,.219-.012,.33-.036Zm11.102-1.737h0c.166,.262,.031,.494-.015,.559-.044,.064-.212,.267-.509,.202-.269-.059-.574-.147-.918-.246-1.088-.312-2.578-.74-4.481-.741-1.903,0-3.389,.429-4.474,.741-.344,.099-.65,.188-.919,.246-.299,.064-.464-.138-.509-.202-.045-.064-.181-.297-.015-.559,1.022-1.606,3.249-3.227,5.92-3.227s4.898,1.62,5.92,3.227Z"/></svg>
