<?xml version="1.0" encoding="UTF-8"?>
<svg xmlns="http://www.w3.org/2000/svg" id="Layer_1" data-name="Layer 1" viewBox="0 0 24 24" width="512" height="512"><path d="M5.65,15h15.85c.276,0,.5-.224,.5-.5s-.224-.5-.5-.5H8.023l9.844-3.632c.271-.1,.529-.224,.773-.368h2.861c.276,0,.5-.224,.5-.5s-.224-.5-.5-.5h-1.667c.735-.853,1.167-1.958,1.167-3.128,0-1.763-.947-3.37-2.473-4.194-1.416-.766-3.702-1.678-6.55-1.678C6.616,0,3.3,3.005,3.161,3.133c-.203,.188-.216,.503-.028,.706,.188,.205,.504,.217,.706,.028,.031-.028,3.164-2.867,8.139-2.867,2.639,0,4.76,.847,6.075,1.557,1.201,.649,1.947,1.92,1.947,3.315,0,1.264-.637,2.431-1.65,3.128H2.5c-.276,0-.5,.224-.5,.5s.224,.5,.5,.5H15.977l-9.844,3.632c-.271,.1-.529,.224-.773,.368H2.5c-.276,0-.5,.224-.5,.5s.224,.5,.5,.5h1.667c-.735,.853-1.167,2.088-1.167,3.258,0,1.773,.949,3.481,2.478,4.298,1.793,.958,3.98,1.444,6.5,1.444,5.322,0,9.628-2.964,9.809-3.09,.227-.158,.281-.47,.124-.696-.158-.225-.47-.281-.696-.124-.042,.029-4.236,2.91-9.236,2.91-2.354,0-4.382-.446-6.029-1.327-1.201-.642-1.948-2.012-1.948-3.415,0-1.264,.637-2.561,1.65-3.258Z"/></svg>
