<?xml version="1.0" encoding="UTF-8"?>
<svg xmlns="http://www.w3.org/2000/svg" id="Layer_1" data-name="Layer 1" viewBox="0 0 24 24" width="512" height="512"><path d="M21.5,6.5c-.136,0-.272-.055-.371-.164-.186-.205-.17-.521,.035-.707,.537-.486,.833-1.065,.833-1.629,0-.479-.105-1.161-.604-1.688-.83-.875-1.986-1.354-3.12-1.31-5.379,.192-9.626,1.076-9.669,1.084-.271,.057-.535-.116-.592-.386-.057-.27,.116-.535,.386-.592,.043-.009,4.37-.91,9.839-1.105,1.439-.064,2.855,.539,3.882,1.621,.575,.606,.879,1.427,.879,2.376,0,.85-.412,1.692-1.161,2.371-.096,.086-.216,.129-.336,.129Zm-.5,8.5c0-1.275-.262-2.509-.78-3.667-.087-.195-.057-.408,.077-.542l.119-.119c.376-.376,.584-.877,.584-1.41s-.208-1.033-.584-1.41l-1.269-1.269c-.753-.753-2.067-.752-2.819,0l-.119,.119c-.135,.134-.347,.164-.542,.077-1.158-.518-2.392-.78-3.667-.78C7.038,6,3,10.038,3,15s4.038,9,9,9,9-4.038,9-9Zm-5.741-7.307c.577,.257,1.228,.147,1.658-.283l.119-.119c.375-.375,1.029-.375,1.405,0l1.269,1.269c.188,.188,.291,.438,.291,.703s-.103,.515-.291,.703l-.119,.119c-.43,.43-.541,1.081-.283,1.658,.46,1.029,.693,2.125,.693,3.259,0,4.411-3.589,8-8,8s-8-3.589-8-8S7.589,7,12,7c1.134,0,2.23,.233,3.259,.693Z"/><path d="M4.658,1.99l-1.263-.421-.421-1.263c-.136-.408-.812-.408-.948,0l-.419,1.257L.351,1.957C.146,2.021,.004,2.209,0,2.424s.13,.409,.333,.48l1.27,.449,.423,1.269c.068,.204,.259,.342,.474,.342s.406-.138,.474-.342l.421-1.263,1.263-.421c.204-.068,.342-.259,.342-.474s-.138-.406-.342-.474Z"/></svg>
