<?xml version="1.0" encoding="UTF-8"?>
<svg xmlns="http://www.w3.org/2000/svg" id="Layer_1" data-name="Layer 1" viewBox="0 0 24 24" width="512" height="512"><path d="M13.5,6H4.5C2.02,6,0,8.02,0,10.5v9c0,2.48,2.02,4.5,4.5,4.5H13.5c2.48,0,4.5-2.02,4.5-4.5V10.5c0-2.48-2.02-4.5-4.5-4.5Zm0,17H4.5c-1.93,0-3.5-1.57-3.5-3.5v-7.5H17v7.5c0,1.93-1.57,3.5-3.5,3.5Zm3.5-12H1v-.5c0-1.93,1.57-3.5,3.5-3.5H13.5c1.93,0,3.5,1.57,3.5,3.5v.5Zm7-6.5V13.5c0,2.05-1.39,3.85-3.38,4.36-.04,.01-.08,.02-.12,.02-.22,0-.43-.15-.48-.38-.07-.27,.09-.54,.36-.61,1.55-.4,2.62-1.79,2.62-3.39V4.5c0-1.93-1.57-3.5-3.5-3.5H10.5c-1.6,0-2.99,1.08-3.39,2.62-.07,.27-.34,.43-.61,.36-.27-.07-.43-.34-.36-.61,.51-1.99,2.3-3.38,4.36-3.38h9c2.48,0,4.5,2.02,4.5,4.5Z"/></svg>
