<?xml version="1.0" encoding="UTF-8"?>
<svg xmlns="http://www.w3.org/2000/svg" id="Layer_1" data-name="Layer 1" viewBox="0 0 24 24" width="512" height="512"><path d="M17.5,16c-.276,0-.5,.224-.5,.5v1.5h-3v-1.5c0-.276-.224-.5-.5-.5s-.5,.224-.5,.5v6.5H5V10h.5c.276,0,.5-.224,.5-.5s-.224-.5-.5-.5h-1.5c-2.206,0-4,1.794-4,4v7c0,2.206,1.794,4,4,4H14c2.206,0,4-1.794,4-4v-3.5c0-.276-.224-.5-.5-.5ZM1,15h3v3H1v-3Zm3-5v4H1v-1c0-1.654,1.346-3,3-3ZM1,20v-1h3v4c-1.654,0-3-1.346-3-3Zm13,3v-4h3v1c0,1.654-1.346,3-3,3ZM19.5,0h-7c-2.481,0-4.5,2.019-4.5,4.5v5c0,2.481,2.019,4.5,4.5,4.5h7c2.481,0,4.5-2.019,4.5-4.5V4.5c0-2.481-2.019-4.5-4.5-4.5ZM9,4.5c0-1.93,1.57-3.5,3.5-3.5h7c1.296,0,2.428,.71,3.033,1.76l-4.194,4.194c-.189,.189-.52,.188-.705,.002l-.473-.478c-.552-.552-1.421-.592-2.03-.084l-5.614,4.926c-.325-.531-.516-1.153-.516-1.82V4.5Zm14,5c0,1.93-1.57,3.5-3.5,3.5h-7c-.902,0-1.724-.346-2.345-.909l5.625-4.936c.201-.166,.49-.153,.672,.029l.472,.478c.566,.566,1.555,.567,2.122,0l3.879-3.879c.049,.232,.075,.472,.075,.718v5ZM11,4c0-.552,.448-1,1-1s1,.448,1,1-.448,1-1,1-1-.448-1-1Z"/></svg>
