<?xml version="1.0" encoding="UTF-8"?>
<svg xmlns="http://www.w3.org/2000/svg" id="Layer_1" data-name="Layer 1" viewBox="0 0 24 24" width="512" height="512"><path d="M16.03,19.55c-.02,.2-.03,.39-.03,.59v.35c0,1.93-1.57,3.5-3.5,3.5h-1c-1.93,0-3.5-1.57-3.5-3.5v-.35c0-1.71-.72-3.32-1.97-4.43-2.26-2-3.36-5-2.94-8.01l.05-.29c.05-.27,.31-.45,.58-.41,.27,.05,.45,.31,.41,.58l-.04,.26c-.37,2.68,.6,5.35,2.61,7.13,.92,.82,1.6,1.87,1.97,3.03h5.84c.28,0,.5,.22,.5,.5s-.22,.5-.5,.5h-5.6c.06,.38,.1,.76,.1,1.15v.35c0,1.38,1.12,2.5,2.5,2.5h1c1.38,0,2.5-1.12,2.5-2.5v-.35c0-.24,.01-.47,.04-.7,.03-.27,.28-.48,.55-.44,.27,.03,.47,.27,.44,.55Zm7.82,4.3c-.1,.1-.23,.15-.35,.15s-.26-.05-.35-.15L.15,.85C-.05,.66-.05,.34,.15,.15S.66-.05,.85,.15l3.74,3.74C6.07,1.77,8.41,.35,10.94,.06c2.56-.3,5.14,.51,7.05,2.22,1.91,1.71,3.01,4.16,3.01,6.72s-1.05,4.88-2.88,6.58c-.32,.3-.61,.62-.87,.96l6.61,6.61c.2,.2,.2,.51,0,.71ZM5.32,4.61l11.22,11.22c.27-.35,.57-.68,.9-.98,1.65-1.53,2.56-3.6,2.56-5.84s-.98-4.46-2.68-5.97c-1.72-1.54-3.95-2.24-6.27-1.97-2.3,.26-4.43,1.59-5.74,3.55Z"/></svg>
