<?xml version="1.0" encoding="UTF-8"?>
<svg xmlns="http://www.w3.org/2000/svg" id="Layer_1" data-name="Layer 1" viewBox="0 0 24 24" width="512" height="512"><path d="m12,0C5.383,0,0,5.383,0,12s5.383,12,12,12,12-5.383,12-12S18.617,0,12,0Zm0,23c-6.065,0-11-4.935-11-11S5.935,1,12,1s11,4.935,11,11-4.935,11-11,11Zm-4.5-11.885v1.77c0,2.407,2.007,4.365,4.473,4.365,1.691,0,3.22-.914,3.988-2.385.13-.245.431-.339.675-.212.245.128.34.43.212.675-.942,1.803-2.811,2.922-4.875,2.922-3.018,0-5.473-2.407-5.473-5.365v-1.77c0-2.958,2.455-5.365,5.473-5.365,2.064,0,3.933,1.12,4.875,2.922.128.245.033.547-.212.675-.245.126-.546.033-.675-.212-.769-1.471-2.297-2.385-3.988-2.385-2.466,0-4.473,1.958-4.473,4.365Z"/></svg>
