<?xml version="1.0" encoding="UTF-8"?>
<svg xmlns="http://www.w3.org/2000/svg" id="Layer_1" data-name="Layer 1" viewBox="0 0 24 24" width="512" height="512"><path d="M9,22c-.125,0-.25-.046-.347-.14L1.032,14.532c-1.372-1.372-1.372-3.592-.007-4.957L8.651,2.142c.198-.192,.515-.188,.707,.009,.193,.198,.189,.515-.009,.707L1.728,10.287c-.468,.468-.728,1.096-.728,1.764s.26,1.295,.732,1.768l7.614,7.321c.199,.191,.205,.508,.014,.707-.098,.102-.229,.153-.36,.153Zm6.349-.142l7.625-7.437c1.365-1.365,1.365-3.585-.007-4.957L15.347,2.14c-.2-.192-.515-.186-.707,.014-.191,.199-.185,.516,.014,.707l7.614,7.318c.975,.975,.975,2.561,.004,3.531l-7.621,7.432c-.198,.193-.202,.51-.009,.707,.098,.101,.228,.151,.358,.151,.126,0,.252-.047,.349-.142Z"/></svg>
