<?xml version="1.0" encoding="UTF-8"?>
<svg xmlns="http://www.w3.org/2000/svg" id="Layer_1" data-name="Layer 1" viewBox="0 0 24 24" width="512" height="512"><path d="M21.5,24c-1.379,0-2.5-1.122-2.5-2.5V13.5c0-.827-.673-1.5-1.5-1.5H6.5c-.827,0-1.5,.673-1.5,1.5v8c0,1.378-1.121,2.5-2.5,2.5s-2.5-1.122-2.5-2.5V9.561c0-1.499,.741-2.893,1.983-3.73L9.483,.77c1.527-1.031,3.504-1.032,5.033,0l7.5,5.061c1.242,.837,1.983,2.232,1.983,3.73v11.939c0,1.378-1.121,2.5-2.5,2.5ZM6.5,11h11c1.379,0,2.5,1.122,2.5,2.5v8c0,.827,.673,1.5,1.5,1.5s1.5-.673,1.5-1.5V9.561c0-1.166-.576-2.25-1.542-2.901L13.958,1.599c-1.189-.803-2.727-.803-3.916,0L2.542,6.66c-.966,.651-1.542,1.736-1.542,2.901v11.939c0,.827,.673,1.5,1.5,1.5s1.5-.673,1.5-1.5V13.5c0-1.378,1.121-2.5,2.5-2.5Zm3.3,13h-1.6c-.662,0-1.2-.539-1.2-1.2v-1.6c0-.662,.538-1.2,1.2-1.2h1.6c.662,0,1.2,.539,1.2,1.2v1.6c0,.662-.538,1.2-1.2,1.2Zm-1.6-3c-.11,0-.2,.09-.2,.2v1.6c0,.11,.09,.2,.2,.2h1.6c.11,0,.2-.09,.2-.2v-1.6c0-.11-.09-.2-.2-.2h-1.6Zm1.6-3h-1.6c-.662,0-1.2-.539-1.2-1.2v-1.6c0-.662,.538-1.2,1.2-1.2h1.6c.662,0,1.2,.539,1.2,1.2v1.6c0,.662-.538,1.2-1.2,1.2Zm-1.6-3c-.11,0-.2,.09-.2,.2v1.6c0,.11,.09,.2,.2,.2h1.6c.11,0,.2-.09,.2-.2v-1.6c0-.11-.09-.2-.2-.2h-1.6Zm7.6,9h-1.6c-.662,0-1.2-.539-1.2-1.2v-1.6c0-.662,.538-1.2,1.2-1.2h1.6c.662,0,1.2,.539,1.2,1.2v1.6c0,.662-.538,1.2-1.2,1.2Zm-1.6-3c-.11,0-.2,.09-.2,.2v1.6c0,.11,.09,.2,.2,.2h1.6c.11,0,.2-.09,.2-.2v-1.6c0-.11-.09-.2-.2-.2h-1.6Z"/></svg>
