<?xml version="1.0" encoding="UTF-8"?>
<svg xmlns="http://www.w3.org/2000/svg" id="Layer_1" data-name="Layer 1" viewBox="0 0 24 24" width="512" height="512"><path d="M19.5,0H4.5C2.019,0,0,2.019,0,4.5v15c0,2.481,2.019,4.5,4.5,4.5h15c2.481,0,4.5-2.019,4.5-4.5V4.5c0-2.481-2.019-4.5-4.5-4.5Zm3.5,19.5c0,1.93-1.57,3.5-3.5,3.5H4.5c-1.93,0-3.5-1.57-3.5-3.5V4.5c0-1.93,1.57-3.5,3.5-3.5h15c1.93,0,3.5,1.57,3.5,3.5v15Zm-7-13v11c0,.276-.224,.5-.5,.5s-.5-.224-.5-.5v-3.5h-4.5c-1.379,0-2.5-1.122-2.5-2.5V6.5c0-.276,.224-.5,.5-.5s.5,.224,.5,.5v5c0,.827,.673,1.5,1.5,1.5h4.5V6.5c0-.276,.224-.5,.5-.5s.5,.224,.5,.5Z"/></svg>
