<?xml version="1.0" encoding="UTF-8"?>
<svg xmlns="http://www.w3.org/2000/svg" id="Layer_1" data-name="Layer 1" viewBox="0 0 24 24" width="512" height="512"><path d="M12.5,10.018v-2.018h3c.276,0,.5-.224,.5-.5s-.224-.5-.5-.5h-3V1.088c.208,.073,.403,.194,.57,.361l3.086,2.914c.097,.091,.221,.136,.344,.136,.133,0,.266-.053,.363-.157,.189-.201,.181-.517-.02-.707L13.768,.732c-.975-.975-2.56-.975-3.525-.01l-3.086,2.914c-.2,.19-.209,.506-.02,.707,.188,.2,.506,.209,.707,.021l3.096-2.924c.163-.163,.356-.281,.561-.353V7h-3c-.276,0-.5,.224-.5,.5s.224,.5,.5,.5h3v2.018c-3.627,.257-6.5,3.29-6.5,6.982,0,3.86,3.141,7,7,7s7-3.14,7-7c0-3.692-2.873-6.725-6.5-6.982Zm-.5,12.982c-3.309,0-6-2.691-6-6s2.691-6,6-6,6,2.691,6,6-2.691,6-6,6Z"/></svg>
