<?xml version="1.0" encoding="UTF-8"?>
<svg xmlns="http://www.w3.org/2000/svg" id="arrow-circle-down" viewBox="0 0 24 24" width="512" height="512"><path d="M10.601,22.408l-3.747-3.747c-.195-.195-.512-.195-.707,0s-.195,.512,0,.707l3.747,3.747c.558,.558,1.294,.865,2.079,.879,.01,0,.018,.006,.027,.006l.01-.002,.02,.002h.013c.812-.003,1.572-.323,2.142-.902l3.673-3.732c.193-.196,.191-.514-.006-.707-.197-.192-.514-.191-.707,.006l-3.673,3.732c-.27,.274-.606,.456-.971,.543V1.075c.365,.087,.701,.269,.971,.544l3.673,3.732c.193,.197,.51,.199,.707,.006,.197-.194,.199-.51,.006-.707L14.184,.917C13.629,.353,12.892,.04,12.104,.021c-.035-.008-.067-.021-.104-.021-.06,0-.115,.015-.169,.034-.731,.048-1.414,.342-1.938,.865l-3.747,3.747c-.195,.195-.195,.512,0,.707,.098,.098,.226,.146,.354,.146s.256-.049,.354-.146l3.747-3.747c.253-.253,.564-.422,.899-.513V22.921c-.336-.091-.646-.26-.899-.513Z"/></svg>
