<?xml version="1.0" encoding="UTF-8"?>
<svg xmlns="http://www.w3.org/2000/svg" id="Layer_1" data-name="Layer 1" viewBox="0 0 24 24" width="512" height="512"><path d="M18.867,10.161c.188,.202,.175,.519-.028,.706-.746,.688-1.798,1.133-2.896,1.133-.953,0-1.939-.335-2.787-1.137-.2-.189-.209-.506-.02-.707,.19-.2,.506-.209,.707-.02,1.552,1.467,3.472,.776,4.317-.004,.203-.188,.52-.176,.707,.028Zm-8.028,.706c.203-.188,.215-.504,.028-.706-.187-.204-.503-.216-.707-.028-.845,.78-2.765,1.471-4.317,.004-.2-.189-.518-.181-.707,.02-.19,.201-.181,.518,.02,.707,.848,.802,1.834,1.137,2.787,1.137,1.098,0,2.15-.444,2.896-1.133Zm5.828,4.26c-.021,.019-2.138,1.873-4.667,1.873s-4.646-1.854-4.667-1.873c-.207-.185-.522-.166-.706,.041-.184,.206-.166,.521,.04,.705,.097,.087,2.415,2.127,5.333,2.127s5.236-2.04,5.333-2.127c.206-.184,.224-.499,.04-.705-.184-.207-.5-.226-.706-.041Zm7.304-3.127c0,6.617-5.383,12-12,12S-.029,18.617-.029,12,5.354,0,11.971,0s12,5.383,12,12Zm-1,0c0-6.065-4.935-11-11-11S.971,5.935,.971,12s4.935,11,11,11,11-4.935,11-11Zm-3.064-3.79c-.531-.745-2.011-2.546-4.27-3.19-.265-.08-.542,.078-.618,.343-.076,.266,.078,.543,.344,.618,1.955,.559,3.26,2.151,3.73,2.81,.097,.137,.251,.21,.407,.21,.101,0,.202-.03,.29-.093,.225-.161,.277-.473,.116-.697Zm-11.27-2.229c.266-.075,.419-.353,.344-.618-.076-.265-.355-.422-.618-.343-2.259,.645-3.738,2.445-4.27,3.19-.161,.225-.108,.536,.116,.697,.088,.062,.189,.093,.29,.093,.156,0,.31-.073,.407-.21,.471-.658,1.775-2.251,3.73-2.81Z"/></svg>
