<?xml version="1.0" encoding="UTF-8"?>
<svg xmlns="http://www.w3.org/2000/svg" id="Layer_1" data-name="Layer 1" viewBox="0 0 24 24" width="512" height="512"><path d="M17.5,21H7V13h1.5c.276,0,.5-.224,.5-.5s-.224-.5-.5-.5h-1.5v-2.5c0-.276-.224-.5-.5-.5s-.5,.224-.5,.5v2.5H3v-3h1.5c.276,0,.5-.224,.5-.5s-.224-.5-.5-.5h-1.5v-1.5c0-.276-.224-.5-.5-.5s-.5,.224-.5,.5v11c0,2.481,2.019,4.5,4.5,4.5h11c.276,0,.5-.224,.5-.5s-.224-.5-.5-.5ZM6,13v3H3v-3h3Zm-3,4.5v-.5h3v3.949c-1.692-.245-3-1.691-3-3.449Zm20.854,5.646l-2.848-2.848c.635-.795,.995-1.775,.995-2.798V6.5c0-2.481-2.019-4.5-4.5-4.5H6.5c-1.023,0-2.004,.359-2.799,.994L.854,.146C.658-.049,.342-.049,.146,.146S-.049,.658,.146,.854L23.146,23.854c.098,.098,.226,.146,.354,.146s.256-.049,.354-.146c.195-.195,.195-.512,0-.707Zm-5.854-5.854v-.293h3v.5c0,.758-.257,1.483-.707,2.086l-2.293-2.293ZM7,3h10V12h-4.293L7,6.293V3Zm11,10h3v3h-3v-3Zm3-1h-3v-3h3v3Zm-4,1v3.293l-3.293-3.293h3.293Zm4-6.5v1.5h-3V3.051c1.692,.245,3,1.691,3,3.449ZM6,3.045v2.248l-1.586-1.586c.468-.35,1.009-.578,1.586-.661Z"/></svg>
