<?xml version="1.0" encoding="UTF-8"?>
<svg xmlns="http://www.w3.org/2000/svg" id="Layer_1" data-name="Layer 1" viewBox="0 0 24 24" width="512" height="512"><path d="M20.1,5.39l-3.48-3.49c-1.23-1.23-2.86-1.9-4.6-1.9H6.5C4.02,0,2,2.02,2,4.5v15c0,2.48,2.02,4.5,4.5,4.5h3c.28,0,.5-.22,.5-.5s-.22-.5-.5-.5h-3c-1.93,0-3.5-1.57-3.5-3.5V4.5c0-1.93,1.57-3.5,3.5-3.5h5.51c.33,0,.66,.03,.99,.09V6.5c0,1.38,1.12,2.5,2.5,2.5h5.41c.06,.32,.09,.65,.09,.99v9.51c0,1.25-.67,2.41-1.75,3.03-.24,.14-.32,.44-.18,.68,.14,.24,.45,.32,.68,.18,1.39-.8,2.25-2.3,2.25-3.9V9.99c0-1.74-.68-3.37-1.9-4.6Zm-4.6,2.61c-.83,0-1.5-.67-1.5-1.5V1.37c.71,.27,1.35,.69,1.9,1.24l3.48,3.49c.55,.55,.97,1.2,1.24,1.9h-5.13Zm-1,5c-1.93,0-3.5,1.57-3.5,3.5,0,.95,.38,1.82,1,2.45v3.99c0,.43,.26,.82,.66,.99,.13,.05,.27,.08,.41,.08,.28,0,.55-.11,.75-.31l.68-.68,.68,.68c.31,.31,.76,.4,1.16,.23,.4-.17,.66-.55,.66-.99v-3.99c.62-.63,1-1.5,1-2.45,0-1.93-1.57-3.5-3.5-3.5Zm0,1c1.38,0,2.5,1.12,2.5,2.5s-1.12,2.5-2.5,2.5-2.5-1.12-2.5-2.5,1.12-2.5,2.5-2.5Zm1.39,8.98l-1.39-1.39-1.39,1.39-.11-.05v-3.27c.45,.22,.96,.34,1.5,.34s1.05-.12,1.5-.34v3.27l-.11,.05Z"/></svg>
