<?xml version="1.0" encoding="UTF-8"?>
<svg xmlns="http://www.w3.org/2000/svg" id="Layer_1" data-name="Layer 1" viewBox="0 0 24 24" width="512" height="512"><path d="M23.393,19.789l-1.325-.756c.278-.621,.432-1.309,.432-2.033s-.155-1.411-.432-2.033l1.325-.756c.24-.137,.323-.442,.186-.682s-.443-.324-.682-.186l-1.326,.757c-.816-1.142-2.101-1.928-3.571-2.075v-1.525c0-.276-.224-.5-.5-.5s-.5,.224-.5,.5v1.525c-1.47,.147-2.754,.933-3.571,2.075l-1.326-.757c-.241-.138-.546-.054-.682,.186-.137,.24-.054,.545,.186,.682l1.325,.756c-.278,.621-.432,1.309-.432,2.033s.155,1.411,.432,2.033l-1.325,.756c-.24,.137-.323,.442-.186,.682,.092,.162,.261,.252,.435,.252,.084,0,.169-.021,.248-.066l1.326-.757c.816,1.142,2.101,1.928,3.571,2.075v1.525c0,.276,.224,.5,.5,.5s.5-.224,.5-.5v-1.525c1.47-.147,2.754-.933,3.571-2.075l1.326,.757c.078,.045,.164,.066,.248,.066,.174,0,.342-.09,.435-.252,.137-.24,.054-.545-.186-.682Zm-5.893,1.211c-2.206,0-4-1.794-4-4s1.794-4,4-4,4,1.794,4,4-1.794,4-4,4ZM9,12c3.309,0,6-2.691,6-6S12.309,0,9,0,3,2.691,3,6s2.691,6,6,6Zm0-11c2.757,0,5,2.243,5,5s-2.243,5-5,5-5-2.243-5-5S6.243,1,9,1Zm.088,13.486c.013,.276-.2,.51-.476,.523-4.269,.204-7.612,3.713-7.612,7.991v.5c0,.276-.224,.5-.5,.5s-.5-.224-.5-.5v-.5c0-4.812,3.762-8.761,8.564-8.99,.26-.015,.51,.199,.523,.476Z"/></svg>
