<?xml version="1.0" encoding="UTF-8"?>
<svg xmlns="http://www.w3.org/2000/svg" id="Layer_1" data-name="Layer 1" viewBox="0 0 24 24" width="512" height="512"><path d="M17,20.5c0,.28-.22,.5-.5,.5H4.5c-2.48,0-4.5-2.02-4.5-4.5V7.5c0-.79,.21-1.57,.6-2.25,.14-.24,.45-.32,.68-.18s.32,.44,.18,.68c-.31,.53-.47,1.13-.47,1.75v9c0,1.93,1.57,3.5,3.5,3.5h12c.28,0,.5,.22,.5,.5Zm4.31,.12l2.54,2.52c.2,.19,.2,.51,0,.71-.1,.1-.23,.15-.35,.15s-.25-.05-.35-.15l-6.91-6.86c-.08,0-.16,0-.24,0h-1.5c-.83,0-1.5-.67-1.5-1.5v-7c0-.83,.67-1.5,1.5-1.5h1.5c2.21,0,4,1.79,4,4v2c0,1.71-1.08,3.17-2.59,3.74l3.12,3.1c1.46-.45,2.47-1.8,2.47-3.35V7.5c0-1.93-1.57-3.5-3.5-3.5H4.71l3,3s.03,0,.04,0c.39,0,.72,.23,.85,.59l2.88,8.76c.09,.26-.06,.54-.32,.63-.05,.02-.1,.02-.16,.02-.21,0-.41-.13-.47-.34l-.54-1.66H5.52l-.54,1.66c-.08,.26-.37,.41-.63,.32-.26-.09-.41-.37-.32-.63L6.9,7.6,.15,.85C-.05,.66-.05,.34,.15,.15S.66-.05,.85,.15L3.77,3.06c.24-.04,.49-.06,.73-.06h15c2.48,0,4.5,2.02,4.5,4.5v9c0,1.81-1.08,3.41-2.69,4.12ZM7.75,8.21l-1.9,5.79h3.81l-1.9-5.79Zm6.75,7.79h1.5c1.65,0,3-1.35,3-3v-2c0-1.65-1.35-3-3-3h-1.5c-.28,0-.5,.22-.5,.5v7c0,.28,.22,.5,.5,.5Z"/></svg>
