<?xml version="1.0" encoding="UTF-8"?>
<svg xmlns="http://www.w3.org/2000/svg" id="Layer_1" data-name="Layer 1" viewBox="0 0 24 24" width="512" height="512"><path d="m17.043,6.482c-.608-.457-1.376-.599-2.107-.387l-1.448.419c-.616.179-1.135.564-1.487,1.068-.353-.503-.871-.889-1.487-1.068l-1.448-.419c-.732-.211-1.499-.07-2.107.387s-.957,1.156-.957,1.917v6.06c0,1.197.805,2.265,1.956,2.595l2.584.741c.478.137.984.222,1.46.205h.009c.488,0,.977-.069,1.451-.205l2.584-.741c1.151-.33,1.956-1.397,1.956-2.595v-6.06c0-.761-.349-1.46-.957-1.917Zm-5.543,10.488c-.23-.027-.459-.072-.685-.137l-2.584-.741c-.725-.208-1.231-.88-1.231-1.634v-6.06c0-.444.203-.851.559-1.118.246-.185.537-.281.835-.281.131,0,.264.019.394.056l1.448.419c.744.215,1.265.908,1.265,1.683v7.812Zm5.5-2.512c0,.754-.507,1.426-1.231,1.634l-2.584.741c-.225.064-.454.109-.685.137v-7.812c0-.775.521-1.468,1.265-1.683l1.448-.419c.43-.126.874-.042,1.229.225.355.267.559.674.559,1.118v6.06ZM12,0C5.383,0,0,5.383,0,12s5.383,12,12,12,12-5.383,12-12S18.617,0,12,0Zm0,23c-6.065,0-11-4.935-11-11S5.935,1,12,1s11,4.935,11,11-4.935,11-11,11Z"/></svg>
