<?xml version="1.0" encoding="UTF-8"?>
<svg xmlns="http://www.w3.org/2000/svg" id="Layer_1" data-name="Layer 1" viewBox="0 0 24 24" width="512" height="512"><path d="M20,16c.55,0,1,.45,1,1s-.45,1-1,1-1-.45-1-1,.45-1,1-1Zm3,2c-.55,0-1,.45-1,1s.45,1,1,1,1-.45,1-1-.45-1-1-1Zm0-2c.55,0,1-.45,1-1s-.45-1-1-1-1,.45-1,1,.45,1,1,1Zm.85,7.15c.2,.2,.2,.51,0,.71-.1,.1-.23,.15-.35,.15s-.26-.05-.35-.15L.15,.85C-.05,.66-.05,.34,.15,.15S.66-.05,.85,.15l3.33,3.33c.99-.65,2.08-1.09,3.26-1.31,3.48-.65,6.95,.7,9.05,3.51,1.14,1.41,3.51,6.01,3.51,7.04,0,.52-.36,1.29-1.36,1.29h-.38l-.41,1.98c-.06,.3-.17,.58-.3,.85l6.31,6.31ZM4.91,4.21l11.87,11.87c.03-.1,.07-.2,.09-.3l.5-2.38c.05-.23,.25-.4,.49-.4h.79c.1,0,.35,0,.36-.3,0-.61-2.08-4.91-3.29-6.42-1.89-2.52-4.98-3.72-8.08-3.14-.97,.18-1.88,.54-2.71,1.06Zm9.95,13.69c-.24,.07-.49,.1-.74,.1h-.63c-.27,0-.5,.23-.5,.5v1.5c0,.27-.1,.52-.29,.71-.19,.19-.44,.29-.71,.29H5c-.55,0-1-.45-1-1v-1.17c0-1.03-.36-2.03-1.05-2.89-.95-1.19-2.05-3.08-1.88-5.34,.12-1.57,.66-3.06,1.57-4.31,.16-.22,.11-.54-.11-.7-.22-.16-.54-.11-.7,.11C.81,7.11,.2,8.78,.07,10.53c-.19,2.58,1.04,4.71,2.1,6.04,.55,.68,.83,1.47,.83,2.27v1.17c0,1.1,.9,2,2,2h7s0,0,0,0c.53,0,1.04-.21,1.41-.59,.38-.38,.59-.88,.59-1.41v-1h.13c.34,0,.68-.05,1-.14,.27-.07,.42-.35,.35-.62-.07-.27-.35-.42-.61-.35Z"/></svg>
