<?xml version="1.0" encoding="UTF-8"?>
<svg xmlns="http://www.w3.org/2000/svg" id="Layer_1" data-name="Layer 1" viewBox="0 0 24 24" width="512" height="512"><path d="m12,0C5.383,0,0,5.383,0,12s5.383,12,12,12,12-5.383,12-12S18.617,0,12,0Zm0,23c-6.065,0-11-4.935-11-11S5.935,1,12,1s11,4.935,11,11-4.935,11-11,11Zm-3.964-6.682c.105.329.413.682.964.682h7.5c.276,0,.5.224.5.5s-.224.5-.5.5h-7.5c-.897,0-1.649-.541-1.916-1.378-.26-.814.029-1.664.736-2.165l7.768-5.725c.534-.379.418-.899.37-1.051-.105-.329-.413-.682-.964-.682h-7.494c-.276,0-.5-.224-.5-.5s.224-.5.5-.5h7.494c.897,0,1.649.541,1.916,1.378.26.814-.029,1.664-.736,2.165l-7.768,5.725c-.534.379-.418.899-.37,1.051Z"/></svg>
