<?xml version="1.0" encoding="UTF-8"?>
<svg xmlns="http://www.w3.org/2000/svg" id="Layer_1" data-name="Layer 1" viewBox="0 0 24 24" width="512" height="512"><path d="M18.201,6.731c-.373-.368-.927-.476-1.412-.272-.487,.204-.789,.656-.789,1.18v3.861H.5c-.276,0-.5,.224-.5,.5s.224,.5,.5,.5h15.5v3.861c0,.524,.302,.976,.789,1.18,.163,.068,.334,.102,.503,.102,.334,0,.662-.129,.91-.374l4.418-4.361c.245-.242,.38-.564,.38-.908s-.135-.666-.38-.908l-4.419-4.36Zm3.716,5.465l-4.417,4.36c-.129,.125-.271,.084-.325,.062-.053-.022-.175-.091-.175-.257V7.639c0-.166,.122-.235,.175-.257,.025-.011,.07-.025,.123-.025,.061,0,.134,.02,.201,.086l4.418,4.36c.054,.053,.083,.123,.083,.197s-.029,.144-.083,.196Zm2.083-8.696V20.5c0,.276-.224,.5-.5,.5s-.5-.224-.5-.5V3.5c0-.276,.224-.5,.5-.5s.5,.224,.5,.5Z"/></svg>
