<?xml version="1.0" encoding="UTF-8"?>
<svg xmlns="http://www.w3.org/2000/svg" id="Layer_1" data-name="Layer 1" viewBox="0 0 24 24" width="512" height="512"><path d="m12,6c-3.859,0-7,3.083-7,6.874,0,3.921,3.242,8.141,5.175,10.307.462.519,1.127.817,1.824.819h.002c.697-.002,1.362-.3,1.824-.819,1.933-2.167,5.175-6.387,5.175-10.308,0-3.79-3.141-6.874-7-6.874Zm1.079,16.516c-.273.306-.667.483-1.079.484-.412-.001-.806-.178-1.079-.485-1.838-2.06-4.921-6.052-4.921-9.642,0-3.239,2.691-5.874,6-5.874s6,2.635,6,5.874c0,3.589-3.083,7.582-4.921,9.642Zm7.974-.107c-.102.181-.031.34.004.399.033.058.133.192.332.192h2.111c.276,0,.5.224.5.5s-.224.5-.5.5h-2.111c-.497,0-.944-.257-1.195-.687-.255-.435-.259-.956-.012-1.395,2.16-3.837,2.818-6.148,2.818-9.892,0-.867-.49-3.072-1.258-4.551-.365-.704-.738-1.545-.738-2.448,0-1.065.83-1.866,1.437-2.451.163-.157.311-.298.415-.425.177-.213.213-.488.097-.736-.114-.243-.345-.388-.615-.388h-8.245c-1.05.001-1.984.01-2.645.043C5.902,1.342,1.333,5.887,1.045,11.416c-.202,3.89.625,6.995,2.766,10.384.28.444.297,1.004.045,1.462-.255.462-.722.738-1.25.738H.503c-.276,0-.5-.224-.5-.5s.224-.5.5-.5h2.103c.228,0,.337-.154.374-.22.037-.068.11-.248-.015-.446C.705,18.757-.168,15.477.047,11.364.36,5.329,5.347.368,11.398.071c.672-.033,1.624-.042,2.693-.042h8.245c.658-.001,1.24.368,1.52.961.281.598.193,1.288-.23,1.799-.124.15-.298.32-.491.507-.504.486-1.131,1.09-1.131,1.731,0,.688.316,1.391.626,1.988.849,1.636,1.37,4.021,1.37,5.012,0,3.896-.716,6.419-2.947,10.382Z"/></svg>
