<?xml version="1.0" encoding="UTF-8"?>
<svg xmlns="http://www.w3.org/2000/svg" id="Layer_1" data-name="Layer 1" viewBox="0 0 24 24" width="512" height="512"><path d="M14.85,10.661c.219,.408,.196,.901-.06,1.287l-2.89,3.853c-.098,.131-.249,.2-.4,.2-.104,0-.209-.033-.3-.1-.221-.166-.265-.479-.1-.7l2.873-3.829c.059-.091,.017-.197-.005-.237-.021-.04-.086-.134-.224-.134h-3.475c-.406,0-.777-.187-1.019-.513s-.313-.735-.195-1.124c.017-.055,3.043-4.161,3.043-4.161,.164-.222,.477-.27,.699-.104,.222,.164,.269,.478,.104,.699l-2.901,3.92c-.004,.081,.029,.141,.053,.174,.03,.041,.098,.108,.216,.108h3.475c.463,0,.886,.253,1.105,.661Zm9.15,3.22v1.619c0,1.393-.819,2.599-2,3.162v1.838c0,1.378-1.122,2.5-2.5,2.5s-2.5-1.122-2.5-2.5v-1.5H7v1.5c0,1.378-1.122,2.5-2.5,2.5s-2.5-1.122-2.5-2.5v-1.838c-1.181-.563-2-1.769-2-3.162v-1.619c0-.643,.111-1.275,.332-1.879L3.211,4.082c.67-1.843,2.438-3.082,4.4-3.082h8.778c1.961,0,3.729,1.239,4.4,3.082l2.879,7.919c.22,.604,.332,1.236,.332,1.879Zm-1.399-1.89h0Zm-21.201,0h0Zm4.601,7.01H3.5c-.17,0-.337-.012-.5-.036v1.536c0,.827,.673,1.5,1.5,1.5s1.5-.673,1.5-1.5v-1.5Zm15-.036c-.163,.023-.33,.036-.5,.036h-2.5v1.5c0,.827,.673,1.5,1.5,1.5s1.5-.673,1.5-1.5v-1.536Zm2-5.083c0-.526-.091-1.043-.271-1.538l-.125-.343h-2.604v2c0,.276-.224,.5-.5,.5s-.5-.224-.5-.5v-2h-1.5c-.276,0-.5-.224-.5-.5s.224-.5,.5-.5h4.741l-2.391-6.576c-.527-1.45-1.918-2.424-3.46-2.424H7.611c-1.542,0-2.933,.974-3.46,2.424L1.759,11H6.5c.276,0,.5,.224,.5,.5s-.224,.5-.5,.5h-1.5v2c0,.276-.224,.5-.5,.5s-.5-.224-.5-.5v-2H1.396l-.125,.343c-.18,.495-.271,1.012-.271,1.538v1.619c0,1.378,1.122,2.5,2.5,2.5H20.5c1.378,0,2.5-1.122,2.5-2.5v-1.619Z"/></svg>
