<?xml version="1.0" encoding="UTF-8"?>
<svg xmlns="http://www.w3.org/2000/svg" id="Layer_1" data-name="Layer 1" viewBox="0 0 24 24" width="512" height="512"><path d="M11.09,7.82c-.86-.86-2.24-1.05-3.91-.55-1.48,.45-3.03,1.41-4.27,2.64-1.23,1.23-2.2,2.79-2.64,4.27-.5,1.67-.31,3.05,.55,3.91,3.77,3.77,9.79,5.3,13.04,5.87,.16,.03,.32,.04,.48,.04,.7,0,1.37-.27,1.87-.78,.62-.62,.89-1.48,.74-2.35-.57-3.25-2.1-9.27-5.87-13.04Zm-6.5,11.89c.49-1.33,1.69-2.99,3.41-4.71s3.38-2.92,4.71-3.41c.71,1.2,1.28,2.48,1.74,3.73-1.32,.73-2.58,1.86-3.42,2.71-.84,.84-1.98,2.11-2.71,3.42-1.25-.46-2.53-1.03-3.73-1.74ZM1.23,14.47c.4-1.33,1.27-2.73,2.39-3.85s2.52-1.99,3.85-2.39c.37-.11,.89-.23,1.41-.23s1.1,.13,1.5,.53c.67,.67,1.26,1.41,1.79,2.2-1.79,.72-3.62,2.3-4.88,3.56s-2.85,3.08-3.56,4.88c-.79-.53-1.53-1.12-2.2-1.79-.79-.79-.53-2.16-.3-2.91Zm14.28,8.04c-.39,.39-.92,.56-1.47,.46-1.26-.22-2.95-.59-4.76-1.19,.54-.93,1.38-1.98,2.45-3.05,1.07-1.07,2.12-1.91,3.05-2.45,.59,1.8,.96,3.49,1.19,4.76,.1,.55-.07,1.08-.46,1.47ZM24,4.44c0,5.15-2.77,10.24-5.09,13.6-.1,.14-.25,.22-.41,.22-.1,0-.2-.03-.28-.09-.23-.16-.28-.47-.13-.7,.7-1.02,1.59-2.42,2.41-4.04-1.08-.28-2.45-.43-4-.43-.28,0-.5-.22-.5-.5s.22-.5,.5-.5c1.22,0,2.96,.09,4.45,.51,.65-1.4,1.23-2.93,1.61-4.51-1.33-.65-3.46-1.01-6.06-1.01-1.05,0-2.04,.06-2.94,.18-.27,.04-.52-.16-.56-.43-.04-.27,.16-.52,.43-.56,.94-.12,1.97-.18,3.06-.18,1.88,0,4.42,.18,6.26,1,.15-.85,.24-1.71,.24-2.56,0-1.8-3.1-3.44-6.5-3.44s-6.5,1.64-6.5,3.44c0,.28-.22,.53-.5,.53s-.5-.19-.5-.47v-.06c0-2.65,3.88-4.44,7.5-4.44s7.5,1.78,7.5,4.44Z"/></svg>
