<?xml version="1.0" encoding="UTF-8"?>
<svg xmlns="http://www.w3.org/2000/svg" id="Layer_1" data-name="Layer 1" viewBox="0 0 24 24" width="512" height="512"><path d="m7.213,15h2.42c.45,0,.86-.229,1.096-.611.237-.383.258-.852.057-1.254l-1.21-2.42c-.219-.44-.661-.713-1.153-.713s-.933.273-1.153.712l-1.21,2.421c-.201.402-.18.871.057,1.254.236.383.646.611,1.096.611Zm-.258-1.418l1.21-2.42c.072-.145.205-.16.258-.16s.187.016.258.16l1.21,2.42c.065.13.013.24-.013.281-.025.042-.1.137-.246.137h-2.42c-.146,0-.22-.096-.246-.137-.025-.041-.078-.151-.013-.281Zm7.335,1.418h2.42c.45,0,.86-.229,1.096-.611.237-.383.258-.852.057-1.254l-1.21-2.421c-.22-.439-.662-.712-1.153-.712s-.933.273-1.153.712l-1.21,2.421c-.201.402-.18.871.057,1.254.236.383.646.611,1.096.611Zm-.258-1.418l1.21-2.42c.072-.145.205-.16.258-.16s.186.016.258.16l1.21,2.42c.065.13.013.24-.013.281-.025.042-.1.137-.246.137h-2.42c-.146,0-.22-.096-.246-.137-.025-.041-.078-.151-.013-.281Zm4.776,3.418c-.668.599-2.79,1.779-3.808,2.267v-.767c0-.552-.448-1-1-1s-1,.448-1,1v1.408c-.326.054-.658.092-1,.092-3.5,0-5.547-1.859-6.804-2.988-.443-.398-.074-1.117.51-.999.566.115,2.498.743,3.294.83v.657c0,.552.448,1,1,1s1-.448,1-1v-.519c.323.011.653.019,1,.019,2.169,0,5.123-.753,6.307-.994.573-.116.936.604.501.994Zm-1.72-11c-.402,0-1.125.215-1.589.403-.572-.268-1.127-.403-1.653-.403h-1.337c.139-3.931,1.921-5,2.991-5,.827,0,1.5.673,1.5,1.5,0,.276-.224.5-.5.5s-.5.224-.5.5.224.5.5.5c.827,0,1.5-.673,1.5-1.5,0-1.378-1.122-2.5-2.5-2.5-1.126,0-2.841.786-3.607,3.399-.622-1.452-1.705-2.613-3.169-3.346-.248-.123-.547-.024-.671.224-.124.247-.023.547.224.671,1.94.97,3.067,2.753,3.208,5.053h-1.331c-.526,0-1.082.136-1.653.403-.463-.188-1.187-.403-1.589-.403C3.514,6,0,9.366,0,15s3.514,9,6.912,9c.425,0,.979-.177,1.405-.36.915.418,1.819.49,2.586.125.699.312,1.495.312,2.194,0,.753.358,1.639.295,2.534-.1.466.178,1.062.335,1.457.335,3.397,0,6.912-3.366,6.912-9s-3.514-9-6.912-9Zm0,17c-.266,0-.849-.155-1.272-.339-.063-.028-.131-.042-.199-.042-.077,0-.153.018-.224.053-.752.377-1.451.461-2.023.104-.155-.097-.353-.1-.513-.01-.55.314-1.164.314-1.714,0-.161-.091-.357-.088-.513.01-.584.365-1.299.271-2.076-.133-.142-.074-.309-.076-.451-.005-.421.207-.933.362-1.191.362-2.906,0-5.912-2.992-5.912-8S4.006,7,6.912,7c.253,0,1.014.223,1.379.404.143.071.312.069.454-.005.498-.261.985-.398,1.409-.398h3.692c.424,0,.912.138,1.409.398.142.074.311.076.454.005.366-.181,1.126-.404,1.379-.404,2.906,0,5.912,2.992,5.912,8s-3.006,8-5.912,8Z"/></svg>
