<?xml version="1.0" encoding="UTF-8"?>
<svg xmlns="http://www.w3.org/2000/svg" id="Layer_1" data-name="Layer 1" viewBox="0 0 24 24" width="512" height="512"><path d="M5.5,10h7c1.378,0,2.5-1.121,2.5-2.5V2.5c0-1.379-1.122-2.5-2.5-2.5H5.5c-1.378,0-2.5,1.121-2.5,2.5V7.5c0,1.379,1.122,2.5,2.5,2.5Zm-1.5-7.5c0-.827,.673-1.5,1.5-1.5h7c.827,0,1.5,.673,1.5,1.5V7.5c0,.827-.673,1.5-1.5,1.5H5.5c-.827,0-1.5-.673-1.5-1.5V2.5Zm3,1c0-.276,.224-.5,.5-.5h3c.276,0,.5,.224,.5,.5s-.224,.5-.5,.5h-3c-.276,0-.5-.224-.5-.5Zm16.181,6.154c-.497-.451-1.143-.687-1.809-.651-.67,.031-1.288,.321-1.739,.817l-3.732,4.103c-.314-1.108-1.335-1.923-2.542-1.923H3.5c-1.93,0-3.5,1.57-3.5,3.5v5c0,1.93,1.57,3.5,3.5,3.5h5.965c2.706,0,5.292-1.159,7.093-3.18l6.806-7.64c.91-1.022,.828-2.604-.184-3.526Zm-.563,2.86l-6.806,7.64c-1.612,1.809-3.925,2.846-6.347,2.846H3.5c-1.378,0-2.5-1.121-2.5-2.5v-5c0-1.379,1.122-2.5,2.5-2.5H13.358c.905,0,1.642,.737,1.642,1.643,0,.812-.606,1.511-1.399,1.624l-6.161,.737c-.274,.032-.47,.281-.437,.556,.034,.273,.274,.48,.556,.437l6.171-.738c1.022-.146,1.846-.878,2.146-1.824l4.495-4.939c.272-.299,.644-.474,1.047-.492,.398-.021,.79,.121,1.088,.392,.608,.556,.658,1.507,.11,2.121Z"/></svg>
