<?xml version="1.0" encoding="UTF-8"?>
<svg xmlns="http://www.w3.org/2000/svg" id="Layer_1" data-name="Layer 1" viewBox="0 0 24 24" width="512" height="512"><path d="M12,24C5.383,24,0,18.617,0,12S5.383,0,12,0s12,5.383,12,12-5.383,12-12,12ZM12,1C5.935,1,1,5.935,1,12s4.935,11,11,11,11-4.935,11-11S18.065,1,12,1Zm6.27,14l-1.736-.224h-.007c-.846,0-1.585-.733-1.601-1.64l-.125-1.185c-1.839-.752-3.677-.75-5.602,.005l-.127,1.203c.003,.87-.748,1.621-1.67,1.621l-1.606,.215h-.008c-.984,0-1.73-.749-1.73-1.669l-.056-1.159c-.001-.917,.356-1.769,1.008-2.42,3.006-3.006,10.978-3.006,13.983,0,.651,.651,1.009,1.502,1.008,2.396l-.057,1.207c0,.899-.75,1.649-1.673,1.649Zm-6.231-4.605c1.16,0,2.307,.252,3.433,.756l.263,.118,.192,1.839c0,.371,.302,.673,.673,.673l1.736,.224c.307-.004,.609-.307,.609-.678l.057-1.207c0-.604-.254-1.203-.716-1.665-2.387-2.387-9.795-2.773-12.569,0-.462,.462-.716,1.062-.715,1.688l.056,1.16c0,.395,.303,.697,.674,.697l1.606-.215c.436-.004,.738-.307,.738-.678l.192-1.845,.27-.115c1.175-.501,2.345-.752,3.502-.752Z"/></svg>
