<?xml version="1.0" encoding="UTF-8"?>
<svg xmlns="http://www.w3.org/2000/svg" id="Layer_1" data-name="Layer 1" viewBox="0 0 24 24" width="512" height="512"><path d="M10,13.5c0,.276-.224,.5-.5,.5h-1.5v4.5c0,.276-.224,.5-.5,.5s-.5-.224-.5-.5v-7c0-.276,.224-.5,.5-.5s.5,.224,.5,.5v1.5h1.5c.276,0,.5,.224,.5,.5ZM24,4.5v15c0,2.481-2.019,4.5-4.5,4.5H4.5c-2.481,0-4.5-2.019-4.5-4.5V4.5C0,2.019,2.019,0,4.5,0h15c2.481,0,4.5,2.019,4.5,4.5Zm-4.5,18.5c.785,0,1.51-.26,2.095-.698L1.698,2.405c-.438,.585-.698,1.31-.698,2.095v15c0,1.93,1.57,3.5,3.5,3.5h15Zm-5.799-10.006c1.836-.105,3.299-1.632,3.299-3.494,0-1.93-1.57-3.5-3.5-3.5h-3c-.998,0-1.897,.597-2.292,1.501l5.493,5.493ZM23,4.5c0-1.93-1.57-3.5-3.5-3.5H4.5c-.785,0-1.51,.26-2.095,.698L7.465,6.758c.617-1.072,1.769-1.758,3.035-1.758h3c2.481,0,4.5,2.019,4.5,4.5,0,2.11-1.46,3.886-3.423,4.37l7.725,7.725c.438-.585,.698-1.31,.698-2.095V4.5Z"/></svg>
