<?xml version="1.0" encoding="UTF-8"?>
<svg xmlns="http://www.w3.org/2000/svg" id="Layer_1" data-name="Layer 1" viewBox="0 0 24 24" width="512" height="512"><path d="M12,17c1.802,0,3.238,1.054,3.298,1.099,.221,.165,.267,.478,.103,.698-.098,.133-.249,.202-.402,.202-.103,0-.208-.031-.297-.098-.012-.009-1.239-.901-2.702-.901s-2.69,.893-2.702,.901c-.223,.165-.536,.117-.699-.104-.164-.221-.118-.533,.103-.698,.06-.045,1.497-1.099,3.298-1.099ZM12,0C6.754,0,2.16,3.354,.566,8.348c-.083,.264,.062,.545,.325,.629,.263,.08,.545-.062,.628-.324C2.979,4.075,7.191,1,12,1c6.065,0,11,4.935,11,11s-4.935,11-11,11c-3.37,0-6.507-1.514-8.609-4.152-.171-.217-.486-.252-.703-.08-.216,.173-.251,.487-.08,.703,2.292,2.878,5.715,4.529,9.391,4.529,6.617,0,12-5.383,12-12S18.617,0,12,0Zm-4,11c-.552,0-1,.448-1,1s.448,1,1,1,1-.448,1-1-.448-1-1-1Zm8,2c.552,0,1-.448,1-1s-.448-1-1-1-1,.448-1,1,.448,1,1,1ZM2.5,17c-1.378,0-2.5-1.121-2.5-2.5,0-1.271,1.018-2.948,1.66-3.708,.21-.248,.517-.391,.841-.392h.002c.323,0,.628,.141,.839,.388,.641,.748,1.657,2.418,1.657,3.712,0,1.379-1.122,2.5-2.5,2.5Zm1.5-2.5c0-.917-.823-2.368-1.417-3.062h-.159c-.597,.707-1.424,2.163-1.424,3.062,0,.827,.673,1.5,1.5,1.5s1.5-.673,1.5-1.5Zm15.363-4.52c.046,.014,.092,.02,.138,.02,.217,0,.417-.144,.48-.362,.076-.266-.078-.543-.344-.618-1.955-.559-3.26-2.151-3.73-2.81-.159-.225-.473-.277-.697-.117-.225,.161-.277,.473-.116,.697,.531,.745,2.011,2.546,4.27,3.19Zm-10.572-3.888c-.224-.159-.537-.107-.697,.117-.471,.658-1.775,2.251-3.73,2.81-.266,.075-.419,.353-.344,.618,.063,.219,.263,.362,.48,.362,.046,0,.092-.006,.138-.02,2.259-.645,3.738-2.445,4.27-3.19,.161-.225,.108-.536-.116-.697Z"/></svg>
