<?xml version="1.0" encoding="UTF-8"?>
<svg xmlns="http://www.w3.org/2000/svg" id="Layer_1" data-name="Layer 1" viewBox="0 0 24 24" width="512" height="512"><path d="m0,4.5c0-.276.224-.5.5-.5h23c.276,0,.5.224.5.5s-.224.5-.5.5H.5c-.276,0-.5-.224-.5-.5Zm23.5,14.5H.5c-.276,0-.5.224-.5.5s.224.5.5.5h23c.276,0,.5-.224.5-.5s-.224-.5-.5-.5Zm0-10h-14c-.276,0-.5.224-.5.5s.224.5.5.5h14c.276,0,.5-.224.5-.5s-.224-.5-.5-.5Zm0,5h-14c-.276,0-.5.224-.5.5s.224.5.5.5h14c.276,0,.5-.224.5-.5s-.224-.5-.5-.5ZM.468,13.619c-.302-.299-.468-.696-.468-1.119s.166-.82.467-1.119l2.974-2.944c.44-.436,1.068-.558,1.639-.318.567.236.919.763.919,1.374v6.016c0,.611-.353,1.138-.919,1.374-.193.081-.394.12-.59.12-.385,0-.758-.15-1.049-.438L.468,13.619Zm.532-1.119c0,.154.061.299.171.408l2.974,2.944c.221.22.477.138.551.106.071-.03.304-.15.304-.451v-6.016c0-.301-.233-.421-.304-.451-.035-.015-.111-.041-.206-.041-.104,0-.229.032-.345.147l-2.974,2.944c-.11.109-.171.254-.171.408Z"/></svg>
