<?xml version="1.0" encoding="UTF-8"?>
<svg xmlns="http://www.w3.org/2000/svg" id="Layer_1" data-name="Layer 1" viewBox="0 0 24 24" width="512" height="512"><path d="M12,8c-2.21,0-4,1.79-4,4s1.79,4,4,4,4-1.79,4-4-1.79-4-4-4Zm0,7c-1.65,0-3-1.35-3-3s1.35-3,3-3,3,1.35,3,3-1.35,3-3,3Zm5,5c0,.55-.45,1-1,1s-1-.45-1-1,.45-1,1-1,1,.45,1,1Zm-8,0c0,.55-.45,1-1,1s-1-.45-1-1,.45-1,1-1,1,.45,1,1ZM20.5,0H3.5C1.57,0,0,1.57,0,3.5v1c0,1.93,1.57,3.5,3.5,3.5h.5v11.5c0,2.48,2.02,4.5,4.5,4.5h7c2.48,0,4.5-2.02,4.5-4.5V8h.5c1.93,0,3.5-1.57,3.5-3.5v-1c0-1.93-1.57-3.5-3.5-3.5Zm2.5,4.5c0,1.38-1.12,2.5-2.5,2.5h-.5V3.5c0-.28-.22-.5-.5-.5s-.5,.22-.5,.5V19.5c0,1.93-1.57,3.5-3.5,3.5h-7c-1.93,0-3.5-1.57-3.5-3.5V3.5c0-.28-.22-.5-.5-.5s-.5,.22-.5,.5v3.5h-.5c-1.38,0-2.5-1.12-2.5-2.5v-1c0-1.38,1.12-2.5,2.5-2.5H20.5c1.38,0,2.5,1.12,2.5,2.5v1Z"/></svg>
