<?xml version="1.0" encoding="UTF-8"?>
<svg xmlns="http://www.w3.org/2000/svg" id="Layer_1" data-name="Layer 1" viewBox="0 0 24 24">
  <path d="m24,9.5c0,.276-.224.5-.5.5h-7c-.276,0-.5-.224-.5-.5s.224-.5.5-.5h7c.276,0,.5.224.5.5Zm-1.5,4.5h-6c-.276,0-.5.224-.5.5s.224.5.5.5h6c.276,0,.5-.224.5-.5s-.224-.5-.5-.5Zm-1,5h-5c-.276,0-.5.224-.5.5s.224.5.5.5h5c.276,0,.5-.224.5-.5s-.224-.5-.5-.5Zm-4.333,3.169c.183.208.163.523-.044.706-.823.726-1.881,1.125-2.977,1.125h-6.272c-2.337,0-4.263-1.754-4.48-4.08l-1.392-14.873c-.001-.016-.002-.031-.002-.047H.5c-.276,0-.5-.224-.5-.5s.224-.5.5-.5h5.028c.25-2.247,2.16-4,4.472-4h2c2.312,0,4.223,1.753,4.472,4h5.028c.276,0,.5.224.5.5s-.224.5-.5.5h-1.5c0,.015,0,.03-.002.046l-.139,1.5c-.024.26-.242.454-.497.454-.016,0-.031,0-.047-.002-.275-.025-.478-.27-.452-.544l.134-1.454H3.002l1.387,14.826c.169,1.81,1.667,3.174,3.484,3.174h6.272c.853,0,1.675-.311,2.314-.875.208-.184.524-.161.706.044ZM6.536,4h8.928c-.243-1.694-1.704-3-3.464-3h-2c-1.76,0-3.221,1.306-3.464,3Z"/>
</svg>
