<?xml version="1.0" encoding="UTF-8"?>
<svg xmlns="http://www.w3.org/2000/svg" id="Layer_1" data-name="Layer 1" width="512" height="512" viewBox="0 0 24 24"><path d="M11.388,24c-.199,0-.402-.044-.597-.136-.621-.293-.923-.958-.734-1.617l.749-2.247h-2.383c-.451,0-.866-.21-1.138-.575-.274-.369-.356-.833-.224-1.271l2.126-6.155c.205-.597,.775-.998,1.417-.998h1.895c.497,0,.961,.243,1.24,.649,.276,.403,.337,.918,.16,1.376l-.693,1.975h2.388c.521,0,.996,.283,1.24,.738,.242,.453,.216,1.002-.069,1.432l-4.258,6.23c-.269,.389-.685,.6-1.119,.6Zm-.783-12c-.219,0-.404,.127-.472,.324l-2.12,6.137c-.034,.113-.009,.255,.075,.367,.081,.109,.203,.172,.335,.172h3.077c.161,0,.312,.077,.405,.208,.095,.13,.12,.298,.069,.45l-.963,2.884c-.074,.261,.139,.386,.205,.417,.068,.032,.3,.118,.466-.125l4.252-6.223c.116-.174,.051-.338,.018-.4-.034-.063-.137-.211-.358-.211h-3.094c-.162,0-.314-.079-.408-.211s-.117-.302-.063-.455l.933-2.654c.064-.167,.045-.331-.046-.464-.095-.137-.246-.216-.416-.216h-1.895Zm-6.104,7.902c-.032,0-3.501-.402-4.38-4.237-.431-1.881,.198-3.805,1.576-5.123,.328-.313,.469-.819,.386-1.387-.134-.921-.106-1.862,.083-2.796C2.805,3.222,5.339,.723,8.474,.142c3.575-.664,7.06,1.058,8.674,4.279,.194,.389,.56,.668,1.001,.767,3.521,.79,5.98,3.984,5.847,7.597-.13,3.478-2.824,6.461-6.408,7.093-.268,.054-.531-.134-.579-.405-.048-.272,.134-.531,.405-.579,3.123-.551,5.471-3.136,5.582-6.146,.116-3.131-2.015-5.899-5.065-6.584-.735-.165-1.347-.636-1.677-1.294-1.414-2.82-4.468-4.325-7.598-3.744C5.918,1.633,3.704,3.816,3.146,6.559c-.167,.82-.191,1.646-.073,2.452,.13,.893-.119,1.715-.685,2.255-1.128,1.078-1.609,2.646-1.289,4.196,.356,1.724,1.762,3.109,3.496,3.45,.271,.053,.448,.315,.395,.586-.046,.239-.256,.404-.489,.404Z"/></svg>
