<?xml version="1.0" encoding="UTF-8"?>
<svg xmlns="http://www.w3.org/2000/svg" id="Layer_1" data-name="Layer 1" viewBox="0 0 24 24" width="512" height="512"><path d="M5.64,5.847c-.191-.199-.186-.516,.014-.707L10.239,.726c.93-.931,2.585-.938,3.528,.007l4.579,4.407c.199,.191,.205,.508,.014,.707-.098,.102-.229,.153-.36,.153-.125,0-.25-.046-.347-.14L13.067,1.446c-.163-.163-.359-.28-.567-.351V15.5c0,.276-.224,.5-.5,.5s-.5-.224-.5-.5V1.094c-.208,.07-.401,.185-.561,.345L6.347,5.86c-.198,.191-.516,.186-.707-.014Zm15.797,.473c-.134-.241-.438-.329-.68-.194-.242,.134-.329,.438-.194,.68,.286,.515,.437,1.101,.437,1.695v11c0,1.93-1.57,3.5-3.5,3.5H6.5c-1.93,0-3.5-1.57-3.5-3.5V8.5c0-.615,.162-1.22,.468-1.75,.139-.239,.057-.545-.182-.683-.241-.14-.546-.057-.683,.182-.394,.682-.603,1.459-.603,2.25v11c0,2.481,2.019,4.5,4.5,4.5h11c2.481,0,4.5-2.019,4.5-4.5V8.5c0-.764-.195-1.518-.563-2.181Z"/></svg>
