<?xml version="1.0" encoding="UTF-8"?>
<svg xmlns="http://www.w3.org/2000/svg" id="Layer_1" data-name="Layer 1" viewBox="0 0 24 24" width="512" height="512"><path d="M13.5,5h-3c-1.93,0-3.5,1.57-3.5,3.5v10c0,.276,.224,.5,.5,.5s.5-.224,.5-.5v-4.5h5.5c2.481,0,4.5-2.019,4.5-4.5s-2.019-4.5-4.5-4.5Zm0,8h-5.5v-4.5c0-1.378,1.121-2.5,2.5-2.5h3c1.93,0,3.5,1.57,3.5,3.5s-1.57,3.5-3.5,3.5ZM12,0C5.383,0,0,5.383,0,12s5.383,12,12,12,12-5.383,12-12S18.617,0,12,0Zm0,23c-6.065,0-11-4.935-11-11S5.935,1,12,1s11,4.935,11,11-4.935,11-11,11Z"/></svg>
