<?xml version="1.0" encoding="UTF-8"?>
<svg xmlns="http://www.w3.org/2000/svg" id="Layer_1" data-name="Layer 1" viewBox="0 0 24 24" width="512" height="512"><path d="m22.69,8.831L15.165,1.306C14.32.46,13.196-.005,12.001-.005s-2.319.465-3.165,1.311L1.311,8.831C.466,9.676,0,10.8,0,11.995s.465,2.318,1.31,3.163l7.525,7.525c.845.846,1.969,1.312,3.165,1.312s2.319-.466,3.164-1.312l7.525-7.525c.845-.845,1.311-1.969,1.311-3.163s-.465-2.319-1.311-3.164Zm-.707,5.62l-7.525,7.525c-1.313,1.312-3.603,1.312-4.915,0l-7.525-7.525c-1.354-1.354-1.354-3.559,0-4.913l7.525-7.525c.656-.656,1.529-1.018,2.458-1.018s1.801.361,2.457,1.018l7.525,7.525c1.354,1.354,1.354,3.559,0,4.913Zm-8.983,2.549c0,.552-.448,1-1,1s-1-.448-1-1,.448-1,1-1,1,.448,1,1Zm-1.5-3.5v-7c0-.276.224-.5.5-.5s.5.224.5.5v7c0,.276-.224.5-.5.5s-.5-.224-.5-.5Z"/></svg>
