<?xml version="1.0" encoding="UTF-8"?>
<svg xmlns="http://www.w3.org/2000/svg" id="Layer_1" data-name="Layer 1" viewBox="0 0 24 24">
  <path d="m21.937,5.739L14.618.801c-1.589-1.073-3.646-1.074-5.236,0L2.063,5.739c-1.292.872-2.063,2.323-2.063,3.881v9.698c0,2.582,2.101,4.682,4.682,4.682h14.637c2.581,0,4.682-2.1,4.682-4.682v-9.698c0-1.558-.771-3.009-2.063-3.881Zm1.063,13.58c0,2.03-1.651,3.682-3.682,3.682H4.682c-2.03,0-3.682-1.651-3.682-3.682v-9.698c0-1.226.606-2.367,1.622-3.052L9.94,1.63c.626-.422,1.343-.633,2.06-.633s1.434.211,2.06.633l7.318,4.938c1.016.686,1.622,1.827,1.622,3.052v9.698Zm-8.52-10.318c-1.08,0-1.977.479-2.5,1.254-.523-.774-1.42-1.254-2.5-1.254-1.654,0-3,1.436-3,3.2,0,2.328,2.818,5.192,4.31,6.382.351.279.771.419,1.19.419s.841-.14,1.191-.419c1.49-1.188,4.309-4.052,4.309-6.381,0-1.765-1.346-3.2-3-3.2Zm-1.932,8.8c-.333.266-.801.268-1.136,0-1.633-1.303-3.933-3.902-3.933-5.6,0-1.213.897-2.2,2-2.2,1.178,0,2,.804,2,1.955,0,.276.224.5.5.5s.5-.224.5-.5c0-1.151.822-1.955,2-1.955,1.103,0,2,.987,2,2.2,0,1.699-2.299,4.297-3.932,5.6Z"/>
</svg>
