<?xml version="1.0" encoding="UTF-8"?>
<svg xmlns="http://www.w3.org/2000/svg" id="Layer_1" data-name="Layer 1" viewBox="0 0 24 24" width="512" height="512"><path d="M10.5,23H5V10h.5c.276,0,.5-.224,.5-.5s-.224-.5-.5-.5h-1.5c-2.206,0-4,1.794-4,4v7c0,2.206,1.794,4,4,4h6.5c.276,0,.5-.224,.5-.5s-.224-.5-.5-.5ZM1,15h3v3H1v-3Zm3-5v4H1v-1c0-1.654,1.346-3,3-3ZM1,20v-1h3v4c-1.654,0-3-1.346-3-3ZM19.5,0h-7c-2.481,0-4.5,2.019-4.5,4.5v5c0,2.481,2.019,4.5,4.5,4.5h1c.276,0,.5-.224,.5-.5s-.224-.5-.5-.5h-1c-.902,0-1.724-.346-2.345-.909l5.625-4.936c.201-.167,.49-.152,.672,.029l.473,.478c.584,.585,1.537,.585,2.121,0l3.879-3.879c.049,.232,.075,.472,.075,.718v5c0,.276,.224,.5,.5,.5s.5-.224,.5-.5V4.5c0-2.481-2.019-4.5-4.5-4.5Zm-1.161,6.954c-.194,.195-.511,.196-.705,.002l-.473-.478c-.552-.553-1.422-.592-2.031-.084l-5.614,4.926c-.325-.531-.516-1.153-.516-1.82V4.5c0-1.93,1.57-3.5,3.5-3.5h7c1.296,0,2.428,.71,3.033,1.76l-4.194,4.194Zm-5.339-2.954c0,.552-.448,1-1,1s-1-.448-1-1,.448-1,1-1,1,.448,1,1Zm8.5,8h-3c-1.379,0-2.5,1.122-2.5,2.5v5.005c-.418-.315-.937-.505-1.5-.505-1.379,0-2.5,1.122-2.5,2.5s1.121,2.5,2.5,2.5,2.5-1.122,2.5-2.5v-7c0-.827,.673-1.5,1.5-1.5h3c.827,0,1.5,.673,1.5,1.5v5.005c-.418-.315-.937-.505-1.5-.505-1.379,0-2.5,1.122-2.5,2.5s1.121,2.5,2.5,2.5,2.5-1.122,2.5-2.5v-7c0-1.378-1.121-2.5-2.5-2.5Zm-7,11c-.827,0-1.5-.673-1.5-1.5s.673-1.5,1.5-1.5,1.5,.673,1.5,1.5-.673,1.5-1.5,1.5Zm7,0c-.827,0-1.5-.673-1.5-1.5s.673-1.5,1.5-1.5,1.5,.673,1.5,1.5-.673,1.5-1.5,1.5Z"/></svg>
