<?xml version="1.0" encoding="UTF-8"?>
<svg xmlns="http://www.w3.org/2000/svg" id="Layer_1" data-name="Layer 1" viewBox="0 0 24 24" width="512" height="512"><path d="m23.5,7.981c.276,0,.5-.224.5-.5v-.981c0-2.481-2.019-4.5-4.5-4.5H7.5c-2.481,0-4.5,2.019-4.5,4.5v8c0,2.481,2.019,4.5,4.5,4.5h12c2.481,0,4.5-2.019,4.5-4.5v-1.019c0-.276-.224-.5-.5-.5-1.378,0-2.5-1.121-2.5-2.5s1.122-2.5,2.5-2.5Zm-3.5,2.5c0,1.76,1.306,3.221,3,3.465v.554c0,1.93-1.57,3.5-3.5,3.5H7.5c-1.93,0-3.5-1.57-3.5-3.5V6.5c0-1.93,1.57-3.5,3.5-3.5h12c1.93,0,3.5,1.57,3.5,3.5v.517c-1.694.244-3,1.705-3,3.465Zm-1,11.019c0,.276-.224.5-.5.5H7.5c-4.136,0-7.5-3.364-7.5-7.5V6.5c0-.276.224-.5.5-.5s.5.224.5.5v8c0,3.584,2.916,6.5,6.5,6.5h11c.276,0,.5.224.5.5Zm-3.5-12.5h-1.26l-1.729-2.16c-.282-.518-.824-.84-1.415-.84h-.117c-.346,0-.668.171-.862.456-.194.286-.234.648-.108.97l.621,1.574h-.533l-.911-.625c-.568-.569-1.608-.434-2.012.263-.231.398-.233.876.048,1.352l1.096,1.3c.381.452.939.711,1.529.711h.77l-.614,1.579c-.125.321-.083.683.111.967.194.284.516.454.86.454h.138c.59,0,1.132-.322,1.368-.77l1.761-2.23h1.258c.827,0,1.5-.673,1.5-1.5s-.673-1.5-1.5-1.5Zm0,2h-1.5c-.153,0-.297.07-.393.19l-1.958,2.491c-.107.196-.312.318-.536.318l-.178-.058.879-2.261c.06-.154.04-.328-.053-.464-.093-.137-.248-.218-.413-.218h-1.501c-.295,0-.574-.13-.765-.355l-1.044-1.226c-.072-.127-.023-.238,0-.279.024-.042.096-.14.242-.14.075,0,.146.029.267.139l1.11.771c.083.059.183.09.285.09h1.423c.166,0,.32-.082.414-.219.093-.137.112-.311.052-.465l-.851-2.316h.117c.224,0,.429.122.584.391l1.929,2.421c.095.119.239.188.391.188h1.5c.276,0,.5.225.5.5s-.224.5-.5.5Z"/></svg>
