<?xml version="1.0" encoding="UTF-8"?>
<svg xmlns="http://www.w3.org/2000/svg" id="Layer_1" data-name="Layer 1" viewBox="0 0 24 24">
  <path d="m22.053,9.001c-1.011-3.396-3.666-6.055-7.054-7.065-.034-1.074-.917-1.937-1.998-1.937h-2c-1.082,0-1.965.863-1.998,1.937-3.388,1.01-6.044,3.669-7.054,7.065-1.079.028-1.947.913-1.947,1.999v2c0,1.085.869,1.971,1.947,1.999,1.011,3.396,3.666,6.055,7.054,7.065.034,1.074.917,1.937,1.998,1.937h2c1.082,0,1.965-.863,1.998-1.937,3.388-1.01,6.044-3.669,7.054-7.065,1.079-.028,1.947-.913,1.947-1.999v-2c0-1.085-.869-1.971-1.947-1.999ZM10,2c0-.551.449-1,1-1h2c.551,0,1,.449,1,1v2c0,.551-.449,1-1,1h-2c-.551,0-1-.449-1-1v-2ZM1,13v-2c0-.551.449-1,1-1h2c.551,0,1,.449,1,1v2c0,.551-.449,1-1,1h-2c-.551,0-1-.449-1-1Zm13,9c0,.551-.449,1-1,1h-2c-.551,0-1-.449-1-1v-2c0-.551.449-1,1-1h2c.551,0,1,.449,1,1v2Zm1-.985v-1.015c0-1.103-.897-2-2-2h-2c-1.103,0-2,.897-2,2v1.015c-2.833-.944-5.06-3.175-6.004-6.015h1.004c1.103,0,2-.897,2-2v-2c0-1.103-.897-2-2-2h-1.004c.943-2.84,3.171-5.071,6.004-6.015v1.015c0,1.103.897,2,2,2h2c1.103,0,2-.897,2-2v-1.015c2.833.944,5.06,3.175,6.004,6.015h-1.004c-1.103,0-2,.897-2,2v2c0,1.103.897,2,2,2h1.004c-.943,2.84-3.171,5.071-6.004,6.015Zm8-8.015c0,.551-.449,1-1,1h-2c-.551,0-1-.449-1-1v-2c0-.551.449-1,1-1h2c.551,0,1,.449,1,1v2Z"/>
</svg>
