<?xml version="1.0" encoding="UTF-8"?>
<svg xmlns="http://www.w3.org/2000/svg" id="Layer_1" data-name="Layer 1" viewBox="0 0 24 24" width="512" height="512"><path d="m19.5,2h-1.5V.5c0-.276-.224-.5-.5-.5s-.5.224-.5.5v1.5H7V.5c0-.276-.224-.5-.5-.5s-.5.224-.5.5v1.5h-1.5C2.019,2,0,4.019,0,6.5v13c0,2.481,2.019,4.5,4.5,4.5h15c2.481,0,4.5-2.019,4.5-4.5V6.5c0-2.481-2.019-4.5-4.5-4.5Zm-15,1h15c1.93,0,3.5,1.57,3.5,3.5v1.5H1v-1.5c0-1.93,1.57-3.5,3.5-3.5Zm15,20H4.5c-1.93,0-3.5-1.57-3.5-3.5v-10.5h22v10.5c0,1.93-1.57,3.5-3.5,3.5Zm-3.73-8.988h-1.944l-.52-1.995c-.154-.587-.687-1.006-1.315-1.018-.61.012-1.143.43-1.296,1.018l-.52,1.994h-1.944c-.777,0-1.258.623-1.258,1.201,0,.535.324,1.046.844,1.335l1.249.694-.573,1.562c-.216.591-.024,1.243.479,1.622.252.19.553.284.854.284.307,0,.613-.099.868-.295l1.308-1.011,1.307,1.011c.504.39,1.212.394,1.722.011.503-.379.695-1.031.479-1.622l-.573-1.562,1.248-.694c.521-.289.845-.801.845-1.335,0-.578-.481-1.201-1.258-1.201Zm-.073,1.662l-1.996,1.11.867,2.364c.063.172.005.369-.141.479-.15.112-.359.111-.508-.003l-1.919-1.484-1.919,1.484c-.149.115-.358.117-.508.003-.146-.11-.204-.307-.142-.479l.868-2.365-1.996-1.11c-.164-.091-.33-.27-.33-.461,0-.054.061-.201.258-.201h2.716l.715-2.742c.041-.156.184-.268.329-.271.164.003.307.114.347.27l.715,2.742h2.716c.197,0,.258.147.258.201,0,.192-.166.37-.331.461Z"/></svg>
