<?xml version="1.0" encoding="UTF-8"?>
<svg xmlns="http://www.w3.org/2000/svg" id="Layer_1" data-name="Layer 1" viewBox="0 0 24 24" width="512" height="512"><path d="M21.5,13h-1c-1.486,0-2.886-.384-4.103-1.058,2.193-1.741,3.603-4.431,3.603-7.442,0-2.481-2.019-4.5-4.5-4.5s-4.5,2.019-4.5,4.5c0,3.012,1.409,5.701,3.603,7.442-1.217,.674-2.616,1.058-4.103,1.058-4.687,0-8.5-3.813-8.5-8.5,0-.276-.224-.5-.5-.5s-.5,.224-.5,.5V23.5c0,.276,.224,.5,.5,.5s.5-.224,.5-.5V8.739c.7,1.399,1.735,2.602,3,3.503v11.258c0,.276,.224,.5,.5,.5s.5-.224,.5-.5V12.865c.92,.497,1.93,.846,3,1.017v9.619c0,.276,.224,.5,.5,.5s.5-.224,.5-.5V13.987c.166,.009,.332,.013,.5,.013,.865,0,1.703-.116,2.5-.334v9.834c0,.276,.224,.5,.5,.5s.5-.224,.5-.5V13.332c.524-.208,1.026-.462,1.5-.757,.474,.295,.976,.548,1.5,.757v10.168c0,.276,.224,.5,.5,.5s.5-.224,.5-.5V13.666c.797,.218,1.635,.334,2.5,.334h.5v9.5c0,.276,.224,.5,.5,.5s.5-.224,.5-.5V13.5c0-.276-.224-.5-.5-.5ZM12,4.5c0-1.93,1.57-3.5,3.5-3.5s3.5,1.57,3.5,3.5c0,2.819-1.38,5.323-3.5,6.87-2.12-1.547-3.5-4.051-3.5-6.87Z"/></svg>
