<?xml version="1.0" encoding="UTF-8"?>
<svg xmlns="http://www.w3.org/2000/svg" id="Layer_1" data-name="Layer 1" viewBox="0 0 24 24" width="512" height="512"><path d="m12,12c3.309,0,6-2.691,6-6S15.309,0,12,0s-6,2.691-6,6,2.691,6,6,6Zm0-11c2.757,0,5,2.243,5,5s-2.243,5-5,5-5-2.243-5-5S9.243,1,12,1Zm0,13c-4.963,0-9,4.037-9,9v.5c0,.276.224.5.5.5s.5-.224.5-.5v-.5c0-2.953,1.613-5.532,4-6.918v2.989c-.86.224-1.5,1-1.5,1.929,0,1.103.897,2,2,2s2-.897,2-2c0-.929-.64-1.705-1.5-1.929v-3.482c.927-.377,1.939-.589,3-.589s2.073.212,3,.589v3.462c-1.14.232-2,1.242-2,2.449v2c0,.276.224.5.5.5s.5-.224.5-.5v-2c0-.827.673-1.5,1.5-1.5s1.5.673,1.5,1.5v2c0,.276.224.5.5.5s.5-.224.5-.5v-2c0-1.208-.86-2.217-2-2.449v-2.968c2.387,1.386,4,3.964,4,6.918v.5c0,.276.224.5.5.5s.5-.224.5-.5v-.5c0-4.963-4.037-9-9-9Zm-2.5,7c0,.552-.448,1-1,1s-1-.448-1-1,.448-1,1-1,1,.448,1,1Z"/></svg>
