<?xml version="1.0" encoding="UTF-8"?>
<svg xmlns="http://www.w3.org/2000/svg" id="Layer_1" data-name="Layer 1" viewBox="0 0 24 24" width="512" height="512"><path d="M.14,3.38C.55,1.79,1.79,.55,3.38,.14c.27-.07,.54,.09,.61,.36,.07,.27-.09,.54-.36,.61-1.23,.32-2.2,1.28-2.51,2.51-.06,.23-.26,.38-.48,.38-.04,0-.08,0-.12-.02-.27-.07-.43-.34-.36-.61Zm.36,6.62c.28,0,.5-.22,.5-.5v-3c0-.28-.22-.5-.5-.5s-.5,.22-.5,.5v3c0,.28,.22,.5,.5,.5Zm5,5h-1c-1.6,0-2.99-1.08-3.39-2.62-.07-.27-.34-.43-.61-.36-.27,.07-.43,.34-.36,.61,.51,1.99,2.3,3.38,4.36,3.38h1c.28,0,.5-.22,.5-.5s-.22-.5-.5-.5Zm10.5-6.5v3c0,2.48-2.02,4.5-4.5,4.5h-3c-.28,0-.5-.22-.5-.5v-3c0-2.48,2.02-4.5,4.5-4.5h3c.28,0,.5,.22,.5,.5Zm-1,.5h-2.5c-1.93,0-3.5,1.57-3.5,3.5v2.5h2.5c1.93,0,3.5-1.57,3.5-3.5v-2.5ZM12.38,1.11c1.55,.4,2.62,1.79,2.62,3.39v1c0,.28,.22,.5,.5,.5s.5-.22,.5-.5v-1c0-2.05-1.39-3.85-3.38-4.36-.26-.07-.54,.09-.61,.36s.09,.54,.36,.61Zm-2.38-.61c0-.28-.22-.5-.5-.5h-3c-.28,0-.5,.22-.5,.5s.22,.5,.5,.5h3c.28,0,.5-.22,.5-.5Zm13.5,19.52c-.27-.07-.54,.09-.61,.36-.32,1.23-1.28,2.2-2.51,2.51-.27,.07-.43,.34-.36,.61,.06,.23,.26,.38,.48,.38,.04,0,.08,0,.12-.02,1.58-.41,2.82-1.65,3.23-3.23,.07-.27-.09-.54-.36-.61Zm0-6.02c-.28,0-.5,.22-.5,.5v3c0,.28,.22,.5,.5,.5s.5-.22,.5-.5v-3c0-.28-.22-.5-.5-.5Zm-.61-2.38c.06,.23,.26,.38,.48,.38,.04,0,.08,0,.12-.02,.27-.07,.43-.34,.36-.61-.51-1.99-2.3-3.38-4.36-3.38h-1c-.28,0-.5,.22-.5,.5s.22,.5,.5,.5h1c1.6,0,2.99,1.08,3.39,2.62Zm-11.27,11.26c-1.55-.4-2.62-1.79-2.62-3.39v-1c0-.28-.22-.5-.5-.5s-.5,.22-.5,.5v1c0,2.05,1.39,3.85,3.38,4.36,.04,.01,.08,.02,.12,.02,.22,0,.43-.15,.48-.38,.07-.27-.09-.54-.36-.61Zm5.88,.11h-3c-.28,0-.5,.22-.5,.5s.22,.5,.5,.5h3c.28,0,.5-.22,.5-.5s-.22-.5-.5-.5Z"/></svg>
