<?xml version="1.0" encoding="UTF-8"?>
<svg xmlns="http://www.w3.org/2000/svg" id="Layer_1" data-name="Layer 1" viewBox="0 0 24 24" width="512" height="512"><path d="m3.002,5.507c0-.276.224-.5.5-.5h20.001c.276,0,.5.224.5.5s-.224.5-.5.5H3.502c-.276,0-.5-.224-.5-.5Zm.503-2.5c.008,0,.017,0,.025,0l19.998-1c.276-.014.488-.248.475-.524-.014-.275-.262-.508-.524-.474L3.481,2.008c-.276.014-.488.248-.475.524.014.267.234.475.499.475Zm19.719,8.438c.734.97.963,2.205.629,3.39-.713,2.528-2.003,4.808-3.732,6.591-1.589,1.641-3.839,2.582-6.174,2.582h-3.891c-2.334,0-4.585-.941-6.174-2.582-1.729-1.784-3.02-4.063-3.732-6.591-.333-1.186-.104-2.421.63-3.39.692-.914,1.735-1.438,2.861-1.438h16.722c1.126,0,2.169.524,2.861,1.438Zm-.797.604c-.501-.662-1.254-1.042-2.064-1.042H3.641c-.81,0-1.562.38-2.063,1.042-.543.718-.712,1.634-.464,2.515.658,2.335,1.896,4.524,3.487,6.167,1.403,1.447,3.392,2.277,5.457,2.277h3.891c2.065,0,4.054-.83,5.456-2.277,1.591-1.642,2.83-3.832,3.488-6.167.249-.881.079-1.797-.464-2.515Z"/></svg>
