<?xml version="1.0" encoding="UTF-8"?>
<svg xmlns="http://www.w3.org/2000/svg" id="Layer_1" data-name="Layer 1" viewBox="0 0 24 24" width="512" height="512"><path d="M15,17.5c0,.276-.224,.5-.5,.5h-5c-.276,0-.5-.224-.5-.5s.224-.5,.5-.5h5c.276,0,.5,.224,.5,.5Zm3.161-5.363c-.846,.78-2.766,1.471-4.317,.004-.201-.191-.517-.18-.707,.02-.189,.201-.181,.518,.02,.707,.849,.802,1.835,1.137,2.788,1.137,1.097,0,2.149-.444,2.895-1.133,.203-.188,.216-.504,.028-.706-.188-.203-.503-.216-.706-.028Zm-7.294,.028c-.187-.203-.504-.216-.706-.028-.846,.78-2.766,1.471-4.317,.004-.2-.191-.517-.18-.707,.02-.189,.201-.181,.518,.02,.707,.849,.802,1.835,1.137,2.788,1.137,1.097,0,2.149-.444,2.895-1.133,.203-.188,.216-.504,.028-.706Zm13.133-.165c0,6.617-5.383,12-12,12S0,18.617,0,12,5.383,0,12,0s12,5.383,12,12Zm-1,0c0-6.065-4.935-11-11-11S1,5.935,1,12s4.935,11,11,11,11-4.935,11-11Zm-3.362-3.98c-1.954-.558-3.26-2.151-3.73-2.811-.161-.225-.472-.275-.698-.116-.225,.161-.276,.473-.116,.698,.532,.744,2.013,2.546,4.27,3.189,.046,.014,.093,.02,.138,.02,.218,0,.418-.144,.48-.362,.076-.266-.078-.543-.343-.618Zm-10.73-2.229c.16-.226,.108-.537-.116-.698-.227-.159-.537-.108-.698,.116-.471,.659-1.776,2.253-3.73,2.811-.265,.075-.419,.353-.343,.618,.062,.219,.263,.362,.48,.362,.045,0,.092-.006,.138-.02,2.257-.644,3.737-2.445,4.27-3.189Z"/></svg>
