<?xml version="1.0" encoding="UTF-8"?>
<svg xmlns="http://www.w3.org/2000/svg" id="Layer_1" data-name="Layer 1" viewBox="0 0 24 24" width="512" height="512"><path d="m16.5,2h-.55c-.232-1.14-1.243-2-2.45-2h-3c-1.207,0-2.218.86-2.45,2h-.55c-2.481,0-4.5,2.019-4.5,4.5v13c0,2.481,2.019,4.5,4.5,4.5h9c2.481,0,4.5-2.019,4.5-4.5V6.5c0-2.481-2.019-4.5-4.5-4.5Zm-6-1h3c.827,0,1.5.673,1.5,1.5s-.673,1.5-1.5,1.5h-3c-.827,0-1.5-.673-1.5-1.5s.673-1.5,1.5-1.5Zm9.5,18.5c0,1.93-1.57,3.5-3.5,3.5H7.5c-1.93,0-3.5-1.57-3.5-3.5V6.5c0-1.93,1.57-3.5,3.5-3.5h.55c.232,1.14,1.242,2,2.45,2h3c1.208,0,2.217-.86,2.45-2h.55c1.93,0,3.5,1.57,3.5,3.5v13Z"/></svg>
