<?xml version="1.0" encoding="UTF-8"?>
<svg xmlns="http://www.w3.org/2000/svg" id="Layer_1" data-name="Layer 1" viewBox="0 0 24 24">
  <path d="m23.397.915c-.488-.581-1.204-.915-1.964-.915H2.566c-.766,0-1.485.338-1.975.927C.104,1.517-.097,2.286.04,3.009l1.964,15.554c.03.243.232.428.478.438.241.01.46-.16.509-.4l1.699-8.322,2.821,13.364c.048.229.249.394.482.396h.007c.23,0,.433-.158.486-.384l3.324-13.854,2.208,7.836c.121.432.842.432.963,0l2.207-7.833,2.825,11.813c.055.231.225.375.506.384.238-.01.437-.186.475-.421l2.967-18.571c.131-.748-.074-1.511-.563-2.093Zm-.423,1.928l-2.572,16.1-2.688-11.24c-.053-.222-.249-.379-.477-.384-.2.015-.43.146-.491.364l-2.246,7.974-2.247-7.974c-.061-.219-.241-.353-.491-.364-.228.005-.424.162-.477.384l-3.254,13.562-2.86-13.55c-.049-.231-.253-.396-.489-.396h-.002c-.236,0-.44.168-.488.4l-1.575,7.713L1.027,2.854c-.086-.46.036-.929.334-1.289.299-.359.738-.565,1.205-.565h18.867c.464,0,.9.203,1.198.559.299.354.424.82.343,1.284Z"/>
</svg>
