<?xml version="1.0" encoding="UTF-8"?>
<svg xmlns="http://www.w3.org/2000/svg" id="Layer_1" data-name="Layer 1" viewBox="0 0 24 24">
  <path d="m23.508,13.816c-.423-.519-1.048-.816-1.715-.816h-2.293c-.276,0-.5.224-.5.5s.224.5.5.5h2.293c.365,0,.707.164.939.448.226.276.314.631.244.974-.943,4.574-5.968,7.365-10.477,7.559v-8.981h3c.276,0,.5-.224.5-.5s-.224-.5-.5-.5h-3v-5.051c1.968-.249,3.5-1.915,3.5-3.949,0-2.206-1.794-4-4-4s-4,1.794-4,4c0,2.034,1.532,3.7,3.5,3.949v5.051h-3c-.276,0-.5.224-.5.5s.224.5.5.5h3v8.981c-4.508-.194-9.535-2.985-10.476-7.559-.07-.343.018-.698.243-.975.232-.285.575-.448.939-.448h2.293c.276,0,.5-.224.5-.5s-.224-.5-.5-.5h-2.293c-.667,0-1.292.297-1.714.816-.416.51-.579,1.169-.448,1.808,1.079,5.243,6.926,8.376,11.956,8.376s10.876-3.133,11.956-8.376c.131-.638-.032-1.297-.448-1.807ZM9,4c0-1.654,1.346-3,3-3s3,1.346,3,3-1.346,3-3,3-3-1.346-3-3Z"/>
</svg>
