<?xml version="1.0" encoding="UTF-8"?>
<svg xmlns="http://www.w3.org/2000/svg" id="arrow-circle-down" viewBox="0 0 24 24" width="512" height="512"><path d="M19.5,0H4.5C2.019,0,0,2.019,0,4.5v15c0,2.481,2.019,4.5,4.5,4.5h15c2.481,0,4.5-2.019,4.5-4.5V4.5c0-2.481-2.019-4.5-4.5-4.5Zm3.5,19.5c0,1.93-1.57,3.5-3.5,3.5H4.5c-1.93,0-3.5-1.57-3.5-3.5V4.5c0-1.93,1.57-3.5,3.5-3.5h15c1.93,0,3.5,1.57,3.5,3.5v15Z"/><path d="M10.052,10.229l2.829-2.879c.194-.197,.191-.514-.006-.707-.198-.194-.514-.191-.707,.006l-2.826,2.876c-.198,.197-.474,.5-.756,.818-.836,.944-.836,2.368,0,3.313,.282,.317,.558,.62,.752,.814l2.829,2.879c.098,.1,.227,.149,.356,.149,.126,0,.253-.048,.351-.144,.197-.193,.2-.51,.006-.707l-2.832-2.882c-.187-.188-.448-.475-.714-.773-.502-.567-.502-1.421,0-1.987,.266-.3,.527-.587,.717-.777Z"/></svg>
