<?xml version="1.0" encoding="UTF-8"?>
<svg xmlns="http://www.w3.org/2000/svg" id="Layer_1" data-name="Layer 1" viewBox="0 0 24 24" width="512" height="512"><path d="m18.5,24H4.372c-.95,0-1.78-.54-2.165-1.408-.386-.868-.229-1.845.408-2.549l9.128-8.043L2.656,3.997c-.678-.744-.835-1.721-.449-2.589.385-.868,1.215-1.408,2.165-1.408h14.128c1.93,0,3.5,1.57,3.5,3.5v1c0,.276-.224.5-.5.5s-.5-.224-.5-.5v-1c0-1.378-1.121-2.5-2.5-2.5H4.372c-.558,0-1.025.304-1.251.813s-.138,1.06.236,1.473l9.473,8.339c.108.095.17.231.17.375s-.062.28-.17.375L3.316,20.753c-.333.374-.421.924-.195,1.433s.693.813,1.251.813h14.128c1.379,0,2.5-1.122,2.5-2.5v-1c0-.276.224-.5.5-.5s.5.224.5.5v1c0,1.93-1.57,3.5-3.5,3.5Z"/></svg>
