<?xml version="1.0" encoding="UTF-8"?>
<svg xmlns="http://www.w3.org/2000/svg" id="Layer_1" data-name="Layer 1" viewBox="0 0 24 24">
  <path d="m9.5,5.5c0,1.379,1.122,2.5,2.5,2.5s2.5-1.121,2.5-2.5-1.122-2.5-2.5-2.5-2.5,1.121-2.5,2.5Zm4,0c0,.827-.673,1.5-1.5,1.5s-1.5-.673-1.5-1.5.673-1.5,1.5-1.5,1.5.673,1.5,1.5Zm7,.5c-3.373,0-6.02,2.984-6.555,3.632-1.256.475-2.633.475-3.889,0-.535-.648-3.182-3.632-6.555-3.632C.918,6,.185,11.139.024,15.45c-.015.409.132.796.416,1.09.286.297.67.46,1.083.46.263,0,.477.214.477.5,0,.827.673,1.5,1.494,1.5.231.006.506.098.506.5v2c0,.099.036.186.086.264.069.315.174.623.353.905.514.807,1.392,1.288,2.346,1.288l10.428.043c.957,0,1.834-.481,2.348-1.288.191-.299.298-.628.364-.964.043-.074.075-.156.075-.248v-2c0-.275.224-.5.5-.5.827,0,1.5-.673,1.5-1.5,0-.275.224-.5.509-.5.412,0,.795-.162,1.079-.457.283-.294.43-.681.414-1.089-.134-3.531-.768-9.454-3.502-9.454ZM3.5,18c-.276,0-.5-.225-.5-.523,0-.814-.663-1.477-1.477-1.477-.139,0-.268-.055-.363-.153-.093-.097-.142-.225-.137-.359.192-5.156,1.165-8.487,2.477-8.487,2.712,0,5.005,2.377,5.669,3.136l-4.315,8.675c-.279-.583-.899-.811-1.354-.811Zm15.218,4.175c-.33.517-.892.825-1.503.825l-10.428-.043c-.613,0-1.176-.309-1.505-.825s-.371-1.157-.118-1.701l4.847-9.744c1.29.416,2.687.417,3.976,0l4.843,9.774c.259.556.217,1.196-.112,1.714Zm4.15-6.326c-.094.098-.221.151-.368.151-.827,0-1.5.673-1.5,1.5,0,.275-.224.5-.5.5-.596,0-1.107.352-1.349.856l-4.32-8.72c.663-.758,2.957-3.136,5.669-3.136,1.304,0,2.311,3.412,2.503,8.491.005.135-.043.262-.135.357ZM7.634,4.486c-.415-.445-.634-.96-.634-1.486,0-1.683,2.196-3,5-3s5,1.317,5,3c0,.526-.219,1.041-.634,1.486-.099.106-.232.16-.366.16-.122,0-.244-.044-.34-.134-.202-.188-.214-.504-.026-.706.243-.262.366-.533.366-.807,0-.946-1.643-2-4-2s-4,1.054-4,2c0,.273.123.545.366.807.188.202.176.519-.026.706-.202.188-.519.177-.707-.026Z"/>
</svg>
