<?xml version="1.0" encoding="UTF-8"?>
<svg xmlns="http://www.w3.org/2000/svg" id="Layer_1" data-name="Layer 1" viewBox="0 0 24 24" width="512" height="512"><path d="m21.954,18.17c-.388-3.016-1.125-5.76-2.173-8.192.074.004.144.022.22.022,2.206,0,4-1.794,4-4s-1.794-4-4-4c-.233,0-.459.03-.681.069-1.361-1.351-3.024-2.069-4.819-2.069C10.404,0,3.744,4.853,2.044,18.17c-1.184.402-2.044,1.511-2.044,2.83,0,1.654,1.346,3,3,3h18c1.654,0,3-1.346,3-3,0-1.319-.861-2.429-2.046-2.83Zm1.046-12.17c0,1.654-1.346,3-3,3s-3-1.346-3-3,1.346-3,3-3,3,1.346,3,3ZM14.5,1c1.386,0,2.642.48,3.74,1.426-1.321.654-2.24,2.003-2.24,3.574,0,1.71,1.084,3.162,2.598,3.733,1.127,2.415,1.897,5.201,2.319,8.267H3.08C4.75,5.641,10.931,1,14.5,1Zm6.5,22H3c-1.103,0-2-.897-2-2s.897-2,2-2h18c1.103,0,2,.897,2,2s-.897,2-2,2Z"/></svg>
