<?xml version="1.0" encoding="UTF-8"?>
<svg xmlns="http://www.w3.org/2000/svg" id="Layer_1" data-name="Layer 1" width="512" height="512" viewBox="0 0 24 24"><path d="M21.376,24H2.624c-1.027,0-1.937-.578-2.373-1.509-.436-.931-.298-1.999,.36-2.789L8.617,10.178c.095-.113,.235-.178,.383-.178h5.902c.146,0,.286,.064,.381,.176l8.103,9.522c.661,.794,.799,1.862,.363,2.793-.437,.931-1.346,1.509-2.373,1.509ZM5.882,14.986L1.378,20.344c-.411,.494-.495,1.139-.221,1.723,.273,.584,.821,.933,1.467,.933H21.376c.646,0,1.193-.349,1.467-.933,.274-.584,.19-1.229-.222-1.725l-4.551-5.347c-.022,.003-1.07,.005-1.07,.005-1.103,0-2,.897-2,2v3.5c0,.276-.224,.5-.5,.5s-.5-.224-.5-.5v-3.5c0-1.103-.897-2-2-2s-2,.897-2,2v1.5c0,.276-.224,.5-.5,.5s-.5-.224-.5-.5v-1.5c0-1.103-.897-2-2-2,0,0-1.08-.005-1.118-.014Zm6.118-.986c1.042,0,1.962,.534,2.5,1.343,.538-.809,1.458-1.343,2.5-1.343h.224l-2.553-3h-5.438l-2.521,3h.289c1.042,0,1.962,.534,2.5,1.343,.538-.809,1.458-1.343,2.5-1.343Zm7.5-6c-.585,0-1.145-.208-1.59-.581-.571,.377-1.234,.581-1.91,.581h-1.5c-.276,0-.5-.224-.5-.5s.224-.5,.5-.5h1.5c.598,0,1.16-.214,1.629-.621,.102-.089,.233-.133,.37-.12,.135,.011,.259,.077,.345,.182,.29,.355,.711,.559,1.156,.559,.827,0,1.5-.673,1.5-1.5s-.673-1.5-1.5-1.5c-.151,0-.31,.029-.484,.089-.127,.045-.269,.036-.39-.027-.12-.061-.211-.168-.251-.298-.453-1.461-2.186-2.23-3.6-1.43-.23,.13-.524,.059-.669-.167-.463-.731-1.25-1.167-2.106-1.167s-1.644,.437-2.106,1.167c-.145,.226-.438,.298-.669,.167-1.415-.801-3.147-.031-3.6,1.43-.04,.129-.131,.237-.251,.298-.121,.062-.263,.07-.39,.027-.175-.06-.333-.089-.484-.089-.827,0-1.5,.673-1.5,1.5s.673,1.5,1.5,1.5c.445,0,.866-.204,1.156-.559,.086-.104,.21-.17,.345-.182,.131-.014,.269,.031,.37,.12,.469,.406,1.031,.621,1.629,.621h1.5c.276,0,.5,.224,.5,.5s-.224,.5-.5,.5h-1.5c-.676,0-1.339-.204-1.91-.581-.445,.374-1.005,.581-1.59,.581-1.379,0-2.5-1.122-2.5-2.5,0-1.491,1.325-2.704,2.84-2.474,.567-1.229,1.785-2.026,3.16-2.026,.45,0,.89,.089,1.313,.267,.661-.8,1.637-1.267,2.687-1.267s2.025,.466,2.687,1.267c.424-.177,.863-.267,1.313-.267,1.375,0,2.593,.797,3.16,2.026,1.516-.229,2.84,.983,2.84,2.474,0,1.378-1.121,2.5-2.5,2.5Z"/></svg>
