<?xml version="1.0" encoding="UTF-8"?>
<svg xmlns="http://www.w3.org/2000/svg" id="Layer_1" data-name="Layer 1" viewBox="0 0 24 24" width="512" height="512"><path d="M24,18.458c-.333-6.769-6.708-11.77-8-12.715V3c0-1.654-1.346-3-3-3h-2c-1.654,0-3,1.346-3,3v2.743C6.711,6.69,.333,11.706,0,18.476c-.06,1.228,.377,2.435,1.2,3.312,.73,.778,1.699,1.215,2.728,1.23,1.058,0,2.113-.407,2.867-1.15,.266-.262,.49-.554,.67-.868,.668,1.495,1.999,2.628,3.611,2.918,.305,.055,.61,.082,.914,.082,1.174,0,2.311-.404,3.217-1.162,.594-.497,1.055-1.114,1.362-1.801,.174,.294,.387,.567,.638,.813,.769,.757,1.747,1.149,2.867,1.15,1.029-.016,1.998-.452,2.728-1.23,.823-.877,1.26-2.084,1.2-3.312ZM9,3c0-1.103,.897-2,2-2h2c1.103,0,2,.897,2,2v2.754c-.299,.252-.826,.785-1.23,1.671-.133-.23-.264-.45-.394-.66-.296-.479-.81-.766-1.374-.766s-1.083,.288-1.381,.771c-.135,.218-.266,.438-.393,.659-.403-.917-.922-1.438-1.227-1.685V3Zm-2.013,16.018c-.003,.806-.32,1.571-.894,2.137-.577,.569-1.342,.832-2.151,.863-.755-.011-1.47-.336-2.013-.915-.638-.681-.977-1.62-.93-2.578,.299-6.089,6.116-10.853,7.494-11.899,.299,.276,.798,.878,1.089,1.991-1.657,3.252-2.558,6.974-2.596,10.401Zm7.578,3.052c-.913,.764-2.12,1.076-3.312,.863-1.876-.337-3.274-2.123-3.252-4.154,.043-3.903,1.243-7.874,3.471-11.482,.116-.188,.31-.296,.531-.296,.218,0,.409,.105,.523,.291,1.585,2.564,3.475,6.678,3.475,11.708,0,1.188-.523,2.308-1.436,3.07Zm7.506-.984c-.543,.579-1.258,.904-2.013,.915-.801-.011-1.574-.296-2.151-.863-.577-.568-.907-1.439-.907-2.248-.022-4.142-1.26-7.677-2.591-10.287,.281-1.055,.796-1.675,1.106-1.97,1.394,1.054,7.186,5.791,7.485,11.875,.047,.958-.292,1.897-.93,2.578Z"/></svg>
