<?xml version="1.0" encoding="UTF-8"?>
<svg xmlns="http://www.w3.org/2000/svg" id="Layer_1" data-name="Layer 1" viewBox="0 0 24 24" width="512" height="512"><path d="M23.854,23.146l-4.268-4.268,.192-.177c2.079-2.069,3.223-4.82,3.223-7.746s-1.144-5.678-3.222-7.747C17.7,1.14,14.938,0,12,0S6.3,1.14,4.223,3.208c-.052,.051-.102,.103-.152,.155L.854,.146C.658-.049,.342-.049,.146,.146S-.049,.658,.146,.854L23.146,23.854c.098,.098,.226,.146,.354,.146s.256-.049,.354-.146c.195-.195,.195-.512,0-.707ZM4.928,3.917c1.888-1.881,4.4-2.917,7.072-2.917s5.183,1.036,7.072,2.917c1.888,1.88,2.928,4.379,2.928,7.038s-1.04,5.157-2.914,7.023l-.208,.192-4.199-4.199c.835-.754,1.322-1.833,1.322-2.971,0-2.206-1.794-4-4-4-1.139,0-2.218,.487-2.971,1.322L4.778,4.071c.05-.051,.099-.103,.151-.154Zm4.809,5.113c.567-.65,1.391-1.03,2.263-1.03,1.654,0,3,1.346,3,3,0,.872-.38,1.696-1.03,2.263l-4.232-4.232Zm7.631,11.208c.187,.203,.174,.52-.03,.707l-1.737,1.599c-.96,.936-2.243,1.456-3.602,1.456s-2.641-.521-3.611-1.466l-4.151-3.819C.95,15.443,.075,10.454,2.045,6.286c.118-.249,.414-.354,.666-.238,.25,.118,.356,.416,.238,.666-1.79,3.786-.995,8.318,1.978,11.278l4.147,3.815c1.588,1.546,4.273,1.536,5.839,.01l1.748-1.608c.203-.186,.52-.172,.707,.029Z"/></svg>
