<?xml version="1.0" encoding="UTF-8"?>
<svg xmlns="http://www.w3.org/2000/svg" id="Layer_1" data-name="Layer 1" width="512" height="512" viewBox="0 0 24 24"><path d="M9.5,11c-.276,0-.5-.224-.5-.5,0-1.215-.771-2.5-1.5-2.5s-1.5,1.285-1.5,2.5c0,.276-.224,.5-.5,.5s-.5-.224-.5-.5c0-1.652,1.069-3.5,2.5-3.5s2.5,1.848,2.5,3.5c0,.276-.224,.5-.5,.5Zm9.5-.5c0-1.652-1.069-3.5-2.5-3.5s-2.5,1.848-2.5,3.5c0,.276,.224,.5,.5,.5s.5-.224,.5-.5c0-1.215,.771-2.5,1.5-2.5s1.5,1.285,1.5,2.5c0,.276,.224,.5,.5,.5s.5-.224,.5-.5Zm5-6c0-1.291-1.017-2.962-1.657-3.713-.211-.246-.517-.387-.839-.387-.316,.025-.633,.144-.844,.392-.642,.76-1.66,2.438-1.66,3.708,0,1.378,1.121,2.5,2.5,2.5s2.5-1.122,2.5-2.5Zm-2.417-3.063c.594,.696,1.417,2.148,1.417,3.063,0,.827-.673,1.5-1.5,1.5s-1.5-.673-1.5-1.5c0-.899,.827-2.356,1.424-3.062l-.382-.323,.541,.322Zm2.417,10.563c0-1.196-.176-2.377-.521-3.51-.081-.264-.357-.416-.625-.332-.264,.081-.412,.36-.332,.624,.317,1.038,.479,2.121,.479,3.218,0,6.065-4.935,11-11,11S1,18.065,1,12,5.935,1,12,1c1.838,0,3.657,.462,5.261,1.337,.241,.133,.547,.043,.678-.2,.133-.242,.043-.546-.199-.678-1.75-.955-3.734-1.459-5.739-1.459C5.383,0,0,5.383,0,12s5.383,12,12,12,12-5.383,12-12Zm-5.236,3.31h0c.331-.521,.316-1.16-.039-1.668-.353-.505-.94-.74-1.543-.606-.286,.062-.612,.156-.979,.261-1.03,.296-2.442,.703-4.206,.703-1.763,0-3.17-.406-4.198-.702-.367-.106-.693-.199-.98-.262-.6-.133-1.19,.101-1.543,.606-.355,.508-.37,1.147-.039,1.668,1.169,1.836,3.713,3.69,6.764,3.69s5.596-1.854,6.764-3.69Zm-12.16-1.298c.269,.059,.574,.147,.917,.246,1.085,.313,2.571,.741,4.475,.742,1.904,0,3.394-.429,4.482-.742,.344-.099,.649-.187,.917-.246,.297-.061,.464,.139,.51,.203,.045,.065,.181,.297,.015,.558h0c-1.021,1.606-3.248,3.227-5.92,3.227s-4.898-1.621-5.92-3.227c-.166-.261-.031-.493,.015-.558,.039-.055,.17-.215,.397-.215,.035,0,.072,.003,.112,.012Z"/></svg>
