<?xml version="1.0" encoding="UTF-8"?>
<svg xmlns="http://www.w3.org/2000/svg" id="Layer_1" data-name="Layer 1" viewBox="0 0 24 24" width="512" height="512"><path d="M7.51,24c-1.98,0-3.74-1.29-4.31-3.19C1.12,20.18-.22,18.15,.03,15.96c.23-1.97,1.82-3.62,3.77-3.91,1.12-.17,2.25,.08,3.18,.69,.22,.14,.48,.13,.65-.04l5.07-5.07c.17-.17,.18-.44,.04-.65-.62-.93-.86-2.06-.69-3.18,.29-1.96,1.94-3.54,3.91-3.77,2.18-.26,4.22,1.09,4.84,3.16,2.07,.63,3.42,2.65,3.16,4.84-.23,1.97-1.82,3.62-3.77,3.91-1.12,.17-2.25-.08-3.18-.69-.22-.14-.48-.13-.65,.04l-5.07,5.07c-.17,.17-.18,.44-.04,.65,.61,.93,.86,2.06,.69,3.17-.29,1.96-1.94,3.55-3.91,3.77-.18,.02-.36,.03-.53,.03Zm-3.01-11c-.18,0-.36,.01-.54,.04-1.52,.23-2.75,1.5-2.93,3.04-.21,1.79,.95,3.43,2.69,3.83,.19,.04,.33,.19,.38,.38,.4,1.74,2.05,2.9,3.83,2.69,1.53-.18,2.81-1.41,3.04-2.93,.13-.87-.06-1.75-.54-2.47-.41-.62-.34-1.4,.17-1.91l5.07-5.07c.51-.51,1.29-.58,1.91-.17,.72,.48,1.59,.67,2.47,.54,1.52-.23,2.75-1.51,2.93-3.04,.21-1.79-.95-3.43-2.69-3.83-.19-.04-.33-.19-.38-.38-.4-1.74-2.04-2.9-3.83-2.69-1.53,.18-2.81,1.41-3.04,2.93-.13,.87,.06,1.75,.54,2.47,.41,.62,.34,1.4-.17,1.91l-5.07,5.07c-.51,.51-1.29,.58-1.91,.17-.57-.38-1.25-.58-1.94-.58Z"/></svg>
