<?xml version="1.0" encoding="UTF-8"?>
<svg xmlns="http://www.w3.org/2000/svg" id="Layer_1" data-name="Layer 1" viewBox="0 0 24 24">
  <path d="m23.5,3h-2.5v-1c0-.276-.224-.5-.5-.5s-.5.224-.5.5v1h-2.5c-.276,0-.5.224-.5.5s.224.5.5.5h2.5v5.5c0,1.378-1.121,2.5-2.5,2.5h-.5v-1.5c0-1.378-1.121-2.5-2.5-2.5h-5c-1.379,0-2.5,1.122-2.5,2.5v1.5h-.5c-1.379,0-2.5-1.122-2.5-2.5v-5.5h2.5c.276,0,.5-.224.5-.5s-.224-.5-.5-.5h-2.5v-.5c0-.276-.224-.5-.5-.5s-.5.224-.5.5v.5H.5c-.276,0-.5.224-.5.5s.224.5.5.5h2.5v5.5c0,1.93,1.57,3.5,3.5,3.5h.5v1.5c0,.066.003.131.008.196-2.034,1.15-4.008,3.78-4.008,6.804,0,.276.224.5.5.5s.5-.224.5-.5c0-2.541,1.597-4.761,3.299-5.815.423.782,1.25,1.315,2.201,1.315h5c.95,0,1.778-.533,2.201-1.315,1.702,1.054,3.299,3.274,3.299,5.815,0,.276.224.5.5.5s.5-.224.5-.5c0-3.024-1.974-5.654-4.008-6.804.005-.065.008-.13.008-.196v-1.5h.5c1.93,0,3.5-1.57,3.5-3.5v-5.5h2.5c.276,0,.5-.224.5-.5s-.224-.5-.5-.5Zm-7.5,11.5c0,.827-.673,1.5-1.5,1.5h-5c-.827,0-1.5-.673-1.5-1.5v-4c0-.827.673-1.5,1.5-1.5h5c.827,0,1.5.673,1.5,1.5v4Z"/>
</svg>
