<?xml version="1.0" encoding="UTF-8"?>
<svg xmlns="http://www.w3.org/2000/svg" id="Layer_1" data-name="Layer 1" viewBox="0 0 24 24" width="512" height="512"><path d="M22.5,23h-.5V10c0-.091-.109-9.086-9.593-9.989-1.072-.102-2.068,.535-2.491,1.581-1.141,2.815-3.317,4.076-6.234,5.104-1.006,.354-1.682,1.303-1.682,2.36v.444c0,1.379,1.121,2.5,2.5,2.5h5.424c-1.152,7.136-6.729,10.534-7.551,11h-.873c-.276,0-.5,.224-.5,.5s.224,.5,.5,.5H22.5c.276,0,.5-.224,.5-.5s-.224-.5-.5-.5ZM10.996,11.562c.018-.143-.026-.286-.121-.394s-.231-.169-.375-.169H4.5c-.827,0-1.5-.673-1.5-1.5v-.444c0-.634,.407-1.204,1.014-1.417,2.745-.967,5.473-2.323,6.83-5.672,.256-.634,.869-1.019,1.469-.96,8.566,.815,8.687,8.66,8.688,8.993v13H4.212c2.166-1.578,6.004-5.199,6.784-11.438Z"/></svg>
