<?xml version="1.0" encoding="UTF-8"?>
<svg xmlns="http://www.w3.org/2000/svg" id="Layer_1" data-name="Layer 1" viewBox="0 0 24 24" width="512" height="512"><path d="M10.767,9.484c.343,.343,.794,.515,1.245,.515s.902-.172,1.245-.515l3.239-3.239c.687-.687,.687-1.804,0-2.49L13.257,.516c-.686-.687-1.805-.687-2.49,0l-3.239,3.239c-.687,.687-.687,1.804,0,2.49l3.239,3.239Zm-2.532-5.022l3.239-3.239c.148-.148,.343-.223,.538-.223s.39,.074,.538,.223l3.239,3.239c.297,.297,.297,.779,0,1.076l-3.239,3.239c-.297,.297-.779,.297-1.076,0l-3.239-3.239c-.297-.297-.297-.779,0-1.076Zm15.766,1.038V15.601c0,2.003-.78,3.886-2.196,5.303l-2.95,2.95c-.098,.098-.226,.146-.354,.146s-.256-.049-.354-.146c-.195-.195-.195-.512,0-.707l2.95-2.95c1.228-1.228,1.903-2.86,1.903-4.596V5.5c0-.827-.673-1.5-1.5-1.5s-1.5,.673-1.5,1.5c0,0-.002,8.043-.005,8.064-.014,.548-.207,1.093-.579,1.536l-2.639,2.746c-.098,.102-.229,.153-.36,.153-.125,0-.25-.046-.347-.14-.199-.191-.205-.508-.014-.707l2.616-2.721c.688-.688,.189-1.664-.055-1.935-.267-.297-.634-.474-1.032-.496-.39-.019-.782,.113-1.08,.38l-2.729,2.512c-.516,.474-.929,1.033-1.232,1.662,.297,.753,.456,1.562,.456,2.385v4.559c0,.276-.224,.5-.5,.5s-.5-.224-.5-.5v-4.559c0-1.533-.647-3.009-1.776-4.048l-2.734-2.516c-.292-.263-.677-.395-1.075-.375-.398,.022-.766,.198-1.032,.496-.494,.551-.508,1.394-.032,1.96l2.594,2.695c.191,.199,.186,.516-.014,.707-.197,.191-.516,.186-.707-.014l-2.616-2.721c-.377-.447-.574-.988-.597-1.53-.006-.031-.009-8.096-.009-8.096,0-.827-.673-1.5-1.5-1.5s-1.5,.673-1.5,1.5V15.601c0,1.736,.676,3.368,1.903,4.596l2.95,2.95c.195,.195,.195,.512,0,.707-.098,.098-.226,.146-.354,.146s-.256-.049-.354-.146l-2.95-2.95c-1.416-1.417-2.196-3.3-2.196-5.303V5.5c0-1.378,1.121-2.5,2.5-2.5s2.5,1.122,2.5,2.5v5.997c.391-.294,.86-.466,1.359-.493,.671-.042,1.307,.188,1.803,.633l2.739,2.521c.426,.392,.794,.838,1.098,1.321,.305-.485,.673-.927,1.1-1.321l2.734-2.516c.502-.45,1.14-.681,1.808-.637,.5,.027,.969,.199,1.359,.493V5.5c0-1.378,1.121-2.5,2.5-2.5s2.5,1.122,2.5,2.5Z"/></svg>
