<?xml version="1.0" encoding="UTF-8"?>
<svg xmlns="http://www.w3.org/2000/svg" id="Layer_1" data-name="Layer 1" viewBox="0 0 24 24" width="512" height="512"><path d="m23.791,9.25c.271-.409.279-.921.022-1.338-.261-.421-.733-.646-1.22-.583-1.623.198-4.592.693-7.077,1.838-.548-2.953-1.725-6.677-2.405-8.41-.181-.459-.615-.756-1.108-.756-.496,0-.934.298-1.115.76-.687,1.75-1.845,5.499-2.401,8.416-2.389-1.073-5.27-1.666-7.115-1.852-.496-.048-.938.179-1.188.592-.252.415-.242.924.023,1.328.887,1.355,2.495,3.338,4.266,5-.813.229-1.518.488-2.158.723l-.564.206c-.439.158-.729.562-.735,1.029-.007.466.269.877.702,1.047.262.102.543.221.842.348,1.15.488,2.547,1.08,4.172,1.32-.292.594-.56,1.192-.688,1.655-.111.402.006.83.306,1.118.211.202.487.309.77.309.114,0,.229-.018.342-.054.995-.321,2.749-1.168,4.041-2.325v3.88c0,.276.224.5.5.5s.5-.224.5-.5v-3.858c1.293,1.137,3.07,1.979,4.088,2.304.393.126.816.025,1.112-.258.298-.287.414-.713.304-1.112-.123-.446-.425-1.056-.732-1.661,1.82-.267,3.418-.941,4.622-1.449l.424-.178c.433-.18.7-.598.682-1.067-.019-.47-.32-.867-.767-1.011-.347-.112-.693-.245-1.057-.382-.498-.189-1.041-.396-1.655-.579,1.76-1.659,3.373-3.644,4.271-4.999Zm-5.62,4.874c-.142.124-.202.318-.155.5.047.183.192.324.377.365.937.207,1.694.495,2.428.774.379.144.742.282,1.104.399.049.016.074.049.076.101.003.074-.049.096-.065.103l-.43.18c-1.3.548-3.082,1.3-5.045,1.457-.165.013-.313.108-.396.252-.081.145-.086.321-.012.469l.243.48c.298.585.637,1.249.744,1.639.018.063-.014.105-.033.125-.033.031-.073.04-.114.026-1.049-.334-3.259-1.497-4.393-2.784v-3.709c0-.276-.224-.5-.5-.5s-.5.224-.5.5v3.676c-1.146,1.301-3.333,2.49-4.348,2.817-.045.014-.081.005-.112-.026-.021-.02-.053-.063-.035-.128.152-.546.561-1.374.939-2.11.077-.149.074-.327-.008-.473-.082-.146-.232-.242-.399-.254-1.777-.133-3.337-.794-4.59-1.325-.308-.131-.597-.253-.866-.358-.018-.007-.068-.027-.067-.101,0-.051.025-.085.072-.103l.572-.208c.883-.324,1.796-.659,2.951-.919.185-.042.329-.183.376-.366.046-.183-.016-.376-.158-.5-1.955-1.693-3.851-3.999-4.785-5.425-.076-.116-.028-.221-.005-.261.024-.04.086-.129.233-.116,1.545.155,4.836.759,7.368,2.036.142.071.31.071.451,0,.142-.072.241-.208.267-.364.476-2.879,1.758-7.069,2.463-8.865.082-.21.276-.222.36-.004.718,1.825,1.996,5.905,2.463,8.865.025.159.126.297.27.369.143.073.312.07.457-.004,2.452-1.286,5.654-1.825,7.346-2.032.15-.013.223.076.248.117.029.048.069.147-.006.26-.978,1.476-2.836,3.726-4.786,5.426Z"/></svg>
