<?xml version="1.0" encoding="UTF-8"?>
<svg xmlns="http://www.w3.org/2000/svg" id="Layer_1" data-name="Layer 1" viewBox="0 0 24 24" width="512" height="512"><path d="M24,13.046c0-6.523-6.353-9.191-8-9.77v-.776c0-1.379-1.121-2.5-2.5-2.5h-3c-1.379,0-2.5,1.121-2.5,2.5v.779C6.401,3.861,0,6.595,0,13.046c0,4.925,4.307,8.462,10.634,8.906l-1.446,1.157c-.216,.173-.25,.487-.078,.703,.099,.123,.244,.188,.391,.188,.109,0,.22-.036,.312-.109l1.688-1.35v.959c0,.276,.224,.5,.5,.5s.5-.224,.5-.5v-.959l1.687,1.35c.093,.073,.202,.109,.313,.109,.146,0,.292-.064,.391-.188,.172-.216,.138-.53-.078-.703l-1.446-1.157c6.327-.444,10.634-3.981,10.634-8.906ZM9,2.5c0-.827,.673-1.5,1.5-1.5h3c.827,0,1.5,.673,1.5,1.5v1.137c0,.13,.051,.256,.143,.35,.038,.039,3.857,4.031,3.857,10.014,0,3.244-2.178,5.253-4.233,6.246,.93-1.552,1.233-3.789,1.233-5.246,0-7.125-3.498-10.705-3.646-10.854-.195-.195-.512-.195-.707,0-.148,.148-3.646,3.729-3.646,10.854,0,1.457,.303,3.694,1.233,5.246-2.055-.993-4.233-3.002-4.233-6.246,0-5.982,3.819-9.975,3.857-10.014,.033-.033,.142-.144,.142-.347v-1.14Zm0,12.5c0-5.367,2.14-8.634,3.001-9.731,.863,1.093,2.999,4.345,2.999,9.731,0,2.319-.814,6-3,6s-3-3.681-3-6ZM1,13.046c0-4.578,3.66-7.097,5.915-8.214-1.223,1.776-2.915,4.99-2.915,9.168,0,3.047,1.614,5.122,3.476,6.394-3.962-1.152-6.476-3.857-6.476-7.348Zm15.524,7.348c1.862-1.272,3.476-3.348,3.476-6.394,0-4.187-1.699-7.404-2.922-9.179,2.253,1.106,5.922,3.616,5.922,8.224,0,3.491-2.514,6.197-6.476,7.348Z"/></svg>
