<?xml version="1.0" encoding="UTF-8"?>
<svg xmlns="http://www.w3.org/2000/svg" id="Layer_1" data-name="Layer 1" width="512" height="512" viewBox="0 0 24 24"><path d="M10.368,9.582c.193,.358,.172,.792-.053,1.132l-1.89,3.05c-.094,.152-.258,.236-.425,.236-.09,0-.181-.024-.263-.075-.234-.146-.307-.453-.161-.688l1.898-3.062c.031-.047,.033-.083,.013-.119s-.05-.055-.091-.055h-2.78c-.356,0-.683-.164-.896-.45-.212-.287-.275-.646-.171-.988,.013-.041,2.026-3.323,2.026-3.323,.144-.235,.451-.311,.688-.164,.235,.145,.308,.452,.164,.688l-1.926,3.13c.001,.026,.012,.048,.023,.062,.016,.021,.044,.047,.092,.047h2.78c.407,0,.78,.223,.972,.582ZM24,1.5v3.5c0,1.103-.897,2-2,2v10.5c0,1.93-1.57,3.5-3.5,3.5h-2.757c-.619,1.746-2.287,3-4.243,3H4.5c-2.481,0-4.5-2.019-4.5-4.5V4.5C0,2.019,2.019,0,4.5,0h7c2.481,0,4.5,2.019,4.5,4.5v15c0,.169-.01,.336-.028,.5h2.528c1.378,0,2.5-1.121,2.5-2.5V7c-1.103,0-2-.897-2-2V1.5c0-.276,.224-.5,.5-.5s.5,.224,.5,.5v1.5h3V1.5c0-.276,.224-.5,.5-.5s.5,.224,.5,.5ZM15,19.5V10h-2.5c-.276,0-.5-.224-.5-.5s.224-.5,.5-.5h2.5V4.5c0-1.93-1.57-3.5-3.5-3.5H4.5c-1.93,0-3.5,1.57-3.5,3.5v4.5H3.5c.276,0,.5,.224,.5,.5s-.224,.5-.5,.5H1v9.5c0,1.93,1.57,3.5,3.5,3.5h7c1.93,0,3.5-1.57,3.5-3.5ZM23,4h-3v1c0,.552,.449,1,1,1h1c.551,0,1-.448,1-1v-1Z"/></svg>
