<?xml version="1.0" encoding="UTF-8"?>
<svg xmlns="http://www.w3.org/2000/svg" id="Layer_1" data-name="Layer 1" viewBox="0 0 24 24" width="512" height="512"><path d="m21,18h-2v-1.5c0-.276-.224-.5-.5-.5s-.5.224-.5.5v1.5h-5.5V7.969c1.971-.247,3.5-1.932,3.5-3.969,0-2.206-1.794-4-4-4s-4,1.794-4,4c0,2.036,1.529,3.722,3.5,3.969v10.031H3c-1.654,0-3,1.346-3,3s1.346,3,3,3h18c1.654,0,3-1.346,3-3s-1.346-3-3-3ZM9,4c0-1.654,1.346-3,3-3s3,1.346,3,3-1.346,3-3,3-3-1.346-3-3Zm12,19H3c-1.103,0-2-.897-2-2s.897-2,2-2h18c1.103,0,2,.897,2,2s-.897,2-2,2Z"/></svg>
