<?xml version="1.0" encoding="UTF-8"?>
<svg xmlns="http://www.w3.org/2000/svg" id="Layer_1" data-name="Layer 1" viewBox="0 0 24 24" width="512" height="512"><path d="m19.5,0H4.5C2.019,0,0,2.019,0,4.5v15c0,2.481,2.019,4.5,4.5,4.5h15c2.481,0,4.5-2.019,4.5-4.5V4.5c0-2.481-2.019-4.5-4.5-4.5Zm3.5,19.5c0,1.93-1.57,3.5-3.5,3.5H4.5c-1.93,0-3.5-1.57-3.5-3.5V4.5c0-1.93,1.57-3.5,3.5-3.5h15c1.93,0,3.5,1.57,3.5,3.5v15Zm-4.122-14.673l-6.216,7.173,6.216,7.173c.181.208.158.524-.051.705-.095.082-.211.122-.327.122-.14,0-.279-.059-.378-.173l-6.122-7.064-6.122,7.064c-.099.114-.238.173-.378.173-.116,0-.232-.04-.327-.122-.209-.181-.231-.497-.051-.705l6.216-7.173-6.216-7.173c-.181-.208-.158-.524.051-.705.208-.18.524-.159.705.051l6.122,7.064,6.122-7.064c.181-.21.496-.23.705-.051.209.181.231.497.051.705Z"/></svg>
