<?xml version="1.0" encoding="UTF-8"?>
<svg xmlns="http://www.w3.org/2000/svg" id="Layer_1" data-name="Layer 1" viewBox="0 0 24 24" width="512" height="512"><path d="M15.984,19.25c.068,.268-.093,.54-.36,.609-.365,.094-.744,.142-1.124,.142H4.5c-2.481,0-4.5-2.019-4.5-4.5v-7c0-1.098,.399-2.155,1.125-2.977,.184-.207,.5-.226,.706-.044,.207,.183,.227,.499,.044,.706-.564,.639-.875,1.461-.875,2.314v7c0,1.93,1.57,3.5,3.5,3.5H14.5c.296,0,.591-.037,.876-.11,.264-.07,.54,.093,.608,.36Zm3.016-3.75c0,.777-.203,1.539-.583,2.21l5.436,5.436c.195,.195,.195,.512,0,.707-.098,.098-.226,.146-.354,.146s-.256-.049-.354-.146L.146,.854C-.049,.658-.049,.342,.146,.146S.658-.049,.854,.146l3.854,3.854H14.5c2.481,0,4.5,2.019,4.5,4.5v.156l2.28-2.301c.562-.428,1.232-.489,1.799-.205,.568,.284,.921,.854,.921,1.489v8.666c0,.635-.353,1.206-.921,1.489-.237,.119-.493,.177-.746,.177-.353,0-.702-.113-.997-.334l-2.336-2.327v.19Zm0-5.423v3.82l2.989,2.986c.152,.109,.414,.133,.643,.017,.23-.115,.368-.337,.368-.595V7.64c0-.257-.138-.48-.368-.595-.229-.116-.49-.091-.696,.062l-2.936,2.97Zm-1.328,6.888c.211-.457,.328-.956,.328-1.465v-7c0-1.93-1.57-3.5-3.5-3.5H5.707l11.965,11.965Z"/></svg>
