<?xml version="1.0" encoding="UTF-8"?>
<svg xmlns="http://www.w3.org/2000/svg" id="Layer_1" data-name="Layer 1" viewBox="0 0 24 24">
  <path d="m22,10C22,4.486,17.514,0,12,0S2,4.486,2,10c0,3.94,2.29,7.354,5.609,8.983-.715.524-1.33,1.184-1.8,1.939-.395.634-.415,1.401-.054,2.052.357.643,1.009,1.026,1.745,1.026h8.982c.726,0,1.4-.396,1.759-1.032.353-.625.345-1.358-.02-1.963-.474-.786-1.104-1.473-1.843-2.016,3.325-1.627,5.621-5.044,5.621-8.989Zm-6.705,9.469c.846.501,1.562,1.21,2.07,2.053.179.296.181.644.005.955-.186.328-.518.524-.889.524H7.5c-.367,0-.692-.191-.87-.511-.183-.329-.172-.717.028-1.038.514-.824,1.227-1.516,2.064-2.003,1.027.357,2.13.552,3.278.552s2.244-.194,3.268-.549c.009.006.018.012.027.018Zm-3.295-.469c-4.962,0-9-4.038-9-9S7.038,1,12,1s9,4.038,9,9-4.038,9-9,9Zm0-14c-2.757,0-5,2.243-5,5s2.243,5,5,5,5-2.243,5-5-2.243-5-5-5Zm0,9c-2.206,0-4-1.794-4-4s1.794-4,4-4,4,1.794,4,4-1.794,4-4,4Z"/>
</svg>
