<?xml version="1.0" encoding="UTF-8"?>
<svg xmlns="http://www.w3.org/2000/svg" id="Layer_1" data-name="Layer 1" viewBox="0 0 24 24" width="512" height="512"><path d="M22.94,17.055c-1.344-.485-3.089-1.075-5.074-1.653L21.906,2.602c.194-.614,.087-1.265-.294-1.784s-.969-.817-1.613-.817h-.766c-1.24,0-2.431,.589-3.182,1.576l-6.952,9.124c-1.266,1.688-3.141,2.3-4.092,2.3H.5c-.276,0-.5,.224-.5,.5s.224,.5,.5,.5H3.508c6.978,0,14.957,2.504,19.093,3.996,.373,.134,.4,.469,.399,.568,0,.099-.03,.434-.404,.564-4.135,1.445-12.113,3.871-19.088,3.871H.5c-.276,0-.5,.224-.5,.5s.224,.5,.5,.5H3.508c7.123,0,15.224-2.461,19.418-3.928,.649-.228,1.071-.817,1.074-1.504,.003-.686-.413-1.28-1.06-1.514Zm-13.043-5.752L16.847,2.182c.564-.74,1.456-1.182,2.387-1.182h.766c.322,0,.616,.149,.807,.408,.19,.26,.244,.585,.147,.893l-4.048,12.827c-2.824-.784-6.053-1.512-9.272-1.879,.814-.442,1.618-1.085,2.264-1.947Zm-2.397,7.697c-.276,0-.5-.224-.5-.5s.224-.5,.5-.5h5c.276,0,.5,.224,.5,.5s-.224,.5-.5,.5H7.5Z"/></svg>
