<?xml version="1.0" encoding="UTF-8"?>
<svg xmlns="http://www.w3.org/2000/svg" id="Layer_1" data-name="Layer 1" viewBox="0 0 24 24">
  <path d="m22.56,17.479c-.569-.841-1.06-1.568-1.06-2.479,0-.885.263-1.635.566-2.503.416-1.188.934-2.667.934-4.997,0-.276-.224-.5-.5-.5s-.5.224-.5.5c0,.791-.335,3.303-4.5,3.489V.949c0-.423-.273-.787-.68-.905-.404-.118-.828.042-1.054.397-1.171,1.842-1.766,3.208-1.766,4.059,0,.804,1.365,1.717,2.5,1.946v4.538c-4.395-.284-4.498-4.311-4.5-4.489,0-.006,0-.495-.5-.495s-.5.504-.5.504c0,2.708.534,4.462.963,5.872.3.987.537,1.767.537,2.624,0,.909-.491,1.637-1.06,2.479-.675,1-1.44,2.133-1.44,3.771,0,2.719,3.88,2.75,4.045,2.75h5.909c.165,0,4.045-.031,4.045-2.752,0-1.639-.765-2.771-1.44-3.769Zm-7.56-12.979c0-.607.545-1.821,1.5-3.349v4.274c-.715-.197-1.425-.732-1.5-.925Zm4.955,18.5h-5.909c-.03,0-3.046-.027-3.046-1.75,0-1.332.616-2.245,1.269-3.211.605-.896,1.231-1.824,1.231-3.039,0-1.006-.269-1.891-.581-2.915-.182-.599-.374-1.231-.536-1.955.873,1.026,2.296,1.87,4.616,1.87,2.181,0,3.67-.565,4.619-1.399-.151.578-.328,1.085-.496,1.565-.32.915-.623,1.779-.623,2.834,0,1.217.626,2.143,1.231,3.039.652.965,1.269,1.876,1.269,3.209,0,1.725-3.016,1.752-3.045,1.752ZM7,15c.276,0,.5-.224.5-.5v-5.493c.335.009.654.028.954.056.272.025.519-.177.544-.452.025-.275-.177-.519-.452-.544-.329-.031-.68-.051-1.046-.06v-2.831l.952-1.19c.353-.442.548-.997.548-1.562v-.923c0-.827-.673-1.5-1.5-1.5h-1c-.827,0-1.5.673-1.5,1.5v.938c0,.57.198,1.128.557,1.573l.943,1.166v2.83c-3.65.096-5.5,1.27-5.5,3.493,0,.694.31,1.4.583,2.023.205.468.417.951.417,1.271,0,.355-.308.779-.665,1.27-.595.818-1.335,1.837-1.335,3.373,0,2.559,3.075,4.562,7,4.562.535,0,1.063-.036,1.569-.106.273-.038.464-.291.426-.564-.038-.274-.293-.467-.564-.426-.46.064-.941.096-1.431.096-3.756,0-6-1.812-6-3.562,0-1.211.608-2.047,1.144-2.785.44-.605.856-1.177.856-1.858,0-.529-.244-1.085-.501-1.672-.245-.56-.499-1.138-.499-1.622,0-.597,0-2.371,4.5-2.493v5.493c0,.276.224.5.5.5Zm-1-12.562v-.938c0-.276.224-.5.5-.5h1c.276,0,.5.224.5.5v.923c0,.339-.117.672-.329.937l-.673.842-.664-.82c-.215-.267-.334-.602-.334-.944Zm13,17.062c0,.276-.224.5-.5.5h-3c-.276,0-.5-.224-.5-.5s.224-.5.5-.5h3c.276,0,.5.224.5.5Zm0-3c0,.276-.224.5-.5.5h-3c-.276,0-.5-.224-.5-.5s.224-.5.5-.5h3c.276,0,.5.224.5.5Z"/>
</svg>
