<?xml version="1.0" encoding="UTF-8"?>
<svg xmlns="http://www.w3.org/2000/svg" id="Layer_1" data-name="Layer 1" viewBox="0 0 24 24" width="512" height="512"><path d="M19.5,24H4.5c-2.481,0-4.5-2.019-4.5-4.5V4.5C0,2.019,2.019,0,4.5,0h15c2.481,0,4.5,2.019,4.5,4.5v15c0,2.481-2.019,4.5-4.5,4.5ZM4.5,1c-1.93,0-3.5,1.57-3.5,3.5v15c0,1.93,1.57,3.5,3.5,3.5h15c1.93,0,3.5-1.57,3.5-3.5V4.5c0-1.93-1.57-3.5-3.5-3.5H4.5Zm11.5,16.5c0-.276-.224-.5-.5-.5h-6.022c-.275,0-.393-.191-.431-.273-.031-.068-.118-.306,.076-.536,.556-.655,1.564-1.105,2.633-1.582,2.045-.911,4.362-1.944,4.24-4.835-.091-2.117-1.846-3.775-3.996-3.775-2.206,0-4,1.794-4,4,0,.276,.224,.5,.5,.5s.5-.224,.5-.5c0-1.654,1.346-3,3-3,1.612,0,2.929,1.238,2.996,2.817,.094,2.211-1.724,3.021-3.647,3.879-1.175,.524-2.285,1.019-2.988,1.848-.384,.453-.469,1.067-.221,1.603,.244,.526,.756,.853,1.338,.853h6.022c.276,0,.5-.224,.5-.5Z"/></svg>
