<?xml version="1.0" encoding="UTF-8"?>
<svg xmlns="http://www.w3.org/2000/svg" id="Layer_1" data-name="Layer 1" viewBox="0 0 24 24" width="512" height="512"><path d="M23,19.5s0,0,0,0v-5.5c0-2.21-1.79-4-4-4H11c-2.21,0-4,1.79-4,4v5.5s0,0,0,0c-.61,.46-1,1.18-1,2,0,1.38,1.12,2.5,2.5,2.5h13c1.38,0,2.5-1.12,2.5-2.5,0-.82-.39-1.54-1-2Zm-15-5.5c0-1.65,1.35-3,3-3h8c1.65,0,3,1.35,3,3v5.05c-.16-.03-.33-.05-.5-.05h-2.59c-.39,0-.78,.16-1.06,.44l-.41,.41c-.09,.09-.22,.15-.35,.15h-4.17c-.13,0-.26-.05-.35-.15l-.41-.41c-.28-.28-.67-.44-1.06-.44h-2.59c-.17,0-.34,.02-.5,.05v-5.05Zm13.5,9H8.5c-.83,0-1.5-.67-1.5-1.5s.67-1.5,1.5-1.5h2.59c.13,0,.26,.05,.35,.15l.41,.41c.28,.28,.67,.44,1.06,.44h4.17c.39,0,.78-.16,1.06-.44l.41-.41c.09-.09,.22-.15,.35-.15h2.59c.83,0,1.5,.67,1.5,1.5s-.67,1.5-1.5,1.5ZM5,16.5c0,.28-.22,.5-.5,.5h-1c-1.93,0-3.5-1.57-3.5-3.5V7.63c0-1.39,.63-2.69,1.73-3.54L5.73,.96c1.57-1.23,3.97-1.23,5.55,0l2.73,2.13V1.5c0-.28,.22-.5,.5-.5s.5,.22,.5,.5V3.87l.27,.21c1.05,.82,1.68,2.06,1.72,3.4,0,.28-.21,.51-.48,.52-.29,.02-.51-.21-.52-.48-.03-1.04-.52-2-1.34-2.64L10.66,1.74c-1.22-.96-3.09-.96-4.31,0L2.34,4.87c-.85,.67-1.34,1.67-1.34,2.76v5.87c0,1.38,1.12,2.5,2.5,2.5h1c.28,0,.5,.22,.5,.5Z"/></svg>
