<?xml version="1.0" encoding="UTF-8"?>
<svg xmlns="http://www.w3.org/2000/svg" id="Layer_1" data-name="Layer 1" viewBox="0 0 24 24" width="512" height="512"><path d="M21.887,8.982L14.729,1.228C14.038,.45,13.043,.004,11.999,.004h0C10.957,.004,9.963,.447,9.271,1.222L2.101,8.991c-1.471,1.743-1.47,4.273,.017,6.033l7.171,7.755c.692,.778,1.688,1.225,2.731,1.225h.006c1.046-.002,2.043-.451,2.728-1.225l7.153-7.776c1.462-1.739,1.46-4.265-.02-6.021ZM13.989,1.898l7.147,7.745c.501,.595,.784,1.308,.851,2.034l-9.487,2.786V1.052c.57,.109,1.094,.403,1.489,.846ZM2.85,9.652L10.009,1.896l.006-.006c.391-.438,.915-.73,1.485-.839V14.464L2.01,11.677c.063-.726,.343-1.435,.839-2.024Zm7.179,12.455L2.866,14.362c-.408-.483-.671-1.043-.792-1.625l9.426,2.769v7.446c-.563-.112-1.081-.405-1.472-.844Zm11.127-7.765l-7.145,7.767c-.396,.447-.93,.744-1.511,.85v-7.454l9.429-2.77c-.117,.578-.375,1.131-.774,1.607Z"/></svg>
