<?xml version="1.0" encoding="UTF-8"?>
<svg xmlns="http://www.w3.org/2000/svg" id="Layer_1" data-name="Layer 1" viewBox="0 0 24 24">
  <path d="m18.229,21.253c.158.227.103.538-.124.696-1.896,1.322-4.065,2.051-6.105,2.051-2.7,0-5.66-1.349-7.918-3.606-2.103-2.104-3.083-4.416-3.083-7.276,0-1.763.761-3.753,2.262-5.916.157-.227.469-.281.696-.126.227.158.283.47.125.696-1.382,1.992-2.083,3.79-2.083,5.346,0,2.613.86,4.64,2.79,6.569,2.074,2.075,4.77,3.313,7.211,3.313,1.838,0,3.803-.664,5.533-1.871.228-.157.539-.103.696.124Zm5.624,2.601c-.098.098-.226.146-.354.146s-.256-.049-.354-.146L.146.854C-.049.658-.049.342.146.146S.658-.049.854.146l4.476,4.476c1.334-1.475,2.712-2.718,3.653-3.516,1.747-1.484,4.286-1.484,6.035,0,2.981,2.529,7.982,7.453,7.982,12.009,0,2.538-.819,4.723-2.503,6.675l3.357,3.357c.195.195.195.512,0,.707ZM6.037,5.33l13.751,13.751c1.488-1.749,2.211-3.702,2.211-5.966,0-4.308-5.335-9.3-7.629-11.247-1.373-1.166-3.368-1.166-4.741,0-.926.786-2.284,2.011-3.592,3.462Z"/>
</svg>
