<?xml version="1.0" encoding="UTF-8"?>
<svg xmlns="http://www.w3.org/2000/svg" id="Layer_1" data-name="Layer 1" viewBox="0 0 24 24" width="512" height="512"><path d="m23.596,11.827c-.391-.525-.993-.827-1.652-.827h-.943v-3.5c0-2.481-2.019-4.5-4.5-4.5h-6.056c-.232,0-.464-.055-.671-.158l-3.155-1.578c-.345-.172-.731-.264-1.118-.264h-2C1.57,1,0,2.57,0,4.5v14c0,2.481,2.019,4.5,4.5,4.5h13.558c2.003,0,3.735-1.289,4.317-3.229l1.537-6.138c.188-.626.072-1.285-.316-1.807ZM1,18.5V4.5c0-1.378,1.121-2.5,2.5-2.5h2c.232,0,.464.055.671.158l3.155,1.578c.345.172.731.264,1.118.264h6.056c1.93,0,3.5,1.57,3.5,3.5v3.5h-11.885c-1.49,0-2.818.938-3.311,2.354l-2.433,7.924c-.834-.64-1.372-1.647-1.372-2.777Zm21.948-5.132l-1.537,6.138c-.448,1.492-1.796,2.494-3.354,2.494H4.5c-.435,0-.851-.08-1.234-.225l2.489-8.111c.347-.996,1.295-1.665,2.36-1.665h13.828c.34,0,.649.154.851.424.198.266.257.603.154.944Z"/></svg>
