<?xml version="1.0" encoding="UTF-8"?>
<svg xmlns="http://www.w3.org/2000/svg" id="Layer_1" data-name="Layer 1" viewBox="0 0 24 24" width="512" height="512"><path d="M9,8.5c0-.431,.204-1.079,.419-1.766,.272-.867,.581-1.85,.581-2.734C10,1.794,8.206,0,6,0S2,1.794,2,4c0,.885,.309,1.867,.581,2.734,.215,.687,.419,1.335,.419,1.766,0,1.352-.638,2.513-1.314,3.743-.791,1.438-1.686,3.067-1.686,5.257,0,1.798,.349,3.368,1.038,4.667,.6,1.13,1.78,1.833,3.081,1.833h3.764c1.3,0,2.48-.702,3.081-1.833,.688-1.299,1.038-2.869,1.038-4.667,0-2.19-.896-3.819-1.686-5.257-.676-1.229-1.314-2.391-1.314-3.743ZM6,1c1.654,0,3,1.346,3,3,0,.731-.272,1.597-.535,2.435-.174,.556-.342,1.09-.419,1.565H3.955c-.078-.475-.245-1.009-.419-1.565-.263-.838-.535-1.704-.535-2.435,0-1.654,1.346-3,3-3Zm4.079,20.699c-.426,.803-1.268,1.301-2.197,1.301h-3.764c-.929,0-1.771-.499-2.197-1.301-.611-1.153-.921-2.565-.921-4.199,0-1.933,.794-3.378,1.562-4.775,.661-1.203,1.289-2.346,1.415-3.725h4.046c.126,1.378,.753,2.521,1.415,3.725,.768,1.397,1.562,2.842,1.562,4.775,0,1.633-.31,3.046-.921,4.199Zm12.235-9.456c-.676-1.229-1.314-2.391-1.314-3.743,0-.431,.204-1.079,.419-1.766,.272-.867,.581-1.85,.581-2.734,0-2.206-1.794-4-4-4s-4,1.794-4,4c0,.885,.309,1.867,.581,2.734,.215,.687,.419,1.335,.419,1.766,0,1.352-.638,2.513-1.314,3.743-.791,1.438-1.686,3.067-1.686,5.257,0,1.798,.349,3.368,1.038,4.667,.6,1.13,1.78,1.833,3.081,1.833h3.764c1.3,0,2.48-.702,3.081-1.833,.688-1.299,1.038-2.869,1.038-4.667,0-2.19-.896-3.819-1.686-5.257ZM18,1c1.654,0,3,1.346,3,3,0,.731-.272,1.597-.535,2.435-.174,.556-.342,1.09-.419,1.565h-4.091c-.078-.475-.245-1.009-.419-1.565-.263-.838-.535-1.704-.535-2.435,0-1.654,1.346-3,3-3Zm4.079,20.699c-.426,.803-1.268,1.301-2.197,1.301h-3.764c-.929,0-1.771-.499-2.197-1.301-.611-1.153-.921-2.565-.921-4.199,0-1.933,.794-3.378,1.562-4.775,.661-1.203,1.289-2.346,1.415-3.725h4.046c.126,1.378,.753,2.521,1.415,3.725,.768,1.397,1.562,2.842,1.562,4.775,0,1.633-.31,3.046-.921,4.199Z"/></svg>
