<?xml version="1.0" encoding="UTF-8"?>
<svg xmlns="http://www.w3.org/2000/svg" id="Layer_1" data-name="Layer 1" viewBox="0 0 24 24" width="512" height="512"><path d="M22.623,9.26l-1.623-1.564V3.5c0-1.93-1.57-3.5-3.5-3.5H6.5c-1.93,0-3.5,1.57-3.5,3.5V7.696l-1.624,1.565c-.875,.844-1.376,2.024-1.376,3.24v7c0,2.481,2.019,4.5,4.5,4.5h15c2.481,0,4.5-2.019,4.5-4.5v-7c0-1.216-.502-2.396-1.377-3.24Zm-.693,.72c.092,.089,.179,.182,.26,.28l-1.189,1.189v-2.366l.93,.896ZM4,3.5c0-1.378,1.122-2.5,2.5-2.5h11c1.379,0,2.5,1.122,2.5,2.5V12.45l-5.525,5.525c-1.321,1.322-3.627,1.323-4.95,0l-5.525-5.525V3.5Zm-1.929,6.48l.929-.896v2.365l-1.189-1.189c.081-.098,.168-.192,.26-.281Zm20.929,9.52c0,1.93-1.57,3.5-3.5,3.5H4.5c-1.93,0-3.5-1.57-3.5-3.5v-7c0-.469,.096-.932,.277-1.36l7.541,7.542c.85,.85,1.98,1.318,3.182,1.318s2.332-.468,3.182-1.318l7.542-7.542c.18,.427,.277,.89,.277,1.36v7ZM7,5.5c0-.276,.224-.5,.5-.5h9c.276,0,.5,.224,.5,.5s-.224,.5-.5,.5H7.5c-.276,0-.5-.224-.5-.5Zm0,4c0-.276,.224-.5,.5-.5h7c.276,0,.5,.224,.5,.5s-.224,.5-.5,.5H7.5c-.276,0-.5-.224-.5-.5Z"/></svg>
