<?xml version="1.0" encoding="UTF-8"?>
<svg xmlns="http://www.w3.org/2000/svg" id="Layer_1" data-name="Layer 1" viewBox="0 0 24 24" width="512" height="512"><path d="m19,9.998c1.28,0,2.561-.488,3.536-1.462,1.95-1.95,1.95-5.122,0-7.071s-5.122-1.949-7.071,0-1.95,5.122,0,7.071c.975.975,2.255,1.462,3.536,1.462Zm2.829-2.169c-1.44,1.44-3.714,1.55-5.282.331l5.613-5.613c1.219,1.568,1.108,3.842-.331,5.282Zm-5.657-5.657c.78-.78,1.804-1.17,2.829-1.17.867,0,1.734.28,2.453.838l-5.613,5.613c-1.219-1.568-1.108-3.842.331-5.282Zm7.829,9.329v8c0,2.481-2.019,4.5-4.5,4.5H4.5c-2.481,0-4.5-2.019-4.5-4.5V7.5C0,5.019,2.019,3,4.5,3h7c.276,0,.5.224.5.5s-.224.5-.5.5h-7c-1.609,0-2.968,1.092-3.375,2.574l8.4,8.401c1.364,1.364,3.585,1.364,4.95,0l2.872-2.831c.198-.194.513-.191.707.005.194.197.192.513-.005.707l-2.87,2.829c-.876.875-2.027,1.313-3.179,1.313s-2.306-.438-3.183-1.316L1,7.863v11.637c0,1.93,1.57,3.5,3.5,3.5h15c1.93,0,3.5-1.57,3.5-3.5v-8c0-.276.224-.5.5-.5s.5.224.5.5Z"/></svg>
