<?xml version="1.0" encoding="UTF-8"?>
<svg xmlns="http://www.w3.org/2000/svg" id="Layer_1" data-name="Layer 1" viewBox="0 0 24 24" width="512" height="512"><path d="M16,13c0,.552-.448,1-1,1s-1-.448-1-1,.448-1,1-1,1,.448,1,1Zm-5-1c-.552,0-1,.448-1,1s.448,1,1,1,1-.448,1-1-.448-1-1-1Zm2-3c-.552,0-1,.448-1,1s.448,1,1,1,1-.448,1-1-.448-1-1-1Zm2-1c.552,0,1-.448,1-1s-.448-1-1-1-1,.448-1,1,.448,1,1,1Zm2,1c-.552,0-1,.448-1,1s.448,1,1,1,1-.448,1-1-.448-1-1-1Zm-1.003,8.078c-.044,1.314-.576,2.542-1.51,3.475l-1.986,1.987v.96c0,.276-.224,.5-.5,.5s-.5-.224-.5-.5v-.959l-1.987-1.987c-.934-.934-1.466-2.163-1.51-3.475-3.05-1.514-5.003-4.643-5.003-8.06C3,4.056,7.038,.019,12,.019s9,4.038,9,9c0,3.417-1.954,6.545-5.003,8.06Zm-.998-.078h-5.998c.025,1.076,.456,2.083,1.219,2.847l1.78,1.78,1.779-1.78c.764-.763,1.194-1.771,1.219-2.847Zm5.001-7.981c0-4.411-3.589-8-8-8S4,4.607,4,9.019c0,2.905,1.59,5.577,4.102,6.981h7.796c2.512-1.405,4.102-4.076,4.102-6.981Z"/></svg>
