<?xml version="1.0" encoding="UTF-8"?>
<svg xmlns="http://www.w3.org/2000/svg" id="Layer_1" data-name="Layer 1" viewBox="0 0 24 24">
  <path d="m23.453,1.427l-.88-.88c-.644-.646-1.654-.732-2.423-.185l-1.077.863c-.615.493-1.018,1.226-1.105,2.009l-.261,2.352-2.413,2.413h-7.293C3.589,8,0,11.589,0,16c0,2.137.832,4.146,2.343,5.657,1.512,1.511,3.521,2.343,5.657,2.343,4.411,0,8-3.589,8-8v-7.293l2.412-2.413,2.352-.262c.795-.088,1.509-.479,2.009-1.104l.882-1.101c.528-.744.443-1.754-.203-2.4Zm-8.453,14.573c0,3.859-3.14,7-7,7-1.869,0-3.627-.729-4.95-2.05-1.322-1.322-2.05-3.08-2.05-4.95,0-3.859,3.14-7,7-7h6.293l-4.556,4.556c-.491-.35-1.09-.556-1.737-.556-1.654,0-3,1.346-3,3s1.346,3,3,3,3-1.346,3-3c0-.647-.206-1.246-.556-1.737l4.556-4.556v6.293Zm-5,0c0,1.103-.897,2-2,2s-2-.897-2-2,.897-2,2-2c1.846,0,2,2,2,2ZM22.858,3.226l-.864,1.077c-.333.416-.809.678-1.339.735h0l-1.905.212.212-1.904c.058-.522.327-1.011.737-1.34l1.054-.846c.151-.108.327-.161.501-.161.223,0,.444.087.613.255l.88.88c.3.3.339.77.112,1.092Z"/>
</svg>
