<?xml version="1.0" encoding="UTF-8"?>
<svg xmlns="http://www.w3.org/2000/svg" id="Layer_1" data-name="Layer 1" viewBox="0 0 24 24" width="512" height="512"><path d="M19.5,24H4.5c-2.481,0-4.5-2.019-4.5-4.5V4.5C0,2.019,2.019,0,4.5,0h15c2.481,0,4.5,2.019,4.5,4.5v15c0,2.481-2.019,4.5-4.5,4.5ZM4.5,1c-1.93,0-3.5,1.57-3.5,3.5v15c0,1.93,1.57,3.5,3.5,3.5h15c1.93,0,3.5-1.57,3.5-3.5V4.5c0-1.93-1.57-3.5-3.5-3.5H4.5Zm7.5,17c-2.206,0-4-1.794-4-4v-4c0-2.206,1.794-4,4-4s4,1.794,4,4v4c0,2.206-1.794,4-4,4Zm0-11c-1.654,0-3,1.346-3,3v4c0,1.654,1.346,3,3,3s3-1.346,3-3v-4c0-1.654-1.346-3-3-3Z"/></svg>
