<?xml version="1.0" encoding="UTF-8"?>
<svg xmlns="http://www.w3.org/2000/svg" id="Layer_1" data-name="Layer 1" viewBox="0 0 24 24" width="512" height="512"><path d="M15.5,6h-7c-2.481,0-4.5,2.019-4.5,4.5v7c0,1.911,1.541,3.47,3.446,3.499l-1.372,2.24c-.145,.235-.07,.543,.165,.688,.082,.05,.172,.073,.261,.073,.168,0,.333-.085,.427-.239l1.691-2.761h6.766l1.691,2.761c.094,.154,.258,.239,.427,.239,.089,0,.179-.023,.261-.073,.235-.145,.31-.452,.165-.688l-1.372-2.24c1.905-.029,3.446-1.588,3.446-3.499v-7c0-2.481-2.019-4.5-4.5-4.5Zm-7,1h3v7H5v-3.5c0-1.93,1.57-3.5,3.5-3.5Zm8,13H7.5c-1.378,0-2.5-1.121-2.5-2.5v-2.5h3v1.5c0,.276,.224,.5,.5,.5s.5-.224,.5-.5v-1.5h6v1.5c0,.276,.224,.5,.5,.5s.5-.224,.5-.5v-1.5h3v2.5c0,1.379-1.122,2.5-2.5,2.5Zm2.5-6h-6.5V7h3c1.93,0,3.5,1.57,3.5,3.5v3.5Zm5-2v11.5c0,.276-.224,.5-.5,.5s-.5-.224-.5-.5V12c0-6.065-4.935-11-11-11S1,5.935,1,12v11.5c0,.276-.224,.5-.5,.5s-.5-.224-.5-.5V12C0,5.383,5.383,0,12,0s12,5.383,12,12Z"/></svg>
