<?xml version="1.0" encoding="UTF-8"?>
<svg xmlns="http://www.w3.org/2000/svg" id="Layer_1" data-name="Layer 1" viewBox="0 0 24 24" width="512" height="512"><path d="M15,7.5C15,3.364,11.636,0,7.5,0h-3C2.019,0,0,2.019,0,4.5V23.5c0,.276,.224,.5,.5,.5s.5-.224,.5-.5V15H7.5c.232,0,.461-.011,.688-.032l4.875,8.775c.092,.164,.263,.257,.438,.257,.083,0,.166-.021,.243-.062,.241-.135,.328-.438,.194-.681l-4.701-8.46c3.301-.786,5.763-3.759,5.763-7.297Zm-7.5,6.5H1V4.5c0-1.93,1.57-3.5,3.5-3.5h3c3.584,0,6.5,2.916,6.5,6.5s-2.916,6.5-6.5,6.5Zm16.5,7.374c0,1.448-1.178,2.626-2.626,2.626h-2.8c-.979,0-1.893-.526-2.382-1.375-.139-.239-.057-.545,.183-.683,.237-.14,.544-.057,.683,.183,.312,.54,.894,.875,1.517,.875h2.8c.896,0,1.626-.729,1.626-1.626,0-.803-.575-1.479-1.368-1.604l-3.422-.552c-1.28-.204-2.21-1.295-2.21-2.592,0-1.448,1.178-2.626,2.626-2.626h2.8c.979,0,1.893,.526,2.382,1.375,.139,.239,.057,.545-.183,.683-.24,.138-.544,.057-.683-.183-.312-.54-.894-.875-1.517-.875h-2.8c-.896,0-1.626,.729-1.626,1.626,0,.803,.575,1.479,1.368,1.604l3.422,.552c1.28,.204,2.21,1.295,2.21,2.592Z"/></svg>
