<?xml version="1.0" encoding="UTF-8"?>
<svg xmlns="http://www.w3.org/2000/svg" id="Layer_1" data-name="Layer 1" viewBox="0 0 24 24" width="512" height="512"><path d="M20.044,.869c-1.398-.577-2.759-.869-4.044-.869H8c-1.285,0-2.646,.292-4.044,.869C1.553,1.859,0,4.209,0,6.853v12.647c0,.827,.673,1.5,1.5,1.5h2.536c.243,1.694,1.704,3,3.464,3h9c1.76,0,3.221-1.306,3.464-3h2.536c.827,0,1.5-.673,1.5-1.5V6.853c0-2.644-1.553-4.993-3.956-5.983ZM12.028,6.541L8.862,1h6.283l-3.117,5.541ZM1,19.5V6.853c0-2.237,1.31-4.224,3.337-5.06,1.172-.482,2.306-.747,3.376-.787l3.744,6.552-4.186,7.442h-2.27V6c0-.276-.224-.5-.5-.5s-.5,.224-.5,.5v14H1.5c-.275,0-.5-.225-.5-.5Zm15.5,3.5H7.5c-1.379,0-2.5-1.121-2.5-2.5v-4.5h5.903c-.784,.993-1.903,2.723-1.903,4.5,0,.276,.224,.5,.5,.5s.5-.224,.5-.5c0-1.716,1.344-3.492,2-4.257,.657,.764,2,2.536,2,4.257,0,.276,.224,.5,.5,.5s.5-.224,.5-.5c0-1.777-1.119-3.507-1.903-4.5h5.903v4.5c0,1.379-1.121,2.5-2.5,2.5Zm6.5-3.5c0,.275-.225,.5-.5,.5h-2.5V6.5c0-.276-.224-.5-.5-.5s-.5,.224-.5,.5V15H8.417L16.289,1.006c1.07,.04,2.203,.305,3.374,.787,2.027,.836,3.337,2.822,3.337,5.06v12.647Z"/></svg>
