<?xml version="1.0" encoding="UTF-8"?>
<svg xmlns="http://www.w3.org/2000/svg" id="Layer_1" data-name="Layer 1" viewBox="0 0 24 24">
  <path d="m19.5,22.5c0,.276-.224.5-.5.5-2.757,0-5-2.243-5-5,0-.276.224-.5.5-.5s.5.224.5.5c0,2.206,1.794,4,4,4,.276,0,.5.224.5.5Zm4.5-4.5c0,1.409-.584,2.732-1.614,3.679l1.468,1.468c.195.195.195.512,0,.707-.098.098-.226.146-.354.146s-.256-.049-.354-.146l-13.997-13.997s-.003-.003-.005-.005L.146.854C-.049.658-.049.342.146.146S.658-.049.854.146l8.146,8.146v-2.793c0-2.481,2.019-4.5,4.5-4.5h6c2.481,0,4.5,2.019,4.5,4.5v12.5Zm-1,0c0-2.206-1.794-4-4-4-1.141,0-2.212.479-2.971,1.322l5.649,5.649c.843-.759,1.322-1.83,1.322-2.971Zm0-2.997V5.5c0-1.93-1.57-3.5-3.5-3.5h-6c-1.93,0-3.5,1.57-3.5,3.5v3.793l5.321,5.321c.947-1.03,2.27-1.614,3.679-1.614,1.634,0,3.087.788,4,2.003Zm-13-1.503v4.5c0,2.757-2.243,5-5,5S0,20.757,0,18s2.243-5,5-5c1.634,0,3.087.788,4,2.003v-1.503c0-.276.224-.5.5-.5s.5.224.5.5Zm-1,4.5c0-2.206-1.794-4-4-4s-4,1.794-4,4,1.794,4,4,4,4-1.794,4-4Z"/>
</svg>
