<?xml version="1.0" encoding="UTF-8"?>
<svg xmlns="http://www.w3.org/2000/svg" id="Layer_1" data-name="Layer 1" viewBox="0 0 24 24" width="512" height="512"><path d="m14.5,4h-3c-1.378,0-2.5,1.121-2.5,2.5v5.001c-.418-.315-.938-.501-1.5-.501-1.378,0-2.5,1.121-2.5,2.5s1.122,2.5,2.5,2.5,2.5-1.121,2.5-2.5v-7c0-.827.673-1.5,1.5-1.5h3c.827,0,1.5.673,1.5,1.5v5.001c-.418-.315-.938-.501-1.5-.501-1.378,0-2.5,1.121-2.5,2.5s1.122,2.5,2.5,2.5,2.5-1.121,2.5-2.5v-7c0-1.379-1.122-2.5-2.5-2.5Zm-7,11c-.827,0-1.5-.673-1.5-1.5s.673-1.5,1.5-1.5,1.5.673,1.5,1.5-.673,1.5-1.5,1.5Zm7,0c-.827,0-1.5-.673-1.5-1.5s.673-1.5,1.5-1.5,1.5.673,1.5,1.5-.673,1.5-1.5,1.5ZM20.5,0H3.5C1.57,0,0,1.57,0,3.5v13c0,1.93,1.57,3.5,3.5,3.5h3.606l3.897,3.283c.286.254.645.38,1.001.38.353,0,.703-.123.979-.368l3.985-3.295h3.532c1.93,0,3.5-1.57,3.5-3.5V3.5c0-1.93-1.57-3.5-3.5-3.5Zm2.5,16.5c0,1.379-1.122,2.5-2.5,2.5h-3.711c-.116,0-.229.041-.318.114l-4.138,3.421c-.19.171-.476.169-.675-.009l-4.047-3.409c-.09-.075-.205-.117-.322-.117h-3.789c-1.378,0-2.5-1.121-2.5-2.5V3.5c0-1.379,1.122-2.5,2.5-2.5h17c1.378,0,2.5,1.121,2.5,2.5v13Z"/></svg>
