<?xml version="1.0" encoding="UTF-8"?>
<svg xmlns="http://www.w3.org/2000/svg" id="Layer_1" data-name="Layer 1" viewBox="0 0 24 24" width="512" height="512"><path d="M19.5,19h-.678c-.533-1.199-2.53-5.929-2.793-10h1.471c.276,0,.5-.224,.5-.5s-.224-.5-.5-.5h-1.313l1.575-2.436c.366-.778,.31-1.678-.151-2.404s-1.25-1.16-2.11-1.16h-3V.5c0-.276-.224-.5-.5-.5s-.5,.224-.5,.5v1.5h-2.998c-.86,0-1.649,.434-2.11,1.16-.461,.727-.518,1.626-.119,2.464l1.542,2.376h-1.315c-.276,0-.5,.224-.5,.5s.224,.5,.5,.5h1.471c-.263,4.071-2.26,8.801-2.793,10h-.678c-1.378,0-2.5,1.121-2.5,2.5s1.122,2.5,2.5,2.5h15c1.379,0,2.5-1.121,2.5-2.5s-1.121-2.5-2.5-2.5ZM7.146,5.139c-.22-.467-.186-1.006,.091-1.442,.276-.436,.75-.696,1.266-.696h6.998c.517,0,.989,.261,1.267,.696,.276,.437,.311,.976,.123,1.383,0,0-1.856,2.875-1.869,2.921h-6.039c-.013-.046-1.836-2.861-1.836-2.861Zm1.828,3.861h6.053c.235,3.923,1.972,8.307,2.703,10H6.271c.731-1.693,2.468-6.077,2.702-10Zm10.526,14H4.5c-.827,0-1.5-.673-1.5-1.5s.673-1.5,1.5-1.5h15c.827,0,1.5,.673,1.5,1.5s-.673,1.5-1.5,1.5Z"/></svg>
