<?xml version="1.0" encoding="UTF-8"?>
<svg xmlns="http://www.w3.org/2000/svg" id="Layer_1" data-name="Layer 1" viewBox="0 0 24 24" width="512" height="512"><path d="m20.5,0c-.276,0-.5.224-.5.5v9.048c-.129-.13-.269-.251-.42-.362L8.567.687C7.482-.11,6.119-.222,4.916.387c-1.199.608-1.916,1.775-1.916,3.121v16.985c0,1.346.717,2.513,1.917,3.122.507.256,1.043.386,1.592.386.735,0,1.447-.237,2.068-.693l10.993-8.485c.155-.113.298-.238.43-.371v9.049c0,.276.224.5.5.5s.5-.224.5-.5V.5c0-.276-.224-.5-.5-.5Zm-1.531,14.022l-10.993,8.486c-.768.562-1.753.645-2.606.214-.857-.435-1.369-1.268-1.369-2.229V3.507c0-.961.512-1.794,1.368-2.229.368-.186.757-.278,1.142-.278.514,0,1.02.164,1.456.484l11.013,8.5c.649.475,1.021,1.209,1.021,2.015s-.372,1.54-1.031,2.022Z"/></svg>
