<?xml version="1.0" encoding="UTF-8"?>
<svg xmlns="http://www.w3.org/2000/svg" id="Layer_1" data-name="Layer 1" viewBox="0 0 24 24" width="512" height="512"><path d="m16.5,3h-5.5v-1.5c0-.276-.224-.5-.5-.5s-.5.224-.5.5v1.5h-2.5c-.169,0-.336.01-.5.028V.5c0-.276-.224-.5-.5-.5s-.5.224-.5.5v2.757c-1.746.619-3,2.287-3,4.243v4.037c0,.702.132,1.389.393,2.042l.607,1.517v4.404c0,2.481,2.019,4.5,4.5,4.5h7c2.481,0,4.5-2.019,4.5-4.5v-4.404l.607-1.517c.261-.653.393-1.341.393-2.042v-4.037c0-2.481-2.019-4.5-4.5-4.5Zm3.5,8.537c0,.574-.108,1.137-.322,1.671l-.643,1.606c-.023.059-.036.122-.036.186v4.5c0,1.93-1.57,3.5-3.5,3.5h-7c-1.93,0-3.5-1.57-3.5-3.5v-4.5c0-.063-.012-.126-.036-.186l-.643-1.606c-.213-.535-.322-1.097-.322-1.671v-4.037c0-1.93,1.57-3.5,3.5-3.5h9c1.93,0,3.5,1.57,3.5,3.5v4.037Zm-3.5-5.537H7.5c-.827,0-1.5.673-1.5,1.5v3c0,.827.673,1.5,1.5,1.5h9c.827,0,1.5-.673,1.5-1.5v-3c0-.827-.673-1.5-1.5-1.5Zm.5,4.5c0,.276-.224.5-.5.5H7.5c-.276,0-.5-.224-.5-.5v-3c0-.276.224-.5.5-.5h9c.276,0,.5.224.5.5v3Z"/></svg>
