<?xml version="1.0" encoding="UTF-8"?>
<svg xmlns="http://www.w3.org/2000/svg" id="Layer_1" data-name="Layer 1" viewBox="0 0 24 24" width="512" height="512"><path d="M19.497,24H4.498c-.865,0-1.656-.438-2.117-1.17-.46-.733-.511-1.636-.135-2.415l3.102-6.435c.579-1.203,1.817-1.98,3.152-1.98h6.995c1.335,0,2.572,.777,3.153,1.98l3.101,6.435c.376,.779,.326,1.682-.134,2.415-.461,.733-1.252,1.171-2.118,1.171ZM8.5,13c-.954,0-1.838,.555-2.252,1.415l-3.102,6.435c-.226,.468-.194,1.009,.081,1.449,.276,.439,.751,.702,1.271,.702h14.999c.52,0,.995-.263,1.271-.703,.276-.439,.307-.981,.081-1.448l-3.101-6.435c-.415-.859-1.299-1.415-2.253-1.415h-6.995Zm13.5,1.5V4.5c0-2.481-2.019-4.5-4.5-4.5H6.5C4.019,0,2,2.019,2,4.5V14.5c0,.276,.224,.5,.5,.5s.5-.224,.5-.5V4.5c0-1.93,1.57-3.5,3.5-3.5h11c1.93,0,3.5,1.57,3.5,3.5V14.5c0,.276,.224,.5,.5,.5s.5-.224,.5-.5Z"/></svg>
