<?xml version="1.0" encoding="UTF-8"?>
<svg xmlns="http://www.w3.org/2000/svg" id="Layer_1" data-name="Layer 1" viewBox="0 0 24 24" width="512" height="512"><path d="m9,8c-1.103,0-2,.897-2,2s.897,2,2,2,2-.897,2-2-.897-2-2-2Zm0,3c-.551,0-1-.449-1-1s.449-1,1-1,1,.449,1,1-.449,1-1,1Zm6-3c-1.103,0-2,.897-2,2s.897,2,2,2,2-.897,2-2-.897-2-2-2Zm0,3c-.551,0-1-.449-1-1s.449-1,1-1,1,.449,1,1-.449,1-1,1ZM12,0C6.486,0,2,4.486,2,10v13.5c0,.234.167.5.5.5.19,0,.369-.109.452-.287.482-1.024,1.573-1.713,2.714-1.713,1.104,0,2.149.666,2.727,1.737.087.162.256.263.44.263h0c.184,0,.353-.102.44-.264.575-1.071,1.619-1.736,2.726-1.736,1.095,0,2.213.708,2.719,1.723.086.174.259.281.462.277.195-.006.369-.125.445-.304.413-.967,1.577-1.696,2.707-1.696,1.256,0,2.273.87,2.723,1.731.107.204.338.308.562.254.224-.055.381-.255.381-.485v-13.5C22,4.486,17.514,0,12,0Zm9,22.069c-.687-.617-1.611-1.069-2.667-1.069-1.227,0-2.451.623-3.182,1.557-.766-.955-1.949-1.557-3.152-1.557-1.222,0-2.38.595-3.167,1.592-.789-.997-1.947-1.592-3.166-1.592-.984,0-1.939.385-2.667,1.027v-12.027C3,5.038,7.038,1,12,1s9,4.038,9,9v12.069Z"/></svg>
