<?xml version="1.0" encoding="UTF-8"?>
<svg xmlns="http://www.w3.org/2000/svg" id="Layer_1" data-name="Layer 1" viewBox="0 0 24 24" width="512" height="512"><path d="M19.5,2H4.5C2.019,2,0,4.019,0,6.5v11c0,2.481,2.019,4.5,4.5,4.5h15c2.481,0,4.5-2.019,4.5-4.5V6.5c0-2.481-2.019-4.5-4.5-4.5Zm3.5,15.5c0,1.93-1.57,3.5-3.5,3.5H4.5c-1.93,0-3.5-1.57-3.5-3.5V6.5c0-1.93,1.57-3.5,3.5-3.5h15c1.93,0,3.5,1.57,3.5,3.5v11Zm-3.5-11.5c-.276,0-.5,.224-.5,.5v5.553c-.636-.65-1.522-1.053-2.5-1.053-1.93,0-3.5,1.57-3.5,3.5s1.57,3.5,3.5,3.5c.978,0,1.864-.404,2.5-1.053v.553c0,.276,.224,.5,.5,.5s.5-.224,.5-.5V6.5c0-.276-.224-.5-.5-.5Zm-3,11c-1.378,0-2.5-1.122-2.5-2.5s1.122-2.5,2.5-2.5,2.5,1.122,2.5,2.5-1.122,2.5-2.5,2.5ZM8.477,6.349c-.132-.415-.821-.415-.953,0l-3.5,11c-.083,.263,.062,.544,.325,.628,.263,.085,.543-.062,.628-.325l.525-1.651h4.996l.525,1.651c.068,.213,.265,.349,.477,.349,.05,0,.101-.007,.151-.023,.263-.084,.409-.365,.325-.628l-3.5-11Zm-2.656,8.651l2.18-6.851,2.18,6.851H5.82Z"/></svg>
