<?xml version="1.0" encoding="UTF-8"?>
<svg xmlns="http://www.w3.org/2000/svg" id="Layer_1" data-name="Layer 1" width="512" height="512" viewBox="0 0 24 24"><path d="M23.5,20h-2.5V5.5c0-3.032-2.468-5.5-5.5-5.5H5.5C2.468,0,0,2.468,0,5.5v11c0,2.324,1.77,4.241,4.032,4.476,.233,1.706,1.699,3.024,3.468,3.024s3.221-1.306,3.464-3h12.536c.276,0,.5-.224,.5-.5s-.224-.5-.5-.5ZM1,7H6c.552,0,1,.448,1,1v1c0,.552-.448,1-1,1H1v-3Zm0,9.5v-5.5H6c1.103,0,2-.897,2-2v-1c0-1.103-.897-2-2-2H1v-.5C1,3.019,3.019,1,5.5,1H15.5c2.481,0,4.5,2.019,4.5,4.5v14.5h-3V8c0-1.103-.897-2-2-2h-2c-1.103,0-2,.897-2,2v12h-.036c-.243-1.694-1.704-3-3.464-3-1.749,0-3.204,1.291-3.46,2.97-1.713-.226-3.04-1.696-3.04-3.47Zm15,3.5h-4V8c0-.552,.448-1,1-1h2c.552,0,1,.448,1,1v12Zm-8.5,3c-1.379,0-2.5-1.121-2.5-2.5s1.121-2.5,2.5-2.5,2.5,1.121,2.5,2.5-1.121,2.5-2.5,2.5Z"/></svg>
