<?xml version="1.0" encoding="UTF-8"?>
<!-- Generator: Adobe Illustrator 27.0.1, SVG Export Plug-In . SVG Version: 6.00 Build 0)  -->
<svg xmlns="http://www.w3.org/2000/svg" xmlns:xlink="http://www.w3.org/1999/xlink" version="1.1" id="Layer_1" x="0px" y="0px" viewBox="0 0 512 512" style="enable-background:new 0 0 512 512;" xml:space="preserve" width="512" height="512">
<path d="M192.3,18.8c-1.3-5.8,2.3-11.4,8.1-12.7c36.3-8,74.9-8,111.3,0c5.8,1.3,9.4,7,8.1,12.7c-1.1,5-5.5,8.4-10.4,8.4  c-0.8,0-1.5-0.1-2.3-0.3c-33.3-7.4-68.7-7.4-102.1,0C199.2,28.1,193.5,24.5,192.3,18.8z M480.9,133.5c-2.8-5.2-9.3-7.1-14.5-4.3  c-5.2,2.8-7.1,9.3-4.3,14.5c18.7,34.2,28.5,73,28.5,112.2c0,129.4-105.3,234.7-234.7,234.7S21.3,385.4,21.3,256  c0-39.2,9.9-78,28.5-112.2c2.8-5.2,0.9-11.6-4.3-14.5c-5.2-2.8-11.6-0.9-14.5,4.3C10.8,170.9,0,213.2,0,256  c0,141.2,114.8,256,256,256s256-114.8,256-256C512,213.2,501.2,170.9,480.9,133.5L480.9,133.5z M192,352v-10.7h-32  c-5.9,0-10.7-4.8-10.7-10.7S154.1,320,160,320h192c5.9,0,10.7,4.8,10.7,10.7s-4.8,10.7-10.7,10.7h-32V352c0,35.9-24.5,74.7-64,74.7  S192,387.9,192,352z M298.7,341.3h-85.3V352c0,25.6,16.3,53.3,42.7,53.3s42.7-27.7,42.7-53.3V341.3z M277.3,111.9  c0,20.6,13.1,38.9,32.7,45.4l77.1,25.7c10.8,3.6,18.1,13.7,18.1,25.2c0,14.6-11.9,26.5-26.5,26.5h-49.2c-13.3,0-25.7-7.1-32.3-18.7  c-3-5.1-9.5-6.9-14.6-3.9c-5.1,2.9-6.8,9.5-3.9,14.6c10.5,18.1,29.9,29.3,50.8,29.3h11.8v10.7c0,5.9,4.8,10.7,10.7,10.7  c5.9,0,10.7-4.8,10.7-10.7V256h16.1c26.4,0,47.9-21.5,47.9-47.9c0-20.6-13.1-38.9-32.7-45.4L316.8,137  c-10.8-3.6-18.1-13.7-18.1-25.2c0-14.6,11.9-26.5,26.5-26.5h49.2c13.3,0,25.7,7.1,32.3,18.7c2.9,5.1,9.4,6.8,14.6,3.9  c5.1-2.9,6.8-9.5,3.9-14.6C414.7,75.2,395.3,64,374.4,64h-11.8V53.3c0-5.9-4.8-10.7-10.7-10.7s-10.7,4.8-10.7,10.7V64h-16.1  C298.8,64,277.3,85.4,277.3,111.9L277.3,111.9z M118.1,157.2l77.1,25.7c10.8,3.6,18.1,13.7,18.1,25.2c0,14.6-11.9,26.5-26.5,26.5  h-49.2c-13.3,0-25.7-7.1-32.3-18.7c-3-5.1-9.5-6.9-14.6-3.9c-5.1,2.9-6.8,9.5-3.9,14.6c10.5,18.1,29.9,29.3,50.8,29.3h11.8v10.7  c0,5.9,4.8,10.7,10.7,10.7s10.7-4.8,10.7-10.7V256h16.1c26.4,0,47.9-21.5,47.9-47.9c0-20.6-13.1-38.9-32.7-45.4L124.8,137  c-10.8-3.6-18.1-13.7-18.1-25.2c0-14.6,11.9-26.5,26.5-26.5h49.2c13.3,0,25.7,7.1,32.3,18.7c2.9,5.1,9.4,6.8,14.6,3.9  c5.1-2.9,6.8-9.5,3.9-14.6C222.7,75.2,203.3,64,182.4,64h-11.8V53.3c0-5.9-4.8-10.7-10.7-10.7s-10.7,4.8-10.7,10.7V64h-16.1  c-26.4,0-47.9,21.5-47.9,47.9C85.3,132.5,98.5,150.7,118.1,157.2L118.1,157.2z"/>
</svg>
