<?xml version="1.0" encoding="UTF-8"?>
<svg xmlns="http://www.w3.org/2000/svg" id="Layer_1" data-name="Layer 1" viewBox="0 0 24 24" width="512" height="512"><path d="m20.625,8.142c-.27-.069-.54.092-.609.359-.068.268.092.54.359.609,1.546.397,2.625,1.792,2.625,3.39v2.5h-14v-2.5c0-1.93,1.57-3.5,3.5-3.5h1c.276,0,.5-.224.5-.5s-.224-.5-.5-.5h-1c-1.971,0-3.632,1.282-4.239,3.05-.551-.637-1.354-1.05-2.261-1.05-1.654,0-3,1.346-3,3,0,.771.301,1.468.78,2H1V5c0-.276-.224-.5-.5-.5s-.5.224-.5.5v18.5c0,.276.224.5.5.5s.5-.224.5-.5v-3.5h22v3.5c0,.276.224.5.5.5s.5-.224.5-.5v-11c0-2.055-1.388-3.847-3.375-4.358ZM4,13c0-1.103.897-2,2-2s2,.897,2,2-.897,2-2,2-2-.897-2-2Zm-3,6v-3h22v3H1ZM7,4.5c0-.276.224-.5.5-.5h3.876c.189,0,.366-.11.449-.28l1.487-3.043c.193-.436.626-.709,1.138-.674.494.032.903.361,1.042.836l1.576,7.127c.019.057.09.08.131.086.036.004.114.002.165-.078l1.876-3.228c.268-.46.765-.746,1.297-.746h2.963c.276,0,.5.224.5.5s-.224.5-.5.5h-2.963c-.178,0-.343.095-.432.248l-1.885,3.242c-.226.36-.594.563-.994.563-.054,0-.108-.004-.164-.012-.461-.063-.83-.38-.962-.827l-1.576-7.128c-.019-.06-.088-.083-.141-.087-.054.003-.125.011-.165.1l-1.495,3.06c-.25.511-.779.841-1.348.841h-3.876c-.276,0-.5-.224-.5-.5Z"/></svg>
