<?xml version="1.0" encoding="UTF-8"?>
<svg xmlns="http://www.w3.org/2000/svg" id="Layer_1" data-name="Layer 1" viewBox="0 0 24 24">
  <path d="m6,23c0,.552-.448,1-1,1s-1-.448-1-1,.448-1,1-1,1,.448,1,1ZM18.153,5.188c-.441-.099-.806-.378-1-.767C15.538,1.198,12.049-.522,8.478.142,5.343.724,2.809,3.222,2.172,6.359c-.19.933-.218,1.873-.083,2.796.083.568-.058,1.073-.387,1.387C.324,11.86-.266,13.774.125,15.665c.356,1.719,1.545,3.171,3.18,3.884.255.112.548-.005.658-.259.11-.253-.006-.548-.259-.658-1.318-.574-2.314-1.789-2.6-3.17-.321-1.55.161-3.119,1.288-4.196.566-.541.815-1.362.685-2.254-.118-.808-.093-1.633.074-2.452.557-2.742,2.77-4.926,5.508-5.434,3.127-.581,6.185.924,7.598,3.743.33.658.94,1.13,1.676,1.295,3.052.684,5.182,3.453,5.066,6.584-.112,3.01-2.459,5.594-5.583,6.145-.272.048-.454.307-.405.579.042.243.253.413.492.413,3.62-.536,6.366-3.622,6.495-7.1.134-3.612-2.325-6.807-5.847-7.597Zm-.153,16.812c-.552,0-1,.448-1,1s.448,1,1,1,1-.448,1-1-.448-1-1-1Zm-1.923-2.5c0,.664-.431,1.239-1.072,1.431.311.589.212,1.293-.247,1.751-.499.499-1.105.583-1.75.246-.192.641-.767,1.072-1.432,1.072s-1.239-.431-1.431-1.072c-.645.34-1.25.255-1.751-.247-.458-.457-.557-1.161-.245-1.75-.642-.191-1.073-.767-1.073-1.431s.431-1.239,1.073-1.431c-.311-.59-.212-1.293.246-1.751.457-.459,1.161-.558,1.751-.245.191-.642.766-1.073,1.43-1.073s1.239.431,1.431,1.072c.588-.312,1.292-.212,1.751.247.458.458.557,1.161.245,1.75.642.191,1.073.767,1.073,1.431Zm-1,0c0-.222-.141-.407-.358-.473-.288-.086-.521-.294-.637-.572-.116-.276-.102-.587.038-.853.106-.2.079-.431-.067-.577-.149-.149-.375-.177-.577-.07-.267.141-.578.154-.855.038-.276-.116-.484-.348-.57-.635-.13-.434-.816-.433-.946,0-.086.289-.295.521-.572.636-.277.116-.586.103-.853-.038-.199-.106-.431-.079-.577.068-.146.146-.174.378-.069.578.14.266.154.577.038.854-.116.277-.348.485-.635.571-.215.064-.36.254-.36.473s.144.408.359.473c.288.086.52.294.636.572.116.276.102.587-.038.853-.105.2-.078.432.067.577.167.167.296.218.579.069,0,0,0,0,0,0,.146-.077.305-.115.465-.115.131,0,.263.026.387.078.277.116.485.348.571.635.13.433.817.432.946,0,.085-.287.293-.519.569-.635.277-.116.587-.103.853.036.286.15.414.098.579-.067.146-.146.174-.378.069-.577-.141-.265-.154-.576-.039-.853.116-.277.348-.485.635-.572.219-.065.36-.25.36-.473Z"/>
</svg>
