<?xml version="1.0" encoding="UTF-8"?>
<svg xmlns="http://www.w3.org/2000/svg" id="Layer_1" data-name="Layer 1" viewBox="0 0 24 24">
  <path d="m23.5,8h-2.5v-2.5c0-.276-.224-.5-.5-.5s-.5.224-.5.5v2.764l-2.095,1.73c-.182-1.074-.658-2.07-1.378-2.903.296-.638.473-1.342.473-2.091,0-2.757-2.243-5-5-5s-5,2.243-5,5c0,.749.177,1.453.473,2.091-.72.833-1.196,1.829-1.378,2.903l-2.095-1.73v-2.764c0-.276-.224-.5-.5-.5s-.5.224-.5.5v2.5H.5c-.276,0-.5.224-.5.5s.224.5.5.5h2.82l2.691,2.222c.022.596.129,1.169.314,1.709-.857,1.192-1.325,2.588-1.325,4.069,0,3.86,3.14,7,7,7s7-3.14,7-7c0-1.481-.468-2.876-1.325-4.068.184-.54.292-1.113.314-1.71l2.691-2.222h2.82c.276,0,.5-.224.5-.5s-.224-.5-.5-.5ZM12,1c2.206,0,4,1.794,4,4s-1.794,4-4,4-4-1.794-4-4,1.794-4,4-4Zm0,9c1.627,0,3.06-.793,3.974-1.999.638.844,1.024,1.685,1.024,3.023-.013,2.746-2.249,4.977-4.998,4.977s-4.985-2.231-4.998-4.977c0-1.043.385-2.178,1.024-3.023.914,1.206,2.347,1.999,3.974,1.999Zm6,7c0,3.309-2.691,6-6,6s-6-2.691-6-6c0-1.071.286-2.09.813-2.997,1.04,1.789,2.973,2.997,5.187,2.997s4.147-1.208,5.186-2.997c.528.908.814,1.926.814,2.997Zm-7-11.5c0-.552.448-1,1-1,.289,0,1.678.273,2.643.534.476.129.476.804,0,.933-.965.261-2.354.534-2.643.534-.552,0-1-.448-1-1Z"/>
</svg>
