<?xml version="1.0" encoding="UTF-8"?>
<svg xmlns="http://www.w3.org/2000/svg" id="Layer_1" data-name="Layer 1" width="512" height="512" viewBox="0 0 24 24"><path d="M21.01,20.915c-.634,.721-1.527,1.089-2.426,1.089-.758,0-1.521-.262-2.137-.795l-.593-.513c-.208-.181-.232-.496-.051-.705,.182-.209,.497-.232,.706-.051l.593,.513c.919,.793,2.364,.701,3.158-.198,2.115-2.401,3.055-5.489,2.648-8.695-.608-4.789-4.193-8.561-8.922-9.386-3.261-.569-6.565,.306-9.06,2.401C2.431,6.673,1,9.743,1,13c0,2.668,.971,5.243,2.735,7.249,.81,.92,2.229,1.012,3.163,.204l.594-.514c.208-.179,.524-.157,.705,.052s.157,.525-.052,.706l-.594,.513c-1.348,1.164-3.396,1.031-4.567-.301-1.924-2.188-2.984-4.998-2.984-7.909C0,9.447,1.561,6.098,4.283,3.81,7.003,1.524,10.601,.562,14.158,1.189c5.164,.9,9.079,5.018,9.742,10.245,.443,3.494-.583,6.861-2.89,9.48Zm-7.01-7.915c0,1.103-.897,2-2,2-.639,0-1.208-.302-1.575-.769l-4.726,2.059c-.065,.028-.133,.042-.199,.042-.193,0-.377-.112-.459-.3-.11-.254,.005-.548,.259-.658l4.725-2.059c-.016-.103-.025-.208-.025-.315,0-1.103,.897-2,2-2s2,.897,2,2Zm-1,0c0-.552-.449-1-1-1s-1,.448-1,1,.449,1,1,1,1-.448,1-1Z"/></svg>
