<?xml version="1.0" encoding="UTF-8"?>
<svg xmlns="http://www.w3.org/2000/svg" id="Layer_1" data-name="Layer 1" viewBox="0 0 24 24" width="512" height="512"><path d="m19.769,4.394C17.598,1.501,14.166-.116,10.594.009c-.031-.006-.928.066-1.276.119C4.5.853.439,5.289.074,10.229c-.199,2.698.481,5.208,1.969,7.259.626.862.957,1.807.957,2.732v1.28c0,1.472,1.028,2.5,2.5,2.5h8c1.379,0,2.5-1.121,2.5-2.5v-.5h.986c2.113,0,3.964-1.5,4.402-3.566l.517-2.434h.549c1.134,0,1.546-.869,1.546-1.454,0-1.282-2.843-7.429-4.231-9.152Zm-9.269,3.606c1.654,0,3,1.346,3,3s-1.346,3-3,3-3-1.346-3-3,1.346-3,3-3Zm11.954,6h-.956c-.236,0-.438.165-.487.396l-.601,2.83c-.341,1.607-1.78,2.773-3.424,2.773h-1.486c-.276,0-.5.224-.5.5v1c0,.827-.673,1.5-1.5,1.5H5.5c-.692,0-1.5-.393-1.5-1.5v-1.28c0-1.138-.397-2.286-1.148-3.32-1.346-1.856-1.961-4.138-1.779-6.597C1.404,5.81,5.092,1.774,9.467,1.116c.178-.027.356-.048.533-.065v5.98c-1.971.247-3.5,1.932-3.5,3.969,0,2.206,1.794,4,4,4s4-1.794,4-4c0-2.037-1.529-3.722-3.5-3.969V1.004c3.117.009,6.077,1.463,7.974,3.997l.012.015c1.407,1.739,4.015,7.663,4.015,8.53,0,.137-.053.454-.546.454Z"/></svg>
