<?xml version="1.0" encoding="UTF-8"?>
<svg xmlns="http://www.w3.org/2000/svg" id="Layer_1" data-name="Layer 1" viewBox="0 0 24 24" width="512" height="512"><path d="M23.977,1.791c.075-.495-.085-.982-.438-1.334-.353-.354-.841-.511-1.335-.439-1.688,.253-3.952,.805-5.147,2.001-.35,.35-.591,.811-.754,1.318-.376-.771-.831-1.419-1.171-1.816-.564-.662-1.699-.662-2.264,0-.62,.724-1.624,2.284-1.83,3.902-.589-.562-1.635-.529-2.17,.098-.62,.724-1.624,2.284-1.83,3.902-.589-.562-1.635-.529-2.17,.098-.693,.811-1.868,2.666-1.868,4.48,0,2.05,1.207,3.755,1.812,4.481L.146,23.146c-.195,.195-.195,.512,0,.707,.098,.098,.226,.146,.354,.146s.256-.049,.354-.146l4.666-4.666c.726,.605,2.431,1.812,4.481,1.812,1.813,0,3.67-1.174,4.48-1.868,.33-.283,.52-.696,.52-1.132,0-.39-.152-.762-.421-1.039,1.618-.207,3.177-1.21,3.902-1.83,.33-.283,.52-.696,.52-1.132,0-.39-.152-.762-.421-1.039,1.618-.207,3.177-1.21,3.902-1.83,.33-.283,.52-.696,.52-1.132s-.189-.849-.52-1.132c-.398-.34-1.047-.796-1.82-1.173,.504-.163,.965-.405,1.316-.757,1.196-1.196,1.748-3.46,2-5.148Zm-10.349,.379c.127-.148,.287-.17,.372-.17s.245,.022,.372,.17c.747,.872,1.547,2.354,1.622,3.638,.001,.087,.003,.173,.006,.256-.007,1.005-.168,1.22-.458,1.604-.069,.092-2.547,2.63-2.547,2.63,.003-.094,.005-.193,.005-.298,0-1.136-.46-2.287-.975-3.189,0-.023,0-.046-.002-.07-.017-.153-.023-.584-.023-.742,0-1.325,.844-2.914,1.628-3.83Zm-4,4c.127-.148,.287-.17,.372-.17s.245,.022,.372,.17c.784,.916,1.628,2.504,1.628,3.83,0,1.061-.162,1.276-.458,1.668-.069,.092-2.547,2.63-2.547,2.63,.003-.094,.005-.193,.005-.298,0-1.136-.461-2.289-.976-3.19,.003-.031,.003-.062,0-.094-.017-.153-.023-.559-.023-.716,0-1.325,.844-2.914,1.628-3.83Zm-5.628,7.83c0-1.325,.844-2.914,1.628-3.83,.127-.148,.287-.17,.372-.17s.245,.022,.372,.17c.784,.916,1.628,2.504,1.628,3.83,0,1.061-.162,1.276-.458,1.668-.069,.091-2.017,2.1-2.017,2.1-.533-.66-1.525-2.111-1.525-3.769Zm9.83,4.372c-.916,.784-2.506,1.628-3.83,1.628-1.658,0-3.109-.991-3.768-1.524,0,0,2.007-1.948,2.1-2.017,.392-.296,.607-.458,1.669-.458,1.324,0,2.914,.844,3.83,1.628,.109,.094,.17,.226,.17,.372s-.061,.278-.17,.372Zm4-4c-.916,.784-2.506,1.628-3.83,1.628,0,0-.64,.013-.759,.005-.909-.527-2.084-1.005-3.241-1.005-.105,0-.204,.002-.298,.005,0,0,2.536-2.477,2.629-2.547,.392-.296,.607-.458,1.669-.458,1.324,0,2.914,.844,3.83,1.628,.109,.094,.17,.226,.17,.372s-.061,.278-.17,.372Zm4.17-4.372c0,.146-.061,.278-.17,.372-.916,.784-2.506,1.628-3.83,1.628-.146,0-.608-.007-.801-.02-.903-.517-2.059-.98-3.199-.98-.105,0-.204,.002-.298,.005,0,0,2.534-2.481,2.629-2.547,.669-.458,1.774-.454,1.848-.453,1.286,.07,2.776,.873,3.651,1.622,.109,.094,.17,.226,.17,.372Zm-4.936-3.068c-.122-1.139-.162-3.345,.699-4.206,.782-.783,2.412-1.393,4.589-1.719,.177-.027,.354,.03,.479,.156,.126,.126,.183,.301,.156,.48-.188,1.26-.662,3.532-1.719,4.589-.872,.871-3.067,.827-4.205,.7Z"/></svg>
