<?xml version="1.0" encoding="UTF-8"?>
<svg xmlns="http://www.w3.org/2000/svg" id="Layer_1" data-name="Layer 1" viewBox="0 0 24 24" width="512" height="512"><path d="m19.5,0h-5c-2.481,0-4.5,2.019-4.5,4.5v15c0,2.481,2.019,4.5,4.5,4.5h5c2.481,0,4.5-2.019,4.5-4.5V4.5c0-2.481-2.019-4.5-4.5-4.5Zm3.5,19.5c0,1.93-1.57,3.5-3.5,3.5h-5c-1.93,0-3.5-1.57-3.5-3.5V4.5c0-1.93,1.57-3.5,3.5-3.5h5c1.93,0,3.5,1.57,3.5,3.5v15Zm-6-7.5c-2.206,0-4,1.794-4,4s1.794,4,4,4,4-1.794,4-4-1.794-4-4-4Zm0,7c-1.654,0-3-1.346-3-3s1.346-3,3-3,3,1.346,3,3-1.346,3-3,3Zm-10-7c.194,0,.385.014.571.041.273.04.463.293.424.566-.04.273-.299.458-.566.424-.14-.021-.283-.031-.429-.031-1.654,0-3,1.346-3,3s1.346,3,3,3c.146,0,.289-.01.429-.031.268-.039.526.15.566.424.039.273-.15.527-.424.566-.187.026-.377.041-.571.041-2.206,0-4-1.794-4-4s1.794-4,4-4Zm10-2.5c1.379,0,2.5-1.122,2.5-2.5s-1.121-2.5-2.5-2.5-2.5,1.122-2.5,2.5,1.121,2.5,2.5,2.5Zm0-4c.827,0,1.5.673,1.5,1.5s-.673,1.5-1.5,1.5-1.5-.673-1.5-1.5.673-1.5,1.5-1.5Zm-11.5,1.5c0,.955.952,1.689,1.876,1.453.271-.071.54.093.608.36s-.093.54-.36.608c-.204.052-.414.079-.624.079-1.379,0-2.5-1.122-2.5-2.5s1.121-2.5,2.5-2.5c.21,0,.42.026.624.079.268.068.429.341.36.608-.067.268-.336.429-.608.36-.925-.235-1.876.499-1.876,1.453Zm2.5,9c0,.552-.448,1-1,1s-1-.448-1-1,.448-1,1-1,1,.448,1,1Zm10,0c0,.552-.448,1-1,1s-1-.448-1-1,.448-1,1-1,1,.448,1,1ZM8.5,1h-4c-1.93,0-3.5,1.57-3.5,3.5v15c0,1.93,1.57,3.5,3.5,3.5h4c.276,0,.5.224.5.5s-.224.5-.5.5h-4c-2.481,0-4.5-2.019-4.5-4.5V4.5C0,2.019,2.019,0,4.5,0h4c.276,0,.5.224.5.5s-.224.5-.5.5Z"/></svg>
