<?xml version="1.0" encoding="UTF-8"?>
<svg xmlns="http://www.w3.org/2000/svg" id="Layer_1" data-name="Layer 1" viewBox="0 0 24 24" width="512" height="512"><path d="m23.227,11.445c-.692-.914-1.735-1.438-2.861-1.438h-10.36v-4h13.5c.276,0,.5-.224.5-.5s-.224-.5-.5-.5h-13.5v-2.325l13.525-.676c.276-.014.488-.248.475-.524-.014-.275-.258-.508-.524-.474L3.483,2.008c-.276.014-.488.248-.475.524.014.267.234.475.499.475.008,0,.017,0,.025,0l1.472-.074v2.075h-1.5c-.276,0-.5.224-.5.5s.224.5.5.5h1.5v4h-1.362c-1.126,0-2.169.524-2.861,1.438-.734.97-.963,2.205-.629,3.39.713,2.528,2.003,4.808,3.732,6.591,1.589,1.641,3.84,2.582,6.174,2.582h3.891c2.334,0,4.585-.941,6.174-2.582,1.729-1.784,3.02-4.063,3.732-6.591.333-1.185.104-2.42-.629-3.39ZM6.005,2.882l3-.15v2.275h-3v-2.125Zm0,3.125h3v4h-3v-4Zm16.888,8.557c-.658,2.335-1.896,4.524-3.487,6.167-1.403,1.447-3.392,2.277-5.457,2.277h-3.891c-2.065,0-4.054-.83-5.456-2.277-1.591-1.642-2.829-3.832-3.487-6.167-.249-.881-.079-1.797.464-2.515.501-.662,1.254-1.042,2.064-1.042h16.722c.81,0,1.562.38,2.064,1.043.543.717.712,1.633.464,2.514Z"/></svg>
