<?xml version="1.0" encoding="UTF-8"?>
<svg xmlns="http://www.w3.org/2000/svg" id="Layer_1" data-name="Layer 1" viewBox="0 0 24 24" width="512" height="512"><path d="M6.108,24.008c-.787,0-1.48-.413-1.853-1.104-.371-.688-.334-1.522,.097-2.178,1.256-1.912,3.773-3.073,6.438-4.302,4.302-1.984,8.751-4.036,8.154-9.43-.378-3.417-3.363-5.994-6.944-5.994-3.86,0-7,3.14-7,7v.5c0,.276-.224,.5-.5,.5s-.5-.224-.5-.5v-.5C4,3.589,7.589,0,12,0c4.091,0,7.504,2.959,7.938,6.883,.676,6.111-4.321,8.416-8.729,10.449-2.531,1.167-4.922,2.27-6.021,3.942-.232,.354-.251,.785-.052,1.154,.195,.363,.559,.579,.972,.579l13.392-.008h0c.276,0,.5,.224,.5,.5s-.224,.5-.5,.5l-13.392,.008Z"/></svg>
