<?xml version="1.0" encoding="UTF-8"?>
<svg xmlns="http://www.w3.org/2000/svg" id="Layer_1" data-name="Layer 1" viewBox="0 0 24 24">
  <path d="m12,16c-.614,0-1.203-.263-1.613-.72l-5.034-5.173c-.354-.363-.452-.88-.254-1.349.197-.468.636-.759,1.144-.759h11.514c.509,0,.947.291,1.145.759.197.469.1.985-.255,1.349l-5.047,5.188c-.397.442-.985.705-1.6.705Zm-5.757-7c-.145,0-.204.104-.223.147-.019.045-.051.159.05.263l5.047,5.188c.477.529,1.303.515,1.752.015l5.061-5.202c.102-.104.068-.218.05-.263-.019-.044-.078-.147-.223-.147H6.243Z"/>
</svg>
