<?xml version="1.0" encoding="UTF-8"?>
<svg xmlns="http://www.w3.org/2000/svg" id="Layer_1" data-name="Layer 1" viewBox="0 0 24 24" width="512" height="512"><path d="M19.5,2H4.5C2.02,2,0,4.02,0,6.5v11c0,2.48,2.02,4.5,4.5,4.5H14.5c.28,0,.5-.22,.5-.5s-.22-.5-.5-.5H4.5c-1.93,0-3.5-1.57-3.5-3.5V8H23v8.5c0,.28,.22,.5,.5,.5s.5-.22,.5-.5V6.5c0-2.48-2.02-4.5-4.5-4.5ZM1,7v-.5c0-1.93,1.57-3.5,3.5-3.5h15c1.93,0,3.5,1.57,3.5,3.5v.5H1Zm14.56,5.03c-.66-.66-1.54-1.03-2.47-1.03h-1.59c-.28,0-.5,.22-.5,.5v1.59c0,.94,.36,1.81,1.03,2.47l7.71,7.71c.47,.47,1.1,.73,1.77,.73s1.3-.26,1.77-.73c.47-.47,.73-1.1,.73-1.77s-.26-1.3-.73-1.77l-7.71-7.71Zm7,10.54c-.57,.57-1.55,.57-2.12,0l-7.71-7.71c-.47-.47-.73-1.1-.73-1.77v-1.09h1.09c.67,0,1.3,.26,1.77,.73l7.71,7.71c.28,.28,.44,.66,.44,1.06s-.16,.78-.44,1.06Z"/></svg>
