<?xml version="1.0" encoding="UTF-8"?>
<svg xmlns="http://www.w3.org/2000/svg" id="Layer_1" data-name="Layer 1" viewBox="0 0 24 24" width="512" height="512"><path d="m20.5,17c-.862,0-1.691.316-2.333.892-.206.184-.223.5-.039.706.184.206.501.223.706.039.458-.411,1.05-.637,1.667-.637,1.378,0,2.5,1.122,2.5,2.5s-1.122,2.5-2.5,2.5h-6.5v-11c0-2.206-1.794-4-4-4h-3c-2.206,0-4,1.794-4,4v11H.5c-.276,0-.5.224-.5.5s.224.5.5.5h20c1.93,0,3.5-1.57,3.5-3.5s-1.57-3.5-3.5-3.5ZM4,12c0-1.654,1.346-3,3-3h3c1.654,0,3,1.346,3,3v11H4v-11Zm4.5-5c1.539,0,2.791-1.252,2.791-2.791,0-.253,0-1.025-1.484-3.473-.28-.461-.768-.736-1.307-.736s-1.027.275-1.307.736c-1.484,2.448-1.484,3.22-1.484,3.473,0,1.539,1.252,2.791,2.791,2.791Zm-.452-5.746c.139-.229.362-.254.452-.254s.312.025.452.254c1.209,1.993,1.339,2.73,1.339,2.955,0,.988-.803,1.791-1.791,1.791s-1.791-.803-1.791-1.791c0-.224.13-.961,1.339-2.955Z"/></svg>
