<?xml version="1.0" encoding="UTF-8"?>
<svg xmlns="http://www.w3.org/2000/svg" id="Layer_1" data-name="Layer 1" viewBox="0 0 24 24" width="512" height="512"><path d="m24,12c0,.276-.224.5-.5.5h-11v11c0,.276-.224.5-.5.5s-.5-.224-.5-.5v-11H.5c-.276,0-.5-.224-.5-.5s.224-.5.5-.5h11V.5c0-.276.224-.5.5-.5s.5.224.5.5v11h11c.276,0,.5.224.5.5Zm-.5,4h-8c-.276,0-.5.224-.5.5s.224.5.5.5h8c.276,0,.5-.224.5-.5s-.224-.5-.5-.5Zm0,4h-8c-.276,0-.5.224-.5.5s.224.5.5.5h8c.276,0,.5-.224.5-.5s-.224-.5-.5-.5ZM.5,5h8c.276,0,.5-.224.5-.5s-.224-.5-.5-.5H.5c-.276,0-.5.224-.5.5s.224.5.5.5Zm15,0h3.5v3.5c0,.276.224.5.5.5s.5-.224.5-.5v-3.5h3.5c.276,0,.5-.224.5-.5s-.224-.5-.5-.5h-3.5V.5c0-.276-.224-.5-.5-.5s-.5.224-.5.5v3.5h-3.5c-.276,0-.5.224-.5.5s.224.5.5.5Zm-7.146,10.646c-.195-.195-.512-.195-.707,0l-3.146,3.146-3.146-3.146c-.195-.195-.512-.195-.707,0s-.195.512,0,.707l3.146,3.146-3.146,3.146c-.195.195-.195.512,0,.707.098.098.226.146.354.146s.256-.049.354-.146l3.146-3.146,3.146,3.146c.098.098.226.146.354.146s.256-.049.354-.146c.195-.195.195-.512,0-.707l-3.146-3.146,3.146-3.146c.195-.195.195-.512,0-.707Z"/></svg>
