<?xml version="1.0" encoding="UTF-8"?>
<svg xmlns="http://www.w3.org/2000/svg" id="Layer_1" data-name="Layer 1" viewBox="0 0 24 24" width="512" height="512"><path d="M22.682,5.951L18.049,1.318c-1.754-1.756-4.609-1.755-6.364,0L1.318,11.646c-1.754,1.755-1.754,4.609-.007,6.357l4.452,4.636c.883,.884,2.058,1.37,3.308,1.37s2.424-.486,3.309-1.37l10.303-10.324c1.755-1.755,1.755-4.609,0-6.364ZM12.392,2.025c.683-.683,1.579-1.023,2.476-1.023s1.792,.341,2.475,1.023l1.929,1.929-3.298,3.312L11.56,2.853l.831-.828Zm4.758,14.417l-4.461-4.461,3.286-3.3,4.464,4.464-3.29,3.296Zm-3.996,4.004l-4.456-4.456,3.286-3.3,4.46,4.46-3.29,3.296ZM6.845,7.552l4.432,4.432-3.286,3.3L3.546,10.839l3.299-3.287Zm5.137,3.723L7.553,6.846l3.299-3.287,4.416,4.416-3.286,3.3Zm-9.958,1.079l.813-.81,4.448,4.448-3.319,3.333-1.941-2.022c-1.364-1.365-1.364-3.585,0-4.949Zm9.646,9.578c-1.39,1.389-3.819,1.382-5.194,.007l-1.818-1.893,3.333-3.348,4.455,4.455-.777,.778Zm10.304-10.324l-.829,.83-4.465-4.465,3.298-3.312,1.996,1.996c1.364,1.365,1.364,3.585,0,4.95Z"/></svg>
