<?xml version="1.0" encoding="UTF-8"?>
<svg xmlns="http://www.w3.org/2000/svg" id="Layer_1" data-name="Layer 1" viewBox="0 0 24 24" width="512" height="512"><path d="m17.5,0H6.5C4.019,0,2,2.019,2,4.5v11c0,2.481,2.019,4.5,4.5,4.5h1.644c-.784.431-1.444.977-1.875,1.592-.319.456-.356,1.021-.101,1.511.288.553.881.897,1.548.897h8.568c.667,0,1.26-.344,1.548-.897.255-.49.218-1.055-.101-1.511-.431-.616-1.091-1.162-1.875-1.592h1.644c2.481,0,4.5-2.019,4.5-4.5V4.5c0-2.481-2.019-4.5-4.5-4.5Zm-.588,22.166c.133.19.092.364.034.476-.09.173-.312.359-.661.359H7.716c-.35,0-.571-.186-.661-.359-.058-.112-.1-.285.034-.476.864-1.234,2.976-2.166,4.912-2.166s4.047.931,4.912,2.166Zm4.088-6.666c0,1.93-1.57,3.5-3.5,3.5H6.5c-1.93,0-3.5-1.57-3.5-3.5V4.5c0-1.93,1.57-3.5,3.5-3.5h11c1.93,0,3.5,1.57,3.5,3.5v11ZM12,5c-2.757,0-5,2.243-5,5s2.243,5,5,5,5-2.243,5-5-2.243-5-5-5Zm0,9c-2.206,0-4-1.794-4-4s1.794-4,4-4,4,1.794,4,4-1.794,4-4,4Z"/></svg>
