<?xml version="1.0" encoding="UTF-8"?>
<svg xmlns="http://www.w3.org/2000/svg" id="Layer_1" data-name="Layer 1" viewBox="0 0 24 24" width="512" height="512"><path d="M15.38,12.83l-2.72,3.17,2.72,3.17c.18,.21,.16,.52-.05,.7-.09,.08-.21,.12-.33,.12-.14,0-.28-.06-.38-.17l-2.62-3.06-2.62,3.06c-.1,.12-.24,.17-.38,.17-.12,0-.23-.04-.33-.12-.21-.18-.23-.5-.05-.7l2.72-3.17-2.72-3.17c-.18-.21-.16-.52,.05-.7,.21-.18,.52-.16,.71,.05l2.62,3.06,2.62-3.06c.18-.21,.5-.23,.71-.05,.21,.18,.23,.5,.05,.7Zm6.62-2.83v9.51c0,2.48-2.02,4.5-4.5,4.5H6.5c-2.48,0-4.5-2.02-4.5-4.5V4.51C2,2.03,4.02,.01,6.5,.01h5.51c1.74,0,3.37,.68,4.6,1.9l3.48,3.49c1.23,1.23,1.9,2.86,1.9,4.6ZM15.9,2.63c-.55-.55-1.2-.97-1.9-1.24V6.51c0,.83,.67,1.5,1.5,1.5h5.13c-.27-.71-.69-1.35-1.24-1.9l-3.48-3.49Zm5.1,7.37c0-.33-.03-.66-.09-.99h-5.41c-1.38,0-2.5-1.12-2.5-2.5V1.1c-.32-.06-.65-.09-.99-.09H6.5c-1.93,0-3.5,1.57-3.5,3.5v15c0,1.93,1.57,3.5,3.5,3.5h11c1.93,0,3.5-1.57,3.5-3.5V10Z"/></svg>
