<?xml version="1.0" encoding="UTF-8"?>
<svg xmlns="http://www.w3.org/2000/svg" id="Layer_1" data-name="Layer 1" viewBox="0 0 24 24" width="512" height="512"><path d="M18.257,8.698l.454-.874c.312-.6,.368-1.283,.16-1.925-.209-.642-.656-1.161-1.241-1.454L11.482,1.036c-3.718-1.933-6.493-.718-7.815,.179-.449,.304-.698,.806-.665,1.345,.033,.531,.335,.994,.811,1.238l4.458,2.402L.262,20.388c-.603,1.212-.116,2.706,1.085,3.33,.362,.188,.754,.283,1.149,.283,.261,0,.523-.041,.779-.125,.643-.21,1.162-.658,1.45-1.24l7.942-14.068,2.236,1.204c.361,.185,.747,.271,1.129,.271,.904,0,1.781-.492,2.225-1.346ZM3.842,22.167c-.18,.363-.492,.633-.877,.759-.387,.124-.798,.091-1.157-.095-.72-.375-1.012-1.271-.663-1.975L9.153,6.674l2.634,1.419L3.842,22.167ZM15.368,8.887L4.283,2.915l-.01-.005c-.229-.117-.267-.327-.272-.412-.005-.087,.006-.306,.227-.455,.812-.55,1.936-1.046,3.344-1.046,1.005,0,2.154,.253,3.438,.92l6.155,3.413c.362,.182,.631,.493,.756,.878,.125,.386,.091,.796-.096,1.155l-.454,.874c-.379,.728-1.282,1.018-2.002,.649Zm8.632-3.387c0,.276-.224,.5-.5,.5h-2c-.276,0-.5-.224-.5-.5s.224-.5,.5-.5h2c.276,0,.5,.224,.5,.5Zm-4.067,8.041c.17,.218,.132,.532-.085,.702-.092,.071-.2,.106-.309,.106-.148,0-.295-.065-.394-.191l-1.331-1.699c-.17-.218-.132-.532,.085-.702,.218-.169,.531-.133,.702,.085l1.331,1.699Zm3.078-3.039c-.092,.163-.262,.255-.436,.255-.084,0-.168-.021-.245-.064l-1.799-1.014c-.241-.136-.326-.44-.19-.681,.136-.242,.443-.325,.681-.19l1.799,1.014c.241,.136,.326,.44,.19,.681Z"/></svg>
