<?xml version="1.0" encoding="UTF-8"?>
<svg xmlns="http://www.w3.org/2000/svg" id="Layer_1" data-name="Layer 1" viewBox="0 0 24 24" width="512" height="512"><path d="M17,13c0,.276-.224,.5-.5,.5h-4v4c0,.276-.224,.5-.5,.5s-.5-.224-.5-.5v-4H7.5c-.276,0-.5-.224-.5-.5s.224-.5,.5-.5h4v-4c0-.276,.224-.5,.5-.5s.5,.224,.5,.5v4h4c.276,0,.5,.224,.5,.5Zm6,0c0,2.896-1.125,5.533-2.961,7.5,1.051,.449,1.961,1.399,1.961,3,0,.276-.224,.5-.5,.5s-.5-.224-.5-.5c0-1.537-1.106-2.051-1.765-2.221-1.935,1.693-4.467,2.721-7.235,2.721s-5.299-1.028-7.235-2.721c-.66,.17-1.765,.684-1.765,2.221,0,.276-.224,.5-.5,.5s-.5-.224-.5-.5c0-1.601,.91-2.552,1.961-3-1.836-1.966-2.961-4.604-2.961-7.5C1,7.102,5.666,2.274,11.5,2.012V.5c0-.276,.224-.5,.5-.5s.5,.224,.5,.5v1.512c5.834,.262,10.5,5.09,10.5,10.988Zm-11,10c5.514,0,10-4.486,10-10S17.514,3,12,3,2,7.486,2,13s4.486,10,10,10ZM19.5,.038c-.276,0-.5,.224-.5,.5s.224,.5,.5,.5c2.273,0,3.5,1.784,3.5,3.462,0,.276,.224,.5,.5,.5s.5-.224,.5-.5C24,1.998,22.023,.038,19.5,.038ZM4.5,1.038c.276,0,.5-.224,.5-.5S4.776,.038,4.5,.038C1.977,.038,0,1.998,0,4.5c0,.276,.224,.5,.5,.5s.5-.224,.5-.5c0-1.679,1.227-3.462,3.5-3.462Z"/></svg>
