<?xml version="1.0" encoding="UTF-8"?>
<svg xmlns="http://www.w3.org/2000/svg" id="Layer_1" data-name="Layer 1" width="512" height="512" viewBox="0 0 24 24"><path d="M22.705,17.229c-.476-.184-1.006-.164-1.488,.06-.076,.035-.149,.075-.221,.118-.189-.582-.604-1.063-1.179-1.283-.48-.184-1.01-.163-1.489,.061-.543,.25-.977,.738-1.189,1.337-.517,1.46,.555,3.663,1.24,4.846,.232,.399,.653,.632,1.09,.632,.135,0,.271-.022,.402-.068,1.266-.441,3.466-1.4,3.986-2.866,.412-1.163-.104-2.436-1.152-2.836Zm.209,2.502c-.273,.772-1.534,1.615-3.371,2.256-.113,.039-.235-.012-.299-.121-1.004-1.733-1.438-3.232-1.162-4.01,.123-.347,.365-.625,.665-.764,.104-.048,.243-.092,.403-.092,.097,0,.201,.016,.31,.058,.546,.209,.8,.913,.566,1.569-.02,.055-.028,.112-.028,.167,0,.206,.128,.398,.333,.471,.259,.094,.546-.043,.639-.304,.123-.347,.365-.625,.665-.764,.165-.076,.425-.145,.713-.034,.545,.209,.8,.913,.566,1.569Zm-3.914-10.231c0-1.378-1.121-2.5-2.5-2.5s-2.5,1.122-2.5,2.5c0,1.5,1.445,1.5,2.5,1.5s2.5,0,2.5-1.5Zm-2.5,.5c-1.353,0-1.5-.101-1.5-.5,0-.827,.673-1.5,1.5-1.5s1.5,.673,1.5,1.5c0,.399-.147,.5-1.5,.5Zm-7,0H5.5c-.276,0-.5-.224-.5-.5s.224-.5,.5-.5h4c.276,0,.5,.224,.5,.5s-.224,.5-.5,.5Zm6.477,12.805c.084,.263-.062,.544-.324,.628-1.176,.376-2.405,.566-3.652,.566C5.383,24,0,18.617,0,12S5.383,0,12,0s12,5.383,12,12c0,1.195-.175,2.375-.521,3.509-.081,.263-.361,.416-.624,.332-.265-.08-.413-.36-.333-.624,.317-1.039,.478-2.121,.478-3.217,0-6.065-4.935-11-11-11S1,5.935,1,12s4.935,11,11,11c1.144,0,2.271-.174,3.348-.519,.261-.087,.544,.061,.629,.324Zm-1.506-6.805c.326-.318,.529-.76,.529-1.25,0-.965-.785-1.75-1.75-1.75h-1.25c-.276,0-.5,.224-.5,.5s.224,.5,.5,.5h1.25c.413,0,.75,.336,.75,.75s-.337,.75-.75,.75h-.25c-.276,0-.5,.224-.5,.5s.224,.5,.5,.5h.25c.413,0,.75,.336,.75,.75s-.337,.75-.75,.75h-1.25c-.276,0-.5,.224-.5,.5s.224,.5,.5,.5h1.25c.965,0,1.75-.785,1.75-1.75,0-.49-.204-.932-.529-1.25Z"/></svg>
