<?xml version="1.0" encoding="UTF-8"?>
<svg xmlns="http://www.w3.org/2000/svg" id="Layer_1" data-name="Layer 1" viewBox="0 0 24 24" width="512" height="512"><path d="M18,6h-7.96c-.8,0-1.55-.31-2.12-.88l-1.77-1.77c-.2-.2-.2-.51,0-.71l1.77-1.77c.57-.57,1.32-.88,2.12-.88h7.96c1.65,0,3,1.35,3,3s-1.35,3-3,3ZM7.21,3l1.41,1.41c.38,.38,.88,.59,1.41,.59h7.96c1.1,0,2-.9,2-2s-.9-2-2-2h-7.96c-.53,0-1.04,.21-1.41,.59l-1.41,1.41Zm8.79,21h-5.96c-.8,0-1.55-.31-2.12-.88l-1.77-1.77c-.2-.2-.2-.51,0-.71l1.77-1.77c.57-.57,1.32-.88,2.12-.88h5.96c1.65,0,3,1.35,3,3s-1.35,3-3,3Zm-8.79-3l1.41,1.41c.38,.38,.88,.59,1.41,.59h5.96c1.1,0,2-.9,2-2s-.9-2-2-2h-5.96c-.53,0-1.04,.21-1.41,.59l-1.41,1.41Zm13.79-6H10.04c-.8,0-1.55-.31-2.12-.88l-1.77-1.77c-.2-.2-.2-.51,0-.71l1.77-1.77c.57-.57,1.32-.88,2.12-.88h10.96c1.65,0,3,1.35,3,3s-1.35,3-3,3Zm-13.79-3l1.41,1.41c.38,.38,.88,.59,1.41,.59h10.96c1.1,0,2-.9,2-2s-.9-2-2-2H10.04c-.53,0-1.04,.21-1.41,.59l-1.41,1.41ZM2,23c-1.1,0-2-.9-2-2s.9-2,2-2,2,.9,2,2-.9,2-2,2Zm0-3c-.55,0-1,.45-1,1s.45,1,1,1,1-.45,1-1-.45-1-1-1Zm0-6c-1.1,0-2-.9-2-2s.9-2,2-2,2,.9,2,2-.9,2-2,2Zm0-3c-.55,0-1,.45-1,1s.45,1,1,1,1-.45,1-1-.45-1-1-1Zm0-6c-1.1,0-2-.9-2-2S.9,1,2,1s2,.9,2,2-.9,2-2,2Zm0-3c-.55,0-1,.45-1,1s.45,1,1,1,1-.45,1-1-.45-1-1-1Z"/></svg>
