<?xml version="1.0" encoding="UTF-8"?>
<svg xmlns="http://www.w3.org/2000/svg" id="Layer_1" data-name="Layer 1" viewBox="0 0 24 24" width="512" height="512"><path d="M23.27,13.74l-5.41-5.59c-.19-.2-.51-.2-.71-.01-.2,.19-.2,.51-.01,.71l5.42,5.59c.16,.16,.28,.36,.35,.56H4.5c-1.93,0-3.5-1.57-3.5-3.5V3.5c0-.28-.22-.5-.5-.5s-.5,.22-.5,.5V11.5c0,2.48,2.02,4.5,4.5,4.5H22.91c-.07,.21-.19,.4-.36,.57l-5.41,5.59c-.19,.2-.19,.51,.01,.71,.1,.09,.22,.14,.35,.14s.26-.05,.36-.15l5.41-5.58c.97-.97,.97-2.56,0-3.53Z"/></svg>
