<?xml version="1.0" encoding="UTF-8"?>
<svg xmlns="http://www.w3.org/2000/svg" id="Layer_1" data-name="Layer 1" viewBox="0 0 24 24" width="512" height="512"><path d="M23.346,14.861c-.199,.191-.516,.184-.707-.016l-2.46-2.569c-.052-.052-.118-.08-.179-.118v11.341c.01,.649-1.01,.649-1,0V12.16c-.064,.039-.131,.069-.187,.124l-2.452,2.562c-.191,.199-.507,.207-.707,.016-.199-.191-.206-.508-.016-.707l2.46-2.569c.386-.387,.891-.58,1.395-.583,.005-.002,.009,0,.014,0,.503,.001,1.004,.192,1.386,.575l2.468,2.577c.19,.199,.184,.516-.016,.707ZM3,20.5c0,1.378,1.121,2.5,2.5,2.5h11c.649-.01,.649,1.01,0,1H5.5c-1.93,0-3.5-1.57-3.5-3.5V4.5C2,2.019,4.019,0,6.5,0h11c2.481,0,4.5,2.019,4.5,4.5v5.039c.01,.649-1.01,.649-1,0V4.5c0-1.93-1.57-3.5-3.5-3.5H7V17h9.5c.649-.01,.649,1.01,0,1H5.5c-1.379,0-2.5,1.122-2.5,2.5Zm2.5-3.5h.5V1.051c-1.692,.245-3,1.691-3,3.449v13.558c.636-.651,1.52-1.058,2.5-1.058Z"/></svg>
