<?xml version="1.0" encoding="UTF-8"?>
<svg xmlns="http://www.w3.org/2000/svg" id="Layer_1" data-name="Layer 1" viewBox="0 0 24 24" width="512" height="512"><path d="M13.5,7c-1.93,0-3.5,1.57-3.5,3.5s1.57,3.5,3.5,3.5,3.5-1.57,3.5-3.5-1.57-3.5-3.5-3.5Zm0,6c-1.38,0-2.5-1.12-2.5-2.5s1.12-2.5,2.5-2.5,2.5,1.12,2.5,2.5-1.12,2.5-2.5,2.5ZM20.5,3H6.5c-1.93,0-3.5,1.57-3.5,3.5V14.5c0,1.93,1.57,3.5,3.5,3.5h14c1.93,0,3.5-1.57,3.5-3.5V6.5c0-1.93-1.57-3.5-3.5-3.5Zm2.5,11.5c0,1.38-1.12,2.5-2.5,2.5H6.5c-1.38,0-2.5-1.12-2.5-2.5V6.5c0-1.38,1.12-2.5,2.5-2.5h14c1.38,0,2.5,1.12,2.5,2.5V14.5Zm-4,6c0,.28-.22,.5-.5,.5H4.5c-2.48,0-4.5-2.02-4.5-4.5V8.5c0-.28,.22-.5,.5-.5s.5,.22,.5,.5v8c0,1.93,1.57,3.5,3.5,3.5h14c.28,0,.5,.22,.5,.5Z"/></svg>
