<?xml version="1.0" encoding="UTF-8"?>
<svg xmlns="http://www.w3.org/2000/svg" id="Layer_1" data-name="Layer 1" viewBox="0 0 24 24" width="512" height="512"><path d="M1,15.5c0,.83,.67,1.5,1.5,1.5H11.5c.28,0,.5,.22,.5,.5s-.22,.5-.5,.5H2.5c-1.38,0-2.5-1.12-2.5-2.5,0-1.21,.86-2.22,2-2.45V4.5C2,2.02,4.02,0,6.5,0h11c2.48,0,4.5,2.02,4.5,4.5v2c0,.28-.22,.5-.5,.5s-.5-.22-.5-.5v-2c0-1.93-1.57-3.5-3.5-3.5H6.5c-1.93,0-3.5,1.57-3.5,3.5V13h5.5c.13,0,.26,.05,.35,.15l.85,.85h1.79c.28,0,.5,.22,.5,.5s-.22,.5-.5,.5h-2c-.13,0-.26-.05-.35-.15l-.85-.85H2.5c-.83,0-1.5,.67-1.5,1.5Zm23-3v8c0,1.93-1.57,3.5-3.5,3.5h-3c-1.93,0-3.5-1.57-3.5-3.5V12.5c0-1.93,1.57-3.5,3.5-3.5h3c1.93,0,3.5,1.57,3.5,3.5Zm-1,0c0-1.38-1.12-2.5-2.5-2.5h-3c-1.38,0-2.5,1.12-2.5,2.5v8c0,1.38,1.12,2.5,2.5,2.5h3c1.38,0,2.5-1.12,2.5-2.5V12.5Z"/></svg>
