<?xml version="1.0" encoding="UTF-8"?>
<svg xmlns="http://www.w3.org/2000/svg" id="Layer_1" data-name="Layer 1" viewBox="0 0 24 24" width="512" height="512"><path d="m15,7V2.5c0-.276.224-.5.5-.5s.5.224.5.5v4.5c0,.097.014.191.04.28L23.146.147c.195-.196.512-.196.707-.001.196.195.196.512.002.708l-7.091,7.119c.076.018.155.028.236.028h4.5c.276,0,.5.224.5.5s-.224.5-.5.5h-4.5c-1.103,0-2-.897-2-2Zm8.163,10.298c.557.551.837,1.227.837,1.945s-.28,1.395-.788,1.902l-.978,1.125c-1.121,1.124-2.608,1.729-4.211,1.729C10.275,24,0,13.725,0,5.976c0-1.603.605-3.09,1.705-4.187l1.174-1.024c.967-.97,2.763-.993,3.78.023l1.959,2.543c1.006,1,1.006,2.707-.043,3.756l-1.488,1.525c1.617,3.803,4.614,6.804,8.295,8.303l1.532-1.494c1.047-1.047,2.753-1.046,3.802.003l2.446,1.873Zm-.658.75l-2.446-1.873c-.736-.725-1.801-.682-2.439-.043,0,.002-1.771,1.727-1.771,1.727-.139.136-.344.18-.527.108-4.172-1.593-7.557-4.975-9.285-9.28-.074-.184-.032-.394.106-.536l1.722-1.766c.664-.664.664-1.736.004-2.396l-1.959-2.543c-.302-.299-.714-.452-1.133-.452-.436,0-.879.165-1.215.5l-1.175,1.025c-.886.885-1.387,2.121-1.387,3.456,0,7.16,9.864,17.024,17.023,17.024,1.335,0,2.571-.501,3.48-1.411l.978-1.125c.683-.685.683-1.757.023-2.416Z"/></svg>
