<?xml version="1.0" encoding="UTF-8"?>
<svg xmlns="http://www.w3.org/2000/svg" id="Layer_1" data-name="Layer 1" viewBox="0 0 24 24" width="512" height="512"><path d="M19.5,4h-1.528c-.25-2.247-2.16-4-4.472-4h-3c-2.312,0-4.223,1.753-4.472,4h-1.528C2.019,4,0,6.019,0,8.5v11c0,2.481,2.019,4.5,4.5,4.5h15c2.481,0,4.5-2.019,4.5-4.5V8.5c0-2.481-2.019-4.5-4.5-4.5ZM10.5,1h3c1.76,0,3.221,1.306,3.464,3H7.036c.243-1.694,1.704-3,3.464-3ZM4.5,5h15c1.93,0,3.5,1.57,3.5,3.5v1.5h-4v-1.5c0-.276-.224-.5-.5-.5s-.5,.224-.5,.5v1.5H6v-1.5c0-.276-.224-.5-.5-.5s-.5,.224-.5,.5v1.5H1v-1.5c0-1.93,1.57-3.5,3.5-3.5Zm15,18H4.5c-1.93,0-3.5-1.57-3.5-3.5V11H5v1.5c0,.276,.224,.5,.5,.5s.5-.224,.5-.5v-1.5h12v1.5c0,.276,.224,.5,.5,.5s.5-.224,.5-.5v-1.5h4v8.5c0,1.93-1.57,3.5-3.5,3.5Z"/></svg>
