<?xml version="1.0" encoding="UTF-8"?>
<svg xmlns="http://www.w3.org/2000/svg" id="Layer_1" data-name="Layer 1" width="512" height="512" viewBox="0 0 24 24"><path d="M9.5,10c-.276,0-.5-.224-.5-.5,0-1.215-.771-2.5-1.5-2.5s-1.5,1.285-1.5,2.5c0,.276-.224,.5-.5,.5s-.5-.224-.5-.5c0-1.652,1.069-3.5,2.5-3.5s2.5,1.848,2.5,3.5c0,.276-.224,.5-.5,.5Zm9.5-.5c0-1.652-1.069-3.5-2.5-3.5s-2.5,1.848-2.5,3.5c0,.276,.224,.5,.5,.5s.5-.224,.5-.5c0-1.215,.771-2.5,1.5-2.5s1.5,1.285,1.5,2.5c0,.276,.224,.5,.5,.5s.5-.224,.5-.5Zm-1.04,5.525c.11-.523-.011-1.052-.333-1.449-.301-.371-.733-.575-1.218-.575H7.587c-.485,0-.918,.204-1.219,.577-.322,.4-.441,.932-.327,1.458,.523,2.406,2.792,4.964,5.964,4.964s5.444-2.563,5.954-4.975Zm-1.55-1.024c.227,0,.365,.111,.441,.205,.129,.16,.178,.389,.131,.612-.429,2.027-2.318,4.182-4.976,4.182s-4.547-2.152-4.987-4.177c-.049-.226,0-.457,.128-.617,.076-.094,.213-.206,.44-.206h8.823Zm7.59-2C24,5.383,18.617,0,12,0S0,5.383,0,12s5.383,12,12,12,12-5.383,12-12Zm-1,0c0,6.065-4.935,11-11,11S1,18.065,1,12,5.935,1,12,1s11,4.935,11,11Z"/></svg>
