<?xml version="1.0" encoding="UTF-8"?>
<svg xmlns="http://www.w3.org/2000/svg" id="Layer_1" data-name="Layer 1" width="512" height="512" viewBox="0 0 24 24"><path d="M15.919,15.744c-.331-1.043-1.289-1.744-2.383-1.744h-3.072c-1.094,0-2.052,.701-2.383,1.744l-.823,2.594c-.171,.539-.258,1.099-.258,1.664v1.498c0,.276,.224,.5,.5,.5h.5v1.5c0,.276,.224,.5,.5,.5s.5-.224,.5-.5v-1.5h6v1.5c0,.276,.224,.5,.5,.5s.5-.224,.5-.5v-1.5h.5c.276,0,.5-.224,.5-.5v-1.498c0-.565-.087-1.125-.258-1.664l-.823-2.594Zm-6.885,.303c.198-.626,.773-1.047,1.43-1.047h3.072c.656,0,1.231,.421,1.43,1.047l.62,1.953h-7.172l.62-1.953Zm6.966,4.953H8v-.998c0-.338,.039-.673,.114-1.002h7.773c.075,.329,.114,.664,.114,1.002v.998Zm6.017-15.169L14.518,.771c-1.529-1.033-3.507-1.033-5.034,0L1.983,5.83c-1.242,.838-1.983,2.231-1.983,3.73v9.939c0,2.481,2.019,4.5,4.5,4.5,.276,0,.5-.224,.5-.5V12.5c0-1.379,1.121-2.5,2.5-2.5h9c1.379,0,2.5,1.121,2.5,2.5v11c0,.276,.224,.5,.5,.5,2.481,0,4.5-2.019,4.5-4.5V9.561c0-1.498-.741-2.893-1.983-3.729Zm.983,13.669c0,1.76-1.306,3.221-3,3.465V12.5c0-1.93-1.57-3.5-3.5-3.5H7.5c-1.93,0-3.5,1.57-3.5,3.5v10.465c-1.694-.244-3-1.705-3-3.465V9.561c0-1.165,.576-2.25,1.542-2.901L10.043,1.599c1.188-.803,2.726-.803,3.915,0l7.5,5.061h0c.966,.651,1.542,1.736,1.542,2.901v9.939Z"/></svg>
