<?xml version="1.0" encoding="UTF-8"?>
<svg xmlns="http://www.w3.org/2000/svg" id="Layer_1" data-name="Layer 1" viewBox="0 0 24 24" width="512" height="512"><path d="M9.221,22H4.5c-2.481,0-4.5-2.019-4.5-4.5v-6.969c0-2.004,.78-3.887,2.197-5.303l2.308-2.308c.593-.593,1.381-.919,2.22-.919h.005c.841,.001,1.63,.331,2.222,.927l4.068,4.095,8.479-.022c.736,0,1.43,.321,1.906,.881s.681,1.301,.562,2.035c-.194,1.188-1.3,2.084-2.573,2.084h-6.483l-1.276,6.383c-.419,2.096-2.275,3.617-4.413,3.617ZM6.725,3c-.572,0-1.108,.222-1.513,.626l-2.308,2.308c-1.228,1.228-1.904,2.859-1.904,4.596v6.969c0,1.93,1.57,3.5,3.5,3.5h4.721c1.663,0,3.106-1.183,3.432-2.813l1.357-6.785c.047-.233,.252-.402,.49-.402h6.893c.789,0,1.471-.535,1.586-1.245,.073-.45-.046-.886-.336-1.227-.286-.336-.703-.529-1.143-.529l-14.999,.039h-.001c-.275,0-.5-.223-.5-.499,0-.276,.223-.501,.499-.501l5.115-.013-3.371-3.394c-.403-.407-.941-.631-1.514-.632h-.003Z"/></svg>
