<?xml version="1.0" encoding="UTF-8"?>
<svg xmlns="http://www.w3.org/2000/svg" id="Layer_1" data-name="Layer 1" viewBox="0 0 24 24" width="512" height="512"><path d="M12,21c-1.1,0-2-.9-2-2s.9-2,2-2,2,.9,2,2-.9,2-2,2Zm0-3c-.55,0-1,.45-1,1s.45,1,1,1,1-.45,1-1-.45-1-1-1Zm6.8-4.12c.21-.18,.24-.49,.06-.7-.16-.19-.32-.37-.5-.54-3.51-3.51-9.22-3.51-12.73,0-.17,.17-.34,.36-.5,.54-.18,.21-.15,.53,.06,.7,.21,.18,.53,.15,.71-.06,.14-.16,.29-.33,.44-.48,3.12-3.12,8.19-3.12,11.31,0,.16,.16,.3,.32,.44,.48,.1,.12,.24,.18,.38,.18,.11,0,.23-.04,.32-.12Z"/></svg>
