<?xml version="1.0" encoding="UTF-8"?>
<svg xmlns="http://www.w3.org/2000/svg" id="Layer_1" data-name="Layer 1" viewBox="0 0 24 24" width="512" height="512"><path d="M24,10.5c.006,.512-.188,1.059-.577,1.448l-2.581,2.417c-.202,.188-.518,.178-.707-.023-.188-.202-.178-.518,.023-.707l2.569-2.405c.069-.069,.125-.146,.167-.229H11.5c-.649,.01-.649-1.01,0-1h11.325c-.032-.046-.068-.09-.11-.131l-2.565-2.511c-.197-.193-.201-.51-.008-.707,.193-.197,.51-.2,.707-.008l2.569,2.515c.354,.353,.551,.881,.581,1.342Zm-4,6v3c0,2.481-2.019,4.5-4.5,4.5H3.5c-1.93,0-3.5-1.57-3.5-3.5V4.5C0,2.019,2.019,0,4.5,0H15.5c2.481,0,4.5,2.019,4.5,4.5,0,.276-.224,.5-.5,.5s-.5-.224-.5-.5c0-1.93-1.57-3.5-3.5-3.5H5V17h14v-.5c-.01-.649,1.01-.649,1,0ZM1,18.053c.636-.65,1.522-1.053,2.5-1.053h.5V1.036c-1.694,.243-3,1.704-3,3.464v13.553Zm18-.053H3.5c-3.286,.059-3.284,4.942,0,5H15.5c1.93,0,3.5-1.57,3.5-3.5v-1.5Z"/></svg>
