<?xml version="1.0" encoding="UTF-8"?>
<svg xmlns="http://www.w3.org/2000/svg" id="Layer_1" data-name="Layer 1" width="512" height="512" viewBox="0 0 24 24"><path d="M23.666,10.418l-1.008-3.025c-.477-1.431-1.811-2.393-3.32-2.393h-2.366c-.25-2.247-2.16-4-4.472-4H4.5C2.019,1,0,3.019,0,5.5v14.5c0,1.654,1.346,3,3,3,1.043,0,1.962-.535,2.5-1.344,.538,.809,1.457,1.344,2.5,1.344,1.654,0,3-1.346,3-3v-1h5v1c0,1.654,1.346,3,3,3s3-1.346,3-3v-1.338c1.181-.563,2-1.769,2-3.162v-3.026c0-.7-.112-1.392-.334-2.056Zm-1.957-2.708l1.008,3.025c.029,.088,.056,.177,.081,.266h-5.799V6h2.338c1.078,0,2.031,.687,2.372,1.709ZM1,5.5c0-1.93,1.57-3.5,3.5-3.5H12.5c1.93,0,3.5,1.57,3.5,3.5v12.5H1V5.5ZM3,22c-1.103,0-2-.897-2-2v-1H5v1c0,1.103-.897,2-2,2Zm7-2c0,1.103-.897,2-2,2s-2-.897-2-2v-1h4v1Zm11,0c0,1.103-.897,2-2,2s-2-.897-2-2v-1h3.5c.17,0,.337-.012,.5-.036v1.036Zm2-4.5c0,1.378-1.122,2.5-2.5,2.5h-3.5v-6h5.979c.014,.157,.021,.315,.021,.474v3.026Z"/></svg>
