<?xml version="1.0" encoding="UTF-8"?>
<svg xmlns="http://www.w3.org/2000/svg" id="Layer_1" data-name="Layer 1" viewBox="0 0 24 24" width="512" height="512"><path d="m16.55,10.435l-5.848-3.203c-.562-.316-1.228-.309-1.783.014-.556.325-.888.904-.888,1.548v6.411c0,.644.332,1.223.888,1.548.283.165.595.248.905.248.301,0,.6-.077.873-.23l5.857-3.208c.572-.322.914-.906.914-1.562s-.342-1.241-.919-1.565Zm-.48,2.253l-5.857,3.208c-.249.139-.543.137-.788-.006-.246-.144-.393-.4-.393-.685v-6.411c0-.285.146-.541.393-.685.124-.072.261-.109.398-.109.134,0,.27.035.395.105l5.848,3.203c.253.142.404.4.404.69s-.151.548-.399.688ZM12,0C5.383,0,0,5.383,0,12s5.383,12,12,12,12-5.383,12-12S18.617,0,12,0Zm0,23c-6.065,0-11-4.935-11-11S5.935,1,12,1s11,4.935,11,11-4.935,11-11,11Z"/></svg>
