<?xml version="1.0" encoding="UTF-8"?>
<svg xmlns="http://www.w3.org/2000/svg" id="Layer_1" data-name="Layer 1" viewBox="0 0 24 24" width="512" height="512"><path d="m10.003,7.005c-.552,0-1-.448-1-1s.448-1,1-1,1,.448,1,1-.448,1-1,1Zm1,10.001c-.551,0-.997.447-.997.997s.447.997.997.997.997-.447.997-.997-.447-.997-.997-.997Zm-5.005-5c-.551,0-.998.447-.998.998s.447.998.998.998.998-.447.998-.998-.447-.998-.998-.998Zm7.004-2.005c-.551,0-.998.447-.998.998s.447.998.998.998.998-.447.998-.998-.447-.998-.998-.998Zm10.509,2.597c.365.875.421,1.816.162,2.721-.324,1.133-1.122,2.076-2.19,2.59-.373.179-.631.519-.674.886-.133,1.149-.714,2.159-1.635,2.843-.908.675-2.027.943-3.153.753-.376-.065-.784.088-1.101.404-.783.781-1.818,1.212-2.916,1.212s-2.133-.431-2.915-1.212c-.317-.315-.728-.469-1.101-.404-1.124.19-2.245-.078-3.153-.753-.921-.684-1.502-1.693-1.635-2.843-.042-.367-.301-.707-.674-.886-1.068-.514-1.867-1.457-2.191-2.59-.259-.905-.203-1.847.162-2.721.162-.388.162-.796,0-1.184-.365-.875-.421-1.816-.162-2.721.324-1.133,1.122-2.077,2.19-2.59.373-.179.631-.519.674-.886.133-1.149.713-2.158,1.635-2.843.908-.675,2.027-.942,3.153-.753.374.064.784-.089,1.101-.405C9.869.436,10.905.006,12.003.006s2.133.43,2.916,1.21c.316.317.728.471,1.101.405,1.126-.191,2.245.078,3.154.753.921.685,1.502,1.694,1.635,2.842.042.368.301.708.674.887,1.068.513,1.867,1.457,2.191,2.59.259.904.203,1.845-.162,2.72-.162.388-.162.796,0,1.184Zm-.923-1.569c.277-.663.319-1.375.124-2.06,0,0,0,0,0,0-.245-.858-.851-1.574-1.662-1.963-.68-.327-1.153-.968-1.234-1.673-.101-.871-.541-1.636-1.238-2.154-.689-.512-1.539-.714-2.391-.569-.693.116-1.428-.138-1.975-.684-1.187-1.185-3.233-1.185-4.417,0-.546.545-1.286.801-1.974.684-.853-.143-1.703.058-2.39.569-.698.518-1.137,1.283-1.238,2.155-.082.705-.554,1.346-1.234,1.673-.811.389-1.417,1.105-1.662,1.963-.196.685-.154,1.397.123,2.061.263.63.263,1.324,0,1.954-.277.663-.319,1.375-.124,2.06.246.858.852,1.574,1.662,1.963.68.327,1.153.968,1.234,1.673.101.872.541,1.638,1.238,2.155.688.511,1.536.713,2.391.569.11-.019.222-.027.333-.027.587,0,1.181.253,1.64.71,1.188,1.188,3.23,1.187,4.417,0,.546-.546,1.285-.802,1.975-.684.855.144,1.704-.058,2.391-.569.698-.518,1.137-1.283,1.238-2.155.082-.705.554-1.346,1.234-1.673.811-.389,1.417-1.104,1.662-1.963.196-.685.154-1.397-.123-2.061-.263-.63-.263-1.324,0-1.954Zm-4.585,1.977c-.551,0-.998.447-.998.997s.447.998.998.998.997-.447.997-.998-.447-.997-.997-.997Z"/></svg>
