<?xml version="1.0" encoding="UTF-8"?>
<svg xmlns="http://www.w3.org/2000/svg" id="Layer_1" data-name="Layer 1" viewBox="0 0 24 24" width="512" height="512"><path d="m19.5,0H4.5C2.019,0,0,2.019,0,4.5v15c0,2.481,2.019,4.5,4.5,4.5h15c2.481,0,4.5-2.019,4.5-4.5V4.5c0-2.481-2.019-4.5-4.5-4.5Zm3.5,19.5c0,1.93-1.57,3.5-3.5,3.5H4.5c-1.93,0-3.5-1.57-3.5-3.5V4.5c0-1.93,1.57-3.5,3.5-3.5h15c1.93,0,3.5,1.57,3.5,3.5v15ZM6,7.777c0,1.236.83,2.335,2.019,2.671l8.231,2.13c1.625.468,2.75,1.963,2.75,3.64,0,2.086-1.697,3.782-3.782,3.782h-6.482c-1.856,0-3.736-1.202-3.736-3.5,0-.276.224-.5.5-.5s.5.224.5.5c0,1.718,1.418,2.5,2.736,2.5h6.482c1.534,0,2.782-1.248,2.782-2.782,0-1.233-.828-2.333-2.014-2.675l-8.229-2.129c-1.627-.461-2.757-1.955-2.757-3.637,0-2.083,1.694-3.777,3.777-3.777h6.487c1.772,0,3.721,1.102,3.812,3.52.011.275-.205.508-.48.519-.273.008-.508-.206-.519-.481-.067-1.766-1.461-2.557-2.813-2.557h-6.487c-1.531,0-2.777,1.246-2.777,2.777Z"/></svg>
