<?xml version="1.0" encoding="UTF-8"?>
<svg xmlns="http://www.w3.org/2000/svg" id="Layer_1" data-name="Layer 1" viewBox="0 0 24 24" width="512" height="512"><path d="M23.5,10H3v-3.5c0-1.93,1.57-3.5,3.5-3.5h.55c.232,1.14,1.242,2,2.45,2h4c1.378,0,2.5-1.122,2.5-2.5s-1.122-2.5-2.5-2.5h-4c-1.207,0-2.217,.86-2.45,2h-.55c-2.481,0-4.5,2.019-4.5,4.5v3.5H.5c-.276,0-.5,.224-.5,.5s.224,.5,.5,.5h1.571l1.413,9.185c.34,2.211,2.211,3.815,4.448,3.815h8.137c2.237,0,4.107-1.604,4.448-3.815l1.413-9.185h1.571c.276,0,.5-.224,.5-.5s-.224-.5-.5-.5ZM9.5,1h4c.827,0,1.5,.673,1.5,1.5s-.673,1.5-1.5,1.5h-4c-.827,0-1.5-.673-1.5-1.5s.673-1.5,1.5-1.5Zm10.028,19.032c-.265,1.72-1.72,2.968-3.459,2.968H7.932c-1.74,0-3.195-1.248-3.459-2.968l-1.389-9.032H20.917l-1.389,9.032Z"/></svg>
