<?xml version="1.0" encoding="UTF-8"?>
<svg xmlns="http://www.w3.org/2000/svg" id="Layer_1" data-name="Layer 1" width="512" height="512" viewBox="0 0 24 24"><path d="M17.5,24h-2c-.276,0-.5-.224-.5-.5s.224-.5,.5-.5h2c.276,0,.5,.224,.5,.5s-.224,.5-.5,.5Zm-5,0H6.5c-.276,0-.5-.224-.5-.5s.224-.5,.5-.5h6c.276,0,.5,.224,.5,.5s-.224,.5-.5,.5Zm5-4h-6c-.276,0-.5-.224-.5-.5s.224-.5,.5-.5h6c.276,0,.5,.224,.5,.5s-.224,.5-.5,.5Zm-9,0h-2c-.276,0-.5-.224-.5-.5s.224-.5,.5-.5h2c.276,0,.5,.224,.5,.5s-.224,.5-.5,.5Zm-5-.41c-.067,0-.135-.014-.2-.042-1.635-.712-2.823-2.164-3.179-3.883-.392-1.89,.198-3.805,1.576-5.122,.328-.313,.469-.819,.386-1.388-.134-.922-.106-1.862,.083-2.796C2.805,3.222,5.339,.724,8.474,.143c3.573-.671,7.059,1.056,8.674,4.278,.194,.388,.56,.668,1.001,.767,3.521,.79,5.98,3.984,5.847,7.597-.085,2.284-1.254,4.383-3.207,5.759-.226,.157-.537,.104-.697-.121-.158-.226-.104-.538,.121-.697,1.696-1.194,2.711-3.009,2.783-4.978,.116-3.131-2.014-5.899-5.065-6.583-.736-.166-1.347-.638-1.677-1.296-1.413-2.82-4.468-4.322-7.598-3.743C5.918,1.633,3.704,3.816,3.146,6.559c-.167,.82-.191,1.646-.073,2.452,.13,.893-.119,1.715-.685,2.255-1.128,1.078-1.609,2.646-1.289,4.196,.286,1.381,1.282,2.596,2.601,3.17,.253,.11,.368,.404,.258,.658-.082,.188-.266,.3-.458,.3Zm14-3.59h-2c-.276,0-.5-.224-.5-.5s.224-.5,.5-.5h2c.276,0,.5,.224,.5,.5s-.224,.5-.5,.5Zm-5,0H6.5c-.276,0-.5-.224-.5-.5s.224-.5,.5-.5h6c.276,0,.5,.224,.5,.5s-.224,.5-.5,.5Z"/></svg>
