<?xml version="1.0" encoding="UTF-8"?>
<svg xmlns="http://www.w3.org/2000/svg" id="Layer_1" data-name="Layer 1" viewBox="0 0 24 24" width="512" height="512"><path d="M17,16.5c0,.276-.224,.5-.5,.5h-5c-.276,0-.5-.224-.5-.5s.224-.5,.5-.5h5c.276,0,.5,.224,.5,.5Zm4-10v13c0,2.481-2.019,4.5-4.5,4.5H7.5c-2.481,0-4.5-2.019-4.5-4.5V6.5c0-2.481,2.019-4.5,4.5-4.5h.55c.232-1.14,1.242-2,2.45-2h3c1.208,0,2.217,.86,2.45,2h.55c2.481,0,4.5,2.019,4.5,4.5Zm-1,0c0-1.93-1.57-3.5-3.5-3.5h-1c-.276,0-.5-.224-.5-.5,0-.827-.673-1.5-1.5-1.5h-3c-.827,0-1.5,.673-1.5,1.5,0,.276-.224,.5-.5,.5h-1c-1.93,0-3.5,1.57-3.5,3.5v13c0,1.93,1.57,3.5,3.5,3.5h9c1.93,0,3.5-1.57,3.5-3.5V6.5ZM8,15.5c-.552,0-1,.448-1,1s.448,1,1,1,1-.448,1-1-.448-1-1-1Zm8.5-3.5h-5c-.276,0-.5,.224-.5,.5s.224,.5,.5,.5h5c.276,0,.5-.224,.5-.5s-.224-.5-.5-.5Zm-8.5-.5c-.552,0-1,.448-1,1s.448,1,1,1,1-.448,1-1-.448-1-1-1Zm8.5-3.5h-5c-.276,0-.5,.224-.5,.5s.224,.5,.5,.5h5c.276,0,.5-.224,.5-.5s-.224-.5-.5-.5Zm-8.5-.5c-.552,0-1,.448-1,1s.448,1,1,1,1-.448,1-1-.448-1-1-1Z"/></svg>
