<?xml version="1.0" encoding="UTF-8"?>
<svg xmlns="http://www.w3.org/2000/svg" id="Layer_1" data-name="Layer 1" viewBox="0 0 24 24" width="512" height="512"><path d="M19.6,10.38c.9-.66,1.45-1.72,1.45-2.85,0-1.95-1.58-3.53-3.53-3.53-.97,0-1.87,.4-2.52,1.06V1h.5c.28,0,.5-.22,.5-.5s-.22-.5-.5-.5h-7c-.28,0-.5,.22-.5,.5s.22,.5,.5,.5h.5V6.43c0,.5-.25,.97-.67,1.25l-3.33,2.22c-1.25,.84-2,2.24-2,3.74v5.86c0,2.48,2.02,4.5,4.5,4.5h9c2.48,0,4.5-2.02,4.5-4.5v-5.86c0-1.25-.51-2.42-1.4-3.26Zm-2.08-5.38c1.4,0,2.53,1.13,2.53,2.53,0,.91-.5,1.76-1.29,2.21l-3.09-2.06c-.29-.19-.49-.47-.6-.79,.29-1.1,1.3-1.89,2.45-1.89Zm2.48,14.5c0,1.93-1.57,3.5-3.5,3.5H7.5c-1.93,0-3.5-1.57-3.5-3.5v-5.5h13.5c.28,0,.5-.22,.5-.5s-.22-.5-.5-.5H4.06c.17-.92,.7-1.74,1.5-2.27l3.33-2.22c.7-.46,1.11-1.24,1.11-2.08V1h4V6.43c0,1.07,.62,1.75,1.11,2.08l3.33,2.22c.98,.65,1.56,1.74,1.56,2.91v5.86Z"/></svg>
