<?xml version="1.0" encoding="UTF-8"?>
<svg xmlns="http://www.w3.org/2000/svg" id="Layer_1" data-name="Layer 1" viewBox="0 0 24 24" width="512" height="512"><path d="M14.5,10h-5c-.827,0-1.5,.673-1.5,1.5v5c0,.827,.673,1.5,1.5,1.5h5c.827,0,1.5-.673,1.5-1.5v-5c0-.827-.673-1.5-1.5-1.5Zm.5,6.5c0,.275-.224,.5-.5,.5h-5c-.276,0-.5-.225-.5-.5v-5c0-.275,.224-.5,.5-.5h5c.276,0,.5,.225,.5,.5v5Zm7.017-10.669l-1.017-.686V1.5c0-.276-.224-.5-.5-.5s-.5,.224-.5,.5v2.97L14.517,.771c-1.528-1.032-3.504-1.033-5.034,0L1.983,5.831c-1.242,.838-1.983,2.232-1.983,3.729v9.939c0,2.481,2.019,4.5,4.5,4.5h15c2.481,0,4.5-2.019,4.5-4.5V9.561c0-1.497-.741-2.892-1.983-3.729Zm.983,13.669c0,1.93-1.57,3.5-3.5,3.5H4.5c-1.93,0-3.5-1.57-3.5-3.5V9.561c0-1.164,.577-2.249,1.542-2.901L10.042,1.599c.595-.401,1.276-.602,1.958-.602s1.363,.2,1.958,.602l7.5,5.061c.966,.652,1.542,1.737,1.542,2.901v9.939Z"/></svg>
