<?xml version="1.0" encoding="UTF-8"?>
<svg xmlns="http://www.w3.org/2000/svg" id="Layer_1" data-name="Layer 1" viewBox="0 0 24 24" width="512" height="512"><path d="M19.678,11.009c.131-.749,.239-1.515,.314-2.294,.069-.707-.151-1.38-.619-1.896-.47-.518-1.152-.815-1.871-.815l-15.01-.003h0c-.717,0-1.397,.296-1.865,.812C.158,7.328-.062,8,.007,8.707c.45,4.634,2.003,8.818,3.228,11.512,1.044,2.297,3.362,3.781,5.905,3.781h1.72c2.545,0,4.865-1.49,5.912-3.796,.03-.067,.061-.135,.092-.204h2.054c2.802,0,5.082-2.28,5.082-5.082,0-2.314-1.534-3.699-4.322-3.909Zm-11.178,.198l1.061,1.061c.283,.284,.439,.66,.439,1.061v1.671c0,.551-.449,1-1,1h-1c-.551,0-1-.449-1-1v-1.671c0-.401,.156-.777,.439-1.061l1.061-1.061Zm2.36,11.793h-1.72c-2.152,0-4.113-1.254-4.995-3.195-1.192-2.625-2.706-6.698-3.143-11.195-.041-.422,.088-.821,.364-1.125,.284-.312,.683-.484,1.125-.484h5.509v3.292l-1.268,1.268c-.472,.472-.732,1.1-.732,1.768v1.671c0,1.103,.897,2,2,2h1c1.103,0,2-.897,2-2v-1.671c0-.668-.26-1.296-.732-1.768l-1.268-1.268v-3.291l8.502,.002c.444,0,.845,.173,1.13,.487,.276,.305,.406,.705,.365,1.127-.437,4.487-1.946,8.553-3.135,11.173-.885,1.949-2.849,3.209-5.002,3.209Zm8.058-4h-1.622c.793-1.904,1.636-4.319,2.192-7.002h.013c2.321,.148,3.499,1.13,3.499,2.92,0,2.251-1.831,4.082-4.082,4.082ZM9,3.5V.5c0-.276,.224-.5,.5-.5s.5,.224,.5,.5V3.5c0,.276-.224,.5-.5,.5s-.5-.224-.5-.5Zm4,0V.5c0-.276,.224-.5,.5-.5s.5,.224,.5,.5V3.5c0,.276-.224,.5-.5,.5s-.5-.224-.5-.5Zm-8,0V.5c0-.276,.224-.5,.5-.5s.5,.224,.5,.5V3.5c0,.276-.224,.5-.5,.5s-.5-.224-.5-.5Z"/></svg>
