<?xml version="1.0" encoding="UTF-8"?>
<svg xmlns="http://www.w3.org/2000/svg" id="Layer_1" data-name="Layer 1" viewBox="0 0 24 24" width="512" height="512"><path d="M16,19.5c0,.276-.224,.5-.5,.5H4.5c-2.481,0-4.5-2.019-4.5-4.5v-7c0-1.098,.399-2.155,1.125-2.977,.184-.206,.5-.226,.706-.044,.207,.183,.227,.499,.044,.706-.564,.639-.875,1.461-.875,2.314v7c0,1.93,1.57,3.5,3.5,3.5H15.5c.276,0,.5,.224,.5,.5Zm3.969-.238l3.885,3.885c.195,.195,.195,.512,0,.707-.098,.098-.226,.146-.354,.146s-.256-.049-.354-.146L.146,.854C-.049,.658-.049,.342,.146,.146S.658-.049,.854,.146l3.854,3.854h12.793c2.312,0,4.223,1.753,4.473,4h.527c.827,0,1.5,.673,1.5,1.5v5c0,.827-.673,1.5-1.5,1.5h-.528c-.15,1.328-.89,2.529-2.003,3.262Zm1.031-3.762c0-.276,.224-.5,.5-.5h1c.275,0,.5-.224,.5-.5v-5c0-.276-.225-.5-.5-.5h-1c-.276,0-.5-.224-.5-.5,0-1.93-1.57-3.5-3.5-3.5H5.707l13.536,13.536c1.076-.62,1.757-1.781,1.757-3.036Z"/></svg>
