<?xml version="1.0" encoding="UTF-8"?>
<svg xmlns="http://www.w3.org/2000/svg" id="Layer_1" data-name="Layer 1" width="512" height="512" viewBox="0 0 24 24"><path d="M15.289,7.531c.002-.06,.02,.058,0,0h0Zm-6.579,.01c0-.053-.016,.051,0,0h0Zm15.29-1.041v14c0,.276-.224,.5-.5,.5s-.5-.224-.5-.5v-1.793l-4.732,4.732c-.355,.356-.849,.561-1.354,.561-1.056,0-1.914-.858-1.914-1.914v-.086h-6v.086c0,1.056-.858,1.914-1.914,1.914-.505,0-.998-.205-1.354-.561L1,18.707v1.793c0,.276-.224,.5-.5,.5s-.5-.224-.5-.5V6.5c0-.276,.224-.5,.5-.5s.5,.224,.5,.5v7.5h7.09c.097-1.82,.304-4.264,.62-6.459,.581-3.941,1.592-7.541,3.29-7.541s2.708,3.594,3.289,7.531c.315,2.192,.525,4.652,.622,6.469h7.09V6.5c0-.276,.224-.5,.5-.5s.5,.224,.5,.5ZM8.043,15H1v2.293l5.439,5.439c.17,.17,.405,.268,.646,.268,.504,0,.914-.41,.914-.914v-5.252c0-.448,.013-1.078,.043-1.833Zm1.836-8.453c.649-.363,1.359-.547,2.121-.547s1.471,.184,2.121,.547c-.581-3.262-1.37-5.547-2.121-5.547s-1.54,2.285-2.121,5.547Zm5.121,10.286c0-3.042-.255-6.204-.653-8.895-.693-.631-1.462-.938-2.347-.938s-1.654,.308-2.347,.939c-.398,2.691-.653,5.853-.653,8.894v4.167h6v-4.167Zm8-1.833h-7.043c.03,.756,.043,1.386,.043,1.833v5.252c0,.504,.41,.914,.914,.914,.241,0,.477-.098,.646-.267l5.439-5.44v-2.293Z"/></svg>
