<?xml version="1.0" encoding="UTF-8"?>
<svg xmlns="http://www.w3.org/2000/svg" id="Layer_1" data-name="Layer 1" viewBox="0 0 24 24" width="512" height="512"><path d="M17.33,18.13c.21,.18,.22,.5,.04,.71-.1,.11-.24,.17-.37,.17-.12,0-.24-.04-.33-.13-.02-.02-2.14-1.87-4.67-1.87s-4.65,1.85-4.67,1.87c-.21,.18-.52,.17-.71-.04-.18-.21-.17-.52,.04-.71,.1-.09,2.41-2.13,5.33-2.13s5.24,2.04,5.33,2.13ZM8,13c.55,0,1-.45,1-1s-.45-1-1-1-1,.45-1,1,.45,1,1,1Zm8,0c.55,0,1-.45,1-1s-.45-1-1-1-1,.45-1,1,.45,1,1,1Zm8-1c0,6.62-5.38,12-12,12S0,18.62,0,12,5.38,0,12,0s12,5.38,12,12ZM12,1c-1.39,0-2.71,.27-3.94,.74,3.74,.84,8.69,2.38,13.67,5.16-1.84-3.5-5.51-5.9-9.74-5.9ZM3.41,5.15c2.37,.33,11.64,1.92,19.56,7.42,0-.19,.03-.38,.03-.57,0-1.26-.22-2.47-.62-3.6C16.54,4.92,10.59,3.24,6.57,2.45c-1.22,.69-2.29,1.61-3.16,2.7ZM1.01,11.85c1.27-.97,3.98-2.79,8.31-4.42-3.75-1.05-6.43-1.35-6.57-1.36-1.08,1.67-1.71,3.65-1.74,5.78Zm21.85,1.86c-3.94-2.83-8.28-4.65-11.91-5.8C5.06,9.91,1.9,12.37,1.06,13.09c.55,5.55,5.25,9.91,10.94,9.91s10.03-4.04,10.85-9.29Z"/></svg>
