<?xml version="1.0" encoding="UTF-8"?>
<svg xmlns="http://www.w3.org/2000/svg" id="Layer_1" data-name="Layer 1" viewBox="0 0 24 24" width="512" height="512"><path d="m23.346,1.252l-.592-.595c-.423-.424-.985-.657-1.584-.657h-.002c-.598,0-1.16.232-1.583.654l-.558.556c-.662.661-1.027,1.541-1.027,2.477v1.606l-5.565,5.565c-1.32-1.156-3.047-1.858-4.935-1.858-4.136,0-7.5,3.364-7.5,7.5s3.364,7.5,7.5,7.5,7.5-3.364,7.5-7.5c0-1.888-.702-3.616-1.858-4.935l5.565-5.565h1.604c.934,0,1.812-.363,2.472-1.022l.561-.558c.874-.874.875-2.295.003-3.168ZM7.5,23c-3.584,0-6.5-2.916-6.5-6.5s2.916-6.5,6.5-6.5,6.5,2.916,6.5,6.5-2.916,6.5-6.5,6.5ZM22.637,3.712l-.561.558c-.472.471-1.099.73-1.766.73h-1.311v-1.313c0-.668.261-1.297.733-1.769l.558-.556c.234-.233.546-.362.877-.362h0c.331,0,.643.129.876.363l.593.595c.482.483.482,1.271,0,1.754Zm-14.783,15.435c.195.195.195.512,0,.707-.098.098-.226.146-.354.146s-.256-.049-.354-.146l-3-3c-.195-.195-.195-.512,0-.707s.512-.195.707,0l3,3Z"/></svg>
