<?xml version="1.0" encoding="UTF-8"?>
<svg xmlns="http://www.w3.org/2000/svg" id="Layer_1" data-name="Layer 1" width="512" height="512" viewBox="0 0 24 24"><path d="M2.21,15.143c-.788,.338-1.432,1.265-1.138,2.383,.109,.417,.367,.793,.727,1.06,.222,.165,.268,.478,.103,.699-.099,.132-.249,.202-.401,.202-.104,0-.209-.032-.299-.099-.54-.402-.929-.973-1.096-1.608-.387-1.47,.333-2.965,1.71-3.556,.239-.103,.362-.348,.306-.611-.175-.81-.161-1.638,.04-2.461,.521-2.145,2.336-3.799,4.515-4.116,1.479-.215,2.945,.155,4.125,1.041,.221,.166,.265,.479,.099,.7-.165,.221-.481,.264-.7,.099-.964-.726-2.168-1.026-3.379-.851-1.779,.259-3.262,1.611-3.688,3.363-.164,.676-.176,1.354-.033,2.015,.157,.733-.208,1.449-.889,1.741Zm17.668,5.392c-.376,1.641-1.683,2.944-3.328,3.32-.318,.073-.643,.113-.963,.119-.866,.016-3.082,.025-5.199,.025-1.953,0-3.822-.008-4.473-.025-.242-.007-.484-.042-.721-.105-1.004-.264-1.824-1.084-2.089-2.088-.387-1.47,.333-2.966,1.71-3.557,.239-.103,.362-.349,.306-.611-.175-.81-.161-1.638,.04-2.461,.521-2.145,2.336-3.799,4.515-4.116,2.515-.368,4.938,1.006,5.905,3.334,.235,.565,.764,.686,1.094,.76,2.347,.634,3.754,3.008,3.203,5.405Zm-3.463-4.439c-.393-.088-1.322-.298-1.758-1.342-.705-1.701-2.364-2.777-4.175-2.777-.219,0-.44,.016-.662,.048-1.779,.259-3.262,1.611-3.688,3.363-.164,.676-.176,1.354-.033,2.015,.157,.732-.208,1.448-.889,1.741-.788,.338-1.432,1.265-1.138,2.383,.175,.662,.715,1.202,1.376,1.376,.164,.043,.33,.067,.495,.072,1.346,.038,7.966,.032,9.624,0,.252-.005,.508-.036,.76-.094,1.255-.287,2.29-1.319,2.576-2.569,.43-1.871-.663-3.723-2.488-4.215Zm7.085-7.096h-3.522c-.016-.179-.04-.357-.072-.535-.08-.434-.211-.851-.389-1.243l3.054-1.737c.24-.137,.324-.442,.188-.682-.136-.241-.443-.325-.682-.188l-3.053,1.736c-.366-.527-.822-.986-1.347-1.355l1.756-3.042c.139-.239,.057-.545-.183-.683-.239-.137-.546-.055-.683,.183l-1.757,3.042c-.401-.185-.829-.321-1.275-.403-.178-.033-.356-.057-.535-.072V.5c0-.276-.224-.5-.5-.5s-.5,.224-.5,.5v3.524c-.47,.042-.932,.144-1.372,.303-.253,.09-.519-.001-.636-.217l-1.467-2.692c-.133-.243-.436-.332-.679-.2-.242,.132-.332,.436-.2,.678l1.468,2.692c.356,.654,1.139,.939,1.854,.679,.752-.272,1.58-.346,2.388-.189,2.76,.537,3.48,3.1,3.565,3.566,.15,.818,.083,1.651-.196,2.408-.257,.699,.013,1.471,.642,1.836l2.672,1.551c.079,.046,.165,.067,.251,.067,.172,0,.34-.089,.433-.249,.139-.239,.058-.545-.182-.684l-2.672-1.551c-.211-.123-.295-.38-.205-.626,.166-.449,.271-.919,.313-1.398h3.523c.276,0,.5-.224,.5-.5s-.224-.5-.5-.5Z"/></svg>
