<?xml version="1.0" encoding="UTF-8"?>
<svg xmlns="http://www.w3.org/2000/svg" id="Layer_1" data-name="Layer 1" viewBox="0 0 24 24" width="512" height="512"><path d="M16.854,13.527c.195,.195,.195,.512,0,.707l-3.035,3.036c-.487,.487-1.128,.731-1.768,.731h-.059c-.62-.016-1.236-.259-1.709-.731l-3.136-3.136c-.195-.195-.195-.512,0-.707s.512-.195,.707,0l3.136,3.136c.15,.15,.324,.261,.51,.334V6.5c0-.276,.224-.5,.5-.5s.5,.224,.5,.5v10.433c.224-.07,.434-.193,.611-.37l3.035-3.036c.195-.195,.512-.195,.707,0Zm7.146-1.172v7.145c0,2.481-2.019,4.5-4.5,4.5h-6.367c-3.855,0-7.341-1.382-9.815-3.893C1.135,17.893-.042,14.965,.002,11.862,.094,5.542,5.309,.225,11.629,.009c3.203-.107,6.229,1.067,8.551,3.312,2.428,2.346,3.82,5.639,3.82,9.034Zm-1,0c0-3.126-1.281-6.157-3.515-8.315-2.036-1.967-4.67-3.039-7.451-3.039-.124,0-.247,.002-.372,.006C5.868,1.206,1.086,6.082,1.002,11.877c-.041,2.833,1.035,5.506,3.028,7.528,2.285,2.318,5.518,3.595,9.103,3.595h6.367c1.93,0,3.5-1.57,3.5-3.5v-7.145Z"/></svg>
