<?xml version="1.0" encoding="UTF-8"?>
<svg xmlns="http://www.w3.org/2000/svg" id="Layer_1" data-name="Layer 1" viewBox="0 0 24 24" width="512" height="512"><path d="M12.483,6.19l3.663,3.664c.098,.098,.226,.146,.354,.146s.256-.049,.354-.146c.195-.195,.195-.512,0-.707,0,0-4.029-4.029-4.056-4.048-.146-.112-1.487-1.099-3.375-1.099-1.218,0-4.423,1.076-4.423,3.5,0,1.378,1.121,2.5,2.5,2.5,.181,0,.353-.026,.518-.073-.002,.043-.002,.086-.002,.129,.011,.715,.328,1.393,.87,1.859l2.113,1.814v3.771c0,.276,.224,.5,.5,.5s.5-.224,.5-.5v-4c0-.146-.063-.284-.174-.379l-2.287-1.964c-.326-.28-.517-.686-.522-1.116-.006-.36,.12-.707,.346-.981,.201-.187,3.12-2.87,3.12-2.87Zm-4.983,2.81c-.827,0-1.5-.673-1.5-1.5,0-1.641,2.543-2.5,3.423-2.5,.969,0,1.774,.324,2.253,.573,0,0-2.98,2.731-3.042,2.801-.426,.391-.773,.626-1.134,.626Zm9-4c1.379,0,2.5-1.122,2.5-2.5s-1.121-2.5-2.5-2.5-2.5,1.122-2.5,2.5,1.121,2.5,2.5,2.5Zm0-4c.827,0,1.5,.673,1.5,1.5s-.673,1.5-1.5,1.5-1.5-.673-1.5-1.5,.673-1.5,1.5-1.5Zm-8.138,15.96c-.012,0-.022,.007-.033,.008-.043-.316-.113-.621-.226-.91,.013-.004,.027-.003,.039-.008,.25-.13,.34-.43,.22-.68-.13-.24-.43-.34-.67-.21-.02,.009-.032,.026-.049,.038-.182-.256-.397-.483-.633-.689,.016-.018,.038-.027,.052-.048,.15-.23,.08-.54-.149-.69-.23-.15-.54-.09-.69,.14-.01,.016-.011,.033-.019,.049-.276-.143-.566-.258-.875-.334l.005-.015c.029-.28-.17-.52-.45-.55-.271-.03-.521,.17-.55,.44v.005c-.321,.004-.629,.054-.928,.13l-.002-.016c-.09-.26-.38-.4-.64-.3-.26,.09-.4,.38-.3,.64,.005,.016,.022,.023,.029,.037-.278,.151-.536,.328-.769,.538-.015-.018-.023-.039-.04-.055-.21-.18-.53-.16-.71,.05-.18,.2-.16,.52,.05,.7,.014,.013,.034,.018,.049,.029-.175,.258-.31,.542-.422,.838-.013-.004-.024-.014-.038-.017-.27-.06-.54,.1-.6,.37-.061,.27,.11,.54,.38,.6,.01,.003,.024,.002,.035,.003-.017,.149-.045,.294-.045,.447,0,.167,.029,.326,.049,.488-.013,.002-.026-.002-.04,.002-.27,.06-.44,.33-.37,.6,.05,.23,.26,.38,.48,.38,.04,0,.08,0,.12-.01,.015-.003,.025-.013,.039-.018,.114,.294,.256,.572,.433,.828-.017,.011-.037,.016-.053,.03-.21,.19-.221,.5-.04,.71,.1,.11,.239,.16,.37,.16,.119,0,.239-.04,.34-.12,.018-.017,.027-.039,.042-.058,.233,.205,.488,.379,.764,.526-.008,.015-.02,.026-.026,.043-.09,.26,.051,.55,.311,.64,.06,.02,.11,.03,.17,.03,.2,0,.4-.13,.47-.34l.002-.013c.3,.073,.609,.122,.932,.122,.034,.255,.25,.441,.497,.441,.02,0,.04-.01,.06-.01,.27-.03,.47-.28,.44-.55,0-.006-.005-.011-.005-.017,.306-.078,.594-.194,.867-.339,.008,.015,.009,.031,.018,.046,.1,.14,.26,.22,.42,.22,.09,0,.189-.03,.279-.08,.23-.16,.29-.47,.141-.7-.013-.019-.033-.03-.048-.046,.231-.208,.444-.433,.621-.689,.017,.011,.028,.027,.047,.036,.069,.03,.149,.05,.22,.05,.19,0,.36-.1,.45-.27,.13-.25,.02-.55-.22-.68-.015-.007-.031-.006-.046-.012,.108-.287,.177-.591,.216-.905,.01,.001,.019,.007,.029,.007h.021c.27,0,.49-.21,.5-.48v-.08c-.01-.28-.25-.49-.521-.48Zm-3.979,3.54c-1.654,0-3-1.346-3-3s1.346-3,3-3,3,1.346,3,3-1.346,3-3,3Zm19.097-3.54c-.012,0-.022,.007-.033,.008-.043-.316-.113-.621-.225-.909,.013-.005,.027-.004,.039-.009,.25-.13,.34-.43,.22-.68-.13-.24-.43-.34-.67-.21-.02,.009-.032,.026-.049,.038-.182-.258-.4-.485-.637-.693,.014-.017,.035-.025,.047-.045,.16-.23,.09-.54-.14-.69-.23-.15-.54-.09-.69,.14-.01,.015-.011,.033-.02,.049-.276-.143-.566-.258-.875-.333l.005-.015c.029-.28-.17-.52-.45-.55-.269-.03-.516,.168-.548,.445-.322,.004-.63,.054-.93,.13l-.002-.016c-.09-.26-.38-.4-.64-.31-.26,.1-.4,.39-.3,.65,.005,.016,.022,.023,.028,.037-.277,.15-.534,.328-.767,.536-.015-.017-.024-.038-.042-.054-.21-.18-.53-.16-.71,.05-.18,.2-.16,.52,.05,.7,.014,.013,.034,.018,.049,.029-.175,.258-.31,.542-.422,.838-.013-.004-.024-.014-.038-.017-.27-.06-.54,.1-.6,.38v-.01c-.061,.27,.11,.54,.37,.6,.015,.004,.03,.002,.045,.004-.017,.148-.045,.294-.045,.446,0,.167,.029,.326,.049,.488-.013,.002-.026-.002-.04,.002-.27,.06-.44,.33-.37,.6,.05,.23,.26,.39,.49,.39,.03,0,.07-.01,.11-.02,.015-.003,.025-.013,.039-.018,.114,.294,.256,.572,.433,.828-.017,.011-.037,.016-.053,.03-.21,.19-.221,.5-.04,.71,.1,.11,.239,.16,.37,.16,.119,0,.239-.04,.34-.12,.018-.017,.027-.039,.042-.058,.233,.205,.488,.379,.764,.526-.008,.015-.02,.026-.026,.043-.09,.26,.051,.55,.311,.64,.06,.02,.11,.03,.17,.03,.2,0,.4-.13,.47-.34l.002-.013c.3,.073,.609,.122,.932,.122,.034,.255,.25,.441,.497,.441,.02,0,.04-.01,.06-.01,.27-.03,.47-.28,.44-.55,0-.006-.005-.011-.006-.017,.306-.078,.594-.194,.868-.339,.008,.015,.009,.031,.018,.046,.1,.14,.26,.22,.42,.22,.1,0,.189-.03,.279-.08,.23-.16,.29-.47,.141-.7-.013-.019-.033-.03-.048-.046,.231-.208,.444-.433,.621-.689,.017,.011,.028,.027,.047,.036,.069,.03,.149,.05,.22,.05,.19,0,.36-.1,.45-.27v-.01c.13-.24,.02-.54-.22-.67-.015-.007-.031-.006-.046-.012,.108-.287,.177-.591,.216-.905,.01,.001,.019,.007,.029,.007h.021c.27,0,.49-.21,.5-.48v-.08c-.01-.28-.25-.49-.521-.48Zm-3.979,3.54c-1.654,0-3-1.346-3-3s1.346-3,3-3,3,1.346,3,3-1.346,3-3,3Z"/></svg>
