<?xml version="1.0" encoding="UTF-8"?>
<svg xmlns="http://www.w3.org/2000/svg" id="Layer_1" data-name="Layer 1" viewBox="0 0 24 24" width="512" height="512"><path d="M18.827,9.119c.209,.181,.231,.497,.052,.706-.607,.703-1.81,1.173-2.998,1.173-1.13-.007-2.128-.425-2.763-1.178-.179-.211-.151-.526,.06-.704,.211-.176,.526-.152,.704,.06,.599,.709,1.497,.819,1.979,.822h.021c.899,0,1.818-.339,2.239-.827,.182-.21,.497-.23,.706-.052Zm2.673,2.881c-.686,0-1.325,.271-1.801,.766-.191,.198-.186,.515,.014,.707,.198,.19,.515,.188,.707-.014,.285-.296,.669-.459,1.08-.459,.827,0,1.5,.673,1.5,1.5s-.673,1.5-1.5,1.5h-7.326c.006-.007,.012-.013,.018-.019,.46-.089,.809-.495,.809-.981,0-.552-.448-1-1-1h-3.5c-.276,0-.5,.224-.5,.5s.224,.5,.5,.5h3.5c-.086,0-.17,.022-.245,.064-.28,.157-.755,.638-.755,1.436s.475,1.278,.755,1.436c.075,.042,.159,.064,.245,.064h-3.5c-.276,0-.5,.224-.5,.5s.224,.5,.5,.5h3.5c.552,0,1-.448,1-1,0-.485-.348-.891-.807-.981-.006-.006-.012-.012-.018-.019h7.325c1.379,0,2.5-1.121,2.5-2.5s-1.121-2.5-2.5-2.5ZM11.521,1.011c.159-.007,.318-.011,.479-.011,5.117,0,9.634,3.62,10.739,8.608,.052,.233,.259,.392,.488,.392,.035,0,.072-.004,.108-.012,.27-.06,.439-.327,.38-.597C22.509,3.95,17.582,0,12,0c-.175,0-.348,.004-.521,.011-.276,.012-.49,.245-.479,.521,.012,.275,.238,.48,.521,.479Zm-3.66,8.987c-.481-.003-1.38-.113-1.979-.822-.177-.212-.494-.235-.704-.06-.211,.178-.238,.493-.06,.704,.635,.753,1.633,1.171,2.763,1.178,1.188,0,2.391-.47,2.998-1.173,.18-.209,.157-.525-.052-.706-.209-.179-.523-.158-.706,.052-.421,.488-1.34,.827-2.239,.827h-.021ZM.004,.562C-.016,.409,.037,.256,.146,.146,.257,.037,.403-.016,.562,.004l8,1c.25,.031,.438,.244,.438,.496,0,3.294-4.206,7.5-7.5,7.5-.252,0-.465-.188-.496-.438L.004,.562Zm1.072,.514l.861,6.894c2.532-.342,5.69-3.5,6.032-6.032L1.076,1.076ZM21.044,19.121c-.209-.179-.524-.157-.705,.053-2.094,2.432-5.133,3.826-8.339,3.826-6.065,0-11-4.935-11-11,0-.161,.004-.32,.011-.479,.011-.275-.203-.509-.479-.521-.288-.007-.509,.204-.521,.479-.007,.173-.011,.346-.011,.521,0,6.617,5.383,12,12,12,3.498,0,6.813-1.521,9.097-4.174,.181-.209,.156-.525-.053-.705Z"/></svg>
