<?xml version="1.0" encoding="UTF-8"?>
<svg xmlns="http://www.w3.org/2000/svg" id="Layer_1" data-name="Layer 1" viewBox="0 0 24 24" width="512" height="512"><path d="M4,5.5v-1.5C4,1.79,5.79,0,8,0h8c2.21,0,4,1.79,4,4v1.5c0,.28-.22,.5-.5,.5s-.5-.22-.5-.5v-1.5c0-1.65-1.35-3-3-3h-3.5V14.5c0,.28-.22,.5-.5,.5s-.5-.22-.5-.5V1h-3.5c-1.65,0-3,1.35-3,3v1.5c0,.28-.22,.5-.5,.5s-.5-.22-.5-.5Zm20,14s0,0,0,0c0-.38-.15-.76-.43-1.05l-3.21-3.29c-.19-.2-.51-.2-.71,0-.2,.19-.2,.51,0,.71l3.07,3.15H1.29l3.07-3.15c.19-.2,.19-.51,0-.71-.2-.19-.51-.19-.71,0L.44,18.44C.15,18.73,0,19.11,0,19.5c0,0,0,0,0,0,0,0,0,0,0,0,0,.38,.15,.76,.43,1.05l3.21,3.29c.1,.1,.23,.15,.36,.15s.25-.05,.35-.14c.2-.19,.2-.51,0-.71l-3.07-3.15H22.71l-3.07,3.15c-.19,.2-.19,.51,0,.71,.1,.09,.22,.14,.35,.14s.26-.05,.36-.15l3.2-3.29c.29-.29,.44-.67,.44-1.06,0,0,0,0,0,0Z"/></svg>
