<?xml version="1.0" encoding="UTF-8"?>
<svg xmlns="http://www.w3.org/2000/svg" id="Layer_1" data-name="Layer 1" viewBox="0 0 24 24" width="512" height="512"><path d="M21.5,9h-2.5V4c0-2.206-1.794-4-4-4h-6c-2.206,0-4,1.794-4,4v5H2.5c-.276,0-.5,.224-.5,.5s.224,.5,.5,.5h2.017c-.983,1.472-1.517,3.219-1.517,5,0,4.963,4.038,9,9,9s9-4.037,9-9c0-1.781-.534-3.528-1.517-5h2.017c.276,0,.5-.224,.5-.5s-.224-.5-.5-.5ZM6,4c0-1.654,1.346-3,3-3h6c1.654,0,3,1.346,3,3v5H6V4Zm6,19c-4.411,0-8-3.589-8-8,0-1.84,.607-3.568,1.755-5h12.49c1.148,1.432,1.755,3.16,1.755,5,0,4.411-3.589,8-8,8Zm-3-10c0,.552-.448,1-1,1s-1-.448-1-1,.448-1,1-1,1,.448,1,1Zm8,0c0,.552-.448,1-1,1s-1-.448-1-1,.448-1,1-1,1,.448,1,1Zm-5,2c-1.103,0-2,.895-2,1.995,0,.246,.076,.83,.73,3.056,.167,.567,.677,.949,1.27,.949s1.103-.382,1.27-.95c.654-2.225,.73-2.809,.73-3.055,0-1.101-.897-1.995-2-1.995Zm.311,4.768c-.062,.21-.238,.232-.311,.232s-.249-.022-.311-.231c-.639-2.176-.689-2.673-.689-2.773,0-.549,.449-.995,1-.995s1,.446,1,.995c0,.101-.05,.598-.689,2.772Z"/></svg>
