<?xml version="1.0" encoding="UTF-8"?>
<svg xmlns="http://www.w3.org/2000/svg" id="Layer_1" data-name="Layer 1" viewBox="0 0 24 24" width="512" height="512"><path d="m22,16.051V7.5c0-2.481-2.019-4.5-4.5-4.5H6.5c-2.481,0-4.5,2.019-4.5,4.5v8.551c-1.14.232-2,1.242-2,2.449,0,1.378,1.122,2.5,2.5,2.5h19c1.378,0,2.5-1.122,2.5-2.5,0-1.207-.86-2.217-2-2.449ZM6.5,4h11c1.93,0,3.5,1.57,3.5,3.5v8.5h-5.5c-.133,0-.26.053-.354.146l-.854.854h-4.586l-.854-.854c-.094-.094-.221-.146-.354-.146H3V7.5c0-1.93,1.57-3.5,3.5-3.5Zm15,16H2.5c-.827,0-1.5-.673-1.5-1.5s.673-1.5,1.5-1.5h5.793l.854.854c.094.094.221.146.354.146h5c.133,0,.26-.053.354-.146l.854-.854h5.793c.827,0,1.5.673,1.5,1.5s-.673,1.5-1.5,1.5Zm-13.5-10c0-.276.224-.5.5-.5h3v-3c0-.276.224-.5.5-.5s.5.224.5.5v3h3c.276,0,.5.224.5.5s-.224.5-.5.5h-3v3c0,.276-.224.5-.5.5s-.5-.224-.5-.5v-3h-3c-.276,0-.5-.224-.5-.5Z"/></svg>
