<?xml version="1.0" encoding="UTF-8"?>
<svg xmlns="http://www.w3.org/2000/svg" id="Layer_1" data-name="Layer 1" viewBox="0 0 24 24" width="512" height="512"><path d="M11.5,5c1.379,0,2.5-1.122,2.5-2.5s-1.121-2.5-2.5-2.5-2.5,1.122-2.5,2.5,1.121,2.5,2.5,2.5Zm0-4c.827,0,1.5,.673,1.5,1.5s-.673,1.5-1.5,1.5-1.5-.673-1.5-1.5,.673-1.5,1.5-1.5Zm4.027,9.14l-.214-1.033c-.371-1.8-1.975-3.107-3.813-3.107s-3.442,1.307-3.813,3.107l-1.667,8.083c-.089,.711,.132,1.427,.606,1.964,.474,.538,1.157,.846,1.874,.846h.5v3.5c0,.276,.224,.5,.5,.5s.5-.224,.5-.5v-3.5h3v3.5c0,.276,.224,.5,.5,.5s.5-.224,.5-.5v-3.5h2.417c.214,0,.403-.135,.473-.337,.046-.131,1.11-3.246,1.11-5.038,0-1.831-.92-3.491-2.473-4.485Zm.528,8.86h-7.556c-.43,0-.84-.185-1.125-.507-.284-.322-.417-.752-.37-1.14l1.134-5.493,3.084,2.056c.085,.057,.182,.084,.277,.084,.161,0,.319-.078,.416-.223,.153-.23,.091-.54-.139-.693l-3.421-2.281,.308-1.494c.276-1.338,1.469-2.31,2.835-2.31s2.559,.971,2.835,2.31l.257,1.245c.028,.139,.114,.259,.236,.331,1.36,.795,2.172,2.194,2.172,3.74,0,1.304-.674,3.531-.944,4.375Z"/></svg>
