<?xml version="1.0" encoding="UTF-8"?>
<svg xmlns="http://www.w3.org/2000/svg" id="Layer_1" data-name="Layer 1" viewBox="0 0 24 24" width="512" height="512"><path d="M6,0c.55,0,1,.45,1,1s-.45,1-1,1-1-.45-1-1,.45-1,1-1Zm11,1c0,.55,.45,1,1,1s1-.45,1-1-.45-1-1-1-1,.45-1,1ZM0,1C0,1.55,.45,2,1,2s1-.45,1-1S1.55,0,1,0,0,.45,0,1ZM0,6C0,6.55,.45,7,1,7s1-.45,1-1-.45-1-1-1S0,5.45,0,6ZM0,12C0,12.55,.45,13,1,13s1-.45,1-1-.45-1-1-1S0,11.45,0,12ZM0,18C0,18.55,.45,19,1,19s1-.45,1-1-.45-1-1-1S0,17.45,0,18ZM11,1c0,.55,.45,1,1,1s1-.45,1-1-.45-1-1-1-1,.45-1,1Zm13,18.5V.5c0-.28-.22-.5-.5-.5s-.5,.22-.5,.5V19.5c0,1.93-1.57,3.5-3.5,3.5H.5c-.28,0-.5,.22-.5,.5s.22,.5,.5,.5H19.5c2.48,0,4.5-2.02,4.5-4.5Z"/></svg>
