<?xml version="1.0" encoding="UTF-8"?>
<svg xmlns="http://www.w3.org/2000/svg" id="Layer_1" data-name="Layer 1" viewBox="0 0 24 24" width="512" height="512"><path d="m15,5c-1.103,0-2,.897-2,2v15c0,1.103.897,2,2,2s2-.897,2-2V7c0-1.103-.897-2-2-2Zm1,17c0,.552-.449,1-1,1s-1-.448-1-1V7c0-.552.449-1,1-1s1,.448,1,1v15Zm-7-11c-1.103,0-2,.897-2,2v9c0,1.103.897,2,2,2s2-.897,2-2v-9c0-1.103-.897-2-2-2Zm1,11c0,.552-.449,1-1,1s-1-.448-1-1v-9c0-.552.449-1,1-1s1,.448,1,1v9Zm-7-5c-1.103,0-2,.897-2,2v3c0,1.103.897,2,2,2s2-.897,2-2v-3c0-1.103-.897-2-2-2Zm1,5c0,.552-.449,1-1,1s-1-.448-1-1v-3c0-.552.449-1,1-1s1,.448,1,1v3Z"/></svg>
