<?xml version="1.0" encoding="UTF-8"?>
<svg xmlns="http://www.w3.org/2000/svg" id="Layer_1" data-name="Layer 1" viewBox="0 0 24 24" width="512" height="512"><path d="m8.5,5c1.379,0,2.5-1.122,2.5-2.5s-1.121-2.5-2.5-2.5-2.5,1.122-2.5,2.5,1.121,2.5,2.5,2.5Zm0-4c.827,0,1.5.673,1.5,1.5s-.673,1.5-1.5,1.5-1.5-.673-1.5-1.5.673-1.5,1.5-1.5Zm11.5,3.999h-1.17c-1.3,0-2.562.462-3.553,1.301l-3.301,2.794c-.202-1.739-1.684-3.093-3.476-3.093-1.93,0-3.5,1.57-3.5,3.5v5.497l-1.189,1.007C1.692,16.102,0,17.857,0,20.001c0,2.205,1.796,3.999,4,3.999h1.17c1.299,0,2.561-.462,3.553-1.301l11.468-9.703c2.118-.099,3.812-1.854,3.812-3.997,0-2.205-1.796-4-4.001-4Zm-14,4.501c0-1.378,1.121-2.5,2.5-2.5s2.5,1.122,2.5,2.5v.419l-5,4.231v-4.651Zm14,2.5c-.118,0-.232.042-.323.118l-11.602,9.817c-.812.687-1.844,1.065-2.906,1.065h-1.17c-1.653,0-2.999-1.346-3-3.001,0-1.654,1.346-3,3-3,.118,0,.232-.042.323-.118L15.924,7.063c.811-.687,1.843-1.064,2.906-1.064h1.17c1.654,0,3,1.346,3.001,3.001,0,1.654-1.347,3-3.001,3Z"/></svg>
