<?xml version="1.0" encoding="UTF-8"?>
<svg xmlns="http://www.w3.org/2000/svg" id="Layer_1" data-name="Layer 1" width="512" height="512" viewBox="0 0 24 24"><path d="M20.5,17c-.17,0-.337,.012-.5,.036V4.5c0-1.93,1.57-3.5,3.5-3.5,.276,0,.5-.224,.5-.5s-.224-.5-.5-.5c-2.481,0-4.5,2.019-4.5,4.5v12.634L.35,23.023c-.264,.083-.409,.364-.326,.627,.067,.213,.264,.35,.477,.35,.05,0,.101-.007,.15-.023l16.883-5.331c-.338,.538-.533,1.174-.533,1.855,0,1.93,1.57,3.5,3.5,3.5s3.5-1.57,3.5-3.5-1.57-3.5-3.5-3.5Zm0,6c-1.379,0-2.5-1.122-2.5-2.5s1.121-2.5,2.5-2.5,2.5,1.122,2.5,2.5-1.121,2.5-2.5,2.5Z"/></svg>
