<?xml version="1.0" encoding="UTF-8"?>
<svg xmlns="http://www.w3.org/2000/svg" id="Layer_1" data-name="Layer 1" viewBox="0 0 24 24">
  <path d="m10.249,19.002c-.164,0-.33-.033-.49-.101-.468-.197-.759-.636-.759-1.145V6.243c0-.509.291-.947.759-1.145.469-.198.984-.1,1.349.255l5.188,5.047c.442.396.705.984.705,1.6s-.263,1.203-.72,1.613l-5.173,5.033c-.239.233-.545.355-.858.355Zm-.003-13.002c-.043,0-.078.012-.099.021-.044.019-.147.078-.147.223v11.514c0,.145.104.204.147.223.045.02.16.051.263-.05l5.188-5.047c.265-.238.402-.547.402-.883s-.138-.645-.388-.869l-5.202-5.061c-.056-.055-.115-.07-.164-.07Z"/>
</svg>
