<?xml version="1.0" encoding="UTF-8"?>
<svg xmlns="http://www.w3.org/2000/svg" id="Layer_1" data-name="Layer 1" viewBox="0 0 24 24" width="512" height="512"><path d="m23.396,9.69l-3.727-6.443c-.801-1.386-2.294-2.247-3.896-2.247h-7.547c-1.602,0-3.095.861-3.896,2.247L.604,9.69c-.809,1.398-.804,3.133.012,4.526l3.84,6.558c.805,1.373,2.292,2.226,3.884,2.226h7.32c1.592,0,3.079-.853,3.884-2.226l3.84-6.557c.815-1.394.82-3.128.012-4.526Zm-4.592-5.942l3.727,6.442c.236.409.383.855.441,1.31h-3.168l-3.627-6.024,1.587-2.854c.42.29.778.671,1.041,1.126Zm-7.629,7.752h-5.791l3.007-5.005,2.784,5.005Zm-1.915-5.5h5.481l-2.74,4.927-2.741-4.927Zm1.866,6.5l-2.727,4.903-3.006-4.903h5.732Zm.875.483l2.79,5.017h-5.58l2.79-5.017Zm.875-.483h5.734l-3.003,4.91-2.731-4.91Zm-.05-1l2.789-5.014,3.006,5.014h-5.795Zm2.948-9.5c.377,0,.745.062,1.093.177l-1.57,2.823h-6.593l-1.57-2.823c.348-.115.717-.177,1.094-.177h7.547Zm-10.577,1.748c.263-.454.621-.836,1.041-1.126l1.593,2.864-3.613,6.014H1.029c.058-.455.205-.9.441-1.309l3.727-6.443Zm.123,16.521l-3.84-6.557c-.222-.379-.366-.791-.434-1.212h3.174l3.62,5.907-1.606,2.887c-.365-.274-.678-.621-.915-1.025Zm3.021,1.731c-.426,0-.841-.078-1.229-.225l1.544-2.775h6.692l1.544,2.775c-.388.146-.804.225-1.23.225h-7.32Zm10.341-1.731c-.237.404-.55.751-.915,1.025l-1.602-2.88,3.616-5.914h3.174c-.068.421-.212.833-.434,1.212l-3.84,6.557Z"/></svg>
