<?xml version="1.0" encoding="UTF-8"?>
<svg xmlns="http://www.w3.org/2000/svg" id="Layer_1" data-name="Layer 1" viewBox="0 0 24 24" width="512" height="512"><path d="M19.5,24h-3c-.28,0-.5-.22-.5-.5s.22-.5,.5-.5h3c1.93,0,3.5-1.57,3.5-3.5v-3c0-.28,.22-.5,.5-.5s.5,.22,.5,.5v3c0,2.48-2.02,4.5-4.5,4.5Zm-12,0h-3c-2.48,0-4.5-2.02-4.5-4.5v-3c0-.28,.22-.5,.5-.5s.5,.22,.5,.5v3c0,1.93,1.57,3.5,3.5,3.5h3c.28,0,.5,.22,.5,.5s-.22,.5-.5,.5Zm1.24-7c-.21,0-.42-.07-.6-.2-.34-.25-.48-.7-.35-1.1l.94-3.01-2.37-1.93c-.33-.28-.44-.72-.3-1.11,.14-.39,.52-.65,.94-.65h3l1.06-2.85c.14-.38,.51-.62,.94-.62s.8,.24,.94,.62l1.06,2.85h3c.42,0,.8,.26,.94,.66,.14,.39,.03,.84-.29,1.1l-2.37,1.93,.98,2.98c.13,.4,0,.85-.34,1.1-.34,.26-.8,.28-1.15,.05l-2.76-1.79-2.71,1.81c-.17,.11-.37,.17-.56,.17Zm-1.74-7.01l2.62,2.13c.16,.13,.22,.34,.16,.54l-1.04,3.34,2.98-1.99c.17-.11,.38-.11,.55,0l3.03,1.97-1.09-3.31c-.06-.2,0-.41,.16-.54l2.63-2.14h-3.36c-.21,.01-.4-.12-.47-.32l-1.18-3.18-1.18,3.18c-.07,.2-.26,.33-.47,.33h-3.35Zm16.5-1.99c-.28,0-.5-.22-.5-.5v-3c0-1.93-1.57-3.5-3.5-3.5h-3c-.28,0-.5-.22-.5-.5s.22-.5,.5-.5h3c2.48,0,4.5,2.02,4.5,4.5v3c0,.28-.22,.5-.5,.5ZM.5,8c-.28,0-.5-.22-.5-.5v-3C0,2.02,2.02,0,4.5,0h3c.28,0,.5,.22,.5,.5s-.22,.5-.5,.5h-3c-1.93,0-3.5,1.57-3.5,3.5v3c0,.28-.22,.5-.5,.5Z"/></svg>
