<?xml version="1.0" encoding="UTF-8"?>
<svg xmlns="http://www.w3.org/2000/svg" id="Layer_1" data-name="Layer 1" width="512" height="512" viewBox="0 0 24 24"><path d="M10,11.5c0,.276-.224,.5-.5,.5H3.5c-.276,0-.5-.224-.5-.5s.224-.5,.5-.5h6c.276,0,.5,.224,.5,.5Zm10.5-.5h-2.5v-2.5c0-.276-.224-.5-.5-.5s-.5,.224-.5,.5v2.5h-2.5c-.276,0-.5,.224-.5,.5s.224,.5,.5,.5h2.5v2.5c0,.276,.224,.5,.5,.5s.5-.224,.5-.5v-2.5h2.5c.276,0,.5-.224,.5-.5s-.224-.5-.5-.5Zm3.5-2.5v9c0,2.481-2.019,4.5-4.5,4.5H4.5c-2.481,0-4.5-2.019-4.5-4.5V8.5c0-1.76,1.306-3.221,3-3.465v-1.535c0-.827,.673-1.5,1.5-1.5h4c.827,0,1.5,.673,1.5,1.5v1.5h4v-1.5c0-.827,.673-1.5,1.5-1.5h4c.827,0,1.5,.673,1.5,1.5v1.535c1.694,.244,3,1.705,3,3.465Zm-1,0c0-1.379-1.122-2.5-2.5-2.5-.276,0-.5-.224-.5-.5V3.5c0-.275-.224-.5-.5-.5h-4c-.276,0-.5,.225-.5,.5v2c0,.276-.224,.5-.5,.5h-5c-.276,0-.5-.224-.5-.5V3.5c0-.275-.224-.5-.5-.5H4.5c-.276,0-.5,.225-.5,.5v2c0,.276-.224,.5-.5,.5-1.378,0-2.5,1.121-2.5,2.5v9c0,1.93,1.57,3.5,3.5,3.5h15c1.93,0,3.5-1.57,3.5-3.5V8.5Z"/></svg>
