<?xml version="1.0" encoding="UTF-8"?>
<svg xmlns="http://www.w3.org/2000/svg" id="Layer_1" data-name="Layer 1" viewBox="0 0 24 24" width="512" height="512"><path d="m23.953,9.174L19.771.287c-.119-.249-.417-.357-.666-.239-.25.117-.357.415-.24.665l.485,1.031-15.173,6.833c-1.699.734-2.551,2.64-2.018,4.374l-1.87.851c-.251.114-.362.411-.248.662.084.185.265.293.456.293.069,0,.14-.015.207-.045l1.88-.855c.401.62.981,1.101,1.681,1.382.435.175.889.262,1.344.262.487,0,.976-.101,1.44-.301l5.596-2.521-5.587,10.587c-.129.244-.035.547.209.676.245.129.546.035.676-.209l5.621-10.652,5.492,10.648c.089.172.264.271.445.271.077,0,.155-.018.229-.056.246-.127.342-.428.215-.674l-5.809-11.262,8.289-3.733.623,1.325c.085.181.265.287.453.287.071,0,.144-.016.212-.048.25-.117.357-.415.24-.665ZM6.645,14.285c-.644.278-1.357.287-2.007.026-.651-.262-1.159-.761-1.432-1.407-.555-1.314.06-2.844,1.375-3.412l15.195-6.843,2.221,4.72-15.353,6.916Z"/></svg>
