<?xml version="1.0" encoding="UTF-8"?>
<svg xmlns="http://www.w3.org/2000/svg" id="Layer_1" data-name="Layer 1" viewBox="0 0 24 24" width="512" height="512"><path d="M23.34,10.183c.432-.65,.66-1.405,.66-2.183,0-1.256-.573-2.414-1.571-3.179-1-.764-2.289-1.01-3.536-.672-.026,.007-.051,.015-.077,.022-.599-.595-1.388-1.009-2.282-1.136-.178-.022-.649-.083-.926-.731-.599-1.399-2.014-2.304-3.607-2.304s-3.008,.904-3.607,2.304c-.277,.648-.749,.709-.964,.736-.876,.126-1.656,.537-2.249,1.13-.024-.007-.049-.014-.073-.021-1.25-.338-2.536-.092-3.536,.672-.999,.765-1.571,1.923-1.571,3.179,0,.777,.228,1.532,.66,2.183,.276,.416,.33,.928,.148,1.404-.204,.533-.308,1.093-.308,1.663,0,1.513,.731,2.948,1.956,3.84,.344,.251,.538,.596,.545,.97,.017,.921,.434,1.796,1.275,2.677,.761,.796,1.701,1.245,2.647,1.263,.026,0,.052,0,.078,0,.811,0,1.589-.245,2.242-.687l2.394,2.531s.123,.156,.363,.156,.362-.155,.363-.156l2.394-2.531c.653,.443,1.431,.687,2.242,.687,.026,0,.052,0,.078,0,.947-.018,1.887-.467,2.647-1.263,.841-.881,1.258-1.756,1.275-2.677,.007-.374,.201-.719,.545-.97,1.225-.892,1.956-2.327,1.956-3.84,0-.57-.104-1.13-.307-1.663-.182-.477-.128-.988,.147-1.404ZM7.593,4.027c1.006-.128,1.491-.795,1.72-1.331,.44-1.03,1.495-1.696,2.687-1.696s2.247,.666,2.687,1.696c.229,.536,.713,1.203,1.742,1.334,1.465,.21,2.571,1.486,2.571,2.97,0,.742-.273,1.454-.769,2.005-.674,.75-.863,1.773-.492,2.673,.173,.421,.261,.865,.261,1.322,0,1.16-.577,2.242-1.543,2.895-.542,.365-.922,.899-1.1,1.544-.372,1.344-1.51,2.327-2.857,2.524V7.5c0-.276-.224-.5-.5-.5s-.5,.224-.5,.5v12.463c-1.348-.198-2.485-1.18-2.857-2.524-.178-.645-.558-1.179-1.1-1.544-.966-.652-1.543-1.734-1.543-2.895,0-.457,.088-.901,.261-1.322,.371-.899,.182-1.923-.492-2.673-.496-.551-.769-1.263-.769-2.005,0-1.483,1.105-2.76,2.593-2.973Zm6.412,16.625l-1.506,1.592v-1.273c.502-.057,.983-.198,1.427-.411,.026,.031,.052,.061,.079,.092Zm-3.932-.091c.444,.213,.925,.354,1.427,.411v1.273l-1.506-1.592c.027-.03,.053-.06,.079-.091Zm-3.131,.439c-.678-.013-1.368-.352-1.943-.954-.668-.699-.986-1.336-.998-2.003-.013-.686-.361-1.327-.956-1.761-.967-.704-1.544-1.838-1.544-3.031,0-.447,.081-.887,.242-1.306,.299-.783,.208-1.627-.249-2.314-.322-.486-.493-1.05-.493-1.63,0-.941,.43-1.811,1.179-2.384,.664-.508,1.5-.708,2.337-.572-.329,.583-.516,1.252-.516,1.956,0,.989,.364,1.939,1.026,2.675,.415,.46,.534,1.082,.311,1.622-.223,.542-.336,1.115-.336,1.703,0,1.492,.741,2.885,1.983,3.723,.341,.23,.582,.57,.695,.982,.26,.938,.81,1.739,1.536,2.317-.579,.627-1.402,.963-2.273,.977Zm15.565-11.369c-.457,.688-.548,1.531-.249,2.314,.16,.419,.241,.858,.241,1.306,0,1.193-.577,2.327-1.544,3.031-.595,.434-.943,1.075-.956,1.761-.012,.667-.33,1.304-.999,2.003-.575,.603-1.265,.941-1.943,.954-.869-.013-1.694-.35-2.272-.977,.726-.578,1.276-1.379,1.536-2.318,.114-.411,.354-.751,.695-.981,1.242-.838,1.983-2.23,1.983-3.723,0-.588-.113-1.161-.336-1.703-.223-.54-.104-1.162,.311-1.622,.662-.735,1.026-1.686,1.026-2.675,0-.704-.187-1.373-.518-1.956,.838-.136,1.675,.064,2.339,.572,.749,.573,1.179,1.442,1.179,2.384,0,.58-.17,1.144-.493,1.63Z"/></svg>
