<?xml version="1.0" encoding="UTF-8"?>
<svg xmlns="http://www.w3.org/2000/svg" id="Layer_1" data-name="Layer 1" viewBox="0 0 24 24" width="512" height="512"><path d="M24,15v.5c0,.28-.22,.5-.5,.5s-.5-.22-.5-.5v-.5c0-1.1-.9-2-2-2h-2v9.5c0,.28-.22,.5-.5,.5s-.5-.22-.5-.5V13h-2c-1.1,0-2,.9-2,2v.5c0,.28-.22,.5-.5,.5s-.5-.22-.5-.5v-.5c0-1.65,1.35-3,3-3h5c1.65,0,3,1.35,3,3ZM14.5,2c1.93,0,3.5,1.57,3.5,3.5v1c0,.28,.22,.5,.5,.5s.5-.22,.5-.5v-1c0-2.48-2.02-4.5-4.5-4.5H4.5C2.02,1,0,3.02,0,5.5v1c0,.28,.22,.5,.5,.5s.5-.22,.5-.5v-1c0-1.93,1.57-3.5,3.5-3.5h4.5V22.5c0,.28,.22,.5,.5,.5s.5-.22,.5-.5V2h4.5Z"/></svg>
