<?xml version="1.0" encoding="UTF-8"?>
<svg xmlns="http://www.w3.org/2000/svg" id="Layer_1" data-name="Layer 1" viewBox="0 0 24 24" width="512" height="512"><path d="m20,6h-4c-2.206,0-4,1.794-4,4v10c0,2.206,1.794,4,4,4h4c2.206,0,4-1.794,4-4v-10c0-2.206-1.794-4-4-4Zm3,14c0,1.654-1.346,3-3,3h-4c-1.654,0-3-1.346-3-3v-10c0-1.654,1.346-3,3-3h4c1.654,0,3,1.346,3,3v10Zm-5-5c-1.654,0-3,1.346-3,3s1.346,3,3,3,3-1.346,3-3-1.346-3-3-3Zm0,5c-1.103,0-2-.897-2-2s.897-2,2-2,2,.897,2,2-.897,2-2,2Zm-1.5-8.5c0-.828.672-1.5,1.5-1.5s1.5.672,1.5,1.5-.672,1.5-1.5,1.5-1.5-.672-1.5-1.5Zm-6.5,5v4c0,.276-.224.5-.5.5h-3c-.276,0-.5-.224-.5-.5s.224-.5.5-.5h2.5v-3h-4.5c-2.481,0-4.5-2.019-4.5-4.5V4.5C0,2.019,2.019,0,4.5,0h12c2.054,0,3.847,1.388,4.358,3.375.068.267-.092.54-.359.609-.271.07-.54-.093-.609-.36-.397-1.545-1.792-2.625-3.39-2.625H4.5c-1.93,0-3.5,1.57-3.5,3.5v8c0,1.93,1.57,3.5,3.5,3.5h5c.276,0,.5.224.5.5Z"/></svg>
