<?xml version="1.0" encoding="UTF-8"?>
<svg xmlns="http://www.w3.org/2000/svg" id="Layer_1" data-name="Layer 1" viewBox="0 0 24 24" width="512" height="512"><path d="M13.49,24h-2.99c-1.94,0-3.51-1.56-3.51-3.47v-7.53s-2.33,0-2.33,0c-1.1,0-2.04-.63-2.45-1.65s-.19-2.12,.58-2.9L9.34,1.12c1.48-1.48,3.85-1.48,5.31-.02l6.58,7.37c.77,.77,.98,1.88,.57,2.89-.42,1.01-1.35,1.64-2.45,1.65h-2.35v7.53c0,1.92-1.57,3.47-3.51,3.47ZM7.5,12c.13,0,.26,.05,.35,.15,.09,.09,.15,.22,.15,.35v8.03c0,1.36,1.12,2.47,2.5,2.47h2.99c1.38,0,2.51-1.11,2.51-2.47V12.5c0-.28,.22-.5,.5-.5h2.84c.81,0,1.32-.53,1.53-1.03,.2-.5,.22-1.23-.36-1.81,0,0-.01-.01-.02-.02L13.92,1.78c-1.05-1.05-2.79-1.04-3.86,.02L3.51,9.14c-.6,.6-.59,1.33-.38,1.83,.2,.5,.71,1.03,1.53,1.03h2.84Z"/></svg>
