<?xml version="1.0" encoding="UTF-8"?>
<svg xmlns="http://www.w3.org/2000/svg" id="Layer_1" data-name="Layer 1" viewBox="0 0 24 24" width="512" height="512"><path d="M16.5,4h-4V1.005c3.806,.074,6.826,.964,6.856,.973,.048,.015,.096,.021,.144,.021,.215,0,.414-.14,.479-.356,.08-.265-.07-.543-.335-.622-.139-.042-3.451-1.021-7.644-1.021S4.495,.979,4.356,1.021c-.265,.079-.415,.357-.335,.622,.079,.266,.358,.415,.622,.335,.031-.009,3.051-.899,6.856-.973v2.995H7.5c-2.481,0-4.5,2.019-4.5,4.5v8c0,2.481,2.019,4.5,4.5,4.5h.066l-1.482,2.223c-.153,.229-.091,.54,.139,.693,.085,.057,.182,.084,.277,.084,.161,0,.319-.078,.416-.223l1.852-2.777h6.465l1.852,2.777c.097,.145,.255,.223,.416,.223,.096,0,.192-.027,.277-.084,.229-.153,.292-.464,.139-.693l-1.482-2.223h.066c2.481,0,4.5-2.019,4.5-4.5V8.5c0-2.481-2.019-4.5-4.5-4.5Zm-4,10v-5h7.5v5h-7.5Zm-8.5,0v-5h7.5v5H4ZM7.5,5h9c1.76,0,3.221,1.306,3.464,3H4.036c.243-1.694,1.704-3,3.464-3Zm9,15h-.993s-.009,0-.013,0H7.5c-1.93,0-3.5-1.57-3.5-3.5v-1.5h3v1.5c0,.276,.224,.5,.5,.5s.5-.224,.5-.5v-1.5h8v1.5c0,.276,.224,.5,.5,.5s.5-.224,.5-.5v-1.5h3v1.5c0,1.93-1.57,3.5-3.5,3.5Z"/></svg>
