<?xml version="1.0" encoding="UTF-8"?>
<svg xmlns="http://www.w3.org/2000/svg" id="Layer_1" data-name="Layer 1" width="512" height="512" viewBox="0 0 24 24"><path d="M19.976,4.046C17.398,1.743,14.074,.689,10.614,1.078,5.207,1.688,.785,6.061,.1,11.478c-.481,3.807,.799,7.516,3.512,10.178,.883,.867,2.05,1.345,3.287,1.345h10.21c1.204,0,2.317-.427,3.135-1.203,2.423-2.3,3.757-5.406,3.757-8.747,0-3.436-1.467-6.718-4.024-9.004Zm-.421,17.026c-.631,.598-1.5,.928-2.446,.928H6.898c-.973,0-1.892-.376-2.586-1.058C1.824,18.501,.65,15.097,1.092,11.603,1.72,6.639,5.771,2.63,10.727,2.072c.432-.049,.862-.073,1.288-.073,2.702,0,5.254,.97,7.294,2.793,2.346,2.097,3.691,5.106,3.691,8.258,0,3.063-1.224,5.913-3.445,8.022Zm-7.055-10.009V5.5c0-.276-.224-.5-.5-.5s-.5,.224-.5,.5v5.563c-.862,.223-1.5,1.007-1.5,1.937,0,1.103,.897,2,2,2s2-.897,2-2c0-.93-.638-1.714-1.5-1.937Zm-.5,2.937c-.551,0-1-.448-1-1s.449-1,1-1,1,.448,1,1-.449,1-1,1Zm-3.059-7.868c.129,.244,.036,.546-.208,.676-2.303,1.218-3.733,3.591-3.733,6.192,0,1.942,.817,3.813,2.241,5.134,.203,.188,.214,.504,.027,.706-.099,.106-.232,.16-.367,.16-.122,0-.244-.044-.34-.134-1.628-1.509-2.562-3.646-2.562-5.866,0-2.974,1.635-5.686,4.266-7.077,.244-.128,.547-.035,.676,.209Zm11.059,6.868c0,2.219-.934,4.357-2.562,5.866-.096,.09-.218,.134-.34,.134-.134,0-.269-.054-.366-.16-.188-.202-.176-.519,.026-.706,1.424-1.321,2.241-3.192,2.241-5.134,0-2.603-1.431-4.975-3.733-6.192-.244-.13-.338-.432-.209-.676,.13-.245,.435-.337,.676-.209,2.632,1.392,4.267,4.104,4.267,7.077Z"/></svg>
