<?xml version="1.0" encoding="UTF-8"?>
<svg xmlns="http://www.w3.org/2000/svg" id="Layer_1" data-name="Layer 1" viewBox="0 0 24 24" width="512" height="512"><path d="M12,7c-2.757,0-5,2.243-5,5s2.243,5,5,5,5-2.243,5-5-2.243-5-5-5Zm0,9c-2.206,0-4-1.794-4-4s1.794-4,4-4,4,1.794,4,4-1.794,4-4,4Zm11.5-4.5h-1.513c-.253-5.117-4.37-9.234-9.487-9.487V.5c0-.276-.224-.5-.5-.5s-.5,.224-.5,.5v1.513C6.383,2.266,2.266,6.383,2.013,11.5H.5c-.276,0-.5,.224-.5,.5s.224,.5,.5,.5h1.513c.253,5.117,4.37,9.234,9.487,9.487v1.513c0,.276,.224,.5,.5,.5s.5-.224,.5-.5v-1.513c5.117-.253,9.234-4.371,9.487-9.487h1.513c.276,0,.5-.224,.5-.5s-.224-.5-.5-.5Zm-11.5,9.5c-4.962,0-9-4.037-9-9S7.038,3,12,3s9,4.037,9,9-4.038,9-9,9Z"/></svg>
