<?xml version="1.0" encoding="UTF-8"?>
<svg xmlns="http://www.w3.org/2000/svg" id="Layer_1" data-name="Layer 1" viewBox="0 0 24 24" width="512" height="512"><path d="M23.5,3H.5c-.28,0-.5-.22-.5-.5s.22-.5,.5-.5H23.5c.28,0,.5,.22,.5,.5s-.22,.5-.5,.5Zm.5,18.5c0-.28-.22-.5-.5-.5H.5c-.28,0-.5,.22-.5,.5s.22,.5,.5,.5H23.5c.28,0,.5-.22,.5-.5Zm-4-8.5v-2.5c0-1.93-1.57-3.5-3.5-3.5H7.5c-1.93,0-3.5,1.57-3.5,3.5v2.5c0,1.93,1.57,3.5,3.5,3.5h9c1.93,0,3.5-1.57,3.5-3.5Zm-3.5-5c1.38,0,2.5,1.12,2.5,2.5v2.5c0,1.38-1.12,2.5-2.5,2.5H7.5c-1.38,0-2.5-1.12-2.5-2.5v-2.5c0-1.38,1.12-2.5,2.5-2.5h9Z"/></svg>
