<?xml version="1.0" encoding="UTF-8"?>
<svg xmlns="http://www.w3.org/2000/svg" id="Layer_1" data-name="Layer 1" viewBox="0 0 24 24" width="512" height="512"><path d="M20,14.5c0-1.272-.682-2.387-1.7-3,1.009-.608,1.688-1.711,1.698-2.972v-.028c.001-.013,0-.026,0-.038-.021-1.417-.879-2.668-2.198-3.196l-2.8-1.12V1h.5c.276,0,.5-.224,.5-.5s-.224-.5-.5-.5h-7c-.276,0-.5,.224-.5,.5s.224,.5,.5,.5h.5v3.146l-2.8,1.12c-1.318,.528-2.176,1.777-2.198,3.195-.001,.013-.002,.026-.002,.04v.017c0,.013,0,.026,.002,.039,.019,1.248,.696,2.34,1.698,2.944-1.017,.613-1.7,1.728-1.7,3s.682,2.387,1.699,3c-1.017,.613-1.699,1.728-1.699,3,0,1.93,1.57,3.5,3.5,3.5h9c1.93,0,3.5-1.57,3.5-3.5,0-1.272-.682-2.387-1.699-3,1.017-.613,1.699-1.728,1.699-3ZM5.001,8.508c.003-1.024,.619-1.933,1.57-2.313l3.114-1.246c.19-.076,.314-.26,.314-.464V1h4v3.484c0,.205,.124,.388,.314,.464l3.114,1.246c.951,.381,1.567,1.289,1.57,2.312-.002,1.375-1.123,2.494-2.499,2.494H7.5c-1.376,0-2.497-1.119-2.499-2.492Zm13.999,11.992c0,1.378-1.121,2.5-2.5,2.5H7.5c-1.379,0-2.5-1.122-2.5-2.5s1.121-2.5,2.5-2.5h9c1.379,0,2.5,1.122,2.5,2.5Zm-11.5-3.5c-1.379,0-2.5-1.122-2.5-2.5s1.121-2.5,2.5-2.5h9c1.379,0,2.5,1.122,2.5,2.5s-1.121,2.5-2.5,2.5H7.5Z"/></svg>
