<?xml version="1.0" encoding="UTF-8"?>
<svg xmlns="http://www.w3.org/2000/svg" id="Layer_1" data-name="Layer 1" viewBox="0 0 24 24" width="512" height="512"><path d="M24,6.92h0c-.06-1.89-.87-3.66-2.3-4.99-1.45-1.35-3.2-1.93-5.2-1.93s-3.71,.88-5.05,2.31c-.64,.69-2.15,2.31-6.46,10.2-.79,1.45-4.29,7.15-4.68,7.85-.32,.58-.4,1.26-.2,1.9,.19,.64,.62,1.16,1.22,1.47,.37,.19,.75,.28,1.14,.28,.86,0,1.68-.45,2.13-1.26,.37-.67,9.28-15.82,10.38-16.99,.89-.95,2.38-1.01,3.32-.13,.7,.65,.9,1.65,.5,2.55-.16,.34-.22,.63-.22,.99,0,.87,.51,2.34,2.43,2.34,1.11,0,2.07-.65,2.45-1.66,.39-1.05,.58-2.03,.55-2.92Zm-14.05-.92s0,0,0,0c0,0,0,0,0,0Zm-3.53,6s0,0,0,0h0Zm-2.7,10.26c-.38,.69-1.23,.94-1.93,.58-.35-.18-.61-.49-.72-.87-.11-.38-.07-.78,.12-1.12,.37-.67,.99-1.68,1.71-2.85h3.4c-.27,.45-2.19,3.57-2.58,4.26Zm3.17-5.24s0,0,0,0c0,0,0,0,0,0Zm1.53-2.65c-.43,.8-.97,1.7-1.52,2.63H3.51c.84-1.37,1.71-2.81,2.36-4.01,.19-.34,.37-.67,.54-.99h3.32c-.46,.81-.9,1.62-1.32,2.37Zm1.89-3.37h-3.34c1.26-2.24,2.23-3.84,2.97-5h3.52c-.91,1.22-2.05,3.08-3.16,5Zm5.69-6.92c-.62,.13-1.2,.44-1.69,.92h-3.7c.84-1.23,1.31-1.72,1.57-2,1.04-1.12,2.41-1.78,3.82-1.95v3.04Zm3.09,.92s-.07-.07-.11-.11c-.56-.52-1.26-.81-1.98-.87V1c1.45,.05,2.88,.6,4.02,1.66,.72,.67,1.26,1.47,1.59,2.34h-3.52Zm3.42,4.49c-.23,.61-.82,1.01-1.51,1.01-1.32,0-1.43-1.03-1.43-1.34,0-.21,.04-.36,.14-.58,.38-.85,.38-1.77,.04-2.57h3.14c.06,.31,.09,.63,.1,.95,.02,.75-.15,1.63-.49,2.54Z"/></svg>
