<?xml version="1.0" encoding="UTF-8"?>
<svg xmlns="http://www.w3.org/2000/svg" id="Layer_1" data-name="Layer 1" viewBox="0 0 24 24" width="512" height="512"><path d="M11.5,20c-.071,0-.144-.015-.213-.048-.25-.118-.356-.416-.239-.666l2.848-6.03c.142-.223,.109-.41,.044-.531-.036-.068-.143-.225-.346-.225h-4.187c-.516,0-.975-.281-1.227-.752-.258-.48-.237-1.053,.056-1.494l2.812-5.967c.118-.249,.416-.357,.666-.239,.25,.118,.356,.416,.239,.666l-2.848,6.03c-.142,.223-.109,.41-.044,.532,.036,.067,.143,.225,.346,.225h4.187c.516,0,.975,.281,1.228,.752,.258,.48,.235,1.053-.057,1.494l-2.812,5.967c-.085,.181-.265,.287-.453,.287Zm10.473-4h.527c.827,0,1.5-.673,1.5-1.5v-5c0-.827-.673-1.5-1.5-1.5h-.527c-.25-2.247-2.16-4-4.473-4h-3c-.276,0-.5,.224-.5,.5s.224,.5,.5,.5h3c1.93,0,3.5,1.57,3.5,3.5,0,.276,.224,.5,.5,.5h1c.275,0,.5,.224,.5,.5v5c0,.276-.225,.5-.5,.5h-1c-.276,0-.5,.224-.5,.5,0,1.93-1.57,3.5-3.5,3.5h-3c-.276,0-.5,.224-.5,.5s.224,.5,.5,.5h3c2.312,0,4.223-1.753,4.473-4Zm-12.973,3.5c0-.276-.224-.5-.5-.5H4.5c-1.93,0-3.5-1.57-3.5-3.5v-7c0-1.93,1.57-3.5,3.5-3.5h4c.276,0,.5-.224,.5-.5s-.224-.5-.5-.5H4.5C2.019,4,0,6.019,0,8.5v7c0,2.481,2.019,4.5,4.5,4.5h4c.276,0,.5-.224,.5-.5Z"/></svg>
