<?xml version="1.0" encoding="UTF-8"?>
<svg xmlns="http://www.w3.org/2000/svg" id="Layer_1" data-name="Layer 1" viewBox="0 0 24 24">
  <path d="m23.973,23.337l-2.776-8.063c-.271-.773-.936-1.273-1.696-1.273s-1.426.5-1.697,1.275l-2.776,8.062c-.09.262.049.546.31.636.259.09.546-.048.635-.31l.917-2.663h5.221l.917,2.663c.071.207.265.337.473.337.054,0,.109-.009.163-.027.261-.09.4-.374.31-.636Zm-6.739-3.337l1.514-4.396c.264-.756,1.241-.754,1.503-.002l1.515,4.398h-4.532Zm-1.528-10.669c-.44-.831-1.265-1.327-2.206-1.327l-4.864-.004,1.413-5.796c.294-1.029-.218-1.796-.817-2.073-.552-.257-1.351-.157-1.893.654L.435,12.103c-.528.778-.581,1.739-.14,2.57s1.265,1.327,2.206,1.327h4.864l-1.414,5.799c-.294,1.03.218,1.797.818,2.074.173.08.369.125.574.125.452,0,.945-.221,1.317-.78l6.906-11.316c.528-.778.581-1.739.141-2.57Zm-.981,2.028l-6.909,11.32c-.187.28-.417.384-.629.286-.226-.104-.408-.428-.271-.911l1.569-6.437c.036-.148.002-.307-.093-.427-.095-.121-.24-.191-.393-.191H2.5c-.564,0-1.058-.297-1.322-.795-.264-.499-.233-1.075.097-1.562L8.182,1.323c.14-.211.305-.321.469-.321.054,0,.108.012.161.036.226.104.408.428.271.91l-1.568,6.434c-.036.148-.002.307.093.427.094.121.239.191.393.191l5.5.004h0c.564,0,1.058.298,1.322.796.264.498.232,1.073-.097,1.56Z"/>
</svg>
