<?xml version="1.0" encoding="UTF-8"?>
<svg xmlns="http://www.w3.org/2000/svg" id="Layer_1" data-name="Layer 1" viewBox="0 0 24 24" width="512" height="512"><path d="M19.5,6H4.5C2.02,6,0,8.02,0,10.5v9c0,2.48,2.02,4.5,4.5,4.5h15c2.48,0,4.5-2.02,4.5-4.5V10.5c0-2.48-2.02-4.5-4.5-4.5Zm3.5,13.5c0,1.93-1.57,3.5-3.5,3.5H4.5c-1.93,0-3.5-1.57-3.5-3.5V10.5c0-1.93,1.57-3.5,3.5-3.5h15c1.93,0,3.5,1.57,3.5,3.5v9ZM.62,4.52c.85-.97,2.08-1.52,3.38-1.52H20c1.29,0,2.52,.56,3.38,1.52,.18,.21,.16,.52-.04,.71-.1,.08-.21,.12-.33,.12-.14,0-.28-.06-.38-.17-.66-.75-1.62-1.19-2.62-1.19H4c-1,0-1.96,.43-2.62,1.19-.18,.21-.5,.23-.71,.04-.21-.18-.23-.5-.04-.71ZM.62,1.52C1.48,.56,2.71,0,4,0H20c1.29,0,2.52,.56,3.38,1.52,.18,.21,.16,.52-.04,.71-.1,.08-.21,.12-.33,.12-.14,0-.28-.06-.38-.17-.66-.75-1.62-1.19-2.62-1.19H4c-1,0-1.96,.43-2.62,1.19-.18,.21-.5,.23-.71,.04-.21-.18-.23-.5-.04-.71ZM12,10c-4.49,0-8,2.2-8,5s3.51,5,8,5,8-2.2,8-5-3.51-5-8-5Zm0,9c-3.79,0-7-1.83-7-4s3.21-4,7-4,7,1.83,7,4-3.21,4-7,4Zm1.5-4c0,.55-.67,1-1.5,1s-1.5-.45-1.5-1,.67-1,1.5-1,1.5,.45,1.5,1Z"/></svg>
