<?xml version="1.0" encoding="UTF-8"?>
<svg xmlns="http://www.w3.org/2000/svg" id="Layer_1" data-name="Layer 1" viewBox="0 0 24 24" width="512" height="512"><path d="M8.963,24.012c-2.32,0-4.661-.539-6.834-1.647-1.123-.572-1.88-1.62-2.079-2.876-.202-1.277,.206-2.533,1.117-3.444L16.044,1.166c.911-.912,2.169-1.318,3.444-1.116,1.256,.198,2.304,.956,2.876,2.078,2.968,5.823,1.855,12.842-2.77,17.467-2.898,2.897-6.737,4.417-10.632,4.417ZM18.851,.999c-.786,0-1.532,.307-2.1,.874L1.874,16.751h0c-.683,.683-.988,1.624-.836,2.581,.148,.936,.711,1.716,1.545,2.142,5.436,2.77,11.987,1.73,16.305-2.586,4.317-4.317,5.356-10.87,2.586-16.305-.426-.835-1.206-1.397-2.142-1.546-.161-.025-.322-.038-.481-.038Zm-.659,8c-.463,0-.926-.176-1.278-.528-.116-.116-.471-.471-.885-2.204-.083-.352,.019-.712,.272-.966,.254-.253,.611-.358,.965-.272,1.732,.414,2.088,.768,2.204,.884h0c.704,.705,.705,1.853,0,2.559-.353,.353-.816,.528-1.279,.528Zm-1.157-2.998c.306,1.451,.559,1.735,.586,1.763,.314,.314,.829,.314,1.144,0,.314-.315,.315-.828,0-1.144-.028-.028-.315-.281-1.729-.619Zm-3.843,12.998c-.463,0-.926-.176-1.278-.528-.117-.116-.472-.472-.884-2.204-.083-.35,.018-.711,.271-.965s.617-.357,.965-.273c1.733,.413,2.088,.768,2.205,.884h0c.704,.705,.705,1.853,0,2.559-.353,.353-.816,.528-1.279,.528Zm-1.158-2.998c.305,1.45,.559,1.735,.586,1.763,.314,.314,.829,.314,1.144,0,.314-.315,.315-.828,0-1.144-.028-.028-.316-.281-1.73-.619Zm5.158-1.002c-.463,0-.926-.176-1.278-.528-.116-.116-.471-.471-.885-2.204-.083-.352,.019-.712,.272-.966,.254-.253,.611-.358,.965-.272,1.734,.414,2.089,.769,2.205,.885,.704,.704,.705,1.852,0,2.558-.353,.353-.816,.528-1.279,.528Zm-1.157-2.998c.306,1.451,.559,1.735,.586,1.763,.314,.314,.829,.314,1.144,0,.314-.315,.314-.828,0-1.144-.027-.027-.312-.28-1.729-.619Zm-8.842,7.998c-.463,0-.926-.176-1.279-.528h0c-.117-.117-.472-.474-.884-2.204-.083-.35,.018-.711,.271-.965,.254-.255,.616-.357,.965-.273,1.734,.414,2.089,.769,2.205,.885,.342,.341,.53,.795,.53,1.278s-.188,.938-.53,1.279c-.352,.353-.815,.528-1.278,.528Zm-.572-1.235c.315,.314,.828,.314,1.143,0,.153-.153,.237-.356,.237-.572s-.084-.419-.237-.571c-.028-.027-.312-.281-1.729-.619,.303,1.438,.555,1.73,.586,1.763h0Z"/></svg>
