<?xml version="1.0" encoding="UTF-8"?>
<svg xmlns="http://www.w3.org/2000/svg" id="Layer_1" data-name="Layer 1" viewBox="0 0 24 24" width="512" height="512"><path d="m19.083.386c-1.2-.607-2.566-.497-3.66.307L4.425,9.183c-.153.112-.295.235-.425.367V.5c0-.276-.224-.5-.5-.5s-.5.224-.5.5v23c0,.276.224.5.5.5s.5-.224.5-.5v-9.048c.129.13.269.251.42.362l11.013,8.5c.611.449,1.323.687,2.059.687.549,0,1.085-.13,1.593-.387,1.199-.608,1.916-1.775,1.916-3.121V3.507c0-1.346-.717-2.512-1.917-3.121Zm.917,20.106c0,.961-.512,1.795-1.368,2.229-.855.432-1.848.344-2.598-.207L5.021,14.015c-.649-.475-1.021-1.209-1.021-2.015s.372-1.54,1.021-2.015L16.024,1.492c.443-.326.953-.491,1.469-.491.384,0,.771.092,1.138.277.857.435,1.369,1.268,1.369,2.229v16.985Z"/></svg>
