<?xml version="1.0" encoding="UTF-8"?>
<svg xmlns="http://www.w3.org/2000/svg" id="Layer_1" data-name="Layer 1" viewBox="0 0 24 24" width="512" height="512"><path d="M13.83,5.268c1.11-.592,2.461-1.582,3.06-3.088,.192-.486,.132-1.018-.168-1.458-.307-.453-.814-.723-1.358-.723h-6.729c-.544,0-1.052,.27-1.358,.723-.3,.44-.36,.972-.168,1.459,.599,1.505,1.95,2.495,3.06,3.087C5.238,6.62,1,13.094,1,18.25c0,3.17,2.579,5.75,5.75,5.75h10.5c3.171,0,5.75-2.58,5.75-5.75,0-5.156-4.238-11.63-9.17-12.982ZM8.039,1.812c-.068-.173-.045-.366,.065-.528,.121-.178,.319-.285,.531-.285h6.729c.212,0,.41,.106,.531,.285,.11,.162,.134,.354,.065,.527-.788,1.982-3.336,2.952-3.961,3.164-.625-.212-3.173-1.182-3.961-3.163Zm9.211,21.188H6.75c-2.619,0-4.75-2.131-4.75-4.75,0-5.349,4.85-12.25,10-12.25s10,6.901,10,12.25c0,2.619-2.131,4.75-4.75,4.75Z"/></svg>
