<?xml version="1.0" encoding="UTF-8"?>
<svg xmlns="http://www.w3.org/2000/svg" id="Layer_1" data-name="Layer 1" viewBox="0 0 24 24" width="512" height="512"><path d="M16,13.5c0,.276-.224,.5-.5,.5h-1c-.276,0-.5-.224-.5-.5s.224-.5,.5-.5h1c.276,0,.5,.224,.5,.5Zm3.5-.5h-1c-.276,0-.5,.224-.5,.5s.224,.5,.5,.5h1c.276,0,.5-.224,.5-.5s-.224-.5-.5-.5Zm-4,4h-1c-.276,0-.5,.224-.5,.5s.224,.5,.5,.5h1c.276,0,.5-.224,.5-.5s-.224-.5-.5-.5Zm4,0h-1c-.276,0-.5,.224-.5,.5s.224,.5,.5,.5h1c.276,0,.5-.224,.5-.5s-.224-.5-.5-.5ZM15.5,5h-1c-.276,0-.5,.224-.5,.5s.224,.5,.5,.5h1c.276,0,.5-.224,.5-.5s-.224-.5-.5-.5Zm4,0h-1c-.276,0-.5,.224-.5,.5s.224,.5,.5,.5h1c.276,0,.5-.224,.5-.5s-.224-.5-.5-.5Zm-4,4h-1c-.276,0-.5,.224-.5,.5s.224,.5,.5,.5h1c.276,0,.5-.224,.5-.5s-.224-.5-.5-.5Zm4,0h-1c-.276,0-.5,.224-.5,.5s.224,.5,.5,.5h1c.276,0,.5-.224,.5-.5s-.224-.5-.5-.5Zm4.5-4.5v15c0,2.481-2.019,4.5-4.5,4.5H4.5c-2.481,0-4.5-2.019-4.5-4.5V8.852c0-1.216,.502-2.397,1.378-3.241l1.694-1.631c1.361-1.312,3.494-1.312,4.855,0l1.694,1.631c.135,.13,.262,.269,.378,.414v-1.524c0-2.481,2.019-4.5,4.5-4.5h5c2.481,0,4.5,2.019,4.5,4.5Zm-14,4.352c0-.946-.391-1.865-1.072-2.521l-1.694-1.631c-.486-.469-1.11-.703-1.734-.703s-1.248,.234-1.734,.703l-1.694,1.632c-.681,.656-1.072,1.575-1.072,2.521v10.648c0,1.93,1.57,3.5,3.5,3.5h5.5V8.852Zm13-4.352c0-1.93-1.57-3.5-3.5-3.5h-5c-1.93,0-3.5,1.57-3.5,3.5V23h8.5c1.93,0,3.5-1.57,3.5-3.5V4.5ZM6.5,13h-2c-.276,0-.5,.224-.5,.5s.224,.5,.5,.5h2c.276,0,.5-.224,.5-.5s-.224-.5-.5-.5Zm0-4h-2c-.276,0-.5,.224-.5,.5s.224,.5,.5,.5h2c.276,0,.5-.224,.5-.5s-.224-.5-.5-.5Zm0,8h-2c-.276,0-.5,.224-.5,.5s.224,.5,.5,.5h2c.276,0,.5-.224,.5-.5s-.224-.5-.5-.5Z"/></svg>
