<?xml version="1.0" encoding="UTF-8"?>
<svg xmlns="http://www.w3.org/2000/svg" id="Layer_1" data-name="Layer 1" viewBox="0 0 24 24" width="512" height="512"><path d="m12,0C5.383,0,0,5.383,0,12s5.383,12,12,12,12-5.383,12-12S18.617,0,12,0Zm0,23c-6.065,0-11-4.935-11-11S5.935,1,12,1s11,4.935,11,11-4.935,11-11,11Zm6-15.278v9.778c0,.276-.224.5-.5.5s-.5-.224-.5-.5V7.722c0-.361-.151-.622-.396-.68-.247-.052-.496.107-.657.432l-3.502,6.859c-.085.167-.257.272-.445.272h0c-.188,0-.36-.106-.445-.274l-3.5-6.906c-.158-.316-.392-.467-.634-.414-.194.046-.42.26-.42.711v9.778c0,.276-.224.5-.5.5s-.5-.224-.5-.5V7.722c0-.839.479-1.516,1.191-1.684.7-.165,1.39.203,1.756.938l3.054,6.027,3.053-5.98c.372-.744,1.069-1.12,1.779-.953.708.167,1.167.815,1.167,1.652Z"/></svg>
