<?xml version="1.0" encoding="UTF-8"?>
<svg xmlns="http://www.w3.org/2000/svg" id="Layer_1" data-name="Layer 1" width="512" height="512" viewBox="0 0 24 24"><path d="M13.5,24c-.059,0-.118-.01-.176-.032-.259-.097-.389-.385-.292-.644l3-8c.097-.259,.388-.393,.644-.292,.259,.097,.39,.385,.292,.644l-3,8c-.075,.2-.266,.324-.468,.324Zm-4,0c-.059,0-.118-.01-.176-.032-.258-.097-.389-.385-.292-.644l3-8c.097-.259,.385-.393,.644-.292,.258,.097,.39,.385,.292,.644l-3,8c-.075,.2-.266,.324-.468,.324Zm-4,0c-.059,0-.118-.01-.176-.032-.258-.097-.389-.385-.292-.644l3-8c.097-.259,.385-.393,.644-.292,.258,.097,.389,.385,.292,.644l-3,8c-.075,.2-.266,.324-.468,.324Zm13-4.253c-.21,0-.405-.133-.475-.343-.087-.262,.055-.545,.317-.632,2.641-.877,4.554-3.354,4.652-6.025,.116-3.131-2.014-5.899-5.065-6.583-.735-.165-1.347-.638-1.677-1.296-1.412-2.819-4.465-4.324-7.598-3.743C5.917,1.633,3.703,3.816,3.147,6.559c-.167,.819-.191,1.645-.074,2.452,.13,.893-.119,1.714-.685,2.255-1.128,1.078-1.609,2.646-1.289,4.196,.3,1.452,1.296,2.707,2.6,3.276,.253,.11,.369,.405,.258,.658-.11,.253-.402,.369-.659,.258-1.596-.696-2.814-2.225-3.179-3.989-.391-1.89,.199-3.805,1.577-5.122,.329-.314,.469-.82,.387-1.388-.135-.923-.107-1.863,.083-2.796C2.804,3.222,5.338,.724,8.473,.143c3.574-.669,7.061,1.055,8.675,4.278,.194,.389,.56,.668,1.001,.767,3.521,.79,5.98,3.984,5.847,7.597-.116,3.128-2.261,5.916-5.338,6.938-.052,.018-.105,.025-.157,.025Z"/></svg>
