<?xml version="1.0" encoding="UTF-8"?>
<svg xmlns="http://www.w3.org/2000/svg" id="Layer_1" data-name="Layer 1" viewBox="0 0 24 24" width="512" height="512"><path d="m12,10c-1.654,0-3-1.346-3-3s1.346-3,3-3,3,1.346,3,3-1.346,3-3,3Zm0-5c-1.103,0-2,.897-2,2s.897,2,2,2,2-.897,2-2-.897-2-2-2Zm5,10.5c0-2.397-2.337-4.5-5-4.5s-5,2.103-5,4.5c0,.276.224.5.5.5s.5-.224.5-.5c0-1.652,1.71-3.5,4-3.5s4,1.848,4,3.5c0,.276.224.5.5.5s.5-.224.5-.5Zm-4.996,8.163c-.356,0-.715-.126-1.001-.38l-3.897-3.283h-3.606c-1.93,0-3.5-1.57-3.5-3.5V3.5C0,1.57,1.57,0,3.5,0h17c1.93,0,3.5,1.57,3.5,3.5v13c0,1.93-1.57,3.5-3.5,3.5h-3.532l-3.985,3.295c-.275.245-.626.368-.979.368ZM3.5,1c-1.378,0-2.5,1.121-2.5,2.5v13c0,1.379,1.122,2.5,2.5,2.5h3.789c.118,0,.232.042.322.117l4.047,3.409c.199.178.484.179.675.009l4.137-3.421c.09-.073.202-.114.318-.114h3.712c1.379,0,2.5-1.121,2.5-2.5V3.5c0-1.379-1.121-2.5-2.5-2.5H3.5Z"/></svg>
