<?xml version="1.0" encoding="UTF-8"?>
<svg xmlns="http://www.w3.org/2000/svg" id="Layer_1" data-name="Layer 1" viewBox="0 0 24 24" width="512" height="512"><path d="M12,0C5.383,0,0,5.383,0,12s5.383,12,12,12,12-5.383,12-12S18.617,0,12,0Zm0,1c4.48,0,8.343,2.692,10.056,6.544-.438-.35-.984-.544-1.557-.544h-4.185c-1.032,0-2.01,.345-2.823,1h-2.977c-.798-.648-1.786-1-2.829-1H3.501c-.573,0-1.119,.194-1.557,.544C3.657,3.693,7.52,1,12,1Zm4.314,7h4.185c.451,0,.874,.2,1.16,.549,.286,.349,.399,.803,.312,1.245l-.239,1.196c-.233,1.165-1.265,2.01-2.452,2.01h-2.279c-1.149,0-2.146-.779-2.425-1.894l-.562-2.244c.638-.558,1.445-.862,2.301-.862Zm-6.329,.864l-.561,2.242c-.278,1.115-1.275,1.894-2.425,1.894h-2.279c-1.188,0-2.219-.845-2.452-2.01l-.239-1.196c-.088-.442,.025-.896,.312-1.245,.286-.349,.709-.549,1.16-.549H7.686c.847,0,1.646,.298,2.3,.864Zm2.015,14.136c-6.065,0-11-4.935-11-11,0-.558,.042-1.106,.122-1.641l.166,.828c.327,1.63,1.771,2.813,3.433,2.813h2.279c1.608,0,3.005-1.09,3.396-2.651l.587-2.349h2.035l.587,2.349c.391,1.561,1.787,2.651,3.396,2.651h2.279c1.662,0,3.105-1.183,3.433-2.813l.166-.828c.08,.536,.122,1.084,.122,1.641,0,6.065-4.935,11-11,11Zm5.373-6.833c.184,.206,.166,.521-.04,.706-.097,.086-2.414,2.127-5.333,2.127s-5.236-2.041-5.333-2.127c-.206-.184-.224-.5-.04-.706,.183-.207,.498-.225,.706-.041,.021,.019,2.137,1.873,4.667,1.873s4.646-1.854,4.667-1.873c.207-.185,.522-.166,.706,.041Z"/></svg>
