<?xml version="1.0" encoding="UTF-8"?>
<svg xmlns="http://www.w3.org/2000/svg" id="Layer_1" data-name="Layer 1" width="512" height="512" viewBox="0 0 24 24"><path d="M23.767,12.975c-.335,.873-.99,1.562-1.845,1.943L2.713,23.953c-.069,.032-.142,.047-.213,.047-.188,0-.367-.106-.452-.287-.118-.25-.011-.548,.239-.666l14.173-6.666-1.49-3.121c-.117-.245-.413-.354-.658-.24l-3.823,1.755c-1.213,.55-2.642,.056-3.255-1.125l-1.963-4.062c-.614-1.185-.149-2.672,1.044-3.303,.586-.31,1.258-.37,1.889-.173,.632,.198,1.147,.63,1.452,1.218l1.309,2.735c.119,.25,.014,.548-.235,.667-.25,.118-.548,.013-.667-.235l-1.301-2.721c-.174-.335-.48-.592-.856-.71-.377-.119-.774-.081-1.123,.103-.709,.375-.985,1.259-.616,1.971l1.962,4.062c.362,.696,1.22,.993,1.945,.663l3.823-1.755c.743-.336,1.627-.014,1.977,.719l1.493,3.126,4.141-1.948c.62-.275,1.088-.769,1.327-1.392,.239-.624,.222-1.303-.05-1.913-.112-.252,0-.547,.254-.66,.249-.113,.548,0,.66,.253,.38,.854,.404,1.805,.069,2.678ZM2.894,14.54c.788,1.52,2.103,2.695,3.702,3.31,.06,.022,.12,.033,.18,.033,.201,0,.391-.122,.467-.321,.099-.258-.029-.547-.287-.646-1.372-.527-2.499-1.534-3.164-2.818L.962,7.309c-.106-.255-.401-.376-.653-.271-.255,.106-.376,.398-.271,.653l2.855,6.848Zm10.606-5.54c.276,0,.5-.224,.5-.5V.5c0-.276-.224-.5-.5-.5s-.5,.224-.5,.5V8.5c0,.276,.224,.5,.5,.5ZM3,2.5c0-1.378,1.121-2.5,2.5-2.5s2.5,1.122,2.5,2.5-1.121,2.5-2.5,2.5-2.5-1.122-2.5-2.5Zm1,0c0,.827,.673,1.5,1.5,1.5s1.5-.673,1.5-1.5-.673-1.5-1.5-1.5-1.5,.673-1.5,1.5Z"/></svg>
