<?xml version="1.0" encoding="UTF-8"?>
<svg xmlns="http://www.w3.org/2000/svg" id="Layer_1" data-name="Layer 1" viewBox="0 0 24 24" width="512" height="512"><path d="M24,18.5c0-.276-.224-.5-.5-.5H9.5c-1.93,0-3.5-1.57-3.5-3.5V4.5C6,2.019,3.981,0,1.5,0H.5C.224,0,0,.224,0,.5s.224,.5,.5,.5H1.5c1.93,0,3.5,1.57,3.5,3.5V14.5c0,1.963,1.263,3.636,3.019,4.249-.624,.55-1.019,1.355-1.019,2.251,0,1.654,1.346,3,3,3s3-1.346,3-3c0-.768-.29-1.469-.766-2h6.532c-.476,.531-.766,1.232-.766,2,0,1.654,1.346,3,3,3s3-1.346,3-3c0-.768-.29-1.469-.766-2h.266c.276,0,.5-.224,.5-.5Zm-12,2.5c0,1.103-.897,2-2,2s-2-.897-2-2,.897-2,2-2,2,.897,2,2Zm11,0c0,1.103-.897,2-2,2s-2-.897-2-2,.897-2,2-2,2,.897,2,2Zm-2.5-17h-.5v-1.5c0-1.378-1.121-2.5-2.5-2.5h-3c-1.379,0-2.5,1.122-2.5,2.5v1.5h-.5c-1.93,0-3.5,1.57-3.5,3.5v5c0,1.93,1.57,3.5,3.5,3.5h9c1.93,0,3.5-1.57,3.5-3.5V7.5c0-1.93-1.57-3.5-3.5-3.5Zm-7.5-1.5c0-.827,.673-1.5,1.5-1.5h3c.827,0,1.5,.673,1.5,1.5v1.5h-6v-1.5Zm6,2.5V15h-6V5h6Zm-10,7.5V7.5c0-1.378,1.121-2.5,2.5-2.5h.5V15h-.5c-1.379,0-2.5-1.122-2.5-2.5Zm14,0c0,1.378-1.121,2.5-2.5,2.5h-.5V5h.5c1.379,0,2.5,1.122,2.5,2.5v5Z"/></svg>
