<?xml version="1.0" encoding="UTF-8"?>
<svg xmlns="http://www.w3.org/2000/svg" id="Layer_1" data-name="Layer 1" viewBox="0 0 24 24" width="512" height="512"><path d="M12,0C5.383,0,0,5.383,0,12s5.383,12,12,12,12-5.383,12-12S18.617,0,12,0Zm0,23c-6.065,0-11-4.935-11-11S5.935,1,12,1s11,4.935,11,11-4.935,11-11,11ZM7,11c0-.552,.448-1,1-1s1,.448,1,1-.448,1-1,1-1-.448-1-1Zm10,0c0,.552-.448,1-1,1s-1-.448-1-1,.448-1,1-1,1,.448,1,1Zm-1,5.5c0,.87,.824,1.619,.833,1.627,.205,.184,.224,.499,.04,.705-.099,.111-.236,.168-.374,.168-.118,0-.235-.041-.331-.126-.041-.036-.894-.803-1.116-1.874h-6.105c-.222,1.071-1.075,1.838-1.116,1.874-.095,.085-.213,.126-.331,.126-.138,0-.275-.057-.374-.168-.184-.206-.165-.521,.04-.705,.008-.008,.833-.757,.833-1.627s-.824-1.619-.833-1.627c-.205-.184-.224-.499-.04-.705,.183-.205,.499-.226,.704-.042,.041,.036,.894,.803,1.116,1.874h6.105c.222-1.071,1.075-1.838,1.116-1.874,.206-.185,.521-.164,.704,.042,.184,.206,.165,.521-.04,.705-.008,.008-.833,.757-.833,1.627Zm3.981-6.862c-.063,.219-.263,.362-.48,.362-.046,0-.092-.006-.138-.02-2.259-.645-3.738-2.445-4.27-3.19-.161-.225-.108-.536,.116-.697,.225-.16,.538-.107,.697,.117,.471,.658,1.775,2.251,3.73,2.81,.266,.075,.419,.353,.344,.618Zm-15.344,.343c-.046,.014-.092,.02-.138,.02-.217,0-.417-.144-.48-.362-.076-.266,.078-.543,.344-.618,1.955-.559,3.26-2.151,3.73-2.81,.161-.225,.473-.276,.697-.117,.225,.161,.277,.473,.116,.697-.531,.745-2.011,2.546-4.27,3.19Z"/></svg>
