<?xml version="1.0" encoding="UTF-8"?>
<svg xmlns="http://www.w3.org/2000/svg" id="Layer_1" data-name="Layer 1" viewBox="0 0 24 24" width="512" height="512"><path d="M18.892,12.714c1.259-.542,2.108-1.785,2.108-3.214,0-1.93-1.57-3.5-3.5-3.5-.969,0-1.859,.394-2.5,1.047V2.5c0-1.379-1.121-2.5-2.5-2.5H7.5c-.276,0-.5,.224-.5,.5s.224,.5,.5,.5h1.5v7.5c0,.895-1.194,1.898-2.46,2.961-1.659,1.396-3.54,2.976-3.54,5.039,0,2.456,1.438,4.395,2.847,5.968,.872,.974,2.106,1.532,3.386,1.532h5.535c1.279,0,2.514-.559,3.386-1.533,1.408-1.572,2.847-3.511,2.847-5.967,0-1.472-.957-2.698-2.108-3.786Zm-1.392-5.714c1.379,0,2.5,1.121,2.5,2.5,0,1.188-.821,2.198-1.969,2.444-.191-.164-.382-.325-.571-.483-1.082-.908-2.111-1.774-2.387-2.564,.277-1.117,1.275-1.896,2.427-1.896ZM7.184,12.227c1.448-1.217,2.816-2.366,2.816-3.727V1h2.5c.827,0,1.5,.673,1.5,1.5v6c0,1.36,1.368,2.51,2.816,3.727,.687,.577,1.384,1.163,1.95,1.773H5.234c.566-.611,1.263-1.196,1.95-1.773Zm12.353,2.772c.289,.48,.463,.978,.463,1.502,0,2.12-1.31,3.869-2.591,5.3-.684,.763-1.646,1.2-2.642,1.2h-5.535c-.996,0-1.958-.438-2.642-1.199-1.281-1.432-2.591-3.181-2.591-5.301,0-.523,.173-1.021,.462-1.5h15.038c.013,0,.025,0,.037-.002Z"/></svg>
