<?xml version="1.0" encoding="UTF-8"?>
<svg xmlns="http://www.w3.org/2000/svg" id="Layer_1" data-name="Layer 1" viewBox="0 0 24 24" width="512" height="512"><path d="m17.5,0H6.5C4.019,0,2,2.019,2,4.5v16c0,1.93,1.57,3.5,3.5,3.5h12c2.481,0,4.5-2.019,4.5-4.5V4.5c0-2.481-2.019-4.5-4.5-4.5ZM3,4.5c0-1.93,1.57-3.5,3.5-3.5h11c1.93,0,3.5,1.57,3.5,3.5v12.5H5.5c-.978,0-1.864.404-2.5,1.053V4.5Zm14.5,18.5H5.5c-1.379,0-2.5-1.122-2.5-2.5s1.121-2.5,2.5-2.5h15.5v1.5c0,1.93-1.57,3.5-3.5,3.5Zm-8.406-10.056c0,1.103.897,2,2,2h2c1.103,0,2-.897,2-2h0c.53-.008,1.024-.22,1.396-.599.378-.385.58-.895.57-1.435-.012-.653-.022-1.397-.022-1.967,0-2.726-2.218-4.944-4.944-4.944s-4.944,2.218-4.944,4.937l-.031,1.976c-.009.54.195,1.05.574,1.435.373.38.87.591,1.401.598Zm-.944-4c0-2.175,1.77-3.944,3.944-3.944s3.944,1.77,3.944,3.944c0,.575.011,1.325.022,1.985.005.27-.096.524-.284.716-.189.193-.443.299-.715.299h-.468c-.276,0-.5.224-.5.5v.5c0,.551-.448,1-1,1h-2c-.552,0-1-.449-1-1v-.5c0-.276-.224-.5-.5-.5h-.476c-.271,0-.523-.106-.713-.299-.189-.192-.292-.447-.287-.717l.031-1.984Zm.944,0c0-.552.448-1,1-1s1,.448,1,1-.448,1-1,1-1-.448-1-1Zm4,0c0-.552.448-1,1-1s1,.448,1,1-.448,1-1,1-1-.448-1-1Z"/></svg>
