<?xml version="1.0" encoding="UTF-8"?>
<svg xmlns="http://www.w3.org/2000/svg" id="Layer_1" data-name="Layer 1" viewBox="0 0 24 24" width="512" height="512"><path d="M12,0C5.383,0,0,5.383,0,12s5.383,12,12,12,12-5.383,12-12S18.617,0,12,0Zm0,23c-6.065,0-11-4.935-11-11S5.935,1,12,1s11,4.935,11,11-4.935,11-11,11Z"/><path d="M17.087,9H6.913c-.578,0-1.076,.333-1.3,.87-.224,.535-.106,1.146,.3,1.556l5.087,5.154c.267,.271,.622,.419,1,.419s.733-.149,1-.419l5.087-5.154c.406-.411,.523-1.022,.3-1.557-.225-.536-.723-.87-1.3-.87Zm.289,1.724l-5.088,5.154c-.155,.157-.421,.157-.576,0l-5.087-5.154c-.186-.188-.115-.406-.089-.469,.032-.077,.133-.255,.377-.255h10.174c.244,0,.346,.179,.377,.255,.026,.062,.097,.281-.088,.469Z"/></svg>
