<?xml version="1.0" encoding="UTF-8"?>
<svg xmlns="http://www.w3.org/2000/svg" id="arrow-circle-down" viewBox="0 0 24 24" width="512" height="512"><path d="M19.5,0H4.5C2.019,0,0,2.019,0,4.5v15c0,2.481,2.019,4.5,4.5,4.5h15c2.481,0,4.5-2.019,4.5-4.5V4.5c0-2.481-2.019-4.5-4.5-4.5Zm3.5,19.5c0,1.93-1.57,3.5-3.5,3.5H4.5c-1.93,0-3.5-1.57-3.5-3.5V4.5c0-1.93,1.57-3.5,3.5-3.5h15c1.93,0,3.5,1.57,3.5,3.5v15Z"/><path d="M14.13,5.613c-.534-.223-1.145-.105-1.557,.3l-5.154,5.087c-.27,.267-.419,.622-.419,1s.149,.733,.419,1l5.154,5.087c.273,.269,.634,.412,1.002,.412,.187,0,.375-.037,.555-.112,.537-.224,.87-.722,.87-1.3V6.913c0-.578-.333-1.076-.87-1.3Zm-.13,11.475c0,.244-.179,.345-.256,.377-.062,.025-.283,.095-.468-.089l-5.154-5.087c-.079-.077-.122-.18-.122-.288s.043-.211,.122-.288l5.154-5.087c.098-.097,.204-.124,.293-.124,.08,0,.146,.022,.175,.035,.077,.032,.256,.133,.256,.377v10.175Z"/></svg>
