<?xml version="1.0" encoding="UTF-8"?>
<svg xmlns="http://www.w3.org/2000/svg" id="Layer_1" data-name="Layer 1" viewBox="0 0 24 24" width="512" height="512"><path d="m2,15c0,.552-.448,1-1,1s-1-.448-1-1,.448-1,1-1,1,.448,1,1Zm-1,3c-.552,0-1,.448-1,1s.448,1,1,1,1-.448,1-1-.448-1-1-1Zm0,4c-.552,0-1,.448-1,1s.448,1,1,1,1-.448,1-1-.448-1-1-1Zm4-6c-.552,0-1,.448-1,1s.448,1,1,1,1-.448,1-1-.448-1-1-1Zm0,4c-.552,0-1,.448-1,1s.448,1,1,1,1-.448,1-1-.448-1-1-1ZM23.959,2.946l-2.964,16.357c-.389,2.142-2.251,3.697-4.428,3.697h-5.067c-1.378,0-2.5-1.122-2.5-2.5v-3c0-1.378,1.122-2.5,2.5-2.5h2.187l2.227-12.132c.305-1.662,1.752-2.868,3.442-2.868h2.144c.743,0,1.443.327,1.919.898.477.57.673,1.317.541,2.048Zm-2.114,6.054h-6.041l-1.21,6.59c-.043.237-.25.41-.492.41h-2.603c-.827,0-1.5.673-1.5,1.5v3c0,.827.673,1.5,1.5,1.5h5.067c1.693,0,3.142-1.209,3.444-2.876l1.834-10.124Zm.805-7.461c-.286-.342-.706-.539-1.151-.539h-2.144c-1.207,0-2.241.862-2.459,2.049l-.909,4.951h6.039l.948-5.233c.08-.438-.039-.886-.324-1.229Z"/></svg>
