<?xml version="1.0" encoding="UTF-8"?>
<svg xmlns="http://www.w3.org/2000/svg" id="Layer_1" data-name="Layer 1" viewBox="0 0 24 24">
  <path d="m23.854,8.959c-.311-.941-1.18-1.948-2.688-1.948h-4.958l-1.515-5.032C14.229.532,12.997.017,12,.017s-2.229.516-2.695,1.972l-1.515,5.023H2.83c-1.518,0-2.384,1.007-2.687,1.946-.298.9-.211,2.27,1.017,3.165l4.05,2.96-1.543,5.209c-.469,1.448.265,2.609,1.034,3.163.773.559,2.111.889,3.358-.035l3.938-3.325,3.964,3.345c.506.372,1.063.561,1.659.561.587,0,1.195-.198,1.665-.541.774-.554,1.513-1.716,1.046-3.156l-1.546-5.222,4.049-2.959c1.22-.89,1.327-2.216,1.02-3.164Zm-1.609,2.355l-4.333,3.167c-.171.125-.244.343-.185.546l1.649,5.572c.305.938-.172,1.689-.677,2.049-.61.445-1.51.452-2.12.006l-4.26-3.597c-.093-.079-.208-.118-.322-.118h0l.002-17.923h0c.312,0,1.363.091,1.739,1.26l1.618,5.379c.063.211.258.356.479.356h5.33c1.228,0,1.642.965,1.738,1.259.097.297.333,1.321-.659,2.044Z"/>
</svg>
