<?xml version="1.0" encoding="UTF-8"?>
<svg xmlns="http://www.w3.org/2000/svg" id="Layer_1" data-name="Layer 1" viewBox="0 0 24 24" width="512" height="512"><path d="M12,20c-.276,0-.5-.224-.5-.5,0-2.896,2.21-4.448,3.874-5.364,2.626-1.448,4.038-4.425,3.514-7.409-.493-2.812-2.802-5.121-5.615-5.614-2.021-.356-4.007,.135-5.592,1.378-1.563,1.228-2.535,3.066-2.665,5.042-.019,.276-.258,.479-.532,.466-.276-.018-.484-.256-.466-.532,.149-2.259,1.259-4.36,3.046-5.763C8.874,.283,11.138-.278,13.446,.127c3.219,.565,5.862,3.208,6.427,6.427,.598,3.405-1.017,6.804-4.017,8.457-2.321,1.279-3.356,2.664-3.356,4.489,0,.276-.224,.5-.5,.5Zm-1,3c0,.552,.448,1,1,1s1-.448,1-1-.448-1-1-1-1,.448-1,1Z"/></svg>
