<?xml version="1.0" encoding="UTF-8"?>
<svg xmlns="http://www.w3.org/2000/svg" id="Layer_1" data-name="Layer 1" viewBox="0 0 24 24" width="512" height="512"><path d="M9.65,23c-1.09,0-2.02-.62-2.44-1.62-.42-1-.2-2.1,.57-2.88l2.18-2.18L2.02,8.39c-1.37-1.37-1.37-3.58,0-4.95l1.41-1.41c1.36-1.37,3.58-1.37,4.95,0l7.93,7.93,2.18-2.18c.77-.77,1.88-.98,2.88-.56,1,.42,1.62,1.35,1.62,2.44v9.85c0,1.93-1.57,3.5-3.5,3.5H9.65s0,0,0,0ZM5.91,2c-.64,0-1.28,.24-1.77,.73l-1.41,1.41c-.97,.97-.97,2.56,0,3.54L11.01,15.97c.2,.2,.2,.51,0,.71l-2.53,2.53c-.57,.57-.55,1.3-.35,1.79s.71,1.01,1.52,1.01h9.85c1.38,0,2.5-1.13,2.5-2.5V9.65c0-.81-.52-1.31-1.01-1.52-.49-.2-1.21-.22-1.79,.35l-2.53,2.53c-.19,.19-.52,.19-.71,0L7.68,2.73c-.49-.49-1.13-.73-1.77-.73Z"/></svg>
