<?xml version="1.0" encoding="UTF-8"?>
<svg xmlns="http://www.w3.org/2000/svg" id="Layer_1" data-name="Layer 1" viewBox="0 0 24 24" width="512" height="512"><path d="M23.85,23.15l-2.43-2.43c.37-.67,.58-1.41,.58-2.18v-5.97s.08-.08,.12-.12c.76-.99,1-2.25,.68-3.45l-1.38-5.07c-.28-1.69-1.73-2.92-3.45-2.92H6.04c-1.15,0-2.21,.56-2.86,1.48L.85,.15C.66-.05,.34-.05,.15,.15S-.05,.66,.15,.85L23.15,23.85c.1,.1,.23,.15,.35,.15s.26-.05,.35-.15c.2-.2,.2-.51,0-.71ZM14.1,13.4c.58-.36,1.06-.86,1.39-1.45,.68,1.22,1.98,2.05,3.47,2.05,.74,0,1.43-.22,2.03-.59v5.12c0,.5-.11,1-.32,1.45l-6.58-6.58ZM6.04,2h1.96v3.5c0,.28,.22,.5,.5,.5s.5-.22,.5-.5V2h6v3.5c0,.28,.22,.5,.5,.5s.5-.22,.5-.5V2h1.96c1.23,0,2.26,.88,2.48,2.14l1.39,5.12c.24,.9,.06,1.84-.51,2.58-.57,.74-1.42,1.16-2.36,1.16-1.64,0-2.97-1.33-2.97-2.99,0-.28-.22-.5-.5-.5s-.5,.22-.5,.5c0,1.12-.64,2.14-1.63,2.65L3.92,3.21c.45-.74,1.24-1.21,2.12-1.21Z"/><path d="M17.53,22H6.47c-1.91,0-3.47-1.56-3.47-3.47v-5.12c.61,.37,1.3,.59,2.03,.59,1.1,0,2.16-.46,2.91-1.27,.19-.2,.17-.52-.03-.71-.2-.19-.52-.18-.71,.03-.56,.6-1.35,.95-2.18,.95-.93,0-1.79-.42-2.36-1.16-.57-.74-.75-1.68-.51-2.58l.72-2.64c.07-.27-.08-.54-.35-.61-.27-.07-.54,.09-.61,.35l-.72,2.64c-.33,1.2-.08,2.46,.68,3.45,.03,.05,.08,.08,.12,.12v5.97c0,2.46,2,4.47,4.47,4.47h11.06c.28,0,.5-.22,.5-.5s-.22-.5-.5-.5Z"/></svg>
