<?xml version="1.0" encoding="UTF-8"?>
<svg xmlns="http://www.w3.org/2000/svg" id="Layer_1" data-name="Layer 1" viewBox="0 0 24 24" width="512" height="512"><path d="m23.5,11.493h-.508c-.12-2.657-1.188-5.072-2.872-6.914l.363-.363c.195-.196.195-.512,0-.708-.195-.194-.512-.195-.707,0l-.363.364c-1.843-1.682-4.258-2.747-6.916-2.864V.497C12.497.22,12.273-.003,11.997-.003s-.5.224-.5.5v.512c-2.656.121-5.069,1.188-6.91,2.872l-.367-.367c-.195-.195-.512-.195-.707,0s-.195.512,0,.707l.367.367c-1.681,1.842-2.746,4.256-2.865,6.912h-.515c-.276,0-.5.224-.5.5s.224.5.5.5h.515c.12,2.655,1.186,5.069,2.869,6.91l-.367.367c-.195.195-.195.512,0,.707.098.098.226.146.354.146s.256-.049.354-.146l.367-.367c1.842,1.683,4.256,2.748,6.912,2.868v.512c0,.276.224.5.5.5s.5-.224.5-.5v-.512c2.657-.119,5.071-1.185,6.913-2.868l.364.363c.098.097.226.146.354.146s.256-.049.354-.147c.195-.195.195-.512,0-.707l-.363-.363c1.684-1.843,2.75-4.258,2.868-6.916h.508c.276,0,.5-.224.5-.5s-.224-.5-.5-.5Zm-1.509,0l-6.019.003c-.091-.729-.38-1.398-.811-1.952l4.251-4.257c1.504,1.659,2.46,3.825,2.579,6.207Zm-9.988,3.503c-1.654,0-3-1.346-3-3s1.346-3,3-3,3,1.346,3,3-1.346,3-3,3Zm6.702-10.416l-4.25,4.257c-.555-.432-1.226-.72-1.958-.811V2.009c2.382.116,4.548,1.07,6.208,2.572Zm-7.208-2.571v6.019c-.728.093-1.396.382-1.948.813l-4.254-4.253c1.659-1.503,3.822-2.459,6.203-2.579Zm-6.909,3.286l4.255,4.254c-.429.553-.716,1.22-.807,1.948l-6.019.003c.117-2.38,1.07-4.544,2.571-6.204Zm-2.571,7.204l6.019-.003c.091.729.38,1.398.81,1.951l-4.254,4.254c-1.502-1.659-2.457-3.823-2.575-6.203Zm3.282,6.91l4.254-4.254c.553.43,1.222.719,1.951.81v6.019c-2.381-.118-4.545-1.072-6.205-2.575Zm7.205,2.575v-6.019c.727-.091,1.394-.378,1.947-.807l4.258,4.251c-1.66,1.502-3.824,2.457-6.205,2.574Zm6.912-3.282l-4.257-4.25c.432-.554.722-1.225.814-1.956l6.019-.003c-.117,2.382-1.072,4.548-2.576,6.208Z"/></svg>
