<?xml version="1.0" encoding="UTF-8"?>
<svg xmlns="http://www.w3.org/2000/svg" id="Layer_1" data-name="Layer 1" viewBox="0 0 24 24" width="512" height="512"><path d="m22.999,6.506s0-.004,0-.006c-.003-.02,0,.011,0,.006Z"/><path d="m17.502.002C14.429.002,11.848,2.147,11.176,5.018H2.672c-.79,0-1.528.354-2.024.972C.147,6.613-.042,7.419.123,8.163l1.591,11.707c.294,2.365,2.303,4.149,4.671,4.149h7.367c2.368,0,4.376-1.784,4.67-4.144l1.584-11.672c.172-.783-.018-1.589-.519-2.213-.497-.617-1.234-.971-2.023-.971h-5.255c.648-2.314,2.776-4.016,5.294-4.016,3.031,0,5.497,2.466,5.497,5.497,0,.004,0,.005,0,.006-.016,1.134-.367,2.287-1.028,3.205-.161.224-.11.537.113.698.088.063.191.094.292.094.155,0,.309-.072.406-.208.8-1.111,1.216-2.506,1.216-3.878C23.954,2.872,21.057.002,17.502.002Zm-.072,19.743c-.232,1.866-1.814,3.273-3.679,3.273h-7.367c-1.865,0-3.446-1.407-3.679-3.278l-1.052-7.734h8.852c.276,0,.5-.224.5-.5s-.224-.5-.5-.5H1.517l-.41-3.018c-.106-.485.01-.985.321-1.371.306-.38.76-.599,1.245-.599h8.351c-.012.159-.018.32-.018.481,0,3.583,2.915,6.497,6.497,6.497h.845l-.917,6.749Zm.033-13.727c.485,0,.938.218,1.245.598.311.386.428.886.314,1.412l-.539,3.969h-.98c-3.031,0-5.497-2.466-5.497-5.497,0-.162.007-.323.021-.481h5.437Z"/></svg>
