<?xml version="1.0" encoding="UTF-8"?>
<svg xmlns="http://www.w3.org/2000/svg" id="Layer_1" data-name="Layer 1" viewBox="0 0 24 24" width="512" height="512"><path d="M23.397,22.122c-.149-1.189-.851-2.106-1.375-2.642,.973-1.051,1.978-2.551,1.978-4.269,0-2.134-1.587-3.94-2.533-4.827-.543-.51-1.392-.51-1.934,0-.946,.887-2.533,2.693-2.533,4.827,0,1.718,1.005,3.218,1.978,4.268-.525,.535-1.226,1.452-1.375,2.643l-.095,.752c-.043,.339,.094,.684,.36,.901,.183,.147,.405,.225,.631,.225,.105,0,.212-.017,.316-.051l1.685-.562,1.684,.562c.324,.109,.688,.041,.95-.175,.264-.216,.401-.561,.358-.898l-.095-.753Zm-2.739,.263c-.103-.033-.214-.033-.316,0l-1.842,.615,.095-.753c.153-1.216,1.125-2.119,1.419-2.366,.108-.091,.172-.223,.178-.363s-.048-.277-.149-.376c-.763-.75-2.043-2.259-2.043-3.93,0-1.757,1.389-3.321,2.217-4.099,.081-.075,.182-.113,.283-.113s.202,.038,.283,.113c.828,.777,2.217,2.342,2.217,4.099,0,1.671-1.28,3.18-2.042,3.93-.101,.099-.154,.235-.149,.376s.07,.272,.177,.363c.294,.248,1.267,1.151,1.419,2.366l.095,.752-1.842-.614ZM4.5,11c-.637,0-1.218,.24-1.66,.633C4.088,6.431,8.91,1.302,19.492,1c.135,.008,.257,.046,.354,.14,.1,.098,.155,.227,.155,.364V7.5c0,.276,.224,.5,.5,.5s.5-.224,.5-.5V1.504c0-.404-.167-.798-.458-1.081-.292-.283-.679-.421-1.079-.423C6.504,.371,1.717,7.706,1.507,14.062c-.865,.22-1.507,1.006-1.507,1.938v6c0,1.103,.897,2,2,2s2-.897,2-2v-6c0-.017,0-.034-.001-.05,.162,.033,.33,.05,.501,.05,1.378,0,2.5-1.121,2.5-2.5s-1.122-2.5-2.5-2.5Zm-1.5,11c0,.552-.449,1-1,1s-1-.448-1-1v-6c0-.552,.449-1,1-1s1,.448,1,1v6Zm1.5-7c-.827,0-1.5-.673-1.5-1.5s.673-1.5,1.5-1.5,1.5,.673,1.5,1.5-.673,1.5-1.5,1.5Z"/></svg>
