<?xml version="1.0" encoding="UTF-8"?>
<svg xmlns="http://www.w3.org/2000/svg" id="Layer_1" data-name="Layer 1" viewBox="0 0 24 24" width="512" height="512"><path d="M19.5,0H4.5C2.019,0,0,2.019,0,4.5v15c0,2.481,2.019,4.5,4.5,4.5h15c2.481,0,4.5-2.019,4.5-4.5V4.5c0-2.481-2.019-4.5-4.5-4.5ZM7,18v-5h10v5H7Zm-6,0v-5H6v5H1ZM1,7H11v5H1V7Zm11,5V7h11v5H12ZM7,6V1h10V6H7Zm11,7h5v5h-5v-5Zm5-8.5v1.5h-5V1h1.5c1.93,0,3.5,1.57,3.5,3.5ZM1,4.5c0-1.93,1.57-3.5,3.5-3.5h1.5V6H1v-1.5Zm0,15v-.5H11v4H4.5c-1.93,0-3.5-1.57-3.5-3.5Zm18.5,3.5h-7.5v-4h11v.5c0,1.93-1.57,3.5-3.5,3.5Z"/></svg>
