<?xml version="1.0" encoding="UTF-8"?>
<svg xmlns="http://www.w3.org/2000/svg" id="Layer_1" data-name="Layer 1" viewBox="0 0 24 24" width="512" height="512"><path d="m23,14c0-4.411-3.589-8-8-8h-2v-1.5c0-1.207-.86-2.217-2-2.449V.5c0-.276-.224-.5-.5-.5s-.5.224-.5.5v1.551c-1.14.232-2,1.242-2,2.449v9c0,.276.224.5.5.5h4c.276,0,.5-.224.5-.5v-6.5h2c3.859,0,7,3.14,7,7s-3.141,7-7,7h-4v-3h5.5c.276,0,.5-.224.5-.5s-.224-.5-.5-.5H4.5c-.276,0-.5.224-.5.5s.224.5.5.5h5.5v3H1.5c-.276,0-.5.224-.5.5s.224.5.5.5h2.5v1.5c0,.276.224.5.5.5s.5-.224.5-.5v-1.5h10c.339,0,.672-.028,1-.069v1.569c0,.276.224.5.5.5s.5-.224.5-.5v-1.763c3.445-.892,6-4.017,6-7.737Zm-11-1h-3V4.5c0-.827.673-1.5,1.5-1.5s1.5.673,1.5,1.5v8.5Z"/></svg>
