<?xml version="1.0" encoding="UTF-8"?>
<svg xmlns="http://www.w3.org/2000/svg" id="Layer_1" data-name="Layer 1" viewBox="0 0 24 24" width="512" height="512"><path d="M24,17.5v.003c0,.504-.193,1.007-.576,1.391l-2.574,2.519c-.098,.095-.224,.143-.35,.143-.13,0-.26-.05-.357-.15-.193-.197-.189-.514,.008-.707l2.57-2.515c.054-.054,.082-.12,.121-.183h-4.341c-1.93,0-3.5,1.57-3.5,3.5v2c0,.276-.224,.5-.5,.5s-.5-.224-.5-.5v-2c0-2.481,2.019-4.5,4.5-4.5h4.341c-.039-.064-.069-.131-.124-.187l-2.566-2.511c-.197-.193-.201-.51-.008-.707,.192-.197,.509-.199,.707-.008l2.57,2.515c.386,.386,.579,.891,.58,1.396v.002ZM15.137,1c-1.454,0-2.637,1.183-2.637,2.636v15.16c0,2.869-2.335,5.204-5.204,5.204-2.357,0-4.386-1.558-5.008-3.815-1.417-.848-2.288-2.361-2.288-4.003,0-.936,.281-1.831,.818-2.613-.537-.782-.818-1.678-.818-2.614,0-1.562,.799-3.022,2.105-3.887-.009-.097-.015-.195-.015-.294,0-1.846,1.383-3.375,3.167-3.606,.231-1.784,1.76-3.167,3.605-3.167,1.344,0,2.507,.742,3.137,1.829,.629-1.088,1.793-1.829,3.137-1.829,1.846,0,3.374,1.383,3.605,3.167,1.784,.231,3.167,1.76,3.167,3.606,0,.1-.006,.198-.015,.294,1.307,.865,2.105,2.325,2.105,3.887,0,.397-.052,.792-.153,1.174-.06,.224-.262,.371-.483,.371-.042,0-.086-.005-.129-.017-.267-.071-.426-.345-.354-.612,.08-.298,.12-.606,.12-.917,0-1.316-.725-2.541-1.892-3.196-.186-.104-.285-.315-.247-.524,.027-.15,.048-.304,.048-.461,0-1.454-1.183-2.637-2.637-2.637-.276,0-.5-.224-.5-.5,0-1.454-1.183-2.636-2.636-2.636Zm-3.637,2.636c0-1.454-1.183-2.636-2.637-2.636s-2.636,1.183-2.636,2.636c0,.276-.224,.5-.5,.5-1.454,0-2.637,1.183-2.637,2.637,0,.158,.021,.311,.048,.461,.038,.209-.062,.42-.247,.524-1.167,.655-1.892,1.88-1.892,3.196,0,.832,.287,1.627,.83,2.299,.148,.184,.148,.445,0,.629-.543,.672-.83,1.467-.83,2.299,0,1.347,.75,2.585,1.957,3.232,.127,.067,.219,.188,.251,.328,.442,1.918,2.124,3.258,4.088,3.258,2.318,0,4.204-1.886,4.204-4.204V3.636Z"/></svg>
