<?xml version="1.0" encoding="UTF-8"?>
<svg xmlns="http://www.w3.org/2000/svg" id="Layer_1" data-name="Layer 1" viewBox="0 0 24 24" width="512" height="512"><path d="M17.856,19.085c-.192-.196-.509-.199-.707-.006l-2.882,2.831c-.188,.188-.475,.448-.773,.715-.148,.131-.317,.223-.494,.285V4.5c0-2.481-2.019-4.5-4.5-4.5H.5C.224,0,0,.224,0,.5s.224,.5,.5,.5H8.5c1.93,0,3.5,1.57,3.5,3.5V22.91c-.177-.062-.345-.155-.493-.285-.301-.267-.587-.528-.777-.718l-2.879-2.828c-.198-.194-.513-.192-.708,.006-.193,.197-.19,.514,.006,.707l2.876,2.825c.198,.198,.5,.474,.818,.756,.472,.418,1.064,.627,1.656,.627s1.185-.209,1.657-.627c.317-.282,.62-.559,.814-.753l2.879-2.828c.197-.193,.199-.51,.006-.707Z"/></svg>
