<?xml version="1.0" encoding="UTF-8"?>
<svg xmlns="http://www.w3.org/2000/svg" id="Layer_1" data-name="Layer 1" viewBox="0 0 24 24" width="512" height="512"><path d="m12,15c3.309,0,6-2.691,6-6V2.5c0-1.379-1.121-2.5-2.5-2.5h-7c-1.379,0-2.5,1.121-2.5,2.5v6.5c0,3.309,2.691,6,6,6ZM7,2.5c0-.827.673-1.5,1.5-1.5h7c.827,0,1.5.673,1.5,1.5v4.5H7V2.5Zm0,5.5h10v1c0,2.757-2.243,5-5,5s-5-2.243-5-5v-1Zm3-4c0-.276.224-.5.5-.5h1v-1c0-.276.224-.5.5-.5s.5.224.5.5v1h1c.276,0,.5.224.5.5s-.224.5-.5.5h-1v1c0,.276-.224.5-.5.5s-.5-.224-.5-.5v-1h-1c-.276,0-.5-.224-.5-.5Zm11,18.875v.625c0,.276-.224.5-.5.5s-.5-.224-.5-.5v-.625c0-2.114-.869-4.349-2.163-5.562-.226-.211-.527-.322-.836-.305-.326.015-.637.162-.854.405l-3.757,4.71c-.095.119-.238.188-.391.188s-.297-.069-.392-.188l-3.765-4.735c-.198-.224-.509-.372-.834-.388-.314,0-.612.094-.837.304-1.3,1.213-2.173,3.452-2.173,5.57v.625c0,.276-.224.5-.5.5s-.5-.224-.5-.5v-.625c0-2.379,1.001-4.911,2.49-6.301.423-.396.98-.607,1.566-.571.593.027,1.159.298,1.553.742l3.392,4.265,3.383-4.239c.412-.464.979-.734,1.572-.761.591-.03,1.142.178,1.564.573,1.483,1.391,2.479,3.919,2.479,6.292Z"/></svg>
