<?xml version="1.0" encoding="UTF-8"?>
<svg xmlns="http://www.w3.org/2000/svg" id="Layer_1" data-name="Layer 1" viewBox="0 0 24 24" width="512" height="512"><path d="M16.78,11.15c1.33-.9,2.22-2.42,2.22-4.15,0-2.76-2.24-5-5-5h-1V.5c0-.28-.22-.5-.5-.5s-.5,.22-.5,.5v1.5h-3V.5c0-.28-.22-.5-.5-.5s-.5,.22-.5,.5v1.5h-.5c-1.93,0-3.5,1.57-3.5,3.5v13c0,1.93,1.57,3.5,3.5,3.5h.5v1.5c0,.28,.22,.5,.5,.5s.5-.22,.5-.5v-1.5h3v1.5c0,.28,.22,.5,.5,.5s.5-.22,.5-.5v-1.5h2.5c3.03,0,5.5-2.47,5.5-5.5,0-2.59-1.8-4.77-4.22-5.35ZM5,5.5c0-1.38,1.12-2.5,2.5-2.5h6.5c2.21,0,4,1.79,4,4s-1.79,4-4,4H5V5.5Zm10.5,15.5H7.5c-1.38,0-2.5-1.12-2.5-2.5v-6.5H15.5c2.48,0,4.5,2.02,4.5,4.5s-2.02,4.5-4.5,4.5Z"/></svg>
