<?xml version="1.0" encoding="UTF-8"?>
<svg xmlns="http://www.w3.org/2000/svg" id="Layer_1" data-name="Layer 1" viewBox="0 0 24 24" width="512" height="512"><path d="M18.5,4h-4.17c-.67,0-1.29,.26-1.77,.73l-3.83,3.83c-.47,.47-.73,1.1-.73,1.77v4.17c0,.83,.67,1.5,1.5,1.5h5c.83,0,1.5-.67,1.5-1.5v-4c0-.28-.22-.5-.5-.5s-.5,.22-.5,.5v4c0,.28-.22,.5-.5,.5h-5c-.28,0-.5-.22-.5-.5v-4.17c0-.4,.16-.78,.44-1.06l3.83-3.83c.28-.28,.67-.44,1.06-.44h4.17c.28,0,.5,.22,.5,.5v13c0,.28-.22,.5-.5,.5H5.5c-.28,0-.5-.22-.5-.5V8.71l3.85-3.85c.14-.14,.19-.36,.11-.54s-.26-.31-.46-.31h-3c-.83,0-1.5,.67-1.5,1.5v13c0,.83,.67,1.5,1.5,1.5h13c.83,0,1.5-.67,1.5-1.5V5.5c0-.83-.67-1.5-1.5-1.5Zm-13.5,1.5c0-.28,.22-.5,.5-.5h1.79l-2.29,2.29v-1.79ZM19.5,0H4.5C2.02,0,0,2.02,0,4.5v15c0,2.48,2.02,4.5,4.5,4.5h15c2.48,0,4.5-2.02,4.5-4.5V4.5c0-2.48-2.02-4.5-4.5-4.5Zm3.5,19.5c0,1.93-1.57,3.5-3.5,3.5H4.5c-1.93,0-3.5-1.57-3.5-3.5V4.5c0-1.93,1.57-3.5,3.5-3.5h15c1.93,0,3.5,1.57,3.5,3.5v15Z"/></svg>
