<?xml version="1.0" encoding="UTF-8"?>
<svg xmlns="http://www.w3.org/2000/svg" id="Layer_1" data-name="Layer 1" viewBox="0 0 24 24" width="512" height="512"><path d="M12,19c-.09,0-.18-.02-.26-.07-.24-.14-.31-.45-.17-.69l3.4-5.56s.03-.09,.01-.12c-.02-.04-.05-.05-.09-.05h-5.78c-.36,0-.68-.16-.9-.45-.21-.29-.28-.65-.17-.99,.01-.04,3.53-5.82,3.53-5.82,.14-.24,.45-.31,.69-.17,.24,.14,.31,.45,.17,.69l-3.43,5.63s.01,.05,.02,.06c.02,.02,.04,.05,.09,.05h5.78c.41,0,.78,.22,.97,.58,.19,.36,.17,.79-.05,1.13l-3.39,5.55c-.09,.15-.26,.24-.43,.24Zm12,.5V4.5c0-2.48-2.02-4.5-4.5-4.5H4.5C2.02,0,0,2.02,0,4.5v15c0,2.48,2.02,4.5,4.5,4.5h15c2.48,0,4.5-2.02,4.5-4.5ZM19.5,1c1.93,0,3.5,1.57,3.5,3.5v15c0,1.93-1.57,3.5-3.5,3.5H4.5c-1.93,0-3.5-1.57-3.5-3.5V4.5c0-1.93,1.57-3.5,3.5-3.5h15Z"/></svg>
