<?xml version="1.0" encoding="UTF-8"?>
<svg xmlns="http://www.w3.org/2000/svg" id="Layer_1" data-name="Layer 1" viewBox="0 0 24 24" width="512" height="512"><path d="M21,6.5c0,.28-.22,.5-.5,.5h-3.5c0,3.86-3.14,7-7,7H4.88l10.94,9.12c.21,.18,.24,.49,.06,.7-.1,.12-.24,.18-.38,.18-.11,0-.23-.04-.32-.12L3.18,13.88c-.16-.13-.22-.36-.15-.55,.07-.2,.26-.33,.47-.33h6.5c3.31,0,6-2.69,6-6H3.5c-.28,0-.5-.22-.5-.5s.22-.5,.5-.5H15.92c-.48-2.83-2.95-5-5.92-5H3.5c-.28,0-.5-.22-.5-.5s.22-.5,.5-.5H20.5c.28,0,.5,.22,.5,.5s-.22,.5-.5,.5h-6.9c1.76,1.06,3.02,2.88,3.33,5h3.57c.28,0,.5,.22,.5,.5Z"/></svg>
