<?xml version="1.0" encoding="UTF-8"?>
<svg xmlns="http://www.w3.org/2000/svg" id="Layer_1" data-name="Layer 1" width="512" height="512" viewBox="0 0 24 24"><path d="M12,5c-3.859,0-7,3.141-7,7s3.141,7,7,7,7-3.141,7-7-3.141-7-7-7Zm0,13c-3.309,0-6-2.691-6-6s2.691-6,6-6,6,2.691,6,6-2.691,6-6,6Zm10.662-8.579c-.016-.035-.034-.086-.053-.157-.254-.973-.628-1.886-1.109-2.714-.073-.126-.113-.215-.134-.272,.457-.605,.409-1.473-.142-2.023l-1.479-1.479c-.556-.557-1.435-.599-2.036-.133-.047-.019-.116-.053-.212-.114-.745-.482-1.648-.854-2.761-1.137-.072-.019-.124-.036-.16-.051-.101-.756-.749-1.341-1.531-1.341h-2.092c-.779,0-1.425,.58-1.53,1.34-.036,.015-.088,.033-.161,.052-1.112,.282-2.016,.654-2.761,1.137-.096,.062-.166,.097-.213,.115-.604-.468-1.48-.424-2.035,.132l-1.479,1.479c-.55,.55-.598,1.415-.142,2.022-.021,.058-.06,.146-.134,.273-.481,.828-.855,1.741-1.11,2.715-.019,.072-.037,.124-.053,.158-.754,.103-1.337,.75-1.337,1.531v2.092c0,.805,.619,1.468,1.333,1.532,.018,.038,.04,.096,.063,.179,.278,.996,.654,1.909,1.117,2.713,.066,.116,.103,.198,.121,.252-.458,.605-.411,1.473,.141,2.024l1.479,1.479c.571,.571,1.483,.601,2.05,.123,.035,.016,.086,.044,.154,.096,.712,.532,1.608,.904,2.823,1.17,.064,.015,.109,.029,.141,.042,.1,.758,.748,1.345,1.532,1.345h2.092c.806,0,1.469-.62,1.534-1.346,.031-.013,.076-.027,.139-.041,1.215-.266,2.111-.638,2.823-1.171,.069-.052,.121-.08,.156-.096,.607,.478,1.49,.438,2.048-.122l1.479-1.479c.558-.558,.6-1.438,.142-2.027,.019-.054,.055-.135,.12-.248,.463-.805,.839-1.718,1.117-2.714,.023-.084,.047-.143,.064-.181,.752-.104,1.332-.751,1.332-1.53v-2.092c0-.803-.616-1.465-1.338-1.533Zm.338,3.625c0,.301-.245,.545-.633,.553-.188,.033-.532,.192-.727,.889-.256,.916-.6,1.752-1.021,2.484-.407,.708-.291,1.084-.102,1.296,.213,.213,.213,.559,0,.771l-1.479,1.479c-.213,.212-.559,.213-.818-.042-.087-.068-.556-.375-1.278,.167-.593,.444-1.367,.76-2.437,.994-.766,.167-.89,.611-.915,.817,0,.301-.244,.546-.545,.546h-2.092c-.301,0-.545-.245-.551-.62-.02-.132-.144-.576-.909-.743-1.069-.234-1.844-.55-2.437-.993-.315-.237-.582-.312-.794-.312-.274,0-.456,.124-.531,.186-.213,.213-.559,.213-.771,0l-1.479-1.479c-.213-.213-.213-.559,.021-.793,.169-.19,.285-.566-.122-1.275-.422-.731-.766-1.567-1.021-2.483-.194-.696-.538-.855-.813-.896-.301,0-.546-.244-.546-.545v-2.092c0-.301,.245-.545,.62-.551,.159-.023,.548-.158,.737-.886,.232-.886,.57-1.715,1.008-2.466,.438-.756,.304-1.137,.117-1.319-.213-.213-.213-.559,0-.771l1.479-1.479c.213-.214,.559-.213,.779,.008,.134,.129,.531,.378,1.305-.122,.652-.423,1.459-.753,2.464-1.008,.826-.209,.904-.647,.9-.814,0-.301,.244-.546,.545-.546h2.092c.301,0,.545,.245,.545,.533-.004,.18,.074,.618,.9,.827,1.005,.255,1.812,.585,2.464,1.008,.773,.498,1.17,.251,1.312,.114,.213-.213,.559-.213,.771,0l1.479,1.479c.213,.213,.213,.559,.004,.768-.19,.187-.325,.567,.113,1.323,.438,.751,.775,1.58,1.007,2.465,.19,.729,.579,.863,.812,.893,.301,0,.546,.244,.546,.545v2.092Zm-10-4.046c0,.552-.448,1-1,1s-1-.448-1-1,.448-1,1-1,1,.448,1,1Zm3,3c0,.552-.448,1-1,1s-1-.448-1-1,.448-1,1-1,1,.448,1,1Zm-6,0c0,.552-.448,1-1,1s-1-.448-1-1,.448-1,1-1,1,.448,1,1Zm3,3c0,.552-.448,1-1,1s-1-.448-1-1,.448-1,1-1,1,.448,1,1Z"/></svg>
