<?xml version="1.0" encoding="UTF-8"?>
<svg xmlns="http://www.w3.org/2000/svg" id="Layer_1" data-name="Layer 1" viewBox="0 0 24 24" width="512" height="512"><path d="M18,13c0,.552-.448,1-1,1s-1-.448-1-1,.448-1,1-1,1,.448,1,1Zm-3-4c-.552,0-1,.448-1,1s.448,1,1,1,1-.448,1-1-.448-1-1-1Zm8.527-3.25c.325,1.333,.487,2.773,.468,4.166-.032,2.387-.579,6.886-3.886,10.193s-7.806,3.854-10.193,3.886c-1.399,.021-2.833-.144-4.166-.468-.517-.126-1.269-.201-1.916,.155-.379,.208-.809,.318-1.244,.318-1.429,0-2.591-1.162-2.591-2.591,0-.439,.113-.873,.326-1.255,.364-.654,.287-1.416,.158-1.94C.152,16.87-.013,15.442,.005,14.084,.037,11.697,.583,7.198,3.891,3.891S11.697,.037,14.084,.005c1.362-.019,2.786,.147,4.13,.479,.522,.128,1.285,.207,1.94-.158,.381-.212,.815-.325,1.254-.325,1.429,0,2.591,1.162,2.591,2.591,0,.435-.11,.865-.318,1.244-.356,.648-.281,1.399-.155,1.916Zm-.721-2.397c.129-.235,.194-.492,.194-.762,0-.877-.714-1.591-1.591-1.591-.273,0-.531,.067-.768,.199-.938,.523-1.967,.428-2.667,.255-1.201-.295-2.66-.449-3.877-.449-2.236,.029-6.443,.536-9.5,3.593S1.034,11.862,1.005,14.098c-.017,1.274,.139,2.615,.449,3.877,.172,.699,.268,1.728-.255,2.666-.132,.237-.199,.495-.199,.768,0,.877,.714,1.591,1.591,1.591,.271,0,.527-.065,.762-.195,.93-.51,1.945-.418,2.634-.25,1.252,.305,2.62,.458,3.916,.44,2.236-.029,6.443-.536,9.5-3.593s3.563-7.264,3.593-9.5c.018-1.309-.135-2.663-.44-3.915-.167-.689-.26-1.705,.25-2.634Zm-3.806,5.647c-.552,0-1,.448-1,1s.448,1,1,1,1-.448,1-1-.448-1-1-1Z"/></svg>
