<?xml version="1.0" encoding="UTF-8"?>
<svg xmlns="http://www.w3.org/2000/svg" id="Layer_1" data-name="Layer 1" viewBox="0 0 24 24">
  <path d="m23.424.574c-.445-.445-1.059-.646-1.687-.552-3.753.567-10.888,2.359-16.503,7.992-1.509,1.513-2.319,3.607-2.224,5.745.078,1.751.737,3.364,1.864,4.66L.146,23.146c-.195.195-.195.512,0,.707.098.098.226.146.354.146s.256-.049.354-.146l4.723-4.722c.06.053.114.111.175.163,1.372,1.149,3.066,1.714,4.776,1.714,2.075,0,4.172-.83,5.742-2.451,5.618-5.803,7.258-13.342,7.703-16.313.093-.619-.107-1.228-.549-1.669Zm-7.873,17.287c-2.501,2.581-6.522,2.873-9.157.667-.039-.033-.073-.07-.112-.104l3.425-3.425h8.199c-.693.981-1.469,1.945-2.356,2.861Zm3.02-3.847c-.024-.004-.046-.014-.071-.014h-7.793l3.975-3.975c.652-.651,1.554-1.025,2.475-1.025h3.963c-.633,1.612-1.469,3.326-2.55,5.014Zm2.922-6.014h-4.336c-1.184,0-2.344.48-3.182,1.318l-4.827,4.827-.003.003-3.564,3.564c-.951-1.118-1.506-2.5-1.573-3.996-.083-1.859.622-3.681,1.933-4.995C11.355,3.291,18.255,1.56,21.886,1.011c.05-.007.582.021.831.271.215.215.312.512.267.813-.191,1.276-.612,3.424-1.491,5.905Z"/>
</svg>
