<?xml version="1.0" encoding="UTF-8"?>
<svg xmlns="http://www.w3.org/2000/svg" id="Layer_1" data-name="Layer 1" viewBox="0 0 24 24" width="512" height="512"><path d="M15,18.5v4c0,.183-.1,.351-.259,.438-.075,.041-.158,.062-.241,.062-.093,0-.187-.026-.269-.078l-5-3.183c-.144-.092-.231-.251-.231-.422v-5.376L2.875,7.673c-.271-.304-.474-.628-.619-.983-.105-.255,.017-.547,.272-.652,.254-.104,.547,.017,.652,.272,.103,.25,.246,.479,.425,.681l6.252,6.396c.091,.094,.143,.219,.143,.35v5.306l4,2.546v-3.089c0-.276,.224-.5,.5-.5s.5,.224,.5,.5Zm8.854,5.354c-.098,.098-.226,.146-.354,.146s-.256-.049-.354-.146L.146,.854C-.049,.658-.049,.342,.146,.146S.658-.049,.854,.146L3.384,2.677c.583-.431,1.284-.677,2.014-.677h13.204c1.874,0,3.398,1.524,3.398,3.398,0,.833-.305,1.635-.858,2.257l-6.32,6.46,9.032,9.032c.195,.195,.195,.512,0,.707ZM4.098,3.391L14.115,13.408l6.296-6.434c.374-.422,.589-.988,.589-1.576,0-1.322-1.076-2.398-2.398-2.398H5.398c-.465,0-.914,.141-1.3,.391Z"/></svg>
