<?xml version="1.0" encoding="UTF-8"?>
<svg xmlns="http://www.w3.org/2000/svg" id="Layer_1" data-name="Layer 1" viewBox="0 0 24 24" width="512" height="512"><path d="M11,16c0,.552-.448,1-1,1s-1-.448-1-1,.448-1,1-1,1,.448,1,1Zm-3,2c-.552,0-1,.448-1,1s.448,1,1,1,1-.448,1-1-.448-1-1-1ZM20,5.871v12.629c0,3.033-2.467,5.5-5.5,5.5h-5c-3.033,0-5.5-2.467-5.5-5.5V5.871c-.825-.678-1.181-1.759-.911-2.829,.235-.931,.99-1.693,1.923-1.944,.544-.146,1.104-.129,1.62,.049,.331,.113,.692-.072,.919-.283,1.131-1.049,2.953-1.13,4.171-.194,.164,.126,.393,.126,.557,0,1.218-.936,3.041-.854,4.17,.194,.229,.212,.588,.396,.92,.284,.514-.178,1.075-.195,1.619-.049,.933,.25,1.688,1.013,1.923,1.943,.27,1.07-.087,2.152-.911,2.829Zm-1.157,13.809c-1.225-6.485-9.47-13.159-13.843-13.651v12.471c0,2.481,2.019,4.5,4.5,4.5h5c2.072,0,3.821-1.407,4.342-3.316,.002,.006,.004,.01,.001-.003Zm.157-13.657c-2.107,.192-4.707,1.54-5.993,3.139,2.49,2.1,4.759,4.809,5.993,7.676V6.023Zm.941-2.737c-.147-.584-.624-1.064-1.212-1.222-.355-.095-.703-.085-1.035,.028-.636,.22-1.356,.034-1.926-.496-.781-.724-2.04-.78-2.881-.134-.522,.401-1.253,.401-1.775,0-.84-.646-2.099-.59-2.881,.134-.569,.529-1.289,.715-1.925,.496-.332-.113-.679-.124-1.035-.028-.588,.158-1.064,.638-1.212,1.223-.161,.637,.022,1.279,.467,1.713,1.282,.007,2.919,.557,4.646,1.503,.719-.921,1.815-1.787,3.099-2.448,.244-.128,.547-.031,.673,.215,.126,.246,.03,.547-.215,.673-1.107,.57-2.05,1.298-2.682,2.068,.727,.446,1.461,.956,2.184,1.52,1.577-1.956,4.767-3.521,7.244-3.531,.445-.435,.628-1.076,.467-1.714Zm-7.941,14.713c-.552,0-1,.448-1,1s.448,1,1,1,1-.448,1-1-.448-1-1-1Zm6.842,1.684v-.003c-.005-.016-.002-.004,0,.003Z"/></svg>
