<?xml version="1.0" encoding="UTF-8"?>
<svg xmlns="http://www.w3.org/2000/svg" id="Layer_1" data-name="Layer 1" viewBox="0 0 24 24" width="512" height="512"><path d="m10.501,16.499c-.385,0-.769-.146-1.062-.438l-4.289-4.203c-.197-.193-.201-.51-.008-.707.194-.198.511-.2.707-.008l4.293,4.207c.199.199.517.197.711.004l7.295-7.209c.197-.195.513-.191.707.004.194.196.192.513-.004.707l-7.293,7.207c-.291.291-.675.437-1.058.437Zm13.499,3.001v-7.145C24,5.869,19.097.454,12.838.028c-3.473-.236-6.877,1.036-9.329,3.492S-.211,9.378.029,12.854c.441,6.354,6.074,11.146,13.104,11.146h6.367c2.481,0,4.5-2.019,4.5-4.5ZM12.77,1.026c5.737.39,10.23,5.366,10.23,11.329v7.145c0,1.93-1.57,3.5-3.5,3.5h-6.367c-6.604,0-11.695-4.296-12.105-10.214-.221-3.188.941-6.308,3.189-8.559,2.07-2.073,4.878-3.227,7.8-3.227.25,0,.502.008.753.025Z"/></svg>
