<?xml version="1.0" encoding="UTF-8"?>
<svg xmlns="http://www.w3.org/2000/svg" id="Layer_1" data-name="Layer 1" viewBox="0 0 24 24" width="512" height="512"><path d="M21.5,1h-3c-1.379,0-2.5,1.122-2.5,2.5v1.5H8v-1.5c0-1.378-1.121-2.5-2.5-2.5H2.5C1.121,1,0,2.122,0,3.5v3c0,1.378,1.121,2.5,2.5,2.5h3c.271,0,.532-.044,.777-.124l4.381,6.936c-.408,.445-.658,1.038-.658,1.688v3c0,1.379,1.121,2.5,2.5,2.5h3c1.379,0,2.5-1.121,2.5-2.5v-3c0-1.379-1.121-2.5-2.5-2.5h-3c-.368,0-.716,.08-1.031,.223l-4.322-6.844c.523-.459,.854-1.131,.854-1.879v-.5h8v.5c0,1.378,1.121,2.5,2.5,2.5h3c1.379,0,2.5-1.122,2.5-2.5V3.5c0-1.378-1.121-2.5-2.5-2.5Zm-6,15c.827,0,1.5,.673,1.5,1.5v3c0,.827-.673,1.5-1.5,1.5h-3c-.827,0-1.5-.673-1.5-1.5v-3c0-.827,.673-1.5,1.5-1.5h3ZM2.5,8c-.828,0-1.5-.672-1.5-1.5V3.5c0-.828,.672-1.5,1.5-1.5h3c.828,0,1.5,.672,1.5,1.5v3c0,.828-.672,1.5-1.5,1.5H2.5Zm20.5-1.5c0,.827-.673,1.5-1.5,1.5h-3c-.827,0-1.5-.673-1.5-1.5V3.5c0-.827,.673-1.5,1.5-1.5h3c.827,0,1.5,.673,1.5,1.5v3Z"/></svg>
