<?xml version="1.0" encoding="UTF-8"?>
<svg xmlns="http://www.w3.org/2000/svg" id="Layer_1" data-name="Layer 1" viewBox="0 0 24 24" width="512" height="512"><path d="M12,0C5.383,0,0,5.383,0,12s5.383,12,12,12,12-5.383,12-12S18.617,0,12,0Zm0,23c-6.065,0-11-4.935-11-11S5.935,1,12,1s11,4.935,11,11-4.935,11-11,11Zm0-8c-1.674,0-3,1.285-3.444,2.555-.116,.332-.064,.688,.141,.978,.208,.293,.546,.468,.905,.468h4.789c.357,0,.694-.175,.902-.466,.205-.286,.259-.641,.146-.971-.422-1.242-1.771-2.563-3.438-2.563Zm2.39,2.999h-4.788c-.05,0-.079-.032-.102-.114,.32-.914,1.305-1.885,2.5-1.885,1.159,0,2.177,.959,2.479,1.952-.01,.015-.039,.047-.09,.047Zm4.464-10.146l-1.646,1.646,1.646,1.646c.195,.195,.195,.512,0,.707-.098,.098-.226,.146-.354,.146s-.256-.049-.354-.146l-1.646-1.646-1.646,1.646c-.098,.098-.226,.146-.354,.146s-.256-.049-.354-.146c-.195-.195-.195-.512,0-.707l1.646-1.646-1.646-1.646c-.195-.195-.195-.512,0-.707s.512-.195,.707,0l1.646,1.646,1.646-1.646c.195-.195,.512-.195,.707,0s.195,.512,0,.707Zm-11.354,2.354l-1.646,1.646c-.098,.098-.226,.146-.354,.146s-.256-.049-.354-.146c-.195-.195-.195-.512,0-.707l1.646-1.646-1.646-1.646c-.195-.195-.195-.512,0-.707s.512-.195,.707,0l1.646,1.646,1.646-1.646c.195-.195,.512-.195,.707,0s.195,.512,0,.707l-1.646,1.646,1.646,1.646c.195,.195,.195,.512,0,.707-.098,.098-.226,.146-.354,.146s-.256-.049-.354-.146l-1.646-1.646Z"/></svg>
