<?xml version="1.0" encoding="UTF-8"?>
<svg xmlns="http://www.w3.org/2000/svg" id="Layer_1" data-name="Layer 1" width="512" height="512" viewBox="0 0 24 24"><path d="M19.5,9h-7.5V3c0-1.103-.897-2-2-2s-2,.897-2,2,.897,2,2,2c.364,0,.706-.098,1-.269v4.269H4.5c-2.481,0-4.5,2.019-4.5,4.5v6c0,2.481,2.019,4.5,4.5,4.5h15c2.481,0,4.5-2.019,4.5-4.5v-6c0-2.481-2.019-4.5-4.5-4.5ZM10,4c-.551,0-1-.449-1-1s.449-1,1-1,1,.449,1,1-.449,1-1,1Zm13,9.5v2.5h-6v-6h2.5c1.93,0,3.5,1.57,3.5,3.5Zm-15,2.5v-6h8v6H8Zm-3.5-6h2.5v6H1v-2.5c0-1.93,1.57-3.5,3.5-3.5Zm15,13H4.5c-1.93,0-3.5-1.57-3.5-3.5v-2.5H23v2.5c0,1.93-1.57,3.5-3.5,3.5ZM15,4c1.103,0,2-.897,2-2s-.897-2-2-2-2,.897-2,2,.897,2,2,2Zm0-3c.551,0,1,.449,1,1s-.449,1-1,1-1-.449-1-1,.449-1,1-1Zm4.008,.316c-.05-.271,.13-.532,.402-.581L23.411,.008c.27-.053,.532,.13,.581,.402,.05,.271-.13,.532-.402,.581l-4,.727c-.03,.006-.06,.008-.09,.008-.237,0-.448-.169-.491-.411ZM.008,4.771c-.05-.271,.13-.532,.402-.581l5-.909c.273-.051,.532,.13,.581,.402,.05,.271-.13,.532-.402,.581L.589,5.173c-.03,.006-.06,.008-.09,.008-.237,0-.448-.169-.491-.411Z"/></svg>
