<?xml version="1.0" encoding="UTF-8"?>
<svg xmlns="http://www.w3.org/2000/svg" id="Layer_1" data-name="Layer 1" viewBox="0 0 24 24" width="512" height="512"><path d="M8.535,14.464c-.944-.944-2.2-1.464-3.535-1.464s-2.591,.52-3.536,1.464c-1.95,1.95-1.95,5.122,.013,7.084l1.988,1.847c.432,.402,.986,.602,1.54,.602s1.112-.202,1.545-.606l1.985-1.855c1.95-1.95,1.95-5.122,0-7.071Zm-.695,6.353l-1.973,1.843c-.483,.451-1.238,.451-1.721,.002l-1.975-1.834c-1.56-1.56-1.56-4.098,0-5.657,.756-.755,1.76-1.171,2.829-1.171s2.073,.416,2.828,1.171c1.56,1.56,1.56,4.098,.012,5.646Zm9.624-10.423c.433,.402,.987,.603,1.541,.603s1.113-.203,1.546-.607l1.984-1.854c1.95-1.95,1.95-5.122,0-7.071-.944-.944-2.2-1.464-3.535-1.464s-2.591,.52-3.536,1.464c-1.95,1.95-1.95,5.122,.013,7.084l1.986,1.845Zm-1.292-8.222c.756-.755,1.76-1.171,2.829-1.171s2.073,.416,2.828,1.171c1.56,1.56,1.56,4.098,.012,5.646l-1.972,1.842c-.482,.451-1.239,.452-1.724,.002l-1.973-1.833c-1.56-1.56-1.56-4.098,0-5.657Zm7.829,18.329c0,1.93-1.57,3.5-3.5,3.5H9.5c-.276,0-.5-.224-.5-.5s.224-.5,.5-.5h11c1.378,0,2.5-1.122,2.5-2.5s-1.122-2.5-2.5-2.5h-6c-1.93,0-3.5-1.57-3.5-3.5s1.57-3.5,3.5-3.5c.276,0,.5,.224,.5,.5s-.224,.5-.5,.5c-1.378,0-2.5,1.122-2.5,2.5s1.122,2.5,2.5,2.5h6c1.93,0,3.5,1.57,3.5,3.5Z"/></svg>
