<?xml version="1.0" encoding="UTF-8"?>
<svg xmlns="http://www.w3.org/2000/svg" id="Layer_1" data-name="Layer 1" viewBox="0 0 24 24" width="512" height="512"><path d="M24,16.275v4.726c0,1.85-1.149,2.999-3,2.999h-4.722c-2.698,0-5.354-1.424-6.932-3.717-.156-.228-.099-.539,.129-.695,.226-.155,.539-.1,.695,.129,1.394,2.025,3.733,3.283,6.107,3.283h4.722c.912,0,2-.347,2-1.999v-4.726c0-2.374-1.258-4.713-3.283-6.105-.228-.156-.285-.468-.129-.695,.157-.227,.468-.284,.695-.129,2.293,1.576,3.717,4.231,3.717,6.93ZM9.539,4.048c-1.624-.282-3.208,.771-3.529,2.353-.055,.271,.12,.535,.391,.59,.271,.057,.535-.12,.59-.391,.214-1.057,1.279-1.76,2.377-1.567,.801,.141,1.459,.799,1.601,1.602,.152,.867-.242,1.699-1.004,2.119-.76,.418-1.464,.949-1.464,1.997,0,.276,.224,.5,.5,.5s.5-.224,.5-.5c0-.454,.229-.727,.946-1.121,1.125-.62,1.73-1.894,1.506-3.169-.212-1.209-1.205-2.201-2.413-2.412Zm-.539,8.952c-.552,0-1,.448-1,1s.448,1,1,1,1-.448,1-1-.448-1-1-1Zm3.478,4.165c-1.176,.534-2.467,.835-3.793,.835H3.5c-2.29,0-3.5-1.21-3.5-3.5v-5.188C0,4.597,3.822,.343,8.348,.022c2.608-.178,5.16,.77,7.007,2.614,1.852,1.853,2.808,4.417,2.623,7.037-.205,2.899-2.034,5.508-4.566,7.004l2.23,2.17c.2,.2,.518,.2,.712,.005l3.797-3.711c.199-.191,.516-.189,.707,.008,.193,.197,.189,.515-.008,.707l-3.793,3.707c-.29,.29-.672,.436-1.055,.436-.385,0-.77-.146-1.062-.439l-2.461-2.396Zm-3.793-.165c4.213,0,8.012-3.388,8.295-7.396,.165-2.331-.686-4.612-2.332-6.26-1.507-1.506-3.545-2.344-5.663-2.344-.188,0-.377,.007-.566,.021C4.397,1.305,1,5.102,1,9.312v5.188c0,1.729,.771,2.5,2.5,2.5h5.185Z"/></svg>
