<?xml version="1.0" encoding="UTF-8"?>
<svg xmlns="http://www.w3.org/2000/svg" id="Layer_1" data-name="Layer 1" viewBox="0 0 24 24" width="512" height="512"><path d="M20,5.051V2.5c0-1.378-1.122-2.5-2.5-2.5s-2.5,1.122-2.5,2.5v2.5h-6V2.5c0-1.378-1.122-2.5-2.5-2.5s-2.5,1.122-2.5,2.5v2.551C1.756,5.303,0,7.19,0,9.5v9.5c0,2.757,2.243,5,5,5s5-2.243,5-5v-5c0-1.103,.897-2,2-2s2,.897,2,2v5c0,2.757,2.243,5,5,5s5-2.243,5-5V9.5c0-2.31-1.756-4.197-4-4.449Zm-4-2.551c0-.827,.673-1.5,1.5-1.5s1.5,.673,1.5,1.5v2.5h-3V2.5ZM6.5,1c.827,0,1.5,.673,1.5,1.5v2.5h-3V2.5c0-.827,.673-1.5,1.5-1.5Zm-1.5,22c-2.206,0-4-1.794-4-4s1.794-4,4-4,4,1.794,4,4-1.794,4-4,4Zm14,0c-2.206,0-4-1.794-4-4s1.794-4,4-4,4,1.794,4,4-1.794,4-4,4Zm0-9c-1.641,0-3.088,.806-4,2.031v-2.031c0-1.654-1.346-3-3-3s-3,1.346-3,3v2.031c-.912-1.225-2.359-2.031-4-2.031s-3.088,.806-4,2.031v-6.531c0-1.93,1.57-3.5,3.5-3.5h15c1.93,0,3.5,1.57,3.5,3.5v6.531c-.912-1.225-2.359-2.031-4-2.031Z"/></svg>
