<?xml version="1.0" encoding="UTF-8"?>
<svg xmlns="http://www.w3.org/2000/svg" id="Layer_1" data-name="Layer 1" viewBox="0 0 24 24" width="512" height="512"><path d="M24,12c0,2.998-1.112,5.869-3.13,8.083-.188,.204-.504,.218-.707,.032-.204-.186-.219-.502-.033-.706,1.85-2.029,2.869-4.661,2.869-7.409,0-6.065-4.935-11-11-11S1,5.935,1,12s4.935,11,11,11c.809,0,1.613-.088,2.392-.261,.269-.056,.537,.109,.597,.38,.06,.27-.11,.537-.38,.597-.85,.188-1.727,.284-2.608,.284C5.383,24,0,18.617,0,12S5.383,0,12,0s12,5.383,12,12ZM9.954,7.29c-.116-.25-.412-.359-.664-.244-2.062,.951-4.066,3.02-4.151,3.107-.191,.199-.186,.516,.014,.707,.097,.093,.222,.14,.347,.14,.131,0,.262-.052,.36-.153,.019-.02,1.957-2.02,3.849-2.893,.251-.116,.36-.413,.245-.664Zm4.755-.244c-.251-.114-.547-.006-.664,.244-.116,.251-.006,.548,.245,.664,1.889,.871,3.83,2.873,3.85,2.893,.098,.102,.229,.153,.36,.153,.125,0,.25-.047,.347-.14,.199-.191,.205-.508,.014-.707-.084-.088-2.089-2.156-4.151-3.107Zm2.998,7c-.177-.084-.387-.053-.536,.077-.021,.019-2.198,1.877-4.922,1.877-2.99,0-4.878-1.836-4.897-1.854-.197-.194-.513-.192-.707,.002-.194,.195-.194,.511,0,.706,.087,.088,2.186,2.146,5.604,2.146,.255,0,.505-.014,.75-.039v3.539c0,.276,.224,.5,.5,.5s.5-.224,.5-.5v-3.71c1.272-.301,2.323-.867,3-1.306v8.016c0,.276,.224,.5,.5,.5s.5-.224,.5-.5V14.5c0-.195-.114-.373-.292-.454Z"/></svg>
