<?xml version="1.0" encoding="UTF-8"?>
<svg xmlns="http://www.w3.org/2000/svg" id="Layer_1" data-name="Layer 1" viewBox="0 0 24 24" width="512" height="512"><path d="M21,9h-5c-1.65,0-3,1.35-3,3s1.35,3,3,3h5c1.65,0,3-1.35,3-3s-1.35-3-3-3Zm0,5h-5c-1.1,0-2-.9-2-2s.9-2,2-2h5c1.1,0,2,.9,2,2s-.9,2-2,2Zm-5-8h5c1.65,0,3-1.35,3-3s-1.35-3-3-3h-5c-1.65,0-3,1.35-3,3s1.35,3,3,3Zm0-5h5c1.1,0,2,.9,2,2s-.9,2-2,2h-5c-1.1,0-2-.9-2-2s.9-2,2-2Zm5,17h-5c-1.65,0-3,1.35-3,3s1.35,3,3,3h5c1.65,0,3-1.35,3-3s-1.35-3-3-3Zm0,5h-5c-1.1,0-2-.9-2-2s.9-2,2-2h5c1.1,0,2,.9,2,2s-.9,2-2,2ZM7.5,13H3.5c-1.93,0-3.5,1.57-3.5,3.5v4c0,1.93,1.57,3.5,3.5,3.5H7.5c1.93,0,3.5-1.57,3.5-3.5v-4c0-1.93-1.57-3.5-3.5-3.5Zm2.5,7.5c0,1.38-1.12,2.5-2.5,2.5H3.5c-1.38,0-2.5-1.12-2.5-2.5v-4c0-1.38,1.12-2.5,2.5-2.5H7.5c1.38,0,2.5,1.12,2.5,2.5v4ZM7.5,0H3.5C1.57,0,0,1.57,0,3.5V7.5c0,1.93,1.57,3.5,3.5,3.5H7.5c1.93,0,3.5-1.57,3.5-3.5V3.5c0-1.93-1.57-3.5-3.5-3.5Zm2.5,7.5c0,1.38-1.12,2.5-2.5,2.5H3.5c-1.38,0-2.5-1.12-2.5-2.5V3.5c0-1.38,1.12-2.5,2.5-2.5H7.5c1.38,0,2.5,1.12,2.5,2.5V7.5Z"/></svg>
