<?xml version="1.0" encoding="UTF-8"?>
<svg xmlns="http://www.w3.org/2000/svg" id="Layer_1" data-name="Layer 1" width="512" height="512" viewBox="0 0 24 24"><path d="M12,12c0-3.146,1.446-5.925,4.421-8.494,.47-.405,.679-1.014,.562-1.628-.118-.614-.538-1.101-1.124-1.303C14.22,.01,12.008-.153,10.083,.152,4.827,.987,.613,5.432,.066,10.723c-.657,6.352,3.744,12.117,10.017,13.125,.656,.105,1.321,.15,1.999,.153,1.362,0,2.701-.204,3.777-.576,.585-.202,1.005-.689,1.124-1.303,.118-.614-.092-1.223-.562-1.628-2.975-2.569-4.421-5.347-4.421-8.494Zm3.533,10.479c-.975,.336-2.197,.521-3.453,.521-.62-.005-1.235-.043-1.839-.14C4.491,21.937,.458,16.65,1.061,10.826,1.562,5.978,5.423,1.904,10.24,1.14c.597-.095,1.223-.141,1.847-.141,1.23,0,2.456,.179,3.446,.521,.243,.084,.418,.288,.467,.546,.05,.259-.037,.514-.232,.683-3.208,2.77-4.768,5.796-4.768,9.25s1.56,6.48,4.768,9.25c.195,.169,.282,.424,.232,.683-.049,.258-.224,.462-.467,.546Z"/><circle cx="17" cy="15" r="1"/><circle cx="23" cy="19" r="1"/><path d="M23.658,8.974c.204-.068,.342-.259,.342-.474s-.138-.406-.342-.474l-1.263-.421-.421-1.263c-.136-.408-.812-.408-.948,0l-.419,1.257-1.256,.393c-.205,.064-.347,.252-.351,.468s.13,.409,.333,.48l1.27,.449,.423,1.269c.068,.204,.259,.342,.474,.342s.406-.138,.474-.342l.421-1.263,1.263-.421Z"/></svg>
