<?xml version="1.0" encoding="UTF-8"?>
<svg xmlns="http://www.w3.org/2000/svg" id="Layer_1" data-name="Layer 1" viewBox="0 0 24 24">
  <path d="m23.44,7.409l-1.552-1.09,1.082-3.778c.094-.425-.033-.862-.341-1.17s-.744-.436-1.2-.333l-3.691,1.057-.773-1.548C16.694.188,16.275-.013,15.817,0c-.448.017-.86.253-1.12.661l-2.54,4.666c-.082.102-.213.156-.332.148-.13-.008-.244-.075-.295-.155l-1.906-3.58c-.212-.354-.567-.599-.973-.672-.403-.074-.824.033-1.209.352l-1.203,1.377-1.331-1.479c-.306-.339-.778-.455-1.206-.29-.427.164-.703.565-.703,1.022v1.951h-1.756c-.434,0-.828.22-1.057.588-.228.368-.249.82-.043,1.231l2.996,5.295c.215.465.191,1.008-.021,1.392l-1.858,2.362c-.24.377-.28.849-.108,1.261.172.412.535.715,1.02.819l3.733.44L.146,23.146c-.195.195-.195.512,0,.707.098.098.226.146.354.146s.256-.049.354-.146l5.758-5.758.448,3.781c.095.437.398.8.811.972.413.173.884.132,1.303-.137l2.259-1.788c.444-.254.987-.278,1.417-.082l5.355,3.028c.176.087.365.131.554.131.227,0,.452-.062.653-.187.369-.229.588-.623.588-1.057v-1.756h1.867c.473,0,.89-.284,1.063-.724.173-.44.061-.932-.285-1.254l-1.466-1.365,1.462-1.337c.264-.33.368-.756.286-1.171-.082-.414-.341-.769-.754-.994l-3.463-1.483c-.11-.069-.178-.183-.186-.313-.007-.116.036-.224.117-.304l4.756-2.405c.367-.248.592-.66.603-1.102s-.194-.864-.56-1.138Zm-.548,1.379s-4.817,2.436-4.844,2.458c-.353.282-.547.72-.521,1.171.026.451.271.863.721,1.138l3.486,1.497c.151.084.198.219.213.292.015.073.022.216-.032.294l-1.809,1.647c-.104.094-.163.227-.164.367,0,.14.057.273.159.369l1.863,1.734c.059.054.051.115.035.156-.016.042-.052.09-.132.09h-2.367c-.276,0-.5.224-.5.5v2.256c0,.118-.072.18-.115.207-.043.027-.131.062-.212.023l-5.368-3.034c-.336-.155-.697-.234-1.063-.234-.46,0-.929.125-1.367.378l-2.279,1.8c-.103.066-.225.077-.34.029-.113-.047-.192-.143-.21-.214l-.533-4.517,5.341-5.341c.195-.195.195-.512,0-.707s-.512-.195-.707,0l-5.341,5.341-4.469-.524c-.119-.026-.215-.106-.262-.219-.047-.113-.037-.237,0-.299l1.871-2.382c.414-.725.453-1.61.084-2.405L1.026,5.351c-.052-.105-.016-.193.011-.236.027-.042.089-.115.207-.115h2.256c.276,0,.5-.224.5-.5v-2.451c0-.018,0-.065.061-.088.061-.022.092.012.104.025l1.708,1.898c.095.105.23.166.372.166h.004c.143,0,.278-.063.373-.171l1.51-1.74c.131-.106.272-.1.344-.087.071.013.205.056.279.18l1.911,3.588c.239.383.651.627,1.102.653.459.036.89-.169,1.22-.594l2.571-4.709c.066-.104.175-.166.297-.17.137-.011.236.049.261.069l.912,1.843c.106.216.352.324.586.259l4.062-1.164c.13-.029.215.04.247.071.031.031.1.118.079.217l-1.172,4.091c-.059.205.019.424.193.547l1.831,1.285c.097.073.15.184.147.305s-.062.229-.108.265Z"/>
</svg>
