<?xml version="1.0" encoding="UTF-8"?>
<svg xmlns="http://www.w3.org/2000/svg" id="Layer_1" data-name="Layer 1" viewBox="0 0 24 24" width="512" height="512"><path d="M15,10.5c0,.28-.22,.5-.5,.5h-3.5v3.5c0,.28-.22,.5-.5,.5s-.5-.22-.5-.5v-3.5h-3.5c-.28,0-.5-.22-.5-.5s.22-.5,.5-.5h3.5v-3.5c0-.28,.22-.5,.5-.5s.5,.22,.5,.5v3.5h3.5c.28,0,.5,.22,.5,.5Zm9,3.05c0,.58-.41,1.45-1.55,1.45h-.55l-.52,2.43c-.44,2.07-2.29,3.57-4.4,3.57h-.99v.5c0,1.38-1.12,2.5-2.5,2.5H5.5c-1.47,0-2.5-1.03-2.5-2.5v-1.28c0-.92-.33-1.87-.96-2.73C.56,15.44-.12,12.93,.07,10.23,.44,5.29,4.5,.85,9.32,.13c4.02-.61,8.02,1.03,10.45,4.27,1.39,1.72,4.23,7.87,4.23,9.15Zm-1,0c0-.87-2.61-6.79-4.01-8.53h-.01c-1.9-2.56-4.87-4.01-8-4.01-.5,0-1,.04-1.51,.11C5.09,1.77,1.4,5.81,1.07,10.3c-.18,2.46,.43,4.74,1.78,6.6,.75,1.04,1.15,2.18,1.15,3.32v1.28c0,1.11,.81,1.5,1.5,1.5H13.5c.83,0,1.5-.67,1.5-1.5v-1c0-.28,.22-.5,.5-.5h1.49c1.64,0,3.08-1.17,3.42-2.77l.6-2.83c.05-.23,.25-.4,.49-.4h.96c.49,0,.55-.32,.55-.45Z"/></svg>
