<?xml version="1.0" encoding="UTF-8"?>
<svg xmlns="http://www.w3.org/2000/svg" id="Layer_1" data-name="Layer 1" viewBox="0 0 24 24" width="512" height="512"><path d="M17.269,4.799L12.907,.38c-.484-.491-1.33-.491-1.814,0L6.73,4.799c-.367,.373-.474,.927-.271,1.412,.204,.487,.656,.79,1.181,.79h3.86V23.5c0,.276,.224,.5,.5,.5s.5-.224,.5-.5V7h3.86c.524,0,.977-.303,1.181-.79,.202-.485,.096-1.039-.272-1.412Zm-.65,1.026c-.022,.053-.092,.175-.258,.175H7.64c-.166,0-.235-.123-.258-.175-.022-.055-.063-.198,.061-.324L11.804,1.083c.053-.053,.123-.083,.196-.083s.144,.029,.196,.083l4.36,4.418c.125,.126,.084,.269,.062,.324Z"/></svg>
