<?xml version="1.0" encoding="UTF-8"?>
<svg xmlns="http://www.w3.org/2000/svg" id="Layer_1" data-name="Layer 1" viewBox="0 0 24 24" width="512" height="512"><path d="M23.08,6.15c-.568-.285-1.236-.223-1.799,.205l-2.281,2.301v-.157c0-2.481-2.019-4.5-4.5-4.5H4.5C2.019,4,0,6.019,0,8.5v7c0,2.481,2.019,4.5,4.5,4.5H14.5c2.481,0,4.5-2.019,4.5-4.5v-.19l2.336,2.327c.295,.222,.645,.334,.997,.334,.253,0,.509-.058,.747-.177,.568-.284,.92-.854,.92-1.489V7.64c0-.635-.353-1.206-.92-1.489Zm-8.58,12.85H4.5c-1.93,0-3.5-1.57-3.5-3.5v-7c0-1.93,1.57-3.5,3.5-3.5H14.5c1.93,0,3.5,1.57,3.5,3.5v7c0,1.93-1.57,3.5-3.5,3.5Zm8.5-2.695c0,.257-.138,.48-.368,.595-.231,.117-.491,.092-.643-.017l-2.989-2.986v-3.821l2.936-2.97c.206-.154,.466-.177,.697-.062,.23,.115,.368,.337,.368,.595v8.666Zm-9.5-4.305c0,.276-.224,.5-.5,.5h-3v3c0,.276-.224,.5-.5,.5s-.5-.224-.5-.5v-3h-3c-.276,0-.5-.224-.5-.5s.224-.5,.5-.5h3v-3c0-.276,.224-.5,.5-.5s.5,.224,.5,.5v3h3c.276,0,.5,.224,.5,.5Z"/></svg>
