<?xml version="1.0" encoding="UTF-8"?>
<svg xmlns="http://www.w3.org/2000/svg" id="Layer_1" data-name="Layer 1" viewBox="0 0 24 24" width="512" height="512"><path d="M12,14.031c-.5,0-1.001-.134-1.448-.401L.243,7.444c-.15-.09-.243-.253-.243-.429s.092-.339,.243-.429L10.552,.401c.893-.537,2.003-.537,2.896,0l10.31,6.186c.15,.09,.243,.253,.243,.429s-.092,.339-.243,.429l-10.31,6.186c-.447,.268-.947,.401-1.448,.401ZM1.472,7.016l9.595,5.757c.575,.346,1.291,.346,1.866,0l9.595-5.757L12.933,1.259c-.575-.346-1.29-.346-1.866,0h0L1.472,7.016ZM10.81,.83h0Zm13.19,18.67c0-.276-.224-.5-.5-.5H15.5c-.276,0-.5,.224-.5,.5s.224,.5,.5,.5h8c.276,0,.5-.224,.5-.5Zm-11.743-1.571l11.5-6.9c.237-.142,.313-.449,.171-.686s-.449-.316-.686-.172l-11.243,6.746L.757,10.171c-.236-.145-.544-.064-.686,.172-.142,.236-.065,.544,.171,.686l11.5,6.9c.079,.048,.168,.071,.257,.071s.178-.023,.257-.071Zm.171,3.328c.142-.236,.065-.544-.171-.686L.757,13.671c-.236-.144-.544-.064-.686,.172-.142,.236-.065,.544,.171,.686l11.5,6.9c.081,.049,.169,.071,.257,.071,.17,0,.335-.087,.429-.243Z"/></svg>
