<?xml version="1.0" encoding="UTF-8"?>
<svg xmlns="http://www.w3.org/2000/svg" id="Layer_1" data-name="Layer 1" width="512" height="512" viewBox="0 0 24 24"><path d="M16.071,18.111c.013-.018-.008,.021,0,0h0ZM2.949,10.857c.008-.021-.013,.018,0,0h0ZM23.5,3h-2.632l1.305-2.249c.139-.239,.057-.545-.182-.684-.24-.14-.545-.057-.684,.182l-1.308,2.255L18.692,.249c-.138-.238-.443-.32-.684-.182-.239,.139-.32,.445-.182,.684l1.305,2.249h-2.632c-.276,0-.5,.224-.5,.5s.224,.5,.5,.5h2.632l-1.305,2.249c-.139,.239-.057,.545,.182,.684,.239,.138,.544,.057,.684-.182l1.308-2.255,1.308,2.255c.093,.16,.261,.249,.433,.249,.085,0,.171-.021,.25-.067,.239-.139,.32-.445,.182-.684l-1.305-2.249h2.632c.276,0,.5-.224,.5-.5s-.224-.5-.5-.5Zm-7.999,8.801l-2.72,1.481c.142,.379,.219,.79,.219,1.218s-.077,.838-.219,1.218l2.72,1.481c.223-.228,.503-.394,.82-.481l2.145-.591c.266-.074,.542,.083,.615,.349,.073,.266-.083,.542-.349,.615l-2.145,.591c-.197,.054-.406,.26-.516,.43-.083,.185-.115,.421-.053,.617l.667,2.122c.083,.263-.063,.544-.327,.627-.265,.082-.544-.064-.627-.327l-.667-2.122c-.099-.313-.111-.639-.041-.95l-2.722-1.482c-.544,.726-1.363,1.234-2.302,1.369v3.097c.307,.087,.587,.253,.815,.49l1.544,1.601c.192,.199,.186,.515-.013,.707-.097,.094-.222,.14-.347,.14-.131,0-.262-.051-.36-.153l-1.544-1.601c-.142-.147-.406-.263-.605-.254-.217,0-.444,.107-.586,.254l-1.544,1.601c-.191,.199-.507,.205-.707,.013-.199-.192-.205-.508-.013-.707l1.544-1.601c.229-.237,.508-.403,.815-.49v-3.097c-.938-.135-1.758-.643-2.302-1.369l-2.722,1.482c.071,.311,.058,.637-.041,.95l-.667,2.122c-.083,.262-.363,.408-.627,.327-.264-.083-.41-.364-.327-.627l.667-2.122c.061-.194,.01-.461-.071-.645-.111-.168-.302-.348-.498-.401l-2.045-.563c-.266-.073-.422-.349-.349-.615s.348-.423,.615-.349l2.045,.563c.317,.087,.597,.253,.82,.481l2.72-1.481c-.142-.379-.219-.79-.219-1.218s.077-.838,.219-1.218l-2.72-1.481c-.223,.228-.503,.394-.82,.481l-2.045,.563c-.268,.072-.542-.083-.615-.349-.073-.266,.083-.542,.349-.615l2.045-.563c.197-.054,.426-.292,.536-.461,.083-.185,.095-.39,.033-.585l-.667-2.122c-.083-.263,.063-.544,.327-.627,.265-.084,.543,.064,.627,.327l.667,2.122c.099,.313,.111,.639,.041,.95l2.722,1.482c.544-.726,1.363-1.234,2.302-1.369v-3.097c-.307-.087-.587-.253-.815-.49l-1.544-1.601c-.192-.199-.186-.515,.013-.707,.2-.191,.516-.186,.707,.013l1.544,1.601c.142,.147,.392,.236,.593,.252,.202-.016,.456-.105,.598-.252l1.544-1.601c.192-.199,.508-.204,.707-.013,.199,.192,.205,.508,.013,.707l-1.544,1.601c-.229,.237-.508,.403-.815,.49v3.097c.938,.135,1.758,.643,2.302,1.369l2.722-1.482c-.071-.311-.058-.637,.041-.95l.667-2.122c.083-.263,.361-.412,.627-.327,.264,.083,.41,.364,.327,.627l-.667,2.122c-.06,.192-.011,.456,.07,.641l.002,.005c.111,.168,.302,.348,.498,.401l2.145,.591c.266,.073,.422,.349,.349,.615s-.348,.421-.615,.349l-2.145-.591c-.317-.087-.597-.253-.82-.481Zm-3.501,2.699c0-1.378-1.122-2.5-2.5-2.5s-2.5,1.122-2.5,2.5,1.122,2.5,2.5,2.5,2.5-1.122,2.5-2.5Z"/></svg>
