<?xml version="1.0" encoding="UTF-8"?>
<svg xmlns="http://www.w3.org/2000/svg" id="Layer_1" data-name="Layer 1" viewBox="0 0 24 24" width="512" height="512"><path d="M12.5,5c1.379,0,2.5-1.122,2.5-2.5s-1.121-2.5-2.5-2.5-2.5,1.122-2.5,2.5,1.121,2.5,2.5,2.5Zm0-4c.827,0,1.5,.673,1.5,1.5s-.673,1.5-1.5,1.5-1.5-.673-1.5-1.5,.673-1.5,1.5-1.5Zm5.474,16.151l-1.66-8.043c-.371-1.8-1.975-3.107-3.813-3.107s-3.442,1.307-3.813,3.107l-1.667,8.083c-.089,.711,.132,1.427,.606,1.964,.474,.538,1.157,.846,1.874,.846h.5v3.5c0,.276,.224,.5,.5,.5s.5-.224,.5-.5v-3.5h3v3.5c0,.276,.224,.5,.5,.5s.5-.224,.5-.5v-3.5h.5c.717,0,1.4-.308,1.874-.846,.475-.537,.695-1.253,.6-2.003Zm-1.349,1.342c-.285,.322-.695,.507-1.125,.507h-6c-.43,0-.84-.185-1.125-.507-.284-.322-.417-.752-.37-1.14l1.66-8.043c.276-1.338,1.469-2.31,2.835-2.31s2.559,.971,2.835,2.31l1.653,8.004c.054,.427-.079,.856-.363,1.179Z"/></svg>
