<?xml version="1.0" encoding="UTF-8"?>
<svg xmlns="http://www.w3.org/2000/svg" id="Layer_1" data-name="Layer 1" viewBox="0 0 24 24" width="512" height="512"><path d="M16.694,20.276c.124,.247,.023,.547-.224,.671-1.247,.624-2.581,.973-3.971,1.04v1.512c0,.276-.224,.5-.5,.5s-.5-.224-.5-.5v-1.513c-5.117-.253-9.234-4.371-9.487-9.487H.5c-.276,0-.5-.224-.5-.5s.224-.5,.5-.5h1.513c.074-1.481,.478-2.936,1.178-4.237,.131-.244,.434-.333,.678-.203,.243,.131,.334,.435,.203,.678-.701,1.302-1.072,2.775-1.072,4.263,0,4.963,4.038,9,9,9,1.414,0,2.767-.318,4.023-.947,.247-.124,.547-.022,.671,.224ZM7.582,11.003c-.281-.029-.521,.168-.552,.442-.02,.182-.03,.367-.03,.555,0,2.757,2.243,5,5,5,.187,0,.372-.011,.553-.03,.274-.029,.473-.275,.444-.551-.029-.273-.268-.473-.55-.443-.146,.016-.296,.024-.447,.024-2.206,0-4-1.794-4-4,0-.15,.008-.299,.024-.445,.03-.274-.168-.521-.442-.552Zm16.271,12.144c.195,.195,.195,.512,0,.707-.098,.098-.226,.146-.354,.146s-.256-.049-.354-.146L.146,.854C-.049,.658-.049,.342,.146,.146S.658-.049,.854,.146L5.292,4.585c1.718-1.556,3.9-2.458,6.208-2.572V.5c0-.276,.224-.5,.5-.5s.5,.224,.5,.5v1.513c5.117,.253,9.234,4.371,9.487,9.487h1.513c.276,0,.5,.224,.5,.5s-.224,.5-.5,.5h-1.513c-.114,2.308-1.016,4.49-2.572,6.208l4.438,4.438ZM5.999,5.292l2.837,2.837c.891-.73,2.006-1.129,3.164-1.129,2.757,0,5,2.243,5,5,0,1.158-.399,2.273-1.128,3.165l2.836,2.836c1.48-1.652,2.292-3.775,2.292-6.001,0-4.963-4.038-9-9-9-2.227,0-4.349,.812-6.001,2.292ZM15.16,14.453c.544-.699,.84-1.56,.84-2.453,0-2.206-1.794-4-4-4-.893,0-1.753,.297-2.453,.84l5.612,5.612Z"/></svg>
