<?xml version="1.0" encoding="UTF-8"?>
<svg xmlns="http://www.w3.org/2000/svg" id="Layer_1" data-name="Layer 1" viewBox="0 0 24 24" width="512" height="512"><path d="M17.75,24c-2.506,0-3.548-1.104-4.468-2.078-.934-.989-1.815-1.922-4.282-1.922C4.29,20,0,15.19,0,9.909,0,4.445,4.445,0,9.909,0c9.836,0,14.091,11.754,14.091,17.75,0,3.446-2.804,6.25-6.25,6.25ZM9.909,1C4.997,1,1,4.997,1,9.909c0,5.12,4.3,9.091,8,9.091,2.898,0,4.02,1.188,5.009,2.236,.894,.947,1.666,1.764,3.741,1.764,2.895,0,5.25-2.355,5.25-5.25C23,11.738,18.625,1,9.909,1ZM5.854,13.854L13.854,5.854c.195-.195,.195-.512,0-.707s-.512-.195-.707,0L5.146,13.146c-.195,.195-.195,.512,0,.707,.098,.098,.226,.146,.354,.146s.256-.049,.354-.146Zm4,2l7-7c.195-.195,.195-.512,0-.707s-.512-.195-.707,0l-7,7c-.195,.195-.195,.512,0,.707,.098,.098,.226,.146,.354,.146s.256-.049,.354-.146Zm4,2l5-5c.195-.195,.195-.512,0-.707s-.512-.195-.707,0l-5,5c-.195,.195-.195,.512,0,.707,.098,.098,.226,.146,.354,.146s.256-.049,.354-.146Zm4,2l2-2c.195-.195,.195-.512,0-.707s-.512-.195-.707,0l-2,2c-.195,.195-.195,.512,0,.707,.098,.098,.226,.146,.354,.146s.256-.049,.354-.146ZM4.854,8.854l4-4c.195-.195,.195-.512,0-.707s-.512-.195-.707,0l-4,4c-.195,.195-.195,.512,0,.707,.098,.098,.226,.146,.354,.146s.256-.049,.354-.146Z"/></svg>
