<?xml version="1.0" encoding="UTF-8"?>
<svg xmlns="http://www.w3.org/2000/svg" id="Layer_1" data-name="Layer 1" viewBox="0 0 24 24" width="512" height="512"><path d="M10.5,15h-1c-.276,0-.5-.224-.5-.5s.224-.5,.5-.5h1c.276,0,.5,.224,.5,.5s-.224,.5-.5,.5Zm4.5-.5c0-.276-.224-.5-.5-.5h-1c-.276,0-.5,.224-.5,.5s.224,.5,.5,.5h1c.276,0,.5-.224,.5-.5Zm-4,4c0-.276-.224-.5-.5-.5h-1c-.276,0-.5,.224-.5,.5s.224,.5,.5,.5h1c.276,0,.5-.224,.5-.5Zm4,0c0-.276-.224-.5-.5-.5h-1c-.276,0-.5,.224-.5,.5s.224,.5,.5,.5h1c.276,0,.5-.224,.5-.5ZM11,6.5c0-.276-.224-.5-.5-.5h-1c-.276,0-.5,.224-.5,.5s.224,.5,.5,.5h1c.276,0,.5-.224,.5-.5Zm4,0c0-.276-.224-.5-.5-.5h-1c-.276,0-.5,.224-.5,.5s.224,.5,.5,.5h1c.276,0,.5-.224,.5-.5Zm-4,4c0-.276-.224-.5-.5-.5h-1c-.276,0-.5,.224-.5,.5s.224,.5,.5,.5h1c.276,0,.5-.224,.5-.5Zm4,0c0-.276-.224-.5-.5-.5h-1c-.276,0-.5,.224-.5,.5s.224,.5,.5,.5h1c.276,0,.5-.224,.5-.5Zm9,8.942V9.5c0-2.481-2.019-4.5-4.5-4.5h-.5v-.442c0-2.513-2.044-4.558-4.558-4.558h-4.942c-2.481,0-4.5,2.019-4.5,4.5v4.5h-.5c-2.481,0-4.5,2.019-4.5,4.5v6c0,2.481,2.019,4.5,4.5,4.5h14.942c2.513,0,4.558-2.045,4.558-4.558ZM5.5,10c.276,0,.5-.224,.5-.5V4.5c0-1.93,1.57-3.5,3.5-3.5h4.942c1.962,0,3.558,1.596,3.558,3.558v.942c0,.276,.224,.5,.5,.5h1c1.93,0,3.5,1.57,3.5,3.5v9.942c0,1.962-1.596,3.558-3.558,3.558H4.5c-1.93,0-3.5-1.57-3.5-3.5v-6c0-1.93,1.57-3.5,3.5-3.5h1Zm14.5,4.5c0-.276-.224-.5-.5-.5h-1c-.276,0-.5,.224-.5,.5s.224,.5,.5,.5h1c.276,0,.5-.224,.5-.5Zm0,4c0-.276-.224-.5-.5-.5h-1c-.276,0-.5,.224-.5,.5s.224,.5,.5,.5h1c.276,0,.5-.224,.5-.5ZM6,14.5c0-.276-.224-.5-.5-.5h-1c-.276,0-.5,.224-.5,.5s.224,.5,.5,.5h1c.276,0,.5-.224,.5-.5Zm0,4c0-.276-.224-.5-.5-.5h-1c-.276,0-.5,.224-.5,.5s.224,.5,.5,.5h1c.276,0,.5-.224,.5-.5Zm14-8c0-.276-.224-.5-.5-.5h-1c-.276,0-.5,.224-.5,.5s.224,.5,.5,.5h1c.276,0,.5-.224,.5-.5Z"/></svg>
