<?xml version="1.0" encoding="UTF-8"?>
<svg xmlns="http://www.w3.org/2000/svg" id="Layer_1" data-name="Layer 1" viewBox="0 0 24 24" width="512" height="512"><path d="M21,4v-1.5c0-1.379-1.122-2.5-2.5-2.5H2.5C1.122,0,0,1.121,0,2.5V6.5c0,1.379,1.122,2.5,2.5,2.5H18.5c1.378,0,2.5-1.121,2.5-2.5v-1.5c1.103,0,2,.897,2,2v2c0,1.103-.897,2-2,2h-7.5c-1.93,0-3.5,1.57-3.5,3.5v.55c-1.14,.232-2,1.242-2,2.45v4c0,1.379,1.122,2.5,2.5,2.5s2.5-1.121,2.5-2.5v-4c0-1.208-.86-2.217-2-2.45v-.55c0-1.379,1.122-2.5,2.5-2.5h7.5c1.654,0,3-1.346,3-3v-2c0-1.654-1.346-3-3-3Zm-1,2.5c0,.827-.673,1.5-1.5,1.5H2.5c-.827,0-1.5-.673-1.5-1.5V2.5c0-.827,.673-1.5,1.5-1.5H18.5c.827,0,1.5,.673,1.5,1.5V6.5Zm-8,11v4c0,.827-.673,1.5-1.5,1.5s-1.5-.673-1.5-1.5v-4c0-.827,.673-1.5,1.5-1.5s1.5,.673,1.5,1.5Z"/></svg>
