<?xml version="1.0" encoding="UTF-8"?>
<svg xmlns="http://www.w3.org/2000/svg" id="Layer_1" data-name="Layer 1" viewBox="0 0 24 24" width="512" height="512"><path d="M18.887,16.87c-.225-.537-.723-.87-1.3-.87h-4.587V4.5c0-2.481-2.019-4.5-4.5-4.5H.5C.224,0,0,.224,0,.5s.224,.5,.5,.5H8.5c1.93,0,3.5,1.57,3.5,3.5v11.5H7.413c-.577,0-1.075,.333-1.3,.87-.224,.534-.106,1.146,.3,1.557l5.088,5.154c.267,.27,.621,.419,.999,.419s.732-.149,.999-.419l5.088-5.154c.406-.411,.523-1.022,.3-1.557Zm-1.011,.854l-5.088,5.154c-.156,.158-.42,.158-.576,0l-5.088-5.154c-.185-.188-.114-.405-.088-.468,.031-.077,.133-.256,.377-.256h10.174c.244,0,.346,.179,.377,.256,.026,.062,.097,.28-.088,.468Z"/></svg>
