<?xml version="1.0" encoding="UTF-8"?>
<svg xmlns="http://www.w3.org/2000/svg" id="Layer_1" data-name="Layer 1" viewBox="0 0 24 24" width="512" height="512"><path d="M23.907,22.437c-.073-2.444-.366-4.316-.599-5.456-.235-1.148-1.264-1.981-2.446-1.981h-2.471l-.365-5.154,.737-.08c.824-.12,1.524-.609,1.921-1.342,.396-.732,.423-1.584,.073-2.338C19.121,2.559,14.807,0,10.5,0,4.71,0,0,4.71,0,10.5c0,.991,.206,2.787,.612,5.339,.282,1.774,1.531,3.214,3.259,3.758,.616,.194,1.224,.368,1.82,.538,1.482,.424,2.883,.824,4.174,1.469,.533,.266,1.105,.396,1.67,.396,.945,0,1.87-.362,2.557-1.048l1.04-.955c.019,.002,2.61,.003,2.61,.003l.091,1.287c.073,1.041,.79,1.935,1.782,2.225,.842,.246,1.857,.413,2.783,.488,.382,0,.754-.148,1.035-.415,.314-.298,.486-.716,.474-1.148Zm-8.583-3.437l-1.523-3h3.658l.213,3h-2.347Zm-2.03-4c-.343-.74-.424-1.571-.224-2.369,.354-1.414,1.389-2.345,2.822-2.554l1.139-.124,.357,5.046h-4.093Zm2.472-5.914c-1.846,.268-3.216,1.503-3.666,3.303-.282,1.127-.128,2.309,.427,3.311l1.846,3.636-.973,.895c-.807,.806-2.047,.999-3.088,.48-1.374-.686-2.817-1.099-4.346-1.536-.588-.168-1.187-.339-1.795-.53-1.364-.429-2.35-1.564-2.572-2.961-.392-2.465-.599-4.257-.599-5.182C1,5.262,5.262,1,10.5,1c3.937,0,7.869,2.316,9.35,5.506,.216,.464,.199,.99-.045,1.442-.245,.453-.677,.755-1.167,.826l-2.871,.312Zm2.695,6.914h2.401c.709,0,1.326,.498,1.467,1.182,.097,.477,.206,1.087,.303,1.818h-3.959l-.212-3Zm4.283,6.86c-.106,.101-.244,.149-.384,.138-.858-.07-1.688-.22-2.464-.446-.593-.173-1.021-.709-1.065-1.335l-.086-1.217h4.005c.074,.735,.132,1.559,.159,2.466,.004,.148-.055,.292-.163,.394Zm-.346,1.14c.04,.003-.04,0,0,0h0Zm-12.398-8c0,.552-.448,1-1,1s-1-.448-1-1,.448-1,1-1,1,.448,1,1Z"/></svg>
