<?xml version="1.0" encoding="UTF-8"?>
<svg xmlns="http://www.w3.org/2000/svg" id="Layer_1" data-name="Layer 1" width="512" height="512" viewBox="0 0 24 24"><path d="M18,15c0-.552,.448-1,1-1s1,.448,1,1-.448,1-1,1-1-.448-1-1Zm-13-1c-.552,0-1,.448-1,1s.448,1,1,1,1-.448,1-1-.448-1-1-1Zm19-6v7.5c0,1.393-.819,2.599-2,3.162v1.838c0,1.378-1.121,2.5-2.5,2.5s-2.5-1.122-2.5-2.5v-1.5H7v1.5c0,1.378-1.121,2.5-2.5,2.5s-2.5-1.122-2.5-2.5v-1.838c-1.181-.563-2-1.769-2-3.162v-7.5c0-.551,.448-1,1-1h1.074c.67-1.337,1.377-2.539,2.116-3.594,.649-.926,1.605-1.578,2.69-1.834,1.099-.261,2.88-.571,5.119-.571s4.021,.311,5.119,.571c1.085,.257,2.041,.908,2.69,1.834,.74,1.056,1.447,2.257,2.116,3.594h1.074c.552,0,1,.449,1,1Zm-2.072-.995h0Zm-19.857,0h0Zm-1.008,4.908c1.77-.249,6.87-.913,10.936-.913s9.166,.664,10.936,.913c-1.164-3.191-2.491-5.859-3.945-7.933-.509-.725-1.256-1.235-2.103-1.436-1.048-.248-2.746-.544-4.889-.544s-3.841,.296-4.889,.544c-.847,.201-1.594,.711-2.103,1.436-1.454,2.074-2.781,4.742-3.945,7.933Zm4.936,7.087H3.5c-.17,0-.337-.012-.5-.036v1.536c0,.827,.673,1.5,1.5,1.5s1.5-.673,1.5-1.5v-1.5Zm15-.036c-.163,.023-.33,.036-.5,.036h-2.5v1.5c0,.827,.673,1.5,1.5,1.5s1.5-.673,1.5-1.5v-1.536Zm2-6.032c-1.52-.218-6.823-.932-11-.932s-9.48,.714-11,.932v2.568c0,1.378,1.121,2.5,2.5,2.5H20.5c1.379,0,2.5-1.122,2.5-2.5v-2.568Z"/></svg>
