<?xml version="1.0" encoding="UTF-8"?>
<svg xmlns="http://www.w3.org/2000/svg" id="Layer_1" data-name="Layer 1" viewBox="0 0 24 24" width="512" height="512"><path d="m15.904,16.143c.197.193.201.51.008.707l-2.515,2.57c-.381.381-.88.574-1.378.579-.499-.004-1.034-.196-1.413-.575l-2.519-2.574c-.193-.197-.189-.514.008-.707.199-.193.516-.188.707.008l2.515,2.57c.056.056.117.103.183.143v-7.363c0-.276.224-.5.5-.5s.5.224.5.5v7.363c.066-.04.129-.088.187-.146l2.511-2.566c.193-.196.51-.201.707-.008Zm6.096-6.157v9.515c0,2.481-2.019,4.5-4.5,4.5H6.5c-2.481,0-4.5-2.019-4.5-4.5V4.5C2,2.019,4.019,0,6.5,0h5.515c1.735,0,3.368.676,4.597,1.904l3.484,3.485c1.228,1.227,1.904,2.859,1.904,4.596Zm-8-3.485c0,.827.673,1.5,1.5,1.5h5.132c-.273-.706-.693-1.353-1.244-1.904l-3.484-3.485c-.552-.551-1.199-.97-1.904-1.243v5.132Zm7,3.485c0-.334-.03-.663-.088-.985h-5.412c-1.379,0-2.5-1.122-2.5-2.5V1.088c-.322-.058-.651-.088-.985-.088h-5.515c-1.93,0-3.5,1.57-3.5,3.5v15c0,1.93,1.57,3.5,3.5,3.5h11c1.93,0,3.5-1.57,3.5-3.5v-9.515Zm-8.981,10.014c-.007,0,.006,0,0,0h0Z"/></svg>
