<?xml version="1.0" encoding="UTF-8"?>
<svg xmlns="http://www.w3.org/2000/svg" id="Layer_1" data-name="Layer 1" viewBox="0 0 24 24" width="512" height="512"><path d="M21,19.5V4.5c0-1.1-.41-2.09-1.07-2.88,0,0-.01-.02-.02-.02-.83-.97-2.04-1.6-3.41-1.6H7.5c-1.37,0-2.59,.63-3.41,1.6,0,0-.01,.02-.02,.02-.66,.78-1.07,1.78-1.07,2.88v15c0,1.1,.41,2.09,1.07,2.88,0,0,.01,.02,.02,.02,.83,.97,2.04,1.6,3.41,1.6h9c1.37,0,2.59-.63,3.41-1.6,0,0,.02-.02,.02-.02,.66-.78,1.07-1.78,1.07-2.88Zm-1,0c0,.65-.19,1.26-.5,1.78l-6.87-9.28L19.5,2.72c.31,.52,.5,1.13,.5,1.78v15ZM16.5,1c.9,0,1.72,.35,2.34,.92l-6.84,9.24L5.16,1.92c.62-.57,1.44-.92,2.34-.92h9ZM4,4.5c0-.65,.19-1.26,.5-1.78l6.87,9.28-6.87,9.28c-.31-.52-.5-1.13-.5-1.78V4.5Zm3.5,18.5c-.9,0-1.72-.35-2.34-.92l6.84-9.24,6.84,9.24c-.62,.57-1.44,.92-2.34,.92H7.5Z"/></svg>
