<?xml version="1.0" encoding="UTF-8"?>
<svg xmlns="http://www.w3.org/2000/svg" id="Layer_1" data-name="Layer 1" viewBox="0 0 24 24" width="512" height="512"><path d="m17.5,10c0-2.206-1.794-4-4-4h-3c-1.654,0-3,1.346-3,3v8.5c0,.276.224.5.5.5s.5-.224.5-.5v-3.5h5c.069,0,.137-.002.205-.005l2.11,3.75c.092.163.261.255.436.255.083,0,.168-.021.245-.064.24-.135.326-.44.19-.681l-1.942-3.453c1.599-.524,2.757-2.03,2.757-3.802Zm-4,3h-5v-4c0-1.103.897-2,2-2h3c1.654,0,3,1.346,3,3s-1.346,3-3,3ZM12,0C5.383,0,0,5.383,0,12s5.383,12,12,12,12-5.383,12-12S18.617,0,12,0Zm0,23c-6.065,0-11-4.935-11-11S5.935,1,12,1s11,4.935,11,11-4.935,11-11,11Z"/></svg>
