<?xml version="1.0" encoding="UTF-8"?>
<svg xmlns="http://www.w3.org/2000/svg" id="Layer_1" data-name="Layer 1" viewBox="0 0 24 24" width="512" height="512"><path d="M21.36,.831c-.474-.528-1.151-.831-1.86-.831H4.5c-.709,0-1.387,.303-1.86,.831s-.702,1.235-.625,1.94l1.872,17.216c.249,2.288,2.172,4.014,4.474,4.014h7.28c2.302,0,4.225-1.726,4.474-4.014l1.872-17.216h0c.077-.705-.151-1.412-.625-1.94Zm-.369,1.832l-1.872,17.216c-.193,1.78-1.689,3.122-3.479,3.122h-7.28c-1.79,0-3.286-1.342-3.479-3.122l-1.291-11.878h13.911c.276,0,.5-.224,.5-.5s-.224-.5-.5-.5H3.48l-.472-4.338c-.046-.429,.086-.842,.375-1.164,.288-.321,.685-.498,1.116-.498h15c.432,0,.828,.177,1.116,.498,.289,.322,.421,.735,.375,1.164Z"/></svg>
