<?xml version="1.0" encoding="UTF-8"?>
<svg xmlns="http://www.w3.org/2000/svg" id="Layer_1" data-name="Layer 1" viewBox="0 0 24 24" width="512" height="512"><path d="m7,14c2.206,0,4-1.794,4-4s-1.794-4-4-4-4,1.794-4,4,1.794,4,4,4Zm0-7c1.654,0,3,1.346,3,3s-1.346,3-3,3-3-1.346-3-3,1.346-3,3-3Zm7,16v.5c0,.276-.224.5-.5.5s-.5-.224-.5-.5v-.5c0-3.309-2.691-6-6-6s-6,2.691-6,6v.5c0,.276-.224.5-.5.5s-.5-.224-.5-.5v-.5c0-3.859,3.14-7,7-7s7,3.141,7,7ZM19.535,0h-10.035c-2.055,0-3.847,1.388-4.358,3.375-.069.268.092.54.36.609.263.069.54-.092.609-.359.397-1.546,1.792-2.625,3.39-2.625h10.035c1.93,0,3.5,1.57,3.5,3.498l-.035,9.002c0,1.93-1.57,3.5-3.5,3.5h-.5v-1.5c0-.827-.673-1.5-1.5-1.5h-2c-.827,0-1.5.673-1.5,1.5v1c0,.827.673,1.5,1.5,1.5h4c2.481,0,4.5-2.019,4.5-4.498l.035-9.002c0-2.481-2.019-4.5-4.5-4.5Zm-1.535,17h-2.5c-.276,0-.5-.225-.5-.5v-1c0-.275.224-.5.5-.5h2c.276,0,.5.225.5.5v1.5Z"/></svg>
