<?xml version="1.0" encoding="UTF-8"?>
<svg xmlns="http://www.w3.org/2000/svg" id="Layer_1" data-name="Layer 1" viewBox="0 0 24 24" width="512" height="512"><path d="m20.179,3.32C17.854,1.074,14.81-.106,11.624.009,5.305.227.092,5.546.002,11.866c-.043,3.1,1.133,6.025,3.313,8.237,2.478,2.513,5.975,3.897,9.848,3.897h6.336c2.481,0,4.5-2.019,4.5-4.5v-7.145c0-3.396-1.393-6.689-3.821-9.036Zm2.821,16.18c0,1.93-1.57,3.5-3.5,3.5h-6.336c-3.603,0-6.847-1.278-9.136-3.599-1.991-2.02-3.065-4.69-3.025-7.521C1.084,6.085,5.865,1.208,11.658,1.008c.126-.004.25-.006.376-.006,2.78,0,5.414,1.07,7.45,3.038,2.234,2.159,3.516,5.19,3.516,8.316v7.145Zm-6-7.5c0,.276-.224.5-.5.5h-4v4c0,.276-.224.5-.5.5s-.5-.224-.5-.5v-4h-4c-.276,0-.5-.224-.5-.5s.224-.5.5-.5h4v-4c0-.276.224-.5.5-.5s.5.224.5.5v4h4c.276,0,.5.224.5.5Z"/></svg>
