<?xml version="1.0" encoding="UTF-8"?>
<svg xmlns="http://www.w3.org/2000/svg" id="Layer_1" data-name="Layer 1" viewBox="0 0 24 24" width="512" height="512"><path d="M22.02,11.06c.63-.87,.98-1.94,.98-3.06,0-2.55-1.87-4.73-4.16-4.98,.09-.07,.18-.15,.27-.23,.63-.63,.83-1.51,.89-2.12,.04-.38-.29-.71-.67-.67-.61,.06-1.49,.27-2.12,.89-.28,.28-.48,.62-.62,.96C15.95,.68,14.79,.09,14.72,.05c-.24-.12-.54-.02-.67,.22-.12,.25-.03,.55,.22,.67,.01,0,1.38,.72,1.67,2.05h-1.36c-.92,0-1.83,.32-2.6,.9-.63-.48-1.37-.79-2.16-.87,.09-.07,.18-.15,.27-.23,.63-.63,.83-1.51,.89-2.12,.04-.38-.29-.71-.67-.67-.61,.06-1.49,.27-2.12,.89-.28,.28-.48,.62-.62,.96C6.95,.68,5.79,.09,5.72,.05c-.24-.12-.54-.02-.67,.22-.12,.25-.03,.55,.22,.67,.01,0,1.38,.72,1.67,2.05h-1.36C3.1,3,1,5.29,1,8c0,1.11,.35,2.18,.98,3.06-1.13,.24-1.98,1.25-1.98,2.44v6c0,2.48,2.02,4.5,4.5,4.5h15c2.48,0,4.5-2.02,4.5-4.5v-6c0-1.2-.85-2.2-1.98-2.44Zm-3.61-7.06c1.95,0,3.59,1.83,3.59,4,0,1.13-.46,2.23-1.24,3h-7.69c.6-.86,.94-1.91,.94-3,0-1.3-.49-2.51-1.26-3.41,.56-.39,1.2-.59,1.86-.59h3.82Zm-12.82,0h3.82c1.95,0,3.59,1.83,3.59,4,0,1.14-.45,2.23-1.24,3H3.24c-.79-.77-1.24-1.86-1.24-3,0-2.17,1.64-4,3.59-4Zm17.41,15.5c0,1.93-1.57,3.5-3.5,3.5H4.5c-1.76,0-3.22-1.31-3.46-3H19.5c.28,0,.5-.22,.5-.5s-.22-.5-.5-.5H1v-3H19.5c.28,0,.5-.22,.5-.5s-.22-.5-.5-.5H1v-1.5c0-.83,.67-1.5,1.5-1.5H21.5c.83,0,1.5,.67,1.5,1.5v6Z"/></svg>
