<?xml version="1.0" encoding="UTF-8"?>
<svg xmlns="http://www.w3.org/2000/svg" id="Layer_1" data-name="Layer 1" viewBox="0 0 24 24" width="512" height="512"><path d="M11,7.173v-2.173h2.5c.276,0,.5-.224,.5-.5s-.224-.5-.5-.5h-2.5v-.5c0-1.93-1.57-3.5-3.5-3.5s-3.5,1.57-3.5,3.5v3.673C1.629,8.285,0,10.838,0,13.5v6c0,2.481,2.019,4.5,4.5,4.5h6c2.481,0,4.5-2.019,4.5-4.5v-6c0-2.662-1.629-5.215-4-6.327ZM5,3.5c0-1.378,1.122-2.5,2.5-2.5s2.5,1.122,2.5,2.5v3.5H5V3.5ZM14,19.5c0,1.93-1.57,3.5-3.5,3.5H4.5c-1.93,0-3.5-1.57-3.5-3.5v-6c0-2.311,1.508-4.608,3.6-5.5h5.801c2.091,.892,3.6,3.189,3.6,5.5v6Zm-4.5-5.5H5.5c-1.378,0-2.5,1.122-2.5,2.5s1.122,2.5,2.5,2.5h4c1.378,0,2.5-1.122,2.5-2.5s-1.122-2.5-2.5-2.5Zm0,4H5.5c-.827,0-1.5-.673-1.5-1.5s.673-1.5,1.5-1.5h4c.827,0,1.5,.673,1.5,1.5s-.673,1.5-1.5,1.5ZM18,5c0,.552-.448,1-1,1s-1-.448-1-1,.448-1,1-1,1,.448,1,1Zm6,0c0,.552-.448,1-1,1s-1-.448-1-1,.448-1,1-1,1,.448,1,1Zm-2-4c0-.552,.448-1,1-1s1,.448,1,1-.448,1-1,1-1-.448-1-1Zm2,8c0,.552-.448,1-1,1s-1-.448-1-1,.448-1,1-1,1,.448,1,1Zm-3-6c0,.552-.448,1-1,1s-1-.448-1-1,.448-1,1-1,1,.448,1,1Zm0,4c0,.552-.448,1-1,1s-1-.448-1-1,.448-1,1-1,1,.448,1,1Z"/></svg>
