<?xml version="1.0" encoding="UTF-8"?>
<svg xmlns="http://www.w3.org/2000/svg" id="Layer_1" data-name="Layer 1" viewBox="0 0 24 24" width="512" height="512"><path d="M23.2,8.67c.49-.27,.8-.77,.8-1.33v-1.35c0-2.21-1.79-4-4-4H4C1.79,2,0,3.79,0,6v1.35c0,.55,.31,1.06,.8,1.33,.55,.29,1.2,.85,1.2,1.83s-.65,1.53-1.2,1.83c-.49,.27-.8,.77-.8,1.33v5.85c0,1.38,1.12,2.5,2.5,2.5H21.5c1.38,0,2.5-1.12,2.5-2.5v-5.85c0-.55-.31-1.06-.8-1.33-.55-.29-1.2-.85-1.2-1.83s.65-1.53,1.2-1.83Zm-1.7,12.33h-1.5v-1.5c0-.28-.22-.5-.5-.5s-.5,.22-.5,.5v1.5h-4v-1.5c0-.28-.22-.5-.5-.5s-.5,.22-.5,.5v1.5h-4v-1.5c0-.28-.22-.5-.5-.5s-.5,.22-.5,.5v1.5H5v-1.5c0-.28-.22-.5-.5-.5s-.5,.22-.5,.5v1.5h-1.5c-.83,0-1.5-.67-1.5-1.5v-1.5H23v1.5c0,.83-.67,1.5-1.5,1.5Zm1.22-7.79c.17,.09,.28,.26,.28,.45v3.35H1v-3.35c0-.19,.1-.35,.27-.45,.64-.35,1.73-1.16,1.73-2.71s-1.08-2.36-1.73-2.71c-.17-.09-.27-.26-.27-.45v-1.35c0-1.65,1.35-3,3-3H20c1.65,0,3,1.35,3,3v1.35c0,.19-.1,.35-.28,.45-.64,.35-1.72,1.16-1.72,2.71s1.08,2.36,1.72,2.71ZM12.5,6.5V14.5c0,.28-.22,.5-.5,.5s-.5-.22-.5-.5V6.5c0-.28,.22-.5,.5-.5s.5,.22,.5,.5Zm-5.5,0V14.5c0,.28-.22,.5-.5,.5s-.5-.22-.5-.5V6.5c0-.28,.22-.5,.5-.5s.5,.22,.5,.5Zm11,0V14.5c0,.28-.22,.5-.5,.5s-.5-.22-.5-.5V6.5c0-.28,.22-.5,.5-.5s.5,.22,.5,.5Z"/></svg>
