<?xml version="1.0" encoding="UTF-8"?>
<svg xmlns="http://www.w3.org/2000/svg" id="Layer_1" data-name="Layer 1" viewBox="0 0 24 24" width="512" height="512"><path d="M12.549,23.999H4.63C2.084,23.999,0,21.916,0,19.369v-4.691c0-.888,.198-1.783,.678-2.53,1.1-1.711,3.041-2.487,4.906-2.092l15.371,3.029L23.005,.42c.043-.274,.304-.458,.575-.414,.273,.044,.459,.301,.414,.574l-2.533,15.636c-.135,.96-.336,1.724-.631,2.395-1.442,3.274-4.691,5.389-8.279,5.389ZM4.623,10.956c-1.203,0-2.352,.594-3.072,1.684-.389,.588-.551,1.298-.551,2.003v4.729c0,2.004,1.624,3.628,3.628,3.628h6.804c2.726,0,5.378-1.053,7.256-3.029,1.002-1.054,1.515-2.03,1.779-3.904l.325-1.993-15.41-3.037c-.253-.053-.507-.08-.759-.08Z"/><path d="M15.518,16.763c-.034,0-.07-.003-.105-.011l-10.553-2.217c-.27-.057-.443-.322-.387-.592,.058-.27,.322-.443,.594-.386l10.553,2.217c.27,.057,.443,.322,.387,.592-.05,.235-.258,.397-.489,.397Z"/><path d="M10.99,19.984c-.035,0-.07-.003-.106-.011l-6.996-1.484c-.27-.058-.443-.323-.386-.593,.058-.271,.331-.438,.595-.385l6.996,1.484c.27,.058,.443,.323,.386,.593-.05,.235-.258,.396-.489,.396Z"/></svg>
