<?xml version="1.0" encoding="UTF-8"?>
<svg xmlns="http://www.w3.org/2000/svg" id="Layer_1" data-name="Layer 1" viewBox="0 0 24 24" width="512" height="512"><path d="M11.91,24c-1.51,0-3.02-.29-4.49-.89-2.96-1.19-5.34-3.58-6.53-6.54C-.46,13.23-.26,9.65,1.44,6.49,3.22,3.18,6.44,.78,10.05,.05c.71-.14,1.45,.04,2.02,.51,.59,.48,.93,1.2,.93,1.96V11h8.5c.76,0,1.47,.34,1.96,.93,.47,.57,.65,1.31,.51,2.02-.73,3.61-3.14,6.83-6.44,8.61-1.78,.96-3.68,1.44-5.61,1.44ZM10.53,1c-.09,0-.18,0-.28,.03C6.92,1.7,3.96,3.92,2.32,6.96c-1.56,2.89-1.74,6.17-.5,9.24,1.09,2.71,3.27,4.89,5.98,5.98,3.07,1.24,6.35,1.06,9.25-.5,3.05-1.64,5.27-4.6,5.94-7.93,.08-.42-.03-.85-.3-1.19-.29-.36-.72-.56-1.18-.56H12.5c-.28,0-.5-.22-.5-.5V2.51c0-.46-.2-.89-.56-1.18-.26-.22-.58-.33-.91-.33Z"/></svg>
