<?xml version="1.0" encoding="UTF-8"?>
<svg xmlns="http://www.w3.org/2000/svg" id="Layer_1" data-name="Layer 1" viewBox="0 0 24 24" width="512" height="512"><path d="M20.1,5.39l-3.49-3.49c-1.23-1.23-2.86-1.9-4.6-1.9H6.5C4.02,0,2,2.02,2,4.5v15c0,2.48,2.02,4.5,4.5,4.5h11c2.48,0,4.5-2.02,4.5-4.5V9.99c0-1.74-.68-3.37-1.9-4.6Zm-.71,.71c.55,.55,.97,1.2,1.24,1.9h-5.13c-.83,0-1.5-.67-1.5-1.5V1.37c.71,.27,1.35,.69,1.9,1.24l3.49,3.49Zm1.61,13.4c0,1.93-1.57,3.5-3.5,3.5H6.5c-1.93,0-3.5-1.57-3.5-3.5V4.5c0-1.93,1.57-3.5,3.5-3.5h5.51c.33,0,.66,.03,.99,.09V6.5c0,1.38,1.12,2.5,2.5,2.5h5.41c.06,.32,.09,.65,.09,.99v9.51ZM6.97,13h-.97c-.55,0-1,.45-1,1v4.5c0,.28,.22,.5,.5,.5s.5-.22,.5-.5v-1.5h.97c1.11,0,2.01-.92,2.01-2.02s-.9-1.98-2.01-1.98Zm0,3h-.97v-2h.97c.56,0,1.01,.44,1.01,.98s-.46,1.02-1.01,1.02Zm5.03-3h0s-.51,0-1,0c-.55,0-1,.45-1,1v4c0,.55,.45,1,1,1,.48,0,.97,0,1,0h0c1.11,0,2-.89,2-1.98v-2.03c0-1.09-.89-1.98-2-1.98Zm1,4.02c0,.53-.43,.96-.96,.98h-1.04v-4h1.04c.53,.02,.96,.46,.96,.98v2.03Zm6-3.52c0,.28-.22,.5-.5,.5h-2.5v2s1.5,0,1.5,0c.28,0,.5,.22,.5,.5s-.22,.5-.5,.5h-1.5v1.5c0,.28-.22,.5-.5,.5s-.5-.22-.5-.5v-4.5c0-.55,.45-1,1-1h2.5c.28,0,.5,.22,.5,.5Z"/></svg>
