<?xml version="1.0" encoding="UTF-8"?>
<svg xmlns="http://www.w3.org/2000/svg" id="Layer_1" data-name="Layer 1" viewBox="0 0 24 24" width="512" height="512"><path d="m12,0C5.383,0,0,5.383,0,12s5.383,12,12,12,12-5.383,12-12S18.617,0,12,0Zm0,23c-6.065,0-11-4.935-11-11S5.935,1,12,1s11,4.935,11,11-4.935,11-11,11Zm5-7.939c0,1.621-1.346,2.939-2.999,2.939h-4.001c-1.581,0-2.712-.928-2.952-2.421-.043-.272.143-.529.415-.573.266-.043.528.143.573.415.229,1.425,1.449,1.579,1.964,1.579h4.001c1.103,0,1.999-.87,1.999-1.939,0-.884-.616-1.656-1.498-1.877l-5.255-1.398c-1.32-.332-2.247-1.503-2.247-2.846,0-1.621,1.346-2.939,2.999-2.939h4.002c1.581,0,2.712.928,2.952,2.421.043.272-.143.529-.415.573-.268.038-.529-.143-.573-.415-.229-1.425-1.449-1.579-1.964-1.579h-4.002c-1.103,0-1.999.87-1.999,1.939,0,.884.616,1.656,1.498,1.877l5.255,1.398c1.32.332,2.247,1.503,2.247,2.846Z"/></svg>
