<?xml version="1.0" encoding="UTF-8"?>
<svg xmlns="http://www.w3.org/2000/svg" id="Layer_1" data-name="Layer 1" width="512" height="512" viewBox="0 0 24 24"><path d="M20.5,24c-.042,0-.086-.005-.129-.017-.267-.071-.426-.345-.354-.612,.114-.428,.243-.826,.369-1.218,.315-.98,.614-1.906,.614-3.16,0-2.766-1.029-4.801-1.927-6.265-.965-1.576-2.073-3.771-2.073-6.788,0-1.884,.772-4.482,1.294-5.646,.113-.252,.409-.365,.661-.251,.252,.113,.364,.409,.251,.661-.421,.938-1.206,3.436-1.206,5.236,0,2.766,1.029,4.801,1.927,6.265,.965,1.576,2.073,3.771,2.073,6.788,0,1.411-.337,2.456-.663,3.467-.121,.375-.244,.758-.354,1.168-.06,.224-.262,.371-.483,.371Zm-7,0c-.042,0-.086-.005-.129-.017-.267-.071-.426-.345-.354-.612,.114-.428,.243-.826,.369-1.218,.315-.98,.614-1.906,.614-3.16,0-2.766-1.029-4.801-1.927-6.265-.965-1.576-2.073-3.771-2.073-6.788,0-1.884,.772-4.482,1.294-5.646,.112-.252,.409-.365,.661-.251,.252,.113,.364,.409,.251,.661-.421,.938-1.206,3.436-1.206,5.236,0,2.766,1.029,4.801,1.927,6.265,.965,1.576,2.073,3.771,2.073,6.788,0,1.411-.337,2.456-.663,3.467-.121,.375-.244,.758-.354,1.168-.06,.224-.262,.371-.483,.371Zm-7,0c-.042,0-.086-.005-.129-.017-.267-.071-.426-.345-.354-.612,.114-.428,.243-.826,.369-1.218,.315-.98,.614-1.906,.614-3.16,0-2.766-1.029-4.801-1.927-6.265-.965-1.576-2.073-3.771-2.073-6.788,0-1.884,.772-4.482,1.294-5.646,.112-.252,.41-.365,.661-.251,.252,.113,.364,.409,.251,.661-.421,.938-1.206,3.436-1.206,5.236,0,2.766,1.029,4.801,1.927,6.265,.965,1.576,2.073,3.771,2.073,6.788,0,1.411-.337,2.456-.663,3.467-.121,.375-.244,.758-.354,1.168-.06,.224-.262,.371-.483,.371Z"/></svg>
