<?xml version="1.0" encoding="UTF-8"?>
<svg xmlns="http://www.w3.org/2000/svg" id="Layer_1" data-name="Layer 1" viewBox="0 0 24 24" width="512" height="512"><path d="M14.92,6.15c-.61-.82-1.56-1.28-2.67-1.13-.57-.65-1.39-1.03-2.26-1.03-1.16,0-2.22,.68-2.71,1.72-1.08,.44-1.79,1.48-1.79,2.65,0,0,0,.02,0,.03-.92,.53-1.5,1.52-1.5,2.6,0,1.65,1.35,3,3,3,.75,0,1.46-.28,2-.77v6.27c0,.28,.22,.5,.5,.5s.5-.22,.5-.5v-6.5c.82-.05,1.54-.42,2.09-1h1.91c1.65,0,3-1.35,3-3,0-1.3-.84-2.45-2.08-2.85Zm-.92,4.85h-2.13c-.15,0-.29,.07-.39,.18-.43,.52-1.06,.82-1.73,.82-.17,0-.35-.03-.56-.08-.21-.05-.42,.03-.54,.2-.37,.55-.99,.88-1.65,.88-1.1,0-2-.9-2-2,0-.81,.48-1.53,1.23-1.84,.21-.09,.33-.36,.29-.59,0-.06-.02-.13-.02-.19,0-.82,.53-1.53,1.32-1.78,.15-.05,.26-.16,.32-.3,.3-.79,1.03-1.3,1.86-1.3,.65,0,1.27,.32,1.64,.86,.12,.17,.33,.25,.53,.2,.17-.04,.32-.06,.45-.06,.63,0,1.22,.32,1.57,.86,.07,.11,.17,.18,.3,.21,.89,.23,1.51,1.02,1.51,1.93,0,1.1-.9,2-2,2Zm5.77-6.61C17.34,1.16,13.34-.48,9.32,.13,4.5,.85,.44,5.29,.07,10.23c-.2,2.7,.48,5.21,1.97,7.26,.63,.86,.96,1.81,.96,2.73v1.28c0,1.47,1.03,2.5,2.5,2.5H13.5c1.38,0,2.5-1.12,2.5-2.5v-.5h.99c2.11,0,3.96-1.5,4.4-3.57l.52-2.43h.55c1.13,0,1.55-.87,1.55-1.45,0-1.28-2.84-7.43-4.23-9.15Zm2.69,9.61h-.96c-.24,0-.44,.17-.49,.4l-.6,2.83c-.34,1.61-1.78,2.77-3.42,2.77h-1.49c-.28,0-.5,.22-.5,.5v1c0,.83-.67,1.5-1.5,1.5H5.5c-.69,0-1.5-.39-1.5-1.5v-1.28c0-1.14-.4-2.29-1.15-3.32-1.35-1.86-1.96-4.14-1.78-6.6C1.4,5.81,5.09,1.78,9.47,1.12c.5-.08,1.01-.11,1.51-.11,3.13,0,6.1,1.46,8,4h.01c1.41,1.76,4.01,7.68,4.01,8.54,0,.21-.11,.46-.55,.46Z"/></svg>
