<?xml version="1.0" encoding="UTF-8"?>
<svg xmlns="http://www.w3.org/2000/svg" id="Layer_1" data-name="Layer 1" viewBox="0 0 24 24" width="512" height="512"><path d="m22.5,23h-1.5V6.652c0-2.013-1.506-3.719-3.504-3.969l-4.996-.624V.5c0-.276-.224-.5-.5-.5s-.5.224-.5.5v1.559l-4.997.624c-1.997.25-3.503,1.957-3.503,3.969v16.348h-1.5c-.276,0-.5.224-.5.5s.224.5.5.5h21c.276,0,.5-.224.5-.5s-.224-.5-.5-.5ZM6.627,3.675l5.373-.671,5.372.671c.896.112,1.66.615,2.13,1.325H4.498c.469-.709,1.233-1.213,2.129-1.325Zm-2.627,2.977c0-.224.025-.442.072-.652h15.855c.047.211.072.429.072.652v16.348H4V6.652Zm2,2.848v-1c0-.276.224-.5.5-.5s.5.224.5.5v1c0,.276-.224.5-.5.5s-.5-.224-.5-.5Zm2,0v-1c0-.276.224-.5.5-.5s.5.224.5.5v1c0,.276-.224.5-.5.5s-.5-.224-.5-.5Zm8-1v1c0,.276-.224.5-.5.5s-.5-.224-.5-.5v-1c0-.276.224-.5.5-.5s.5.224.5.5Zm2,0v1c0,.276-.224.5-.5.5s-.5-.224-.5-.5v-1c0-.276.224-.5.5-.5s.5.224.5.5Zm-12,4v-1c0-.276.224-.5.5-.5s.5.224.5.5v1c0,.276-.224.5-.5.5s-.5-.224-.5-.5Zm2,0v-1c0-.276.224-.5.5-.5s.5.224.5.5v1c0,.276-.224.5-.5.5s-.5-.224-.5-.5Zm8-1v1c0,.276-.224.5-.5.5s-.5-.224-.5-.5v-1c0-.276.224-.5.5-.5s.5.224.5.5Zm-2-3v1c0,.276-.224.5-.5.5s-.5-.224-.5-.5v-1c0-.276.224-.5.5-.5s.5.224.5.5Zm0,3v1c0,.276-.224.5-.5.5s-.5-.224-.5-.5v-1c0-.276.224-.5.5-.5s.5.224.5.5Zm-3-3v1c0,.276-.224.5-.5.5s-.5-.224-.5-.5v-1c0-.276.224-.5.5-.5s.5.224.5.5Zm0,3v1c0,.276-.224.5-.5.5s-.5-.224-.5-.5v-1c0-.276.224-.5.5-.5s.5.224.5.5Zm7,0v1c0,.276-.224.5-.5.5s-.5-.224-.5-.5v-1c0-.276.224-.5.5-.5s.5.224.5.5Zm-9.5,3.5h-1c-.827,0-1.5.673-1.5,1.5v1c0,.827.673,1.5,1.5,1.5h1c.827,0,1.5-.673,1.5-1.5v-1c0-.827-.673-1.5-1.5-1.5Zm.5,2.5c0,.276-.225.5-.5.5h-1c-.275,0-.5-.224-.5-.5v-1c0-.276.225-.5.5-.5h1c.275,0,.5.224.5.5v1Z"/></svg>
