<?xml version="1.0" encoding="UTF-8"?>
<svg xmlns="http://www.w3.org/2000/svg" id="Layer_1" data-name="Layer 1" viewBox="0 0 24 24" width="512" height="512"><path d="M20,7.036v-.536c0-3.584-2.916-6.5-6.5-6.5H7.5C3.916,0,1,2.916,1,6.5v7.784c0,1.4,.391,2.77,1.13,3.959l.87,1.399v.869c0,1.922,1.564,3.481,3.489,3.488h10.015c1.928-.002,3.496-1.569,3.496-3.497v-.806l.986-1.058c1.299-1.393,2.014-3.209,2.014-5.114v-3.025c0-1.76-1.306-3.221-3-3.464Zm-3.497,15.967l-10.013,.009c-1.373-.005-2.49-1.127-2.49-2.5v-.512h15v.503c0,1.377-1.12,2.499-2.497,2.5Zm5.497-9.478c0,1.651-.62,3.225-1.746,4.433l-.972,1.042H3.778l-.799-1.285c-.641-1.031-.979-2.217-.979-3.431v-5.263c.621,.615,1.492,.979,2.5,.979H13.5c.276,0,.5-.224,.5-.5s-.224-.5-.5-.5H4.5c-1.472,0-2.5-1.028-2.5-2.5C2,3.467,4.467,1,7.5,1h6c3.032,0,5.5,2.467,5.5,5.5v.536c-1.694,.243-3,1.704-3,3.464v3c0,.276,.224,.5,.5,.5s.5-.224,.5-.5v-3c0-1.378,1.121-2.5,2.5-2.5s2.5,1.122,2.5,2.5v3.025Z"/></svg>
