<?xml version="1.0" encoding="UTF-8"?>
<svg xmlns="http://www.w3.org/2000/svg" id="Layer_1" data-name="Layer 1" viewBox="0 0 24 24" width="512" height="512"><path d="m19.5,0H4.5C2.019,0,0,2.019,0,4.5v15c0,2.481,2.019,4.5,4.5,4.5h15c2.481,0,4.5-2.019,4.5-4.5V4.5c0-2.481-2.019-4.5-4.5-4.5Zm3.5,19.5c0,1.93-1.57,3.5-3.5,3.5H4.5c-1.93,0-3.5-1.57-3.5-3.5V4.5c0-1.93,1.57-3.5,3.5-3.5h15c1.93,0,3.5,1.57,3.5,3.5v15Zm-11.5-7.752l-5.054-3.85c-.22-.167-.263-.481-.095-.701.166-.22.483-.261.7-.095l4.948,3.769,4.948-3.769c.217-.166.533-.125.7.095.168.22.125.534-.095.701l-5.054,3.85v5.252c0,.276-.224.5-.5.5s-.5-.224-.5-.5v-5.252Zm9.5-4.248c0,2.206-1.794,4-4,4-.194,0-.385-.014-.571-.041-.273-.04-.463-.293-.424-.566.039-.274.296-.464.566-.424.14.021.283.031.429.031,1.654,0,3-1.346,3-3s-1.346-3-3-3-3,1.346-3,3c0,.276-.224.5-.5.5s-.5-.224-.5-.5c0-2.206,1.794-4,4-4s4,1.794,4,4Zm-13.005,3.393c.039.273-.15.527-.424.566-.187.026-.377.041-.571.041-2.206,0-4-1.794-4-4s1.794-4,4-4,4,1.794,4,4c0,.276-.224.5-.5.5s-.5-.224-.5-.5c0-1.654-1.346-3-3-3s-3,1.346-3,3,1.346,3,3,3c.146,0,.289-.01.429-.031.268-.041.526.15.566.424Zm6.862,3.308c.736.751,1.143,1.746,1.143,2.799,0,2.206-1.794,4-4,4s-4-1.794-4-4c0-1.084.427-2.099,1.201-2.857.197-.194.514-.188.707.007.193.197.189.514-.008.707-.58.569-.9,1.33-.9,2.143,0,1.654,1.346,3,3,3s3-1.346,3-3c0-.79-.305-1.536-.857-2.099-.193-.197-.189-.514.008-.707.196-.194.514-.189.707.007Z"/></svg>
