<?xml version="1.0" encoding="UTF-8"?>
<svg xmlns="http://www.w3.org/2000/svg" id="Layer_1" data-name="Layer 1" viewBox="0 0 24 24" width="512" height="512"><path d="M23.429,6.976c-.494-.62-1.231-.976-2.023-.976H2.592c-.792,0-1.53,.355-2.023,.976C.069,7.603-.113,8.41,.066,9.191c.803,3.502,3.2,6.379,6.337,7.967l-2.37,6.161c-.099,.258,.029,.547,.287,.646,.06,.022,.12,.033,.18,.033,.201,0,.391-.122,.467-.32l2.348-6.104c1.308,.535,2.721,.854,4.185,.913v5.011c0,.276,.224,.5,.5,.5s.5-.224,.5-.5v-5.011c1.464-.059,2.877-.378,4.185-.914l2.348,6.105c.076,.198,.266,.32,.467,.32,.06,0,.12-.011,.18-.033,.258-.1,.386-.389,.287-.646l-2.37-6.162c3.136-1.588,5.532-4.466,6.335-7.967,.18-.782-.004-1.59-.503-2.216Zm-.472,1.993c-1.133,4.942-5.741,8.53-10.957,8.53S2.174,13.911,1.041,8.968c-.111-.483,.002-.982,.31-1.369,.303-.381,.755-.599,1.241-.599H21.405c.485,0,.938,.218,1.241,.599,.309,.387,.421,.886,.311,1.37ZM11.5,3.5V.5c0-.276,.224-.5,.5-.5s.5,.224,.5,.5V3.5c0,.276-.224,.5-.5,.5s-.5-.224-.5-.5Zm4.5,0V.5c0-.276,.224-.5,.5-.5s.5,.224,.5,.5V3.5c0,.276-.224,.5-.5,.5s-.5-.224-.5-.5Zm-9,0V.5c0-.276,.224-.5,.5-.5s.5,.224,.5,.5V3.5c0,.276-.224,.5-.5,.5s-.5-.224-.5-.5Z"/></svg>
