<?xml version="1.0" encoding="UTF-8"?>
<svg xmlns="http://www.w3.org/2000/svg" id="Layer_1" data-name="Layer 1" width="512" height="512" viewBox="0 0 24 24"><path d="M24,13c0,2.912-1.06,5.721-2.984,7.909-1.171,1.332-3.222,1.467-4.567,.3l-.594-.512c-.209-.181-.231-.497-.052-.706,.183-.21,.498-.23,.706-.052l.594,.513c.933,.81,2.354,.719,3.162-.203,1.764-2.006,2.735-4.58,2.735-7.249,0-3.257-1.432-6.327-3.927-8.425-2.493-2.096-5.794-2.971-9.06-2.401C5.285,2.999,1.7,6.771,1.092,11.56c-.407,3.206,.533,6.294,2.648,8.695,.793,.899,2.239,.99,3.158,.198l.593-.513c.208-.181,.524-.158,.706,.051,.181,.209,.157,.524-.051,.705l-.593,.513c-.616,.533-1.379,.795-2.137,.795-.899,0-1.792-.368-2.426-1.089C.682,18.296-.344,14.929,.1,11.435,.763,6.207,4.678,2.09,9.842,1.189c3.558-.627,7.155,.333,9.875,2.62,2.722,2.288,4.283,5.638,4.283,9.19Zm-10.278-1.015c.176,.298,.278,.645,.278,1.015,0,1.103-.897,2-2,2s-2-.897-2-2,.897-2,2-2c.37,0,.717,.102,1.015,.278l3.631-3.631c.195-.195,.512-.195,.707,0s.195,.512,0,.707l-3.631,3.631Zm-.722,1.015c0-.552-.449-1-1-1s-1,.448-1,1,.449,1,1,1,1-.448,1-1Z"/></svg>
