<?xml version="1.0" encoding="UTF-8"?>
<svg xmlns="http://www.w3.org/2000/svg" id="Layer_1" data-name="Layer 1" viewBox="0 0 24 24" width="512" height="512"><path d="M23.439,11.923c-.388-.477-.929-.789-1.524-.888l.946-2.726c.444-1.306-.256-2.73-1.562-3.174-.578-.197-1.192-.172-1.736,.045l.4-2.263c.113-.659-.038-1.322-.425-1.867-.386-.545-.962-.907-1.621-1.02-1.358-.233-2.652,.684-2.883,2.028l-.195,.979c-.402-1.183-1.523-2.036-2.84-2.036s-2.443,.858-2.843,2.045l-.194-.975C8.729,.713,7.432-.206,6.077,.029c-1.36,.232-2.277,1.527-2.045,2.887h0v.003l.4,2.26c-.543-.218-1.157-.242-1.736-.044-.632,.215-1.144,.664-1.438,1.263-.295,.6-.339,1.278-.123,1.914l.945,2.724c-.594,.1-1.132,.412-1.52,.888C.084,12.509-.101,13.27,.054,14.01l1.335,6.408c.432,2.076,2.285,3.582,4.405,3.582h12.413c2.12,0,3.973-1.506,4.405-3.582l1.335-6.408c.154-.74-.031-1.5-.507-2.087Zm-4.118-5.372c.404-.451,1.086-.664,1.656-.47,.38,.129,.687,.398,.863,.758,.177,.36,.204,.768,.076,1.144l-1.047,3.017h-2.335l.787-4.449Zm-4.321,.805l1.018-5.116c.141-.814,.921-1.361,1.733-1.225,.816,.14,1.367,.917,1.228,1.73l-1.461,8.255h-2.518v-3.644Zm-5-3.356c0-1.103,.897-2,2-2s2,.897,2,2v7h-4V4ZM6.245,1.015c.818-.135,1.592,.411,1.735,1.238l1.02,5.126v3.622h-2.523L5.017,2.747c-.139-.816,.412-1.593,1.228-1.732ZM2.155,6.839c.177-.36,.484-.629,.864-.759,.572-.194,1.252,.019,1.656,.471l.787,4.448H3.127l-1.046-3.014c-.129-.379-.103-.787,.074-1.146Zm20.813,6.966l-1.335,6.408c-.336,1.614-1.777,2.786-3.426,2.786H5.793c-1.649,0-3.09-1.172-3.426-2.786l-1.335-6.408c-.092-.444,.019-.9,.305-1.252,.286-.352,.71-.554,1.164-.554H21.5c.454,0,.877,.202,1.164,.554,.286,.352,.397,.808,.305,1.252Z"/></svg>
