<?xml version="1.0" encoding="UTF-8"?>
<svg xmlns="http://www.w3.org/2000/svg" id="Layer_1" data-name="Layer 1" viewBox="0 0 24 24">
  <path d="m23.65,16.148c-.44-.719-1.205-1.148-2.046-1.148H2.395c-.837,0-1.6.427-2.041,1.142-.431.698-.47,1.549-.104,2.276,1.86,3.704,5.14,5.582,9.75,5.582h4c4.577,0,7.855-1.874,9.744-5.569.371-.727.336-1.58-.094-2.282Zm-.797,1.827c-1.728,3.381-4.623,5.024-8.854,5.024h-4c-4.201,0-7.181-1.692-8.857-5.031-.211-.421-.189-.896.062-1.303.257-.417.702-.666,1.19-.666h19.209c.49,0,.936.251,1.192.671.251.409.271.885.057,1.305ZM1.833,13h6.333c.49,0,.951-.19,1.297-.538s.537-.808.536-1.296l-.004-7.334c0-.755-.474-1.442-1.177-1.71-.701-.271-1.513-.076-2.026.493L.47,9.941c-.484.538-.606,1.312-.311,1.971.294.661.951,1.088,1.674,1.088Zm-.613-2.398L7.542,3.276c.161-.178.39-.275.623-.275.1,0,.201.019.297.056.319.121.534.433.534.775l.004,7.335c0,.222-.086.431-.244.589-.158.157-.367.244-.59.244H1.833c-.329,0-.627-.194-.761-.495-.134-.299-.078-.65.148-.903Zm11.316,1.861c.347.347.807.537,1.296.537h8.334c.723,0,1.38-.427,1.675-1.088.293-.659.171-1.433-.311-1.97L15.2.606c-.505-.559-1.317-.755-2.018-.484-.704.268-1.178.955-1.178,1.71l-.004,9.333c0,.489.189.949.536,1.297h0Zm.468-10.63c0-.343.215-.654.535-.776s.689-.034.916.219l8.33,9.335c.22.245.275.597.142.896-.134.301-.433.495-.761.495h-8.334c-.223,0-.432-.087-.59-.244-.157-.159-.244-.368-.243-.59l.005-9.334Z"/>
</svg>
