<?xml version="1.0" encoding="UTF-8"?>
<svg xmlns="http://www.w3.org/2000/svg" id="Layer_1" data-name="Layer 1" viewBox="0 0 24 24" width="512" height="512"><path d="M24,13.55v2.45c0,4.41-3.59,8-8,8h-.86c-.22,0-.41-.14-.48-.35l-3.09-9.84L2.02,6.83c-.52,1.09-.86,2.26-.95,3.47-.18,2.46,.43,4.74,1.78,6.6,.75,1.04,1.15,2.18,1.15,3.32v1.28c0,1.11,.81,1.5,1.5,1.5h6c.28,0,.5,.22,.5,.5s-.22,.5-.5,.5H5.5c-1.47,0-2.5-1.03-2.5-2.5v-1.28c0-.92-.33-1.87-.96-2.73C.56,15.44-.12,12.93,.07,10.23,.44,5.29,4.5,.85,9.32,.13c4.02-.61,8.03,1.03,10.46,4.27,1.37,1.7,4.23,7.86,4.23,9.14ZM2.5,5.94l9.67,7.06h1.58c2.55,0,5.47-.24,7.85-2.03l.4-.3c-.89-2.06-2.16-4.61-3.01-5.66C16.77,2.05,13.13,.57,9.47,1.12c-2.87,.43-5.44,2.32-6.97,4.83Zm20.5,7.6c0-.26-.24-.99-.61-1.92l-.19,.14c-2.62,1.96-5.74,2.23-8.46,2.23h-1.06l2.82,9h.5c3.86,0,7-3.14,7-7v-2.45Z"/></svg>
