<?xml version="1.0" encoding="UTF-8"?>
<svg xmlns="http://www.w3.org/2000/svg" id="Layer_1" data-name="Layer 1" viewBox="0 0 24 24" width="512" height="512"><path d="M14.5,18h-5c-1.93,0-3.5-1.57-3.5-3.5v-5c0-1.93,1.57-3.5,3.5-3.5h5c1.93,0,3.5,1.57,3.5,3.5v5c0,1.93-1.57,3.5-3.5,3.5ZM9.5,7c-1.38,0-2.5,1.12-2.5,2.5v5c0,1.38,1.12,2.5,2.5,2.5h5c1.38,0,2.5-1.12,2.5-2.5v-5c0-1.38-1.12-2.5-2.5-2.5h-5Zm14.5,13.5v-4c0-1.93-1.57-3.5-3.5-3.5-.28,0-.5,.22-.5,.5s.22,.5,.5,.5c1.38,0,2.5,1.12,2.5,2.5v4c0,1.38-1.12,2.5-2.5,2.5h-4c-1.38,0-2.5-1.12-2.5-2.5,0-.28-.22-.5-.5-.5s-.5,.22-.5,.5c0,1.93,1.57,3.5,3.5,3.5h4c1.93,0,3.5-1.57,3.5-3.5ZM4,10.5c0-.28-.22-.5-.5-.5-1.38,0-2.5-1.12-2.5-2.5V3.5c0-1.38,1.12-2.5,2.5-2.5H7.5c1.38,0,2.5,1.12,2.5,2.5,0,.28,.22,.5,.5,.5s.5-.22,.5-.5c0-1.93-1.57-3.5-3.5-3.5H3.5C1.57,0,0,1.57,0,3.5V7.5c0,1.93,1.57,3.5,3.5,3.5,.28,0,.5-.22,.5-.5Z"/></svg>
