<?xml version="1.0" encoding="UTF-8"?>
<svg xmlns="http://www.w3.org/2000/svg" id="Layer_1" data-name="Layer 1" viewBox="0 0 24 24" width="512" height="512"><path d="M19.5,2H9.5c-2.48,0-4.5,2.02-4.5,4.5v7c0,2.48,2.02,4.5,4.5,4.5h10c2.48,0,4.5-2.02,4.5-4.5V6.5c0-2.48-2.02-4.5-4.5-4.5Zm-10,1h10c1.76,0,3.2,1.31,3.45,3H6.05c.25-1.69,1.69-3,3.45-3Zm10,14H9.5c-1.93,0-3.5-1.57-3.5-3.5V7H23v6.5c0,1.93-1.57,3.5-3.5,3.5Zm-1.62,3.17c.18,.21,.16,.52-.04,.71-.82,.73-1.88,1.12-2.98,1.12H4.5c-2.48,0-4.5-2.02-4.5-4.5v-7.54c0-1.6,.86-3.1,2.25-3.9,.24-.14,.54-.06,.68,.18,.14,.24,.06,.54-.18,.68-1.08,.62-1.75,1.79-1.75,3.03v7.54c0,1.93,1.57,3.5,3.5,3.5H14.85c.85,0,1.67-.31,2.31-.88,.21-.18,.52-.16,.71,.04Z"/></svg>
