<?xml version="1.0" encoding="UTF-8"?>
<svg xmlns="http://www.w3.org/2000/svg" id="Layer_1" data-name="Layer 1" viewBox="0 0 24 24" width="512" height="512"><path d="M23.011,18.277L5.73,.996C4.751,.019,3.35-.263,2.072,.269,.794,.798,0,1.985,0,3.369V19.377c0,2.553,2.077,4.63,4.63,4.63H20.638c1.383,0,2.572-.794,3.101-2.071,.529-1.278,.25-2.68-.728-3.658Zm-.196,3.275c-.292,.703-1.016,1.454-2.177,1.454H4.63c-2.001,0-3.63-1.628-3.63-3.63V3.369c0-1.161,.751-1.886,1.455-2.177,.269-.111,.588-.184,.925-.184,.544,0,1.136,.188,1.644,.694l2.601,2.601-2.16,2.16c-.195,.195-.195,.512,0,.707,.098,.098,.226,.146,.354,.146s.256-.049,.354-.146l2.16-2.16,2.173,2.173-2.16,2.16c-.195,.195-.195,.512,0,.707,.098,.098,.226,.146,.354,.146s.256-.049,.354-.146l2.16-2.16,2.122,2.122-2.16,2.16c-.195,.195-.195,.512,0,.707,.098,.098,.226,.146,.354,.146s.256-.049,.354-.146l2.16-2.16,2.121,2.121-2.16,2.16c-.195,.195-.195,.512,0,.707,.098,.098,.226,.146,.354,.146s.256-.049,.354-.146l2.16-2.16,2.121,2.121-2.16,2.16c-.195,.195-.195,.512,0,.707,.098,.098,.226,.146,.354,.146s.256-.049,.354-.146l2.16-2.16,2.608,2.608c.821,.821,.802,1.865,.511,2.568ZM6.854,12.146c-.143-.143-.357-.184-.545-.108-.187,.077-.309,.26-.309,.462v5c0,.276,.224,.5,.5,.5h5c.202,0,.385-.122,.462-.309,.078-.187,.035-.402-.108-.545l-5-5Zm.146,4.854v-3.293l3.293,3.293h-3.293Z"/></svg>
