<?xml version="1.0" encoding="UTF-8"?>
<svg xmlns="http://www.w3.org/2000/svg" id="Layer_1" data-name="Layer 1" viewBox="0 0 24 24" width="512" height="512"><path d="M22,11.5v3c0,5.15-4.58,9.5-10,9.5h-2.5c-1.93,0-3.5-1.57-3.5-3.5V9H2.5c-.28,0-.5-.22-.5-.5s.22-.5,.5-.5h3.5V3.5c0-1.38-1.12-2.5-2.5-2.5h-1c-.28,0-.5-.22-.5-.5s.22-.5,.5-.5h1c1.93,0,3.5,1.57,3.5,3.5v4.5h3.5c.28,0,.5,.22,.5,.5s-.22,.5-.5,.5h-3.5v11.5c0,1.38,1.12,2.5,2.5,2.5h2.5c4.79,0,9-3.97,9-8.5v-3c0-1.38-1.12-2.5-2.5-2.5h-2c-.28,0-.5-.22-.5-.5s.22-.5,.5-.5h2c1.93,0,3.5,1.57,3.5,3.5Z"/></svg>
