<?xml version="1.0" encoding="UTF-8"?>
<svg xmlns="http://www.w3.org/2000/svg" id="Layer_1" data-name="Layer 1" viewBox="0 0 24 24" width="512" height="512"><path d="M12,0C5.383,0,0,5.383,0,12s5.383,12,12,12,12-5.383,12-12S18.617,0,12,0Zm0,23c-6.065,0-11-4.935-11-11S5.935,1,12,1s11,4.935,11,11-4.935,11-11,11ZM17,6.5c-1.93,0-3.5,1.57-3.5,3.5s1.57,3.5,3.5,3.5,3.5-1.57,3.5-3.5-1.57-3.5-3.5-3.5Zm0,6c-1.379,0-2.5-1.121-2.5-2.5s1.121-2.5,2.5-2.5,2.5,1.121,2.5,2.5-1.121,2.5-2.5,2.5Zm1-2.5c0,.552-.448,1-1,1s-1-.448-1-1,.448-1,1-1,1,.448,1,1Zm-10.5,0c-1.263,0-2.14,.847-2.148,.855-.193,.192-.511,.191-.706-.004-.193-.196-.193-.511,0-.705,.047-.047,1.166-1.146,2.854-1.146s2.807,1.1,2.854,1.146c.195,.195,.195,.512,0,.707-.098,.098-.226,.146-.354,.146-.127,0-.255-.048-.352-.145-.009-.009-.886-.855-2.148-.855Zm9,5H7.5c-.276,0-.5,.224-.5,.5s.224,.5,.5,.5h1.5v.5c0,1.684,1.147,3.5,3,3.5s3-1.816,3-3.5v-.5h1.5c.276,0,.5-.224,.5-.5s-.224-.5-.5-.5Zm-2.5,1.5c0,1.202-.765,2.5-2,2.5s-2-1.298-2-2.5v-.5h4v.5Z"/></svg>
