<?xml version="1.0" encoding="UTF-8"?>
<svg xmlns="http://www.w3.org/2000/svg" id="Layer_1" data-name="Layer 1" viewBox="0 0 24 24" width="512" height="512"><path d="M20,10c0-1.092,.709-2.188,1.402-3.117,.563-.755,.74-1.719,.484-2.644-.382-1.381-1.685-2.239-3.399-2.239h-1.979c-.973-.017-1.799-.631-2.527-1.172-.183-.135-.356-.264-.521-.376-.888-.603-2.034-.602-2.92,.002-.164,.111-.335,.238-.516,.372-.73,.542-1.559,1.158-2.533,1.175-.414,.007-.911,.004-1.37,.002l-.621-.002c-1.148,0-2.956,.691-3.387,2.252-.251,.907-.071,1.886,.479,2.621,.696,.928,1.407,2.025,1.407,3.127,0,.93-.461,1.873-.949,2.871-.517,1.057-1.051,2.149-1.051,3.311,0,4.676,4.964,6.369,7.93,7.381,.306,.104,.59,.201,.843,.292,.387,.141,1.143,.145,1.228,.145,.034,0,.832-.001,1.239-.149,.249-.09,.527-.185,.826-.287,2.968-1.012,7.935-2.705,7.935-7.383,0-1.161-.534-2.254-1.051-3.311-.488-.999-.949-1.941-.949-2.871ZM3.393,6.273c-.366-.488-.484-1.144-.311-1.778,.282-1.02,1.609-1.495,2.418-1.495l.615,.002c.467,.001,.973,.004,1.394-.002,1.295-.023,2.303-.771,3.112-1.372,.168-.125,.328-.244,.481-.349,.546-.371,1.249-.372,1.795,0,.155,.105,.317,.226,.487,.352,.808,.6,1.813,1.347,3.115,1.37h1.987c.977,0,2.129,.396,2.436,1.506,.173,.625,.056,1.273-.321,1.779-.392,.524-.788,1.1-1.088,1.716H4.489c-.302-.621-.701-1.201-1.097-1.728ZM13.743,22.618c-.306,.104-.59,.201-.844,.293-.264,.095-1.537,.095-1.785,.004-.26-.094-.549-.192-.861-.299-2.713-.925-7.253-2.474-7.253-6.435,0-.93,.461-1.873,.949-2.871,.517-1.057,1.051-2.149,1.051-3.311,0-.341-.049-.675-.134-1h14.269c-.086,.325-.135,.659-.135,1,0,1.161,.534,2.254,1.051,3.311,.488,.999,.949,1.941,.949,2.871,0,3.962-4.543,5.511-7.257,6.436Z"/></svg>
