<?xml version="1.0" encoding="UTF-8"?>
<svg xmlns="http://www.w3.org/2000/svg" id="Layer_1" data-name="Layer 1" width="512" height="512" viewBox="0 0 24 24"><path d="M12,24C5.383,24,0,18.617,0,12S5.383,0,12,0s12,5.383,12,12-5.383,12-12,12ZM12,1C5.935,1,1,5.935,1,12s4.935,11,11,11,11-4.935,11-11S18.065,1,12,1ZM7.5,19c-1.378,0-2.5-1.121-2.5-2.5,0-1.241,.968-2.837,1.618-3.607,.21-.249,.517-.392,.841-.393h.002c.323,0,.628,.141,.839,.388,.631,.737,1.699,2.328,1.699,3.612,0,1.379-1.122,2.5-2.5,2.5Zm-.118-5.463c-.574,.68-1.382,2.049-1.382,2.963,0,.827,.673,1.5,1.5,1.5s1.5-.673,1.5-1.5c0-.923-.873-2.277-1.459-2.963h-.159Zm10.507,3.277c.173-.214,.141-.528-.073-.702-.106-.087-2.638-2.112-5.815-2.112-.181,0-.359,.006-.536,.019-.275,.02-.483,.259-.463,.534,.019,.275,.251,.481,.534,.464,.153-.011,.308-.017,.464-.017,2.815,0,5.162,1.87,5.186,1.889,.093,.074,.203,.111,.313,.111,.146,0,.29-.063,.39-.186Z"/><circle cx="8" cy="10" r="1"/><circle cx="16" cy="10" r="1"/></svg>
