<?xml version="1.0" encoding="UTF-8"?>
<svg xmlns="http://www.w3.org/2000/svg" id="Layer_1" data-name="Layer 1" viewBox="0 0 24 24" width="512" height="512"><path d="M12,24C5.383,24,0,18.617,0,12S5.383,0,12,0s12,5.383,12,12-5.383,12-12,12ZM12,1C5.935,1,1,5.935,1,12s4.935,11,11,11,11-4.935,11-11S18.065,1,12,1Zm1,16.5V7.077c0-.437-.261-.827-.664-.994-.405-.165-.864-.075-1.226,.297l-2.018,2.83c-.16,.225-.108,.537,.117,.697,.225,.16,.537,.108,.697-.117l1.994-2.797,.099,.084v10.423c0,.276,.224,.5,.5,.5s.5-.224,.5-.5Z"/></svg>
