<?xml version="1.0" encoding="UTF-8"?>
<svg xmlns="http://www.w3.org/2000/svg" id="Layer_1" data-name="Layer 1" viewBox="0 0 24 24" width="512" height="512"><path d="M20.75,16.85c-.24-.13-.55-.03-.67,.21-1.26,2.43-3.73,3.94-6.46,3.94h-.61V3h.61c2.78,0,5.28,1.55,6.52,4.04,.12,.25,.42,.35,.67,.23,.25-.12,.35-.42,.23-.67-1.41-2.83-4.25-4.6-7.41-4.6h-.61V.5c0-.28-.22-.5-.5-.5s-.5,.22-.5,.5v1.5h-.5C6.81,2,3,5.81,3,10.5v3c0,4.69,3.81,8.5,8.5,8.5h.5v1.5c0,.28,.22,.5,.5,.5s.5-.22,.5-.5v-1.5h.61c3.11,0,5.93-1.72,7.35-4.48,.13-.25,.03-.55-.21-.67Zm-9.25,4.15c-4.14,0-7.5-3.36-7.5-7.5v-3c0-4.14,3.36-7.5,7.5-7.5h.5V21h-.5Z"/></svg>
