<?xml version="1.0" encoding="UTF-8"?>
<svg xmlns="http://www.w3.org/2000/svg" id="Layer_1" data-name="Layer 1" viewBox="0 0 24 24" width="512" height="512"><path d="M23.858,10.651c-.195-.195-.512-.195-.707,0l-.903,.903L12.459,1.765l.903-.903c.195-.195,.195-.512,0-.707s-.512-.195-.707,0L4.655,8.155c-.195,.195-.195,.512,0,.707,.098,.098,.226,.146,.354,.146s.256-.049,.354-.146l.934-.934,4.54,4.54L.146,23.146c-.195,.195-.195,.512,0,.708,.098,.098,.226,.146,.354,.146s.256-.049,.354-.146L11.544,13.176l4.541,4.541-.934,.934c-.195,.195-.195,.512,0,.707,.098,.098,.226,.146,.354,.146s.256-.049,.354-.146l8-8c.195-.195,.195-.512,0-.707Zm-9.734,3.691l-2.224-2.224-.002-.003-.003-.002-2.151-2.151,4.749-4.749,4.379,4.379c-.837,.837-3.738,3.738-4.749,4.749ZM11.752,2.472l2.034,2.034-4.749,4.749-2.034-2.034L11.752,2.472Zm3.078,12.577c1.013-1.013,3.913-3.913,4.749-4.749l1.961,1.961-4.749,4.749-1.961-1.961Z"/></svg>
