<?xml version="1.0" encoding="UTF-8"?>
<svg xmlns="http://www.w3.org/2000/svg" id="Layer_1" data-name="Layer 1" viewBox="0 0 24 24" width="512" height="512"><path d="M21.5,7h-1.52c-.26-3.9-3.52-7-7.48-7h-4c-2.48,0-4.5,2.02-4.5,4.5v2.5h-1.5c-.28,0-.5,.22-.5,.5s.22,.5,.5,.5h1.5v15.5c0,.28,.22,.5,.5,.5s.5-.22,.5-.5V15h7.5c3.97,0,7.22-3.1,7.48-7h1.52c.28,0,.5-.22,.5-.5s-.22-.5-.5-.5ZM5,4.5c0-1.93,1.57-3.5,3.5-3.5h4c3.42,0,6.22,2.65,6.48,6H5v-2.5Zm7.5,9.5H5v-6h13.98c-.26,3.35-3.07,6-6.48,6Z"/></svg>
