<?xml version="1.0" encoding="UTF-8"?>
<svg xmlns="http://www.w3.org/2000/svg" id="Layer_1" data-name="Layer 1" width="512" height="512" viewBox="0 0 24 24"><path d="M12,24C5.383,24,0,18.617,0,12S5.383,0,12,0s12,5.383,12,12-5.383,12-12,12ZM12,1C5.935,1,1,5.935,1,12s4.935,11,11,11,11-4.935,11-11S18.065,1,12,1Zm0,18c-3.051,0-5.596-1.854-6.764-3.69-.331-.521-.316-1.16,.039-1.668,.353-.505,.943-.739,1.542-.606,.288,.063,.614,.156,.981,.262,1.028,.296,2.436,.702,4.197,.702,1.764,0,3.176-.407,4.206-.703,.367-.105,.693-.199,.979-.261,.604-.134,1.191,.101,1.543,.606,.355,.508,.37,1.147,.039,1.668h0c-1.168,1.836-3.713,3.69-6.764,3.69Zm-5.509-5c-.227,0-.357,.16-.396,.215-.045,.065-.181,.297-.015,.558,1.021,1.606,3.248,3.227,5.92,3.227s4.898-1.621,5.92-3.227h0c.166-.261,.03-.493-.015-.558-.045-.064-.213-.265-.51-.203-.268,.059-.573,.147-.917,.246-1.088,.312-2.578,.741-4.482,.742-1.902,0-3.389-.429-4.474-.741-.344-.099-.649-.188-.919-.247-.039-.009-.077-.012-.112-.012Zm2.509-4c0,.552-.448,1-1,1s-1-.448-1-1,.448-1,1-1,1,.448,1,1Zm7-1c-.552,0-1,.448-1,1s.448,1,1,1,1-.448,1-1-.448-1-1-1Z"/></svg>
