<?xml version="1.0" encoding="UTF-8"?>
<svg xmlns="http://www.w3.org/2000/svg" id="Layer_1" data-name="Layer 1" viewBox="0 0 24 24" width="512" height="512"><path d="M19.5,4h-2.03c-.25-2.25-2.16-4-4.47-4h-2.5c-2.31,0-4.22,1.75-4.47,4h-1.53C2.02,4,0,6.02,0,8.5v11c0,2.48,2.02,4.5,4.5,4.5h15c2.48,0,4.5-2.02,4.5-4.5V8.5c0-2.48-2.02-4.5-4.5-4.5ZM10.5,1h2.5c1.76,0,3.22,1.31,3.46,3H7.04c.24-1.69,1.7-3,3.46-3Zm12.5,18.5c0,1.93-1.57,3.5-3.5,3.5H4.5c-1.93,0-3.5-1.57-3.5-3.5V8.5c0-1.93,1.57-3.5,3.5-3.5h15c1.93,0,3.5,1.57,3.5,3.5v11Z"/></svg>
