<?xml version="1.0" encoding="UTF-8"?>
<svg xmlns="http://www.w3.org/2000/svg" id="Layer_1" data-name="Layer 1" viewBox="0 0 24 24" width="512" height="512"><circle cx="7" cy="3" r="1"/><circle cx="17" cy="3" r="1"/><path d="m23.5,17c-.276,0-.5.224-.5.5v.5c0,1.103-.897,2-2,2s-2-.897-2-2v-1.951c.344-.201.669-.403.954-.599.665-.458,1.047-1.169,1.047-1.951s-.382-1.492-1.046-1.95c-.134-.092-.285-.187-.432-.281.121-1.82,1.626-3.269,3.477-3.269h.5c.276,0,.5-.224.5-.5s-.224-.5-.5-.5h-.5c-2.211,0-4.044,1.605-4.42,3.71-.965-.524-2.131-1.006-3.462-1.327l1.7-3.401c.061.004.12.018.182.018,1.654,0,3-1.346,3-3s-1.346-3-3-3-3,1.346-3,3c0,1.233.749,2.293,1.814,2.753l-1.713,3.426c-.668-.107-1.363-.179-2.101-.179s-1.433.072-2.101.179l-1.696-3.435c1.056-.465,1.797-1.518,1.797-2.744,0-1.654-1.346-3-3-3s-3,1.346-3,3,1.346,3,3,3c.07,0,.135-.016.204-.021l1.681,3.403c-1.332.321-2.499.804-3.464,1.328-.376-2.105-2.209-3.71-4.42-3.71h-.5c-.276,0-.5.224-.5.5s.224.5.5.5h.5c1.851,0,3.356,1.449,3.477,3.27-.146.094-.297.188-.43.28-.665.458-1.047,1.168-1.047,1.95s.382,1.493,1.047,1.951c.284.196.61.398.953.599v1.951c0,1.103-.897,2-2,2s-2-.897-2-2v-.5c0-.276-.224-.5-.5-.5s-.5.224-.5.5v.5c0,1.654,1.346,3,3,3s3-1.346,3-3v-1.418c.871.425,1.876.802,3,1.063v1.855c0,1.93-1.57,3.5-3.5,3.5-.276,0-.5.224-.5.5s.224.5.5.5c2.481,0,4.5-2.019,4.5-4.5v-1.665c.638.098,1.299.165,2,.165s1.362-.067,2-.165v1.665c0,2.481,2.019,4.5,4.5,4.5.276,0,.5-.224.5-.5s-.224-.5-.5-.5c-1.93,0-3.5-1.57-3.5-3.5v-1.855c1.124-.26,2.129-.638,3-1.063v1.418c0,1.654,1.346,3,3,3s3-1.346,3-3v-.5c0-.276-.224-.5-.5-.5ZM15,3c0-1.103.897-2,2-2s2,.897,2,2-.897,2-2,2-2-.897-2-2Zm-10,0c0-1.103.897-2,2-2s2,.897,2,2-.897,2-2,2-2-.897-2-2Zm-.387,11.627c-.39-.269-.613-.68-.613-1.127s.224-.858.614-1.126c1.57-1.083,4.127-2.373,7.386-2.373s5.816,1.291,7.388,2.373c.39.269.613.679.613,1.126s-.224.859-.613,1.127c-1.572,1.083-4.129,2.373-7.388,2.373s-5.814-1.291-7.387-2.373Z"/></svg>
