<?xml version="1.0" encoding="UTF-8"?>
<svg xmlns="http://www.w3.org/2000/svg" id="Layer_1" data-name="Layer 1" viewBox="0 0 24 24" width="512" height="512"><path d="m23.192,5.562c-.469-.174-.974-.039-1.34.383-.78.902-1.686,1.95-2.852,2.554v-3.999c0-.276-.224-.5-.5-.5s-.5.224-.5.5v4.38c-.316.078-.648.12-1,.12h-1v-4.438c0-.733-.325-1.434-.892-1.921-.589-.505-1.369-.727-2.143-.609-.941.144-2.011.351-3.121.625C7.453.758,3.9.145,1.383.002.882-.041.418.228.172.666c-.251.445-.227.985.063,1.408.16.233.381.497.626.788.658.784,1.461,1.74,1.613,2.807-1.488,1.051-2.474,2.324-2.474,3.83,0,1.521,1.004,2.803,2.516,3.86L.113,20.173c-.261.915-.083,1.874.49,2.633.572.759,1.446,1.194,2.396,1.194,1.359,0,2.553-.917,2.892-2.199l2.027-5.989c1.775.548,3.569.931,5.048,1.156.136.021.272.031.407.031.634,0,1.25-.225,1.735-.641.566-.487.892-1.188.892-1.921v-4.438h1c.354,0,.686.04,1,.113v4.387c0,.276.224.5.5.5s.5-.224.5-.5v-4.02c1.162.587,2.051,1.621,2.872,2.576.243.282.57.434.908.434.137,0,.275-.024.411-.075.504-.187.83-.68.83-1.256v-5.339c0-.576-.326-1.069-.829-1.257ZM1.627,2.219c-.221-.263-.422-.5-.567-.711-.109-.159-.04-.31-.017-.352.035-.062.125-.166.284-.156,2.174.124,5.111.576,7.269,1.987-1.837.524-3.701,1.223-5.221,2.107-.306-1.158-1.12-2.127-1.749-2.875Zm3.308,19.294c-.232.876-1.028,1.487-1.935,1.487-.634,0-1.216-.29-1.598-.796-.382-.507-.501-1.146-.336-1.728l2.316-6.566c1.069.621,2.307,1.15,3.586,1.592l-2.034,6.011Zm10.065-7.074c0,.441-.198.865-.543,1.162-.367.315-.852.454-1.339.38-4.685-.716-12.117-3.108-12.117-6.48S8.432,3.735,13.117,3.02c.086-.013.171-.02.256-.02.397,0,.781.14,1.083.399.345.297.543.721.543,1.162v9.877Zm8.021-2.28c0,.187-.092.287-.178.318-.079.028-.147.004-.223-.084-.848-.986-1.912-2.224-3.375-2.898,1.448-.68,2.52-1.919,3.388-2.923.066-.076.132-.101.21-.071.082.03.178.133.178.319v5.339Z"/></svg>
