<?xml version="1.0" encoding="UTF-8"?>
<svg xmlns="http://www.w3.org/2000/svg" id="Layer_1" data-name="Layer 1" viewBox="0 0 24 24" width="512" height="512"><path d="M12,24C5.383,24,0,18.617,0,12S5.383,0,12,0s12,5.383,12,12-5.383,12-12,12ZM12,1C5.935,1,1,5.935,1,12s4.935,11,11,11,11-4.935,11-11S18.065,1,12,1Zm4,16.5c0-.276-.224-.5-.5-.5h-6.022c-.275,0-.393-.191-.431-.273-.031-.067-.118-.306,.076-.535,.556-.655,1.565-1.105,2.633-1.582,2.044-.911,4.361-1.944,4.239-4.834-.089-2.117-1.844-3.775-3.995-3.775-2.206,0-4,1.794-4,4,0,.276,.224,.5,.5,.5s.5-.224,.5-.5c0-1.654,1.346-3,3-3,1.613,0,2.929,1.238,2.996,2.818,.094,2.21-1.723,3.021-3.647,3.878-1.176,.524-2.286,1.019-2.989,1.849-.384,.453-.469,1.067-.221,1.603,.244,.525,.756,.853,1.338,.853h6.022c.276,0,.5-.224,.5-.5Z"/></svg>
