<?xml version="1.0" encoding="UTF-8"?>
<svg xmlns="http://www.w3.org/2000/svg" id="Layer_1" data-name="Layer 1" width="512" height="512" viewBox="0 0 24 24"><path d="M23.997,11.723c-.148-6.49-5.472-11.723-11.997-11.723S.151,5.233,.003,11.723c-.007,.022-.029,.242-.003,.321,.024,6.597,5.398,11.956,11.999,11.956s11.975-5.359,11.999-11.956c.026-.079,.005-.3-.003-.321ZM12,1c4.344,0,8.107,2.531,9.894,6.195l-8.101,1.62c-1.236,.246-2.491,.246-3.726,0l-7.973-1.594C3.875,3.543,7.646,1,12,1ZM1.012,12.505l4.55,.91c1.022,.204,1.894,.848,2.391,1.766l.624,1.153c.276,.511,.422,1.087,.422,1.666v4.584c-4.457-1.265-7.77-5.276-7.988-10.079Zm8.988,10.312v-4.817c0-.745-.188-1.486-.543-2.143l-.625-1.153c-.639-1.18-1.76-2.008-3.074-2.27l-4.746-.949c.054-1.164,.29-2.282,.68-3.325l8.178,1.635c.683,.137,1.371,.205,2.059,.205s1.376-.068,2.06-.205l8.309-1.662c.396,1.051,.635,2.177,.69,3.351l-4.745,.949c-1.315,.262-2.436,1.09-3.075,2.27l-.625,1.153c-.355,.656-.542,1.397-.542,2.143v4.817c-.649,.12-1.317,.183-2,.183s-1.351-.063-2-.183Zm5-.233v-4.584c0-.579,.146-1.155,.422-1.666l.625-1.153c.498-.918,1.369-1.562,2.392-1.766l4.55-.91c-.218,4.804-3.531,8.814-7.988,10.079Z"/></svg>
