<?xml version="1.0" encoding="UTF-8"?>
<svg xmlns="http://www.w3.org/2000/svg" id="Layer_1" data-name="Layer 1" viewBox="0 0 24 24" width="512" height="512"><path d="m8,8.5c0-1.93,1.57-3.5,3.5-3.5.276,0,.5.224.5.5s-.224.5-.5.5c-1.379,0-2.5,1.121-2.5,2.5,0,.276-.224.5-.5.5s-.5-.224-.5-.5Zm16,14c0,.827-.673,1.5-1.5,1.5H1.5c-.827,0-1.5-.673-1.5-1.5,0-1.76,1.306-3.221,3-3.464v-10.036C3,4.037,7.037,0,12,0s9,4.037,9,9v10.036c1.694.243,3,1.704,3,3.464ZM4,9v10h16v-10c0-4.411-3.589-8-8-8S4,4.589,4,9Zm19,13.5c0-1.379-1.121-2.5-2.5-2.5H3.5c-1.379,0-2.5,1.121-2.5,2.5,0,.275.225.5.5.5h21c.275,0,.5-.225.5-.5Z"/></svg>
