<?xml version="1.0" encoding="UTF-8"?>
<svg xmlns="http://www.w3.org/2000/svg" id="Layer_1" data-name="Layer 1" viewBox="0 0 24 24" width="512" height="512"><path d="M16.137,5.015c1.131-.926,1.863-2.19,1.863-3.515,0-.276-.224-.5-.5-.5s-.5,.224-.5,.5c0,1.739-1.93,3.743-4.5,3.977V.5c0-.276-.224-.5-.5-.5s-.5,.224-.5,.5l.004,4.977c-2.572-.233-4.504-2.238-4.504-3.977,0-.276-.224-.5-.5-.5s-.5,.224-.5,.5c0,1.325,.733,2.589,1.864,3.515C3.486,5.282,0,9.197,0,13.971c0,4.734,4.238,10.029,9.909,10.029h4.182c6.506,0,9.909-5.045,9.909-10.029,0-4.774-3.485-8.689-7.863-8.956Zm-2.046,17.985h-4.182c-5.099,0-8.909-4.767-8.909-9.029,0-4.396,3.293-7.971,7.341-7.971,1.03,0,2.021,.227,2.954,.677-.375,.997-1.373,2.703-3.916,3.338-.268,.067-.431,.339-.364,.606,.057,.228,.26,.379,.484,.379,2.564-.641,3.919-2.238,4.5-3.437,.581,1.199,1.936,2.796,4.5,3.437,.225,0,.429-.151,.485-.379,.066-.268-.096-.539-.364-.606-2.563-.64-3.557-2.367-3.923-3.335,.935-.451,1.929-.68,2.961-.68,4.048,0,7.341,3.575,7.341,7.971,0,4.487-3.061,9.029-8.909,9.029Zm2.409-12c.041,.01-.04,0,0,0h0Zm-9,0c.04,0-.041,.01,0,0h0Z"/></svg>
