<?xml version="1.0" encoding="UTF-8"?>
<svg xmlns="http://www.w3.org/2000/svg" id="Layer_1" data-name="Layer 1" viewBox="0 0 24 24" width="512" height="512"><path d="m8.873,17.673c-.276.772-1.022,1.327-1.898,1.327-1.086,0-1.967-.881-1.967-1.967l-.008-2.066c0-1.086.881-1.967,1.967-1.967.879,0,1.628.559,1.901,1.336.112.319-.13.653-.468.658h-.004c-.21.003-.405-.123-.475-.322-.137-.395-.513-.672-.955-.672-.533,0-.967.434-.967.967l.008,2.063c0,.537.434.97.967.97.443,0,.821-.279.957-.666.069-.195.26-.319.466-.319.341,0,.59.337.475.658Zm3.927-2.12c-.463-.173-1.327-.54-1.327-.54-.143-.096-.21-.256-.188-.438.016-.108.092-.369.459-.481.758-.234,1.431.33,1.438.335.212.182.532.154.71-.061l.019-.023c.175-.21.148-.522-.06-.7l-.016-.014c-.013-.01-1.101-.931-2.385-.531-.637.193-1.088.701-1.177,1.325-.084.603.185,1.154.736,1.51.003,0,.687.309,1.435.59.185.069.786.329.706.788-.057.315-.41.648-.953.648-.514,0-1.008-.212-1.323-.565-.189-.211-.513-.227-.722-.035l-.01.01c-.204.188-.219.504-.034.71l.01.012c.514.575,1.272.906,2.079.906.982,0,1.806-.632,1.959-1.502.115-.651-.182-1.504-1.356-1.945Zm5.593-2.552c-.239,0-.445.168-.493.401l-.797,3.855-.918-3.869c-.054-.227-.257-.387-.49-.387-.328,0-.618.308-.537.626l1.204,4.78c.088.349.402.593.761.593.372,0,.693-.261.768-.625l.995-4.769c.065-.313-.173-.606-.493-.606Zm3.607-3.015v9.515c0,2.481-2.019,4.5-4.5,4.5H6.5c-2.481,0-4.5-2.019-4.5-4.5V4.5C2,2.019,4.019,0,6.5,0h5.515c1.736,0,3.369.677,4.597,1.904l3.484,3.484c1.228,1.228,1.904,2.86,1.904,4.597Zm-8-3.485c0,.827.673,1.5,1.5,1.5h5.132c-.273-.706-.693-1.353-1.244-1.904l-3.484-3.484c-.551-.551-1.199-.971-1.904-1.244v5.132Zm7,3.485c0-.334-.03-.663-.088-.985h-5.412c-1.379,0-2.5-1.121-2.5-2.5V1.088c-.322-.058-.651-.088-.985-.088h-5.515c-1.93,0-3.5,1.57-3.5,3.5v15c0,1.93,1.57,3.5,3.5,3.5h11c1.93,0,3.5-1.57,3.5-3.5v-9.515Z"/></svg>
