<?xml version="1.0" encoding="UTF-8"?>
<svg xmlns="http://www.w3.org/2000/svg" id="Layer_1" data-name="Layer 1" viewBox="0 0 24 24" width="512" height="512"><path d="M23.989,11.132c-.127-1.447-1.023-2.504-2.388-2.927,.468-.313,.862-.618,1.15-.907,1.663-1.662,1.663-4.368,0-6.03C21.946,.462,20.875,.019,19.736,.019s-2.211,.443-3.016,1.249c-.283,.283-.582,.667-.889,1.123C15.411,1.105,14.298,.156,12.885,.032c-1.049-.09-2.07,.242-2.805,.914-.697,.639-1.081,1.546-1.081,2.554,0,1.103,.351,1.889,.757,2.8,.492,1.104,1.092,2.448,1.219,4.924-1.384-1.157-2.829-1.883-4.232-2.12-1.96-.327-3.808,.307-5.342,1.841C.039,12.309,.036,14.562,.033,16.949c0,.483-.022,3.537-.022,3.537-.003,.938,.359,1.819,1.021,2.483s1.542,1.03,2.479,1.03c0,0,3.102-.013,3.597-.013,2.386-.014,4.617,0,5.973-1.354,2.688-2.689,2.55-6.221-.304-9.611,2.505,.121,3.844,.725,4.943,1.22,.901,.406,1.681,.758,2.784,.758,.868,0,1.802-.454,2.499-1.214,.707-.772,1.067-1.739,.987-2.654ZM17.428,1.975c.616-.617,1.437-.956,2.309-.956s1.691,.339,2.308,.956c1.272,1.272,1.272,3.344,0,4.616-1.61,1.61-7.146,3.934-9.49,4.873,.939-2.345,3.263-7.88,4.874-9.489Zm-7.428,1.525c0-.734,.262-1.362,.756-1.815,.528-.484,1.273-.724,2.042-.656,1.346,.118,2.307,1.309,2.207,2.72-1.181,2.104-2.362,4.846-3.089,6.622-.21-2.155-.774-3.42-1.246-4.478-.375-.84-.67-1.503-.67-2.393Zm2.373,18.426c-1.064,1.062-3.094,1.057-5.266,1.062-.508-.003-3.597,.013-3.597,.013-.669,0-1.298-.262-1.771-.735-.473-.475-.731-1.104-.729-1.774,0,0,.022-3.048,.022-3.539,.003-2.175,.005-4.228,1.076-5.299,1.314-1.315,2.815-1.845,4.469-1.562,1.519,.256,3.122,1.192,4.635,2.706,1.546,1.547,4.753,5.534,1.161,9.129Zm9.892-8.815c-.511,.557-1.169,.89-1.762,.89-.889,0-1.544-.295-2.373-.669-1.046-.472-2.295-1.036-4.44-1.246,1.784-.73,4.51-1.908,6.601-3.083,1.553,.038,2.586,.88,2.703,2.217,.056,.637-.21,1.326-.729,1.892Z"/></svg>
