<?xml version="1.0" encoding="UTF-8"?>
<svg xmlns="http://www.w3.org/2000/svg" id="Layer_1" data-name="Layer 1" viewBox="0 0 24 24" width="512" height="512"><path d="M19.5,0H4.5C2.02,0,0,2.02,0,4.5v15c0,2.48,2.02,4.5,4.5,4.5h15c2.48,0,4.5-2.02,4.5-4.5V4.5c0-2.48-2.02-4.5-4.5-4.5Zm3.5,14.29l-8.71,8.71h-5.59l14.29-14.29v5.59ZM1,9.21L9.21,1h6.09L1,15.29v-6.09ZM4.5,1h3.29L1,7.79v-3.29c0-1.93,1.57-3.5,3.5-3.5ZM1,16.71L16.71,1h2.79c.78,0,1.51,.26,2.09,.7L1.7,21.59c-.44-.58-.7-1.31-.7-2.09v-2.79Zm1.41,5.59L22.3,2.4c.44,.58,.7,1.31,.7,2.1v2.79L7.29,23h-2.79c-.78,0-1.51-.26-2.09-.7Zm17.09,.7h-3.79l7.29-7.29v3.79c0,1.93-1.57,3.5-3.5,3.5Z"/></svg>
