<?xml version="1.0" encoding="UTF-8"?>
<svg xmlns="http://www.w3.org/2000/svg" id="Layer_1" data-name="Layer 1" viewBox="0 0 24 24" width="512" height="512"><path d="M9.854,14.146c.195,.195,.195,.512,0,.707L1.854,22.853c.196,.094,.415,.147,.646,.147H7.5c.276,0,.5,.224,.5,.5s-.224,.5-.5,.5H2.5c-1.379,0-2.5-1.122-2.5-2.5v-5c0-.276,.224-.5,.5-.5s.5,.224,.5,.5v5c0,.231,.053,.451,.147,.646l8-8c.195-.195,.512-.195,.707,0ZM21.5,0h-5c-.276,0-.5,.224-.5,.5s.224,.5,.5,.5h5c.231,0,.451,.053,.646,.147l-8,8c-.195,.195-.195,.512,0,.707,.098,.098,.226,.146,.354,.146s.256-.049,.354-.146L22.853,1.854c.094,.196,.147,.415,.147,.646V7.5c0,.276,.224,.5,.5,.5s.5-.224,.5-.5V2.5c0-1.378-1.121-2.5-2.5-2.5Z"/></svg>
