<?xml version="1.0" encoding="UTF-8"?>
<svg xmlns="http://www.w3.org/2000/svg" id="Layer_1" data-name="Layer 1" viewBox="0 0 24 24" width="512" height="512"><path d="m15,14c0,.552-.448,1-1,1s-1-.448-1-1,.448-1,1-1,1,.448,1,1Zm-8,0c-.552,0-1,.448-1,1s.448,1,1,1,1-.448,1-1-.448-1-1-1Zm8-8c-.552,0-1,.448-1,1s.448,1,1,1,1-.448,1-1-.448-1-1-1Zm9,3c0,.276-.224.5-.5.5h-1.536c-.094.933-.382,1.824-.836,2.63l1.341.815c.236.144.311.451.167.687-.094.155-.259.24-.428.24-.088,0-.178-.023-.259-.073l-1.376-.836c-.175.226-.36.445-.566.651l-1.343,1.343,1.189,1.189c.195.195.195.512,0,.707-.098.098-.226.146-.354.146s-.256-.049-.354-.146l-1.189-1.189-2.293,2.293,1.189,1.189c.195.195.195.512,0,.707-.098.098-.226.146-.354.146s-.256-.049-.354-.146l-1.189-1.189-1.344,1.344c-.204.204-.421.387-.643.56l.817,1.343c.144.236.068.543-.167.687-.081.049-.171.073-.259.073-.169,0-.333-.085-.428-.24l-.796-1.309c-.823.463-1.721.745-2.636.839v1.54c0,.276-.224.5-.5.5s-.5-.224-.5-.5v-1.517c-.932-.041-1.856-.271-2.711-.693l-.736,1.232c-.094.157-.259.244-.43.244-.087,0-.176-.023-.256-.071-.237-.142-.314-.449-.173-.686l.733-1.227c-.328-.228-.643-.482-.935-.774-.364-.364-.673-.761-.937-1.179l-1.371.743c-.076.041-.157.061-.238.061-.178,0-.35-.095-.44-.262-.132-.243-.042-.546.201-.678l1.379-.747c-.344-.78-.533-1.609-.57-2.446H.5c-.276,0-.5-.224-.5-.5s.224-.5.5-.5h1.541c.093-.908.371-1.799.828-2.617l-1.34-.807c-.237-.142-.313-.449-.17-.686.142-.237.449-.314.686-.17l1.376.828c.176-.229.363-.451.573-.661l1.344-1.344-1.19-1.19c-.195-.195-.195-.512,0-.707s.512-.195.707,0l1.19,1.19,2.293-2.293-1.19-1.19c-.195-.195-.195-.512,0-.707s.512-.195.707,0l1.19,1.19,1.343-1.344c.204-.204.421-.387.645-.562l-.811-1.349c-.143-.237-.066-.544.17-.686.236-.144.543-.067.686.17l.787,1.309c.808-.456,1.7-.745,2.636-.839V.5c0-.276.224-.5.5-.5s.5.224.5.5v1.515c.879.038,1.727.242,2.509.598l.761-1.404c.131-.243.435-.333.678-.201.243.131.333.435.201.678l-.761,1.405c.399.259.776.558,1.12.903h0c.295.295.555.614.787.949l1.308-.781c.237-.142.544-.065.686.173.142.237.064.544-.173.686l-1.316.786c.41.833.644,1.746.686,2.695h1.515c.276,0,.5.224.5.5Zm-3-.196c0-1.55-.604-3.007-1.7-4.104-1.096-1.096-2.553-1.7-4.103-1.7s-3.007.604-4.104,1.7l-6.394,6.395c-2.263,2.263-2.263,5.944,0,8.207,2.263,2.263,5.944,2.264,8.207,0l6.394-6.394c1.096-1.096,1.7-2.553,1.7-4.103Z"/></svg>
