<?xml version="1.0" encoding="UTF-8"?>
<svg xmlns="http://www.w3.org/2000/svg" id="Layer_1" data-name="Layer 1" viewBox="0 0 24 24" width="512" height="512"><path d="M9,11c0,.552-.448,1-1,1s-1-.448-1-1,.448-1,1-1,1,.448,1,1Zm7,1c.552,0,1-.448,1-1s-.448-1-1-1-1,.448-1,1,.448,1,1,1Zm-4,2c2.146,0,3.882,1.703,4.427,3.305,.132,.39,.069,.807-.173,1.145-.247,.344-.646,.55-1.067,.55h-6.385c-.424,0-.824-.206-1.07-.554-.242-.341-.302-.761-.166-1.15,.572-1.638,2.279-3.295,4.434-3.295Zm0,1c-1.671,0-3.045,1.353-3.49,2.625-.039,.11,.007,.199,.038,.242,.059,.083,.154,.133,.254,.133h6.384c.101,0,.196-.051,.255-.133,.03-.043,.076-.131,.039-.24-.433-1.273-1.8-2.627-3.48-2.627Zm-9.5,2c-1.378,0-2.5-1.121-2.5-2.5,0-1.271,1.018-2.948,1.66-3.708,.21-.248,.517-.391,.841-.392h.002c.323,0,.628,.141,.839,.388,.641,.748,1.657,2.418,1.657,3.712,0,1.379-1.122,2.5-2.5,2.5Zm1.5-2.5c0-.917-.823-2.368-1.417-3.062h-.159c-.597,.707-1.424,2.163-1.424,3.062,0,.827,.673,1.5,1.5,1.5s1.5-.673,1.5-1.5ZM12,0C6.754,0,2.16,3.354,.566,8.348c-.083,.264,.062,.545,.325,.629,.263,.081,.545-.062,.628-.324C2.979,4.075,7.191,1,12,1c6.065,0,11,4.935,11,11s-4.935,11-11,11c-3.206,0-6.245-1.395-8.339-3.826-.181-.211-.497-.233-.705-.053-.209,.181-.233,.496-.053,.705,2.284,2.652,5.6,4.174,9.097,4.174,6.617,0,12-5.383,12-12S18.617,0,12,0Zm7.363,8.98c.046,.014,.092,.02,.138,.02,.217,0,.417-.144,.48-.362,.076-.266-.078-.543-.344-.618-1.955-.559-3.26-2.151-3.73-2.81-.159-.225-.473-.276-.697-.117-.225,.161-.277,.473-.116,.697,.531,.745,2.011,2.546,4.27,3.19Zm-10.572-3.888c-.224-.159-.537-.106-.697,.117-.471,.658-1.775,2.251-3.73,2.81-.266,.075-.419,.353-.344,.618,.063,.219,.263,.362,.48,.362,.046,0,.092-.006,.138-.02,2.259-.645,3.738-2.445,4.27-3.19,.161-.225,.108-.536-.116-.697Z"/></svg>
