<?xml version="1.0" encoding="UTF-8"?>
<svg xmlns="http://www.w3.org/2000/svg" id="Layer_1" data-name="Layer 1" viewBox="0 0 24 24" width="512" height="512"><path d="M20,10h-2v-1.5c0-1.378-1.121-2.5-2.5-2.5H3.5c-1.379,0-2.5,1.122-2.5,2.5v11c0,2.481,2.019,4.5,4.5,4.5H13.5c2.312,0,4.223-1.753,4.472-4h2.028c1.654,0,3-1.346,3-3v-4c0-1.654-1.346-3-3-3Zm-6.5,13H5.5c-1.93,0-3.5-1.57-3.5-3.5V8.5c0-.827,.673-1.5,1.5-1.5H15.5c.827,0,1.5,.673,1.5,1.5v11c0,1.93-1.57,3.5-3.5,3.5Zm8.5-6c0,1.103-.897,2-2,2h-2V11h2c1.103,0,2,.897,2,2v4ZM9,3.5V.5c0-.276,.224-.5,.5-.5s.5,.224,.5,.5V3.5c0,.276-.224,.5-.5,.5s-.5-.224-.5-.5Zm4,0V.5c0-.276,.224-.5,.5-.5s.5,.224,.5,.5V3.5c0,.276-.224,.5-.5,.5s-.5-.224-.5-.5Zm-8,0V.5c0-.276,.224-.5,.5-.5s.5,.224,.5,.5V3.5c0,.276-.224,.5-.5,.5s-.5-.224-.5-.5Z"/></svg>
