<?xml version="1.0" encoding="UTF-8"?>
<svg xmlns="http://www.w3.org/2000/svg" id="Layer_1" data-name="Layer 1" viewBox="0 0 24 24" width="512" height="512"><path d="M12,0C5.38,0,0,5.38,0,12s5.38,12,12,12,12-5.38,12-12S18.62,0,12,0Zm0,23c-6.07,0-11-4.93-11-11S5.93,1,12,1s11,4.93,11,11-4.93,11-11,11Zm6-9.99H6s0,0,0,0c-.67,0-1.26,.31-1.64,.86-.38,.55-.46,1.26-.21,1.9,1.1,2.83,4.04,4.91,7.17,5.18,.05,.02,.1,.05,.16,.05,.02,0,.04,0,.06,0,.05,0,.1-.01,.14-.03,.11,0,.22,.03,.33,.03,3.38,0,6.61-2.14,7.85-5.2,.26-.63,.18-1.35-.2-1.91-.38-.56-.98-.88-1.65-.88Zm-5.86,6.98c.45-1.74,2.01-2.99,3.86-2.99,.58,0,1.16,.13,1.68,.38-1.38,1.55-3.44,2.57-5.54,2.61Zm6.78-4.57c-.16,.4-.38,.78-.62,1.14-.71-.37-1.5-.57-2.3-.57-2.37,0-4.37,1.66-4.86,3.93-2.66-.33-5.13-2.12-6.06-4.53-.13-.33-.09-.68,.11-.97,.19-.27,.48-.43,.82-.43h12.01c.33,0,.63,.17,.82,.44,.19,.29,.23,.65,.1,.98ZM4.5,11c.28,0,.5-.22,.5-.5v-1c0-1.3,1-2.35,2.26-2.48-.17,.29-.26,.63-.26,.98,0,1.1,.9,2,2,2,.36,0,.7-.1,1-.28v.78c0,.28,.22,.5,.5,.5s.5-.22,.5-.5v-1c0-1.93-1.57-3.5-3.5-3.5s-3.5,1.57-3.5,3.5v1c0,.28,.22,.5,.5,.5Zm5.31-2.44c-.19,.27-.48,.44-.81,.44-.55,0-1-.45-1-1,0-.33,.17-.63,.44-.81,.63,.25,1.13,.75,1.38,1.38Zm6.69-2.56c-1.93,0-3.5,1.57-3.5,3.5v1c0,.28,.22,.5,.5,.5s.5-.22,.5-.5v-1c0-1.3,1-2.35,2.26-2.48-.17,.29-.26,.63-.26,.98,0,1.1,.9,2,2,2,.36,0,.7-.1,1-.28v.78c0,.28,.22,.5,.5,.5s.5-.22,.5-.5v-1c0-1.93-1.57-3.5-3.5-3.5Zm1.5,3c-.55,0-1-.45-1-1,0-.33,.17-.63,.44-.81,.63,.25,1.13,.75,1.38,1.38-.19,.27-.48,.44-.81,.44Z"/></svg>
