<?xml version="1.0" encoding="UTF-8"?>
<svg xmlns="http://www.w3.org/2000/svg" id="Layer_1" data-name="Layer 1" viewBox="0 0 24 24" width="512" height="512"><path d="M9,10c0,.552-.448,1-1,1s-1-.448-1-1,.448-1,1-1,1,.448,1,1Zm8,0c0-.552-.448-1-1-1s-1,.448-1,1,.448,1,1,1,1-.448,1-1ZM12,0C5.383,0,0,5.383,0,12s5.383,12,12,12c2.005,0,3.989-.504,5.739-1.459,.242-.132,.332-.436,.199-.678-.131-.243-.436-.332-.678-.2-1.604,.875-3.423,1.337-5.261,1.337-6.065,0-11-4.935-11-11S5.935,1,12,1s11,4.935,11,11c0,.973-.127,1.938-.378,2.87-.072,.267,.086,.541,.353,.613,.265,.073,.541-.086,.612-.353,.274-1.016,.413-2.069,.413-3.13C24,5.383,18.617,0,12,0ZM6,14.5v3c0,.276,.224,.5,.5,.5s.5-.224,.5-.5v-3c0-.276-.224-.5-.5-.5s-.5,.224-.5,.5Zm3.5,3.5c.276,0,.5-.224,.5-.5v-3c0-.276-.224-.5-.5-.5s-.5,.224-.5,.5v3c0,.276,.224,.5,.5,.5Zm2.5-3.5v3c0,.276,.224,.5,.5,.5s.5-.224,.5-.5v-3c0-.276-.224-.5-.5-.5s-.5,.224-.5,.5Zm3,0v3c0,.276,.224,.5,.5,.5s.5-.224,.5-.5v-3c0-.276-.224-.5-.5-.5s-.5,.224-.5,.5Zm7.421,3.124c.374,.374,.579,.87,.579,1.398s-.205,1.025-.579,1.398c-.386,.385-.893,.578-1.398,.578s-1.013-.193-1.398-.578c-.222-.222-.739-1.244-1.538-3.037-.166-.375-.087-.804,.202-1.094,.29-.29,.719-.371,1.095-.205,2.681,1.182,2.922,1.422,3.038,1.538h0Zm-.704,.711c-.056-.048-.437-.32-2.738-1.334,.732,1.573,1.235,2.568,1.364,2.726,.368,.368,.989,.369,1.371-.012,.38-.38,.381-.998,.003-1.379Z"/></svg>
