<?xml version="1.0" encoding="UTF-8"?>
<svg xmlns="http://www.w3.org/2000/svg" id="Layer_1" data-name="Layer 1" viewBox="0 0 24 24" width="512" height="512"><path d="M9.505,24c-.594,0-1.169-.208-1.624-.595-.56-.476-.881-1.17-.881-1.905V12.998L2.927,8.952c-.596-.593-.925-1.382-.927-2.223-.001-.84,.325-1.63,.919-2.225l2.308-2.308C6.644,.78,8.527,0,10.531,0h6.969c2.481,0,4.5,2.019,4.5,4.5v4.721c0,2.138-1.521,3.993-3.617,4.413l-6.383,1.276v6.483c0,1.273-.896,2.379-2.083,2.573-.137,.022-.275,.033-.412,.033Zm-1.505-11.208v8.709c0,.44,.193,.857,.529,1.143,.34,.29,.772,.409,1.227,.336,.709-.115,1.244-.797,1.244-1.586v-6.893c0-.238,.168-.443,.402-.49l6.785-1.357c1.63-.326,2.813-1.77,2.813-3.432V4.5c0-1.93-1.57-3.5-3.5-3.5h-6.969c-1.737,0-3.369,.676-4.596,1.904l-2.308,2.308c-.405,.405-.627,.943-.626,1.516s.225,1.111,.632,1.515l3.368,3.346V6.5c0-.276,.224-.5,.5-.5s.5,.224,.5,.5v6.291Z"/></svg>
