<?xml version="1.0" encoding="UTF-8"?>
<svg xmlns="http://www.w3.org/2000/svg" id="Layer_1" data-name="Layer 1" viewBox="0 0 24 24" width="512" height="512"><path d="m20.5,0H3.5C1.57,0,0,1.57,0,3.5v13c0,1.93,1.57,3.5,3.5,3.5h3.606l3.897,3.283c.286.254.645.38,1.001.38.353,0,.703-.123.979-.368l3.985-3.295h3.532c1.93,0,3.5-1.57,3.5-3.5V3.5c0-1.93-1.57-3.5-3.5-3.5ZM1,3.5c0-1.379,1.122-2.5,2.5-2.5h17c1.261,0,2.306.938,2.475,2.154l-7.309,7.31c-.712.712-1.95.71-2.658,0l-.635-.635c-1.088-1.088-2.984-1.088-4.072,0l-7.235,7.235c-.042-.182-.065-.37-.065-.564V3.5Zm19.5,15.5h-3.712c-.116,0-.229.041-.318.114l-4.137,3.421c-.19.171-.476.169-.675-.009l-4.047-3.409c-.09-.075-.205-.117-.322-.117h-3.789c-.805,0-1.523-.383-1.98-.976l7.487-7.487c.71-.711,1.948-.711,2.658,0l.635.635c1.087,1.087,2.984,1.089,4.073,0l6.627-6.628v11.957c0,1.379-1.121,2.5-2.5,2.5ZM5,6c0-.552.448-1,1-1s1,.448,1,1-.448,1-1,1-1-.448-1-1Z"/></svg>
