<?xml version="1.0" encoding="UTF-8"?>
<svg xmlns="http://www.w3.org/2000/svg" id="Layer_1" data-name="Layer 1" viewBox="0 0 24 24" width="512" height="512"><path d="M23.95,5.47c-.24-1.41-1.56-2.47-3.05-2.47H3.1C1.6,3,.29,4.06,.05,5.47c-.25,1.48,.59,2.88,1.95,3.36v8.67c0,1.93,1.57,3.5,3.5,3.5h13c1.93,0,3.5-1.57,3.5-3.5V8.83c1.37-.48,2.21-1.88,1.95-3.36ZM3,17.5V8.45c0-.24-.17-.44-.4-.49-1.07-.22-1.75-1.23-1.57-2.32,.16-.94,1.05-1.64,2.07-1.64H14c1.1,0,2,.9,2,2,0,.95-.67,1.77-1.6,1.96-.23,.05-.4,.25-.4,.49v9.05c0,1.38-1.12,2.5-2.5,2.5H5.5c-1.38,0-2.5-1.12-2.5-2.5ZM21.4,7.96c-.23,.05-.4,.25-.4,.49v9.05c0,1.38-1.12,2.5-2.5,2.5h-4.55c.65-.64,1.05-1.52,1.05-2.5V8.83c1.18-.42,2-1.55,2-2.83,0-.77-.29-1.47-.77-2h4.67c1.02,0,1.91,.71,2.07,1.64,.19,1.08-.5,2.1-1.57,2.32Z"/></svg>
