<?xml version="1.0" encoding="UTF-8"?>
<svg xmlns="http://www.w3.org/2000/svg" id="Layer_1" data-name="Layer 1" viewBox="0 0 24 24" width="512" height="512"><path d="m17,19.5v2.5c0,1.103-.897,2-2,2s-2-.897-2-2v-5c0-.276.224-.5.5-.5s.5.224.5.5v5c0,.552.449,1,1,1s1-.448,1-1v-2.5c0-.276.224-.5.5-.5s.5.224.5.5Zm6.854,4.354c-.098.098-.226.146-.354.146s-.256-.049-.354-.146l-.999-.999s-.002,0-.003-.002l-2.997-2.998s-.002,0-.003-.002L.146.854C-.049.658-.049.342.146.146S.658-.049.854.146l12.146,12.146v-5.293c0-1.103.897-2,2-2s2,.897,2,2v9.293l2,2V2c0-1.103.897-2,2-2s2,.897,2,2v20.293l.854.854c.195.195.195.512,0,.707Zm-9.854-10.561l2,2V7c0-.552-.449-1-1-1s-1,.448-1,1v6.293ZM22,2c0-.552-.449-1-1-1s-1,.448-1,1v17.293l2,2V2ZM5,19v3c0,1.103-.897,2-2,2s-2-.897-2-2v-3c0-1.103.897-2,2-2s2,.897,2,2Zm-1,0c0-.552-.449-1-1-1s-1,.448-1,1v3c0,.552.449,1,1,1s1-.448,1-1v-3Zm6.5-5c-.276,0-.5.224-.5.5v7.5c0,.552-.449,1-1,1s-1-.448-1-1v-9c0-.246.09-.483.255-.666.184-.206.167-.522-.039-.706-.204-.185-.521-.166-.706.038-.329.368-.51.841-.51,1.334v9c0,1.103.897,2,2,2s2-.897,2-2v-7.5c0-.276-.224-.5-.5-.5Z"/></svg>
