<?xml version="1.0" encoding="UTF-8"?>
<svg xmlns="http://www.w3.org/2000/svg" id="Layer_1" data-name="Layer 1" viewBox="0 0 24 24" width="512" height="512"><path d="m13.298,23.999c-.196,0-.395-.034-.583-.104-2.163-.794-4.591-2.677-6.04-4.685l-.15-.208-2.025-.003c-2.48-.004-4.499-2.025-4.499-4.506v-4.994c0-1.204.469-2.334,1.32-3.185.85-.849,1.979-1.315,3.179-1.315h.008l2.018.003.149-.207C8.193,2.691,10.525.89,12.761.096c.512-.182,1.062-.104,1.512.212.455.322.728.845.728,1.401v20.585c0,.557-.272,1.079-.729,1.398-.289.202-.629.306-.973.306ZM4.5,6c-.935,0-1.813.363-2.473,1.023-.663.661-1.027,1.541-1.027,2.477v4.994c0,1.93,1.57,3.503,3.501,3.506l2.28.003c.16,0,.311.077.404.207l.3.415c1.321,1.831,3.613,3.612,5.573,4.332.218.079.449.05.64-.083.191-.134.302-.345.302-.578V1.709c0-.231-.114-.45-.305-.584-.179-.126-.398-.159-.6-.087-2.022.718-4.226,2.423-5.611,4.343l-.299.415c-.094.13-.244.208-.405.208h0l-2.274-.003h-.005Z"/></svg>
