<?xml version="1.0" encoding="UTF-8"?>
<svg xmlns="http://www.w3.org/2000/svg" id="Layer_1" data-name="Layer 1" viewBox="0 0 24 24" width="512" height="512"><path d="m23.949,20.792L19.858,2.014c-.268-1.353-1.585-2.234-2.937-1.968l-.981.194c-1.029.204-1.783,1.017-1.968,1.992-.136-1.251-1.186-2.231-2.473-2.231h-6c-1.379,0-2.5,1.122-2.5,2.5v3c0,.276.224.5.5.5h4.5v3.5c0,.276.224.5.5.5s.5-.224.5-.5v-3.5h4v12h-4v-3.5c0-.276-.224-.5-.5-.5s-.5.224-.5.5v3.5H3.5c-.276,0-.5.224-.5.5v3c0,1.378,1.121,2.5,2.5,2.5h6c1.379,0,2.5-1.122,2.5-2.5V3.309l3.906,18.658c.228,1.195,1.28,2.032,2.456,2.032.15,0,.302-.013.454-.042l1.138-.21c.663-.123,1.236-.497,1.614-1.055.379-.558.515-1.23.381-1.9Zm-19.949.708v-2.5h4v4h-2.5c-.827,0-1.5-.673-1.5-1.5Zm9,0c0,.827-.673,1.5-1.5,1.5h-2.5v-4h4v2.5ZM4,5v-2.5c0-.827.673-1.5,1.5-1.5h2.5v4h-4Zm9,0h-4V1h2.5c.827,0,1.5.673,1.5,1.5v2.5Zm2.707,1.586l3.954-.782,2.615,12.003-4.051.801-2.517-12.022Zm.427-5.365s1.177-.223,1.272-.223c.701,0,1.33.497,1.474,1.219l.568,2.609-3.946.78-.549-2.623c-.16-.812.37-1.603,1.181-1.763Zm6.607,20.91c-.228.334-.571.56-.969.633l-1.138.21c-.811.153-1.592-.386-1.748-1.204l-.457-2.184,4.059-.802.482,2.212c.079.397-.003.8-.229,1.135ZM3,12.5H.5c-.276,0-.5-.224-.5-.5s.224-.5.5-.5h2.5v-2.5c0-.276.224-.5.5-.5s.5.224.5.5v2.5h2.5c.276,0,.5.224.5.5s-.224.5-.5.5h-2.5v2.5c0,.276-.224.5-.5.5s-.5-.224-.5-.5v-2.5Z"/></svg>
