<?xml version="1.0" encoding="UTF-8"?>
<svg xmlns="http://www.w3.org/2000/svg" id="Layer_1" data-name="Layer 1" viewBox="0 0 24 24">
  <path d="m19.5,4h-1.25l-2.25-3.001c-.47-.625-1.218-.999-2-.999h-4c-.782,0-1.53.374-2,1l-2.25,3h-1.25C2.019,4,0,6.019,0,8.5v11c0,2.481,2.019,4.5,4.5,4.5h15c2.481,0,4.5-2.019,4.5-4.5v-11c0-2.481-2.019-4.5-4.5-4.5ZM8.8,1.601c.282-.376.731-.601,1.2-.601h4c.469,0,.918.225,1.2.6l1.8,2.4H7l1.8-2.399Zm14.2,17.899c0,1.93-1.57,3.5-3.5,3.5H4.5c-1.93,0-3.5-1.57-3.5-3.5v-11c0-1.93,1.57-3.5,3.5-3.5h15c1.93,0,3.5,1.57,3.5,3.5v11Zm-5-11v2.5c0,1.105-.895,2-2,2h-2.5c-.276,0-.5-.224-.5-.5s.224-.5.5-.5h2.5c.189,0,.367-.053.518-.145-1.241-2.626-4.546-3.813-7.557-1.947-.965.598-1.453,1.645-1.774,2.734-.064.217-.263.358-.479.358-.045,0-.091-.006-.137-.019-.266-.075-.42-.352-.345-.617.727-2.569,3.101-4.364,5.774-4.364,2.053,0,3.906,1.019,5,2.676v-2.176c0-.276.224-.5.5-.5s.5.224.5.5Zm-.226,7.136c-.727,2.569-3.101,4.364-5.774,4.364-2.053,0-3.905-1.019-5-2.677v2.177c0,.276-.224.5-.5.5s-.5-.224-.5-.5v-2.5c0-1.105.895-2,2-2h2.5c.276,0,.5.224.5.5s-.224.5-.5.5h-2.5c-.189,0-.367.053-.518.145,1.361,2.879,5.203,4.028,8.416,1.321.592-.499.796-1.263.899-2.03.042-.311.342-.499.632-.417.266.075.42.352.345.617Z"/>
</svg>
