<?xml version="1.0" encoding="UTF-8"?>
<svg xmlns="http://www.w3.org/2000/svg" id="Layer_1" data-name="Layer 1" viewBox="0 0 24 24" width="512" height="512"><path d="M13.25,6.94c-.95,0-1.76,.44-2.26,1.13-.49-.7-1.3-1.13-2.24-1.13-1.52,0-2.75,1.33-2.75,2.97,0,2.16,2.6,4.52,4.14,5.74,.25,.2,.55,.3,.86,.3s.6-.1,.86-.3c1.55-1.21,4.14-3.57,4.14-5.74,0-1.64-1.23-2.97-2.75-2.97Zm-2.01,7.92c-.14,.11-.33,.11-.48,0-2.36-1.85-3.76-3.7-3.76-4.95,0-1.08,.79-1.97,1.75-1.97s1.66,.66,1.74,1.6c.02,.26,.24,.46,.5,.46s.48-.2,.5-.46c.08-.94,.8-1.6,1.76-1.6s1.75,.88,1.75,1.97c0,1.25-1.41,3.1-3.76,4.95ZM19.77,4.39C17.34,1.16,13.34-.47,9.32,.13,4.5,.85,.44,5.29,.07,10.23c-.2,2.7,.48,5.21,1.97,7.26,.63,.86,.96,1.81,.96,2.73v1.28c0,1.47,1.03,2.5,2.5,2.5H13.5c1.38,0,2.5-1.12,2.5-2.5v-.5h.99c2.11,0,3.96-1.5,4.4-3.57l.52-2.43h.55c1.13,0,1.55-.87,1.55-1.45,0-1.28-2.84-7.43-4.23-9.15Zm2.69,9.61h-.96c-.24,0-.44,.17-.49,.4l-.6,2.83c-.34,1.61-1.78,2.77-3.42,2.77h-1.49c-.28,0-.5,.22-.5,.5v1c0,.83-.67,1.5-1.5,1.5H5.5c-.69,0-1.5-.39-1.5-1.5v-1.28c0-1.14-.4-2.29-1.15-3.32-1.35-1.86-1.96-4.14-1.78-6.6C1.4,5.81,5.09,1.77,9.47,1.12c.5-.08,1.01-.11,1.51-.11,3.13,0,6.1,1.46,8,4,1.41,1.74,4.03,7.68,4.03,8.54,0,.21-.11,.46-.55,.46Z"/></svg>
