<?xml version="1.0" encoding="UTF-8"?>
<!-- Generator: Adobe Illustrator 26.2.1, SVG Export Plug-In . SVG Version: 6.00 Build 0)  -->
<svg xmlns="http://www.w3.org/2000/svg" xmlns:xlink="http://www.w3.org/1999/xlink" version="1.1" id="Layer_1" x="0px" y="0px" viewBox="0 0 512 512" style="enable-background:new 0 0 512 512;" xml:space="preserve" width="512" height="512">
<path d="M181.323,234.667h-42.667c-17.643,0-32-14.357-32-32c0-5.888-4.779-10.667-10.667-10.667s-10.667,4.779-10.667,10.667V288  c0,29.397,23.915,53.333,53.333,53.333h64c17.643,0,32-14.357,32-32V288C234.656,258.603,210.741,234.667,181.323,234.667z   M213.323,309.333c0,5.888-4.8,10.667-10.667,10.667h-64c-17.643,0-32-14.357-32-32v-42.688c8.917,6.699,19.989,10.688,32,10.688  h42.667c17.643,0,32,14.357,32,32V309.333L213.323,309.333z M435.317,73.323C385.909,24.811,320.587-1.365,251.189,0.043  c-138.496,2.56-251.2,121.003-251.2,264.085V416c0,52.928,43.072,96,96,96h30.272c26.219,0,50.837-14.016,64.256-36.587  l10.219-17.28c11.52-19.413,32.704-31.488,55.275-31.488c22.571,0,43.755,12.053,55.253,31.467l10.24,17.301  c13.397,22.571,37.995,36.565,64.235,36.565h30.272c52.928,0,96-43.072,96-96v-160c0-69.269-27.221-134.144-76.672-182.677  L435.317,73.323z M490.656,416c0,41.173-33.493,74.667-74.667,74.667h-30.272c-18.731,0-36.309-10.005-45.867-26.133l-10.24-17.301  c-15.339-25.856-43.541-41.92-73.6-41.92s-58.261,16.064-73.621,41.92l-10.219,17.28c-9.579,16.128-27.157,26.133-45.888,26.133  H96.011c-41.173,0-74.667-33.493-74.667-74.667V264.107C21.323,132.587,129.056,23.659,256.011,21.333  c61.909,0,120.128,23.765,164.373,67.2c45.312,44.48,70.272,103.979,70.272,167.467L490.656,416L490.656,416z M405.323,202.667  c0,17.643-14.357,32-32,32h-42.667c-29.419,0-53.333,23.936-53.333,53.333v21.333c0,17.643,14.357,32,32,32h64  c29.419,0,53.333-23.936,53.333-53.333v-85.333c0-5.888-4.779-10.667-10.667-10.667C410.101,192,405.323,196.779,405.323,202.667z   M405.323,288c0,17.643-14.357,32-32,32h-64c-5.867,0-10.667-4.779-10.667-10.667V288c0-17.643,14.357-32,32-32h42.667  c11.989,0,23.083-3.989,32-10.688V288z"/>
</svg>
