<?xml version="1.0" encoding="UTF-8"?>
<svg xmlns="http://www.w3.org/2000/svg" id="Layer_1" data-name="Layer 1" viewBox="0 0 24 24" width="512" height="512"><path d="M24,4.5v15c0,2.48-2.02,4.5-4.5,4.5h-3c-.28,0-.5-.22-.5-.5s.22-.5,.5-.5h3c1.93,0,3.5-1.57,3.5-3.5V4.5c0-1.93-1.57-3.5-3.5-3.5h-3c-.28,0-.5-.22-.5-.5s.22-.5,.5-.5h3c2.48,0,4.5,2.02,4.5,4.5Zm-6,7.5c0-.67-.26-1.3-.73-1.76l-4.41-4.59c-.19-.2-.51-.2-.71-.01-.2,.19-.21,.51-.01,.71l4.42,4.59c.16,.16,.28,.35,.35,.56,0,0,0,0,0,0H.5c-.28,0-.5,.22-.5,.5s.22,.5,.5,.5H16.91c-.07,.21-.2,.4-.36,.57l-4.41,4.59c-.19,.2-.19,.52,.01,.71,.1,.09,.22,.14,.35,.14s.26-.05,.36-.15l4.41-4.58c.47-.47,.73-1.1,.73-1.77Z"/></svg>
