<?xml version="1.0" encoding="UTF-8"?>
<svg xmlns="http://www.w3.org/2000/svg" id="Layer_1" data-name="Layer 1" viewBox="0 0 24 24" width="512" height="512"><path d="M24,12c0,.276-.224,.5-.5,.5H.5c-.276,0-.5-.224-.5-.5s.224-.5,.5-.5H23.5c.276,0,.5,.224,.5,.5ZM7.85,4.857l3.65-3.568v7.21c0,.276,.224,.5,.5,.5s.5-.224,.5-.5V1.29l3.65,3.568c.097,.096,.224,.143,.35,.143,.13,0,.26-.051,.357-.15,.193-.197,.189-.515-.008-.707L13.061,.439c-.585-.585-1.536-.585-2.117-.004l-3.793,3.707c-.197,.192-.201,.51-.008,.707,.193,.199,.511,.201,.707,.008Zm8.301,14.285l-3.65,3.568v-7.21c0-.276-.224-.5-.5-.5s-.5,.224-.5,.5v7.21l-3.65-3.568c-.196-.194-.514-.188-.707,.008-.193,.197-.189,.515,.008,.707l3.789,3.703c.293,.293,.678,.439,1.062,.439s.765-.146,1.055-.436l3.793-3.707c.197-.192,.201-.51,.008-.707-.191-.198-.509-.2-.707-.008Z"/></svg>
