<?xml version="1.0" encoding="UTF-8"?>
<svg xmlns="http://www.w3.org/2000/svg" id="Layer_1" data-name="Layer 1" viewBox="0 0 24 24" width="512" height="512"><path d="m21.681,1.473c-1.698-.596-3.378-1.013-4.995-1.24C15.072.006,13.341-.056,11.539.049c-1.648.095-3.014,1.33-3.248,2.937l-.358,2.46c-.205.023-.412.049-.619.078-1.616.227-3.296.644-4.995,1.24C.762,7.31-.199,8.874.036,10.482l1.044,7.18c.459,3.158,4.838,5.206,7.408,6.146.354.129.721.193,1.083.193.64,0,1.267-.198,1.792-.581,1.258-.917,3.541-2.768,4.692-4.853.049-.089.068-.186.061-.28,2.598-1.023,6.379-2.994,6.804-5.917l1.044-7.181c.234-1.608-.726-3.172-2.284-3.718Zm-10.906,21.14c-.552.403-1.279.499-1.943.256-1.9-.695-6.363-2.607-6.762-5.35l-1.044-7.18c-.165-1.137.518-2.243,1.625-2.631,1.636-.574,3.252-.975,4.803-1.193.11-.016.221-.03.331-.044l-.538,3.696c-.057.391-.051.782.006,1.17-.451-.601-1.05-.952-1.667-.862-.754.109-1.3.838-1.504,1.794-.068.318.203.605.524.559l2.58-.369c.129-.018.235-.087.306-.181.269.759.71,1.497,1.241,2.191-.057.008-.115.018-.174.031-1.633.362-2.802,1.667-3.258,3.284-.136.482.411.867.828.588,1.482-.991,3.204-1.596,4.76-1.64.604.532,1.201.997,1.718,1.376.54.395,1.182.599,1.832.599.123,0,.247-.008.371-.023-1.134,1.674-2.971,3.151-4.036,3.929ZM22.975,5.047l-1.044,7.181c-.399,2.743-4.861,4.655-6.761,5.35-.665.244-1.402.141-1.971-.276-1.625-1.189-5.361-4.25-4.962-6.992l1.044-7.18c.166-1.139,1.14-2.014,2.316-2.083.548-.032,1.089-.047,1.622-.047,1.154,0,2.269.074,3.329.223,1.529.215,3.19.627,4.803,1.193,1.107.388,1.791,1.495,1.625,2.631Zm-4.144,6.243c-.996,1.336-2.537,2.134-4.181,1.902-1.643-.233-2.897-1.43-3.479-2.989-.181-.484.355-.922.806-.669,2.115,1.187,3.908,1.442,6.271.893.501-.116.89.451.583.863Zm.916-4.192c.068.317-.203.605-.524.559l-2.58-.369c-.321-.046-.5-.398-.346-.683.464-.861,1.191-1.41,1.947-1.301.754.109,1.3.838,1.504,1.794Zm-8.33-1.19c.464-.861,1.191-1.41,1.947-1.301.754.109,1.3.838,1.504,1.794.068.318-.203.605-.524.559l-2.58-.369c-.321-.046-.5-.398-.346-.683Z"/></svg>
