<?xml version="1.0" encoding="UTF-8"?>
<svg xmlns="http://www.w3.org/2000/svg" id="Layer_1" data-name="Layer 1" viewBox="0 0 24 24" width="512" height="512"><path d="m18.5,0H7.5c-1.956,0-3.624,1.254-4.243,3h-1.757c-.276,0-.5.224-.5.5s.224.5.5.5h1.528c-.018.164-.028.331-.028.5v2.5h-1.5c-.276,0-.5.224-.5.5s.224.5.5.5h1.5v3.5h-1.5c-.276,0-.5.224-.5.5s.224.5.5.5h1.5v3.5h-1.5c-.276,0-.5.224-.5.5s.224.5.5.5h1.5v2.5c0,.169.01.336.028.5h-1.528c-.276,0-.5.224-.5.5s.224.5.5.5h1.757c.619,1.746,2.287,3,4.243,3h11c2.481,0,4.5-2.019,4.5-4.5V4.5c0-2.481-2.019-4.5-4.5-4.5Zm3.5,19.5c0,1.93-1.57,3.5-3.5,3.5H7.5c-1.93,0-3.5-1.57-3.5-3.5V4.5c0-1.93,1.57-3.5,3.5-3.5h11c1.93,0,3.5,1.57,3.5,3.5v15Zm-9-7.5c1.654,0,3-1.346,3-3s-1.346-3-3-3-3,1.346-3,3,1.346,3,3,3Zm0-5c1.103,0,2,.897,2,2s-.897,2-2,2-2-.897-2-2,.897-2,2-2Zm5,11v.5c0,.276-.224.5-.5.5s-.5-.224-.5-.5v-.5c0-2.206-1.794-4-4-4s-4,1.794-4,4v.5c0,.276-.224.5-.5.5s-.5-.224-.5-.5v-.5c0-2.757,2.243-5,5-5s5,2.243,5,5Z"/></svg>
