<?xml version="1.0" encoding="UTF-8"?>
<svg xmlns="http://www.w3.org/2000/svg" id="Layer_1" data-name="Layer 1" viewBox="0 0 24 24" width="512" height="512"><path d="m23.5,23h-1.083l-5.283-15.39c-.204-.593-.112-1.254.247-1.769.367-.527.972-.842,1.62-.842h3.813c.496,0,.931-.3,1.108-.766.177-.466.051-.98-.388-1.361l-2.227-1.388c-1.845-1.041-3.428-1.485-5.293-1.485h-.97c-3.344,0-6.317,2.126-7.398,5.292L1.598,23H.5c-.276,0-.5.224-.5.5s.224.5.5.5h23c.276,0,.5-.224.5-.5s-.224-.5-.5-.5ZM8.591,5.615c.943-2.76,3.536-4.615,6.452-4.615h.97c1.681,0,3.117.406,4.783,1.345l2.141,1.326c.083.075.067.163.05.208-.018.045-.062.121-.173.121h-3.813c-.975,0-1.887.475-2.44,1.271-.54.775-.679,1.772-.372,2.665l5.171,15.065h-6.359v-2c0-1.103-.897-2-2-2h-2c-1.103,0-2,.897-2,2v2H2.655L8.591,5.615Zm5.409,17.385h-4v-2c0-.551.449-1,1-1h2c.551,0,1,.449,1,1v2Z"/></svg>
