<?xml version="1.0" encoding="UTF-8"?>
<svg xmlns="http://www.w3.org/2000/svg" id="arrow-circle-down" viewBox="0 0 24 24" width="512" height="512"><path d="M19.5,0H4.5C2.019,0,0,2.019,0,4.5v15c0,2.481,2.019,4.5,4.5,4.5h15c2.481,0,4.5-2.019,4.5-4.5V4.5c0-2.481-2.019-4.5-4.5-4.5Zm3.5,19.5c0,1.93-1.57,3.5-3.5,3.5H4.5c-1.93,0-3.5-1.57-3.5-3.5V4.5c0-1.93,1.57-3.5,3.5-3.5h15c1.93,0,3.5,1.57,3.5,3.5v15Z"/><path d="M11.427,5.913c-.412-.406-1.022-.523-1.557-.3-.537,.224-.87,.722-.87,1.3v10.175c0,.578,.333,1.076,.87,1.3,.18,.075,.368,.112,.555,.112,.368,0,.729-.143,1.002-.412l5.154-5.087c.27-.267,.419-.622,.419-1s-.149-.733-.419-1l-5.154-5.087Zm4.451,6.375l-5.154,5.087c-.186,.186-.405,.116-.468,.089-.077-.032-.256-.133-.256-.377V6.913c0-.244,.179-.345,.256-.377,.029-.012,.095-.035,.175-.035,.089,0,.195,.027,.293,.124l5.154,5.087c.079,.077,.122,.18,.122,.288s-.043,.211-.122,.288Z"/></svg>
