<?xml version="1.0" encoding="UTF-8"?>
<svg xmlns="http://www.w3.org/2000/svg" id="Layer_1" data-name="Layer 1" viewBox="0 0 24 24">
  <path d="m19.5,0H4.5C2.019,0,0,2.019,0,4.5v1c0,.815.397,1.532,1.002,1.989,0,.004-.002.007-.002.011v12c0,2.481,2.019,4.5,4.5,4.5h13c2.481,0,4.5-2.019,4.5-4.5V7.5s-.002-.007-.002-.011c.605-.457,1.002-1.175,1.002-1.989v-1c0-2.481-2.019-4.5-4.5-4.5Zm2.5,19.5c0,1.93-1.57,3.5-3.5,3.5H5.5c-1.93,0-3.5-1.57-3.5-3.5V7.949c.162.033.329.051.5.051h19c.171,0,.338-.018.5-.051v11.551Zm1-14c0,.827-.673,1.5-1.5,1.5H2.5c-.827,0-1.5-.673-1.5-1.5v-1c0-1.93,1.57-3.5,3.5-3.5h15c1.93,0,3.5,1.57,3.5,3.5v1Zm-8.865,5.4c-.962,0-1.765.415-2.25,1.09-.485-.675-1.288-1.09-2.25-1.09-1.517,0-2.75,1.314-2.75,2.93,0,2.115,2.549,4.708,3.897,5.783.325.259.713.388,1.103.388s.778-.129,1.103-.388c1.348-1.075,3.897-3.667,3.897-5.783,0-1.616-1.233-2.93-2.75-2.93Zm-1.771,7.931c-.283.225-.677.225-.959,0-1.462-1.166-3.521-3.488-3.521-5,0-1.064.785-1.93,1.75-1.93,1.03,0,1.75.703,1.75,1.709,0,.276.224.5.5.5s.5-.224.5-.5c0-1.006.72-1.709,1.75-1.709.965,0,1.75.866,1.75,1.93,0,1.513-2.059,3.835-3.521,5Z"/>
</svg>
