<?xml version="1.0" encoding="UTF-8"?>
<svg xmlns="http://www.w3.org/2000/svg" id="Layer_1" data-name="Layer 1" viewBox="0 0 24 24" width="512" height="512"><path d="M12,14c-.28,0-.5-.22-.5-.5V6.5c0-.28,.22-.5,.5-.5s.5,.22,.5,.5v7c0,.28-.22,.5-.5,.5Zm0,2c-.55,0-1,.45-1,1s.45,1,1,1,1-.45,1-1-.45-1-1-1Zm1.83,7.24l2.24-2.24h2.43c1.38,0,2.5-1.12,2.5-2.5v-2.43l2.24-2.24c1.01-1.01,1.01-2.65,0-3.65h0l-2.24-2.24v-2.43c0-1.38-1.12-2.5-2.5-2.5h-2.43L13.83,.76c-.97-.98-2.68-.98-3.65,0l-2.24,2.24h-2.43c-1.38,0-2.5,1.12-2.5,2.5v2.43L.76,10.17c-1.01,1.01-1.01,2.65,0,3.65l2.24,2.24v2.43c0,1.38,1.12,2.5,2.5,2.5h2.43l2.24,2.24c.49,.49,1.14,.76,1.83,.76s1.34-.27,1.83-.76ZM8.14,4c.13,0,.26-.05,.35-.15l2.39-2.39c.6-.6,1.64-.6,2.24,0l2.39,2.39c.09,.09,.22,.15,.35,.15h2.64c.83,0,1.5,.67,1.5,1.5v2.64c0,.13,.05,.26,.15,.35l2.39,2.39c.62,.62,.62,1.62,0,2.24l-2.39,2.39c-.09,.09-.15,.22-.15,.35v2.64c0,.83-.67,1.5-1.5,1.5h-2.64c-.13,0-.26,.05-.35,.15l-2.39,2.39c-.6,.6-1.64,.6-2.24,0l-2.39-2.39c-.09-.09-.22-.15-.35-.15h-2.64c-.83,0-1.5-.67-1.5-1.5v-2.64c0-.13-.05-.26-.15-.35l-2.39-2.39c-.62-.62-.62-1.62,0-2.24l2.39-2.39c.09-.09,.15-.22,.15-.35v-2.64c0-.83,.67-1.5,1.5-1.5h2.64Z"/></svg>
