<?xml version="1.0" encoding="UTF-8"?>
<svg xmlns="http://www.w3.org/2000/svg" id="Layer_1" data-name="Layer 1" viewBox="0 0 24 24" width="512" height="512"><path d="M12,0C5.383,0,0,5.383,0,12s5.383,12,12,12,12-5.383,12-12S18.617,0,12,0Zm0,23c-6.065,0-11-4.935-11-11S5.935,1,12,1s11,4.935,11,11-4.935,11-11,11Zm0-13c-1.184,0-2.25,.518-2.983,1.338,.184-2.994,1.897-4.338,5.483-4.338,.276,0,.5-.224,.5-.5s-.224-.5-.5-.5c-4.374,0-6.5,1.93-6.5,5.9v2.1c0,2.206,1.794,4,4,4s4-1.794,4-4-1.794-4-4-4Zm0,7c-1.654,0-3-1.346-3-3s1.346-3,3-3,3,1.346,3,3-1.346,3-3,3Z"/></svg>
