<?xml version="1.0" encoding="UTF-8"?>
<svg xmlns="http://www.w3.org/2000/svg" id="Layer_1" data-name="Layer 1" viewBox="0 0 24 24">
  <path d="m23.219.525c-.201-.376-.618-.572-1.036-.49-.53.105-5.184,1.079-5.184,2.932,0,.378.202,1.703,1.03,2.296l-4.915,4.915c-1.601-1.947-1.423-5.02.495-6.945l.349-.396c.181-.206.164-.519-.04-.702-.204-.184-.517-.169-.702.032-.929,1.005-1.433,1.482-1.802,1.831-.531.502-.773.731-1.479,1.796-1.337,2.021-2.617,2.625-4.813,3.147-.29.069-.57.131-.838.189-1.224.27-2.19.483-2.779,1.076-3.244,3.262-.649,5.946,2.098,8.788l1.253,1.311c1.862,1.969,3.469,3.67,5.34,3.694h.039c1.021,0,2.013-.499,3.032-1.524.634-.638.997-1.857,1.405-3.385.628-2.35,1.307-3.25,3.458-4.586.915-.568,1.186-.887,1.677-1.467.315-.372.748-.882,1.546-1.685.185-.187.195-.484.022-.682-.174-.199-.47-.228-.679-.069-2.012,1.525-5.064,1.604-6.862.269L23.05,1.657c.302-.301.369-.756.169-1.132Zm-4.306,12.022c-.379.443-.605.671-1.309,1.108-2.366,1.469-3.203,2.582-3.897,5.178-.291,1.086-.652,2.438-1.148,2.938-.832.836-1.567,1.214-2.35,1.229-1.447-.019-2.92-1.577-4.625-3.381l-1.261-1.319C1.261,15.132-.223,13.365,2.215,10.913c.383-.385,1.265-.58,2.286-.805.272-.06.558-.123.854-.193,2.351-.559,3.91-1.293,5.416-3.568.154-.232.281-.419.392-.574-.393,1.938.114,4.008,1.537,5.435,1.609,1.616,4.083,1.918,6.214,1.34Zm-.146-8.021c-.596-.195-.766-1.393-.767-1.559,0-.491,1.953-1.471,4.343-2.017l-3.576,3.576Zm-6.914,10.621c.195.195.195.512,0,.707-.098.098-.226.146-.354.146s-.256-.049-.354-.146l-3-3c-.195-.195-.195-.512,0-.707s.512-.195.707,0l3,3Zm-2.5,2.5c.195.195.195.512,0,.707-.098.098-.226.146-.354.146s-.256-.049-.354-.146l-3-3c-.195-.195-.195-.512,0-.707s.512-.195.707,0l3,3Z"/>
</svg>
