<?xml version="1.0" encoding="UTF-8"?>
<svg xmlns="http://www.w3.org/2000/svg" id="Layer_1" data-name="Layer 1" viewBox="0 0 24 24" width="512" height="512"><path d="M21.5,15h-3c-1.38,0-2.5,1.12-2.5,2.5v3c0,1.38,1.12,2.5,2.5,2.5h3c1.38,0,2.5-1.12,2.5-2.5v-3c0-1.38-1.12-2.5-2.5-2.5Zm1.5,5.5c0,.83-.67,1.5-1.5,1.5h-3c-.83,0-1.5-.67-1.5-1.5v-3c0-.83,.67-1.5,1.5-1.5h3c.83,0,1.5,.67,1.5,1.5v3ZM21.5,1h-5c-1.38,0-2.5,1.12-2.5,2.5v5c0,1.38,1.12,2.5,2.5,2.5h5c1.38,0,2.5-1.12,2.5-2.5V3.5c0-1.38-1.12-2.5-2.5-2.5Zm1.5,7.5c0,.83-.67,1.5-1.5,1.5h-5c-.83,0-1.5-.67-1.5-1.5V3.5c0-.83,.67-1.5,1.5-1.5h5c.83,0,1.5,.67,1.5,1.5v5ZM10.84,4.14c.2,.19,.21,.51,.02,.71-.1,.1-.23,.16-.36,.16-.12,0-.25-.05-.34-.14L6.57,1.45c-.17-.17-.36-.29-.57-.36V23.5c0,.28-.22,.5-.5,.5s-.5-.22-.5-.5V1.09c-.21,.07-.4,.19-.56,.35L.84,4.86c-.2,.19-.51,.18-.71-.02-.19-.2-.18-.52,.02-.71L3.74,.72c.97-.97,2.55-.97,3.53,0l3.58,3.41Z"/></svg>
