<?xml version="1.0" encoding="UTF-8"?>
<svg xmlns="http://www.w3.org/2000/svg" id="Layer_1" data-name="Layer 1" viewBox="0 0 24 24" width="512" height="512"><path d="M19.5,0H4.5C2.019,0,0,2.019,0,4.5v15c0,2.481,2.019,4.5,4.5,4.5h15c2.481,0,4.5-2.019,4.5-4.5V4.5c0-2.481-2.019-4.5-4.5-4.5Zm3.5,19.5c0,1.93-1.57,3.5-3.5,3.5H4.5c-1.93,0-3.5-1.57-3.5-3.5V4.5c0-1.93,1.57-3.5,3.5-3.5h15c1.93,0,3.5,1.57,3.5,3.5v15Zm-7-5.126c0,1.448-1.178,2.626-2.626,2.626h-.874v1.5c0,.276-.224,.5-.5,.5s-.5-.224-.5-.5v-1.5h-.926c-.979,0-1.893-.526-2.382-1.375-.139-.239-.057-.545,.183-.683,.238-.14,.544-.057,.683,.183,.312,.54,.894,.875,1.517,.875h2.8c.896,0,1.626-.729,1.626-1.626,0-.803-.575-1.478-1.368-1.605l-3.422-.55c-1.28-.206-2.21-1.296-2.21-2.593,0-1.448,1.178-2.626,2.626-2.626h.874v-1.5c0-.276,.224-.5,.5-.5s.5,.224,.5,.5v1.5h.926c.979,0,1.892,.527,2.382,1.375,.139,.239,.057,.545-.183,.683-.236,.136-.545,.057-.683-.183-.312-.54-.894-.875-1.517-.875h-2.8c-.896,0-1.626,.729-1.626,1.626,0,.803,.575,1.478,1.368,1.605l3.422,.55c1.28,.206,2.21,1.297,2.21,2.593Z"/></svg>
