<?xml version="1.0" encoding="UTF-8"?>
<svg xmlns="http://www.w3.org/2000/svg" id="Layer_1" data-name="Layer 1" viewBox="0 0 24 24" width="512" height="512"><path d="M19.5,2H4.5C2.02,2,0,4.02,0,6.5v11c0,2.48,2.02,4.5,4.5,4.5h15c2.48,0,4.5-2.02,4.5-4.5V6.5c0-2.48-2.02-4.5-4.5-4.5Zm3.5,15.5c0,1.93-1.57,3.5-3.5,3.5h-1.59c-.48-2.84-2.94-5-5.91-5s-5.43,2.16-5.91,5h-1.59c-1.93,0-3.5-1.57-3.5-3.5V6.5c0-1.93,1.57-3.5,3.5-3.5h15c1.93,0,3.5,1.57,3.5,3.5v11Zm-7-7.5c0,2.21-1.79,4-4,4s-4-1.79-4-4,1.79-4,4-4,4,1.79,4,4Z"/></svg>
