<?xml version="1.0" encoding="UTF-8"?>
<svg xmlns="http://www.w3.org/2000/svg" id="Layer_1" data-name="Layer 1" viewBox="0 0 24 24" width="512" height="512"><path d="M21.5,6h-.686c-.339-.655-.833-1.345-1.039-1.599C17.347,1.16,13.334-.483,9.318,.128,4.5,.853,.439,5.289,.074,10.229c-.199,2.698,.481,5.208,1.969,7.259,.626,.862,.957,1.807,.957,2.732v1.106c0,1.524,1.075,2.674,2.5,2.674H13.5c1.379,0,2.5-1.121,2.5-2.5v-1.5h1.056c2.193,0,4.058-1.568,4.433-3.729l.119-.686c.048-.272-.135-.531-.406-.578-.269-.056-.531,.133-.578,.406l-.119,.686c-.293,1.681-1.742,2.9-3.448,2.9h-1.556c-.276,0-.5,.224-.5,.5v2c0,.827-.673,1.5-1.5,1.5H5.5c-.869,0-1.5-.704-1.5-1.674v-1.106c0-1.138-.397-2.286-1.147-3.32-1.347-1.856-1.962-4.138-1.78-6.597,.008-.101,.017-.202,.028-.303H11.036c.243,1.694,1.704,3,3.464,3h7c1.379,0,2.5-1.121,2.5-2.5v-2c0-1.379-1.121-2.5-2.5-2.5ZM9.467,1.116c3.657-.545,7.301,.938,9.519,3.899,.119,.147,.411,.546,.679,.984h-5.164c-1.76,0-3.221,1.306-3.464,3H1.264C2.133,5.052,5.52,1.71,9.467,1.116Zm13.533,9.384c0,.827-.673,1.5-1.5,1.5h-7c-1.379,0-2.5-1.121-2.5-2.5s1.121-2.5,2.5-2.5h7c.827,0,1.5,.673,1.5,1.5v2Z"/></svg>
