<?xml version="1.0" encoding="UTF-8"?>
<svg xmlns="http://www.w3.org/2000/svg" id="Layer_1" data-name="Layer 1" viewBox="0 0 24 24" width="512" height="512"><path d="m23.879,15.146c.195.195.195.512,0,.707-.098.098-.226.146-.354.146s-.256-.049-.354-.146l-3.146-3.146-3.146,3.146c-.098.098-.226.146-.354.146s-.256-.049-.354-.146c-.195-.195-.195-.512,0-.707l3.146-3.146-3.146-3.146c-.195-.195-.195-.512,0-.707s.512-.195.707,0l3.146,3.146,3.146-3.146c.195-.195.512-.195.707,0s.195.512,0,.707l-3.146,3.146,3.146,3.146ZM14,1.715v20.585c0,.557-.272,1.079-.729,1.398-.289.202-.629.306-.973.306-.197,0-.395-.034-.584-.104-2.163-.794-4.59-2.676-6.04-4.684l-.15-.208-1.025-.003c-2.48-.004-4.499-2.025-4.499-4.506v-4.994c0-1.203.469-2.334,1.32-3.185.85-.849,1.979-1.315,3.179-1.315h.007l1.018.003.149-.207C7.171,2.729,9.56.883,11.76.102c.512-.182,1.063-.104,1.513.212.456.322.728.846.728,1.401Zm-1,0c0-.231-.114-.45-.304-.584-.181-.127-.399-.159-.601-.087-2.022.718-4.224,2.423-5.61,4.343l-.299.415c-.094.13-.245.208-.406.208h-.001l-1.274-.003h-.005c-.933,0-1.811.363-2.472,1.023-.662.662-1.027,1.541-1.027,2.477v4.994c0,1.93,1.57,3.503,3.501,3.506l1.281.003c.16,0,.31.078.404.208l.299.415c1.322,1.831,3.614,3.611,5.574,4.331.216.079.451.048.64-.083.191-.134.301-.344.301-.578V1.715Z"/></svg>
