<?xml version="1.0" encoding="UTF-8"?>
<svg xmlns="http://www.w3.org/2000/svg" id="Layer_1" data-name="Layer 1" viewBox="0 0 24 24">
  <path d="m23.259,4.297c.478-.477.741-1.11.742-1.785,0-.675-.263-1.31-.74-1.786-.983-.984-2.584-.984-3.568,0l-3.176,3.176c-1.067,1.064-2.501.398-4.436-.666-.792-.437-1.806-.284-2.463.372-.398.398-.617.928-.617,1.49s.219,1.092.617,1.489l1.777,1.777L1.925,17.832c-1.049,1.049-1.157,2.689-.323,3.86l-1.455,1.455c-.195.195-.195.512,0,.707.098.098.226.146.354.146s.256-.049.354-.146l1.455-1.455c.504.36,1.106.555,1.738.555.801,0,1.555-.312,2.121-.879l9.469-9.469,1.763,1.763c.411.41.95.615,1.49.615s1.079-.205,1.49-.615c.656-.657.81-1.67.373-2.464-1.065-1.934-1.732-3.369-.666-4.436l3.174-3.173ZM5.46,21.368c-.756.756-2.072.756-2.828,0-.78-.78-.78-2.049,0-2.829l3.539-3.539h5.657l-6.368,6.368Zm7.368-7.368h-5.657l4.93-4.929,2.828,2.828-2.101,2.101Zm7.047-1.612c.224.406.14.931-.204,1.274-.432.432-1.134.432-1.565,0l-7.782-7.782c-.209-.209-.324-.486-.324-.782s.115-.574.324-.783c.345-.343.87-.427,1.361-.155,1.72.947,3.861,2.129,5.538.449l3.176-3.176c.594-.594,1.56-.594,2.154,0,.288.288.447.671.447,1.078,0,.408-.159.791-.448,1.078l-3.175,3.174c-1.678,1.678-.45,3.905.497,5.625Z"/>
</svg>
