<?xml version="1.0" encoding="UTF-8"?>
<svg xmlns="http://www.w3.org/2000/svg" id="Layer_1" data-name="Layer 1" viewBox="0 0 24 24" width="512" height="512"><path d="m23.854,23.146l-1.268-1.268c.643-.971.538-2.293-.315-3.146-.853-.851-2.175-.957-3.146-.315l-1.13-1.13c.771-.873,1.336-1.889,1.665-2.984l2.719.682c.041.01.082.015.122.015.224,0,.428-.151.484-.378.067-.269-.095-.54-.363-.607l-2.738-.687c.073-.436.116-.879.116-1.328,0-.453-.047-.894-.12-1.327l2.741-.688c.268-.067.431-.339.363-.607-.067-.268-.343-.427-.606-.363l-2.72.682c-.337-1.117-.914-2.127-1.668-2.981l1.133-1.133c.395.262.868.416,1.377.416,1.378,0,2.5-1.121,2.5-2.5s-1.122-2.5-2.5-2.5-2.5,1.121-2.5,2.5c0,.509.154.981.416,1.377l-1.133,1.133c-.853-.754-1.864-1.331-2.981-1.668l.682-2.719c.067-.269-.095-.54-.363-.607-.266-.066-.54.096-.606.363l-.688,2.742c-.433-.073-.874-.12-1.327-.12-.449,0-.892.043-1.328.116l-.687-2.738c-.067-.268-.341-.428-.606-.363-.268.067-.431.339-.363.607l.682,2.718c-1.096.329-2.112.894-2.984,1.665l-1.128-1.128c.642-.97.536-2.292-.318-3.146-.823-.825-2.183-.929-3.143-.315L.854.146C.658-.049.342-.049.146.146S-.049.658.146.854l23,23c.098.098.226.146.354.146s.256-.049.354-.146c.195-.195.195-.512,0-.707Zm-2.291-3.707c.459.459.543,1.14.28,1.696l-1.976-1.976c.556-.263,1.237-.18,1.696.28Zm-1.063-17.439c.827,0,1.5.673,1.5,1.5s-.673,1.5-1.5,1.5-1.5-.673-1.5-1.5.673-1.5,1.5-1.5Zm-8.5,3c3.86,0,7,3.141,7,7,0,1.692-.611,3.306-1.714,4.579L7.421,6.714c1.273-1.103,2.887-1.714,4.579-1.714Zm-7.439-2.561c.283.283.439.66.439,1.061,0,.227-.055.444-.15.643l-1.982-1.982c.555-.249,1.25-.164,1.692.278Zm4.439,13.561c-.552,0-1-.448-1-1s.448-1,1-1,1,.448,1,1-.448,1-1,1Zm7-7c0,.552-.448,1-1,1s-1-.448-1-1,.448-1,1-1,1,.448,1,1Zm-1.111,9.378c-2.639,1.196-5.788.621-7.839-1.428-2.046-2.046-2.622-5.192-1.433-7.83.113-.251,0-.548-.25-.661-.254-.113-.547,0-.662.251-.139.309-.243.626-.34.945l-2.746-.677c-.266-.062-.539.098-.605.365-.066.269.098.539.366.605l2.761.68c-.154.897-.165,1.808-.015,2.696l-2.748.689c-.268.067-.431.339-.363.607.057.227.261.378.484.378.041,0,.082-.005.122-.015l2.741-.687c.326,1.088.884,2.102,1.655,2.978l-1.143,1.143c-.395-.261-.866-.415-1.374-.415-1.378,0-2.5,1.121-2.5,2.498s1.122,2.498,2.5,2.498,2.5-1.121,2.5-2.498c0-.509-.155-.982-.418-1.377l1.132-1.132c.877.772,1.895,1.336,2.984,1.662l-.683,2.724c-.067.269.095.54.363.607.041.01.082.015.122.015.224,0,.428-.151.484-.378l.689-2.747c.444.075.894.12,1.345.12.437,0,.874-.047,1.308-.119l.688,2.745c.057.227.261.378.484.378.041,0,.081-.005.122-.015.268-.067.431-.339.363-.607l-.683-2.724c.338-.101.674-.217,1.001-.365.251-.113.363-.41.249-.661-.114-.252-.409-.363-.662-.249Zm-11.389,3.622c-.827,0-1.5-.672-1.5-1.498s.673-1.498,1.5-1.498,1.5.672,1.5,1.498-.673,1.498-1.5,1.498Z"/></svg>
