<?xml version="1.0" encoding="UTF-8"?>
<svg xmlns="http://www.w3.org/2000/svg" id="Layer_1" data-name="Layer 1" viewBox="0 0 24 24" width="512" height="512"><path d="M23.951,22.013c-.604,1.258-1.813,1.984-3.087,1.984-.497,0-1.003-.11-1.486-.343L.283,14.45c-.249-.12-.353-.418-.233-.667,.12-.249,.418-.353,.667-.233l19.093,9.204c1.24,.594,2.633,.089,3.238-1.173,.119-.25,.42-.354,.668-.234,.248,.119,.354,.418,.234,.667ZM5.5,6h7.927c.205,0,.408,.018,.608,.053l-4.438,5.831c-.637,.751-.775,1.773-.36,2.667,.414,.894,1.283,1.449,2.268,1.449h4.435c.689,0,1.288,.467,1.455,1.136l.621,2.485c.057,.228,.261,.379,.485,.379,.04,0,.08-.005,.121-.015,.268-.067,.431-.338,.364-.606l-.621-2.485c-.279-1.115-1.276-1.894-2.426-1.894h-4.435c-.6,0-1.109-.325-1.361-.869-.252-.544-.171-1.143,.232-1.621l4.658-6.119c.094,.049,.187,.102,.277,.159l1.273,.802c.641,.61,.473,1.583-.014,2.192l-2.079,2.647c-.17,.217-.133,.532,.085,.702,.092,.072,.2,.107,.309,.107,.147,0,.295-.065,.394-.191l2.076-2.644c.761-.953,.99-2.516-.156-3.596l-1.349-.861c-.725-.463-1.562-.708-2.423-.708H5.5c-.276,0-.5,.224-.5,.5s.224,.5,.5,.5Zm10.5-3.5c0-1.378,1.121-2.5,2.5-2.5s2.5,1.122,2.5,2.5-1.121,2.5-2.5,2.5-2.5-1.122-2.5-2.5Zm1,0c0,.827,.673,1.5,1.5,1.5s1.5-.673,1.5-1.5-.673-1.5-1.5-1.5-1.5,.673-1.5,1.5Z"/></svg>
