<?xml version="1.0" encoding="UTF-8"?>
<svg xmlns="http://www.w3.org/2000/svg" id="Layer_1" data-name="Layer 1" viewBox="0 0 24 24" width="512" height="512"><path d="m23.24,1.768c-.979-.982-2.688-.982-3.666,0L.148,21.272c-.074.075-.124.172-.14.276-.009.057-.075.567.281.983.18.21.531.461,1.178.461.52,0,.906.01,1.145,0,1.814-.072,3.579-.484,5.246-1.225,2.634-1.17,4.359-3.199,5.129-6.033l10.253-10.294c1.008-1.012,1.008-2.66,0-3.674ZM7.452,20.854c-1.551.689-3.192,1.072-4.88,1.139-.307.015-.538,0-1.104,0-.202,0-.354-.04-.416-.109-.018-.019-.029-.041-.037-.064l8.478-8.512,2.484,2.328c-.709,2.445-2.229,4.2-4.524,5.219ZM22.531,4.736l-10.005,10.045-2.328-2.183L20.283,2.473c.6-.602,1.648-.602,2.248,0,.621.624.621,1.64,0,2.264Z"/></svg>
