<?xml version="1.0" encoding="UTF-8"?>
<svg xmlns="http://www.w3.org/2000/svg" id="Layer_1" data-name="Layer 1" viewBox="0 0 24 24" width="512" height="512"><path d="m23.5,9.5c.276,0,.5-.224.5-.5v-1.5c0-2.481-2.019-4.5-4.5-4.5H4.5C2.019,3,0,5.019,0,7.5v9c0,2.481,2.019,4.5,4.5,4.5h15c2.481,0,4.5-2.019,4.5-4.5v-1.5c0-.276-.224-.5-.5-.5-1.379,0-2.5-1.121-2.5-2.5s1.121-2.5,2.5-2.5Zm-3.5,2.5c0,1.76,1.306,3.221,3,3.465v1.035c0,1.93-1.57,3.5-3.5,3.5H4.5c-1.93,0-3.5-1.57-3.5-3.5V7.5c0-1.93,1.57-3.5,3.5-3.5h15c1.93,0,3.5,1.57,3.5,3.5v1.035c-1.694.244-3,1.705-3,3.465Zm-4.5-1.5h-1.26l-1.729-2.16c-.282-.518-.824-.84-1.415-.84h-.298c-.346,0-.668.171-.862.456-.194.286-.234.648-.107.97l.621,1.574h-.352l-.912-.625c-.568-.568-1.606-.432-2.012.263-.231.398-.233.876.048,1.352l1.097,1.3c.381.452.938.711,1.528.711h.59l-.614,1.579c-.125.32-.084.682.11.967.194.284.517.454.861.454h.319c.59,0,1.132-.321,1.368-.77l1.761-2.23h1.258c.827,0,1.5-.673,1.5-1.5s-.673-1.5-1.5-1.5Zm0,2h-1.5c-.153,0-.298.07-.393.19l-1.957,2.49c-.107.197-.313.319-.537.319l-.359-.058.879-2.261c.06-.154.04-.328-.053-.464-.094-.137-.248-.218-.413-.218h-1.32c-.295,0-.573-.13-.765-.355l-1.044-1.226c-.072-.126-.023-.237,0-.279s.097-.14.242-.14c.073,0,.146.03.266.139l1.11.771c.084.059.184.09.285.09h1.241c.165,0,.32-.082.413-.219.094-.137.112-.311.052-.465l-.851-2.316h.298c.225,0,.43.122.585.391l1.929,2.421c.095.119.238.188.391.188h1.5c.275,0,.5.225.5.5s-.225.5-.5.5ZM5,5.5v1c0,.276-.224.5-.5.5s-.5-.224-.5-.5v-1c0-.276.224-.5.5-.5s.5.224.5.5Zm0,4v1c0,.276-.224.5-.5.5s-.5-.224-.5-.5v-1c0-.276.224-.5.5-.5s.5.224.5.5Zm0,4v1c0,.276-.224.5-.5.5s-.5-.224-.5-.5v-1c0-.276.224-.5.5-.5s.5.224.5.5Zm0,4v1c0,.276-.224.5-.5.5s-.5-.224-.5-.5v-1c0-.276.224-.5.5-.5s.5.224.5.5Z"/></svg>
