<?xml version="1.0" encoding="UTF-8"?>
<svg xmlns="http://www.w3.org/2000/svg" id="Layer_1" data-name="Layer 1" viewBox="0 0 24 24" width="512" height="512"><path d="m11.851,10.356l-3.362,3.305c-.226.226-.523.339-.821.339s-.598-.114-.826-.342l-1.7-1.741c-.193-.197-.189-.514.009-.707.198-.192.515-.189.707.009l1.695,1.736c.051.05.176.051.231-.004l3.365-3.308c.197-.194.513-.191.707.006.194.197.191.514-.006.707Zm5.649,7.644h-7c-.276,0-.5.224-.5.5s.224.5.5.5h7c.276,0,.5-.224.5-.5s-.224-.5-.5-.5Zm0-13h-7c-.276,0-.5.224-.5.5s.224.5.5.5h7c.276,0,.5-.224.5-.5s-.224-.5-.5-.5Zm0,6.5h-4c-.276,0-.5.224-.5.5s.224.5.5.5h4c.276,0,.5-.224.5-.5s-.224-.5-.5-.5Zm-10.5,6c-.552,0-1,.448-1,1s.448,1,1,1,1-.448,1-1-.448-1-1-1Zm0-11c.552,0,1-.448,1-1s-.448-1-1-1-1,.448-1,1,.448,1,1,1Zm15-2v15c0,2.481-2.019,4.5-4.5,4.5H6.5c-2.481,0-4.5-2.019-4.5-4.5V4.5C2,2.019,4.019,0,6.5,0h11c2.481,0,4.5,2.019,4.5,4.5Zm-1,0c0-1.93-1.57-3.5-3.5-3.5H6.5c-1.93,0-3.5,1.57-3.5,3.5v15c0,1.93,1.57,3.5,3.5,3.5h11c1.93,0,3.5-1.57,3.5-3.5V4.5Z"/></svg>
