<?xml version="1.0" encoding="UTF-8"?>
<svg xmlns="http://www.w3.org/2000/svg" id="Layer_1" data-name="Layer 1" viewBox="0 0 24 24" width="512" height="512"><path d="M16.5,12h-3c-.276,0-.5-.224-.5-.5s.224-.5,.5-.5h3c.276,0,.5,.224,.5,.5s-.224,.5-.5,.5Zm.5,4.5c0-.276-.224-.5-.5-.5h-5c-.276,0-.5,.224-.5,.5s.224,.5,.5,.5h5c.276,0,.5-.224,.5-.5Zm4,3V6.5c0-2.481-2.019-4.5-4.5-4.5h-.55c-.232-1.14-1.242-2-2.45-2h-3c-1.208,0-2.217,.86-2.45,2h-.55c-2.481,0-4.5,2.019-4.5,4.5v13c0,2.481,2.019,4.5,4.5,4.5h9c2.481,0,4.5-2.019,4.5-4.5ZM8.5,3c.276,0,.5-.224,.5-.5,0-.827,.673-1.5,1.5-1.5h3c.827,0,1.5,.673,1.5,1.5,0,.276,.224,.5,.5,.5h1c1.93,0,3.5,1.57,3.5,3.5v13c0,1.93-1.57,3.5-3.5,3.5H7.5c-1.93,0-3.5-1.57-3.5-3.5V6.5c0-1.93,1.57-3.5,3.5-3.5h1Zm-.5,12.5c-.552,0-1,.448-1,1s.448,1,1,1,1-.448,1-1-.448-1-1-1Zm1.488-3.838l2.862-2.805c.197-.193,.2-.51,.007-.707s-.51-.201-.707-.007l-2.865,2.808c-.056,.056-.18,.055-.242-.006l-1.779-1.721c-.198-.192-.515-.187-.707,.012-.192,.198-.187,.515,.012,.707l1.773,1.715c.22,.22,.513,.342,.825,.342s.605-.122,.822-.338Z"/></svg>
