<?xml version="1.0" encoding="UTF-8"?>
<svg xmlns="http://www.w3.org/2000/svg" id="Layer_1" data-name="Layer 1" width="512" height="512" viewBox="0 0 24 24"><path d="M23.583,1.743c-.375-.473-.974-.743-1.643-.743-.621,0-1.169,.282-1.699,.556-.443,.229-.862,.444-1.241,.444-.557,0-1.021-.494-1.469-.972-.317-.338-.617-.657-.969-.808-.338-.144-.712-.218-1.062-.221-.301,.002-.616,.057-.899,.165-.412,.157-.745,.505-1.097,.872-.454,.474-.923,.963-1.504,.963-.57,0-.991-.46-1.437-.947-.343-.374-.666-.728-1.087-.888-.309-.118-.647-.173-.976-.165-.5,0-.684,.092-.985,.221-.345,.147-.652,.46-.977,.791-.455,.463-.971,.988-1.539,.988-.379,0-.797-.216-1.241-.444-.53-.273-1.078-.556-1.699-.556-.669,0-1.268,.271-1.643,.743C.029,2.23-.093,2.895,.069,3.596l1.931,9.952v6.952c0,1.93,1.57,3.5,3.5,3.5,1.76,0,3.221-1.306,3.464-3h6.072c.243,1.694,1.704,3,3.464,3,1.93,0,3.5-1.57,3.5-3.5v-6.952l1.927-9.936c.166-.718,.043-1.382-.344-1.869ZM5.5,23c-1.378,0-2.5-1.121-2.5-2.5s1.122-2.5,2.5-2.5,2.5,1.121,2.5,2.5-1.122,2.5-2.5,2.5Zm13,0c-1.378,0-2.5-1.121-2.5-2.5s1.122-2.5,2.5-2.5,2.5,1.121,2.5,2.5-1.122,2.5-2.5,2.5Zm2.5-4.947c-.636-.65-1.522-1.053-2.5-1.053-1.76,0-3.221,1.306-3.464,3h-6.072c-.243-1.694-1.704-3-3.464-3-.978,0-1.864,.404-2.5,1.053v-4.053H21v4.053Zm1.949-14.649l-1.862,9.596H2.912L1.047,3.388c-.097-.421-.045-.774,.152-1.022,.185-.232,.499-.365,.861-.365,.379,0,.797,.216,1.241,.444,.53,.273,1.078,.556,1.699,.556,.987,0,1.688-.714,2.252-1.288,.242-.247,.523-.558,.748-.608V9.5c0,.276,.224,.5,.5,.5s.5-.224,.5-.5V1.059c.223,.046,.576,.397,.825,.669,.519,.566,1.165,1.271,2.175,1.271s1.683-.705,2.226-1.271c.26-.271,.545-.582,.774-.645V9.5c0,.276,.224,.5,.5,.5s.5-.224,.5-.5V1.078c.255,.037,.569,.387,.802,.635,.538,.573,1.208,1.287,2.198,1.287,.621,0,1.169-.282,1.699-.556,.443-.229,.862-.444,1.241-.444,.362,0,.676,.133,.861,.365,.197,.248,.249,.602,.148,1.039Z"/></svg>
