<?xml version="1.0" encoding="UTF-8"?>
<svg xmlns="http://www.w3.org/2000/svg" id="Layer_1" data-name="Layer 1" viewBox="0 0 24 24" width="512" height="512"><path d="M13.5,10H5.5c-.827,0-1.5,.673-1.5,1.5v7c0,.827,.673,1.5,1.5,1.5H13.5c.827,0,1.5-.673,1.5-1.5v-7c0-.827-.673-1.5-1.5-1.5Zm.5,8.5c0,.276-.225,.5-.5,.5H5.5c-.275,0-.5-.224-.5-.5v-7c0-.276,.225-.5,.5-.5H13.5c.275,0,.5,.224,.5,.5v7Zm9.155-9.336c-.522-.261-1.136-.206-1.601,.144l-2.555,1.917v-.724c0-2.481-2.019-4.5-4.5-4.5h-.28L9.952,1.732c-.473-.472-1.1-.732-1.768-.732H.5c-.276,0-.5,.224-.5,.5s.224,.5,.5,.5h7.685c.395,0,.781,.16,1.061,.439l3.561,3.561H4.5C2.019,6,0,8.019,0,10.5v9c0,2.481,2.019,4.5,4.5,4.5H14.5c2.481,0,4.5-2.019,4.5-4.5v-.724l2.555,1.916c.271,.204,.592,.308,.915,.307,.233,0,.467-.053,.686-.163,.521-.26,.845-.784,.845-1.367V10.53c0-.583-.324-1.106-.845-1.367Zm-5.155,10.336c0,1.93-1.57,3.5-3.5,3.5H4.5c-1.93,0-3.5-1.57-3.5-3.5V10.5c0-1.93,1.57-3.5,3.5-3.5H14.5c1.93,0,3.5,1.57,3.5,3.5v9Zm5-.03c0,.205-.109,.381-.292,.472-.185,.091-.392,.072-.554-.05l-3.154-2.366v-5.053l3.154-2.366c.162-.121,.369-.141,.554-.05,.183,.092,.292,.268,.292,.473v8.94Z"/></svg>
