<?xml version="1.0" encoding="UTF-8"?>
<svg xmlns="http://www.w3.org/2000/svg" id="Layer_1" data-name="Layer 1" width="512" height="512" viewBox="0 0 24 24"><path d="M.5,16H14.5c.276,0,.5-.224,.5-.5V5c0-2.206-1.794-4-4-4H4C1.794,1,0,2.794,0,5V15.5c0,.276,.224,.5,.5,.5ZM1,5c0-1.654,1.346-3,3-3h7c1.654,0,3,1.346,3,3V15H1V5Zm4-.5V12.5c0,.276-.224,.5-.5,.5s-.5-.224-.5-.5V4.5c0-.276,.224-.5,.5-.5s.5,.224,.5,.5Zm3,0V12.5c0,.276-.224,.5-.5,.5s-.5-.224-.5-.5V4.5c0-.276,.224-.5,.5-.5s.5,.224,.5,.5Zm3,0V12.5c0,.276-.224,.5-.5,.5s-.5-.224-.5-.5V4.5c0-.276,.224-.5,.5-.5s.5,.224,.5,.5Zm12.968,7.824c-.048-.478-.148-.949-.301-1.406l-.901-2.705c-.542-1.623-2.056-2.713-3.766-2.713-1.103,0-2,.897-2,2v10.5H.5c-.276,0-.5,.224-.5,.5v1.5c0,.846,.36,1.657,.988,2.225,.553,.5,1.275,.774,2.019,.774,.1,0,.201-.005,.301-.015,.9-.09,1.684-.615,2.17-1.363,.534,.829,1.465,1.379,2.522,1.379,1.654,0,3-1.346,3-3v-1h6v1c0,1.654,1.346,3,3,3s3-1.346,3-3v-1.086c.582-.206,1-.762,1-1.414v-4.526c0-.124-.017-.398-.032-.65Zm-4.968-5.824c1.279,0,2.411,.816,2.816,2.03l.901,2.705c.084,.251,.149,.506,.196,.766h-4.913V7.5c0-.551,.448-1,1-1ZM3.208,21.989c-.575,.062-1.125-.122-1.549-.506-.418-.378-.659-.919-.659-1.483v-1H5v.857c0,1.095-.787,2.032-1.792,2.132Zm6.792-1.989c0,1.103-.897,2-2,2s-2-.897-2-2c0-.015,0-.03-.002-.045,0-.033,.002-.065,.002-.098v-.857h4v1Zm10,2c-1.103,0-2-.897-2-2v-1h4v1c0,1.103-.897,2-2,2Zm2.5-4h-4.5v-5h5v4.5c0,.276-.225,.5-.5,.5Z"/></svg>
