<?xml version="1.0" encoding="UTF-8"?>
<svg xmlns="http://www.w3.org/2000/svg" id="Layer_1" data-name="Layer 1" viewBox="0 0 24 24" width="512" height="512"><path d="M23.181,9.655c-.496-.452-1.141-.672-1.809-.652-.67,.032-1.288,.322-1.739,.818l-3.732,4.102c-.314-1.108-1.335-1.922-2.543-1.922H3.5c-1.93,0-3.5,1.57-3.5,3.5v5c0,1.93,1.57,3.5,3.5,3.5h5.965c2.707,0,5.292-1.159,7.093-3.181l6.806-7.639c.911-1.022,.829-2.604-.183-3.526Zm-.563,2.861l-6.806,7.639c-1.611,1.809-3.925,2.846-6.347,2.846H3.5c-1.379,0-2.5-1.122-2.5-2.5v-5c0-1.378,1.121-2.5,2.5-2.5H13.357c.905,0,1.643,.737,1.643,1.642,0,.812-.606,1.511-1.398,1.624l-6.161,.737c-.274,.033-.47,.282-.437,.556,.032,.275,.283,.466,.556,.437l6.173-.739c1.021-.146,1.844-.878,2.145-1.824l4.496-4.94c.271-.298,.643-.473,1.046-.492,.405-.017,.789,.12,1.088,.393,.609,.555,.658,1.506,.11,2.122ZM5,5c0-.552,.448-1,1-1s1,.448,1,1-.448,1-1,1-1-.448-1-1Zm4,0c0-.552,.448-1,1-1s1,.448,1,1-.448,1-1,1-1-.448-1-1Zm-4,3c0,1.103,.897,2,2,2h2c1.103,0,2-.897,2-2,1.103,0,2-.897,2-2v-1c0-1.406-.599-2.756-1.643-3.703C10.299,.336,8.921-.117,7.504,.024,4.979,.27,3,2.543,3,5.2v.8c0,1.103,.897,2,2,2Zm-1-2.8c0-2.148,1.581-3.984,3.6-4.18h0c.136-.013,.271-.02,.404-.02,.995,0,1.935,.361,2.681,1.038,.835,.758,1.314,1.838,1.314,2.962v1c0,.551-.448,1-1,1h-.5c-.276,0-.5,.224-.5,.5v.5c0,.551-.448,1-1,1h-2c-.552,0-1-.449-1-1v-.5c0-.276-.224-.5-.5-.5h-.5c-.552,0-1-.449-1-1v-.8Z"/></svg>
