<?xml version="1.0" encoding="UTF-8"?>
<svg xmlns="http://www.w3.org/2000/svg" id="Layer_1" data-name="Layer 1" viewBox="0 0 24 24" width="512" height="512"><path d="M22.364,2.128c-.572-1.122-1.62-1.88-2.875-2.078-1.28-.205-2.533,.204-3.445,1.116L1.167,16.044c-.912,.911-1.319,2.167-1.117,3.444,.199,1.256,.957,2.304,2.079,2.876,2.174,1.108,4.514,1.647,6.835,1.647,3.895,0,7.733-1.52,10.631-4.417,4.625-4.625,5.738-11.645,2.77-17.467Zm-8.578,2.709c1.841,2.536,1.58,6.042-.664,8.285-2.247,2.246-5.748,2.507-8.285,.664L13.787,4.837Zm5.101,14.051c-4.317,4.318-10.871,5.355-16.305,2.586-.834-.426-1.397-1.206-1.545-2.142-.151-.957,.153-1.898,.836-2.581l2.25-2.25c1.33,1.008,2.9,1.508,4.467,1.508,1.901,0,3.795-.734,5.24-2.18,2.631-2.631,2.904-6.765,.672-9.707l2.249-2.249c.684-.683,1.624-.985,2.582-.836,.936,.148,1.716,.712,2.141,1.546,2.77,5.435,1.731,11.987-2.586,16.305Z"/></svg>
