<?xml version="1.0" encoding="UTF-8"?>
<svg xmlns="http://www.w3.org/2000/svg" id="Layer_1" data-name="Layer 1" viewBox="0 0 24 24" width="512" height="512"><path d="M11.5,8c-.017-.002,.017-.002,0,0h0Zm12.5-3.5v15c0,2.481-2.019,4.5-4.5,4.5H4.5c-2.481,0-4.5-2.019-4.5-4.5V4.5C0,2.019,2.019,0,4.5,0h15c2.481,0,4.5,2.019,4.5,4.5Zm-1,0c0-1.93-1.57-3.5-3.5-3.5H4.5c-1.93,0-3.5,1.57-3.5,3.5v15c0,1.93,1.57,3.5,3.5,3.5h15c1.93,0,3.5-1.57,3.5-3.5V4.5Zm-3.5,14.5H9.5c-.276,0-.5,.224-.5,.5s.224,.5,.5,.5h10c.276,0,.5-.224,.5-.5s-.224-.5-.5-.5Zm-2-11c.017-.002-.017-.002,0,0h0Zm1.74,.721c-.466-.466-1.127-.708-1.74-.721-.613,.013-1.273,.254-1.74,.721l-1.26,1.26-1.26-1.26c-.466-.466-1.127-.708-1.74-.721-.613,.013-1.273,.254-1.74,.721l-1.614,1.614c-.195,.195-.195,.512,0,.707s.512,.195,.707,0l1.614-1.614c.156-.156,.338-.268,.533-.339v6.411c0,.276,.224,.5,.5,.5s.5-.224,.5-.5v-6.411c.195,.071,.377,.183,.533,.339l1.614,1.614c.098,.098,.226,.146,.354,.146s.256-.049,.354-.146l1.614-1.614c.156-.156,.338-.268,.533-.339v6.411c0,.276,.224,.5,.5,.5s.5-.224,.5-.5v-6.411c.195,.071,.377,.183,.533,.339l1.614,1.614c.098,.098,.226,.146,.354,.146s.256-.049,.354-.146c.195-.195,.195-.512,0-.707l-1.614-1.614Z"/></svg>
