<?xml version="1.0" encoding="UTF-8"?>
<svg xmlns="http://www.w3.org/2000/svg" id="Layer_1" data-name="Layer 1" viewBox="0 0 24 24">
  <path d="m22.556,17.082c-.011-.015-.021-.029-.033-.043l-1.891-2.191c.473-.188.871-.54,1.117-1.006.375-.715.324-1.572-.176-2.289l-2.329-2.566c.656-.079,1.231-.47,1.536-1.06.339-.654.286-1.404-.173-2.05L16.011.677c-.76-.86-2.263-.86-3.021,0l-.998,1.129-.981-1.129c-.76-.86-2.262-.86-3.021,0L3.359,5.918c-.426.603-.479,1.353-.14,2.007.305.59.88.981,1.538,1.06l-2.371,2.619c-.458.665-.51,1.522-.134,2.237.185.353.459.639.785.84.046.117.134.211.247.266l-1.838,2.136c-.529.767-.588,1.756-.154,2.581.433.825,1.281,1.337,2.213,1.337h5.497v2.5c0,.276.224.5.5.5s.5-.224.5-.5v-2.5h4v2.5c0,.276.224.5.5.5s.5-.224.5-.5v-2.5h5.497c.932,0,1.779-.512,2.213-1.337.434-.825.374-1.814-.154-2.582ZM4.107,7.466c-.164-.315-.138-.678.035-.928L8.738,1.339c.381-.431,1.143-.431,1.523,0l1.072,1.213-2.974,3.367c-.426.603-.479,1.353-.14,2.007.014.027.036.048.051.074h-3.268c-.388,0-.722-.2-.895-.534Zm-.971,5.91c-.205-.391-.178-.841.031-1.152l2.924-3.224h3.652l-2.358,2.604c-.458.665-.51,1.522-.134,2.237.03.057.068.106.103.159h-3.185c-.441,0-.828-.233-1.033-.624Zm.367,6.624c-.567,0-1.064-.3-1.328-.802-.264-.502-.229-1.082.06-1.506l2.321-2.692h3.68l-1.792,2.082c-.529.767-.588,1.756-.154,2.581.066.125.157.227.241.337h-3.028Zm18.321-.802c-.264.502-.76.802-1.327.802h-11.994c-.567,0-1.064-.3-1.328-.802-.264-.502-.229-1.082.06-1.506l2.47-2.865c.127-.148.157-.357.076-.535s-.259-.292-.455-.292h-.157c-.441,0-.828-.233-1.033-.624-.205-.391-.178-.841.031-1.152l3.073-3.388c.133-.146.167-.357.087-.539-.08-.181-.259-.297-.457-.297h-.868c-.388,0-.722-.2-.895-.534-.164-.315-.138-.678.035-.928L13.739,1.339c.189-.215.467-.339.761-.339s.571.124.761.339l4.563,5.157c.206.292.231.655.068.971-.173.334-.508.534-.896.534h-.868c-.198,0-.377.117-.457.297-.08.181-.046.392.087.539l3.032,3.335c.251.363.277.813.072,1.204-.205.391-.592.625-1.033.625h-.157c-.195,0-.373.114-.454.292-.082.178-.053.386.075.535l2.452,2.843c.309.464.339,1.033.078,1.528Z"/>
</svg>
