<?xml version="1.0" encoding="UTF-8"?>
<svg xmlns="http://www.w3.org/2000/svg" id="Layer_1" data-name="Layer 1" viewBox="0 0 24 24" width="512" height="512"><path d="m12,6c-1.654,0-3,1.346-3,3,0,1.484,1.083,2.719,2.5,2.958v11.542c0,.276.224.5.5.5s.5-.224.5-.5v-11.542c1.417-.239,2.5-1.474,2.5-2.958,0-1.654-1.346-3-3-3Zm0,5c-1.103,0-2-.897-2-2s.897-2,2-2,2,.897,2,2-.897,2-2,2Zm-4.95-6.875c-1.322,1.322-2.05,3.08-2.05,4.95s.728,3.628,2.05,4.95c.195.195.195.512,0,.707-.098.098-.226.146-.354.146s-.256-.049-.354-.146c-3.119-3.119-3.119-8.195,0-11.314.195-.195.512-.195.707,0s.195.512,0,.707Zm10.606,10.607c-.098.098-.226.146-.354.146s-.256-.049-.354-.146c-.195-.195-.195-.512,0-.707,1.322-1.322,2.05-3.08,2.05-4.95s-.728-3.627-2.05-4.95c-.195-.195-.195-.512,0-.707s.512-.195.707,0c3.119,3.119,3.119,8.195,0,11.314Zm-13.435,2.121c.195.195.195.512,0,.707-.098.098-.226.146-.354.146s-.256-.049-.354-.146C-1.164,12.882-1.164,5.269,3.515.59c.195-.195.512-.195.707,0s.195.512,0,.707C-.067,5.586-.067,12.564,4.222,16.854Zm16.264.707c-.098.098-.226.146-.354.146s-.256-.049-.354-.146c-.195-.195-.195-.512,0-.707,4.289-4.289,4.289-11.267,0-15.556-.195-.195-.195-.512,0-.707s.512-.195.707,0c4.679,4.679,4.679,12.292,0,16.97Z"/></svg>
