<?xml version="1.0" encoding="UTF-8"?>
<svg xmlns="http://www.w3.org/2000/svg" id="Layer_1" data-name="Layer 1" viewBox="0 0 24 24" width="512" height="512"><path d="m8,11.5c1.103,0,2-.897,2-2s-.897-2-2-2-2,.897-2,2,.897,2,2,2Zm0-3c.552,0,1,.449,1,1s-.448,1-1,1-1-.449-1-1,.448-1,1-1Zm8-1c-1.103,0-2,.897-2,2s.897,2,2,2,2-.897,2-2-.897-2-2-2Zm0,3c-.552,0-1-.449-1-1s.448-1,1-1,1,.449,1,1-.448,1-1,1Zm1.889,4.186c.173.214.141.529-.073.703-.106.086-2.638,2.112-5.815,2.112s-5.709-2.025-5.815-2.112c-.214-.174-.246-.488-.073-.703.175-.214.488-.248.703-.074.023.019,2.37,1.889,5.186,1.889s5.162-1.87,5.186-1.889c.214-.173.529-.14.703.074ZM12.838.028c-3.469-.235-6.876,1.037-9.329,3.493C1.057,5.976-.211,9.378.029,12.855c.44,6.354,6.074,11.145,13.104,11.145h6.186c2.581,0,4.682-2.1,4.682-4.682v-6.963C24,5.868,19.097.454,12.838.028Zm10.162,19.29c0,2.03-1.651,3.682-3.682,3.682h-6.186c-6.604,0-11.695-4.296-12.105-10.214-.221-3.188.941-6.308,3.189-8.558C6.464,1.976,9.583.81,12.77,1.026c5.737.39,10.23,5.366,10.23,11.329v6.963Z"/></svg>
