<?xml version="1.0" encoding="UTF-8"?>
<svg xmlns="http://www.w3.org/2000/svg" id="Layer_1" data-name="Layer 1" viewBox="0 0 24 24" width="512" height="512"><path d="M21.488,24H5.582c-1.582,0-2.917-.966-3.403-2.46-.482-1.481,.024-3.034,1.29-3.954L19.943,5.605c1.103-.802,1.202-1.991,.927-2.836-.278-.855-1.069-1.77-2.453-1.77H2.512c-.649,.01-.649-1.01,0-1h15.906c1.582,0,2.917,.966,3.403,2.46,.482,1.481-.024,3.034-1.29,3.954L4.057,18.395c-1.103,.802-1.202,1.991-.927,2.836,.278,.855,1.069,1.77,2.453,1.77h15.906c.649-.01,.649,1.01,0,1Z"/></svg>
