<?xml version="1.0" encoding="UTF-8"?>
<svg xmlns="http://www.w3.org/2000/svg" id="Layer_1" data-name="Layer 1" width="512" height="512" viewBox="0 0 24 24"><path d="M15.5,24c-.668,0-1.295-.26-1.768-.732-.473-.472-.732-1.1-.732-1.768,0-1.235,1.566-2.985,1.745-3.18,.425-.417,1.085-.416,1.489-.021,.197,.211,1.766,1.938,1.766,3.201,0,.668-.26,1.296-.732,1.768-.473,.472-1.1,.732-1.768,.732Zm.019-5.003c-.608,.625-1.519,1.862-1.519,2.503,0,.401,.156,.777,.439,1.06,.566,.567,1.555,.567,2.121,0,.283-.283,.439-.66,.439-1.061,0-.658-.908-1.885-1.481-2.503Zm-8.019,5.003c-.668,0-1.296-.26-1.768-.732s-.732-1.1-.732-1.768c0-1.235,1.566-2.985,1.745-3.18,.425-.416,1.084-.417,1.49-.02,.196,.21,1.765,1.938,1.765,3.2,0,.668-.26,1.296-.732,1.768h0c-.473,.472-1.1,.732-1.768,.732Zm.019-5.003c-.609,.625-1.519,1.862-1.519,2.503,0,.401,.156,.777,.439,1.061,.566,.566,1.554,.566,2.122,0h0c.284-.283,.439-.66,.439-1.061,0-.658-.908-1.885-1.481-2.503Zm-4.02,.593c-.066,0-.134-.013-.199-.042-1.635-.712-2.824-2.165-3.18-3.884-.391-1.89,.198-3.805,1.577-5.122,.329-.314,.469-.819,.387-1.387-.135-.923-.107-1.863,.083-2.796C2.804,3.222,5.338,.724,8.473,.142c3.576-.665,7.061,1.057,8.675,4.279,.194,.389,.56,.668,1.001,.767,3.521,.79,5.98,3.984,5.847,7.597-.101,2.691-1.737,5.14-4.273,6.392-.247,.124-.547,.021-.67-.227-.122-.248-.021-.547,.227-.669,2.207-1.089,3.631-3.209,3.717-5.533,.116-3.131-2.015-5.899-5.065-6.584-.735-.165-1.347-.636-1.677-1.294-1.413-2.819-4.464-4.323-7.598-3.744C5.917,1.633,3.704,3.816,3.147,6.559c-.167,.819-.191,1.644-.074,2.452,.13,.892-.119,1.714-.685,2.254-1.127,1.078-1.609,2.646-1.288,4.196,.286,1.381,1.282,2.596,2.6,3.17,.253,.11,.369,.405,.259,.658-.082,.188-.266,.3-.459,.3Zm8-2.59c-.668,0-1.296-.26-1.768-.732s-.732-1.1-.732-1.768c0-1.235,1.566-2.985,1.745-3.18,.425-.417,1.084-.417,1.49-.02,.196,.21,1.765,1.938,1.765,3.2,0,.668-.26,1.296-.732,1.768-.472,.472-1.1,.732-1.768,.732Zm.019-5.003c-.609,.625-1.519,1.862-1.519,2.503,0,.401,.156,.777,.439,1.06,.565,.568,1.553,.567,2.121,0,.284-.283,.439-.66,.439-1.061,0-.658-.908-1.885-1.481-2.503Z"/></svg>
