<?xml version="1.0" encoding="UTF-8"?>
<svg xmlns="http://www.w3.org/2000/svg" id="Layer_1" data-name="Layer 1" viewBox="0 0 24 24" width="512" height="512"><path d="M14.831,17c-.128,0-.256-.049-.354-.146-.195-.195-.195-.512,0-.707l3.083-3.083c.283-.283,.439-.66,.439-1.061s-.156-.777-.439-1.061l-3.088-3.088c-.195-.195-.195-.512,0-.707s.512-.195,.707,0l3.088,3.088c.473,.472,.732,1.1,.732,1.768s-.26,1.295-.732,1.768l-3.083,3.083c-.098,.098-.226,.146-.354,.146Zm-5.308-.146c.195-.195,.195-.512,0-.707l-3.083-3.083c-.283-.283-.439-.66-.439-1.061s.156-.777,.439-1.061l3.088-3.088c.195-.195,.195-.512,0-.707s-.512-.195-.707,0l-3.088,3.088c-.472,.472-.732,1.1-.732,1.768s.26,1.295,.732,1.768l3.083,3.083c.098,.098,.226,.146,.354,.146s.256-.049,.354-.146Zm14.477,2.646V4.5c0-2.481-2.019-4.5-4.5-4.5H4.5C2.019,0,0,2.019,0,4.5v15c0,2.481,2.019,4.5,4.5,4.5h15c2.481,0,4.5-2.019,4.5-4.5ZM19.5,1c1.93,0,3.5,1.57,3.5,3.5v15c0,1.93-1.57,3.5-3.5,3.5H4.5c-1.93,0-3.5-1.57-3.5-3.5V4.5c0-1.93,1.57-3.5,3.5-3.5h15Z"/></svg>
