<?xml version="1.0" encoding="UTF-8"?>
<svg xmlns="http://www.w3.org/2000/svg" id="Layer_1" data-name="Layer 1" viewBox="0 0 24 24" width="512" height="512"><path d="m7.362,19.65c.195.195.195.512,0,.707-.098.098-.226.146-.354.146s-.256-.049-.354-.146l-3-3c-.195-.195-.195-.512,0-.707s.512-.195.707,0l3,3Zm6.001-6l-3-3c-.195-.195-.512-.195-.707,0s-.195.512,0,.707l3,3c.098.098.226.146.354.146s.256-.049.354-.146c.195-.195.195-.512,0-.707Zm-7.001-1c-.195-.195-.512-.195-.707,0s-.195.512,0,.707l5.001,5c.098.098.226.146.354.146s.256-.049.354-.146c.195-.195.195-.512,0-.707l-5.001-5Zm17.431-5.746c-.341.678-1.024,1.099-1.784,1.099h-5.002c-.015,1.857-.118,3.518-.321,5h1.028c.697,0,1.319.275,1.752.773.434.499.617,1.154.52,1.844-.194,1.358-1.375,2.382-2.746,2.382h-1.729c-.065,0-.126-.013-.183-.035-1.838,3.887-5.329,5.598-11.175,6.034-.095.007-.189.011-.284.011-1.015,0-1.994-.405-2.724-1.135-.798-.797-1.207-1.894-1.124-3.008.238-3.183.852-5.669,1.989-7.57v-.372c0-3.875,2.855-7.205,6.593-7.883.832-.145,1.685.09,2.339.642.679.572,1.068,1.408,1.068,2.293v.229c1.22-.125,2.55-.19,4.001-.203V2.003c0-.76.421-1.444,1.1-1.785.683-.343,1.491-.272,2.105.185.898.668,1.463,1.545,1.721,2.673,1.128.257,2.005.822,2.673,1.72.458.616.528,1.423.185,2.106ZM3.092,10.836c1.737-1.906,4.292-3.01,7.918-3.509v-.347c0-.591-.26-1.148-.713-1.529-.436-.366-.979-.514-1.526-.421-2.904.527-5.234,2.902-5.679,5.807Zm12.915-2.831c-10.797.083-14.317,2.926-14.989,11.939-.062.823.241,1.635.833,2.227s1.403.897,2.227.834c9.006-.672,11.846-4.195,11.93-15Zm.521,5.998c-.198,1.106-.461,2.104-.795,3h1.506c.877,0,1.632-.655,1.756-1.523.057-.399-.044-.771-.284-1.048-.24-.276-.594-.429-.997-.429h-1.185Zm6.278-8.609c-.58-.78-1.336-1.224-2.378-1.398-.211-.035-.376-.2-.411-.411-.174-1.042-.618-1.798-1.398-2.378-.314-.235-.711-.271-1.061-.094-.343.172-.548.505-.548.891v4.999h4.999c.385,0,.719-.205.891-.548.176-.349.141-.746-.094-1.061Z"/></svg>
