<?xml version="1.0" encoding="UTF-8"?>
<svg xmlns="http://www.w3.org/2000/svg" id="Layer_1" data-name="Layer 1" viewBox="0 0 24 24" width="512" height="512"><path d="M12.5,5c1.379,0,2.5-1.122,2.5-2.5s-1.121-2.5-2.5-2.5-2.5,1.122-2.5,2.5,1.121,2.5,2.5,2.5Zm0-4c.827,0,1.5,.673,1.5,1.5s-.673,1.5-1.5,1.5-1.5-.673-1.5-1.5,.673-1.5,1.5-1.5Zm1,5h-2c-1.93,0-3.5,1.57-3.5,3.5v4c0,1.393,.819,2.599,2,3.162v6.838c0,.276,.224,.5,.5,.5s.5-.224,.5-.5v-6.536c.163,.023,.33,.036,.5,.036h2c.17,0,.337-.012,.5-.036v6.536c0,.276,.224,.5,.5,.5s.5-.224,.5-.5v-6.838c1.181-.563,2-1.769,2-3.162v-4c0-1.93-1.57-3.5-3.5-3.5Zm2.5,7.5c0,1.378-1.121,2.5-2.5,2.5h-2c-1.379,0-2.5-1.122-2.5-2.5v-4c0-1.378,1.121-2.5,2.5-2.5h2c1.379,0,2.5,1.122,2.5,2.5v4Z"/></svg>
