<?xml version="1.0" encoding="UTF-8"?>
<svg xmlns="http://www.w3.org/2000/svg" id="Layer_1" data-name="Layer 1" viewBox="0 0 24 24" width="512" height="512"><path d="M24,12c0,6.617-5.383,12-12,12C5.553,24,.287,18.958,.011,12.521c-.012-.276,.202-.509,.478-.521,.271,.011,.509,.202,.521,.479,.252,5.9,5.08,10.521,10.99,10.521,6.065,0,11-4.935,11-11S18.065,1,12,1c-3.751,0-7.159,1.87-9.202,5H7.5c.276,0,.5,.224,.5,.5s-.224,.5-.5,.5H2.5c-.827,0-1.5-.673-1.5-1.5V.5c0-.276,.224-.5,.5-.5s.5,.224,.5,.5V5.399C4.232,2.019,7.931,0,12,0c6.617,0,12,5.383,12,12Z"/></svg>
