<?xml version="1.0" encoding="UTF-8"?>
<svg xmlns="http://www.w3.org/2000/svg" id="Layer_1" data-name="Layer 1" viewBox="0 0 24 24" width="512" height="512"><path d="m20,23.5c0,.276-.224.5-.5.5H4.5c-.276,0-.5-.224-.5-.5s.224-.5.5-.5h15c.276,0,.5.224.5.5ZM4,8c-.204,0-.389-.124-.464-.314l-.923-2.306-2.308-.973c-.188-.08-.31-.266-.306-.47.004-.205.132-.387.323-.459l2.294-.868L3.536.314c.15-.381.777-.381.928,0l.921,2.301,2.301.921c.19.075.314.26.314.464s-.124.389-.314.464l-2.301.921-.921,2.301c-.075.19-.26.314-.464.314Zm0-1.847l.536-1.339c.051-.127.151-.228.278-.278l1.339-.536-1.339-.536c-.127-.051-.228-.151-.278-.278l-.536-1.339-.536,1.339c-.052.13-.156.232-.287.282l-1.33.504,1.348.567c.123.052.221.151.27.275l.536,1.339Zm20,9.847c0,.229-.156.43-.379.485l-1.709.427-.427,1.709c-.056.223-.256.379-.485.379s-.43-.156-.485-.379l-.429-1.715-1.716-.462c-.222-.06-.374-.262-.37-.491s.164-.427.388-.479l1.702-.394.425-1.702c.111-.445.859-.445.971,0l.427,1.709,1.709.427c.223.056.379.256.379.485Z"/></svg>
