<?xml version="1.0" encoding="UTF-8"?>
<svg xmlns="http://www.w3.org/2000/svg" id="Layer_1" data-name="Layer 1" viewBox="0 0 24 24" width="512" height="512"><path d="m19.5,3.998h-1.528C17.723,1.751,15.812-.002,13.5-.002H4.5C2.019-.002,0,2.017,0,4.498v13.854c0,.609.333,1.166.871,1.453.244.131.511.195.777.195.319,0,.638-.093.914-.277l3.524-2.349c.409,2.063,2.233,3.623,4.414,3.623h6.849l4.089,2.726c.276.185.594.277.914.277.266,0,.533-.064.777-.195.537-.287.871-.844.871-1.453v-13.854c0-2.481-2.019-4.5-4.5-4.5ZM2.007,18.892c-.203.135-.45.148-.665.032-.214-.114-.342-.328-.342-.571V4.498c0-1.93,1.57-3.5,3.5-3.5h9c1.93,0,3.5,1.57,3.5,3.5v8c0,1.93-1.57,3.5-3.5,3.5h-6.937c-.154,0-.285.054-.345.087l-4.211,2.806Zm20.993,3.461c0,.243-.128.457-.342.571-.214.115-.463.102-.665-.032l-4.215-2.81c-.082-.055-.179-.084-.277-.084h-7c-1.76,0-3.221-1.306-3.464-3h6.464c2.481,0,4.5-2.019,4.5-4.5v-7.5h1.5c1.93,0,3.5,1.57,3.5,3.5v13.854Z"/></svg>
