<?xml version="1.0" encoding="UTF-8"?>
<svg xmlns="http://www.w3.org/2000/svg" id="Layer_1" data-name="Layer 1" viewBox="0 0 24 24" width="512" height="512"><path d="M17.5,0H6.5C4.02,0,2,2.02,2,4.5V20.5c0,1.93,1.57,3.5,3.5,3.5h12c2.48,0,4.5-2.02,4.5-4.5V4.5c0-2.48-2.02-4.5-4.5-4.5Zm3.5,4.5v12.5H7V1h10.5c1.93,0,3.5,1.57,3.5,3.5ZM3,4.5c0-1.76,1.31-3.22,3-3.46v15.96h-.5c-.98,0-1.86,.4-2.5,1.05V4.5Zm14.5,18.5H5.5c-1.38,0-2.5-1.12-2.5-2.5s1.12-2.5,2.5-2.5h15.5v1.5c0,1.93-1.57,3.5-3.5,3.5Zm-7.5-14c0,1.65,1.35,3,3,3h2c.55,0,1,.45,1,1s-.45,1-1,1h-2.5c-.28,0-.5,.22-.5,.5s.22,.5,.5,.5h2.5c1.1,0,2-.9,2-2,0-.53-.21-1.02-.55-1.37,.92-.51,1.55-1.5,1.55-2.63,0-1.65-1.35-3-3-3h-2c-.55,0-1-.45-1-1s.45-1,1-1h2.5c.28,0,.5-.22,.5-.5s-.22-.5-.5-.5h-2.5c-1.1,0-2,.9-2,2,0,.53,.21,1.02,.55,1.37-.92,.51-1.55,1.5-1.55,2.63Zm3-2h2c1.1,0,2,.9,2,2s-.9,2-2,2h-2c-1.1,0-2-.9-2-2s.9-2,2-2Z"/></svg>
