<?xml version="1.0" encoding="UTF-8"?>
<svg xmlns="http://www.w3.org/2000/svg" id="Layer_1" data-name="Layer 1" viewBox="0 0 24 24" width="512" height="512"><path d="M16,3.5V.5c0-.276,.224-.5,.5-.5s.5,.224,.5,.5V3.5c0,.276-.224,.5-.5,.5s-.5-.224-.5-.5Zm-4,.5c.276,0,.5-.224,.5-.5V.5c0-.276-.224-.5-.5-.5s-.5,.224-.5,.5V3.5c0,.276,.224,.5,.5,.5Zm-4.5,0c.276,0,.5-.224,.5-.5V.5c0-.276-.224-.5-.5-.5s-.5,.224-.5,.5V3.5c0,.276,.224,.5,.5,.5Zm.029,9.47c-.705-.705-.705-1.852,0-2.557,.116-.117,.472-.472,2.204-.884,.349-.084,.71,.017,.965,.271,.255,.253,.356,.614,.273,.965-.414,1.734-.769,2.089-.885,2.205-.341,.342-.795,.53-1.278,.53s-.938-.188-1.279-.53Zm.707-.707c.307,.306,.839,.306,1.144,0,.027-.028,.281-.312,.619-1.729-1.45,.305-1.735,.559-1.763,.586-.315,.315-.315,.828,0,1.143Zm15.764,1.055c0,.967-.485,2.692-2.213,3.095l-.6,3.374c-.382,2.151-2.245,3.712-4.43,3.712H7.244c-2.185,0-4.048-1.561-4.431-3.712l-.6-3.374c-1.729-.403-2.213-2.128-2.213-3.095,0-3.52,5.537-7.818,12-7.818s12,4.299,12,7.818Zm-3.389,3.998c-.657,.741-1.609,1.184-2.638,1.184-1.254,0-2.396-.659-3.026-1.715-.631,1.056-1.772,1.715-3.027,1.715s-2.396-.66-3.027-1.715c-.631,1.056-1.772,1.715-3.026,1.715-.929,0-1.796-.362-2.439-.978l.372,2.091c.298,1.672,1.747,2.887,3.446,2.887h9.513c1.699,0,3.148-1.214,3.445-2.887l.409-2.296Zm2.389-3.998c0-2.682-4.724-6.818-11-6.818S1,11.136,1,13.818c.002,.222,.071,2.182,2,2.182,.391,0,.519,.414,.536,.456,.396,.938,1.311,1.544,2.329,1.544s1.932-.606,2.329-1.543c.232-.554,1.163-.553,1.396,0,.396,.937,1.311,1.543,2.328,1.543s1.933-.606,2.328-1.543c.234-.552,1.163-.555,1.397,0,.396,.937,1.311,1.543,2.328,1.543s1.933-.606,2.328-1.543c.118-.278,.393-.457,.699-.457,1.978,0,2-2.093,2-2.182Zm-9.972-2.552c-.083-.352,.019-.712,.273-.966,.254-.255,.615-.356,.965-.271,1.73,.412,2.087,.767,2.203,.884h0c.705,.706,.705,1.853,0,2.558-.342,.342-.796,.53-1.279,.53s-.938-.188-1.278-.53c-.116-.116-.471-.471-.885-2.204Zm1.006-.265c.305,1.45,.559,1.734,.586,1.762,.305,.306,.837,.306,1.144,0,.315-.315,.315-.828,0-1.143-.028-.029-.316-.283-1.729-.619Z"/></svg>
