<?xml version="1.0" encoding="UTF-8"?>
<svg xmlns="http://www.w3.org/2000/svg" id="Layer_1" data-name="Layer 1" viewBox="0 0 24 24" width="512" height="512"><path d="m19.5,3H4.5C2.019,3,0,5.019,0,7.5v9c0,2.481,2.019,4.5,4.5,4.5h15c2.481,0,4.5-2.019,4.5-4.5V7.5c0-2.481-2.019-4.5-4.5-4.5Zm3.5,13.5c0,1.93-1.57,3.5-3.5,3.5H4.5c-1.93,0-3.5-1.57-3.5-3.5V7.5c0-1.93,1.57-3.5,3.5-3.5h15c1.93,0,3.5,1.57,3.5,3.5v9Zm-13.851-8.226c-.173-.762-.815-1.274-1.598-1.274s-1.424.513-1.597,1.27l-1.941,8.114c-.064.269.102.538.37.603.039.01.078.014.117.014.226,0,.431-.154.486-.384l.624-2.608h3.812l.59,2.603c.061.27.33.442.598.377.27-.061.438-.328.377-.598l-1.839-8.115Zm-3.3,4.733l1.079-4.511c.083-.366.376-.497.623-.497s.54.131.623.496l1.022,4.512h-3.347Z"/></svg>
