<?xml version="1.0" encoding="UTF-8"?>
<svg xmlns="http://www.w3.org/2000/svg" id="Layer_1" data-name="Layer 1" viewBox="0 0 24 24" width="512" height="512"><path d="M20.5,14h-4c-1.38,0-2.5,1.12-2.5,2.5v4c0,1.38,1.12,2.5,2.5,2.5h4c1.38,0,2.5-1.12,2.5-2.5v-4c0-1.38-1.12-2.5-2.5-2.5Zm1.5,6.5c0,.83-.67,1.5-1.5,1.5h-4c-.83,0-1.5-.67-1.5-1.5v-4c0-.83,.67-1.5,1.5-1.5h4c.83,0,1.5,.67,1.5,1.5v4ZM10.84,4.14c.2,.19,.21,.51,.02,.71-.1,.1-.23,.16-.36,.16-.12,0-.25-.05-.34-.14L6.57,1.45c-.16-.16-.36-.28-.57-.35V23.5c0,.28-.22,.5-.5,.5s-.5-.22-.5-.5V1.09c-.21,.07-.4,.19-.56,.35L.84,4.86c-.2,.19-.52,.18-.71-.02-.19-.2-.18-.52,.02-.71L3.74,.72c.93-.93,2.58-.94,3.53,0l3.58,3.41Zm12.47,2.94l-3.09-5.04c-.35-.64-1-1.03-1.73-1.03s-1.38,.38-1.72,1.01l-3.12,5.09c-.33,.62-.32,1.34,.04,1.94s.99,.96,1.69,.96h6.21c.7,0,1.33-.36,1.69-.96s.37-1.33,.03-1.97Zm-.89,1.46c-.18,.3-.49,.47-.83,.47h-6.21c-.34,0-.65-.18-.83-.47-.18-.3-.18-.65-.03-.93l3.12-5.09c.17-.32,.49-.51,.85-.51s.68,.19,.86,.53l3.09,5.04c.16,.3,.16,.66-.02,.96Z"/></svg>
