<?xml version="1.0" encoding="UTF-8"?>
<svg xmlns="http://www.w3.org/2000/svg" id="Layer_1" data-name="Layer 1" viewBox="0 0 24 24" width="512" height="512"><path d="M8,23.5c0,.276-.224,.5-.5,.5h-2.503c-1.833,0-3.506-1.123-4.165-2.794-.552-1.401-.832-2.647-.832-3.706,0-2.151,1.063-3.745,2.087-5.282,.984-1.476,1.913-2.871,1.913-4.718v-1.5h-.5c-.276,0-.5-.224-.5-.5s.224-.5,.5-.5h.5v-1C4,1.794,5.794,0,8,0c1.084,0,2.099,.427,2.857,1.201,.193,.197,.19,.514-.007,.707-.198,.192-.514,.19-.707-.008-.569-.58-1.33-.9-2.143-.9-1.654,0-3,1.346-3,3v1h3.5c.276,0,.5,.224,.5,.5s-.224,.5-.5,.5h-3.5v1.5c0,1.792-.735,3.193-1.573,4.5H7.5c.276,0,.5,.224,.5,.5s-.224,.5-.5,.5H2.768c-.928,1.397-1.768,2.744-1.768,4.5,0,.932,.256,2.056,.763,3.339,.509,1.293,1.809,2.161,3.234,2.161h2.503c.276,0,.5,.224,.5,.5Zm8-7.5c-.552,0-1,.448-1,1s.448,1,1,1,1-.448,1-1-.448-1-1-1Zm8,1.5c0,1.061-.28,2.308-.833,3.706-.658,1.671-2.332,2.794-4.164,2.794h-6.006c-1.833,0-3.506-1.123-4.165-2.794-.552-1.401-.832-2.647-.832-3.706,0-2.151,1.063-3.745,2.087-5.282,.984-1.476,1.913-2.871,1.913-4.718v-1.5h-.5c-.276,0-.5-.224-.5-.5s.224-.5,.5-.5h.5v-1c0-2.206,1.794-4,4-4s4,1.794,4,4v1h.5c.276,0,.5,.224,.5,.5s-.224,.5-.5,.5h-.5v1.5c0,1.847,.929,3.242,1.913,4.718,1.024,1.537,2.087,3.131,2.087,5.282ZM13,5h6v-1c0-1.654-1.346-3-3-3s-3,1.346-3,3v1Zm-1.573,7h9.146c-.838-1.307-1.573-2.708-1.573-4.5v-1.5h-6v1.5c0,1.792-.735,3.193-1.573,4.5Zm11.573,5.5c0-1.756-.839-3.103-1.768-4.5H10.768c-.928,1.397-1.768,2.744-1.768,4.5,0,.932,.256,2.056,.763,3.339,.509,1.293,1.809,2.161,3.234,2.161h6.006c1.425,0,2.725-.868,3.234-2.161,.506-1.281,.763-2.404,.763-3.339Zm-5,1.5c-.552,0-1,.448-1,1s.448,1,1,1,1-.448,1-1-.448-1-1-1Zm2-3c-.552,0-1,.448-1,1s.448,1,1,1,1-.448,1-1-.448-1-1-1Z"/></svg>
