<?xml version="1.0" encoding="UTF-8"?>
<svg xmlns="http://www.w3.org/2000/svg" id="Layer_1" data-name="Layer 1" viewBox="0 0 24 24" width="512" height="512"><path d="M.5,22c-.23,0-.44-.16-.49-.4-.06-.27,.12-.53,.39-.59,1.47-.3,2.83-1.32,4.02-2.71C1.82,14.87,0,9.88,0,7,0,4.34,2.3,2,4.93,2s5.07,2.38,5.07,5c0,2.97-1.63,7.91-4.28,11.33,1.33,1.59,2.82,2.67,4.28,2.67,1.66,0,3.03-.78,4.11-1.88-1.36-2.02-2.12-4.64-2.12-6.17s1.43-2.95,3.01-2.95,2.99,1.41,2.99,2.95-.89,4.17-2.6,6.23c.85,1.07,1.91,1.82,3.1,1.82,1.63,0,3.45-.43,4.53-3.66,.09-.26,.37-.4,.63-.32,.26,.09,.4,.37,.32,.63-.99,2.96-2.73,4.34-5.47,4.34-1.49,0-2.77-.85-3.79-2.07-1.24,1.22-2.82,2.07-4.71,2.07-1.74,0-3.44-1.17-4.93-2.89-1.3,1.46-2.81,2.54-4.47,2.88-.03,0-.07,.01-.1,.01ZM15,11c-1.03,0-2.01,.95-2.01,1.95,0,1.27,.66,3.57,1.8,5.38,1.45-1.87,2.2-4.23,2.2-5.38,0-1-.97-1.95-1.99-1.95ZM4.93,3c-2.06,0-3.93,1.91-3.93,4,0,2.62,1.72,7.27,4.07,10.49,2.4-3.24,3.93-7.86,3.93-10.49,0-2.06-1.98-4-4.07-4ZM23.5,14c-.22,0-.42-.14-.48-.36-.41-1.46-1.07-2.79-1.91-3.82-.17-.22-.14-.53,.08-.7,.21-.17,.53-.14,.7,.08,.92,1.14,1.64,2.58,2.09,4.18,.08,.27-.08,.54-.34,.62-.05,.01-.09,.02-.14,.02Z"/></svg>
