<?xml version="1.0" encoding="UTF-8"?>
<svg xmlns="http://www.w3.org/2000/svg" id="Layer_1" data-name="Layer 1" width="512" height="512" viewBox="0 0 24 24"><path d="M24,23.5c0,.276-.224,.5-.5,.5h-4.578c-.738,0-1.373-.551-1.477-1.281-.383-2.69-2.724-4.719-5.445-4.719s-5.062,2.028-5.445,4.719c-.104,.73-.738,1.281-1.477,1.281H.5c-.276,0-.5-.224-.5-.5s.224-.5,.5-.5H5.079c.243,0,.452-.182,.486-.422,.096-.674,.295-1.312,.581-1.899l-4.299-2.557c-.237-.141-.315-.448-.174-.686,.141-.237,.449-.314,.685-.174l4.293,2.553c.452-.651,1.02-1.216,1.67-1.664l-2.549-4.4c-.139-.239-.057-.545,.182-.684,.239-.139,.545-.057,.683,.182l2.547,4.398c.713-.346,1.496-.564,2.315-.628v-4.52c0-.276,.224-.5,.5-.5s.5,.224,.5,.5v4.52c.818,.063,1.6,.282,2.312,.627l2.523-4.396c.138-.24,.444-.322,.683-.185,.239,.138,.322,.443,.185,.683l-2.526,4.4c.653,.45,1.223,1.017,1.676,1.671l4.346-2.51c.238-.14,.545-.057,.683,.183,.139,.239,.057,.545-.183,.683l-4.341,2.508c.284,.587,.482,1.223,.578,1.895,.034,.244,.239,.422,.486,.422h4.578c.276,0,.5,.224,.5,.5ZM11.966,.002c.021-.003-.022-.003,0,0h0Zm-3.104,3.845l2.452-2.562c.057-.058,.12-.105,.187-.146v7.362c0,.276,.224,.5,.5,.5s.5-.224,.5-.5V1.137c.064,.038,.124,.085,.179,.14l2.46,2.57c.191,.199,.508,.207,.707,.016s.206-.508,.016-.707L13.394,.577C13.018,.201,12.46,.009,11.966,.002c-.494,.01-.987,.203-1.367,.583l-2.46,2.57c-.191,.199-.184,.516,.016,.707,.199,.19,.516,.184,.707-.016Z"/></svg>
