<?xml version="1.0" encoding="UTF-8"?>
<svg xmlns="http://www.w3.org/2000/svg" id="Layer_1" data-name="Layer 1" viewBox="0 0 24 24" width="512" height="512"><path d="M20.1,5.39l-3.49-3.48c-1.23-1.23-2.86-1.9-4.6-1.9H6.5C4.02,0,2,2.02,2,4.5v15c0,2.48,2.02,4.5,4.5,4.5h11c2.48,0,4.5-2.02,4.5-4.5V9.99c0-1.74-.68-3.37-1.9-4.6Zm-.71,.71c.55,.55,.96,1.2,1.23,1.9h-5.12c-.83,0-1.5-.67-1.5-1.5V1.38c.7,.27,1.35,.68,1.9,1.23l3.49,3.48Zm1.61,13.4c0,1.93-1.57,3.5-3.5,3.5H6.5c-1.93,0-3.5-1.57-3.5-3.5V4.5c0-1.93,1.57-3.5,3.5-3.5h5.51c.33,0,.66,.04,.99,.1V6.5c0,1.38,1.12,2.5,2.5,2.5h5.4c.06,.32,.1,.65,.1,.99v9.51ZM9.5,11c-1.93,0-3.5,1.57-3.5,3.5v3c0,1.93,1.57,3.5,3.5,3.5s3.5-1.57,3.5-3.5v-3c0-1.93-1.57-3.5-3.5-3.5Zm2.5,6.5c0,1.38-1.12,2.5-2.5,2.5s-2.5-1.12-2.5-2.5v-3c0-1.38,1.12-2.5,2.5-2.5s2.5,1.12,2.5,2.5v3Zm6-6v9c0,.28-.22,.5-.5,.5s-.5-.22-.5-.5v-7.79l-1.15,1.15c-.2,.2-.51,.2-.71,0s-.2-.51,0-.71l2-2c.14-.14,.36-.19,.54-.11,.19,.08,.31,.26,.31,.46Z"/></svg>
