<?xml version="1.0" encoding="UTF-8"?>
<svg xmlns="http://www.w3.org/2000/svg" id="Layer_1" data-name="Layer 1" viewBox="0 0 24 24" width="512" height="512"><path d="M24,12c0,3.966-1.957,7.671-5.235,9.913-.086,.059-.185,.087-.282,.087-.159,0-.315-.076-.413-.218-.155-.228-.097-.539,.131-.695,3.006-2.055,4.8-5.452,4.8-9.087,0-6.065-4.935-11-11-11S1,5.935,1,12c0,3.635,1.794,7.032,4.8,9.087,.228,.156,.286,.468,.131,.695-.156,.229-.468,.286-.695,.131C1.957,19.671,0,15.966,0,12,0,5.383,5.383,0,12,0s12,5.383,12,12Zm-5.5-3.5c.143,0,.284-.061,.383-.179,.178-.211,.15-.526-.062-.704-1.468-1.233-2.625-1.956-4.13-2.579-.256-.108-.547,.016-.653,.271-.105,.255,.016,.548,.271,.653,1.402,.58,2.487,1.259,3.87,2.421,.094,.079,.207,.117,.321,.117Zm-9.191-3.462c-1.505,.623-2.662,1.346-4.13,2.579-.212,.178-.239,.493-.062,.704,.099,.118,.24,.179,.383,.179,.114,0,.228-.038,.321-.117,1.383-1.162,2.468-1.841,3.87-2.421,.255-.105,.376-.398,.271-.653-.105-.254-.396-.378-.653-.271Zm8.545,13.83c-.195-.195-.512-.195-.707,0l-3.302,3.302c-1.104,1.104-2.9,1.106-4.007,0-.535-.535-.83-1.247-.83-2.003v-.786l5.707-5.708c.195-.195,.195-.512,0-.707s-.512-.195-.707,0l-5,5.001v-2.467c0-.276-.224-.5-.5-.5s-.5,.224-.5,.5v4.667c0,1.023,.398,1.985,1.123,2.71,.747,.747,1.729,1.121,2.71,1.121s1.964-.374,2.711-1.121l3.302-3.302c.195-.195,.195-.512,0-.707Zm-.881-5.123c-.195-.195-.512-.195-.707,0l-4.244,4.245c-.195,.195-.195,.512,0,.707,.098,.098,.226,.146,.354,.146s.256-.049,.354-.146l4.244-4.245c.195-.195,.195-.512,0-.707Zm-3.125,6.571c.128,0,.256-.049,.354-.146l3.479-3.479c.195-.195,.195-.512,0-.707s-.512-.195-.707,0l-3.479,3.479c-.195,.195-.195,.512,0,.707,.098,.098,.226,.146,.354,.146Zm-5.808-7.888c-.039,.273,.15,.527,.424,.566,.024,.003,.048,.005,.072,.005,.244,0,.458-.18,.494-.429,.21-1.466,1.486-2.571,2.97-2.571,.813,0,1.574,.319,2.143,.9,.193,.198,.512,.2,.707,.008,.197-.193,.201-.51,.008-.707-.758-.774-1.773-1.201-2.857-1.201-1.978,0-3.68,1.475-3.96,3.429Z"/></svg>
