<?xml version="1.0" encoding="UTF-8"?>
<svg xmlns="http://www.w3.org/2000/svg" id="Layer_1" data-name="Layer 1" viewBox="0 0 24 24" width="512" height="512"><path d="M20,8.5v11c0,2.481-2.019,4.5-4.5,4.5H4.5c-2.481,0-4.5-2.019-4.5-4.5V8.5c0-2.481,2.019-4.5,4.5-4.5H15.5c.276,0,.5,.224,.5,.5s-.224,.5-.5,.5H4.5c-1.93,0-3.5,1.57-3.5,3.5v11c0,1.93,1.57,3.5,3.5,3.5H15.5c1.93,0,3.5-1.57,3.5-3.5V8.5c0-.276,.224-.5,.5-.5s.5,.224,.5,.5ZM21.5,0h-7c-.276,0-.5,.224-.5,.5s.224,.5,.5,.5h7c.231,0,.451,.053,.646,.147L8.146,15.146c-.195,.195-.195,.512,0,.707,.098,.098,.226,.146,.354,.146s.256-.049,.354-.146L22.853,1.854c.094,.196,.147,.415,.147,.646v7c0,.276,.224,.5,.5,.5s.5-.224,.5-.5V2.5c0-1.378-1.122-2.5-2.5-2.5Z"/></svg>
