<?xml version="1.0" encoding="UTF-8"?>
<svg xmlns="http://www.w3.org/2000/svg" id="Layer_1" data-name="Layer 1" viewBox="0 0 24 24" width="512" height="512"><path d="M17,19.5c0,.276-.224,.5-.5,.5H7.5c-.276,0-.5-.224-.5-.5s.224-.5,.5-.5h9c.276,0,.5,.224,.5,.5Zm7-10c0,.276-.224,.5-.5,.5h-1.5v9.5c0,2.481-2.019,4.5-4.5,4.5H6.5c-2.481,0-4.5-2.019-4.5-4.5V10H.5c-.276,0-.5-.224-.5-.5s.224-.5,.5-.5h1.55c.199-.978,.971-1.75,1.95-1.95v-3.05C4,1.794,5.794,0,8,0h8c2.206,0,4,1.794,4,4v3.05c.978,.199,1.75,.971,1.95,1.95h1.55c.276,0,.5,.224,.5,.5ZM5,4v3h4.5c.276,0,.5,.224,.5,.5s-.224,.5-.5,.5h-1c-.827,0-1.5,.673-1.5,1.5s.673,1.5,1.5,1.5h7c.827,0,1.5-.673,1.5-1.5s-.673-1.5-1.5-1.5h-1c-.276,0-.5-.224-.5-.5s.224-.5,.5-.5h4.5v-3c0-1.654-1.346-3-3-3H8c-1.654,0-3,1.346-3,3Zm16,5.5c0-.827-.673-1.5-1.5-1.5h-2.005c.315,.418,.505,.937,.505,1.5,0,1.379-1.121,2.5-2.5,2.5h-7c-1.379,0-2.5-1.121-2.5-2.5,0-.563,.189-1.082,.505-1.5h-2.005c-.827,0-1.5,.673-1.5,1.5v10c0,1.93,1.57,3.5,3.5,3.5h11c1.93,0,3.5-1.57,3.5-3.5V9.5Zm-13,6.5c.552,0,1-.448,1-1s-.448-1-1-1-1,.448-1,1,.448,1,1,1Zm4,0c.552,0,1-.448,1-1s-.448-1-1-1-1,.448-1,1,.448,1,1,1Zm4-2c-.552,0-1,.448-1,1s.448,1,1,1,1-.448,1-1-.448-1-1-1Z"/></svg>
