<?xml version="1.0" encoding="UTF-8"?>
<svg xmlns="http://www.w3.org/2000/svg" id="Layer_1" data-name="Layer 1" viewBox="0 0 24 24" width="512" height="512"><path d="m24,23.5c0,.276-.224.5-.5.5h-4c-.276,0-.5-.224-.5-.5s.224-.5.5-.5h1.5v-11H3v11h1.5c.276,0,.5.224.5.5s-.224.5-.5.5H.5c-.276,0-.5-.224-.5-.5s.224-.5.5-.5h1.5V1H.5c-.276,0-.5-.224-.5-.5s.224-.5.5-.5h4c.276,0,.5.224.5.5s-.224.5-.5.5h-1.5v10h18V1h-1.5c-.276,0-.5-.224-.5-.5s.224-.5.5-.5h4c.276,0,.5.224.5.5s-.224.5-.5.5h-1.5v22h1.5c.276,0,.5.224.5.5Z"/></svg>
