<?xml version="1.0" encoding="UTF-8"?>
<svg xmlns="http://www.w3.org/2000/svg" id="Layer_1" data-name="Layer 1" viewBox="0 0 24 24" width="512" height="512"><path d="M21.5,9h-1.65c.1-.48,.15-.99,.15-1.5s-.05-1.02-.15-1.5h1.65c.28,0,.5-.22,.5-.5s-.22-.5-.5-.5h-1.93c-1.03-2.91-3.81-5-7.07-5h-4c-2.48,0-4.5,2.02-4.5,4.5v.5h-1.5c-.28,0-.5,.22-.5,.5s.22,.5,.5,.5h1.5v3h-1.5c-.28,0-.5,.22-.5,.5s.22,.5,.5,.5h1.5v13.5c0,.28,.22,.5,.5,.5s.5-.22,.5-.5V15h7.5c3.26,0,6.04-2.09,7.07-5h1.93c.28,0,.5-.22,.5-.5s-.22-.5-.5-.5ZM5,4.5c0-1.93,1.57-3.5,3.5-3.5h4c2.7,0,5.02,1.65,6,4H5v-.5Zm0,1.5h13.82c.11,.48,.18,.98,.18,1.5s-.06,1.02-.18,1.5H5v-3Zm7.5,8H5v-4h13.5c-.98,2.35-3.3,4-6,4Z"/></svg>
