<?xml version="1.0" encoding="UTF-8"?>
<svg xmlns="http://www.w3.org/2000/svg" id="Layer_1" data-name="Layer 1" viewBox="0 0 24 24" width="512" height="512"><path d="m3,13h18c1.103,0,2-.897,2-2.001-.015-6.168-4.847-10.999-11-10.999C5.935,0,1,4.935,1,11c0,1.103.897,2,2,2ZM12,1c5.594,0,9.987,4.393,10,10,0,.551-.449,1-1,1H3c-.551,0-1-.449-1-1C2,5.486,6.486,1,12,1Zm10.5,14H1.5c-.276,0-.5.224-.5.5s.224.5.5.5h9.332l3.249,3.395c.425.425.982.637,1.54.637s1.116-.212,1.54-.637l3.395-3.395h1.944c.276,0,.5-.224.5-.5s-.224-.5-.5-.5Zm-6.046,3.688c-.459.46-1.207.459-1.658.008l-2.58-2.696h6.925l-2.688,2.688Zm6.546.812c0,2.481-2.019,4.5-4.5,4.5H5.5c-2.481,0-4.5-2.019-4.5-4.5,0-.827.673-1.5,1.5-1.5h8.003c.276,0,.5.225.5.501s-.224.5-.5.5H2.5c-.276,0-.5.223-.5.499,0,1.93,1.57,3.5,3.5,3.5h13c1.93,0,3.5-1.57,3.5-3.5,0-.276-.224-.5-.5-.5h-.996s0,0,0,0c-.276,0-.5-.224-.5-.5,0-.276.223-.5.5-.5h.997c.828,0,1.5.672,1.5,1.499Z"/></svg>
