<?xml version="1.0" encoding="UTF-8"?>
<svg xmlns="http://www.w3.org/2000/svg" id="Layer_1" data-name="Layer 1" viewBox="0 0 24 24" width="512" height="512"><path d="M19.5,0H4.5C2.019,0,0,2.019,0,4.5v15c0,2.481,2.019,4.5,4.5,4.5h15c2.481,0,4.5-2.019,4.5-4.5V4.5c0-2.481-2.019-4.5-4.5-4.5ZM1,4.5c0-1.93,1.57-3.5,3.5-3.5h3.793L1,8.293v-3.793Zm0,5.207L9.707,1h1.293v3.293l-6.707,6.707H1v-1.293ZM11,5.707v5.293H5.707l5.293-5.293Zm12,13.793c0,1.93-1.57,3.5-3.5,3.5h-3.793l7.293-7.293v3.793Zm0-5.207l-8.707,8.707h-1.293v-3.293l6.707-6.707h3.293v1.293Zm-10,4v-5.293h5.293l-5.293,5.293Zm10-6.293H12.5c-.276,0-.5,.224-.5,.5v10.5H4.5c-1.93,0-3.5-1.57-3.5-3.5v-7.5H11.5c.276,0,.5-.224,.5-.5V1h7.5c1.93,0,3.5,1.57,3.5,3.5v7.5Z"/></svg>
