<?xml version="1.0" encoding="UTF-8"?>
<svg xmlns="http://www.w3.org/2000/svg" id="Layer_1" data-name="Layer 1" viewBox="0 0 24 24" width="512" height="512"><path d="M23.412,8.612l-3.183-4.775c-.377-.566-.908-1.007-1.534-1.275L13.379,.283c-.877-.376-1.881-.376-2.757,0L5.304,2.562c-.625,.269-1.156,.709-1.533,1.275L.588,8.612c-.385,.577-.588,1.248-.588,1.941v8.946c0,2.481,2.019,4.5,4.5,4.5h15c2.481,0,4.5-2.019,4.5-4.5V10.554c0-.693-.203-1.365-.588-1.941Zm-12.189,9.428l-5.223,4.387v-7.927c0-.253,.063-.491,.174-.701l5.048,4.241Zm-4.305-4.922c.179-.076,.376-.118,.582-.118h9c.207,0,.403,.042,.583,.118l-5.083,4.269-5.082-4.269Zm-.045,9.882l5.127-4.307,5.127,4.307H6.873Zm11.127-.573l-5.222-4.387,5.048-4.24c.111,.209,.174,.447,.174,.7v7.927Zm5-2.927c0,1.93-1.57,3.5-3.5,3.5h-.5V14.5c0-1.378-1.122-2.5-2.5-2.5H7.5c-1.378,0-2.5,1.122-2.5,2.5v8.5h-.5c-1.93,0-3.5-1.57-3.5-3.5V10.554c0-.495,.145-.975,.42-1.387l3.183-4.775c.27-.404,.648-.719,1.095-.911L11.016,1.202c.312-.134,.648-.201,.984-.201s.672,.067,.985,.201l5.316,2.278c.447,.192,.826,.507,1.096,.911l3.183,4.775c.275,.412,.42,.892,.42,1.387v8.946ZM12,5c-1.103,0-2,.897-2,2s.897,2,2,2,2-.897,2-2-.897-2-2-2Zm0,3c-.551,0-1-.449-1-1s.449-1,1-1,1,.449,1,1-.449,1-1,1Z"/></svg>
