<?xml version="1.0" encoding="UTF-8"?>
<svg xmlns="http://www.w3.org/2000/svg" id="Layer_1" data-name="Layer 1" viewBox="0 0 24 24" width="512" height="512"><path d="M19.5,3H4.5C2.02,3,0,5.02,0,7.5v9c0,2.48,2.02,4.5,4.5,4.5h15c2.48,0,4.5-2.02,4.5-4.5V7.5c0-2.48-2.02-4.5-4.5-4.5Zm-15,1h15c1.39,0,2.6,.82,3.16,2H1.34c.56-1.18,1.77-2,3.16-2Zm18.5,12.5c0,1.93-1.57,3.5-3.5,3.5H4.5c-1.93,0-3.5-1.57-3.5-3.5V7.5c0-.17,.01-.34,.04-.5H22.96c.02,.16,.04,.33,.04,.5v9Zm-5.28-7.5H6.28c-.59,0-1.14,.31-1.44,.82-.38,.66-.84,1.75-.84,3.18s.46,2.52,.84,3.18c.29,.5,.84,.82,1.44,.82h11.44c.59,0,1.14-.31,1.44-.82,.38-.66,.84-1.75,.84-3.18s-.46-2.52-.84-3.18c-.29-.5-.84-.82-1.44-.82Zm-2.72,1v6h-6v-6h6ZM5.71,15.68c-.32-.56-.71-1.47-.71-2.68s.39-2.13,.71-2.68c.12-.2,.33-.32,.57-.32h1.72v6h-1.72c-.24,0-.45-.12-.57-.32Zm12.58,0c-.12,.2-.33,.32-.57,.32h-1.72v-6h1.72c.24,0,.45,.12,.57,.32,.32,.56,.71,1.47,.71,2.68s-.39,2.13-.71,2.68Z"/></svg>
