<?xml version="1.0" encoding="UTF-8"?>
<svg xmlns="http://www.w3.org/2000/svg" id="Layer_1" data-name="Layer 1" viewBox="0 0 24 24" width="512" height="512"><path d="M13.68,22c-.34,0-.69-.07-1.03-.21-1.01-.42-1.65-1.36-1.65-2.45v-2.34H3.47c-1.92,0-3.47-1.57-3.47-3.51v-2.99c0-1.93,1.56-3.51,3.47-3.51h7.53s0-2.33,0-2.33c0-1.1,.64-2.04,1.65-2.45,1.01-.42,2.12-.19,2.9,.58l7.34,6.55c1.48,1.48,1.48,3.85,.02,5.31l-7.37,6.58c-.51,.51-1.17,.78-1.86,.78ZM3.47,7.99c-1.36,0-2.47,1.12-2.47,2.51v2.99c0,1.38,1.11,2.51,2.47,2.51H11.5c.28,0,.5,.22,.5,.5v2.84c0,.82,.54,1.32,1.03,1.53,.5,.2,1.23,.22,1.81-.36,0,0,.01-.01,.02-.02l7.36-6.57c1.05-1.05,1.05-2.79-.02-3.86L14.86,3.51c-.6-.6-1.33-.59-1.83-.38-.5,.2-1.03,.71-1.03,1.53v2.84c0,.13-.05,.26-.15,.35s-.22,.15-.35,.15H3.47Z"/></svg>
