<?xml version="1.0" encoding="UTF-8"?>
<svg xmlns="http://www.w3.org/2000/svg" id="Layer_1" data-name="Layer 1" viewBox="0 0 24 24" width="512" height="512"><path d="M11.5,24c-3.58,0-6.5-2.92-6.5-6.5V4.5C5,2.02,7.02,0,9.5,0s4.5,2.02,4.5,4.5v13c0,1.38-1.12,2.5-2.5,2.5s-2.5-1.12-2.5-2.5V5.5c0-.28,.22-.5,.5-.5s.5,.22,.5,.5v12c0,.83,.67,1.5,1.5,1.5s1.5-.67,1.5-1.5V4.5c0-1.93-1.57-3.5-3.5-3.5s-3.5,1.57-3.5,3.5v13c0,3.03,2.47,5.5,5.5,5.5s5.5-2.47,5.5-5.5V3.5c0-.28,.22-.5,.5-.5s.5,.22,.5,.5v14c0,3.58-2.92,6.5-6.5,6.5Z"/></svg>
