<?xml version="1.0" encoding="UTF-8"?>
<svg xmlns="http://www.w3.org/2000/svg" id="Layer_1" data-name="Layer 1" width="512" height="512" viewBox="0 0 24 24"><path d="M23.854,21.146c-1.195-1.195-1.854-2.785-1.854-4.475V7.5c0-.276-.224-.5-.5-.5s-.5,.224-.5,.5v4.5h-4v-.5c0-1.378-1.126-2.5-2.51-2.5h-.671l-2.464-5.511c-.679-1.518-2.192-2.499-3.855-2.499-1.378,0-2.5,1.122-2.5,2.501l.004,2.509h-.5c-.936,0-1.816,.365-2.477,1.027s-1.024,1.542-1.023,2.477l-.004,5.854c-.622,.705-1,1.631-1,2.643,0,2.206,1.794,4,4,4H14c2.206,0,4-1.794,4-4,0-1.012-.378-1.937-1-2.643v-2.357h4v3.671c0,1.958,.762,3.798,2.146,5.182,.098,.098,.226,.146,.354,.146s.256-.049,.354-.146c.195-.195,.195-.512,0-.707ZM7.5,1.99c1.269,0,2.424,.749,2.942,1.907l2.281,5.103H7.506c-.826,0-1.499-.672-1.5-1.498l-.006-4.012c0-.827,.673-1.5,1.5-1.5ZM2.734,7.733c.473-.473,1.101-.733,1.77-.733h.502v.504c.003,1.376,1.125,2.496,2.501,2.496h6.984c.833,0,1.51,.673,1.51,1.5v3.037c-.589-.341-1.272-.537-2-.537H4c-.728,0-1.411,.195-1.999,.537l.003-5.034c0-.668,.258-1.296,.73-1.77Zm11.266,13.267H4c-1.654,0-3-1.346-3-3s1.346-3,3-3H14c1.654,0,3,1.346,3,3s-1.346,3-3,3Zm-8-3c0,.552-.448,1-1,1s-1-.448-1-1,.448-1,1-1,1,.448,1,1Zm8,0c0,.552-.448,1-1,1s-1-.448-1-1,.448-1,1-1,1,.448,1,1Zm-4,0c0,.552-.448,1-1,1s-1-.448-1-1,.448-1,1-1,1,.448,1,1Z"/></svg>
