<?xml version="1.0" encoding="UTF-8"?>
<svg xmlns="http://www.w3.org/2000/svg" id="Layer_1" data-name="Layer 1" viewBox="0 0 24 24" width="512" height="512"><path d="m6.5,5c1.378,0,2.5-1.121,2.5-2.5S7.878,0,6.5,0s-2.5,1.121-2.5,2.5,1.122,2.5,2.5,2.5Zm0-4c.827,0,1.5.673,1.5,1.5s-.673,1.5-1.5,1.5-1.5-.673-1.5-1.5.673-1.5,1.5-1.5Zm14.5,22.5c0,.276-.224.5-.5.5h-1.246c-.667,0-1.259-.447-1.442-1.089l-1.378-4.823c-.183-.641-.776-1.088-1.442-1.088h-6.491c-1.378,0-2.5-1.121-2.5-2.5v-7c0-.276.224-.5.5-.5s.5.224.5.5v3.5h7.5c.276,0,.5.224.5.5s-.224.5-.5.5h-7.5v2.5c0,.827.673,1.5,1.5,1.5h6.491c1.11,0,2.099.745,2.404,1.812l1.379,4.824c.061.214.258.363.48.363h1.246c.276,0,.5.224.5.5Zm-6-4c0,.276-.224.5-.5.5h-6c-3.033,0-5.5-2.468-5.5-5.5v-7c0-.276.224-.5.5-.5s.5.224.5.5v7c0,2.481,2.019,4.5,4.5,4.5h6c.276,0,.5.224.5.5Z"/></svg>
