<?xml version="1.0" encoding="UTF-8"?>
<svg xmlns="http://www.w3.org/2000/svg" id="Layer_1" data-name="Layer 1" viewBox="0 0 24 24" width="512" height="512"><path d="M12,0C5.383,0,0,5.383,0,12s5.383,12,12,12,12-5.383,12-12S18.617,0,12,0Zm0,23c-6.065,0-11-4.935-11-11S5.935,1,12,1s11,4.935,11,11-4.935,11-11,11Zm5.925-8.237c-.057,.091-1.42,2.237-4.425,2.237h-5c-.276,0-.5-.224-.5-.5s.224-.5,.5-.5h5c2.432,0,3.531-1.693,3.576-1.765,.146-.233,.455-.304,.688-.158s.305,.452,.161,.686Zm.075-4.763c0,.552-.448,1-1,1s-1-.448-1-1h-2.5c-.276,0-.5-.224-.5-.5s.224-.5,.5-.5h3.5c.552,0,1,.448,1,1Zm-10,0h-2.5c-.276,0-.5-.224-.5-.5s.224-.5,.5-.5h3.5c.552,0,1,.448,1,1s-.448,1-1,1-1-.448-1-1Z"/></svg>
