<?xml version="1.0" encoding="UTF-8"?>
<svg xmlns="http://www.w3.org/2000/svg" id="Layer_1" data-name="Layer 1" viewBox="0 0 24 24" width="512" height="512"><path d="M12,0C5.383,0,0,5.383,0,12s5.383,12,12,12,12-5.383,12-12S18.617,0,12,0Zm0,23c-6.065,0-11-4.935-11-11S5.935,1,12,1s11,4.935,11,11-4.935,11-11,11Zm5-7.5c0,.276-.224,.5-.5,.5h-4c-2.53,0-4.646,1.854-4.667,1.873-.096,.085-.215,.127-.333,.127-.138,0-.274-.057-.373-.168-.184-.206-.166-.521,.04-.705,.097-.087,2.414-2.127,5.333-2.127h4c.276,0,.5,.224,.5,.5Zm0-5.5c0,.552-.448,1-1,1s-1-.448-1-1,.448-1,1-1,1,.448,1,1Zm-10,0c0-.552,.448-1,1-1s1,.448,1,1-.448,1-1,1-1-.448-1-1Z"/></svg>
