<?xml version="1.0" encoding="UTF-8"?>
<svg xmlns="http://www.w3.org/2000/svg" id="Layer_1" data-name="Layer 1" viewBox="0 0 24 24" width="512" height="512"><path d="m18.5,18h-3c-.827,0-1.5.673-1.5,1.5v3c0,.827.673,1.5,1.5,1.5h2c1.379,0,2.5-1.122,2.5-2.5v-2c0-.827-.673-1.5-1.5-1.5Zm.5,3.5c0,.827-.673,1.5-1.5,1.5h-2c-.275,0-.5-.224-.5-.5v-3c0-.276.225-.5.5-.5h3c.275,0,.5.224.5.5v2ZM17.5,0h-2c-.827,0-1.5.673-1.5,1.5v3c0,.827.673,1.5,1.5,1.5h3c.827,0,1.5-.673,1.5-1.5v-2c0-1.378-1.121-2.5-2.5-2.5Zm1.5,4.5c0,.276-.225.5-.5.5h-3c-.275,0-.5-.224-.5-.5V1.5c0-.276.225-.5.5-.5h2c.827,0,1.5.673,1.5,1.5v2Zm-10.5,13.5h-3c-.827,0-1.5.673-1.5,1.5v2c0,1.378,1.121,2.5,2.5,2.5h2c.827,0,1.5-.673,1.5-1.5v-3c0-.827-.673-1.5-1.5-1.5Zm.5,4.5c0,.276-.225.5-.5.5h-2c-.827,0-1.5-.673-1.5-1.5v-2c0-.276.225-.5.5-.5h3c.275,0,.5.224.5.5v3Zm-.5-13.5h-3c-.827,0-1.5.673-1.5,1.5v3c0,.827.673,1.5,1.5,1.5h3c.827,0,1.5-.673,1.5-1.5v-3c0-.827-.673-1.5-1.5-1.5Zm.5,4.5c0,.276-.225.5-.5.5h-3c-.275,0-.5-.224-.5-.5v-3c0-.276.225-.5.5-.5h3c.275,0,.5.224.5.5v3Zm9.5-4.5h-3c-.827,0-1.5.673-1.5,1.5v3c0,.827.673,1.5,1.5,1.5h3c.827,0,1.5-.673,1.5-1.5v-3c0-.827-.673-1.5-1.5-1.5Zm.5,4.5c0,.276-.225.5-.5.5h-3c-.275,0-.5-.224-.5-.5v-3c0-.276.225-.5.5-.5h3c.275,0,.5.224.5.5v3ZM8.5,0h-2c-1.379,0-2.5,1.122-2.5,2.5v2c0,.827.673,1.5,1.5,1.5h3c.827,0,1.5-.673,1.5-1.5V1.5c0-.827-.673-1.5-1.5-1.5Zm.5,4.5c0,.276-.225.5-.5.5h-3c-.275,0-.5-.224-.5-.5v-2c0-.827.673-1.5,1.5-1.5h2c.275,0,.5.224.5.5v3Z"/></svg>
