<?xml version="1.0" encoding="UTF-8"?>
<svg xmlns="http://www.w3.org/2000/svg" id="Layer_1" data-name="Layer 1" viewBox="0 0 24 24" width="512" height="512"><path d="M23.5,14h-1.75L23.99,.58c.05-.27-.14-.53-.41-.58-.27-.05-.53,.14-.58,.41l-2.27,13.59h-7.16l-1.09-4.62c-.11-.45-.87-.45-.97,0l-1.09,4.62H3.26L.99,.42C.95,.14,.68-.04,.42,0,.15,.05-.04,.31,0,.58L2.25,14H.5c-.28,0-.5,.22-.5,.5s.22,.5,.5,.5h1.91l1.06,6.35c.24,1.46,1.4,2.52,2.87,2.63,1.22,.09,2.71-.53,3.26-2.2l1.61-6.79h1.58l1.62,6.83c.5,1.51,1.83,2.16,3,2.16,.08,0,.17,0,.25,0,1.48-.12,2.63-1.17,2.87-2.63l1.06-6.35h1.91c.28,0,.5-.22,.5-.5s-.22-.5-.5-.5Zm-14.86,7.51c-.39,1.18-1.45,1.54-2.22,1.47-.78-.06-1.76-.57-1.96-1.8l-1.03-6.19h6.76l-1.54,6.51Zm2.8-7.51l.55-2.33,.55,2.33h-1.1Zm8.09,7.19c-.21,1.23-1.19,1.74-1.96,1.8-.77,.07-1.83-.29-2.21-1.43l-1.55-6.56h6.76l-1.03,6.19Z"/></svg>
