<?xml version="1.0" encoding="UTF-8"?>
<svg xmlns="http://www.w3.org/2000/svg" id="Layer_1" data-name="Layer 1" viewBox="0 0 24 24" width="512" height="512"><path d="M20.5,15H12.5c-1.93,0-3.5,1.57-3.5,3.5s1.57,3.5,3.5,3.5h8c1.93,0,3.5-1.57,3.5-3.5s-1.57-3.5-3.5-3.5Zm-10.5,3.5c0-1.379,1.122-2.5,2.5-2.5h1.5v5h-1.5c-1.378,0-2.5-1.121-2.5-2.5Zm10.5,2.5h-5.5v-5h5.5c1.379,0,2.5,1.121,2.5,2.5s-1.121,2.5-2.5,2.5ZM12.5,9h8c1.93,0,3.5-1.57,3.5-3.5s-1.57-3.5-3.5-3.5H12.5c-1.93,0-3.5,1.57-3.5,3.5s1.57,3.5,3.5,3.5Zm10.5-3.5c0,1.379-1.121,2.5-2.5,2.5h-1.5V3h1.5c1.379,0,2.5,1.121,2.5,2.5ZM12.5,3h5.5v5h-5.5c-1.378,0-2.5-1.121-2.5-2.5s1.122-2.5,2.5-2.5ZM4,6c1.654,0,3-1.346,3-3S5.654,0,4,0,1,1.346,1,3s1.346,3,3,3Zm0-5c1.103,0,2,.897,2,2s-.897,2-2,2-2-.897-2-2,.897-2,2-2Zm3.993,9.418c.045,.271-.138,.528-.41,.574-.265,.051-.529-.137-.577-.408-.018-.105-.478-2.584-3.007-2.584-2.547,0-2.989,2.477-3.007,2.582-.041,.245-.252,.418-.493,.418-.027,0-.055-.002-.083-.007-.272-.045-.457-.303-.411-.575,.197-1.183,1.285-3.418,3.993-3.418s3.796,2.235,3.993,3.418Zm-3.993,8.582c1.654,0,3-1.346,3-3s-1.346-3-3-3-3,1.346-3,3,1.346,3,3,3Zm0-5c1.103,0,2,.897,2,2s-.897,2-2,2-2-.897-2-2,.897-2,2-2Zm3.993,9.418c.045,.271-.138,.528-.41,.574-.265,.049-.529-.137-.577-.408-.018-.105-.478-2.584-3.007-2.584-2.547,0-2.989,2.477-3.007,2.582-.041,.245-.252,.418-.493,.418-.027,0-.055-.002-.083-.007-.272-.045-.457-.303-.411-.575,.197-1.183,1.285-3.418,3.993-3.418s3.796,2.235,3.993,3.418Z"/></svg>
