<?xml version="1.0" encoding="UTF-8"?>
<svg xmlns="http://www.w3.org/2000/svg" id="Layer_1" data-name="Layer 1" viewBox="0 0 24 24" width="512" height="512"><path d="M20.5,11h-2.5v-3.5c0-1.93-1.57-3.5-3.5-3.5h-1.5c0-2.206-1.794-4-4-4S5,1.794,5,4h-1.5c-1.93,0-3.5,1.57-3.5,3.5v6c0,2.481,2.019,4.5,4.5,4.5h2.5v1.5c0,2.481,2.019,4.5,4.5,4.5h8c2.481,0,4.5-2.019,4.5-4.5v-5c0-1.93-1.57-3.5-3.5-3.5ZM9,1c1.654,0,3,1.346,3,3H6c0-1.654,1.346-3,3-3ZM4.5,17c-1.93,0-3.5-1.57-3.5-3.5V7.5c0-1.379,1.122-2.5,2.5-2.5h1.5v2.5c0,.276,.224,.5,.5,.5s.5-.224,.5-.5v-2.5h6v2.5c0,.276,.224,.5,.5,.5s.5-.224,.5-.5v-2.5h1.5c1.378,0,2.5,1.121,2.5,2.5v3.5h-6.5c-1.93,0-3.5,1.57-3.5,3.5v2.5h-2.5Zm18.5,2.5c0,1.93-1.57,3.5-3.5,3.5H11.5c-1.93,0-3.5-1.57-3.5-3.5v-5c0-1.379,1.122-2.5,2.5-2.5h10c1.378,0,2.5,1.121,2.5,2.5v5Zm-4-5v2c0,1.93-1.57,3.5-3.5,3.5s-3.5-1.57-3.5-3.5v-2c0-.276,.224-.5,.5-.5s.5,.224,.5,.5v2c0,1.379,1.122,2.5,2.5,2.5s2.5-1.121,2.5-2.5v-2c0-.276,.224-.5,.5-.5s.5,.224,.5,.5Z"/></svg>
