<?xml version="1.0" encoding="UTF-8"?>
<svg xmlns="http://www.w3.org/2000/svg" id="Layer_1" data-name="Layer 1" width="512" height="512" viewBox="0 0 24 24"><path d="M10.606,12.424c.38,.381,.894,.572,1.394,.576,.5-.004,1.015-.197,1.396-.579l3.487-3.543c.194-.196,.191-.514-.006-.707-.197-.194-.514-.191-.707,.006l-3.484,3.54c-.057,.058-.12,.105-.187,.146V.5c0-.276-.224-.5-.5-.5s-.5,.224-.5,.5V11.863c-.065-.039-.127-.087-.184-.144l-3.487-3.543c-.195-.197-.511-.2-.707-.006-.197,.193-.2,.511-.006,.707l3.49,3.546Zm10.803,11.576c-1.24,0-2.434-.594-3.136-1.494-.703,.9-1.897,1.494-3.136,1.494s-2.434-.594-3.137-1.494c-.702,.9-1.896,1.494-3.136,1.494s-2.434-.594-3.136-1.494c-.703,.9-1.897,1.494-3.136,1.494-.893,0-1.751-.315-2.417-.887-.209-.18-.233-.496-.054-.705,.181-.209,.497-.232,.705-.054,.485,.417,1.112,.646,1.766,.646,1.168,0,2.315-.719,2.667-1.673,.146-.393,.793-.393,.938,0,.352,.954,1.499,1.673,2.667,1.673s2.315-.719,2.667-1.673c.146-.393,.793-.393,.938,0,.352,.954,1.499,1.673,2.667,1.673s2.315-.719,2.667-1.673c.073-.196,.26-.327,.469-.327h0c.209,0,.396,.13,.469,.327,.352,.954,1.499,1.673,2.667,1.673,.654,0,1.281-.229,1.765-.646,.21-.18,.526-.156,.705,.053,.18,.209,.156,.525-.053,.705-.666,.573-1.524,.888-2.417,.888Zm2.417-6.888c.209-.18,.233-.496,.053-.705-.179-.208-.495-.233-.705-.053-.484,.416-1.111,.646-1.765,.646-1.168,0-2.315-.719-2.667-1.673-.073-.196-.26-.327-.469-.327h0c-.209,0-.396,.13-.469,.327-.352,.954-1.499,1.673-2.667,1.673s-2.315-.719-2.667-1.673c-.146-.393-.793-.393-.938,0-.352,.954-1.499,1.673-2.667,1.673s-2.315-.719-2.667-1.673c-.146-.393-.793-.393-.938,0-.352,.954-1.499,1.673-2.667,1.673-.654,0-1.281-.229-1.766-.646-.208-.179-.524-.156-.705,.054-.18,.209-.156,.525,.054,.705,.666,.572,1.524,.887,2.417,.887,1.239,0,2.434-.594,3.136-1.494,.703,.9,1.897,1.494,3.136,1.494s2.434-.594,3.136-1.494c.703,.9,1.897,1.494,3.137,1.494s2.434-.594,3.136-1.494c.702,.9,1.896,1.494,3.136,1.494,.893,0,1.751-.315,2.417-.888Z"/></svg>
