<?xml version="1.0" encoding="UTF-8"?>
<svg xmlns="http://www.w3.org/2000/svg" id="Layer_1" data-name="Layer 1" viewBox="0 0 24 24" width="512" height="512"><path d="M23.021,1.516c-.614-.474-1.396-.63-2.141-.433-.264,.07-.573,.165-.908,.267-.944,.29-2.118,.649-2.973,.649-1.43,0-3.175-.499-4.862-.981-1.754-.501-3.567-1.019-5.138-1.019C5.031,0,2.896,.795,1.451,1.461c-.882,.406-1.451,1.297-1.451,2.27v5.747c0,.014,0,.028,0,.042v13.98c0,.276,.224,.5,.5,.5s.5-.224,.5-.5v-6.26c.784-.513,3.599-2.24,6.002-2.24,1.43,0,3.175,.499,4.861,.981,1.754,.501,3.466,1.012,5.551,1.012s3.866-.529,4.961-1.102c1.017-.533,1.624-1.431,1.624-2.403V3.504c0-.785-.356-1.51-.979-1.988Zm-2.756,.791c.322-.099,.618-.189,.871-.256,.446-.118,.909-.023,1.275,.258,.373,.288,.588,.723,.588,1.195V7.791c-.789,.278-2.92,.974-5.002,1.162V2.902c.765-.134,1.574-.382,2.268-.595Zm-3.268,.693v6c-1.402,0-3.224-.478-4.998-.951V2.02c1.71,.488,3.469,.979,4.998,.98Zm-5.998-1.263V7.784c-1.59-.416-3.177-.784-4.499-.784-.167,0-.334,.006-.501,.017V1.072c.337-.046,.672-.072,1-.072,1.187,0,2.592,.344,4,.737ZM1.87,2.37c.723-.334,1.886-.815,3.13-1.109V7.142c-1.649,.299-3.137,1.005-4,1.479V3.731c0-.584,.341-1.119,.87-1.362Zm-.87,7.407c.575-.347,2.19-1.247,4-1.616v6.125c-1.614,.427-3.122,1.239-4,1.771v-6.28Zm5,4.301v-6.058c.167-.013,.334-.02,.501-.02,1.271,0,2.887,.392,4.499,.818v5.881c-1.385-.379-2.766-.698-3.998-.698-.331,0-.667,.028-1.002,.078Zm6,.901v-5.896c1.754,.466,3.538,.916,4.998,.916v6c-1.429,0-3.174-.499-4.859-.981l-.139-.04Zm9.911,.025c-.88,.461-2.439,.83-3.913,.952v-6c1.991-.165,3.988-.764,5.002-1.107v4.637c0,.593-.407,1.16-1.089,1.517Z"/></svg>
