<?xml version="1.0" encoding="UTF-8"?>
<svg xmlns="http://www.w3.org/2000/svg" id="Layer_1" data-name="Layer 1" viewBox="0 0 24 24" width="512" height="512"><path d="m12,5c1.379,0,2.5-1.121,2.5-2.5s-1.121-2.5-2.5-2.5-2.5,1.121-2.5,2.5,1.121,2.5,2.5,2.5Zm0-4c.827,0,1.5.673,1.5,1.5s-.673,1.5-1.5,1.5-1.5-.673-1.5-1.5.673-1.5,1.5-1.5Zm-6,4c0-.229-.156-.43-.379-.485l-1.709-.427-.427-1.709c-.111-.445-.859-.445-.971,0l-.425,1.702-1.702.394c-.224.052-.384.249-.388.479s.148.432.37.491l1.716.462.429,1.715c.056.223.256.379.485.379s.43-.156.485-.379l.427-1.709,1.709-.427c.223-.056.379-.256.379-.485Zm9.289,3.466l3.804,5.325c.098.137.252.209.407.209.101,0,.202-.03.291-.093.225-.161.276-.473.116-.698l-3.804-5.325c-.844-1.18-2.213-1.884-3.662-1.884h-.883c-1.449,0-2.818.704-3.662,1.884l-3.804,5.325c-.16.226-.108.537.116.698.226.159.538.107.698-.116l3.804-5.325c.089-.125.186-.242.289-.353v14.887h-4.5c-.276,0-.5.224-.5.5s.224.5.5.5h15c.276,0,.5-.224.5-.5s-.224-.5-.5-.5h-4.5v-14.887c.103.111.2.228.289.353Zm-1.289,14.534h-4v-7h4v7Zm-4-8v-7.632c.478-.238,1.011-.368,1.559-.368h.883c.548,0,1.08.13,1.559.368v7.632h-4ZM23.686,3.536l-2.301-.921-.921-2.301c-.15-.381-.777-.381-.928,0l-.919,2.296-2.294.868c-.191.072-.319.254-.323.459-.004.204.117.39.306.47l2.308.973.923,2.306c.075.19.26.314.464.314s.389-.124.464-.314l.921-2.301,2.301-.921c.19-.075.314-.26.314-.464s-.124-.389-.314-.464Zm-2.871,1c-.127.051-.228.151-.278.278l-.536,1.339-.536-1.339c-.049-.124-.146-.224-.27-.275l-1.348-.567,1.33-.504c.131-.05.235-.152.287-.282l.536-1.339.536,1.339c.051.127.151.228.278.278l1.339.536-1.339.536Z"/></svg>
