<?xml version="1.0" encoding="UTF-8"?>
<svg xmlns="http://www.w3.org/2000/svg" id="Layer_1" data-name="Layer 1" viewBox="0 0 24 24" width="512" height="512"><path d="m12,4c-3.859,0-7,3.14-7,7v2c0,3.859,3.141,7,7,7,1.75,0,3.353-.646,4.581-1.712l1.565,1.565c.098.098.226.146.354.146s.256-.049.354-.146c.195-.195.195-.512,0-.707l-1.565-1.565c1.066-1.229,1.712-2.831,1.712-4.581v-2c0-3.86-3.141-7-7-7Zm6,9c0,1.475-.535,2.827-1.421,3.872l-2.726-2.726c-.195-.195-.512-.195-.707,0s-.195.512,0,.707l2.726,2.726c-1.046.886-2.398,1.421-3.872,1.421-3.309,0-6-2.691-6-6v-2c0-3.309,2.691-6,6-6s6,2.691,6,6v2Zm1.5-13H4.5C2.019,0,0,2.019,0,4.5v15c0,2.481,2.019,4.5,4.5,4.5h15c2.481,0,4.5-2.019,4.5-4.5V4.5c0-2.481-2.019-4.5-4.5-4.5Zm3.5,19.5c0,1.93-1.57,3.5-3.5,3.5H4.5c-1.93,0-3.5-1.57-3.5-3.5V4.5c0-1.93,1.57-3.5,3.5-3.5h15c1.93,0,3.5,1.57,3.5,3.5v15Z"/></svg>
