<?xml version="1.0" encoding="UTF-8"?>
<svg xmlns="http://www.w3.org/2000/svg" id="Layer_1" data-name="Layer 1" viewBox="0 0 24 24" width="512" height="512"><path d="M23.854,.146c-.195-.195-.512-.195-.707,0l-5.051,5.051-2.817-2.817c-.378-.378-.922-.485-1.416-.281-.495,.203-.816,.679-.82,1.211l-.042,6.382c-.002,.351,.133,.68,.379,.927,.245,.245,.571,.379,.918,.379h.009l6.383-.042c.533-.003,1.009-.325,1.212-.819,.204-.497,.096-1.04-.281-1.417l-2.817-2.817L23.854,.854c.195-.195,.195-.512,0-.707Zm-2.878,9.612c-.02,.046-.097,.198-.293,.199l-6.383,.042h-.002c-.081,0-.155-.031-.211-.086-.057-.056-.088-.132-.087-.213l.042-6.382c0-.196,.153-.274,.199-.293,.026-.011,.072-.025,.125-.025,.062,0,.137,.02,.205,.088l6.341,6.341c.127,.127,.086,.273,.063,.33Zm-11.281,3.241l-6.383,.042c-.533,.003-1.009,.325-1.212,.819-.204,.497-.096,1.04,.281,1.417l2.817,2.817L.146,23.146c-.195,.195-.195,.512,0,.707,.098,.098,.226,.146,.354,.146s.256-.049,.354-.146l5.051-5.051,2.817,2.817c.251,.251,.575,.382,.91,.382,.169,0,.34-.033,.506-.102,.495-.203,.816-.679,.82-1.211l.042-6.382c.002-.351-.133-.68-.379-.927-.247-.247-.605-.406-.927-.379Zm.264,7.682c0,.196-.153,.274-.199,.293-.058,.023-.204,.063-.33-.062L3.088,14.571c-.127-.127-.086-.273-.063-.33,.02-.046,.097-.198,.293-.199l6.383-.042h.002c.081,0,.155,.031,.211,.086,.057,.056,.088,.132,.087,.213l-.042,6.382Z"/></svg>
