<?xml version="1.0" encoding="UTF-8"?>
<svg xmlns="http://www.w3.org/2000/svg" id="Layer_1" data-name="Layer 1" viewBox="0 0 24 24" width="512" height="512"><path d="m19.006,9.401l-3.996-2.664V1.506C15.01.679,14.337.006,13.51.006h-3c-.827,0-1.5.673-1.5,1.5v5.231l-3.996,2.664c-1.255.837-2.004,2.237-2.004,3.745v6.36c0,2.481,2.019,4.5,4.5,4.5h9c2.481,0,4.5-2.019,4.5-4.5v-6.36c0-1.508-.749-2.908-2.004-3.745ZM10.51,1.006h3c.275,0,.5.224.5.5v1.499h-4v-1.499c0-.276.225-.5.5-.5Zm9.5,18.5c0,1.93-1.57,3.5-3.5,3.5H7.51c-1.93,0-3.5-1.57-3.5-3.5v-4.5h13.5c.276,0,.5-.225.5-.501s-.224-.5-.5-.5H4.01s0-.859,0-.859c0-1.172.583-2.261,1.559-2.913l4.219-2.812c.139-.093.223-.249.223-.416v-3h4v3c0,.167.084.323.223.416l4.219,2.812c.976.651,1.559,1.739,1.559,2.913v6.36Z"/></svg>
