<?xml version="1.0" encoding="UTF-8"?>
<svg xmlns="http://www.w3.org/2000/svg" id="Layer_1" data-name="Layer 1" viewBox="0 0 24 24" width="512" height="512"><path d="m12,0C5.383,0,0,5.383,0,12s5.383,12,12,12,12-5.383,12-12S18.617,0,12,0Zm0,23c-6.065,0-11-4.935-11-11S5.935,1,12,1s11,4.935,11,11-4.935,11-11,11Zm3.096-11.928c.559-.565.904-1.341.904-2.197,0-1.723-1.402-3.125-3.125-3.125h-2.875c-1.654,0-3,1.346-3,3v6.5c0,1.654,1.346,3,3,3h4.375c1.999,0,3.625-1.626,3.625-3.625,0-1.752-1.25-3.218-2.904-3.553Zm-7.096-2.322c0-1.103.897-2,2-2h2.875c1.172,0,2.125.953,2.125,2.125s-.953,2.125-2.125,2.125h-4.875v-2.25Zm6.375,8.5h-4.375c-1.103,0-2-.897-2-2v-3.25h6.375c1.447,0,2.625,1.178,2.625,2.625s-1.178,2.625-2.625,2.625Z"/></svg>
