<?xml version="1.0" encoding="UTF-8"?>
<svg xmlns="http://www.w3.org/2000/svg" id="Layer_1" data-name="Layer 1" width="512" height="512" viewBox="0 0 24 24"><path d="M16.5,11c-1.055,0-2.5,0-2.5-1.5,0-1.378,1.121-2.5,2.5-2.5s2.5,1.122,2.5,2.5c0,1.5-1.445,1.5-2.5,1.5Zm0-3c-.827,0-1.5,.673-1.5,1.5,0,.399,.147,.5,1.5,.5s1.5-.101,1.5-.5c0-.827-.673-1.5-1.5-1.5Zm-6.5,1.5c0-.276-.224-.5-.5-.5H5.5c-.276,0-.5,.224-.5,.5s.224,.5,.5,.5h4c.276,0,.5-.224,.5-.5Zm2.006,10.5c-3.173,0-5.441-2.558-5.964-4.964-.115-.526,.004-1.058,.327-1.458,.3-.373,.733-.578,1.219-.578h8.823c.484,0,.917,.205,1.218,.577,.322,.396,.442,.925,.332,1.448-.51,2.411-2.77,4.975-5.954,4.975Zm-4.419-6c-.227,0-.364,.112-.44,.206-.129,.16-.177,.392-.128,.617,.44,2.024,2.338,4.177,4.987,4.177s4.546-2.154,4.975-4.182c.048-.224,0-.452-.13-.612-.076-.094-.215-.205-.441-.205H7.587Zm4.413,9.999C5.383,24,0,18.617,0,12S5.383,0,12,0s12,5.383,12,12-5.383,12-12,12ZM12,1C5.935,1,1,5.935,1,12s4.935,11,11,11,11-4.935,11-11S18.065,1,12,1Z"/></svg>
