<?xml version="1.0" encoding="UTF-8"?>
<svg xmlns="http://www.w3.org/2000/svg" id="Layer_1" data-name="Layer 1" viewBox="0 0 24 24" width="512" height="512"><path d="M8.5,12H3V5.965c0-.329,.036-.652,.104-.965h6.896v4.5c0,.276,.224,.5,.5,.5s.5-.224,.5-.5V5h6.896c.039,.179,.068,.361,.085,.546,.025,.276,.274,.469,.544,.452,.275-.025,.478-.269,.452-.544-.208-2.257-1.797-4.177-3.954-4.775-1.619-.45-3.142-.679-4.522-.679s-2.903,.229-4.522,.679c-2.342,.65-3.978,2.824-3.978,5.286v2.035c-1.103,0-2,.897-2,2v1c0,1.103,.897,2,2,2v3.5c0,1.208,.86,2.218,2,2.45v1.05c0,1.103,.897,2,2,2,.847,0,1.604-.536,1.887-1.333,.092-.261-.045-.547-.305-.639-.261-.09-.545,.045-.639,.305-.141,.399-.52,.667-.943,.667-.552,0-1-.448-1-1v-1h1.5c.276,0,.5-.224,.5-.5s-.224-.5-.5-.5h-2c-.827,0-1.5-.673-1.5-1.5v-3.5h5.5c.276,0,.5-.224,.5-.5s-.224-.5-.5-.5ZM6.245,1.642c1.532-.426,2.964-.642,4.255-.642s2.723,.216,4.255,.642c1.238,.344,2.247,1.224,2.795,2.358H3.449c.545-1.131,1.548-2.011,2.796-2.358ZM2,12c-.552,0-1-.448-1-1v-1c0-.552,.448-1,1-1v3Zm21.33,3.538l-.911-2.552c-.455-1.275-1.454-2.251-2.678-2.706l-.191-.765c-.223-.893-1.021-1.516-1.94-1.516h-2.219c-.92,0-1.718,.623-1.94,1.516l-.191,.765c-1.224,.454-2.223,1.43-2.678,2.706l-.911,2.552c-.444,1.244-.67,2.545-.67,3.962,0,1.208,.86,2.218,2,2.45v.55c0,.827,.673,1.5,1.5,1.5s1.5-.673,1.5-1.5v-.5h5v.5c0,.827,.673,1.5,1.5,1.5s1.5-.673,1.5-1.5v-.55c1.14-.234,2-1.254,2-2.544,0-1.322-.226-2.623-.67-3.867Zm-8.909-5.78c.111-.446,.51-.758,.97-.758h2.219c.46,0,.858,.312,.97,.758l.067,.267c-.154-.016-.309-.025-.465-.025h-3.361c-.157,0-.312,.009-.465,.025l.067-.267Zm-2.898,3.564c.496-1.389,1.821-2.322,3.297-2.322h3.361c1.476,0,2.801,.934,3.297,2.322,0,0,.94,2.636,.955,2.678H10.568c.014-.042,.955-2.678,.955-2.678Zm1.478,9.178c0,.275-.225,.5-.5,.5s-.5-.225-.5-.5v-.5h1v.5Zm8,0c0,.275-.225,.5-.5,.5s-.5-.225-.5-.5v-.5h1v.5Zm.5-1.5H11.5c-.827,0-1.5-.673-1.5-1.595,0-.814,.094-1.619,.279-2.405h2.721v1.5c0,.276,.224,.5,.5,.5s.5-.224,.5-.5v-1.5h5v1.5c0,.276,.224,.5,.5,.5s.5-.224,.5-.5v-1.5h2.72c.186,.794,.28,1.621,.28,2.5,0,.827-.673,1.5-1.5,1.5Z"/></svg>
