<?xml version="1.0" encoding="UTF-8"?>
<svg xmlns="http://www.w3.org/2000/svg" id="Layer_1" data-name="Layer 1" viewBox="0 0 24 24" width="512" height="512"><path d="M20.5,6h-1.5V3.5c0-1.93-1.57-3.5-3.5-3.5h-7c-1.93,0-3.5,1.57-3.5,3.5v2.5h-1.5c-1.93,0-3.5,1.57-3.5,3.5v3c0,1.93,1.57,3.5,3.5,3.5H20.5c1.93,0,3.5-1.57,3.5-3.5v-3c0-1.93-1.57-3.5-3.5-3.5ZM6,3.5c0-1.38,1.12-2.5,2.5-2.5h7c1.38,0,2.5,1.12,2.5,2.5v2.5H6V3.5ZM23,12.5c0,1.38-1.12,2.5-2.5,2.5H3.5c-1.38,0-2.5-1.12-2.5-2.5v-3c0-1.38,1.12-2.5,2.5-2.5H20.5c1.38,0,2.5,1.12,2.5,2.5v3ZM4,18.5v5c0,.28-.22,.5-.5,.5s-.5-.22-.5-.5v-5c0-.28,.22-.5,.5-.5s.5,.22,.5,.5Zm4,0v5c0,.28-.22,.5-.5,.5s-.5-.22-.5-.5v-5c0-.28,.22-.5,.5-.5s.5,.22,.5,.5Zm4.5,0v5c0,.28-.22,.5-.5,.5s-.5-.22-.5-.5v-5c0-.28,.22-.5,.5-.5s.5,.22,.5,.5Zm4.5,0v5c0,.28-.22,.5-.5,.5s-.5-.22-.5-.5v-5c0-.28,.22-.5,.5-.5s.5,.22,.5,.5Zm4,0v5c0,.28-.22,.5-.5,.5s-.5-.22-.5-.5v-5c0-.28,.22-.5,.5-.5s.5,.22,.5,.5Z"/></svg>
