<?xml version="1.0" encoding="UTF-8"?>
<svg xmlns="http://www.w3.org/2000/svg" id="Layer_1" data-name="Layer 1" viewBox="0 0 24 24" width="512" height="512"><path d="M23.43,4.92c-.48-.58-1.18-.92-1.93-.92H6.49l-.26-1.84c-.17-1.23-1.23-2.16-2.48-2.16h-1.26c-.28,0-.5,.22-.5,.5s.22,.5,.5,.5h1.26c.75,0,1.38,.56,1.49,1.29l1.78,12.83c.31,2.21,2.22,3.88,4.46,3.88h8.02c.28,0,.5-.22,.5-.5s-.22-.5-.5-.5H11.48c-1.73,0-3.22-1.29-3.46-3h10.64c2.14,0,3.99-1.52,4.41-3.62l.88-4.39c.15-.74-.04-1.49-.52-2.08Zm-.46,1.88l-.88,4.39c-.33,1.63-1.77,2.81-3.43,2.81H7.88l-1.25-9h14.87c.45,0,.87,.2,1.16,.55,.29,.35,.4,.8,.31,1.25Zm-13.97,13.21c-1.1,0-2,.9-2,2s.9,2,2,2,2-.9,2-2-.9-2-2-2Zm0,3c-.55,0-1-.45-1-1s.45-1,1-1,1,.45,1,1-.45,1-1,1Zm9-3c-1.1,0-2,.9-2,2s.9,2,2,2,2-.9,2-2-.9-2-2-2Zm0,3c-.55,0-1-.45-1-1s.45-1,1-1,1,.45,1,1-.45,1-1,1ZM0,5.5c0-.28,.22-.5,.5-.5H3.04c.28,0,.5,.22,.5,.5s-.22,.5-.5,.5H.5c-.28,0-.5-.22-.5-.5Zm0,4c0-.28,.22-.5,.5-.5H3.5c.28,0,.5,.22,.5,.5s-.22,.5-.5,.5H.5c-.28,0-.5-.22-.5-.5Zm5,4c0,.28-.22,.5-.5,.5H.5c-.28,0-.5-.22-.5-.5s.22-.5,.5-.5H4.5c.28,0,.5,.22,.5,.5Z"/></svg>
