<?xml version="1.0" encoding="UTF-8"?>
<svg xmlns="http://www.w3.org/2000/svg" id="Layer_1" data-name="Layer 1" viewBox="0 0 24 24" width="512" height="512"><path d="m23.854,7.465c-.195-.195-.512-.195-.707,0l-2.783,2.783-6.611-6.611,2.783-2.783c.195-.195.195-.512,0-.707s-.512-.195-.707,0l-3.059,3.059-6.24,2.309c-1.394.516-2.47,1.677-2.878,3.106L.095,21.087c-.238.81-.024,1.649.572,2.246.437.437,1.003.668,1.592.668.215,0,.434-.031.649-.095l12.425-3.53c1.424-.405,2.584-1.474,3.104-2.859l2.357-6.286,3.059-3.059c.195-.195.195-.512,0-.707ZM1.102,22.224s-.001-.003-.002-.004c.003,0,.004,0,.002.004Zm.674.674s.003,0,.002,0c0,0-.002,0-.002,0Zm15.724-5.733c-.409,1.09-1.321,1.931-2.441,2.249l-12.429,3.532c-.282.082-.572.066-.831-.039l6.323-6.323c.395.262.869.415,1.378.415,1.378,0,2.5-1.122,2.5-2.5s-1.122-2.5-2.5-2.5-2.5,1.122-2.5,2.5c0,.509.153.982.415,1.378l-6.323,6.323c-.105-.259-.121-.55-.037-.835l3.558-12.47c.321-1.125,1.167-2.038,2.263-2.443l6.043-2.236,6.864,6.864-2.282,6.085Zm-9.5-2.666c0-.827.673-1.5,1.5-1.5s1.5.673,1.5,1.5-.673,1.5-1.5,1.5-1.5-.673-1.5-1.5Z"/></svg>
