<?xml version="1.0" encoding="UTF-8"?>
<svg xmlns="http://www.w3.org/2000/svg" id="Layer_1" data-name="Layer 1" viewBox="0 0 24 24" width="512" height="512"><path d="M21.5,12h-3c-.827,0-1.5,.673-1.5,1.5,0,1.379-1.121,2.5-2.5,2.5h-5c-1.379,0-2.5-1.121-2.5-2.5,0-.827-.673-1.5-1.5-1.5H2.5c-1.379,0-2.5,1.121-2.5,2.5v5c0,2.481,2.019,4.5,4.5,4.5h15c2.481,0,4.5-2.019,4.5-4.5v-5c0-1.379-1.121-2.5-2.5-2.5Zm1.5,7.5c0,1.93-1.57,3.5-3.5,3.5H4.5c-1.93,0-3.5-1.57-3.5-3.5v-5c0-.827,.673-1.5,1.5-1.5h3c.275,0,.5,.225,.5,.5,0,1.93,1.57,3.5,3.5,3.5h5c1.93,0,3.5-1.57,3.5-3.5,0-.275,.225-.5,.5-.5h3c.827,0,1.5,.673,1.5,1.5v5ZM7.646,7.268c-.195-.195-.195-.512,0-.707s.512-.195,.707,0l3.146,3.146V.5c0-.276,.224-.5,.5-.5s.5,.224,.5,.5V9.707l3.146-3.146c.195-.195,.512-.195,.707,0s.195,.512,0,.707l-3.293,3.293c-.257,.257-.589,.381-.925,.412-.044,.013-.087,.027-.135,.027s-.091-.015-.135-.027c-.337-.031-.668-.155-.925-.412l-3.293-3.293Z"/></svg>
