<?xml version="1.0" encoding="UTF-8"?>
<svg xmlns="http://www.w3.org/2000/svg" id="Layer_1" data-name="Layer 1" viewBox="0 0 24 24" width="512" height="512"><path d="M15.5,20c-.106,0-.212-.034-.3-.1l-4-3c-.126-.094-.2-.243-.2-.4v-3.301L3.869,5.667c-.564-.635-.869-1.437-.869-2.27,0-1.874,1.524-3.398,3.398-3.398h14.203c1.874,0,3.398,1.524,3.398,3.398,0,.833-.305,1.635-.858,2.258l-7.142,7.543v6.301c0,.189-.107,.362-.276,.447-.07,.035-.147,.053-.224,.053Zm-3.5-3.75l3,2.25v-5.5c0-.128,.049-.251,.137-.344l7.268-7.676c.381-.428,.596-.994,.596-1.582,0-1.322-1.076-2.398-2.398-2.398H6.398c-1.322,0-2.398,1.076-2.398,2.398,0,.588,.215,1.154,.606,1.594l7.257,7.665c.088,.093,.137,.216,.137,.344v3.25Zm.724,7.697c.169-.085,.276-.258,.276-.447v-3c0-.276-.224-.5-.5-.5s-.5,.224-.5,.5v2l-3-2.25v-3.25c0-.128-.049-.251-.137-.344L1.606,8.992c-.392-.44-.606-1.006-.606-1.594,0-.695,.302-1.356,.828-1.812,.208-.181,.23-.497,.05-.705-.183-.209-.497-.232-.706-.05-.744,.646-1.172,1.582-1.172,2.567,0,.833,.305,1.635,.869,2.27l7.131,7.532v3.301c0,.157,.074,.306,.2,.4l4,3c.088,.066,.193,.1,.3,.1,.076,0,.153-.018,.224-.053Z"/></svg>
