<?xml version="1.0" encoding="UTF-8"?>
<svg xmlns="http://www.w3.org/2000/svg" id="Layer_1" data-name="Layer 1" viewBox="0 0 24 24" width="512" height="512"><path d="m8.733,7.868l.145-.078c.984-.558,1.687-1.461,1.979-2.544.29-1.073.14-2.194-.422-3.156C9.275.1,6.689-.588,4.67.555,1.227,2.507,0,5.701,0,8.039c0,2.241.139,3.546.93,4.901.766,1.313,2.137,2.05,3.593,2.05.716,0,1.453-.179,2.149-.554,1.938-1.099,2.667-3.603,1.624-5.582-.003-.007-.003-.01-.006-.016l.686.686c.661.661,1.025,1.541,1.025,2.475v11.5c0,.276.224.5.5.5s.5-.224.5-.5v-11.5c0-1.202-.468-2.332-1.318-3.182l-.949-.949Zm-2.615,5.731c-1.555.837-3.454.327-4.324-1.164-.679-1.164-.793-2.297-.793-4.397,0-2.056,1.094-4.873,4.164-6.614.507-.287,1.06-.424,1.606-.424,1.118,0,2.206.572,2.802,1.593.426.73.54,1.579.32,2.392-.222.822-.757,1.509-1.507,1.934l-.145.078c-.439.232-1.606.848-.83,2.323.793,1.506.24,3.411-1.293,4.279ZM19.33.555c-2.018-1.142-4.604-.454-5.764,1.535-.562.962-.712,2.083-.422,3.156.292,1.083.995,1.986,1.979,2.544l.145.078-.949.949c-.85.851-1.318,1.98-1.318,3.182v11.5c0,.276.224.5.5.5s.5-.224.5-.5v-11.5c0-.935.364-1.814,1.025-2.475l.686-.686c-.003.006-.003.01-.006.016-1.042,1.979-.314,4.482,1.703,5.625.658.355,1.363.524,2.055.524,1.446,0,2.835-.739,3.608-2.063.79-1.355.929-2.66.929-4.901,0-2.338-1.227-5.531-4.67-7.484Zm2.877,11.881c-.87,1.49-2.771,2.003-4.385,1.13-1.473-.835-2.026-2.74-1.232-4.246.776-1.475-.391-2.091-.83-2.323l-.145-.078c-.75-.425-1.285-1.112-1.507-1.934-.219-.813-.105-1.662.32-2.392.596-1.021,1.684-1.593,2.802-1.593.546,0,1.099.137,1.606.424,3.07,1.741,4.164,4.558,4.164,6.614,0,2.101-.115,3.234-.793,4.397Z"/></svg>
