<?xml version="1.0" encoding="UTF-8"?>
<svg xmlns="http://www.w3.org/2000/svg" id="Layer_1" data-name="Layer 1" width="512" height="512" viewBox="0 0 24 24"><path d="M13.908,24.003c-.476,0-.951-.155-1.374-.467l-3.036-2.398-3.022,2.389c-.829,.609-1.928,.615-2.747,.022-.833-.599-1.167-1.618-.851-2.596l1.049-3.63L.96,15.198C.118,14.582-.203,13.588,.12,12.601c.323-.988,1.168-1.601,2.207-1.601h3.801l1.159-3.747c.321-.999,1.168-1.616,2.212-1.616s1.892,.618,2.21,1.611l1.16,3.751h3.801c1.039,0,1.885,.614,2.207,1.601,.322,.986,.002,1.98-.836,2.594l-2.959,2.127,1.042,3.646c.311,.962-.023,1.98-.856,2.58-.42,.303-.89,.454-1.359,.454Zm-4.41-4.003c.109,0,.219,.036,.31,.107l3.333,2.634c.472,.349,1.054,.348,1.543-.003,.488-.353,.669-.904,.484-1.479l-1.144-4c-.059-.203,.018-.421,.188-.544l3.24-2.33c.481-.353,.659-.904,.473-1.474-.186-.571-.655-.912-1.256-.912h-4.17c-.219,0-.413-.143-.478-.352l-1.268-4.099c-.183-.569-.653-.912-1.257-.912s-1.074,.343-1.258,.917l-1.266,4.094c-.064,.209-.258,.352-.478,.352H2.327c-.6,0-1.07,.341-1.257,.912-.186,.57-.008,1.123,.477,1.477l3.249,2.327c.172,.123,.248,.342,.189,.545l-1.152,3.984c-.19,.589-.009,1.141,.48,1.492,.474,.344,1.084,.34,1.556-.006l3.319-2.624c.091-.071,.201-.107,.31-.107ZM21.278,8c-.255,0-.51-.082-.731-.245l-1.047-.769-1.048,.77c-.432,.318-1.016,.321-1.453,.007-.442-.319-.62-.861-.452-1.381l.408-1.262-1.074-.785c-.439-.321-.614-.862-.446-1.379,.156-.476,.579-.955,1.174-.955h1.324l.396-1.152c.163-.511,.624-.848,1.172-.848s1.009,.336,1.176,.857l.392,1.143h1.324c.595,0,1.018,.479,1.173,.954,.169,.518-.006,1.059-.443,1.379l-1.076,.786,.408,1.262c.168,.519-.01,1.061-.453,1.381-.22,.158-.471,.237-.722,.237Zm-1.778-2.135c.104,0,.208,.032,.296,.097l1.344,.987c.092,.067,.185,.067,.276,.001,.092-.066,.121-.154,.086-.261l-.52-1.607c-.066-.206,.006-.43,.181-.558l1.367-.999c.091-.066,.119-.154,.084-.262-.052-.158-.169-.264-.223-.264h-1.682c-.214,0-.403-.136-.473-.338l-.511-1.49c-.076-.234-.381-.225-.449-.01l-.515,1.5c-.069,.202-.259,.338-.473,.338h-1.682c-.054,0-.171,.106-.224,.265-.034,.106-.006,.194,.086,.261l1.366,.999c.175,.127,.247,.353,.181,.558l-.52,1.606c-.035,.107-.006,.196,.086,.262,.088,.063,.193,.06,.275,0l1.345-.988c.088-.065,.192-.097,.296-.097Z"/></svg>
