<?xml version="1.0" encoding="UTF-8"?>
<svg xmlns="http://www.w3.org/2000/svg" id="Layer_1" data-name="Layer 1" width="512" height="512" viewBox="0 0 24 24"><path d="M11.5,12.5V3.5c0-.276,.224-.5,.5-.5s.5,.224,.5,.5V12.5c0,.276-.224,.5-.5,.5s-.5-.224-.5-.5Zm12.5-.071c0-3.417-1.375-5.855-2.528-7.3-.977-1.224-1.472-2.781-1.472-4.629,0-.276-.224-.5-.5-.5s-.5,.224-.5,.5c0,2.08,.568,3.848,1.69,5.252,1.054,1.32,2.31,3.55,2.31,6.677,0,4.892-3.926,8.027-4.661,8.571H5.66c-.736-.543-4.66-3.667-4.66-8.571,0-3.127,1.256-5.356,2.31-6.677,1.122-1.404,1.69-3.172,1.69-5.252,0-.276-.224-.5-.5-.5s-.5,.224-.5,.5c0,1.848-.495,3.405-1.472,4.629-1.153,1.444-2.528,3.883-2.528,7.3,0,5.279,3.993,8.58,5,9.328v1.743c0,.276,.224,.5,.5,.5s.5-.224,.5-.5v-1.5h3v1.5c0,.276,.224,.5,.5,.5s.5-.224,.5-.5v-1.5h4v1.5c0,.276,.224,.5,.5,.5s.5-.224,.5-.5v-1.5h3v1.5c0,.276,.224,.5,.5,.5s.5-.224,.5-.5v-1.743c1.007-.748,5-4.049,5-9.328Zm-12,4.571c.552,0,1-.448,1-1s-.448-1-1-1-1,.448-1,1,.448,1,1,1Z"/></svg>
