<?xml version="1.0" encoding="UTF-8"?>
<svg xmlns="http://www.w3.org/2000/svg" id="Layer_1" data-name="Layer 1" viewBox="0 0 24 24" width="512" height="512"><path d="M21.119,8.595c-.56-.477-1.305-.678-2.035-.562-.639,.104-1.193,.472-1.569,.988-.455-.619-1.189-1.022-2.015-1.022-1.289,0-2.352,.98-2.486,2.234l-.686-1.419,2.519-5.3c.298-.671,.285-1.436-.034-2.098-.318-.662-.915-1.149-1.635-1.337-1.163-.303-2.431,.345-2.938,1.494l-.71,1.46-.696-1.437C8.321,.431,7.06-.22,5.891,.078c-.72,.186-1.317,.671-1.639,1.332-.321,.661-.336,1.426-.035,2.111,0,0,2.484,5.257,2.505,5.285l-1.59,3.27-1.672,1.67c-.94,.937-1.459,2.184-1.46,3.512,0,1.327,.516,2.575,1.454,3.514l1.033,1.033c1.416,1.417,3.299,2.197,5.303,2.197h7.71c2.481,0,4.5-2.019,4.5-4.5V10.5c0-.734-.321-1.429-.881-1.905Zm-1.875,.426c.451-.074,.887,.045,1.228,.336,.336,.286,.528,.703,.528,1.143v2c0,.827-.673,1.5-1.5,1.5s-1.5-.673-1.5-1.5v-1.893c0-.789,.535-1.471,1.244-1.586Zm-5.244,1.479c0-.827,.673-1.5,1.5-1.5s1.5,.673,1.5,1.5v2c0,.827-.673,1.5-1.5,1.5s-1.5-.673-1.5-1.5v-2ZM11.146,1.995c.32-.721,1.083-1.13,1.78-.947,.441,.115,.792,.401,.986,.804,.191,.397,.199,.856,.026,1.246l-4.268,8.98c-.114-.209-.258-.402-.431-.575-.65-.65-1.572-.866-2.404-.648L11.146,1.995Zm-6.019,1.111c-.178-.403-.168-.862,.024-1.259,.196-.403,.547-.687,.989-.801,.693-.179,1.459,.23,1.784,.969l1.047,2.163-1.695,3.486L5.127,3.106Zm12.373,19.894h-7.71c-1.736,0-3.368-.676-4.596-1.904l-1.033-1.033c-.749-.75-1.162-1.746-1.161-2.806s.415-2.056,1.166-2.804l2.248-2.244c.583-.583,1.535-.582,2.12,.003,.283,.283,.439,.66,.438,1.06,0,.4-.156,.777-.439,1.06l-2.41,2.407c-.195,.195-.195,.512,0,.708,.195,.195,.512,.195,.707,0l2.41-2.407c.302-.302,.517-.668,.633-1.067,.01-.016,1.904-3.999,1.904-3.999l1.223,2.527c0,1.378,1.121,2.499,2.5,2.499,.817,0,1.544-.394,2-1.002,.456,.608,1.183,1.002,2,1.002,.562,0,1.082-.187,1.5-.501v5.001c0,1.93-1.57,3.5-3.5,3.5Z"/></svg>
