<?xml version="1.0" encoding="UTF-8"?>
<svg xmlns="http://www.w3.org/2000/svg" id="arrow-circle-down" viewBox="0 0 24 24" width="512" height="512"><path d="M19.5,0H4.5C2.019,0,0,2.019,0,4.5v15c0,2.481,2.019,4.5,4.5,4.5h15c2.481,0,4.5-2.019,4.5-4.5V4.5c0-2.481-2.019-4.5-4.5-4.5Zm3.5,19.5c0,1.93-1.57,3.5-3.5,3.5H4.5c-1.93,0-3.5-1.57-3.5-3.5V4.5c0-1.93,1.57-3.5,3.5-3.5h15c1.93,0,3.5,1.57,3.5,3.5v15Z"/><path d="M13,7.419c-.533-.541-1.468-.541-1.999,0l-5.088,5.154c-.406,.411-.523,1.022-.3,1.557,.225,.536,.723,.87,1.3,.87h10.174c.577,0,1.075-.333,1.3-.87,.224-.535,.106-1.146-.3-1.557l-5.087-5.154Zm4.464,6.325c-.031,.077-.133,.255-.377,.255H6.913c-.244,0-.346-.179-.377-.255-.026-.062-.097-.281,.088-.469l5.089-5.154c.077-.079,.179-.122,.287-.122s.21,.043,.288,.122l5.088,5.154c.185,.188,.114,.406,.088,.469Z"/></svg>
