<?xml version="1.0" encoding="UTF-8"?>
<svg xmlns="http://www.w3.org/2000/svg" id="Layer_1" data-name="Layer 1" viewBox="0 0 24 24" width="512" height="512"><path d="m15,18.5v3.795c0,.557-.272,1.079-.729,1.398-.289.202-.629.306-.973.306-.196,0-.395-.034-.583-.104-2.163-.794-4.591-2.677-6.04-4.685l-.15-.208-2.025-.003c-2.48-.004-4.499-2.025-4.499-4.506v-4.994c0-1.602.862-3.095,2.25-3.897.236-.14.544-.058.683.182.139.239.057.545-.183.683-1.079.625-1.75,1.787-1.75,3.032v4.994c0,1.93,1.57,3.503,3.501,3.506l2.28.003c.16,0,.311.077.404.207l.3.415c1.321,1.831,3.613,3.612,5.573,4.332.218.079.45.05.64-.083.191-.134.302-.345.302-.578v-3.795c0-.276.224-.5.5-.5s.5.224.5.5Zm8.854,4.646c.195.195.195.512,0,.707-.098.098-.226.146-.354.146s-.256-.049-.354-.146L.146.854C-.049.658-.049.342.146.146S.658-.049.854.146l4.855,4.855h.816s.149-.205.149-.205C8.193,2.691,10.525.89,12.761.096c.511-.182,1.062-.104,1.512.212.455.322.728.845.728,1.401v12.583l2.03,2.03c.024-.066.062-.129.116-.182,1.178-1.178,1.854-2.689,1.854-4.146s-.676-2.968-1.854-4.146c-.195-.195-.195-.512,0-.707s.512-.195.707,0c1.364,1.364,2.146,3.133,2.146,4.854s-.782,3.489-2.146,4.854c-.053.053-.116.091-.182.116l2.358,2.358c1.868-2.025,2.971-4.73,2.971-7.322,0-2.733-1.227-5.591-3.282-7.646-.195-.195-.195-.512,0-.707s.512-.195.707,0c2.238,2.239,3.575,5.361,3.575,8.354,0,2.85-1.214,5.819-3.264,8.029l3.117,3.117ZM6.71,6.003l7.29,7.29V1.709c0-.231-.114-.45-.305-.584-.179-.126-.399-.159-.6-.087-2.022.718-4.226,2.423-5.611,4.343l-.299.415c-.094.13-.244.208-.405.208h-.07Z"/></svg>
