<?xml version="1.0" encoding="UTF-8"?>
<svg xmlns="http://www.w3.org/2000/svg" id="Layer_1" data-name="Layer 1" viewBox="0 0 24 24" width="512" height="512"><path d="M19,9V2.5c0-1.379-1.122-2.5-2.5-2.5h-3.979c-.013,0-.025,0-.038,0H7.5c-1.378,0-2.5,1.121-2.5,2.5v6.5c0,3.691,2.873,6.725,6.5,6.982v7.018H7.5c-.276,0-.5,.224-.5,.5s.224,.5,.5,.5h9c.276,0,.5-.224,.5-.5s-.224-.5-.5-.5h-4v-7.018c3.627-.257,6.5-3.291,6.5-6.982Zm-13,0V2.5c0-.827,.673-1.5,1.5-1.5h4.035s-2.471,3.511-2.487,3.562c-.104,.342-.041,.701,.171,.988,.212,.286,.539,.45,.896,.45h3.78c.041,0,.072,.019,.091,.055s.018,.072,.004,.093l-2.898,4.062c-.16,.225-.108,.537,.117,.697,.088,.062,.189,.093,.29,.093,.156,0,.31-.073,.408-.21l2.908-4.076c.225-.34,.246-.773,.053-1.132-.192-.359-.565-.582-.972-.582h-3.78c-.048,0-.077-.025-.092-.047-.009-.012-.019-.029-.022-.051l2.758-3.902h3.742c.827,0,1.5,.673,1.5,1.5v6.5c0,3.309-2.691,6-6,6s-6-2.691-6-6Z"/></svg>
