<?xml version="1.0" encoding="UTF-8"?>
<svg xmlns="http://www.w3.org/2000/svg" id="Layer_1" data-name="Layer 1" viewBox="0 0 24 24" width="512" height="512"><path d="m21,23v.5c0,.276-.224.5-.5.5s-.5-.224-.5-.5v-.5c0-4.411-3.589-8-8-8s-8,3.589-8,8v.5c0,.276-.224.5-.5.5s-.5-.224-.5-.5v-.5c0-4.963,4.037-9,9-9s9,4.037,9,9ZM4,6.5c0-1.199.848-2.203,1.976-2.444C6.965,1.618,9.348,0,12,0s5.035,1.618,6.024,4.056c1.128.242,1.976,1.245,1.976,2.444s-.848,2.203-1.976,2.444c-.989,2.438-3.373,4.056-6.024,4.056s-5.035-1.618-6.024-4.056c-1.128-.242-1.976-1.245-1.976-2.444Zm12.9,2.5H7.1c.929,1.82,2.817,3,4.9,3s3.971-1.18,4.9-3ZM7.1,4h9.8c-.929-1.82-2.817-3-4.9-3s-3.971,1.18-4.9,3Zm-2.1,2.5c0,.827.673,1.5,1.5,1.5h11c.827,0,1.5-.673,1.5-1.5s-.673-1.5-1.5-1.5H6.5c-.827,0-1.5.673-1.5,1.5Zm11.52,14.573c-.272-.666-.66-1.321-1.132-1.887-.216-.26-.61-.258-.825.002-.479.579-.873,1.268-1.146,2.075-.168.529-.315,1.133-.414,1.818-.048.332.338.548.595.332.532-.446,1.251-.97,1.726-.97.361,0,.785.205,1.15.462.248.175.58-.046.518-.343-.105-.503-.253-.97-.472-1.49Z"/></svg>
