<?xml version="1.0" encoding="UTF-8"?>
<svg xmlns="http://www.w3.org/2000/svg" id="Layer_1" data-name="Layer 1" viewBox="0 0 24 24" width="512" height="512"><path d="m16.249,10.365c1.585-.438,2.751-1.893,2.751-3.615,0-2.068-1.682-3.75-3.75-3.75-1.354,0-2.542.721-3.201,1.799C10.892,1.354,7.411,0,.5,0,.224,0,0,.224,0,.5s.224.5.5.5c4.839,0,7.791.612,9.402,2.181-.363-.117-.75-.181-1.152-.181-2.068,0-3.75,1.682-3.75,3.75,0,1.722,1.167,3.177,2.751,3.615-3.426,1.887-7.751,5.238-7.751,10.135,0,1.93,1.57,3.5,3.5,3.5s3.5-1.57,3.5-3.5c0-5.814,3.863-9.791,5-10.836,1.138,1.042,5,5.009,5,10.836,0,1.93,1.57,3.5,3.5,3.5s3.5-1.57,3.5-3.5c0-4.897-4.325-8.249-7.751-10.135Zm-10.249,10.135c0,1.378-1.122,2.5-2.5,2.5s-2.5-1.122-2.5-2.5c0-5.145,5.617-8.54,8.881-10.078-1.667,1.963-3.881,5.443-3.881,10.078Zm2.75-11c-1.519,0-2.75-1.231-2.75-2.75s1.231-2.75,2.75-2.75,2.75,1.231,2.75,2.75-1.231,2.75-2.75,2.75Zm3.75-2.75c0-1.519,1.231-2.75,2.75-2.75s2.75,1.231,2.75,2.75-1.231,2.75-2.75,2.75-2.75-1.231-2.75-2.75Zm8,16.25c-1.378,0-2.5-1.122-2.5-2.5,0-4.634-2.213-8.114-3.881-10.078,3.264,1.538,8.881,4.933,8.881,10.078,0,1.378-1.122,2.5-2.5,2.5Z"/></svg>
