<?xml version="1.0" encoding="UTF-8"?>
<svg xmlns="http://www.w3.org/2000/svg" id="Layer_1" data-name="Layer 1" viewBox="0 0 24 24" width="512" height="512"><path d="M20.675,15.131c-.33-.074-.859-.197-1.095-.761-.965-2.33-3.392-3.704-5.905-3.335-2.178,.317-3.993,1.972-4.515,4.116-.2,.822-.213,1.65-.04,2.462,.056,.263-.066,.508-.306,.61-1.377,.591-2.096,2.087-1.709,3.557,.264,1.005,1.083,1.825,2.089,2.089,.242,.063,.485,.099,.72,.104,.652,.019,8.81,.018,9.672,0,.323-.007,.647-.047,.962-.12,1.646-.374,2.953-1.678,3.33-3.319,.55-2.397-.857-4.771-3.203-5.404Zm2.229,5.18c-.287,1.251-1.323,2.283-2.578,2.569-.25,.058-.505,.09-.758,.095-1.668,.033-8.289,.038-9.626,0-.16-.004-.326-.028-.493-.071-.662-.174-1.202-.714-1.375-1.376-.294-1.118,.349-2.046,1.137-2.384,.681-.292,1.046-1.008,.889-1.739-.142-.663-.131-1.341,.034-2.016,.427-1.752,1.909-3.104,3.688-3.363,.222-.032,.443-.048,.663-.048,1.811,0,3.469,1.076,4.174,2.777,.435,1.042,1.365,1.253,1.757,1.342,1.825,.493,2.918,2.344,2.489,4.215ZM7,4c0-.552,.448-1,1-1s1,.448,1,1-.448,1-1,1-1-.448-1-1Zm17,.5V13.5c0,.276-.224,.5-.5,.5s-.5-.224-.5-.5V4.5c0-1.93-1.57-3.5-3.5-3.5l-15.001-.039c-1.928,0-3.499,1.57-3.499,3.5v15.039c0,1.93,1.57,3.5,3.5,3.5h1c.276,0,.5,.224,.5,.5s-.224,.5-.5,.5h-1c-2.481,0-4.5-2.019-4.5-4.5V4.461C0,1.98,2.019-.039,4.5-.039l15.001,.039c2.48,0,4.499,2.019,4.499,4.5ZM4,3c.552,0,1,.448,1,1s-.448,1-1,1-1-.448-1-1,.448-1,1-1Z"/></svg>
