<?xml version="1.0" encoding="UTF-8"?>
<svg xmlns="http://www.w3.org/2000/svg" id="Layer_1" data-name="Layer 1" viewBox="0 0 24 24" width="512" height="512"><path d="m23.861,15.552c-.224-.494-.68-.83-1.218-.896-.836-.104-2.104-.663-2.715-1.196-.941-.823-1.399-1.628-1.663-2.2.152-.391.235-.816.235-1.26,0-1.93-1.57-3.5-3.5-3.5-.044,0-.088.001-.131.003.398-.568.631-1.258.631-2.003,0-1.93-1.57-3.5-3.5-3.5s-3.5,1.57-3.5,3.5c0,.744.234,1.435.631,2.003-.044-.002-.087-.003-.131-.003-1.93,0-3.5,1.57-3.5,3.5,0,.473.094.924.265,1.336-.319.7-.749,1.483-1.581,2.211-.539.471-1.86.99-2.827,1.11-.539.066-.994.402-1.218.896-.223.493-.175,1.054.128,1.5.554.817.807,1.488.807,1.766,0,.457-.178,1.13-.5,1.897-.207.491-.104,1.035.267,1.418.37.383.91.502,1.406.312.663-.254,1.412-.513,1.941-.513.467,0,1.056.261,1.704.756.262.2.573.303.888.303.175,0,.351-.032.52-.097.473-.181.812-.589.907-1.091.227-1.194.58-2.059,1.02-2.501.796-.799,1.705-1.336,2.775-1.641,1.07.305,1.979.842,2.774,1.64.44.443.793,1.308,1.02,2.502.095.502.435.91.907,1.091.169.065.345.097.52.097.315,0,.626-.104.888-.303.647-.495,1.236-.756,1.703-.756.53,0,1.278.259,1.941.513.498.19,1.036.071,1.406-.312.372-.383.474-.927.267-1.418-.323-.767-.5-1.441-.5-1.897,0-.278.252-.949.807-1.766.304-.447.352-1.008.128-1.5Zm-6.361-5.552c0,1.378-1.122,2.5-2.5,2.5s-2.5-1.122-2.5-2.5,1.122-2.5,2.5-2.5,2.5,1.122,2.5,2.5ZM12,2c1.378,0,2.5,1.122,2.5,2.5s-1.122,2.5-2.5,2.5-2.5-1.122-2.5-2.5,1.122-2.5,2.5-2.5Zm-3,5.5c1.378,0,2.5,1.122,2.5,2.5s-1.122,2.5-2.5,2.5c-.979,0-1.828-.566-2.238-1.387-.002-.004-.004-.007-.006-.011-.164-.333-.257-.707-.257-1.102,0-1.379,1.122-2.5,2.5-2.5Zm-.483,11.097c-.59.594-1.025,1.61-1.293,3.021-.031.162-.134.287-.283.344-.15.055-.312.032-.442-.068-.835-.638-1.612-.961-2.311-.961-.691,0-1.513.278-2.299.58-.17.063-.287-.03-.33-.074-.043-.044-.135-.165-.063-.334.264-.627.579-1.533.579-2.285,0-.798-.685-1.894-.979-2.328-.153-.225-.083-.442-.045-.525.038-.084.156-.283.431-.317,1.02-.126,2.594-.678,3.362-1.349.726-.634,1.193-1.307,1.548-1.97.642.718,1.574,1.171,2.611,1.171.033,0,.065,0,.098-.001l-3.937,3.634c-.106.098-.161.232-.161.367,0,.122.044.243.133.34.098.106.232.161.367.161.122,0,.243-.044.339-.133l5.661-5.225v4.125c-1.141.362-2.12.962-2.983,1.829Zm14.389-2.105c-.294.434-.979,1.529-.979,2.328,0,.752.314,1.658.579,2.285.071.169-.021.29-.063.334-.042.044-.159.138-.33.074-.786-.301-1.608-.58-2.299-.58-.698,0-1.476.323-2.31.961-.132.1-.293.123-.443.068-.149-.057-.252-.183-.283-.344-.268-1.411-.703-2.427-1.294-3.021-.863-.866-1.842-1.467-2.983-1.829v-4.125l5.661,5.225c.096.089.218.133.339.133.135,0,.269-.054.367-.161.089-.097.133-.218.133-.34,0-.134-.054-.269-.161-.367l-3.937-3.634c.032,0,.065.001.098.001,1.065,0,2.02-.478,2.662-1.23.415.727.938,1.357,1.608,1.943.771.675,2.199,1.305,3.25,1.436.274.034.393.233.431.317.038.083.108.3-.045.525Z"/></svg>
