<?xml version="1.0" encoding="UTF-8"?>
<svg xmlns="http://www.w3.org/2000/svg" id="Layer_1" data-name="Layer 1" viewBox="0 0 24 24">
  <path d="m12,9c-1.654,0-3,1.346-3,3s1.346,3,3,3,3-1.346,3-3-1.346-3-3-3Zm0,5c-1.103,0-2-.897-2-2s.897-2,2-2,2,.897,2,2-.897,2-2,2ZM7.5,6c-1.379,0-2.5,1.121-2.5,2.5v7c0,1.379,1.121,2.5,2.5,2.5h9c1.379,0,2.5-1.121,2.5-2.5v-7c0-1.379-1.121-2.5-2.5-2.5h-1.227l-.843-1.311c-.277-.432-.748-.689-1.262-.689h-2.338c-.514,0-.984.258-1.262.688l-.843,1.312h-1.227Zm10.5,2.5v7c0,.827-.673,1.5-1.5,1.5H7.5c-.827,0-1.5-.673-1.5-1.5v-7c0-.827.673-1.5,1.5-1.5h9c.827,0,1.5.673,1.5,1.5Zm-7.589-3.271c.092-.143.249-.229.42-.229h2.338c.171,0,.328.086.42.229l.495.771h-4.168l.495-.771Zm-2.411,18.271c0,.276-.224.5-.5.5h-3c-2.481,0-4.5-2.019-4.5-4.5v-3c0-.276.224-.5.5-.5s.5.224.5.5v3c0,1.93,1.57,3.5,3.5,3.5h3c.276,0,.5.224.5.5Zm16-7v3c0,2.481-2.019,4.5-4.5,4.5h-3c-.276,0-.5-.224-.5-.5s.224-.5.5-.5h3c1.93,0,3.5-1.57,3.5-3.5v-3c0-.276.224-.5.5-.5s.5.224.5.5Zm0-12v3c0,.276-.224.5-.5.5s-.5-.224-.5-.5v-3c0-1.93-1.57-3.5-3.5-3.5h-3c-.276,0-.5-.224-.5-.5s.224-.5.5-.5h3c2.481,0,4.5,2.019,4.5,4.5ZM0,7.5v-3C0,2.019,2.019,0,4.5,0h3c.276,0,.5.224.5.5s-.224.5-.5.5h-3c-1.93,0-3.5,1.57-3.5,3.5v3c0,.276-.224.5-.5.5s-.5-.224-.5-.5Z"/>
</svg>
