<?xml version="1.0" encoding="UTF-8"?>
<svg xmlns="http://www.w3.org/2000/svg" id="Layer_1" data-name="Layer 1" viewBox="0 0 24 24" width="512" height="512"><path d="M19.5,0H4.5C2.019,0,0,2.019,0,4.5v15c0,2.481,2.019,4.5,4.5,4.5h15c2.481,0,4.5-2.019,4.5-4.5V4.5c0-2.481-2.019-4.5-4.5-4.5Zm3.5,19.5c0,1.93-1.57,3.5-3.5,3.5H4.5c-1.93,0-3.5-1.57-3.5-3.5V4.5c0-1.93,1.57-3.5,3.5-3.5h15c1.93,0,3.5,1.57,3.5,3.5v15Zm-4.5-8h-6.5v-3.861c0-.524-.302-.976-.79-1.18-.484-.203-1.039-.096-1.412,.272l-4.419,4.361c-.245,.242-.38,.564-.38,.908s.135,.666,.38,.908l4.418,4.36c.247,.244,.575,.374,.909,.374,.169,0,.34-.033,.503-.102,.487-.204,.79-.655,.79-1.18v-3.861h6.5c.276,0,.5-.224,.5-.5s-.224-.5-.5-.5Zm-7.5,4.861c0,.166-.123,.235-.175,.257-.056,.023-.197,.063-.324-.062l-4.418-4.36c-.054-.053-.083-.123-.083-.197s.029-.144,.083-.196l4.418-4.36c.068-.067,.141-.086,.202-.086,.053,0,.097,.014,.123,.025,.052,.022,.175,.091,.175,.257v8.722Z"/></svg>
