<?xml version="1.0" encoding="UTF-8"?>
<svg xmlns="http://www.w3.org/2000/svg" id="arrow-circle-down" viewBox="0 0 24 24" width="512" height="512"><path d="M14.475,2.025c-1.322-1.322-3.629-1.32-4.947-.002L.148,11.316c-.196,.194-.198,.512-.004,.707,.193,.196,.512,.198,.707,.004L10.232,2.732c.945-.945,2.588-.947,3.537,.002l9.379,9.293c.097,.097,.225,.145,.352,.145,.129,0,.258-.05,.355-.148,.194-.195,.192-.513-.004-.707L14.475,2.025Z"/><path d="M13.768,11.732c-.945-.945-2.593-.942-3.532-.003L.149,21.644c-.197,.193-.199,.51-.006,.707,.193,.198,.51,.198,.707,.006L10.939,12.439c.566-.566,1.552-.569,2.124,.003l10.086,9.914c.098,.096,.224,.144,.351,.144,.129,0,.259-.05,.356-.149,.193-.197,.191-.514-.006-.707L13.768,11.732Z"/></svg>
