<?xml version="1.0" encoding="UTF-8"?>
<svg xmlns="http://www.w3.org/2000/svg" id="Layer_1" data-name="Layer 1" width="512" height="512" viewBox="0 0 24 24"><path d="M.747,14.023c.099,.626,.395,2.193,.991,3.183l.539,1.045c.68,1.129,1.883,1.754,3.11,1.754,.263,0,.528-.029,.789-.088l.502,.834c.355,.59,.919,1.007,1.588,1.173,.208,.051,.418,.077,.627,.077,.463,0,.919-.125,1.326-.371,1.218-.734,1.612-2.322,.879-3.542l-.344-.57,6.072-3.403,.383,.636c.484,.803,1.339,1.249,2.215,1.249,.453,0,.912-.119,1.327-.369,1.219-.734,1.612-2.323,.871-3.554l-.429-.666c.358-.421,.617-.921,.754-1.472,.233-.938,.087-1.911-.396-2.71l-.538-1.046c-.676-1.121-1.562-2.025-2.463-2.528L13.873,.592c-1.458-.814-3.249-.785-4.664,.068L2.284,4.553C.855,5.414-.009,6.984,.034,8.707l.713,5.316Zm9.495,4.581c.449,.746,.207,1.719-.538,2.169-.361,.218-.789,.282-1.196,.18-.409-.102-.755-.356-.973-.719l-.41-.68c.036-.02,.072-.041,.107-.062l2.65-1.485,.36,.597Zm9.993-3.831c-.749,.448-1.721,.207-2.169-.539l-.367-.609,2.589-1.451s.104-.064,.148-.093l.337,.523c.45,.747,.209,1.719-.537,2.169Zm.442-7.059c.361,.599,.468,1.303,.299,1.982-.168,.677-.588,1.248-1.185,1.609l-13.062,7.322c-1.236,.744-2.85,.344-3.58-.864l-.539-1.045c-.174-.289-.32-.643-.44-1.004l2.613-1.488,.755,1.228c.094,.154,.258,.238,.426,.238,.09,0,.18-.024,.262-.074,.235-.145,.309-.452,.164-.688l-.737-1.199L15.991,7.846l.819,1.36c.094,.156,.26,.242,.429,.242,.088,0,.177-.023,.258-.072,.236-.142,.312-.449,.171-.686l-.806-1.34,2.683-1.528c.214,.261,.414,.545,.596,.845l.538,1.046ZM2.787,5.417L9.712,1.524c.583-.351,1.243-.526,1.898-.526,.606,0,1.21,.15,1.744,.448l4.677,3.062c.271,.151,.539,.345,.797,.571L1.899,14.72c-.084-.371-.137-.68-.162-.841l-.707-5.25c-.03-1.31,.648-2.544,1.758-3.212ZM24,23.5c0,.276-.224,.5-.5,.5H.5c-.276,0-.5-.224-.5-.5s.224-.5,.5-.5H23.5c.276,0,.5,.224,.5,.5Z"/></svg>
