<?xml version="1.0" encoding="UTF-8"?>
<svg xmlns="http://www.w3.org/2000/svg" id="Layer_1" data-name="Layer 1" viewBox="0 0 24 24" width="512" height="512"><path d="M6.5,22H3.5c-1.93,0-3.5-1.57-3.5-3.5v-3c0-.276,.224-.5,.5-.5s.5,.224,.5,.5v3c0,1.378,1.121,2.5,2.5,2.5h3c.276,0,.5,.224,.5,.5s-.224,.5-.5,.5Zm17.5-3.5v-3c0-.276-.224-.5-.5-.5s-.5,.224-.5,.5v3c0,1.378-1.121,2.5-2.5,2.5h-3c-.276,0-.5,.224-.5,.5s.224,.5,.5,.5h3c1.93,0,3.5-1.57,3.5-3.5Zm0-10v-3c0-1.93-1.57-3.5-3.5-3.5h-3c-.276,0-.5,.224-.5,.5s.224,.5,.5,.5h3c1.379,0,2.5,1.122,2.5,2.5v3c0,.276,.224,.5,.5,.5s.5-.224,.5-.5ZM1,8.5v-3c0-1.378,1.121-2.5,2.5-2.5h3c.276,0,.5-.224,.5-.5s-.224-.5-.5-.5H3.5C1.57,2,0,3.57,0,5.5v3c0,.276,.224,.5,.5,.5s.5-.224,.5-.5Zm4,9V6.5c0-.276-.224-.5-.5-.5s-.5,.224-.5,.5v11c0,.276,.224,.5,.5,.5s.5-.224,.5-.5Zm10,0V6.5c0-.276-.224-.5-.5-.5s-.5,.224-.5,.5v11c0,.276,.224,.5,.5,.5s.5-.224,.5-.5Zm-6-.5V7c0-.552-.447-1-1-1s-1,.448-1,1v10c0,.552,.447,1,1,1s1-.448,1-1Zm3,0V7c0-.552-.447-1-1-1s-1,.448-1,1v10c0,.552,.447,1,1,1s1-.448,1-1Zm8,0V7c0-.552-.447-1-1-1s-1,.448-1,1v10c0,.552,.447,1,1,1s1-.448,1-1Zm-3,.5V6.5c0-.276-.224-.5-.5-.5s-.5,.224-.5,.5v11c0,.276,.224,.5,.5,.5s.5-.224,.5-.5Z"/></svg>
