<?xml version="1.0" encoding="UTF-8"?>
<svg xmlns="http://www.w3.org/2000/svg" id="Layer_1" data-name="Layer 1" viewBox="0 0 24 24">
  <path d="m23.854.854c.195-.195.195-.512,0-.707s-.512-.195-.707,0l-6.24,6.24c-1.65-1.483-3.83-2.386-6.218-2.386-.109,0-.22.002-.328.008-1.166.052-2.159.879-2.417,2.011-.232,1.016-.747,1.945-1.488,2.687-.982.983-2.288,1.56-3.677,1.623-1.081.048-2.039.813-2.383,1.905-.263.834-.396,1.66-.396,2.455,0,2.388.904,4.568,2.386,6.218L.146,23.146c-.195.195-.195.512,0,.707.098.098.226.146.354.146s.256-.049.354-.146l2.24-2.24c1.65,1.483,3.83,2.386,6.218,2.386.82,0,1.673-.142,2.534-.421,1.081-.35,1.812-1.323,1.821-2.422.012-1.468.59-2.847,1.628-3.884.74-.74,1.668-1.254,2.683-1.487,1.168-.268,2.019-1.3,2.022-2.475,0-2.388-.904-4.568-2.386-6.218L23.854.854Zm-4.854,12.475c-.002.695-.526,1.318-1.246,1.483-1.198.275-2.293.882-3.166,1.755-1.225,1.224-1.906,2.851-1.921,4.583-.005.657-.47,1.265-1.13,1.479-.762.247-1.51.372-2.226.372-2.112,0-4.042-.792-5.51-2.095l3.052-3.052c.195-.195.195-.512,0-.707s-.512-.195-.707,0l-3.052,3.052c-1.302-1.468-2.095-3.398-2.095-5.51,0-.693.117-1.419.349-2.155.219-.692.812-1.177,1.475-1.207,1.64-.074,3.18-.754,4.339-1.914.875-.875,1.482-1.972,1.756-3.171.158-.695.77-1.203,1.489-1.235.093-.004.188-.006.281-.006,2.112,0,4.041.792,5.509,2.095l-7.051,7.051c-.195.195-.195.512,0,.707.098.098.226.146.354.146s.256-.049.354-.146l7.051-7.051c1.303,1.47,2.096,3.405,2.096,5.525Zm0-12.328c0-.552.448-1,1-1s1,.448,1,1-.448,1-1,1-1-.448-1-1Zm-2,2c0-.552.448-1,1-1s1,.448,1,1-.448,1-1,1-1-.448-1-1Zm7,1c0,.552-.448,1-1,1s-1-.448-1-1,.448-1,1-1,1,.448,1,1Zm-2,2c0,.552-.448,1-1,1s-1-.448-1-1,.448-1,1-1,1,.448,1,1Z"/>
</svg>
