<?xml version="1.0" encoding="UTF-8"?>
<svg xmlns="http://www.w3.org/2000/svg" id="Layer_1" data-name="Layer 1" viewBox="0 0 24 24" width="512" height="512"><path d="m15,7.5v5c0,.276-.224.5-.5.5s-.5-.224-.5-.5v-3.865l-2,2.365-1.998-2.367-.002,3.867c0,.276-.224.5-.5.5s-.5-.224-.5-.5v-5c0-.276.224-.5.5-.5.304,0,.61.138.8.375l1.7,2.125,1.7-2.125c.19-.237.496-.375.8-.375.276,0,.5.224.5.5Zm4.165,2.055c-.469-.174-1.344-.539-1.344-.539-.145-.098-.214-.258-.19-.436.016-.108.093-.369.466-.481.658-.194,1.255.19,1.416.306.203.203.532.203.735,0,.203-.203.203-.532,0-.735-.011-.011-.748-.669-1.748-.669-.223,0-.459.025-.702.098-.645.194-1.101.712-1.191,1.333-.085.601.186,1.15.746,1.506.004,0,.697.308,1.455.588.188.069.795.33.714.786-.057.318-.433.647-.965.647-.52,0-1.021-.211-1.342-.564,0,0-.364-.386-.748-.024-.376.355-.018.719-.018.719.521.574,1.289.903,2.108.903.994,0,1.829-.63,1.983-1.498.116-.65-.184-1.5-1.375-1.94Zm-12.962,0c-.469-.174-1.344-.539-1.344-.539-.145-.098-.214-.258-.19-.436.016-.108.093-.369.466-.481.658-.194,1.255.19,1.416.306.203.203.532.203.735,0,.203-.203.203-.532,0-.735-.011-.011-.748-.669-1.748-.669-.223,0-.459.025-.702.098-.645.194-1.101.712-1.191,1.333-.085.601.186,1.15.746,1.506.004,0,.697.308,1.455.588.188.069.795.33.714.786-.057.318-.433.647-.965.647-.52,0-1.021-.211-1.342-.564,0,0-.364-.386-.748-.024-.376.355-.018.719-.018.719.521.574,1.289.903,2.108.903.994,0,1.829-.63,1.983-1.498.116-.65-.184-1.5-1.375-1.94ZM24,3.5v13c0,1.93-1.57,3.5-3.5,3.5h-3.532l-3.985,3.295c-.275.245-.626.368-.979.368-.356,0-.715-.126-1.001-.38l-3.897-3.283h-3.606c-1.93,0-3.5-1.57-3.5-3.5V3.5C0,1.57,1.57,0,3.5,0h17c1.93,0,3.5,1.57,3.5,3.5Zm-1,0c0-1.379-1.122-2.5-2.5-2.5H3.5c-1.378,0-2.5,1.121-2.5,2.5v13c0,1.379,1.122,2.5,2.5,2.5h3.789c.118,0,.232.042.322.117l4.047,3.409c.2.178.484.179.675.009l4.138-3.421c.089-.073.202-.114.318-.114h3.711c1.378,0,2.5-1.121,2.5-2.5V3.5Z"/></svg>
