<?xml version="1.0" encoding="UTF-8"?>
<svg xmlns="http://www.w3.org/2000/svg" id="Layer_1" data-name="Layer 1" width="512" height="512" viewBox="0 0 24 24"><path d="M17.5,0H6.5C4.019,0,2,2.019,2,4.5V14.5c0,2.481,2.019,4.5,4.5,4.5h.117l-2.546,4.243c-.143,.237-.065,.544,.172,.686,.08,.048,.169,.071,.257,.071,.169,0,.335-.086,.429-.243l2.854-4.757h8.434l2.854,4.757c.094,.156,.26,.243,.429,.243,.088,0,.177-.023,.257-.071,.237-.142,.314-.449,.172-.686l-2.546-4.243h.117c2.481,0,4.5-2.019,4.5-4.5V4.5c0-2.481-2.019-4.5-4.5-4.5Zm-5,12V5h8.5v7H12.5Zm-9.5,0V5H11.5v7H3ZM6.5,1h11c1.76,0,3.221,1.306,3.464,3H3.036c.243-1.694,1.704-3,3.464-3Zm11,17H6.5c-1.93,0-3.5-1.57-3.5-3.5v-1.5h3v1.5c0,.276,.224,.5,.5,.5s.5-.224,.5-.5v-1.5h10v1.5c0,.276,.224,.5,.5,.5s.5-.224,.5-.5v-1.5h3v1.5c0,1.93-1.57,3.5-3.5,3.5Z"/></svg>
