<?xml version="1.0" encoding="UTF-8"?>
<svg xmlns="http://www.w3.org/2000/svg" id="Layer_1" data-name="Layer 1" viewBox="0 0 24 24">
  <path d="m12,0C5.383,0,0,5.383,0,12s5.383,12,12,12,12-5.383,12-12S18.617,0,12,0Zm0,23c-6.065,0-11-4.935-11-11S5.935,1,12,1s11,4.935,11,11-4.935,11-11,11Zm7.105-14.81c-.544-.285-1.192-.245-1.699.097l-2.407,1.357v-.144c0-1.378-1.122-2.5-2.5-2.5h-5c-1.378,0-2.5,1.122-2.5,2.5v5c0,1.378,1.122,2.5,2.5,2.5h5c1.378,0,2.5-1.122,2.5-2.5v-.145l2.385,1.343c.285.2.618.301.952.301.262,0,.525-.062.768-.189.552-.287.895-.852.895-1.474v-4.672c0-.622-.343-1.187-.895-1.474Zm-5.105,6.31c0,.827-.673,1.5-1.5,1.5h-5c-.827,0-1.5-.673-1.5-1.5v-5c0-.827.673-1.5,1.5-1.5h5c.827,0,1.5.673,1.5,1.5v5Zm5-.164c0,.251-.133.471-.356.587-.222.116-.478.1-.726-.071l-2.917-1.645v-2.416l2.917-1.645.041-.026c.206-.144.462-.162.685-.045.223.116.356.336.356.587v4.672Z"/>
</svg>
