<?xml version="1.0" encoding="UTF-8"?>
<svg xmlns="http://www.w3.org/2000/svg" id="Layer_1" data-name="Layer 1" viewBox="0 0 24 24" width="512" height="512"><path d="M20.92,10.23l-.01-.016-4.383-6.288c-.841-1.206-2.221-1.926-3.691-1.926h-4.835c-1.858,0-3.549,1.167-4.208,2.905L1.663,10.522c-.997,.617-1.663,1.721-1.663,2.978v2.5c0,1.103,.897,2,2,2v1c0,1.654,1.346,3,3,3s3-1.346,3-3v-1h8v1c0,1.654,1.346,3,3,3s3-1.346,3-3v-1c1.103,0,2-.897,2-2v-1.5c0-1.985-1.292-3.674-3.08-4.27ZM7,19c0,1.103-.897,2-2,2s-2-.897-2-2v-1H7v1Zm14,0c0,1.103-.897,2-2,2s-2-.897-2-2v-1h4v1Zm2-3c0,.551-.449,1-1,1H2c-.551,0-1-.449-1-1v-2.5c0-1.378,1.122-2.5,2.5-2.5h2c.276,0,.5-.224,.5-.5s-.224-.5-.5-.5H3.5c-.2,0-.397,.017-.588,.05l1.815-4.79c.513-1.352,1.828-2.259,3.273-2.259h4.835c1.144,0,2.217,.56,2.871,1.499l3.836,5.502h-3.042c-.276,0-.5,.223-.5,.499s.224,.5,.5,.5h3c1.93,0,3.5,1.57,3.5,3.5v1.5Zm-9.15-5.339c.219,.408,.196,.901-.06,1.287l-2.89,3.853c-.098,.131-.249,.2-.4,.2-.104,0-.209-.033-.3-.1-.221-.166-.265-.479-.1-.7l2.873-3.829c.059-.091,.017-.197-.005-.237-.021-.04-.086-.134-.224-.134h-3.475c-.406,0-.777-.187-1.019-.513s-.313-.735-.195-1.124c.017-.055,3.043-4.161,3.043-4.161,.165-.222,.477-.27,.699-.104,.222,.164,.269,.478,.104,.699l-2.901,3.92c-.004,.081,.029,.141,.053,.174,.03,.041,.098,.108,.216,.108h3.475c.463,0,.886,.253,1.105,.661Z"/></svg>
