<?xml version="1.0" encoding="UTF-8"?>
<svg xmlns="http://www.w3.org/2000/svg" id="Layer_1" data-name="Layer 1" viewBox="0 0 24 24" width="512" height="512"><path d="M3,12c0,.552-.448,1-1,1s-1-.448-1-1,.448-1,1-1,1,.448,1,1Zm6,0c0,.552,.448,1,1,1s1-.448,1-1-.448-1-1-1-1,.448-1,1Zm4,0c0,.552,.448,1,1,1s1-.448,1-1-.448-1-1-1-1,.448-1,1Zm-7-1c-.552,0-1,.448-1,1s.448,1,1,1,1-.448,1-1-.448-1-1-1Zm12,0c-.552,0-1,.448-1,1s.448,1,1,1,1-.448,1-1-.448-1-1-1Zm4,0c-.552,0-1,.448-1,1s.448,1,1,1,1-.448,1-1-.448-1-1-1ZM7.85,4.857l3.65-3.568v7.21c0,.276,.224,.5,.5,.5s.5-.224,.5-.5V1.29l3.65,3.568c.098,.095,.224,.143,.35,.143,.13,0,.26-.05,.357-.15,.193-.198,.189-.514-.008-.707L13.061,.439c-.585-.584-1.536-.585-2.117-.004l-3.793,3.707c-.197,.193-.201,.509-.008,.707,.192,.197,.509,.202,.707,.008Zm8.301,14.285l-3.65,3.568v-7.21c0-.276-.224-.5-.5-.5s-.5,.224-.5,.5v7.21l-3.65-3.568c-.198-.193-.515-.189-.707,.008-.193,.198-.189,.514,.008,.707l3.789,3.703c.293,.293,.678,.439,1.062,.439,.383,0,.765-.145,1.055-.435l3.793-3.707c.197-.193,.201-.509,.008-.707-.191-.197-.508-.201-.707-.008Z"/></svg>
