<?xml version="1.0" encoding="UTF-8"?>
<svg xmlns="http://www.w3.org/2000/svg" id="Layer_1" data-name="Layer 1" viewBox="0 0 24 24" width="512" height="512"><path d="M16.361,17h-3.861V7h3.861c.524,0,.976-.302,1.18-.79,.203-.485,.096-1.039-.272-1.412L12.908,.38c-.484-.49-1.331-.491-1.816,0L6.731,4.799c-.368,.373-.475,.927-.272,1.412,.204,.487,.655,.79,1.18,.79h3.861v10h-3.861c-.524,0-.976,.302-1.18,.79-.203,.485-.096,1.039,.272,1.412l4.361,4.419c.242,.245,.564,.38,.908,.38s.666-.135,.908-.38l4.36-4.418c.368-.373,.475-.927,.272-1.412-.204-.487-.655-.79-1.18-.79ZM7.382,5.825c-.023-.056-.063-.198,.062-.324L11.803,1.083c.053-.054,.123-.083,.197-.083s.144,.029,.196,.083l4.36,4.418c.125,.126,.084,.269,.062,.324-.022,.052-.091,.175-.257,.175H7.639c-.166,0-.235-.123-.257-.175Zm9.175,12.674l-4.36,4.418c-.106,.107-.288,.107-.393,0l-4.36-4.418c-.125-.126-.084-.269-.062-.324,.022-.052,.091-.175,.257-.175h8.722c.166,0,.235,.123,.257,.175,.023,.056,.063,.198-.062,.324Z"/></svg>
