<?xml version="1.0" encoding="UTF-8"?>
<svg xmlns="http://www.w3.org/2000/svg" id="Layer_1" data-name="Layer 1" viewBox="0 0 24 24" width="512" height="512"><path d="M24,10.98c0-1.562-.799-3.022-2.105-3.887,.009-.097,.015-.195,.015-.294,0-1.953-1.275-3.515-2.995-3.744C18.574,1.325,17.041,.026,15.25,.026c-1.387,0-2.601,.758-3.25,1.881C11.351,.783,10.137,.026,8.75,.026,6.96,.026,5.428,1.324,5.087,3.052c-1.71,.219-2.996,1.786-2.996,3.746,0,.1,.006,.198,.015,.294-1.307,.865-2.105,2.325-2.105,3.887,0,.936,.281,1.832,.818,2.614-.537,.782-.818,1.678-.818,2.614,0,1.642,.871,3.155,2.288,4.002,.622,2.258,2.65,3.816,5.008,3.816,2.074,0,3.869-1.22,4.704-2.98,.836,1.76,2.63,2.98,4.704,2.98,2.357,0,4.386-1.558,5.008-3.816,1.417-.847,2.288-2.36,2.288-4.002,0-.936-.281-1.832-.818-2.614,.537-.782,.818-1.678,.818-2.614ZM7.296,23.026c-1.964,0-3.646-1.34-4.088-3.258-.032-.141-.124-.26-.251-.329-1.207-.646-1.957-1.885-1.957-3.231,0-.832,.287-1.627,.83-2.299,.148-.184,.148-.445,0-.629-.543-.672-.83-1.467-.83-2.299,0-1.316,.725-2.541,1.892-3.196,.186-.104,.285-.315,.247-.524-.027-.15-.048-.303-.048-.461,0-1.363,.901-2.772,2.435-2.772,.261,0,.479-.201,.498-.461,.11-1.423,1.309-2.539,2.727-2.539,1.517,0,2.75,1.233,2.75,2.75v4.724h-2.563c-.223-.862-1.007-1.5-1.937-1.5-1.103,0-2,.897-2,2s.897,2,2,2c.93,0,1.714-.638,1.937-1.5h2.563v6h-2.563c-.223-.862-1.007-1.5-1.937-1.5-1.103,0-2,.897-2,2s.897,2,2,2c.93,0,1.714-.638,1.937-1.5h2.563v2.321c0,2.318-1.886,4.205-4.204,4.205Zm.704-14.026c0,.551-.448,1-1,1s-1-.449-1-1,.448-1,1-1,1,.449,1,1Zm0,7c0,.551-.448,1-1,1s-1-.449-1-1,.448-1,1-1,1,.449,1,1Zm14.17-2.092c.543,.672,.83,1.467,.83,2.299,0,1.347-.75,2.585-1.957,3.231-.127,.068-.219,.188-.251,.329-.442,1.918-2.124,3.258-4.088,3.258-2.318,0-4.204-1.886-4.204-4.205v-4.821h2.5c1.379,0,2.5-1.122,2.5-2.5v-.563c.862-.223,1.5-1.006,1.5-1.937,0-1.103-.897-2-2-2s-2,.897-2,2c0,.93,.638,1.714,1.5,1.937v.563c0,.827-.673,1.5-1.5,1.5h-2.5V3.776c0-1.517,1.233-2.75,2.75-2.75,1.418,0,2.616,1.115,2.727,2.539,.02,.26,.263,.461,.523,.461,1.508,0,2.409,1.41,2.409,2.772,0,.158-.021,.311-.048,.461-.038,.209,.062,.42,.247,.524,1.167,.655,1.892,1.88,1.892,3.196,0,.832-.287,1.627-.83,2.299-.148,.184-.148,.445,0,.629Zm-5.17-3.908c-.552,0-1-.449-1-1s.448-1,1-1,1,.449,1,1-.448,1-1,1Z"/></svg>
