<?xml version="1.0" encoding="UTF-8"?>
<svg xmlns="http://www.w3.org/2000/svg" id="Layer_1" data-name="Layer 1" viewBox="0 0 24 24" width="512" height="512"><path d="M23.38,8.85c-.47-.54-1.16-.85-1.88-.85h-.56C20.44,3.48,16.6,0,12,0S3.56,3.48,3.06,8h-.56c-.72,0-1.41,.31-1.88,.85-.47,.54-.69,1.26-.6,1.98l1.12,8.4c.36,2.72,2.71,4.77,5.45,4.77h10.81c2.75,0,5.09-2.05,5.45-4.77l1.12-8.4c.09-.71-.12-1.44-.6-1.98ZM12,1c4.05,0,7.44,3.03,7.94,7H4.06c.49-3.97,3.88-7,7.94-7Zm10.99,9.7l-1.12,8.4c-.3,2.23-2.21,3.91-4.46,3.91H6.59c-2.25,0-4.16-1.68-4.46-3.91L1.01,10.7c-.06-.43,.07-.86,.36-1.19s.7-.51,1.13-.51H21.5c.43,0,.84,.19,1.13,.51s.42,.76,.36,1.19Z"/></svg>
