<?xml version="1.0" encoding="UTF-8"?>
<svg xmlns="http://www.w3.org/2000/svg" id="Layer_1" data-name="Layer 1" viewBox="0 0 24 24" width="512" height="512"><path d="M12,15c-.276,0-.5-.224-.5-.5V5.5c0-.276,.224-.5,.5-.5s.5,.224,.5,.5V14.5c0,.276-.224,.5-.5,.5Zm0,2c-.552,0-1,.448-1,1s.448,1,1,1,1-.448,1-1-.448-1-1-1Zm12,2.5v-7.145c0-3.396-1.392-6.688-3.819-9.033C17.858,1.075,14.824-.083,11.629,.008,5.309,.224,.094,5.542,.002,11.862c-.044,3.103,1.133,6.031,3.315,8.245,2.475,2.51,5.96,3.893,9.815,3.893h6.367c2.481,0,4.5-2.019,4.5-4.5Zm-4.514-15.459c2.233,2.158,3.514,5.188,3.514,8.314v7.145c0,1.93-1.57,3.5-3.5,3.5h-6.367c-3.585,0-6.818-1.276-9.103-3.595-1.993-2.021-3.069-4.696-3.028-7.529C1.086,6.081,5.868,1.205,11.663,1.008c.124-.005,.247-.007,.37-.007,2.782,0,5.417,1.071,7.453,3.04Z"/></svg>
