<?xml version="1.0" encoding="UTF-8"?>
<svg xmlns="http://www.w3.org/2000/svg" id="Layer_1" data-name="Layer 1" viewBox="0 0 24 24" width="512" height="512"><path d="M23.851,.146c-.195-.193-.512-.195-.707,.002l-7.652,7.685-1.514-1.514c-.85-.851-1.979-1.318-3.182-1.318s-2.332,.468-3.179,1.315L1.318,12.501c-.851,.85-1.318,1.98-1.318,3.183v3.816c0,2.481,2.019,4.5,4.5,4.5h3.816c1.202,0,2.333-.468,3.184-1.319l6.215-6.262c1.754-1.755,1.754-4.609,0-6.364l-1.516-1.516L23.853,.853c.194-.195,.194-.512-.002-.707ZM4.5,23c-1.93,0-3.5-1.57-3.5-3.5v-3.816c0-.11,.005-.218,.015-.326,1.117,1.001,2.619,1.643,3.927,1.643,.997,0,1.812-.175,2.464-.415-.238,.644-.406,1.442-.406,2.415,0,1.308,.657,2.857,1.65,3.984-.11,.01-.222,.016-.334,.016h-3.816Zm12.507-7.287l-6.215,6.262c-.303,.303-.653,.544-1.033,.716-1.023-.944-1.759-2.48-1.759-3.691,0-1.995,.799-3.092,1.274-3.567l2.579-2.579c.195-.195,.195-.512,0-.707s-.512-.195-.707,0l-2.579,2.579c-.299,.299-1.444,1.274-3.625,1.274-1.208,0-2.688-.719-3.634-1.757,.172-.38,.412-.729,.714-1.032l6.299-6.186c.661-.661,1.54-1.025,2.475-1.025s1.813,.364,2.475,1.025l3.737,3.736c1.364,1.364,1.364,3.586,0,4.951Z"/></svg>
