<?xml version="1.0" encoding="UTF-8"?>
<svg xmlns="http://www.w3.org/2000/svg" id="Layer_1" data-name="Layer 1" viewBox="0 0 24 24">
  <path d="m12.327,15.619c.195.195.195.512,0,.707l-6.244,6.244c-.922.922-2.148,1.43-3.451,1.43H.5c-.276,0-.5-.224-.5-.5v-2.132c0-1.304.508-2.53,1.43-3.451l6.356-6.356c.195-.195.512-.195.707,0s.195.512,0,.707l-6.356,6.356c-.733.732-1.137,1.707-1.137,2.744v1.632h1.632c1.036,0,2.011-.403,2.744-1.137l6.244-6.244c.195-.195.512-.195.707,0Zm11.527,8.234c-.098.098-.226.146-.354.146s-.256-.049-.354-.146L.146.854C-.049.658-.049.342.146.146S.658-.049.854.146l9.148,9.148L18.384.963c1.281-1.281,3.369-1.282,4.652,0s1.283,3.37,0,4.653l-8.33,8.382,9.148,9.148c.195.195.195.512,0,.707Zm-7.761-19.204l3.258,3.257,2.978-2.996c.894-.895.894-2.347,0-3.24-.894-.893-2.346-.893-3.239,0l-2.997,2.979Zm-5.384,5.351l3.291,3.291,4.647-4.675-3.262-3.262-4.675,4.647Z"/>
</svg>
