<?xml version="1.0" encoding="UTF-8"?>
<svg xmlns="http://www.w3.org/2000/svg" id="Layer_1" data-name="Layer 1" viewBox="0 0 24 24" width="512" height="512"><path d="M19,21.5c0,.276-.224,.5-.5,.5H5.5c-.276,0-.5-.224-.5-.5s.224-.5,.5-.5h13c.276,0,.5,.224,.5,.5Zm-13-3.5c.552,0,1-.448,1-1s-.448-1-1-1-1,.448-1,1,.448,1,1,1Zm5-1c0-.552-.448-1-1-1s-1,.448-1,1,.448,1,1,1,1-.448,1-1Zm-9,3c-.552,0-1,.448-1,1s.448,1,1,1,1-.448,1-1-.448-1-1-1Zm0-4c-.552,0-1,.448-1,1s.448,1,1,1,1-.448,1-1-.448-1-1-1Zm16,0c-.552,0-1,.448-1,1s.448,1,1,1,1-.448,1-1-.448-1-1-1Zm4,0c-.552,0-1,.448-1,1s.448,1,1,1,1-.448,1-1-.448-1-1-1Zm-7,1c0-.552-.448-1-1-1s-1,.448-1,1,.448,1,1,1,1-.448,1-1Zm9-8.146l-.087,1.871c0,1.244-1.03,2.275-2.299,2.275l-2.627-.34h-.007c-1.2,0-2.228-1.03-2.228-2.296l-.215-2.423c-1.526-.617-3.053-.934-4.541-.941-1.484-.011-3.043,.307-4.535,.936l-.215,2.452c-.013,1.257-1.039,2.276-2.299,2.276l-2.497,.332h-.008C1.114,12.996,.086,11.966,.086,10.7L0,8.877c-.001-1.323,.52-2.562,1.468-3.509C5.997,.84,18.006,.84,22.532,5.368c.947,.947,1.469,2.186,1.468,3.485Zm-.999-.023c0-1.01-.417-1.996-1.176-2.755C17.693,1.943,6.307,1.941,2.175,6.075c-.759,.759-1.176,1.745-1.175,2.778l.086,1.823c0,.74,.583,1.323,1.3,1.323l2.497-.332c.781-.004,1.364-.587,1.364-1.304,0-.015,0-.029,.002-.044l.243-2.769c.016-.181,.128-.338,.293-.412,1.688-.757,3.483-1.14,5.217-1.14,1.711,.009,3.462,.392,5.204,1.136,.17,.072,.286,.232,.302,.416l.243,2.769c.002,.761,.585,1.344,1.302,1.344l2.627,.34c.651-.004,1.234-.587,1.234-1.303l.087-1.871Zm-1.001,11.17c-.552,0-1,.448-1,1s.448,1,1,1,1-.448,1-1-.448-1-1-1Z"/></svg>
