<?xml version="1.0" encoding="UTF-8"?>
<svg xmlns="http://www.w3.org/2000/svg" id="Layer_1" data-name="Layer 1" viewBox="0 0 24 24" width="512" height="512"><path d="M23.5,20c-.276,0-.5,.224-.5,.5,0,1.378-1.122,2.5-2.5,2.5h-.382l2.87-13.395c.058-.27-.114-.536-.384-.594-.275-.06-.536,.114-.594,.384l-.344,1.605h-1.992c-.526,0-1.014-.276-1.285-.726l-1.261-2.095c-.814-1.352-2.277-2.179-3.855-2.179h-1.758c-.01,0-.02,0-.03,0H7.107c-.839,0-1.621,.42-2.085,1.12l-1.394,2.104c-.152,.23-.089,.54,.141,.693,.23,.152,.541,.089,.693-.141l1.394-2.104c.278-.419,.748-.672,1.251-.672h3.636l-2.555,5.963c-.462,1.126-.05,2.414,.998,3.074l4.06,2.321c.467,.267,.755,.764,.755,1.302v3.34H6.439l1.72-5.334c.084-.263-.06-.544-.323-.629-.263-.082-.545,.06-.629,.323l-1.819,5.641H1.114L3.262,12.601c.056-.271-.118-.535-.389-.591-.269-.053-.535,.118-.591,.389L.011,23.398c-.065,.311,.172,.602,.489,.602H20.5c1.93,0,3.5-1.57,3.5-3.5,0-.276-.224-.5-.5-.5Zm-9.759-2.51l-4.041-2.31c-.617-.389-.864-1.162-.59-1.831l2.72-6.35h1.444c.481,0,.95,.101,1.381,.287l-2.607,6.014c-.109,.253,.007,.548,.26,.658,.064,.028,.132,.041,.198,.041,.193,0,.377-.113,.459-.301l2.55-5.883c.296,.246,.553,.542,.756,.879l1.261,2.094c.449,.747,1.27,1.211,2.142,1.211h1.778l-2.357,11h-4.096v-3.34c0-.895-.482-1.726-1.259-2.17Zm.759-12.49c1.378,0,2.5-1.122,2.5-2.5s-1.122-2.5-2.5-2.5-2.5,1.122-2.5,2.5,1.122,2.5,2.5,2.5Zm0-4c.827,0,1.5,.673,1.5,1.5s-.673,1.5-1.5,1.5-1.5-.673-1.5-1.5,.673-1.5,1.5-1.5Z"/></svg>
