<?xml version="1.0" encoding="UTF-8"?>
<svg xmlns="http://www.w3.org/2000/svg" id="Layer_1" data-name="Layer 1" viewBox="0 0 24 24" width="512" height="512"><path d="M4,7c0-.28,.22-.5,.5-.5s.5,.22,.5,.5c0,1.48,1.11,2.76,2.57,2.97,.27,.04,.46,.29,.42,.57-.04,.25-.25,.43-.49,.43-.02,0-.05,0-.07,0-1.96-.28-3.43-1.98-3.43-3.96Zm14.14,15.1c-.57,.58-1.33,.9-2.14,.9-1.65,0-3-1.35-3-3v-3c0-.15,.01-.29,.03-.43,.04-.27-.15-.53-.42-.57-.27-.03-.53,.15-.57,.42-.03,.19-.04,.38-.04,.57v3c0,2.21,1.79,4,4,4,1.08,0,2.1-.43,2.86-1.2,.19-.2,.19-.51,0-.71-.2-.19-.51-.19-.71,0ZM15.91,3.8l2.09-2.09V10.5c0,.28,.22,.5,.5,.5s.5-.22,.5-.5V.5c0-.2-.12-.38-.31-.46-.19-.08-.4-.04-.54,.11l-2.94,2.94c-.2,.2-.2,.51,0,.71s.51,.2,.71,0ZM7.69,13.04c-.19-.08-.4-.04-.54,.11l-2.94,2.94c-.2,.2-.2,.51,0,.71s.51,.2,.71,0l2.09-2.09v8.79c0,.28,.22,.5,.5,.5s.5-.22,.5-.5V13.5c0-.2-.12-.38-.31-.46Zm16.16,10.82c-.1,.1-.23,.15-.35,.15s-.26-.05-.35-.15L.15,.85C-.05,.66-.05,.34,.15,.15S.66-.05,.85,.15l3.21,3.21c.31-1.9,1.95-3.36,3.94-3.36,2.21,0,4,1.79,4,4v3c0,1.14-.49,2.22-1.32,2.97l3.49,3.49c.57-.29,1.19-.46,1.84-.46,2.21,0,4,1.79,4,4v2.29l3.85,3.85c.2,.2,.2,.51,0,.71ZM14.93,14.22l4.07,4.07v-1.29c0-1.65-1.35-3-3-3-.37,0-.73,.09-1.07,.22ZM5,4.29l4.95,4.95c.65-.57,1.05-1.38,1.05-2.25v-3c0-1.65-1.35-3-3-3s-3,1.35-3,3v.29Z"/></svg>
