<?xml version="1.0" encoding="UTF-8"?>
<svg xmlns="http://www.w3.org/2000/svg" id="Layer_1" data-name="Layer 1" viewBox="0 0 24 24" width="512" height="512"><path d="M20.87,20.16c.71-.86,1.13-1.96,1.13-3.16,0-2.76-2.24-5-5-5s-5,2.24-5,5,2.24,5,5,5c1.2,0,2.3-.42,3.16-1.13l2.98,2.98c.1,.1,.23,.15,.35,.15s.26-.05,.35-.15c.2-.2,.2-.51,0-.71l-2.98-2.98Zm-3.87,.84c-2.21,0-4-1.79-4-4s1.79-4,4-4,4,1.79,4,4-1.79,4-4,4Zm2.5-15h-.5V3.5c0-1.93-1.57-3.5-3.5-3.5h-7c-1.93,0-3.5,1.57-3.5,3.5v2.5h-.5C2.02,6,0,8.02,0,10.5v6c0,2.48,2.02,4.5,4.5,4.5h.5v.5c0,1.38,1.12,2.5,2.5,2.5h6c.28,0,.5-.22,.5-.5s-.22-.5-.5-.5H7.5c-.83,0-1.5-.67-1.5-1.5v-5c0-.83,.67-1.5,1.5-1.5h2c.28,0,.5-.22,.5-.5s-.22-.5-.5-.5h-2c-1.38,0-2.5,1.12-2.5,2.5v3.5h-.5c-1.93,0-3.5-1.57-3.5-3.5v-6c0-1.93,1.57-3.5,3.5-3.5h15c1.93,0,3.5,1.57,3.5,3.5v2c0,.28,.22,.5,.5,.5s.5-.22,.5-.5v-2c0-2.48-2.02-4.5-4.5-4.5ZM6,3.5c0-1.38,1.12-2.5,2.5-2.5h7c1.38,0,2.5,1.12,2.5,2.5v2.5H6V3.5Z"/></svg>
