<?xml version="1.0" encoding="UTF-8"?>
<svg xmlns="http://www.w3.org/2000/svg" id="Layer_1" data-name="Layer 1" viewBox="0 0 24 24" width="512" height="512"><path d="m23.5,7h-5.382l.877-6.433c.037-.273-.154-.525-.428-.563-.276-.039-.526.154-.563.428l-.896,6.567h-8.854l.877-6.433c.037-.273-.154-.525-.428-.563-.272-.039-.525.154-.563.428l-.896,6.567H1.5c-.276,0-.5.224-.5.5s.224.5.5.5h5.609l-1.091,8H.5c-.276,0-.5.224-.5.5s.224.5.5.5h5.382l-.877,6.433c-.037.273.154.525.428.563.023.003.045.004.068.004.246,0,.461-.182.495-.433l.896-6.567h8.854l-.877,6.433c-.037.273.154.525.428.563.023.003.045.004.068.004.246,0,.461-.182.495-.433l.896-6.567h5.745c.276,0,.5-.224.5-.5s-.224-.5-.5-.5h-5.609l1.091-8h5.518c.276,0,.5-.224.5-.5s-.224-.5-.5-.5Zm-7.618,9H7.027l1.091-8h8.854l-1.091,8Z"/></svg>
