<?xml version="1.0" encoding="UTF-8"?>
<svg xmlns="http://www.w3.org/2000/svg" id="Layer_1" data-name="Layer 1" viewBox="0 0 24 24" width="512" height="512"><path d="m11.229,1.251c-.036.036.035-.038,0,0h0Zm11.547,11.523c-2.41,2.301-6.443,3.779-11.808,4.219-.102.009-.204.013-.305.013-.802,0-1.577-.261-2.211-.74l-3.21,3.21c1.006.249,1.763,1.147,1.763,2.23,0,1.269-1.032,2.3-2.3,2.3s-2.3-1.031-2.3-2.3c0-.034,0-.068.002-.102C1.102,21.639.006,20.606.006,19.304c0-1.269,1.032-2.3,2.3-2.3,1.081,0,1.991.75,2.235,1.758l3.204-3.204c-.541-.714-.803-1.606-.728-2.516.448-5.458,1.931-9.488,4.212-11.791,2.177-2.176,6.542-1.374,9.724,1.807,1.516,1.516,2.55,3.339,2.914,5.136.378,1.871-.009,3.498-1.091,4.58ZM3.499,19.804c.071-.165.107-.333.107-.5,0-.717-.583-1.3-1.3-1.3s-1.3.583-1.3,1.3c0,.884.93,1.563,1.8,1.193l.693-.693Zm.705.709l-.692.692c-.071.165-.107.333-.107.5,0,.717.583,1.3,1.3,1.3s1.3-.583,1.3-1.3c0-.884-.926-1.561-1.801-1.192Zm15.075-6.527c-2.019-.087-4.328-1.142-6.22-3.035-1.516-1.515-2.551-3.339-2.914-5.136-.075-.372-.12-.735-.135-1.085-.892,1.838-1.677,4.512-1.996,8.395-.064.785.215,1.552.768,2.104.553.553,1.322.827,2.104.768,3.432-.281,6.24-.955,8.393-2.01Zm3.607-5.594c-.325-1.606-1.263-3.25-2.641-4.627-1.791-1.791-3.965-2.769-5.766-2.769-1.007,0-1.903.321-2.544.962-.771.839-1.11,2.18-.811,3.659.325,1.606,1.263,3.25,2.641,4.627,2.748,2.747,6.487,3.499,8.305,1.821.836-.837,1.126-2.141.816-3.672Zm-7.194-2.7c-.401.401-.138,1.313.587,2.038s1.637.988,2.038.587.138-1.313-.587-2.038c-.725-.725-1.637-.988-2.038-.587Z"/></svg>
