<?xml version="1.0" encoding="UTF-8"?>
<svg xmlns="http://www.w3.org/2000/svg" id="Layer_1" data-name="Layer 1" viewBox="0 0 24 24" width="512" height="512"><path d="M8,15c-.552,0-1-.448-1-1s.448-1,1-1,1,.448,1,1-.448,1-1,1Zm8-2c-.552,0-1,.448-1,1s.448,1,1,1,1-.448,1-1-.448-1-1-1Zm-.562,5.563c.113,.33,.059,.685-.146,.971-.208,.291-.545,.465-.902,.465h-4.789c-.358,0-.697-.174-.905-.467-.206-.29-.257-.646-.141-.978,.445-1.27,1.771-2.555,3.444-2.555s3.016,1.321,3.438,2.563Zm-.959,.389c-.303-.993-1.321-1.952-2.479-1.952-1.195,0-2.18,.971-2.5,1.885,.022,.082,.051,.115,.102,.115h4.788c.051,0,.08-.033,.09-.048Zm9.521-8.92v1.586c0,6.707-5.282,12.261-11.775,12.38-.076,0-.152,.002-.227,.002-3.165,0-6.142-1.215-8.404-3.437C1.276,18.288,0,15.247,0,12v-1.986c0-.407,.244-.773,.621-.934,.372-.158,.782-.082,1.071,.196,.755,.732,1.926,.729,1.932,.724h5.376c.551,0,1-.448,1-1v-.5c0-1.132-.679-1.411-1.055-1.479-.352,.348-1.165,.979-2.445,.979-1.93,0-3.5-1.57-3.5-3.5s1.57-3.5,3.5-3.5c.209,0,.419,.022,.647,.07,1.283-1.253,3.437-1.366,4.853-.348,1.416-1.019,3.57-.905,4.853,.348,.228-.048,.438-.07,.647-.07,1.93,0,3.5,1.57,3.5,3.5s-1.57,3.5-3.5,3.5c-1.281,0-2.094-.631-2.446-.979-.373,.067-1.054,.346-1.054,1.479v.5c0,.552,.449,1,1,1h5.364c.011,0,1.15-.013,1.916-.727,.299-.28,.72-.352,1.099-.188,.377,.164,.622,.535,.622,.946Zm-1,0c-1.102,.964-2.612,.979-2.638,.968h-5.362c-1.103,0-2-.897-2-2v-.5c0-1.978,1.476-2.5,2.256-2.5,.158,0,.307,.075,.401,.201,.022,.03,.629,.799,1.842,.799,1.378,0,2.5-1.121,2.5-2.5s-1.122-2.5-2.5-2.5c-.203,0-.417,.034-.674,.106-.187,.052-.386-.007-.513-.153-.528-.605-1.28-.953-2.063-.953-.698,0-1.413,.274-1.911,.734-.191,.176-.486,.176-.678,0-.499-.46-1.213-.734-1.911-.734-.783,0-1.536,.348-2.063,.953-.127,.146-.328,.206-.513,.153-.257-.072-.471-.106-.674-.106-1.378,0-2.5,1.121-2.5,2.5s1.122,2.5,2.5,2.5c1.213,0,1.82-.769,1.845-.802,.095-.123,.244-.198,.399-.198,.78,0,2.256,.522,2.256,2.5v.5c0,1.103-.897,2-2,2H3.636c-.047,.002-1.574,.028-2.641-1.005l.004,2.005c0,2.977,1.17,5.764,3.294,7.85,2.123,2.085,4.946,3.198,7.912,3.148,5.952-.109,10.794-5.214,10.794-11.38v-1.586Z"/></svg>
