<?xml version="1.0" encoding="UTF-8"?>
<svg xmlns="http://www.w3.org/2000/svg" id="Layer_1" data-name="Layer 1" viewBox="0 0 24 24" width="512" height="512"><path d="M14.35,23H4.5c-1.93,0-3.5-1.58-3.5-3.5V9.65c0-1.09,.62-2.02,1.62-2.44,1-.42,2.1-.2,2.88,.56l2.18,2.18L15.61,2.03c1.36-1.36,3.58-1.37,4.95,0l1.41,1.41c.66,.66,1.03,1.54,1.03,2.47s-.36,1.81-1.03,2.47l-7.93,7.93,2.18,2.18c.77,.77,.98,1.87,.57,2.88-.42,1-1.35,1.62-2.44,1.62ZM3.66,8.01c-.24,0-.46,.05-.65,.13-.49,.2-1.01,.71-1.01,1.52v9.85c0,1.38,1.12,2.5,2.5,2.5H14.35c.81,0,1.31-.52,1.52-1s.22-1.21-.35-1.79l-2.53-2.53c-.2-.2-.2-.51,0-.71L21.27,7.68h0c.47-.47,.73-1.1,.73-1.77s-.26-1.29-.73-1.77l-1.41-1.41c-.98-.98-2.56-.97-3.54,0L8.04,11.02c-.19,.19-.52,.19-.71,0l-2.54-2.54c-.35-.35-.76-.48-1.14-.48Z"/></svg>
