<?xml version="1.0" encoding="UTF-8"?>
<svg xmlns="http://www.w3.org/2000/svg" id="Layer_1" data-name="Layer 1" viewBox="0 0 24 24" width="512" height="512"><path d="m24,1.546v-.39c0-.463-.276-.88-.704-1.063-.42-.178-.889-.098-1.218.217-.479.458-1.179.69-2.078.69H7.1C4.076,1,1.289,2.914.164,5.763c-.288.728-.197,1.521.248,2.176.452.665,1.199,1.062,1.999,1.062h.589v10h-.5c-1.379,0-2.5,1.121-2.5,2.5s1.121,2.5,2.5,2.5h21c.276,0,.5-.224.5-.5s-.224-.5-.5-.5H2.5c-.827,0-1.5-.673-1.5-1.5s.673-1.5,1.5-1.5h21c.276,0,.5-.224.5-.5s-.224-.5-.5-.5h-3.5v-10.854c2.375-1.248,4-3.736,4-6.6ZM2.411,8c-.469,0-.906-.233-1.172-.624-.257-.377-.31-.831-.146-1.246.976-2.47,3.389-4.13,6.006-4.13h12.9c1.166,0,2.098-.325,2.769-.968.016-.012.06-.053.134-.02.029.013.098.052.098.144v.39c0,3.559-2.895,6.454-6.452,6.454H2.411Zm12.589,11h-3v-10h3v10Zm-4,0h-3v-10h3v10Zm-7-10h3v10h-3v-10Zm15,10h-3v-10h.548c.86,0,1.683-.154,2.452-.423v10.423Z"/></svg>
