<?xml version="1.0" encoding="UTF-8"?>
<svg xmlns="http://www.w3.org/2000/svg" id="Layer_1" data-name="Layer 1" viewBox="0 0 24 24" width="512" height="512"><path d="M23.854,6.274c-.195-.195-.512-.195-.707,0l-4.603,4.603c-1.328,1.327-3.564,1.438-5.042,.328l7.352-7.352c.195-.195,.195-.512,0-.707s-.512-.195-.707,0l-7.354,7.354c-.513-.666-.792-1.479-.792-2.334,0-1.024,.399-1.987,1.123-2.711L17.726,.854c.195-.195,.195-.512,0-.707s-.512-.195-.707,0l-4.603,4.603c-.913,.913-1.416,2.127-1.416,3.418,0,1.122,.381,2.186,1.081,3.045L.146,23.146c-.195,.195-.195,.512,0,.707,.098,.098,.226,.146,.354,.146s.256-.049,.354-.146L12.788,11.919c.859,.7,1.923,1.081,3.045,1.081,1.291,0,2.505-.503,3.418-1.416l4.603-4.603c.195-.195,.195-.512,0-.707Z"/></svg>
