<?xml version="1.0" encoding="UTF-8"?>
<svg xmlns="http://www.w3.org/2000/svg" id="Layer_1" data-name="Layer 1" width="512" height="512" viewBox="0 0 24 24"><path d="M7.122,4.829c-.197-.193-.2-.511-.006-.707L10.604,.579c.382-.382,.911-.575,1.411-.579,.5,.004,.999,.195,1.379,.576l3.49,3.546c.194,.196,.191,.514-.006,.707s-.514,.191-.707-.006l-3.487-3.543c-.056-.057-.118-.104-.184-.144V12.5c0,.276-.224,.5-.5,.5s-.5-.224-.5-.5V1.138c-.066,.04-.129,.088-.187,.146l-3.484,3.54c-.195,.197-.511,.199-.707,.006ZM23.174,22.354c-.484,.416-1.111,.646-1.765,.646-1.168,0-2.315-.719-2.667-1.673-.073-.196-.26-.327-.469-.327s-.396,.13-.469,.327c-.352,.954-1.499,1.673-2.667,1.673s-2.315-.719-2.667-1.673c-.146-.393-.793-.393-.938,0-.352,.954-1.499,1.673-2.667,1.673s-2.315-.719-2.667-1.673c-.146-.393-.793-.393-.938,0-.352,.954-1.499,1.673-2.667,1.673-.654,0-1.281-.229-1.766-.646-.208-.179-.524-.156-.705,.054-.18,.209-.156,.525,.054,.705,.666,.572,1.524,.887,2.417,.887,1.239,0,2.434-.594,3.136-1.494,.703,.9,1.897,1.494,3.136,1.494s2.434-.594,3.136-1.494c.703,.9,1.897,1.494,3.137,1.494s2.434-.594,3.136-1.494c.702,.9,1.896,1.494,3.136,1.494,.893,0,1.751-.315,2.417-.888,.209-.18,.233-.496,.053-.705-.179-.209-.495-.233-.705-.053ZM.174,17.113c.666,.572,1.524,.887,2.417,.887,1.239,0,2.434-.594,3.136-1.494,.703,.9,1.897,1.494,3.136,1.494s2.434-.594,3.136-1.494c.703,.9,1.897,1.494,3.137,1.494s2.434-.594,3.136-1.494c.702,.9,1.896,1.494,3.136,1.494,.893,0,1.751-.315,2.417-.888,.209-.18,.233-.496,.053-.705-.179-.208-.495-.233-.705-.053-.484,.416-1.111,.646-1.765,.646-1.168,0-2.315-.719-2.667-1.673-.073-.196-.26-.327-.469-.327s-.396,.13-.469,.327c-.352,.954-1.499,1.673-2.667,1.673s-2.315-.719-2.667-1.673c-.146-.393-.793-.393-.938,0-.352,.954-1.499,1.673-2.667,1.673s-2.315-.719-2.667-1.673c-.146-.393-.793-.393-.938,0-.352,.954-1.499,1.673-2.667,1.673-.654,0-1.281-.229-1.766-.646-.208-.179-.524-.156-.705,.054-.18,.209-.156,.525,.054,.705Z"/></svg>
