<?xml version="1.0" encoding="UTF-8"?>
<svg xmlns="http://www.w3.org/2000/svg" id="Layer_1" data-name="Layer 1" viewBox="0 0 24 24" width="512" height="512"><path d="m17.718,7.426l-3.643,9.72c-.352.842-1.144,1.354-2.075,1.354s-1.724-.513-2.068-1.338l-3.896-9.727c-.103-.256.022-.547.278-.649.256-.102.547.021.65.278l3.893,9.72c.22.526.735.716,1.143.716s.923-.189,1.146-.723l3.636-9.703c.097-.258.387-.392.644-.292.259.097.39.385.293.644Zm6.282,4.574c0,6.617-5.383,12-12,12S0,18.617,0,12,5.383,0,12,0s12,5.383,12,12Zm-1,0c0-6.065-4.935-11-11-11S1,5.935,1,12s4.935,11,11,11,11-4.935,11-11Z"/></svg>
