<?xml version="1.0" encoding="UTF-8"?>
<svg xmlns="http://www.w3.org/2000/svg" id="Layer_1" data-name="Layer 1" viewBox="0 0 24 24" width="512" height="512"><path d="M19.5,0H4.5C2.019,0,0,2.019,0,4.5v15c0,2.481,2.019,4.5,4.5,4.5h15c2.481,0,4.5-2.019,4.5-4.5V4.5c0-2.481-2.019-4.5-4.5-4.5Zm3.5,19.5c0,1.93-1.57,3.5-3.5,3.5H4.5c-1.93,0-3.5-1.57-3.5-3.5V4.5c0-1.93,1.57-3.5,3.5-3.5h15c1.93,0,3.5,1.57,3.5,3.5v15ZM15,4h-6c-1.103,0-2,.897-2,2v4.799c0,2.656,1.977,4.929,4.5,5.176v3.025h-2c-.276,0-.5,.224-.5,.5s.224,.5,.5,.5h5c.276,0,.5-.224,.5-.5s-.224-.5-.5-.5h-2v-3.024c1.059-.103,2.048-.54,2.856-1.273,1.044-.948,1.644-2.297,1.644-3.703V6c0-1.103-.897-2-2-2Zm1,7c0,2.209-1.791,4-4,4s-4-1.791-4-4V6c0-.552,.448-1,1-1h2.105s-1.544,2.521-1.557,2.562c-.104,.341-.041,.701,.171,.987,.212,.287,.539,.451,.896,.451h2.78c.041,0,.072,.019,.091,.055s.018,.072-.013,.119l-1.898,3.063c-.146,.234-.073,.542,.162,.688,.082,.051,.173,.075,.263,.075,.167,0,.331-.084,.425-.237l1.89-3.05c.225-.339,.246-.772,.053-1.131-.193-.359-.565-.582-.973-.582h-2.78c-.048,0-.077-.025-.092-.046-.011-.015-.021-.035-.023-.062l1.779-2.892h2.721c.552,0,1,.448,1,1v5Z"/></svg>
