<?xml version="1.0" encoding="UTF-8"?>
<svg xmlns="http://www.w3.org/2000/svg" id="Layer_1" data-name="Layer 1" viewBox="0 0 24 24" width="512" height="512"><path d="M19.5,0H4.5C2.02,0,0,2.02,0,4.5v15c0,2.48,2.02,4.5,4.5,4.5h15c2.48,0,4.5-2.02,4.5-4.5V4.5c0-2.48-2.02-4.5-4.5-4.5Zm3.5,19.5c0,1.93-1.57,3.5-3.5,3.5H4.5c-1.93,0-3.5-1.57-3.5-3.5V4.5c0-1.93,1.57-3.5,3.5-3.5h15c1.93,0,3.5,1.57,3.5,3.5v15ZM7,10c1.65,0,3-1.35,3-3s-1.35-3-3-3-3,1.35-3,3,1.35,3,3,3Zm0-5c1.1,0,2,.9,2,2s-.9,2-2,2-2-.9-2-2,.9-2,2-2Zm8.5,5h3c.83,0,1.5-.67,1.5-1.5v-3c0-.83-.67-1.5-1.5-1.5h-3c-.83,0-1.5,.67-1.5,1.5v3c0,.83,.67,1.5,1.5,1.5Zm-.5-4.5c0-.28,.22-.5,.5-.5h3c.28,0,.5,.22,.5,.5v3c0,.28-.22,.5-.5,.5h-3c-.28,0-.5-.22-.5-.5v-3Zm-6.93,7.95c-.59-.59-1.56-.59-2.15,0l-1.98,1.98c-.29,.29-.45,.67-.45,1.07s.16,.79,.45,1.07l1.98,1.98c.3,.3,.69,.44,1.07,.44s.78-.15,1.07-.44l1.98-1.98c.29-.29,.45-.67,.45-1.07s-.16-.79-.45-1.07l-1.98-1.98Zm1.27,3.42l-1.98,1.98c-.2,.2-.53,.2-.74,0l-1.98-1.98c-.1-.1-.15-.23-.15-.37s.05-.27,.15-.37l1.98-1.98c.1-.1,.23-.15,.37-.15s.27,.05,.37,.15l1.98,1.98h0c.1,.1,.15,.23,.15,.37s-.05,.27-.15,.37Zm8.9-2.53c-.54-.86-1.94-.86-2.48,0l-2.14,3.42c-.29,.46-.3,1.01-.04,1.48,.26,.47,.74,.75,1.28,.75h4.28c.54,0,1.02-.28,1.28-.75,.26-.47,.25-1.03-.04-1.48l-2.14-3.42Zm1.3,4.42c-.04,.07-.16,.24-.4,.24h-4.28c-.24,0-.36-.17-.4-.24s-.12-.26,.01-.47l2.14-3.42c.12-.2,.31-.22,.39-.22s.27,.02,.39,.22l2.14,3.42c.13,.21,.05,.4,.01,.47Z"/></svg>
