<?xml version="1.0" encoding="UTF-8"?>
<svg xmlns="http://www.w3.org/2000/svg" id="Layer_1" data-name="Layer 1" viewBox="0 0 24 24" width="512" height="512"><path d="m23.824,11.433c-.659-.957-1.413-1.664-2.307-2.16-.976-.541-2.095-.871-3.236-.956.47-1.094.719-2.241.719-3.317,0-1.203-.286-2.555-.729-3.444-.224-.452-.75-.664-1.225-.5-.475.167-.754.663-.648,1.155.068.314.102.636.102.957,0,2.574-2.103,4.832-4.5,4.832s-4.5-2.258-4.5-4.832c0-.321.034-.643.102-.958.105-.491-.172-.987-.649-1.155-.475-.165-1.001.051-1.224.5-.443.89-.729,2.242-.729,3.445,0,1.077.249,2.225.72,3.319h0c-1.147.087-2.267.417-3.238.955-.854.474-1.608,1.197-2.307,2.211-.278.405-.197.932.196,1.281.365.327.978.312,1.371-.037,0,0,.483-.454.64-.542.666-.369,1.418-.564,2.175-.564,1.64,0,3.151.887,3.943,2.316,1.208,2.179.406,5.031-1.751,6.228-.225.125-.604.244-1.039.375-.481.145-.781.628-.697,1.126.083.481.497.831,1.006.831h0c1.159-.051,2.344-.369,3.252-.873,1.262-.7,2.185-1.861,2.736-2.712.75,1.193,1.715,2.156,2.717,2.713.908.503,2.084.82,3.25.872h.002c.496,0,.9-.345.983-.84.083-.488-.234-.985-.722-1.132-.279-.083-.745-.224-.99-.36-2.158-1.197-2.961-4.049-1.753-6.228.583-1.049,1.54-1.81,2.697-2.141,1.158-.33,2.373-.194,3.421.389.23.128.427.302.726.565.376.33.944.329,1.323-.006.376-.335.444-.9.159-1.314Zm-1.723-.12c-1.283-.712-2.768-.881-4.182-.476-1.414.405-2.584,1.334-3.296,2.617-1.471,2.653-.489,6.128,2.143,7.587.339.188.85.342,1.235.458-.996-.044-2.012-.317-2.789-.747-.857-.476-1.693-1.318-2.355-2.371l-.834-1.326-.852,1.314c-.692,1.068-1.538,1.914-2.382,2.382-.777.431-1.802.704-2.79.748.509-.153.923-.284,1.236-.458,2.632-1.459,3.612-4.935,2.141-7.588-.968-1.746-2.814-2.831-4.818-2.831-.927,0-1.846.238-2.661.689-.269.15-.471.342-.646.509l-.251.229c.608-.884,1.252-1.506,1.968-1.903.845-.469,1.823-.756,2.828-.832l1.398-.104-.554-1.288c-.418-.97-.639-1.981-.639-2.924,0-1.043.251-2.249.625-3-.083.384-.125.777-.125,1.168,0,3.107,2.57,5.832,5.5,5.832s5.5-2.725,5.5-5.832c0-.392-.042-.784-.125-1.167.374.75.625,1.956.625,3,0,.942-.221,1.952-.638,2.922l-.555,1.289,1.4.104c.998.074,1.974.362,2.825.833.755.419,1.399,1.025,1.971,1.854-.334-.295-.576-.508-.901-.688Zm-16.476,7.04c-1.168-1.172-1.989-2.637-2.375-4.236-.065-.269.1-.539.369-.603.27-.066.538.101.603.369.343,1.421,1.073,2.723,2.111,3.765.195.196.194.512,0,.707-.098.097-.226.146-.353.146-.128,0-.256-.049-.354-.147Zm15.124-4.236c-.385,1.599-1.207,3.064-2.375,4.236-.098.098-.226.147-.354.147-.127,0-.255-.048-.353-.146-.195-.195-.196-.511,0-.707,1.038-1.042,1.768-2.344,2.111-3.765.065-.268.335-.435.603-.369.269.064.434.334.369.603ZM9.022,4.02c-.081-.264.067-.543.331-.625,1.711-.524,3.583-.524,5.294,0,.264.081.412.361.331.625-.066.215-.264.354-.478.354-.048,0-.098-.007-.147-.022-1.52-.467-3.187-.467-4.706,0-.269.083-.544-.068-.625-.332Zm2.978,5.98c-1.103,0-2,.897-2,2s.897,2,2,2,2-.897,2-2-.897-2-2-2Zm0,3c-.551,0-1-.449-1-1s.449-1,1-1,1,.449,1,1-.449,1-1,1Z"/></svg>
