<?xml version="1.0" encoding="UTF-8"?>
<svg xmlns="http://www.w3.org/2000/svg" id="arrow-circle-down" viewBox="0 0 24 24" width="512" height="512"><path d="M23.5,5c-.276,0-.5,.224-.5,.5v5.599c-.124-.321-.31-.617-.561-.867l-5.086-5.086c-.195-.195-.512-.195-.707,0s-.195,.512,0,.707l5.086,5.086c.16,.16,.275,.353,.349,.561H.5c-.276,0-.5,.224-.5,.5s.224,.5,.5,.5H22.081c-.074,.208-.188,.4-.349,.561l-5.086,5.086c-.195,.195-.195,.512,0,.707,.098,.098,.226,.146,.354,.146s.256-.049,.354-.146l5.086-5.086c.251-.25,.437-.546,.561-.867v5.599c0,.276,.224,.5,.5,.5s.5-.224,.5-.5V5.5c0-.276-.224-.5-.5-.5Z"/></svg>
