<?xml version="1.0" encoding="UTF-8"?>
<svg xmlns="http://www.w3.org/2000/svg" id="Layer_1" data-name="Layer 1" viewBox="0 0 24 24" width="512" height="512"><path d="M16.642,15.479c.265-.078,.416-.356,.338-.621-.078-.265-.358-.417-.621-.338l-8.271,2.442,1.387-2.189c.147-.233,.078-.542-.155-.69-.232-.146-.541-.08-.69,.155,0,0-2.106,3.325-2.117,3.345h0c-.548,1.034-.661,2.22-.317,3.339,.577,1.881,2.313,3.094,4.191,3.094,.428,0,.863-.063,1.294-.195l1.173-.391c.677-.226,1.135-.855,1.139-1.566,.016-3.93,.021-5.153-.098-5.574l2.749-.812Zm-3.65,1.101c.006,.144,.017,.972,0,5.28-.002,.282-.185,.532-.455,.622l-1.161,.387c-1.784,.547-3.679-.457-4.225-2.239-.248-.808-.188-1.661,.151-2.393l5.689-1.679c0,.007,0,.015,.002,.022Zm-4.991-8.58c.552,0,1,.448,1,1s-.448,1-1,1-1-.448-1-1,.448-1,1-1Zm8,3c-.552,0-1-.448-1-1s.448-1,1-1,1,.448,1,1-.448,1-1,1ZM5.703,6.9c-.221-.164-.27-.473-.106-.695,.035-.049,.897-1.205,2.403-1.205,2.007,0,2.926,2.218,2.964,2.313,.103,.255-.021,.545-.275,.649-.062,.025-.126,.037-.188,.037-.197,0-.384-.118-.463-.311-.007-.017-.708-1.688-2.037-1.688-.988,0-1.573,.765-1.598,.797-.166,.221-.476,.266-.699,.103Zm18.297,5.1c0,4.822-2.867,9.158-7.304,11.046-.064,.027-.131,.04-.196,.04-.194,0-.379-.114-.46-.304-.108-.254,.01-.548,.264-.656,4.068-1.731,6.696-5.706,6.696-10.126,0-6.065-4.935-11-11-11S1,5.935,1,12c0,2.748,1.02,5.379,2.869,7.409,.187,.204,.172,.521-.032,.707-.203,.187-.52,.172-.706-.033C1.111,17.869,0,14.998,0,12,0,5.383,5.383,0,12,0s12,5.383,12,12Z"/></svg>
