<?xml version="1.0" encoding="UTF-8"?>
<svg xmlns="http://www.w3.org/2000/svg" id="Layer_1" data-name="Layer 1" width="512" height="512" viewBox="0 0 24 24"><path d="M14.5,24c-.276,0-.5-.224-.5-.5v-5c0-.276,.224-.5,.5-.5s.5,.224,.5,.5v5c0,.276-.224,.5-.5,.5Zm-8,0c-.276,0-.5-.224-.5-.5v-5c0-.276,.224-.5,.5-.5s.5,.224,.5,.5v5c0,.276-.224,.5-.5,.5Zm12-2c-.276,0-.5-.224-.5-.5v-5c0-.276,.224-.5,.5-.5s.5,.224,.5,.5v5c0,.276-.224,.5-.5,.5Zm-8,0c-.276,0-.5-.224-.5-.5v-5c0-.276,.224-.5,.5-.5s.5,.224,.5,.5v5c0,.276-.224,.5-.5,.5Zm-6.972-2.398c-.064,0-.338-.103-.338-.103-1.576-.729-2.724-2.162-3.069-3.834-.391-1.89,.199-3.805,1.577-5.122,.329-.314,.469-.82,.387-1.388-.135-.923-.107-1.863,.083-2.796C2.804,3.222,5.338,.724,8.473,.143c3.574-.671,7.061,1.056,8.675,4.278,.194,.389,.56,.668,1.001,.767,3.521,.79,5.98,3.984,5.847,7.597-.068,1.839-.854,3.589-2.212,4.928-.195,.192-.512,.191-.707-.006-.193-.196-.191-.513,.006-.707,1.175-1.158,1.854-2.668,1.913-4.252,.116-3.131-2.014-5.899-5.065-6.583-.735-.165-1.347-.638-1.677-1.296-1.412-2.819-4.465-4.325-7.598-3.743C5.917,1.633,3.703,3.816,3.147,6.559c-.167,.819-.191,1.645-.074,2.452,.13,.893-.119,1.714-.685,2.255-1.128,1.078-1.609,2.646-1.289,4.196,.282,1.363,1.22,2.533,2.511,3.13l.108,.048c.255,.105,.376,.397,.271,.653-.08,.192-.266,.309-.462,.309Z"/></svg>
