<?xml version="1.0" encoding="UTF-8"?>
<svg xmlns="http://www.w3.org/2000/svg" id="Layer_1" data-name="Layer 1" viewBox="0 0 24 24" width="512" height="512"><path d="m18,3.762V.5c0-.276-.224-.5-.5-.5s-.5.224-.5.5v2.776c-.471-.168-.971-.276-1.5-.276h-7c-.529,0-1.029.108-1.5.276V.5c0-.276-.224-.5-.5-.5s-.5.224-.5.5v3.262c-1.205.808-2,2.182-2,3.738v9c0,1.557.795,2.93,2,3.738v3.262c0,.276.224.5.5.5s.5-.224.5-.5v-2.776c.471.168.971.276,1.5.276h7c.529,0,1.029-.108,1.5-.276v2.776c0,.276.224.5.5.5s.5-.224.5-.5v-3.262c1.205-.808,2-2.182,2-3.738V7.5c0-1.557-.795-2.93-2-3.738Zm1,12.738c0,1.93-1.57,3.5-3.5,3.5h-7c-1.93,0-3.5-1.57-3.5-3.5V7.5c0-1.93,1.57-3.5,3.5-3.5h7c1.93,0,3.5,1.57,3.5,3.5v9Zm-5.25-7.5c-.722,0-1.344.307-1.75.803-.406-.496-1.028-.803-1.75-.803-1.24,0-2.25,1.072-2.25,2.39,0,1.52,1.604,3.143,2.949,4.237.31.25.68.376,1.051.376s.742-.126,1.052-.377c1.345-1.094,2.948-2.717,2.948-4.236,0-1.317-1.01-2.39-2.25-2.39Zm-1.328,5.85c-.248.201-.595.2-.843,0-1.639-1.334-2.579-2.595-2.579-3.461,0-.767.561-1.39,1.25-1.39.725,0,1.25.525,1.25,1.25,0,.276.224.5.5.5s.5-.224.5-.5c0-.725.525-1.25,1.25-1.25.689,0,1.25.623,1.25,1.39,0,.866-.94,2.127-2.578,3.46Z"/></svg>
