<?xml version="1.0" encoding="UTF-8"?>
<svg xmlns="http://www.w3.org/2000/svg" id="Layer_1" data-name="Layer 1" viewBox="0 0 24 24" width="512" height="512"><path d="M8,17c0,.552-.448,1-1,1s-1-.448-1-1,.448-1,1-1,1,.448,1,1ZM1,22c-.552,0-1,.448-1,1s.448,1,1,1,1-.448,1-1-.448-1-1-1Zm.854-4.854c-.195-.195-.512-.195-.707,0s-.195,.512,0,.707l5,5c.098,.098,.226,.146,.354,.146s.256-.049,.354-.146c.195-.195,.195-.512,0-.707L1.854,17.146Zm8.146-4.146c-.552,0-1,.448-1,1s.448,1,1,1,1-.448,1-1-.448-1-1-1Zm13.944-6.713C22.712,3.483,20.486,1.265,17.677,.042c-.255-.112-.548,.005-.658,.259-.11,.253,.006,.548,.259,.657,2.578,1.123,4.62,3.158,5.75,5.731,.083,.188,.266,.299,.458,.299,.067,0,.135-.014,.201-.042,.253-.111,.368-.406,.256-.659Zm-8.777,7.585c.095,.086,.214,.128,.333,.128,.137,0,.274-.057,.373-.166,.727-.812,1.127-1.783,1.127-2.734,0-2.261-1.839-4.1-4.1-4.1-1.568,0-2.976,.873-3.673,2.277-.123,.247-.022,.548,.225,.671,.249,.121,.548,.021,.67-.226,.528-1.062,1.592-1.723,2.778-1.723,1.709,0,3.1,1.391,3.1,3.1,0,.705-.31,1.438-.873,2.066-.184,.206-.167,.522,.039,.706ZM13.015,3.001c-3.767,.055-7.283,2.865-8.004,6.399-.055,.271,.119,.534,.39,.59,.271,.056,.535-.119,.59-.391,.631-3.091,3.724-5.551,7.04-5.599,1.861-.05,3.603,.674,4.923,1.975,1.321,1.302,2.048,3.039,2.048,4.893,0,1.375-.407,2.702-1.178,3.837-.824,1.215-.823,2.696-.822,3.795,0,2.523-2.139,4.5-4.869,4.5-.276,0-.5,.224-.5,.5s.224,.5,.5,.5c3.291,0,5.869-2.416,5.869-5.5,0-1.012-.002-2.272,.649-3.232,.884-1.302,1.351-2.823,1.351-4.399,0-2.123-.833-4.114-2.346-5.604-1.512-1.49-3.501-2.304-5.639-2.263Z"/></svg>
