<?xml version="1.0" encoding="UTF-8"?>
<svg xmlns="http://www.w3.org/2000/svg" id="Layer_1" data-name="Layer 1" viewBox="0 0 24 24" width="512" height="512"><path d="M19.5,8h-.5v-3.5c0-2.481-2.019-4.5-4.5-4.5h-5c-2.481,0-4.5,2.019-4.5,4.5v3.5h-.5c-1.93,0-3.5,1.57-3.5,3.5v5c0,1.379,1.122,2.5,2.5,2.5H11.5v4H6.5c-.276,0-.5,.224-.5,.5s.224,.5,.5,.5h11c.276,0,.5-.224,.5-.5s-.224-.5-.5-.5h-5v-4h8c1.378,0,2.5-1.121,2.5-2.5v-5c0-1.93-1.57-3.5-3.5-3.5Zm0,1c1.378,0,2.5,1.121,2.5,2.5v3.001c-.418-.315-.938-.501-1.5-.501h-1.5v-5h.5ZM6,4.5c0-1.93,1.57-3.5,3.5-3.5h5c1.93,0,3.5,1.57,3.5,3.5V14H6V4.5Zm-1.5,4.5h.5v5h-1.5c-.562,0-1.082,.187-1.5,.501v-3.001c0-1.379,1.122-2.5,2.5-2.5Zm16,9H3.5c-.827,0-1.5-.673-1.5-1.5s.673-1.5,1.5-1.5H20.5c.827,0,1.5,.673,1.5,1.5s-.673,1.5-1.5,1.5Z"/></svg>
