<?xml version="1.0" encoding="UTF-8"?>
<svg xmlns="http://www.w3.org/2000/svg" id="Layer_1" data-name="Layer 1" viewBox="0 0 24 24" width="512" height="512"><path d="M17.088,6c-.412,0-1.183,.102-1.631,.382-.557-.253-1.107-.382-1.611-.382h-1.337c.139-3.931,1.921-5,2.991-5,.827,0,1.5,.673,1.5,1.5,0,.276-.225,.5-.5,.5s-.5,.224-.5,.5,.224,.5,.5,.5c.827,0,1.5-.673,1.5-1.5,0-1.378-1.121-2.5-2.5-2.5-1.125,0-2.841,.786-3.607,3.399-.622-1.452-1.705-2.613-3.169-3.346-.248-.123-.547-.023-.671,.224-.124,.247-.023,.547,.224,.671,1.94,.97,3.067,2.753,3.208,5.053h-1.331c-.505,0-1.055,.129-1.612,.383-.448-.28-1.218-.383-1.631-.383C3.514,6,0,9.366,0,15s3.514,9,6.912,9c.47,0,.966-.119,1.418-.339,.501,.222,1.014,.339,1.52,.339,.37,0,.719-.076,1.041-.226,.342,.15,.711,.226,1.109,.226s.768-.076,1.109-.226c.323,.15,.672,.226,1.041,.226,.507,0,1.02-.117,1.52-.339,.448,.217,.954,.339,1.417,.339,3.397,0,6.912-3.366,6.912-9s-3.515-9-6.912-9ZM6.912,23c-2.906,0-5.912-2.992-5.912-8S4.006,7,6.912,7c.159,0,.345,.02,.522,.051-1.82,1.381-3.434,4.09-3.434,7.949,0,3.683,1.416,6.539,3.214,7.975-.103,.016-.204,.025-.303,.025Zm-1.912-8c0-4.744,2.75-7.735,4.872-7.983-1.21,1.381-1.872,4.128-1.872,7.983,0,3.911,.645,6.637,1.855,8h-.005c-1.982,0-4.85-2.848-4.85-8Zm6.276,7.836c-.064-.065-.144-.109-.23-.131-1.298-.868-2.046-3.613-2.046-7.704,0-4.935,1.149-8,3-8s3,3.065,3,8c0,4.093-.749,6.838-2.047,7.705-.085,.022-.164,.066-.228,.13-.227,.109-.469,.165-.725,.165s-.497-.056-.724-.164Zm2.869,.164c1.21-1.363,1.855-4.089,1.855-8,0-3.855-.662-6.601-1.872-7.983,2.123,.248,4.872,3.239,4.872,7.983,0,5.151-2.867,8-4.85,8h-.005Zm2.943,0c-.098,0-.2-.009-.302-.025,1.799-1.437,3.214-4.292,3.214-7.975,0-3.858-1.613-6.568-3.434-7.949,.176-.032,.362-.051,.522-.051,2.906,0,5.912,2.992,5.912,8s-3.006,8-5.912,8Z"/></svg>
