<?xml version="1.0" encoding="UTF-8"?>
<svg xmlns="http://www.w3.org/2000/svg" id="Layer_1" data-name="Layer 1" viewBox="0 0 24 24" width="512" height="512"><path d="M21.5,6H4.5c-1.146,0-2.221-.567-2.872-1.499,.634-.907,1.685-1.501,2.872-1.501H23.5c.276,0,.5-.224,.5-.5s-.224-.5-.5-.5H4.5C2.015,2,0,4.015,0,6.5v11c0,2.485,2.015,4.5,4.5,4.5H21.5c1.381,0,2.5-1.119,2.5-2.5V8.5c0-1.381-1.119-2.5-2.5-2.5Zm1.5,13.5c0,.827-.673,1.5-1.5,1.5H4.5c-1.93,0-3.5-1.57-3.5-3.5V6.5c0-.348,.051-.684,.146-1.001,.846,.942,2.064,1.501,3.354,1.501H21.5c.827,0,1.5,.673,1.5,1.5v11Zm-2-5.5c0,.552-.448,1-1,1s-1-.448-1-1,.448-1,1-1,1,.448,1,1Z"/></svg>
