<?xml version="1.0" encoding="UTF-8"?>
<svg xmlns="http://www.w3.org/2000/svg" id="Layer_1" data-name="Layer 1" viewBox="0 0 24 24" width="512" height="512"><path d="M21.391,14.129c.31-.358,.515-.796,.583-1.276,.095-.661-.074-1.319-.475-1.854s-.986-.881-1.646-.975c-.663-.097-1.319,.074-1.854,.475-.741,.555-1.2,1.322-1.496,2.038-.296-.714-.763-1.483-1.504-2.038-1.104-.825-2.673-.603-3.5,.5-.401,.534-.569,1.192-.475,1.854,.068,.48,.273,.918,.583,1.276-1.497,.397-2.609,1.751-2.609,3.371v3c0,.98,.407,1.864,1.058,2.5H4.5c-1.93,0-3.5-1.57-3.5-3.5V9c0-2.072,1.758-3,3.5-3h6.5c1.246,0,2.408,.671,3.032,1.75,.138,.238,.443,.321,.683,.183,.239-.138,.321-.444,.182-.683-.802-1.388-2.296-2.25-3.897-2.25h-2.293l3.146-3.146c.195-.195,.195-.512,0-.707s-.512-.195-.707,0l-3.146,3.146V.5c0-.276-.224-.5-.5-.5s-.5,.224-.5,.5v3.793L3.854,1.146c-.195-.195-.512-.195-.707,0s-.195,.512,0,.707l3.146,3.146h-1.793C1.851,5,0,6.645,0,9v10.5c0,2.481,2.019,4.5,4.5,4.5H20.5c1.93,0,3.5-1.57,3.5-3.5v-3c0-1.62-1.112-2.973-2.609-3.371Zm-2.791-2.829c.32-.241,.716-.34,1.112-.286,.397,.057,.748,.265,.988,.585,.24,.32,.341,.716,.285,1.112s-.265,.747-.586,.988c-.161,.122-.351,.218-.553,.3h-2.756c.151-.716,.54-1.973,1.51-2.699Zm-6.3,.299c.241-.32,.591-.528,.988-.585,.398-.053,.792,.045,1.112,.286,.969,.726,1.358,1.984,1.509,2.699h-2.755c-.202-.082-.392-.178-.554-.301-.32-.24-.528-.591-.585-.987s.044-.792,.285-1.112Zm-2.3,8.9v-3c0-1.379,1.122-2.5,2.5-2.5h3.5v8h-3.5c-1.378,0-2.5-1.121-2.5-2.5Zm13,0c0,1.379-1.122,2.5-2.5,2.5h-3.5l-.002-8h3.502c1.378,0,2.5,1.121,2.5,2.5v3Z"/></svg>
