<?xml version="1.0" encoding="UTF-8"?>
<svg xmlns="http://www.w3.org/2000/svg" id="Layer_1" data-name="Layer 1" width="512" height="512" viewBox="0 0 24 24"><path d="M4.895,18.024c-.099,.127-.246,.193-.396,.193-.107,0-.215-.034-.306-.105C1.333,15.893-.292,12.288,.055,8.931,.511,4.523,4.021,.821,8.399,.127c1.371-.216,2.9-.155,4.196,.17,.633,.16,1.129,.655,1.294,1.293,.166,.641-.02,1.29-.497,1.737-1.523,1.43-2.929,2.907-3.402,5.271-.054,.271-.315,.449-.588,.393-.271-.054-.446-.317-.392-.588,.53-2.651,2.118-4.321,3.698-5.804,.207-.194,.286-.478,.213-.758-.075-.288-.288-.503-.57-.574-1.152-.29-2.572-.346-3.795-.151C4.617,1.739,1.46,5.069,1.05,9.034c-.312,3.021,1.162,6.275,3.757,8.289,.218,.169,.258,.482,.088,.701Zm18.968,2.381c-.401,1.691-1.751,3.047-3.439,3.454-.42,.1-.84,.146-1.253,.14-.736-.013-2.654-.005-4.633,.002-1.252,.005-5.027,.006-5.37-.002-.284-.007-.572-.052-.858-.132-1.046-.298-1.879-1.131-2.176-2.176-.448-1.577,.289-3.214,1.753-3.892,.193-.09,.294-.315,.244-.549-.106-.502-.148-1.02-.124-1.538,.143-3.051,2.644-5.558,5.694-5.705,2.627-.135,5.012,1.441,5.927,3.907,.135,.365,.448,.638,.857,.747,2.5,.672,3.983,3.194,3.378,5.743Zm-3.638-4.777c-.726-.194-1.286-.692-1.535-1.365-.733-1.977-2.203-3.257-4.94-3.257-2.499,.122-4.627,2.254-4.744,4.754-.021,.434,.014,.865,.104,1.283,.146,.693-.183,1.377-.802,1.664h0c-1.031,.478-1.529,1.593-1.211,2.711,.2,.703,.783,1.287,1.486,1.487,.205,.058,.41,.089,.61,.094,.752,.02,3.086,.011,5.341,.002,1.989-.006,3.915-.014,4.654-.002,.337,.015,.666-.031,1.003-.112,1.325-.319,2.385-1.384,2.7-2.712,.479-2.02-.691-4.017-2.665-4.547Z"/></svg>
