<?xml version="1.0" encoding="UTF-8"?>
<svg xmlns="http://www.w3.org/2000/svg" id="Layer_1" data-name="Layer 1" viewBox="0 0 24 24" width="512" height="512"><path d="m18.918,11.33s.002,0,.003,0c-.005.007-.012.014-.003,0Zm-.918,2.67c-.552,0-1,.448-1,1s.448,1,1,1,1-.448,1-1-.448-1-1-1Zm-12,0c-.552,0-1,.448-1,1s.448,1,1,1,1-.448,1-1-.448-1-1-1Zm18,.558c0,3.052-5.271,5.442-12,5.442S0,17.609,0,14.558c0-1.764,1.727-3.23,5-4.25v-.308c0-3.859,3.14-7,7-7s7,3.141,7,7v.308c3.273,1.02,5,2.486,5,4.25Zm-18-3.746c.466.312,2.12,1.188,6,1.188s5.526-.872,6-1.189v-.811c0-3.309-2.691-6-6-6s-6,2.691-6,6v.812Zm17,3.746c0-1.234-1.443-2.37-4.08-3.227.005-.006.009-.013-.003,0-.065.065-1.715,1.67-6.918,1.67s-6.982-1.749-6.918-1.67c-2.638.857-4.082,1.994-4.082,3.228,0,2.146,4.42,4.442,11,4.442s11-2.297,11-4.442Zm-17.918-3.228c.019.028.022.027,0,0h0Zm6.918,3.67c-.552,0-1,.448-1,1s.448,1,1,1,1-.448,1-1-.448-1-1-1Z"/></svg>
