<?xml version="1.0" encoding="UTF-8"?>
<svg xmlns="http://www.w3.org/2000/svg" id="Layer_1" data-name="Layer 1" viewBox="0 0 24 24" width="512" height="512"><path d="M12,15.5v-5.793l-2.146,2.146c-.195,.195-.512,.195-.707,0s-.195-.512,0-.707l3-3c.143-.144,.357-.185,.545-.108,.187,.077,.309,.26,.309,.462v7c0,.276-.224,.5-.5,.5s-.5-.224-.5-.5Zm11.5-3.5c-.276,0-.5,.224-.5,.5,0,3.584-2.916,6.5-6.5,6.5H1.293l3.146-3.146c.195-.195,.195-.512,0-.707s-.512-.195-.707,0L.439,18.439c-.585,.585-.585,1.536,0,2.121l3.293,3.293c.098,.098,.226,.146,.354,.146s.256-.049,.354-.146c.195-.195,.195-.512,0-.707l-3.146-3.146h15.207c4.136,0,7.5-3.364,7.5-7.5,0-.276-.224-.5-.5-.5ZM.5,12c.276,0,.5-.224,.5-.5,0-3.584,2.916-6.5,6.5-6.5h15.207l-3.146,3.146c-.195,.195-.195,.512,0,.707,.098,.098,.226,.146,.354,.146s.256-.049,.354-.146l3.293-3.293c.585-.585,.585-1.536,0-2.121L20.268,.146c-.195-.195-.512-.195-.707,0s-.195,.512,0,.707l3.146,3.146H7.5C3.364,4,0,7.364,0,11.5c0,.276,.224,.5,.5,.5Z"/></svg>
