<?xml version="1.0" encoding="UTF-8"?>
<svg xmlns="http://www.w3.org/2000/svg" id="Layer_1" data-name="Layer 1" viewBox="0 0 24 24" width="512" height="512"><path d="m5.5,19c.276,0,.5-.224.5-.5v-4.5h12v4.5c0,.276.224.5.5.5s.5-.224.5-.5V4.5c0-1.93,1.57-3.5,3.5-3.5.276,0,.5-.224.5-.5s-.224-.5-.5-.5c-2.481,0-4.5,2.019-4.5,4.5v2.5H6v-2.5c0-1.93,1.57-3.5,3.5-3.5.276,0,.5-.224.5-.5s-.224-.5-.5-.5c-2.481,0-4.5,2.019-4.5,4.5v14c0,.276.224.5.5.5Zm12.5-11v5H6v-5h12Zm5.826,15.112c-.666.572-1.524.888-2.417.888-1.239,0-2.434-.594-3.137-1.494-.703.9-1.897,1.494-3.137,1.494s-2.433-.594-3.136-1.494c-.703.9-1.897,1.494-3.137,1.494s-2.433-.594-3.136-1.494c-.703.9-1.897,1.494-3.137,1.494-.893,0-1.751-.315-2.417-.888-.209-.18-.233-.495-.053-.705.181-.209.496-.232.705-.053.484.416,1.111.646,1.765.646,1.168,0,2.315-.72,2.668-1.674.145-.393.793-.393.938,0,.353.954,1.499,1.674,2.667,1.674s2.315-.72,2.668-1.674c.145-.393.793-.393.938,0,.353.954,1.499,1.674,2.667,1.674s2.315-.72,2.668-1.674c.145-.393.793-.393.938,0,.353.954,1.5,1.674,2.668,1.674.653,0,1.28-.229,1.765-.646.211-.18.526-.156.705.053.181.21.156.525-.053.705Z"/></svg>
