<?xml version="1.0" encoding="UTF-8"?>
<svg xmlns="http://www.w3.org/2000/svg" id="Layer_1" data-name="Layer 1" viewBox="0 0 24 24" width="512" height="512"><path d="m12,0C5.383,0,0,5.383,0,12s5.383,12,12,12,12-5.383,12-12S18.617,0,12,0Zm0,23c-6.065,0-11-4.935-11-11S5.935,1,12,1s11,4.935,11,11-4.935,11-11,11Zm8.97-12.646c-.189-1.028-.663-2.108-1.448-3.304-.369-.561-.801-1.079-1.282-1.542-.393-.378-.928-.553-1.465-.499-.53.06-1.003.349-1.296.794l-2.845,4.31c-.2-.068-.411-.113-.634-.113-.218,0-.424.044-.621.109l-2.857-4.311c-.295-.444-.768-.732-1.298-.791-.536-.057-1.07.123-1.46.499-.482.462-.915.981-1.285,1.545-.785,1.194-1.259,2.274-1.448,3.303-.099.537.044,1.084.391,1.501.34.41.841.645,1.373.646l5.28.009c.106.399.331.746.636,1.007-.362.547-1.038,1.565-1.701,2.562l-1.253,1.887c-.248.374-.32.837-.2,1.269.118.423.412.771.806.956,1.146.538,2.369.811,3.638.811s2.495-.272,3.64-.812c.392-.185.685-.532.803-.955.122-.434.05-.896-.198-1.271l-2.941-4.457c.299-.259.519-.602.623-.996l5.28-.009c.532,0,1.033-.235,1.373-.646.347-.417.489-.964.391-1.501Zm-7.97,1.646c0,.552-.448,1-1,1s-1-.448-1-1,.448-1,1-1,1,.448,1,1Zm-8.811-.784c-.156-.188-.221-.437-.175-.681.164-.895.59-1.855,1.3-2.936.329-.5.713-.962,1.142-1.372.178-.171.427-.25.658-.227.238.026.442.15.574.35l2.847,4.297c-.222.24-.384.534-.468.861l-5.272-.009c-.239,0-.454-.102-.606-.284Zm11.221,7.297c.087.133.112.297.069.451-.023.084-.089.237-.266.32-2.018.948-4.402.951-6.426,0-.179-.084-.244-.237-.268-.321-.043-.151-.018-.314.07-.446l1.252-1.886c.952-1.433,1.472-2.218,1.753-2.673.131.027.266.041.405.041s.274-.014.405-.041l3.005,4.554Zm4.4-7.297c-.152.183-.367.284-.606.284l-5.272.009c-.082-.323-.242-.613-.46-.852l2.841-4.304c.132-.199.335-.324.573-.351.239-.025.482.055.66.226.428.411.812.873,1.14,1.371.71,1.08,1.136,2.041,1.3,2.936.046.244-.019.492-.175.681Z"/></svg>
