<?xml version="1.0" encoding="UTF-8"?>
<svg xmlns="http://www.w3.org/2000/svg" id="Layer_1" data-name="Layer 1" viewBox="0 0 24 24" width="512" height="512"><path d="m15.963,11.603c-.389-.388-.904-.602-1.453-.602-.549,0-1.064.214-1.406.562l-.104.081v-.643c0-1.103-.897-2-2-2h-4c-1.103,0-2,.897-2,2v4c0,1.103.897,2,2,2h3.753l2.305,2.399c.388.388.903.602,1.452.602s1.064-.213,1.453-.602l2.445-2.446c.389-.388.603-.904.603-1.453s-.214-1.064-.603-1.452l-2.445-2.446Zm-9.963,3.397v-4c0-.551.448-1,1-1h4c.552,0,1,.449,1,1v4c0,.551-.448,1-1,1h-4c-.552,0-1-.449-1-1Zm11.701,1.246l-2.445,2.446c-.397.398-1.099.392-1.484.007l-1.85-1.925c.64-.334,1.078-1.003,1.078-1.774v-2.088l.765-.602c.199-.199.464-.309.745-.309s.547.11.746.309l2.445,2.446c.199.199.31.464.31.745s-.11.546-.31.746ZM23.335,1.852c-.49-.541-1.188-.852-1.917-.852H2.6c-.726.001-1.422.31-1.912.847C.195,2.387-.048,3.114.02,3.843l1.385,14.894c.226,2.43,2.229,4.263,4.661,4.263h11.788c2.415-.001,4.417-1.821,4.657-4.234l1.484-14.908c.073-.731-.168-1.463-.66-2.007Zm-.334,1.908l-1.484,14.908c-.189,1.899-1.765,3.331-3.663,3.331H6.065c-1.912.001-3.488-1.441-3.665-3.354L1.016,3.75c-.042-.456.104-.892.411-1.229.305-.335.722-.519,1.173-.519h18.818c.453-.001.87.184,1.176.521.304.335.451.786.407,1.237Z"/></svg>
