<?xml version="1.0" encoding="UTF-8"?>
<svg xmlns="http://www.w3.org/2000/svg" id="arrow-circle-down" viewBox="0 0 24 24" width="512" height="512"><path d="M21.5,0h-6c-.276,0-.5,.224-.5,.5s.224,.5,.5,.5h6c.231,0,.447,.057,.643,.15L12,11.293,1.857,1.15c.196-.094,.412-.15,.643-.15h6c.276,0,.5-.224,.5-.5s-.224-.5-.5-.5H2.5C1.122,0,0,1.121,0,2.5v6c0,.276,.224,.5,.5,.5s.5-.224,.5-.5V2.5c0-.231,.057-.447,.15-.643L11.293,12,1.15,22.143c-.094-.196-.15-.412-.15-.643v-6c0-.276-.224-.5-.5-.5s-.5,.224-.5,.5v6c0,1.379,1.122,2.5,2.5,2.5h6c.276,0,.5-.224,.5-.5s-.224-.5-.5-.5H2.5c-.231,0-.447-.057-.643-.15L12,12.707l10.143,10.143c-.196,.094-.412,.15-.643,.15h-6c-.276,0-.5,.224-.5,.5s.224,.5,.5,.5h6c1.378,0,2.5-1.121,2.5-2.5v-6c0-.276-.224-.5-.5-.5s-.5,.224-.5,.5v6c0,.231-.057,.447-.15,.643L12.707,12,22.85,1.857c.094,.196,.15,.412,.15,.643v6c0,.276,.224,.5,.5,.5s.5-.224,.5-.5V2.5c0-1.379-1.122-2.5-2.5-2.5Z"/></svg>
