<?xml version="1.0" encoding="UTF-8"?>
<svg xmlns="http://www.w3.org/2000/svg" id="Layer_1" data-name="Layer 1" viewBox="0 0 24 24" width="512" height="512"><path d="m4.5,5c1.378,0,2.5-1.121,2.5-2.5S5.878,0,4.5,0s-2.5,1.121-2.5,2.5,1.122,2.5,2.5,2.5Zm0-4c.827,0,1.5.673,1.5,1.5s-.673,1.5-1.5,1.5-1.5-.673-1.5-1.5.673-1.5,1.5-1.5Zm18.5,22.5c0,.276-.224.5-.5.5h-1.264c-.953,0-1.81-.529-2.236-1.382l-2.395-4.789c-.256-.512-.77-.829-1.341-.829h-6.712c-1.143,0-2.138-.772-2.421-1.879l-1.922-7.497c-.068-.268.093-.54.36-.608.267-.07.54.094.608.36l.929,3.624h7.394c.276,0,.5.224.5.5s-.224.5-.5.5h-7.138l.737,2.873c.17.663.767,1.127,1.453,1.127h6.712c.953,0,1.81.529,2.236,1.382l2.395,4.789c.256.512.77.829,1.341.829h1.264c.276,0,.5.224.5.5Zm-8-4c0,.276-.224.5-.5.5h-6.138c-2.541,0-4.738-1.724-5.342-4.191L1.014,7.619c-.065-.269.099-.539.367-.604.268-.066.539.097.605.366l2.005,8.189c.494,2.02,2.292,3.43,4.371,3.43h6.138c.276,0,.5.224.5.5Z"/></svg>
