<?xml version="1.0" encoding="UTF-8"?>
<svg xmlns="http://www.w3.org/2000/svg" id="Layer_1" data-name="Layer 1" viewBox="0 0 24 24" width="512" height="512"><path d="m23.583.84c-.399-.534-1.01-.84-1.677-.84h-6.561C9.376,0,4.299,2.437.254,7.241c-.314.374-.339.894-.062,1.296.277.401.776.562,1.233.4.288-.102.601-.218.934-.342,1.804-.673,4.273-1.595,6.884-1.595h12.409l-1.699,6h-6.453c-.276,0-.5.224-.5.5s.224.5.5.5h6.17l-2.652,9.364c-.075.266.079.542.346.617.045.013.091.019.136.019.219,0,.419-.144.481-.364L23.913,2.686c.189-.639.068-1.312-.33-1.846Zm-.631,1.568l-1.017,3.592h-12.692c-2.79,0-5.358.958-7.233,1.658-.327.122-.634.236-.916.336l-.074-.108C4.865,3.316,9.686,1,15.346,1h6.561c.348,0,.667.16.875.438.209.279.271.63.171.97Z"/></svg>
