<?xml version="1.0" encoding="UTF-8"?>
<svg xmlns="http://www.w3.org/2000/svg" id="Layer_1" data-name="Layer 1" viewBox="0 0 24 24" width="512" height="512"><path d="M22.002,2.705l1.144,1.148c.098,.098,.227,.147,.354,.147s.256-.049,.353-.146c.196-.195,.196-.511,.002-.707L20.859,.142c-.195-.196-.514-.195-.707,0-.196,.195-.196,.511-.002,.707l1.145,1.149-4.543,4.543c-.6,.601-1.4,.949-2.196,.957-.384-.011-.852-.086-1.258-.267-1.002-.447-2.126-.261-2.861,.475L.771,17.371c-.386,.386-.632,.879-.711,1.428-.131,.923-.153,2.668,1.16,3.981,.984,.985,2.21,1.219,3.151,1.219,.315,0,.599-.026,.83-.059,.547-.078,1.04-.323,1.427-.71l9.667-9.667c.734-.733,.92-1.859,.473-2.869-.175-.394-.264-.803-.264-1.217,0-.808,.348-1.621,.956-2.229l4.542-4.542ZM5.921,22.522c-.232,.233-.53,.38-.86,.427-.74,.104-2.127,.131-3.134-.876-.956-.956-1.005-2.232-.877-3.133,.048-.332,.195-.63,.428-.862l7.872-7.872c.599,.622,.727,1.41,.727,1.966,0,.833,.334,1.827,1.918,1.827,.499,.005,1.203,.126,1.796,.653l-7.87,7.869ZM15.588,12.856l-1.089,1.089c-.663-.608-1.521-.935-2.498-.945-.541,0-.924-.06-.924-.827,0-1.066-.352-1.99-1.019-2.674l1.087-1.087c.277-.277,.651-.421,1.046-.421,.232,0,.471,.05,.701,.152,.538,.24,1.089,.342,1.675,.354,.375-.003,.749-.063,1.111-.174-.114,.376-.174,.765-.174,1.154,0,.555,.117,1.101,.35,1.623,.278,.628,.174,1.317-.266,1.756Zm5.412,5.144c-1.654,0-3,1.346-3,3s1.346,3,3,3,3-1.346,3-3-1.346-3-3-3Zm0,5c-1.103,0-2-.897-2-2s.897-2,2-2,2,.897,2,2-.897,2-2,2Z"/></svg>
