<?xml version="1.0" encoding="UTF-8"?>
<svg xmlns="http://www.w3.org/2000/svg" id="Layer_1" data-name="Layer 1" viewBox="0 0 24 24">
  <path d="m22.804.247c-.57-.328-1.198-.331-1.726-.002-2.827,1.763-5.525,1.941-8.136,2.113-2.907.191-5.653.373-8.045,2.776-1.924,1.933-2.952,4.504-2.896,7.238.051,2.401.935,4.642,2.51,6.409L.146,23.146c-.195.195-.195.512,0,.707.098.098.226.146.354.146s.256-.049.354-.146l4.359-4.358c1.771,1.632,4.034,2.505,6.455,2.505.301,0,.604-.013.909-.041,2.995-.267,5.769-1.819,7.611-4.259,2.308-3.057,3.591-8.21,3.812-15.317.026-.838-.466-1.717-1.195-2.137Zm-3.415,16.851c-1.672,2.215-4.188,3.624-6.901,3.866-2.478.222-4.825-.564-6.606-2.212-1.806-1.669-2.828-3.942-2.879-6.399-.051-2.46.874-4.773,2.604-6.512,2.125-2.136,4.57-2.297,7.401-2.484,2.606-.171,5.56-.366,8.6-2.262.213-.131.447-.125.697.02.417.24.709.761.694,1.239-.211,6.798-1.459,11.897-3.61,14.746Zm-4.389-10.048c-1.08,0-1.977.479-2.5,1.254-.523-.774-1.42-1.254-2.5-1.254-1.654,0-3,1.436-3,3.2,0,2.291,2.803,5.137,4.284,6.322.358.286.787.429,1.216.429s.857-.143,1.216-.429c1.481-1.185,4.284-4.031,4.284-6.322,0-1.765-1.346-3.2-3-3.2Zm-1.909,8.741c-.348.278-.834.278-1.182,0-1.512-1.208-3.909-3.781-3.909-5.541,0-1.213.897-2.2,2-2.2,1.178,0,2,.804,2,1.955,0,.276.224.5.5.5s.5-.224.5-.5c0-1.151.822-1.955,2-1.955,1.103,0,2,.987,2,2.2,0,1.76-2.397,4.333-3.909,5.541Z"/>
</svg>
