<?xml version="1.0" encoding="UTF-8"?>
<svg xmlns="http://www.w3.org/2000/svg" id="Layer_1" data-name="Layer 1" viewBox="0 0 24 24" width="512" height="512"><path d="M19.5,21l-15-.004c-2.481,0-4.5-2.019-4.5-4.5v-1.423c0-.136,.055-.266,.153-.36,.098-.094,.225-.145,.365-.14h.007c1.42,0,2.556-1.139,2.556-2.537s-1.14-2.541-2.541-2.541c-.276,0-.541-.22-.541-.496v-1.504C0,5.015,2.019,2.996,4.5,2.996l15,.004c2.481,0,4.5,2.019,4.5,4.5v1.5c0,.276-.224,.5-.5,.5-1.378,0-2.5,1.122-2.5,2.5s1.122,2.5,2.5,2.5c.276,0,.5,.224,.5,.5v1.5c0,2.481-2.019,4.5-4.5,4.5ZM1,15.548v.948c0,1.93,1.57,3.5,3.5,3.5l15,.004c1.93,0,3.5-1.57,3.5-3.5v-1.036c-1.694-.243-3-1.704-3-3.464s1.306-3.221,3-3.464v-1.036c0-1.93-1.57-3.5-3.5-3.5l-15-.004c-1.93,0-3.5,1.57-3.5,3.5v1.037c1.752,.237,3.082,1.718,3.082,3.504,0,1.797-1.345,3.286-3.082,3.511Z"/></svg>
