<?xml version="1.0" encoding="UTF-8"?>
<svg xmlns="http://www.w3.org/2000/svg" id="Layer_1" data-name="Layer 1" viewBox="0 0 24 24" width="512" height="512"><path d="M22.341,10.309c-.423-.313-.965-.39-1.451-.203-.694,.268-1.338,.588-1.936,.948-.443-6.295-3.977-11.055-6.954-11.055S5.49,4.76,5.046,11.055c-.598-.36-1.242-.68-1.936-.948-.487-.188-1.028-.111-1.451,.203-.452,.335-.697,.875-.655,1.445,.622,8.414,6.136,12.246,10.996,12.246s10.374-3.832,10.996-12.246c.042-.57-.203-1.11-.655-1.445ZM2.002,11.681c-.017-.226,.077-.438,.252-.568,.063-.046,.173-.109,.313-.109,.056,0,.117,.01,.182,.035,.858,.332,1.635,.753,2.339,1.238,.067,.1,.17,.175,.29,.207,4.664,3.426,5.956,9.652,6.111,10.497-3.277-.241-8.86-2.807-9.487-11.3Zm6.441,2.319h2.057c.276,0,.5-.224,.5-.5s-.224-.5-.5-.5h-2.972c-.463-.46-.966-.897-1.515-1.3,.022-.579,.072-1.147,.147-1.7h2.34c.276,0,.5-.224,.5-.5s-.224-.5-.5-.5h-2.175c.21-1.077,.512-2.086,.88-3h3.295c.276,0,.5-.224,.5-.5s-.224-.5-.5-.5h-2.85c1.206-2.446,2.88-4,4.35-4s3.144,1.554,4.35,4h-2.85c-.276,0-.5,.224-.5,.5s.224,.5,.5,.5h3.295c.368,.914,.67,1.923,.88,3h-2.175c-.276,0-.5,.224-.5,.5s.224,.5,.5,.5h2.34c.075,.553,.125,1.121,.147,1.7-.548,.403-1.052,.84-1.515,1.3h-2.972c-.276,0-.5,.224-.5,.5s.224,.5,.5,.5h2.057c-1.955,2.343-3.016,5.04-3.557,6.856-.54-1.816-1.602-4.513-3.557-6.856Zm13.555-2.319c-.627,8.493-6.21,11.059-9.487,11.3,.156-.845,1.447-7.071,6.111-10.497,.12-.031,.223-.106,.29-.207,.704-.485,1.481-.906,2.339-1.238,.064-.025,.126-.035,.182-.035,.141,0,.25,.062,.313,.109,.175,.129,.269,.342,.252,.568Zm-8.998-2.181c0,.276-.224,.5-.5,.5h-1c-.276,0-.5-.224-.5-.5s.224-.5,.5-.5h1c.276,0,.5,.224,.5,.5Z"/></svg>
