<?xml version="1.0" encoding="UTF-8"?>
<svg xmlns="http://www.w3.org/2000/svg" id="Layer_1" data-name="Layer 1" viewBox="0 0 24 24" width="512" height="512"><path d="m18.816,9.733c.056.056.118.104.184.143V.5c0-.276.224-.5.5-.5s.5.224.5.5v9.375c.066-.04.129-.088.187-.146l2.984-3.039c.192-.197.509-.2.707-.007.196.194.199.51.006.707l-2.987,3.042c-.385.386-.891.579-1.396.58,0,0,0,0,0,0h0c-.505,0-1.009-.192-1.393-.576l-2.99-3.046c-.193-.197-.19-.513.006-.707.198-.193.516-.19.707.007l2.987,3.042Zm4.684,1.267c-.276,0-.5.224-.5.5v8c0,1.93-1.57,3.5-3.5,3.5H4.5c-1.93,0-3.5-1.57-3.5-3.5V7.863l7.818,7.819c.85.85,1.979,1.318,3.182,1.318s2.332-.468,3.179-1.314l2.672-2.621c.196-.193.2-.51.006-.707-.191-.196-.508-.2-.707-.007l-2.675,2.625c-1.322,1.322-3.627,1.322-4.949,0L1.125,6.574c.407-1.482,1.766-2.574,3.375-2.574h12c.276,0,.5-.224.5-.5s-.224-.5-.5-.5H4.5C2.019,3,0,5.019,0,7.5v12c0,2.481,2.019,4.5,4.5,4.5h15c2.481,0,4.5-2.019,4.5-4.5v-8c0-.276-.224-.5-.5-.5Z"/></svg>
