<?xml version="1.0" encoding="UTF-8"?>
<svg xmlns="http://www.w3.org/2000/svg" id="Layer_1" data-name="Layer 1" width="512" height="512" viewBox="0 0 24 24"><path d="M19.5,17c2.481,0,4.5-2.019,4.5-4.5v-4c0-1.378-1.121-2.5-2.5-2.5s-2.5,1.122-2.5,2.5c0,.276-.225,.5-.5,.5h-5.254c-1.609,0-3.006-1.09-3.396-2.651l-.484-1.94c-.502-2.007-2.298-3.409-4.366-3.409h-1.5C1.57,1,0,2.57,0,4.5V12.5c0,2.481,2.019,4.5,4.5,4.5h1.5v5H.5c-.276,0-.5,.224-.5,.5s.224,.5,.5,.5H20.5c1.93,0,3.5-1.57,3.5-3.5,0-.276-.224-.5-.5-.5s-.5,.224-.5,.5c0,1.378-1.121,2.5-2.5,2.5h-3.5v-5h2.5ZM1,12.5V4.5c0-1.378,1.121-2.5,2.5-2.5h1.5c1.609,0,3.006,1.09,3.396,2.651l.484,1.94c.502,2.007,2.298,3.409,4.366,3.409h5.254c.827,0,1.5-.673,1.5-1.5s.673-1.5,1.5-1.5,1.5,.673,1.5,1.5v4c0,1.93-1.57,3.5-3.5,3.5H4.5c-1.93,0-3.5-1.57-3.5-3.5Zm15,9.5H7v-5h9v5Z"/></svg>
