<?xml version="1.0" encoding="UTF-8"?>
<svg xmlns="http://www.w3.org/2000/svg" id="Layer_1" data-name="Layer 1" viewBox="0 0 24 24">
  <path d="m7.03,10.555c-.03-.274.167-.522.442-.552.282-.028.522.167.552.442.204,1.842,1.688,3.327,3.53,3.531.275.03.473.277.442.552-.028.256-.245.445-.497.445-.018,0-.037,0-.055-.003-2.303-.254-4.16-2.111-4.415-4.415Zm11.192,10.451c.363.607.369,1.342.015,1.966-.359.634-1.032,1.027-1.756,1.027H7.5c-.735,0-1.388-.383-1.745-1.026-.361-.651-.341-1.418.054-2.052.47-.755,1.084-1.415,1.799-1.939-3.318-1.629-5.608-5.043-5.608-8.983,0-1.273.236-2.512.701-3.685.103-.256.394-.381.649-.28.256.102.382.393.28.649-.418,1.054-.63,2.169-.63,3.315,0,4.962,4.038,9,9,9,1.082,0,2.139-.189,3.143-.564.147-.053.311-.037.442.046.074.047,1.824,1.163,2.638,2.524Zm-.858.514c-.547-.915-1.662-1.745-2.115-2.06-2.118.727-4.504.692-6.528-.013-.837.487-1.55,1.179-2.063,2.003-.2.321-.21.709-.028,1.038.178.32.503.511.87.511h8.982c.37,0,.701-.195.886-.521.176-.311.175-.661-.004-.959Zm6.489,2.333c-.098.098-.226.146-.354.146s-.256-.049-.354-.146L.146.854C-.049.658-.049.342.146.146S.658-.049.854.146l3.459,3.459C6.22,1.31,9.003,0,12,0c5.514,0,10,4.486,10,10,0,2.997-1.31,5.78-3.605,7.688l5.459,5.459c.195.195.195.512,0,.707ZM5.023,4.316l2.854,2.854c.925-1.353,2.449-2.169,4.124-2.169,2.757,0,5,2.243,5,5,0,1.668-.818,3.196-2.17,4.123l2.855,2.855c2.109-1.719,3.316-4.25,3.316-6.977,0-4.962-4.038-9-9-9-2.728,0-5.259,1.206-6.977,3.316Zm9.085,9.085c1.175-.727,1.893-2.003,1.893-3.4,0-2.206-1.794-4-4-4-1.403,0-2.674.716-3.4,1.893l5.508,5.508Z"/>
</svg>
