<?xml version="1.0" encoding="UTF-8"?>
<svg xmlns="http://www.w3.org/2000/svg" id="Layer_1" data-name="Layer 1" viewBox="0 0 24 24" width="512" height="512"><path d="M21.5,13h-3c-.83,0-1.5,.67-1.5,1.5,0,1.38-1.12,2.5-2.5,2.5h-5c-1.38,0-2.5-1.12-2.5-2.5,0-.83-.67-1.5-1.5-1.5H2.5c-1.38,0-2.5,1.12-2.5,2.5v4c0,2.48,2.02,4.5,4.5,4.5h15c2.48,0,4.5-2.02,4.5-4.5v-4c0-1.38-1.12-2.5-2.5-2.5Zm1.5,6.5c0,1.93-1.57,3.5-3.5,3.5H4.5c-1.93,0-3.5-1.57-3.5-3.5v-4c0-.83,.67-1.5,1.5-1.5h3c.28,0,.5,.22,.5,.5,0,1.93,1.57,3.5,3.5,3.5h5c1.93,0,3.5-1.57,3.5-3.5,0-.28,.22-.5,.5-.5h3c.83,0,1.5,.67,1.5,1.5v4ZM21.5,0h-3c-.83,0-1.5,.67-1.5,1.5,0,1.38-1.12,2.5-2.5,2.5h-5c-1.38,0-2.5-1.12-2.5-2.5,0-.83-.67-1.5-1.5-1.5H2.5C1.12,0,0,1.12,0,2.5V6.5c0,2.48,2.02,4.5,4.5,4.5h15c2.48,0,4.5-2.02,4.5-4.5V2.5c0-1.38-1.12-2.5-2.5-2.5Zm1.5,6.5c0,1.93-1.57,3.5-3.5,3.5H4.5c-1.93,0-3.5-1.57-3.5-3.5V2.5c0-.83,.67-1.5,1.5-1.5h3c.28,0,.5,.22,.5,.5,0,1.93,1.57,3.5,3.5,3.5h5c1.93,0,3.5-1.57,3.5-3.5,0-.28,.22-.5,.5-.5h3c.83,0,1.5,.67,1.5,1.5V6.5Z"/></svg>
