<?xml version="1.0" encoding="UTF-8"?>
<svg xmlns="http://www.w3.org/2000/svg" id="Layer_1" data-name="Layer 1" viewBox="0 0 24 24" width="512" height="512"><path d="M21.11,9.81c-.17-.22-.14-.53,.08-.7,.21-.17,.53-.14,.7,.08,.92,1.14,1.64,2.58,2.09,4.18,.08,.27-.08,.54-.34,.62-.05,.01-.09,.02-.14,.02-.22,0-.42-.14-.48-.36-.41-1.46-1.07-2.79-1.91-3.82Zm-3.46,11.06c-2.11-.64-3.4-3.4-3.86-4.56-.1-.26-.39-.38-.65-.28-.26,.1-.38,.39-.28,.65,.23,.57,.64,1.5,1.26,2.42-1.24,1.26-2.62,1.89-4.11,1.89s-2.96-1.09-4.29-2.69c1.3-1.69,2.34-3.72,3.06-5.63,.1-.26-.03-.55-.29-.64-.26-.1-.55,.03-.64,.29-.66,1.76-1.6,3.62-2.75,5.18C2.73,14.28,1,9.62,1,7c0-.6,.15-1.21,.44-1.77,.13-.25,.03-.55-.21-.67-.25-.13-.55-.03-.67,.21-.36,.7-.56,1.47-.56,2.23,0,2.88,1.83,7.88,4.43,11.31-1.18,1.37-2.54,2.39-4.03,2.7-.27,.06-.44,.32-.39,.59,.05,.24,.26,.4,.49,.4,.03,0,.07,0,.1-.01,1.67-.34,3.17-1.44,4.46-2.9,1.49,1.73,3.2,2.91,4.94,2.91s3.32-.72,4.71-2.08c.7,.84,1.58,1.58,2.64,1.91,.05,.02,.1,.02,.15,.02,.21,0,.41-.14,.48-.35,.08-.26-.07-.54-.33-.62Zm6.21,2.98c-.1,.1-.23,.15-.35,.15s-.26-.05-.35-.15L2.73,3.43c-.08-.04-.14-.11-.19-.19L.15,.85C-.05,.66-.05,.34,.15,.15S.66-.05,.85,.15L3.09,2.39c.59-.25,1.21-.39,1.83-.39,2.65,0,5.07,2.38,5.07,5,0,.61-.07,1.31-.21,2.08l2.55,2.55c.53-.97,1.57-1.63,2.66-1.63,1.57,0,2.99,1.41,2.99,2.95,0,.92-.33,2.2-.89,3.44l3.93,3.93c.86-.58,1.51-1.56,1.99-2.99,.09-.26,.37-.4,.63-.32,.26,.09,.4,.37,.32,.63-.52,1.56-1.25,2.68-2.22,3.39l2.1,2.1c.2,.2,.2,.51,0,.71ZM13.1,12.39l3.25,3.25c.41-.99,.65-1.99,.65-2.68,0-1-.97-1.95-1.99-1.95-.81,0-1.62,.59-1.9,1.39ZM3.87,3.16l5.04,5.04c.06-.44,.09-.84,.09-1.21,0-2.06-1.98-4-4.07-4-.35,0-.71,.06-1.06,.16Z"/></svg>
