<?xml version="1.0" encoding="UTF-8"?>
<svg xmlns="http://www.w3.org/2000/svg" id="Layer_1" data-name="Layer 1" viewBox="0 0 24 24" width="512" height="512"><path d="M19.5,24H4.5c-2.481,0-4.5-2.019-4.5-4.5V4.5C0,2.019,2.019,0,4.5,0h15c2.481,0,4.5,2.019,4.5,4.5v15c0,2.481-2.019,4.5-4.5,4.5ZM4.5,1c-1.93,0-3.5,1.57-3.5,3.5v15c0,1.93,1.57,3.5,3.5,3.5h15c1.93,0,3.5-1.57,3.5-3.5V4.5c0-1.93-1.57-3.5-3.5-3.5H4.5Zm10.539,15.909c.667-.704,1.007-1.626,.956-2.597-.096-1.827-1.74-3.312-3.665-3.312h-3.33v-3.5c0-.276,.224-.5,.5-.5h5c.276,0,.5-.224,.5-.5s-.224-.5-.5-.5h-5c-.827,0-1.5,.673-1.5,1.5v4c0,.276,.224,.5,.5,.5h3.83c1.402,0,2.598,1.061,2.666,2.365,.037,.694-.206,1.353-.682,1.855-.477,.502-1.121,.779-1.814,.779h-4c-.276,0-.5,.224-.5,.5s.224,.5,.5,.5h4c.97,0,1.872-.388,2.539-1.091Z"/></svg>
