<?xml version="1.0" encoding="UTF-8"?>
<svg xmlns="http://www.w3.org/2000/svg" id="Layer_1" data-name="Layer 1" viewBox="0 0 24 24" width="512" height="512"><path d="M24,21.5c0,1.379-1.122,2.5-2.5,2.5h-5c-.276,0-.5-.224-.5-.5s.224-.5,.5-.5h5c.827,0,1.5-.673,1.5-1.5,0-.864-.621-1.481-1.511-1.5h-4.989c-.276,0-.5-.224-.5-.5s.224-.5,.5-.5h4.5V11h-5v6.5c0,.276-.224,.5-.5,.5s-.5-.224-.5-.5v-6.586c-.582-.206-1-.762-1-1.414v-1c0-.276,.224-.5,.5-.5s.5,.224,.5,.5v1c0,.276,.224,.5,.5,.5h2.5v-1.5c0-.276,.224-.5,.5-.5s.5,.224,.5,.5v1.5h2.5c.276,0,.5-.224,.5-.5v-1c0-.276,.224-.5,.5-.5s.5,.224,.5,.5v1c0,.652-.418,1.208-1,1.414v8.14c1.187,.233,2,1.197,2,2.446Zm-8.9,0c0,1.379-1.122,2.5-2.5,2.5H3c-1.387,0-3-1.092-3-2.5,0-1.252,.924-2.291,2.126-2.472,.385-1.239,1.76-5.922,1.868-10.028h-.493c-.276,0-.5-.224-.5-.5s.224-.5,.5-.5h.194l-1.487-2.997c-.312-.664-.265-1.418,.123-2.029,.387-.61,1.05-.974,1.772-.974h2.897V.5c0-.276,.224-.5,.5-.5s.5,.224,.5,.5v1.5h3c.723,0,1.386,.364,1.773,.975s.435,1.365,.126,2.019l-1.478,3.006h.179c.276,0,.5,.224,.5,.5s-.224,.5-.5,.5h-.492c.111,4.1,1.482,8.787,1.867,10.028,1.201,.181,2.125,1.22,2.125,2.472ZM3.108,4.568l1.702,3.432h5.497l1.691-3.44c.16-.34,.136-.725-.07-1.049-.206-.325-.544-.511-.929-.511H4.103c-.384,0-.722,.186-.928,.51s-.23,.71-.066,1.058Zm1.886,4.432c-.097,3.982-1.314,8.362-1.812,10H11.919c-.496-1.638-1.711-6.026-1.812-10H4.994Zm9.106,12.5c0-.827-.673-1.5-1.5-1.5H2.5c-.827,0-1.5,.673-1.5,1.5,0,.772,1.127,1.5,2,1.5H12.6c.827,0,1.5-.673,1.5-1.5Z"/></svg>
