<?xml version="1.0" encoding="UTF-8"?>
<svg xmlns="http://www.w3.org/2000/svg" id="Layer_1" data-name="Layer 1" viewBox="0 0 24 24" width="512" height="512"><path d="M12,16c-2.206,0-4-1.794-4-4s1.794-4,4-4,4,1.794,4,4-1.794,4-4,4Zm0-7c-1.654,0-3,1.346-3,3s1.346,3,3,3,3-1.346,3-3-1.346-3-3-3Zm-7-2c-.552,0-1,.448-1,1s.448,1,1,1,1-.448,1-1-.448-1-1-1Zm13,3c0,.552,.448,1,1,1s1-.448,1-1-.448-1-1-1-1,.448-1,1Zm-13,3c-.552,0-1,.448-1,1s.448,1,1,1,1-.448,1-1-.448-1-1-1Zm13,3c0,.552,.448,1,1,1s1-.448,1-1-.448-1-1-1-1,.448-1,1Zm-.774,5c-1.634,0-3.087-.39-4.492-.767-1.404-.377-2.731-.733-4.233-.733-.759,0-1.637,.126-2.486,.248-.854,.123-1.737,.25-2.514,.25C1.604,19.998,0,18.331,0,16.358V8.154c0-1.931,1.216-3.693,3.028-4.384,1.342-.511,2.602-.77,3.746-.77,1.634,0,3.087,.39,4.492,.767,1.405,.377,2.731,.733,4.233,.733,.844,0,1.97-.14,2.964-.264,.838-.104,1.562-.194,2.036-.194,1.896,0,3.499,1.667,3.499,3.639V15.846h0c0,1.931-1.217,3.693-3.029,4.384-1.341,.511-2.601,.77-3.745,.77Zm-8.726-2.5c1.634,0,3.087,.39,4.493,.767,1.405,.377,2.731,.733,4.233,.733,1.022,0,2.162-.237,3.39-.705,1.448-.552,2.385-1.906,2.385-3.449V7.681c0-1.431-1.146-2.639-2.5-2.639-.413,0-1.142,.091-1.913,.187-1.022,.127-2.182,.271-3.087,.271-1.634,0-3.087-.39-4.492-.767-1.405-.377-2.731-.733-4.233-.733-1.021,0-2.162,.237-3.39,.705-1.449,.552-2.385,1.906-2.385,3.449v8.205c0,1.431,1.146,2.639,2.5,2.639,.706,0,1.515-.116,2.372-.239,.884-.127,1.798-.258,2.628-.258Z"/></svg>
