<?xml version="1.0" encoding="UTF-8"?>
<svg xmlns="http://www.w3.org/2000/svg" id="Layer_1" data-name="Layer 1" viewBox="0 0 24 24" width="512" height="512"><path d="m22.271,5.741c-.143-.236-.45-.311-.687-.169-.236.143-.312.45-.169.687,2.545,4.205,2.01,9.637-1.302,13.21-2.111,2.277-4.979,3.531-8.097,3.531h-.007c-3.098,0-5.967-1.254-8.077-3.531C.115,15.351.115,8.649,3.932,4.531,7.775.384,14.077-.193,18.591,3.186c.212.158.339.396.359.67.021.293-.086.58-.294.788l-1.361,1.359c-3.053-2.705-7.646-2.694-10.689.091-.191-.061-.394-.094-.605-.094-1.103,0-2,.897-2,2,0,.49.178.94.472,1.288-1.046,2.909-.321,6.176,1.871,8.369,1.022,1.022,2.285,1.741,3.673,2.094.124.984.966,1.748,1.984,1.748s1.859-.764,1.984-1.748c1.387-.354,2.651-1.073,3.673-2.094,2.234-2.234,2.945-5.583,1.811-8.533-.099-.257-.389-.385-.646-.287-.257.1-.386.389-.287.646.993,2.581.371,5.512-1.584,7.467-.866.865-1.929,1.481-3.096,1.801-.297-.733-1.016-1.251-1.854-1.251s-1.557.518-1.854,1.251c-1.168-.319-2.231-.936-3.096-1.801-1.855-1.855-2.509-4.588-1.724-7.067.211.076.437.117.673.117,1.103,0,2-.897,2-2,0-.517-.197-.989-.521-1.345,2.644-2.247,6.501-2.212,9.106.055l-2.133,2.13c-.792-.616-1.791-.918-2.803-.825-1.18.103-2.253.726-2.943,1.71-.939,1.339-.939,3.21,0,4.549.769,1.097,1.969,1.726,3.293,1.726s2.524-.629,3.293-1.726c.011-.016,1.008-1.604.539-2.113-.187-.201-.502-.215-.707-.029-.122.112-.175.271-.158.425-.045.21-.281.841-.493,1.144-.58.826-1.481,1.3-2.475,1.3s-1.895-.474-2.475-1.3c-.702-1.001-.702-2.399,0-3.4.528-.753,1.313-1.21,2.211-1.288.895-.077,1.756.238,2.385.867.195.195.512.195.707,0l4.534-4.528c.413-.412.626-.983.584-1.565-.04-.56-.315-1.069-.756-1.4C14.267-1.304,7.391-.674,3.198,3.852-1.037,8.421-1.037,15.579,3.198,20.148c2.302,2.484,5.431,3.852,8.83,3.852h.008c3.379,0,6.508-1.368,8.81-3.852,3.614-3.898,4.199-9.822,1.424-14.407Zm-10.271,12.759c.551,0,1,.448,1,1s-.449,1-1,1-1-.448-1-1,.449-1,1-1Zm-6-9.5c-.551,0-1-.448-1-1s.449-1,1-1,1,.448,1,1-.449,1-1,1Z"/></svg>
