<?xml version="1.0" encoding="UTF-8"?>
<svg xmlns="http://www.w3.org/2000/svg" id="Layer_1" data-name="Layer 1" viewBox="0 0 24 24" width="512" height="512"><path d="M23.5,17h-1.148l-1.433-4.013c-.638-1.787-2.341-2.987-4.238-2.987H7.319c-.838,0-1.632,.245-2.319,.661V6.5c0-1.93,1.57-3.5,3.5-3.5h.551c.232,1.14,1.242,2,2.449,2h4c1.379,0,2.5-1.122,2.5-2.5s-1.121-2.5-2.5-2.5h-4c-1.208,0-2.217,.86-2.449,2h-.551c-2.481,0-4.5,2.019-4.5,4.5v4.982c-.394,.431-.715,.934-.919,1.505l-1.433,4.013H.5c-.276,0-.5,.224-.5,.5s.224,.5,.5,.5H11.5v5H7.5c-.276,0-.5,.224-.5,.5s.224,.5,.5,.5h9c.276,0,.5-.224,.5-.5s-.224-.5-.5-.5h-4v-5h11c.276,0,.5-.224,.5-.5s-.224-.5-.5-.5ZM11.5,1h4c.827,0,1.5,.673,1.5,1.5s-.673,1.5-1.5,1.5h-4c-.827,0-1.5-.673-1.5-1.5s.673-1.5,1.5-1.5ZM4.029,11.45l-.002,.002,.002-.002Zm-1.32,5.55l1.313-3.677c.496-1.389,1.821-2.323,3.297-2.323h9.361c1.476,0,2.801,.934,3.297,2.323l1.313,3.677H2.709Z"/></svg>
