<?xml version="1.0" encoding="UTF-8"?>
<svg xmlns="http://www.w3.org/2000/svg" id="Layer_1" data-name="Layer 1" viewBox="0 0 24 24" width="512" height="512"><path d="M21,15c0-2.538-.544-4.361-.58-4.423-.715-2.086-2.248-3.714-5.414-4.321,.082-1.868,1.107-3.504,2.718-4.309,.247-.124,.347-.424,.224-.671-.124-.246-.424-.348-.671-.224-1.907,.954-3.132,2.867-3.264,5.054-.472-.054-.976-.088-1.512-.101V.5C12.5,.225,12.279,.003,12.005,0h-.008c-.274,.003-.495,.225-.495,.5V6.006c-.537,.013-1.04,.047-1.512,.101-.132-2.187-1.357-4.1-3.264-5.054-.247-.124-.547-.022-.671,.224-.124,.247-.023,.547,.224,.671,1.611,.805,2.635,2.441,2.718,4.309-3.166,.606-4.7,2.235-5.414,4.321-.036,.062-.58,1.884-.58,4.423,0,4.674,1.09,8.998,8.995,9h.008c7.905-.002,8.995-4.326,8.995-9Zm-1,0c0,1.207-.08,2.301-.298,3.266l-3.222-3.222,3.238-3.238c.206,.948,.282,2.018,.282,3.194Zm-.602-4.289l-3.626,3.626-3.068-3.068,3.618-3.618c1.602,.619,2.547,1.663,3.076,3.06Zm-7.397,7.397l-3.064-3.064,3.064-3.064,3.064,3.064-3.064,3.064Zm0-11.108c1.261,0,2.33,.11,3.237,.321l-3.237,3.237-3.237-3.237c.906-.211,1.976-.321,3.237-.321Zm-4.321,.652l3.618,3.618-3.068,3.068-3.626-3.626c.53-1.397,1.474-2.44,3.076-3.06Zm-3.678,7.348c0-1.177,.076-2.247,.282-3.194l3.238,3.238-3.222,3.222c-.218-.965-.298-2.06-.298-3.266Zm.626,4.352l3.602-3.602,3.068,3.068-3.554,3.555c-1.616-.607-2.574-1.638-3.115-3.021Zm7.373,3.648c-1.228,0-2.274-.104-3.165-.305l3.165-3.165,3.165,3.165c-.891,.201-1.937,.305-3.165,.305Zm4.258-.627l-3.554-3.555,3.068-3.068,3.602,3.602c-.541,1.383-1.499,2.414-3.115,3.021Z"/></svg>
