<?xml version="1.0" encoding="UTF-8"?>
<svg xmlns="http://www.w3.org/2000/svg" id="Layer_1" data-name="Layer 1" viewBox="0 0 24 24" width="512" height="512"><path d="m11.5,23H3.5c-1.378,0-2.5-1.121-2.5-2.5s1.122-2.5,2.5-2.5h5c.276,0,.5-.224.5-.5s-.224-.5-.5-.5h-3.5V1h10.5c1.93,0,3.5,1.57,3.5,3.5v4c0,.276.224.5.5.5s.5-.224.5-.5v-4c0-2.481-2.019-4.5-4.5-4.5H4.5C2.019,0,0,2.019,0,4.5v16c0,1.93,1.57,3.5,3.5,3.5h8c.276,0,.5-.224.5-.5s-.224-.5-.5-.5ZM1,4.5c0-1.76,1.306-3.221,3-3.464v15.964h-.5c-.978,0-1.864.404-2.5,1.053V4.5Zm16.5,6.5c-3.584,0-6.5,2.916-6.5,6.5s2.916,6.5,6.5,6.5,6.5-2.916,6.5-6.5-2.916-6.5-6.5-6.5Zm0,12c-3.033,0-5.5-2.468-5.5-5.5s2.467-5.5,5.5-5.5,5.5,2.468,5.5,5.5-2.467,5.5-5.5,5.5Zm3.586-6.511l-1.832-1.854c-.319-.274-.755-.333-1.137-.158-.381.176-.618.546-.618.966v1.558h-3c-.276,0-.5.224-.5.5s.224.5.5.5h3v1.552c0,.421.238.791.621.967.141.064.289.097.437.097.254,0,.51-.096.73-.288l1.8-1.836c.551-.553.55-1.45-.001-2.002Zm-.709,1.299l-1.802,1.838-.075-.074v-4.109l.074-.076,1.802,1.827.003.003c.163.162.163.426-.002.592Z"/></svg>
