<?xml version="1.0" encoding="UTF-8"?>
<svg xmlns="http://www.w3.org/2000/svg" id="Layer_1" data-name="Layer 1" viewBox="0 0 24 24" width="512" height="512"><path d="m18.5,12H5.5c-.827,0-1.5.673-1.5,1.5v2c0,.827.673,1.5,1.5,1.5h13c.827,0,1.5-.673,1.5-1.5v-2c0-.827-.673-1.5-1.5-1.5Zm.5,3.5c0,.276-.225.5-.5.5H5.5c-.275,0-.5-.224-.5-.5v-2c0-.276.225-.5.5-.5h13c.275,0,.5.224.5.5v2Zm.5-13.5h-1.5V.5c0-.276-.224-.5-.5-.5s-.5.224-.5.5v1.5H7V.5c0-.276-.224-.5-.5-.5s-.5.224-.5.5v1.5h-1.5C2.019,2,0,4.019,0,6.5v13c0,2.481,2.019,4.5,4.5,4.5h15c2.481,0,4.5-2.019,4.5-4.5V6.5c0-2.481-2.019-4.5-4.5-4.5Zm-15,1h15c1.93,0,3.5,1.57,3.5,3.5v1.5H1v-1.5c0-1.93,1.57-3.5,3.5-3.5Zm15,20H4.5c-1.93,0-3.5-1.57-3.5-3.5v-10.5h22v10.5c0,1.93-1.57,3.5-3.5,3.5Z"/></svg>
