<?xml version="1.0" encoding="UTF-8"?>
<svg xmlns="http://www.w3.org/2000/svg" id="Layer_1" data-name="Layer 1" viewBox="0 0 24 24" width="512" height="512"><path d="M10,13.5c0,.276-.224,.5-.5,.5h-1.5v4.5c0,.276-.224,.5-.5,.5s-.5-.224-.5-.5v-7c0-.276,.224-.5,.5-.5s.5,.224,.5,.5v1.5h1.5c.276,0,.5,.224,.5,.5Zm14-1.5c0,6.617-5.383,12-12,12S0,18.617,0,12,5.383,0,12,0s12,5.383,12,12Zm-12,11c2.854,0,5.457-1.092,7.414-2.881l-.017-.016L3.88,4.587c-1.788,1.957-2.88,4.56-2.88,7.413,0,6.065,4.935,11,11,11Zm1.701-10.006c1.836-.105,3.299-1.632,3.299-3.494,0-1.93-1.57-3.5-3.5-3.5h-3c-.998,0-1.897,.597-2.292,1.501l5.493,5.493Zm9.299-.994c0-6.065-4.935-11-11-11-2.853,0-5.456,1.092-7.413,2.88l2.878,2.878c.617-1.072,1.769-1.758,3.035-1.758h3c2.481,0,4.5,2.019,4.5,4.5,0,2.11-1.46,3.886-3.423,4.37l5.527,5.527,.016,.017c1.788-1.957,2.881-4.56,2.881-7.414Z"/></svg>
