<?xml version="1.0" encoding="UTF-8"?>
<svg xmlns="http://www.w3.org/2000/svg" id="Layer_1" data-name="Layer 1" viewBox="0 0 24 24" width="512" height="512"><path d="M0,5.5c0-.28,.22-.5,.5-.5h7.84c.94,0,1.81-.36,2.48-1.02l2.66-2.66c.85-.85,1.98-1.32,3.18-1.32h6.84c.28,0,.5,.22,.5,.5s-.22,.5-.5,.5h-6.84c-.94,0-1.81,.36-2.48,1.02l-2.66,2.66c-.85,.85-1.98,1.32-3.18,1.32H.5c-.28,0-.5-.22-.5-.5ZM23.5,23H13.66c-.94,0-1.81-.36-2.48-1.02l-4.66-4.66c-.85-.85-1.98-1.32-3.18-1.32H.5c-.28,0-.5,.22-.5,.5s.22,.5,.5,.5H3.34c.94,0,1.81,.36,2.48,1.02l4.66,4.66c.85,.85,1.98,1.32,3.18,1.32h9.84c.28,0,.5-.22,.5-.5s-.22-.5-.5-.5Zm.5-12.5c0-.28-.22-.5-.5-.5H.5c-.28,0-.5,.22-.5,.5s.22,.5,.5,.5H9.79l4.68,4.68c.85,.85,1.98,1.32,3.18,1.32h5.84c.28,0,.5-.22,.5-.5s-.22-.5-.5-.5h-5.84c-.94,0-1.81-.36-2.48-1.02l-3.97-3.98h12.29c.28,0,.5-.22,.5-.5Z"/></svg>
