<?xml version="1.0" encoding="UTF-8"?>
<svg xmlns="http://www.w3.org/2000/svg" id="Layer_1" data-name="Layer 1" viewBox="0 0 24 24" width="512" height="512"><path d="m23.278,10.922l-4.723-1.945,3.206-4.808c.376-.568.305-1.273-.177-1.754s-1.188-.553-1.756-.177l-4.812,3.194-1.94-4.71c-.181-.438-.604-.722-1.077-.722s-.896.283-1.077.722l-1.94,4.71-4.813-3.194c-.568-.375-1.274-.303-1.755.178-.481.481-.553,1.187-.176,1.756l3.205,4.807-4.723,1.945c-.438.18-.722.604-.722,1.078s.283.897.722,1.078l4.723,1.945-3.206,4.808c-.376.568-.305,1.273.177,1.754.275.276.624.417.979.417.266,0,.534-.079.777-.24l4.812-3.194,1.94,4.71c.181.438.604.722,1.077.722s.896-.283,1.077-.722l1.94-4.71,4.813,3.194c.243.161.511.239.775.239.354,0,.704-.141.979-.417.481-.481.553-1.187.176-1.756l-3.205-4.807,4.723-1.945c.438-.18.722-.604.722-1.078s-.283-.897-.722-1.078Zm-2.897-7.851c.246-.164.443-.004.497.051.053.053.215.247.051.494l-3.316,4.973-1.56-.642-.648-1.574,4.976-3.302ZM3.072,3.618c-.165-.249-.003-.442.05-.496.053-.055.248-.213.496-.051l4.977,3.303-.648,1.574-1.56.642L3.072,3.618Zm.547,17.311c-.248.162-.444.003-.497-.051-.053-.053-.215-.247-.051-.494l3.316-4.973,1.56.642.648,1.574-4.976,3.302Zm17.309-.546c.165.249.003.442-.05.496-.054.054-.25.212-.496.051l-4.977-3.303.648-1.574,1.56-.642,3.315,4.972Zm1.97-8.229l-7.418,3.055c-.123.051-.221.149-.271.272l-3.055,7.418c-.07.169-.236.169-.307,0l-3.055-7.418c-.051-.123-.148-.221-.271-.272l-7.418-3.055c-.085-.035-.103-.103-.103-.153s.018-.118.103-.153l7.418-3.055c.123-.051.221-.149.271-.272l3.055-7.418c.035-.084.103-.103.153-.103s.118.018.153.103l3.055,7.418c.051.123.148.221.271.272l7.418,3.055c.085.035.103.103.103.153s-.018.118-.103.153Z"/></svg>
