<?xml version="1.0" encoding="UTF-8"?>
<svg xmlns="http://www.w3.org/2000/svg" id="Layer_1" data-name="Layer 1" viewBox="0 0 24 24" width="512" height="512"><path d="m21.094,18.051l2.872-15.14c.121-.726-.082-1.464-.559-2.026-.476-.562-1.172-.884-1.908-.884h-9.999c-1.379,0-2.5,1.122-2.5,2.5v15.536c-1.694.243-3,1.704-3,3.464,0,1.378,1.121,2.5,2.5,2.5h13c1.379,0,2.5-1.122,2.5-2.5,0-1.727-1.258-3.166-2.906-3.449Zm-11.094-4.051h2.5c.276,0,.5-.224.5-.5s-.224-.5-.5-.5h-2.5v-3h2.5c.276,0,.5-.224.5-.5s-.224-.5-.5-.5h-2.5v-3h2.5c.276,0,.5-.224.5-.5s-.224-.5-.5-.5h-2.5v-2.5c0-.827.673-1.5,1.5-1.5h9.999c.442,0,.859.193,1.146.531.285.337.407.78.337,1.205l-2.896,15.265h-10.086v-4Zm11.5,9h-13c-.827,0-1.5-.673-1.5-1.5,0-1.378,1.121-2.5,2.5-2.5h11c1.379,0,2.5,1.122,2.5,2.5,0,.827-.673,1.5-1.5,1.5Zm-14.221-7.713l-.2-1.495c0-.878-.713-1.592-1.538-1.592h-.005l-1.104-.117c-.69-1.775-.692-3.47-.005-5.167l1.085-.115c.866-.015,1.566-.724,1.562-1.53l.208-1.625c0-.879-.715-1.595-1.574-1.595h0l-1.341-.053h-.002c-.842,0-1.645.337-2.258.951-2.815,2.816-2.815,10.283,0,13.099.613.613,1.414.95,2.276.95h.003l1.302-.052c.879,0,1.595-.716,1.591-1.66Zm-1.61.661l-1.302.052h-.002c-.575,0-1.126-.234-1.551-.658C.236,12.764.595,5.878,2.814,3.658c.425-.424.977-.658,1.533-.658l1.341.053c.328,0,.595.267.599.53l-.208,1.625c0,.328-.268.595-.596.595l-1.739.181c-1.09,2.439-1.052,4.708-.006,7.032l1.745.182c.328,0,.596.267.6.66l.2,1.495c0,.328-.267.595-.614.596Z"/></svg>
