<?xml version="1.0" encoding="UTF-8"?>
<svg xmlns="http://www.w3.org/2000/svg" id="Layer_1" data-name="Layer 1" viewBox="0 0 24 24" width="512" height="512"><path d="M19.5,24h-7c-2.48,0-4.5-2.02-4.5-4.5v-3.5h-3.5c-2.48,0-4.5-2.02-4.5-4.5V4.5C0,2.02,2.02,0,4.5,0h7c2.48,0,4.5,2.02,4.5,4.5v3.5h3.5c2.48,0,4.5,2.02,4.5,4.5v7c0,2.48-2.02,4.5-4.5,4.5ZM4.5,1c-1.93,0-3.5,1.57-3.5,3.5v7c0,1.93,1.57,3.5,3.5,3.5h4c.28,0,.5,.22,.5,.5v4c0,1.93,1.57,3.5,3.5,3.5h7c1.93,0,3.5-1.57,3.5-3.5v-7c0-1.93-1.57-3.5-3.5-3.5h-4c-.28,0-.5-.22-.5-.5V4.5c0-1.93-1.57-3.5-3.5-3.5H4.5ZM12.62,15.86c1.59-.41,2.83-1.65,3.23-3.23,.07-.27-.09-.54-.36-.61-.26-.07-.54,.09-.61,.36-.32,1.23-1.28,2.2-2.51,2.51-.27,.07-.43,.34-.36,.61,.06,.23,.26,.38,.48,.38,.04,0,.08,0,.13-.02Zm-3.51-4.23c.32-1.23,1.28-2.2,2.51-2.51,.27-.07,.43-.34,.36-.61-.07-.27-.34-.43-.61-.36-1.59,.41-2.83,1.65-3.23,3.23-.07,.27,.09,.54,.36,.61,.04,.01,.08,.02,.12,.02,.22,0,.43-.15,.48-.38Z"/></svg>
