<?xml version="1.0" encoding="UTF-8"?>
<svg xmlns="http://www.w3.org/2000/svg" id="Layer_1" data-name="Layer 1" viewBox="0 0 24 24" width="512" height="512"><path d="m12.449,8h2.051c.276,0,.5-.224.5-.5s-.224-.5-.5-.5h-2.051c-.101-1.001-.491-1.908-1.096-2.647l.612-.612c.303.185.654.297,1.034.297,1.103,0,2-.897,2-2S14.103.038,13,.038s-2,.897-2,2c0,.36.103.693.27.985l-.624.623c-.739-.604-1.646-.995-2.646-1.096V.5c0-.276-.224-.5-.5-.5s-.5.224-.5.5v2.051c-1.001.101-1.907.491-2.646,1.096l-.599-.598c.176-.298.284-.64.284-1.01C4.039.936,3.142.038,2.039.038S.039.936.039,2.038s.897,2,2,2c.37,0,.712-.108,1.009-.283l.599.598c-.605.739-.995,1.646-1.096,2.647H.5c-.276,0-.5.224-.5.5s.224.5.5.5h2.051c.101,1.001.491,1.908,1.096,2.647l-.637.637c-.297-.176-.64-.283-1.009-.283-1.103,0-2,.897-2,2s.897,2,2,2,2-.897,2-2c0-.37-.108-.712-.284-1.01l.637-.637c.739.605,1.646.995,2.646,1.096v2.051c0,.276.224.5.5.5s.5-.224.5-.5v-2.051c2.353-.238,4.211-2.097,4.449-4.449Zm.551-6.962c.551,0,1,.448,1,1s-.449,1-1,1-1-.448-1-1,.449-1,1-1ZM1.039,2.038c0-.552.449-1,1-1s1,.448,1,1c0,.619-.499,1-1,1-.551,0-1-.448-1-1Zm.961,11.962c-.551,0-1-.448-1-1s.449-1,1-1,1,.448,1,1-.449,1-1,1Zm5.5-2.5c-2.206,0-4-1.794-4-4s1.794-4,4-4,4,1.794,4,4-1.794,4-4,4Zm14.449,7h1.551c.276,0,.5-.224.5-.5s-.224-.5-.5-.5h-1.551c-.092-.727-.374-1.388-.803-1.94l.71-.71c.196.094.412.15.643.15.827,0,1.5-.673,1.5-1.5s-.673-1.5-1.5-1.5-1.5.673-1.5,1.5c0,.231.057.447.15.643l-.711.711c-.552-.429-1.213-.711-1.94-.803v-1.551c0-.276-.224-.5-.5-.5s-.5.224-.5.5v1.551c-.727.092-1.388.374-1.94.803l-.711-.711c.094-.196.15-.412.15-.643,0-.827-.673-1.5-1.5-1.5s-1.5.673-1.5,1.5.673,1.5,1.5,1.5c.231,0,.447-.057.643-.15l.71.71c-.429.552-.711,1.213-.803,1.94h-1.551c-.276,0-.5.224-.5.5s.224.5.5.5h1.551c.092.727.374,1.388.803,1.94l-.71.71c-.196-.094-.412-.15-.643-.15-.827,0-1.5.673-1.5,1.5s.673,1.5,1.5,1.5,1.5-.673,1.5-1.5c0-.231-.057-.447-.15-.643l.711-.711c.552.429,1.213.711,1.94.803v1.551c0,.276.224.5.5.5s.5-.224.5-.5v-1.551c.727-.092,1.388-.374,1.94-.803l.71.711c-.094.195-.15.412-.15.642,0,.827.673,1.5,1.5,1.5s1.5-.673,1.5-1.5-.673-1.5-1.5-1.5c-.231,0-.447.057-.643.15l-.71-.711c.429-.552.711-1.213.803-1.94Zm-1.829,1.62s0,0,0,0c-.543.543-1.293.879-2.119.879-1.654,0-3-1.346-3-3s1.346-3,3-3,3,1.346,3,3c0,.827-.336,1.576-.879,2.119,0,0,0,0,0,0Zm2.38-7.12c.276,0,.5.225.5.5s-.224.5-.5.5-.5-.225-.5-.5.224-.5.5-.5Zm-9.5.5c0-.275.224-.5.5-.5s.5.225.5.5-.224.5-.5.5-.5-.225-.5-.5Zm.5,9.5c-.276,0-.5-.225-.5-.5s.224-.5.5-.5.5.225.5.5-.224.5-.5.5Zm9.5-.5c0,.275-.224.5-.5.5s-.5-.225-.5-.5.224-.5.5-.5.5.225.5.5Z"/></svg>
