<?xml version="1.0" encoding="UTF-8"?>
<svg xmlns="http://www.w3.org/2000/svg" id="Layer_1" data-name="Layer 1" viewBox="0 0 24 24" width="512" height="512"><path d="m19.5,4h-1.528c-.25-2.247-2.16-4-4.472-4H4.5C2.019,0,0,2.019,0,4.5v13.854c0,.608.333,1.166.87,1.453.245.131.512.195.779.195.319,0,.637-.093.913-.276l3.524-2.35c.409,2.063,2.233,3.623,4.414,3.623h6.849l4.09,2.727c.275.184.594.276.913.276.267,0,.534-.064.778-.195.537-.288.87-.845.87-1.453v-13.854c0-2.481-2.019-4.5-4.5-4.5ZM2.007,18.895c-.202.136-.451.147-.665.031-.214-.114-.342-.328-.342-.571V4.5c0-1.93,1.57-3.5,3.5-3.5h9c1.93,0,3.5,1.57,3.5,3.5v8c0,1.93-1.57,3.5-3.5,3.5h-7c-.175,0-.278.084-.282.087l-4.211,2.807Zm20.993,3.46c0,.243-.128.457-.342.571-.217.116-.462.103-.666-.031l-4.215-2.811c-.082-.055-.179-.084-.277-.084h-7c-1.76,0-3.221-1.306-3.464-3h6.464c2.481,0,4.5-2.019,4.5-4.5v-7.5h1.5c1.93,0,3.5,1.57,3.5,3.5v13.854ZM6.01,5.4c.321-1.582,1.902-2.641,3.53-2.353,1.208.211,2.201,1.203,2.413,2.413.224,1.273-.381,2.547-1.506,3.168-.717.395-.947.667-.947,1.121,0,.276-.224.5-.5.5s-.5-.224-.5-.5c0-1.191.953-1.715,1.464-1.997.762-.42,1.156-1.252,1.003-2.119-.141-.803-.798-1.461-1.6-1.602-1.101-.192-2.163.512-2.377,1.567-.055.271-.318.446-.59.391-.271-.056-.445-.319-.391-.59Zm3.99,7.6c0,.552-.448,1-1,1s-1-.448-1-1,.448-1,1-1,1,.448,1,1Z"/></svg>
