<?xml version="1.0" encoding="UTF-8"?>
<svg xmlns="http://www.w3.org/2000/svg" id="Layer_1" data-name="Layer 1" viewBox="0 0 24 24">
  <path d="m20,23.5c0,.276-.224.5-.5.5s-.5-.224-.5-.5c0-3.584-2.916-6.5-6.5-6.5h-1c-3.584,0-6.5,2.916-6.5,6.5,0,.276-.224.5-.5.5s-.5-.224-.5-.5c0-4.136,3.364-7.5,7.5-7.5h1c4.136,0,7.5,3.364,7.5,7.5ZM6,8V1.002c0-.395.223-.742.581-.908.358-.164.767-.109,1.068.146l1.627,1.999,1.673-1.797c.586-.585,1.518-.583,2.091-.014l1.682,1.807,1.502-1.884c.277-.337.712-.455,1.115-.312.402.145.662.514.662.941v7.02c0,3.309-2.691,6-6,6s-6-2.691-6-6Zm.936-7.064l.064,5.064h10V.98l-1.859,2.331c-.091.114-.227.183-.372.188-.146-.005-.286-.053-.385-.159l-2.064-2.217c-.172-.17-.472-.17-.653.014l-2.051,2.203c-.099.105-.261.157-.383.159-.145-.005-.28-.073-.372-.186l-1.926-2.379Zm.064,7.064c0,2.757,2.243,5,5,5s5-2.243,5-5v-1H7v1Z"/>
</svg>
