<?xml version="1.0" encoding="UTF-8"?>
<svg xmlns="http://www.w3.org/2000/svg" id="Layer_1" data-name="Layer 1" viewBox="0 0 24 24" width="512" height="512"><path d="M13.875,4.156h0s.002,.006,0,0Z"/><path d="M8.099,5.926l.002-.002c0,.008-.002,.017-.002,.002Zm15.829,17.832c-.094,.156-.259,.242-.428,.242-.088,0-.177-.023-.258-.072-.049-.029-4.932-2.928-11.242-2.928S.807,23.899,.758,23.928c-.237,.141-.544,.066-.686-.17-.143-.236-.067-.543,.169-.686,.182-.11,4.024-2.396,9.427-2.951,.387-.621,3.331-5.503,3.331-10.212,0-.775-.143-2.123-.353-3.428l-.015,.045c-.638,1.837-2.125,3.487-3.236,4.243-.225,.153-.481,.231-.741,.231-.151,0-.303-.026-.451-.081-.411-.15-.729-.5-.852-.937-.242-.864-.414-2.174-.329-3.406-1.564,.829-3.164,1.216-4.305,1.396-.562,.091-1.108-.142-1.432-.602-.312-.444-.346-1.014-.086-1.488,.638-1.164,1.78-2.798,3.598-3.977C7.942-.131,11.853-.031,12.017-.022c.112-.011,4.07-.274,7.225,1.772,1.859,1.205,3,2.937,3.629,4.177,.241,.475,.196,1.038-.117,1.47-.278,.384-.719,.604-1.188,.604-.076,0-.153-.006-.23-.018-1.359-.209-3.363-.708-5.193-1.894-.23-.149-.45-.305-.661-.465,.402,1.186,.756,2.428,1.056,3.711,1.024,4.379,.07,9.316-.336,11.053,4.4,.804,7.396,2.587,7.556,2.684,.236,.143,.312,.45,.169,.686ZM11.175,1c-1.287,.081-3.777,.413-5.833,1.745-1.644,1.065-2.683,2.556-3.265,3.618-.109,.2-.018,.368,.027,.432,.039,.056,.186,.233,.458,.19,1.25-.197,3.087-.659,4.75-1.736,2.031-1.317,3.29-3.223,3.862-4.249Zm.543,1.054c-.687,1.108-1.868,2.668-3.617,3.87,0-.007,0-.013-.002,.002-.207,1.255-.036,2.887,.216,3.787,.036,.129,.121,.227,.232,.268,.056,.021,.167,.043,.287-.039,.818-.556,2.252-2.011,2.854-3.744,.508-1.465,.302-3.05,.03-4.144Zm1.09-1.087c.566,1.02,1.833,2.956,3.879,4.282,1.681,1.089,3.539,1.55,4.801,1.744,.182,.029,.352-.041,.455-.185,.045-.062,.138-.228,.036-.431-.574-1.13-1.609-2.706-3.281-3.79-2.083-1.35-4.634-1.591-5.89-1.621Zm2.757,8.595c-.445-1.904-1.021-3.743-1.69-5.406-.002-.005-.001-.003,0,0-.363-.394-.681-.787-.955-1.16,.013,.096,.024,.193,.035,.292,.528,1.585,1.046,5.097,1.046,6.621,0,4.25-2.168,8.481-3.11,10.119,.364-.018,.734-.028,1.11-.028,1.124,0,2.2,.086,3.213,.228,.381-1.608,1.342-6.434,.352-10.666Z"/></svg>
