<?xml version="1.0" encoding="UTF-8"?>
<svg xmlns="http://www.w3.org/2000/svg" id="Layer_1" data-name="Layer 1" viewBox="0 0 24 24" width="512" height="512"><path d="m10,14c-.276,0-.5-.224-.5-.5v-7c0-.276.224-.5.5-.5s.5.224.5.5v7c0,.276-.224.5-.5.5Zm-1,3c0,.552.448,1,1,1s1-.448,1-1-.448-1-1-1-1,.448-1,1Zm9.605-.94c-.242-.13-.546-.04-.678.203-1.574,2.922-4.611,4.737-7.928,4.737-4.963,0-9-4.037-9-9S5.037,3,10,3c4.052,0,7.623,2.727,8.686,6.631.061.223.262.369.482.369.043,0,.087-.006.131-.018.267-.072.424-.348.352-.613-1.181-4.339-5.148-7.369-9.65-7.369C4.486,2,0,6.486,0,12s4.486,10,10,10h.03c3.673-.011,7.034-2.025,8.778-5.263.131-.243.04-.547-.203-.678Zm5.253-7.408c-.191-.197-.508-.203-.707-.01l-3.997,3.88c-.637.637-1.671.638-2.319-.011l-1.992-1.875c-.201-.188-.517-.18-.707.021-.189.201-.18.518.021.707l1.981,1.864c.514.514,1.188.771,1.863.771s1.345-.255,1.854-.766l3.992-3.875c.198-.192.202-.509.01-.707Z"/></svg>
