<?xml version="1.0" encoding="UTF-8"?>
<svg xmlns="http://www.w3.org/2000/svg" id="Layer_1" data-name="Layer 1" viewBox="0 0 24 24" width="512" height="512"><path d="M14.14,22.1c-.57,.58-1.33,.9-2.14,.9-1.65,0-3-1.35-3-3h3.5c.28,0,.5-.22,.5-.5s-.22-.5-.5-.5H4.5c-.74,0-1.44-.33-1.92-.9-.48-.57-.67-1.31-.54-2.04L3.5,7.88c.3-1.67,1.75-2.88,3.45-2.88h10.11c1.7,0,3.15,1.21,3.45,2.88l1.46,8.18c.03,.15,.04,.29,.04,.44,0,.28,.22,.5,.5,.5s.5-.22,.5-.5c0-.2-.02-.41-.06-.62l-1.46-8.18c-.38-2.15-2.25-3.71-4.43-3.71h-.56c.31-.42,.5-.94,.5-1.5,0-1.38-1.12-2.5-2.5-2.5h-5c-1.38,0-2.5,1.12-2.5,2.5,0,.56,.19,1.08,.5,1.5h-.56c-2.18,0-4.05,1.56-4.43,3.71L1.06,15.88c-.18,1.02,.09,2.07,.76,2.86,.67,.8,1.65,1.25,2.68,1.25h3.5c0,2.21,1.79,4,4,4,1.08,0,2.1-.43,2.86-1.2,.19-.2,.19-.51,0-.71-.2-.19-.51-.19-.71,0ZM8,2.5c0-.83,.67-1.5,1.5-1.5h5c.83,0,1.5,.67,1.5,1.5s-.67,1.5-1.5,1.5h-5c-.83,0-1.5-.67-1.5-1.5ZM24,19.5c0,.28-.22,.5-.5,.5h-3.5v3.5c0,.28-.22,.5-.5,.5s-.5-.22-.5-.5v-3.5h-3.5c-.28,0-.5-.22-.5-.5s.22-.5,.5-.5h3.5v-3.5c0-.28,.22-.5,.5-.5s.5,.22,.5,.5v3.5h3.5c.28,0,.5,.22,.5,.5Z"/></svg>
