<?xml version="1.0" encoding="UTF-8"?>
<svg xmlns="http://www.w3.org/2000/svg" id="Layer_1" data-name="Layer 1" viewBox="0 0 24 24" width="512" height="512"><path d="m6.093,10.209l1.661-2.325c.843-1.18,2.211-1.884,3.662-1.884h1.168c1.451,0,2.819.704,3.662,1.885l1.661,2.324c.16.225.108.537-.116.698-.089.062-.19.093-.291.093-.155,0-.31-.072-.407-.209l-1.661-2.325c-.654-.918-1.72-1.466-2.848-1.466h-1.168c-1.128,0-2.193.548-2.848,1.465l-1.661,2.326c-.161.224-.473.275-.698.116-.225-.161-.276-.474-.116-.698Zm17.907-6.209c0,.204-.124.389-.314.464l-2.301.921-.921,2.301c-.075.19-.26.314-.464.314s-.389-.124-.464-.314l-.923-2.306-2.308-.973c-.188-.08-.31-.266-.306-.47.004-.205.132-.387.323-.459l2.294-.868.919-2.296c.15-.381.777-.381.928,0l.921,2.301,2.301.921c.19.075.314.26.314.464Zm-1.847,0l-1.339-.536c-.127-.051-.228-.151-.278-.278l-.536-1.339-.536,1.339c-.052.13-.156.232-.287.282l-1.33.504,1.348.567c.123.052.221.151.27.275l.536,1.339.536-1.339c.051-.127.151-.228.278-.278l1.339-.536Zm-12.653-1.5c0-1.379,1.121-2.5,2.5-2.5s2.5,1.121,2.5,2.5-1.121,2.5-2.5,2.5-2.5-1.121-2.5-2.5Zm1,0c0,.827.673,1.5,1.5,1.5s1.5-.673,1.5-1.5-.673-1.5-1.5-1.5-1.5.673-1.5,1.5Zm9,20.5H4.5c-.276,0-.5.224-.5.5s.224.5.5.5h15c.276,0,.5-.224.5-.5s-.224-.5-.5-.5Zm-11-4c-.276,0-.5.224-.5.5s.224.5.5.5h7c.276,0,.5-.224.5-.5s-.224-.5-.5-.5h-7Zm8.5-4.5c0-.276-.224-.5-.5-.5H7.5c-.276,0-.5.224-.5.5s.224.5.5.5h9c.276,0,.5-.224.5-.5Zm-11.37,2.944l-1.716.462-.429,1.715c-.056.223-.256.379-.485.379s-.43-.156-.485-.379l-.427-1.709-1.709-.427c-.223-.056-.379-.256-.379-.485s.156-.43.379-.485l1.709-.427.427-1.709c.056-.223.256-.379.485-.379s.43.156.485.379l.425,1.703,1.702.393c.224.052.384.249.388.479s-.148.432-.37.491Z"/></svg>
