<?xml version="1.0" encoding="UTF-8"?>
<svg xmlns="http://www.w3.org/2000/svg" id="Layer_1" data-name="Layer 1" viewBox="0 0 24 24" width="512" height="512"><path d="m10.5,3C4.71,3,0,7.71,0,13.5s4.71,10.5,10.5,10.5,10.5-4.71,10.5-10.5S16.29,3,10.5,3Zm-.703,1.026l-.46.742-.045.093c-.199.547-.14,1.15.163,1.656l.718,1.195-.606-.303c-.745-.375-1.646-.23-2.242.362l-.354.354c-.367.367-.569.855-.569,1.374,0,.171.021.339.064.5l-2.029-.004-1.789-1.835c1.588-2.327,4.181-3.916,7.15-4.134Zm.703,18.974c-5.238,0-9.5-4.262-9.5-9.5,0-1.609.403-3.126,1.112-4.455l1.602,1.643c.188.198.452.312.726.312h2.182c.248,0,.49.101.666.276l.448.449c.178.177.275.414.275.666v.781c0,.534.208,1.036.586,1.415l1.139,1.139c.178.177.275.414.275.666v1.481c0,.622.506,1.128,1.128,1.128h.491c.414,0,.793-.226.989-.587l2.257-4.134c.236-.436.093-.984-.348-1.26l-3.013-1.704c-.336-.209-.698-.315-1.078-.315h-1.536c-.252,0-.488-.098-.666-.276l-.559-.559c-.179-.178-.276-.414-.276-.666s.099-.488.276-.666l.354-.354c.289-.287.726-.359,1.088-.176l.781.39c.366.187.805.115,1.091-.174.307-.306.365-.779.143-1.151l-.82-1.366c-.139-.232-.173-.505-.096-.757l.766-1.234c5.015.252,9.017,4.411,9.017,9.488,0,5.238-4.262,9.5-9.5,9.5Zm-.058-7.983l-1.139-1.138c-.188-.189-.293-.441-.293-.708v-.781c0-.133-.013-.263-.039-.39h1.466c.19,0,.375.055.567.174l2.993,1.626-2.257,4.134c-.022.041-.064.065-.111.065h-.491c-.07,0-.128-.058-.128-.128v-1.481c0-.52-.202-1.007-.568-1.373ZM21.5,0c-1.379,0-2.5,1.122-2.5,2.5s1.121,2.5,2.5,2.5,2.5-1.122,2.5-2.5-1.121-2.5-2.5-2.5Zm0,4c-.827,0-1.5-.673-1.5-1.5s.673-1.5,1.5-1.5,1.5.673,1.5,1.5-.673,1.5-1.5,1.5Z"/></svg>
