<?xml version="1.0" encoding="UTF-8"?>
<svg xmlns="http://www.w3.org/2000/svg" id="Layer_1" data-name="Layer 1" viewBox="0 0 24 24" width="512" height="512"><path d="M24,12h0c0-.494-.175-.989-.524-1.383-.225-.253-.445-.495-.601-.651l-2.245-2.284c-.194-.198-.51-.2-.707-.006-.197,.193-.2,.51-.006,.707l2.247,2.287c.147,.147,.353,.374,.563,.61,.059,.066,.092,.144,.132,.22H12.5V1.186c.048,.03,.101,.048,.144,.087,.237,.21,.463,.416,.613,.565l2.284,2.244c.098,.096,.224,.144,.351,.144,.129,0,.259-.05,.356-.149,.194-.197,.191-.514-.006-.707l-2.281-2.242c-.158-.158-.4-.379-.654-.603-.788-.7-1.977-.699-2.765,0-.254,.225-.496,.446-.651,.601l-2.284,2.244c-.197,.193-.2,.51-.006,.707,.193,.197,.509,.199,.707,.006l2.287-2.247c.147-.147,.373-.353,.61-.562,.089-.079,.191-.133,.295-.177V11.5H1.14c.04-.075,.073-.154,.132-.22,.21-.236,.416-.462,.566-.613l2.244-2.284c.194-.197,.191-.514-.006-.707-.198-.194-.514-.192-.707,.006l-2.241,2.281c-.158,.158-.379,.4-.604,.654-.699,.789-.699,1.978,0,2.765,.225,.255,.446,.496,.602,.652l2.244,2.283c.098,.1,.227,.149,.356,.149,.126,0,.253-.048,.351-.144,.197-.193,.2-.51,.006-.707l-2.247-2.285c-.147-.148-.353-.374-.563-.612-.059-.066-.092-.144-.132-.219H11.5v10.359c-.075-.04-.153-.073-.219-.132-.237-.21-.463-.416-.613-.565l-2.284-2.244c-.198-.194-.514-.191-.707,.006-.194,.197-.191,.514,.006,.707l2.282,2.242c.158,.157,.399,.377,.653,.603,.394,.35,.888,.524,1.383,.524s.989-.175,1.383-.524c.253-.226,.495-.445,.65-.601l2.284-2.244c.197-.193,.2-.51,.006-.707-.193-.197-.51-.2-.707-.006l-2.287,2.246c-.147,.147-.374,.354-.61,.563-.066,.059-.144,.092-.22,.132V12.5h10.359c-.04,.075-.073,.153-.132,.22-.209,.238-.416,.463-.564,.613l-2.245,2.283c-.194,.197-.191,.514,.006,.707,.098,.096,.224,.144,.351,.144,.129,0,.259-.05,.356-.149l2.243-2.281c.158-.158,.378-.4,.603-.653,.349-.394,.524-.888,.524-1.383h0Z"/></svg>
