<?xml version="1.0" encoding="UTF-8"?>
<svg xmlns="http://www.w3.org/2000/svg" id="Layer_1" data-name="Layer 1" viewBox="0 0 24 24" width="512" height="512"><path d="m15,4.5c0-.276.224-.5.5-.5h3.5V.5c0-.276.224-.5.5-.5s.5.224.5.5v3.5h3.5c.276,0,.5.224.5.5s-.224.5-.5.5h-3.5v3.5c0,.276-.224.5-.5.5s-.5-.224-.5-.5v-3.5h-3.5c-.276,0-.5-.224-.5-.5Zm8.5,2.5c-.276,0-.5.224-.5.5v12c0,1.93-1.57,3.5-3.5,3.5H4.5c-1.93,0-3.5-1.57-3.5-3.5V7.863l7.818,7.819c.877.877,2.03,1.316,3.183,1.316s2.303-.438,3.179-1.313l3.877-3.829c.196-.194.198-.511.004-.708-.195-.195-.511-.198-.708-.004l-3.879,3.831c-1.365,1.364-3.586,1.364-4.95,0L1.125,6.574c.407-1.482,1.766-2.574,3.375-2.574h8c.276,0,.5-.224.5-.5s-.224-.5-.5-.5H4.5C2.019,3,0,5.019,0,7.5v12c0,2.481,2.019,4.5,4.5,4.5h15c2.481,0,4.5-2.019,4.5-4.5V7.5c0-.276-.224-.5-.5-.5Z"/></svg>
