<?xml version="1.0" encoding="UTF-8"?>
<svg xmlns="http://www.w3.org/2000/svg" id="Layer_1" data-name="Layer 1" viewBox="0 0 24 24" width="512" height="512"><path d="M10.04,24.02c-.24,0-.48-.03-.72-.09C4.01,22.55,0,17.42,0,12S4.01,1.47,9.32,.09c.87-.22,1.78-.03,2.5,.52,.75,.58,1.18,1.46,1.18,2.4V21c0,.94-.43,1.82-1.18,2.4-.52,.4-1.15,.62-1.78,.62Zm0-23.01c-.16,0-.31,.02-.47,.06C4.69,2.32,1,7.03,1,12s3.69,9.69,8.57,10.96c.57,.15,1.16,.02,1.63-.35,.5-.39,.79-.98,.79-1.61V3.02c0-.63-.29-1.22-.79-1.61-.34-.27-.75-.41-1.17-.41Z"/></svg>
