<?xml version="1.0" encoding="UTF-8"?>
<svg xmlns="http://www.w3.org/2000/svg" id="Layer_1" data-name="Layer 1" viewBox="0 0 24 24" width="512" height="512"><path d="M13,24H4.5c-.276,0-.5-.224-.5-.5s.224-.5,.5-.5H13c1.637,0,3.166-.647,4.307-1.822,1.14-1.174,1.74-2.724,1.69-4.363-.096-3.207-2.908-5.815-6.27-5.815H4.5c-.276,0-.5-.224-.5-.5V3.5c0-1.93,1.57-3.5,3.5-3.5h11c.276,0,.5,.224,.5,.5s-.224,.5-.5,.5H7.5c-1.379,0-2.5,1.122-2.5,2.5v6.5h7.728c3.896,0,7.157,3.044,7.27,6.785,.057,1.912-.644,3.719-1.974,5.089-1.33,1.371-3.114,2.125-5.023,2.125Z"/></svg>
