<?xml version="1.0" encoding="UTF-8"?>
<svg xmlns="http://www.w3.org/2000/svg" id="Layer_1" data-name="Layer 1" viewBox="0 0 24 24" width="512" height="512"><path d="M23.854,23.146l-4.268-4.268,.192-.177c2.078-2.069,3.222-4.821,3.222-7.747s-1.144-5.678-3.222-7.747C17.7,1.139,14.937,0,12,0S6.3,1.139,4.222,3.208c-.051,.051-.101,.103-.152,.155L.854,.146C.658-.049,.342-.049,.146,.146S-.049,.658,.146,.854L23.146,23.854c.098,.098,.226,.146,.354,.146s.256-.049,.354-.146c.195-.195,.195-.512,0-.707Zm-4.976-4.976L4.778,4.07c.05-.052,.1-.103,.151-.154,1.889-1.881,4.4-2.917,7.072-2.917s5.183,1.036,7.071,2.917c1.889,1.88,2.928,4.379,2.928,7.038s-1.04,5.158-2.914,7.024l-.208,.192Zm-1.509,2.068c.187,.203,.173,.52-.03,.707l-1.737,1.598c-.96,.936-2.243,1.457-3.602,1.457s-2.641-.521-3.612-1.467l-4.151-3.818C.95,15.443,.075,10.454,2.045,6.286c.118-.25,.415-.358,.666-.238,.25,.118,.356,.416,.238,.666-1.791,3.786-.995,8.318,1.978,11.279l4.147,3.814c1.587,1.546,4.273,1.536,5.838,.01l1.748-1.608c.202-.187,.52-.174,.707,.03Z"/></svg>
