<?xml version="1.0" encoding="UTF-8"?>
<svg xmlns="http://www.w3.org/2000/svg" id="Layer_1" data-name="Layer 1" viewBox="0 0 24 24" width="512" height="512"><path d="M1.002,13.01c0,.005,0,.004,0,0h0Zm0,0v0Zm21.995-.02c-.084,1.017-.515,2.182-1.259,2.977l-7.117,6.934c-.683,.705-1.614,1.098-2.612,1.099h-.002c-.997,0-1.929-.394-2.622-1.107L2.281,15.985c-.755-.805-1.191-1.97-1.278-2.99-.052-1.069,.265-2.154,.961-3.061L9.184,1.331c.696-.846,1.725-1.331,2.822-1.331h0c1.1,0,2.129,.486,2.825,1.334l7.191,8.584c.701,.915,1.021,2.003,.973,3.072Zm-20.988-.536l5.422-.9L11.253,1.109c-.504,.148-.956,.443-1.297,.859l-.004,.004L2.743,10.559c-.433,.566-.677,1.225-.734,1.896Zm9.499,2.933l-3.836-2.86-5.611,.931c.128,.663,.439,1.299,.933,1.826l7.097,6.9c.394,.405,.883,.667,1.417,.768v-7.565Zm4.095-3.566L12.007,1.957l-3.609,9.864,3.609,2.691,3.596-2.691Zm6.337,1.638l-5.611-.931-3.821,2.859v7.565c.533-.101,1.02-.361,1.405-.758l7.11-6.927c.485-.519,.792-1.148,.916-1.808Zm.049-1.005c-.06-.674-.307-1.338-.746-1.911L14.062,1.973c-.344-.418-.797-.715-1.301-.863l3.808,10.445,5.419,.9ZM1.003,12.997v0Zm21.993-.007c.005,.045,.003-.012,0,0h0Z"/></svg>
