<?xml version="1.0" encoding="UTF-8"?>
<svg xmlns="http://www.w3.org/2000/svg" id="Layer_1" data-name="Layer 1" viewBox="0 0 24 24" width="512" height="512"><path d="m23.491.509c-1.517-1.518-5.346.717-7.609,2.276-1.194-.505-2.506-.785-3.883-.785C6.486,2,2,6.486,2,12c0,1.376.279,2.688.784,3.882-1.56,2.264-3.794,6.092-2.276,7.609.34.34.812.496,1.387.496,1.518,0,3.758-1.087,6.21-2.777,1.198.508,2.514.79,3.894.79,5.514,0,10-4.486,10-10,0-1.376-.279-2.688-.784-3.882.407-.59.777-1.166,1.107-1.722,1.197-2.021,2.372-4.684,1.169-5.887Zm-11.491,2.491c3.532,0,6.595,2.046,8.068,5.014-1.476,2.071-3.394,4.308-5.57,6.484s-4.413,4.093-6.484,5.569c-2.969-1.473-5.014-4.536-5.014-8.068C3,7.038,7.037,3,12,3Zm-6.114,18.462c-2.775,1.645-4.234,1.76-4.67,1.322-.561-.56-.111-2.579,2.078-5.87.896,1.582,2.211,2.896,3.793,3.793-.409.271-.81.524-1.2.755Zm15.114-9.462c0,4.962-4.037,9-9,9-1.021,0-2.002-.171-2.918-.486,2.037-1.499,4.17-3.356,6.123-5.309,2.04-2.04,3.859-4.136,5.314-6.111.312.912.481,1.889.481,2.905Zm-.293-4.914c-.896-1.582-2.211-2.897-3.793-3.793,3.291-2.189,5.31-2.637,5.87-2.078.438.438.321,1.896-1.322,4.67-.231.391-.484.791-.755,1.2Z"/></svg>
