<?xml version="1.0" encoding="UTF-8"?>
<svg xmlns="http://www.w3.org/2000/svg" id="Layer_1" data-name="Layer 1" viewBox="0 0 24 24" width="512" height="512"><path d="m22,19.051V4c0-2.206-1.794-4-4-4h-6.214c-1.875,0-3.571,1.182-4.221,2.94L.031,23.327c-.096.259.036.546.296.642.057.021.115.031.173.031.203,0,.395-.125.469-.327l4.683-12.673h15.348v8.051c-1.14.232-2,1.242-2,2.449,0,1.379,1.121,2.5,2.5,2.5s2.5-1.121,2.5-2.5c0-1.208-.86-2.217-2-2.449ZM6.022,10l2.481-6.714c.506-1.367,1.825-2.286,3.283-2.286h6.214c1.654,0,3,1.346,3,3v6H6.022Zm15.478,13c-.827,0-1.5-.673-1.5-1.5s.673-1.5,1.5-1.5,1.5.673,1.5,1.5-.673,1.5-1.5,1.5Z"/></svg>
