<?xml version="1.0" encoding="UTF-8"?>
<svg xmlns="http://www.w3.org/2000/svg" id="Layer_1" data-name="Layer 1" viewBox="0 0 24 24" width="512" height="512"><path d="M14.736,.004C10.051,.004,6,3.923,6,9c0,2.302,.869,4.404,2.296,5.997L.146,23.146c-.195,.195-.195,.512,0,.707,.098,.098,.226,.146,.354,.146s.256-.049,.354-.146L9.003,15.704c1.593,1.427,3.695,2.296,5.997,2.296,4.963,0,9-4.037,9-9C24,3.487,19.42,.004,14.736,.004Zm.264,16.996c-4.282,0-8-3.701-8-8,0-4.323,3.447-7.856,7.737-7.995,3.419,.125,6.263,2.934,6.263,6.245,0,3.386-2.468,5.75-6,5.75-2.206,0-4-1.794-4-4s1.794-4,4-4c.944,0,2,.855,2,2,0,1.103-.897,2-2,2-.276,0-.5,.224-.5,.5s.224,.5,.5,.5c1.654,0,3-1.346,3-3,0-1.598-1.402-3-3-3-2.757,0-5,2.243-5,5s2.243,5,5,5c4.056,0,7-2.839,7-6.75,0-1.255-.351-2.448-.96-3.49,1.221,1.405,1.96,3.238,1.96,5.24,0,4.411-3.589,8-8,8Z"/></svg>
