<?xml version="1.0" encoding="UTF-8"?>
<svg xmlns="http://www.w3.org/2000/svg" id="Layer_1" data-name="Layer 1" viewBox="0 0 24 24" width="512" height="512"><path d="M24,4.5v12c0,.28-.22,.5-.5,.5s-.5-.22-.5-.5V4.5c0-1.93-1.57-3.5-3.5-3.5H4.5c-1.93,0-3.5,1.57-3.5,3.5v15c0,1.93,1.57,3.5,3.5,3.5h12c.28,0,.5,.22,.5,.5s-.22,.5-.5,.5H4.5c-2.48,0-4.5-2.02-4.5-4.5V4.5C0,2.02,2.02,0,4.5,0h15c2.48,0,4.5,2.02,4.5,4.5Zm-5,7.5c0,.16,0,.31-.02,.47-.02,.28,.19,.51,.47,.53,.25,.02,.51-.19,.53-.47,.01-.18,.02-.35,.02-.53,0-4.41-3.59-8-8-8S4,7.59,4,12s3.59,8,8,8c.18,0,.36,0,.53-.02,.28-.02,.48-.26,.46-.53-.02-.27-.24-.47-.53-.46-.15,.01-.31,.02-.47,.02-3.86,0-7-3.14-7-7s3.14-7,7-7,7,3.14,7,7Zm-8,0c0,.55,.45,1,1,1s1-.45,1-1-.45-1-1-1-1,.45-1,1Zm12.5,7h-3.5v-3.5c0-.28-.22-.5-.5-.5s-.5,.22-.5,.5v3.5h-3.5c-.28,0-.5,.22-.5,.5s.22,.5,.5,.5h3.5v3.5c0,.28,.22,.5,.5,.5s.5-.22,.5-.5v-3.5h3.5c.28,0,.5-.22,.5-.5s-.22-.5-.5-.5Z"/></svg>
