<?xml version="1.0" encoding="UTF-8"?>
<svg xmlns="http://www.w3.org/2000/svg" id="Layer_1" data-name="Layer 1" width="512" height="512" viewBox="0 0 24 24"><path d="M20.362,6h2.138c.827,0,1.5-.673,1.5-1.5,0-1.93-1.57-3.5-3.5-3.5H4.5C2.019,1,0,3.019,0,5.5v7.515c0,1.736,.676,3.369,1.904,4.596l1.096,1.096v1.293c0,1.654,1.346,3,3,3s3-1.346,3-3v-1h7v1c0,1.654,1.346,3,3,3s3-1.346,3-3v-1h1.5c.276,0,.5-.224,.5-.5v-4.407c0-1.129-.296-2.245-.856-3.225l-2.782-4.869Zm1.705,5h-7.067v-2.5c0-1.378,1.122-2.5,2.5-2.5h1.71l2.857,5ZM1,6H7.5c.276,0,.5,.224,.5,.5v2c0,.276-.224,.5-.5,.5H1v-3Zm7,14c0,1.103-.897,2-2,2s-2-.897-2-2v-1h4v1Zm6-2H3.707l-1.096-1.096c-1.039-1.039-1.611-2.42-1.611-3.889v-3.015H7.5c.827,0,1.5-.673,1.5-1.5v-2c0-.827-.673-1.5-1.5-1.5H1.036c.243-1.694,1.704-3,3.464-3H20.5c1.378,0,2.5,1.122,2.5,2.5,0,.276-.224,.5-.5,.5h-5c-1.93,0-3.5,1.57-3.5,3.5v9.5Zm7,2c0,1.103-.897,2-2,2s-2-.897-2-2v-1h4v1Zm2-2H15v-6s7.546-.004,7.581-.012c.275,.665,.419,1.382,.419,2.105v3.907Z"/></svg>
