<?xml version="1.0" encoding="UTF-8"?>
<svg xmlns="http://www.w3.org/2000/svg" id="Layer_1" data-name="Layer 1" viewBox="0 0 24 24" width="512" height="512"><path d="M8.244,18h-1.744c-.276,0-.5-.224-.5-.5v-1.744c0-1.016,.396-1.97,1.113-2.687l6.277-6.278c1.02-1.021,2.799-1.021,3.818,0,.51,.51,.791,1.188,.791,1.909s-.281,1.399-.791,1.909l-6.277,6.278c-.718,.718-1.673,1.113-2.688,1.113Zm-1.244-1h1.244c.737,0,1.459-.299,1.98-.82l6.277-6.278c.321-.321,.498-.748,.498-1.202s-.177-.881-.498-1.202c-.662-.663-1.742-.663-2.404,0l-6.277,6.278c-.529,.529-.82,1.232-.82,1.98v1.244Zm12.5,7h-6.367c-3.855,0-7.341-1.382-9.815-3.893C1.136,17.893-.042,14.965,.003,11.862,.094,5.542,5.309,.225,11.629,.009c3.197-.124,6.229,1.067,8.552,3.312,2.427,2.346,3.819,5.639,3.819,9.034v7.145c0,2.481-2.019,4.5-4.5,4.5ZM12.034,1.001c-.124,0-.247,.002-.372,.006C5.868,1.206,1.086,6.082,1.003,11.877c-.041,2.833,1.034,5.506,3.027,7.528,2.284,2.318,5.518,3.595,9.103,3.595h6.367c1.93,0,3.5-1.57,3.5-3.5v-7.145c0-3.126-1.281-6.157-3.515-8.315-2.036-1.968-4.67-3.039-7.451-3.039Z"/></svg>
