<?xml version="1.0" encoding="UTF-8"?>
<svg xmlns="http://www.w3.org/2000/svg" id="Layer_1" data-name="Layer 1" viewBox="0 0 24 24" width="512" height="512"><path d="M10,8.5c0,.28-.22,.5-.5,.5h-1c-.28,0-.5,.22-.5,.5v1c0,.28-.22,.5-.5,.5s-.5-.22-.5-.5v-1c0-.83,.67-1.5,1.5-1.5h1c.28,0,.5,.22,.5,.5Zm-2.5,6.5c-.28,0-.5,.22-.5,.5v1c0,.83,.67,1.5,1.5,1.5h1c.28,0,.5-.22,.5-.5s-.22-.5-.5-.5h-1c-.28,0-.5-.22-.5-.5v-1c0-.28-.22-.5-.5-.5Zm9-4c.28,0,.5-.22,.5-.5v-1c0-.83-.67-1.5-1.5-1.5h-1c-.28,0-.5,.22-.5,.5s.22,.5,.5,.5h1c.28,0,.5,.22,.5,.5v1c0,.28,.22,.5,.5,.5ZM21.5,0h-4.84c-1.05,0-1.97,.58-2.35,1.47-.39,.93-1.3,1.53-2.3,1.53s-1.91-.6-2.3-1.53c-.38-.9-1.3-1.47-2.35-1.47H2.5C1.12,0,0,1.12,0,2.5v2.06c0,1.08,.69,2.03,1.71,2.37l.26,.09c.61,.21,1.03,.78,1.03,1.42v11.06c0,2.48,2.02,4.5,4.5,4.5h5c.28,0,.5-.22,.5-.5s-.22-.5-.5-.5H7.5c-1.93,0-3.5-1.57-3.5-3.5V8.44c0-1.08-.69-2.03-1.71-2.37l-.26-.09c-.61-.21-1.03-.78-1.03-1.42V2.5c0-.83,.67-1.5,1.5-1.5H7.34c.64,0,1.21,.35,1.43,.86,.55,1.3,1.82,2.14,3.22,2.14s2.67-.84,3.23-2.14c.22-.52,.79-.86,1.43-.86h4.84c.83,0,1.5,.67,1.5,1.5v2.06c0,.65-.41,1.22-1.02,1.42l-.27,.09c-1.02,.34-1.71,1.29-1.71,2.37v4.06c0,.28,.22,.5,.5,.5s.5-.22,.5-.5v-4.06c0-.65,.41-1.22,1.02-1.42l.27-.09c1.02-.34,1.71-1.29,1.71-2.37V2.5c0-1.38-1.12-2.5-2.5-2.5Zm1.5,16.81c0,.2-.1,.38-.28,.47l-4.29,2.15-2.15,4.3c-.08,.17-.26,.28-.45,.28,0,0-.02,0-.02,0-.2,0-.37-.14-.44-.32l-3.27-8.53c-.21-.6-.06-1.24,.38-1.68,.44-.44,1.07-.59,1.66-.38,0,0,.01,0,.02,0l8.53,3.27c.19,.07,.31,.24,.32,.44Zm-1.74,.08l-7.46-2.86c-.06-.02-.13-.03-.2-.03-.16,0-.31,.06-.43,.18-.17,.17-.22,.4-.15,.63l2.86,7.45,1.71-3.43c.05-.1,.13-.18,.22-.22l3.43-1.71Z"/></svg>
