<?xml version="1.0" encoding="UTF-8"?>
<svg xmlns="http://www.w3.org/2000/svg" id="Layer_1" data-name="Layer 1" width="512" height="512" viewBox="0 0 24 24"><path d="M15.5,0c-.603,0-1.5,.399-1.5,1.5v7.5H4.735l-1.39-1.668c-.706-.847-1.743-1.332-2.845-1.332-.276,0-.5,.224-.5,.5s.224,.5,.5,.5c.805,0,1.562,.354,2.076,.973l1.424,1.709v.819c0,2.481,2.019,4.5,4.5,4.5h4.432l-3.488,4.186c-.292-.119-.61-.186-.944-.186-1.378,0-2.5,1.122-2.5,2.5s1.122,2.5,2.5,2.5,2.5-1.122,2.5-2.5c0-.683-.275-1.302-.721-1.754l3.721-4.465,3.721,4.465c-.445,.452-.721,1.071-.721,1.754,0,1.378,1.122,2.5,2.5,2.5s2.5-1.122,2.5-2.5-1.122-2.5-2.5-2.5c-.334,0-.653,.066-.944,.186l-3.488-4.186h4.432c2.481,0,4.5-2.019,4.5-4.5v-1C24,.108,15.585,0,15.5,0Zm-7,23c-.827,0-1.5-.673-1.5-1.5s.673-1.5,1.5-1.5,1.5,.673,1.5,1.5-.673,1.5-1.5,1.5Zm12.5-1.5c0,.827-.673,1.5-1.5,1.5s-1.5-.673-1.5-1.5,.673-1.5,1.5-1.5,1.5,.673,1.5,1.5ZM15,1.5c0-.403,.275-.494,.499-.5,.3,0,7.211,.118,7.492,8h-7.991V1.5Zm8,9c0,1.93-1.57,3.5-3.5,3.5H8.5c-1.93,0-3.5-1.57-3.5-3.5v-.5H23v.5Z"/></svg>
