<?xml version="1.0" encoding="UTF-8"?>
<svg xmlns="http://www.w3.org/2000/svg" id="Layer_1" data-name="Layer 1" viewBox="0 0 24 24" width="512" height="512"><path d="m12,0C5.383,0,0,5.431,0,12.106s5.271,11.894,12,11.894,12-5.224,12-11.894S18.617,0,12,0Zm0,1c.955,0,1.882.124,2.766.356-.258.509-.623,1.201-.928,1.778-.245.463-.451.854-.514,1.005l-1.102.275c-.625.156-1.119.613-1.322,1.224l-.205.613c-.194.583-.089,1.224.279,1.714l.699.933c.044.059.044.145,0,.204l-.623.83c-.032.042-.083.068-.136.068h-.679c-.479,0-.93.209-1.24.575-.309.366-.441.846-.362,1.316l.257,1.545-.616.308-1.082-1.353c-.555-.69-1.617-.826-2.324-.294l-1.154.866c-.031.023-.071.037-.11.037H1.035c-.023-.294-.035-.592-.035-.894C1,5.982,5.935,1,12,1Zm0,22c-5.515,0-9.96-3.825-10.841-9h2.447c.254,0,.505-.083.709-.236l1.155-.866c.29-.217.718-.161.943.12l1.186,1.482c.153.193.385.298.621.298.12,0,.24-.027.352-.083l.905-.452c.312-.156.484-.493.427-.838l-.283-1.697c-.03-.181.021-.365.139-.505.119-.14.292-.221.477-.221h.679c.365,0,.715-.175.935-.468l.624-.831c.309-.413.309-.99,0-1.403l-.7-.934c-.171-.228-.22-.526-.13-.798l.205-.613c.094-.284.325-.497.615-.57l1.103-.275c.275-.069.505-.254.632-.508.082-.166.284-.547.523-1,.338-.639.748-1.418,1.01-1.941,4.234,1.547,7.268,5.646,7.268,10.448,0,.813-.086,1.602-.249,2.36l-2.18-1.313c-.325-.198-.767-.145-1.04.127l-.849.849c-.12.12-.27.2-.435.232l-1.605.321c-.408.082-.749.342-.935.714l-.408.815c-.188.375-.188.823,0,1.198l.387.774c.197.393.574.665.965.718l3.325.776c-1.99,2.058-4.806,3.322-7.976,3.322Zm8.718-4.175l-3.883-.904c-.11-.016-.205-.084-.255-.184l-.387-.774c-.048-.094-.048-.208,0-.302l.408-.815c.048-.096.132-.16.237-.181l1.604-.321c.36-.071.687-.246.947-.506l.766-.766,2.329,1.402c-.391,1.232-.993,2.362-1.766,3.352Zm-11.718-1.325c0,.276-.224.5-.5.5h-2c-.276,0-.5-.224-.5-.5s.224-.5.5-.5h2c.276,0,.5.224.5.5Zm4.854-4.354c.195.195.195.512,0,.707l-1.701,1.7c-.098.098-.226.146-.354.146s-.256-.049-.354-.146c-.195-.195-.195-.512,0-.707l1.701-1.7c.195-.195.512-.195.707,0Zm1.423-4.199c-.247-.124-.347-.424-.224-.671l1-2c.125-.247.424-.347.671-.224.247.124.347.424.224.671l-1,2c-.088.175-.264.276-.448.276-.075,0-.151-.017-.223-.053Z"/></svg>
