<?xml version="1.0" encoding="UTF-8"?>
<svg xmlns="http://www.w3.org/2000/svg" id="Layer_1" data-name="Layer 1" viewBox="0 0 24 24" width="512" height="512"><path d="M23.49,13c-.007,0-.015,0-.022,0-.276-.012-.49-.245-.478-.521,.007-.158,.01-.317,.01-.478,0-6.065-4.935-11-11-11S1,5.935,1,12c0,.16,.003,.319,.01,.478,.012,.276-.202,.51-.478,.521-.27,.051-.509-.201-.521-.477-.008-.174-.011-.347-.011-.522C0,5.383,5.383,0,12,0s12,5.383,12,12c0,.176-.003,.349-.011,.522-.012,.268-.233,.478-.499,.478Zm-9.922,10.894c.274-.037,.465-.29,.427-.563s-.29-.465-.563-.427c-.937,.129-1.928,.129-2.864,0-.276-.037-.526,.154-.563,.427-.038,.273,.153,.526,.427,.563,.513,.07,1.04,.106,1.568,.106s1.055-.036,1.568-.106Zm-4.428-12.754c1.4-1.4,1.777-3.218,.857-4.137h0c-.92-.919-2.737-.542-4.137,.857-1.4,1.4-1.777,3.218-.857,4.137,.339,.339,.801,.502,1.318,.502,.885,0,1.935-.476,2.818-1.359Zm.15-3.43c.441,.441,.197,1.668-.857,2.723-1.055,1.055-2.281,1.297-2.723,.857-.441-.441-.197-1.668,.857-2.723,.725-.725,1.531-1.066,2.107-1.066,.263,0,.478,.071,.616,.209Zm9.707,4.287c.919-.919,.543-2.736-.857-4.137-1.4-1.4-3.217-1.775-4.137-.857h0c-.919,.919-.543,2.736,.857,4.137,.883,.884,1.933,1.359,2.818,1.359,.518,0,.979-.163,1.318-.502Zm-1.564-3.43c1.055,1.055,1.298,2.281,.857,2.723-.441,.439-1.667,.197-2.723-.857-1.055-1.055-1.298-2.281-.857-2.723,.44-.44,1.667-.197,2.723,.857Zm-2.433,8.433v-1c0-1.654-1.346-3-3-3s-3,1.346-3,3v1c0,1.654,1.346,3,3,3s3-1.346,3-3Zm-1-1v1c0,1.103-.897,2-2,2s-2-.897-2-2v-1c0-1.103,.897-2,2-2s2,.897,2,2Zm-6.449,7.997c.275-.027,.475-.273,.447-.548-.363-3.543-2.502-6.302-3.437-7.357-.839-1.126-2.317-1.414-3.439-.674-1.145,.756-1.465,2.307-.71,3.461,.054,.082,1.334,2.045,1.591,4.67,.027,.274,.27,.471,.546,.449,.275-.027,.476-.271,.449-.547-.276-2.82-1.602-4.896-1.752-5.123-.452-.691-.26-1.622,.427-2.076,.673-.446,1.57-.256,2.087,.438,.008,.012,.074,.088,.083,.099,.839,.949,2.827,3.509,3.16,6.763,.026,.258,.244,.449,.497,.449,.017,0,.034,0,.051-.003Zm9.447-.446c.333-3.254,2.321-5.813,3.16-6.763,.009-.011,.075-.088,.083-.099,.517-.693,1.416-.882,2.087-.438,.687,.454,.878,1.385,.427,2.075-.15,.228-1.477,2.304-1.752,5.124-.027,.275,.174,.52,.449,.547,.28,.02,.52-.175,.546-.449,.257-2.625,1.537-4.588,1.594-4.674,.752-1.15,.432-2.701-.713-3.457-1.122-.743-2.601-.451-3.471,.708-.903,1.021-3.042,3.78-3.405,7.323-.028,.274,.172,.521,.447,.548,.017,.002,.034,.003,.051,.003,.253,0,.471-.191,.497-.449Z"/></svg>
