<?xml version="1.0" encoding="UTF-8"?>
<svg xmlns="http://www.w3.org/2000/svg" id="Layer_1" data-name="Layer 1" viewBox="0 0 24 24" width="512" height="512"><path d="M16.564,.013H7.564C5.083,.013,3.064,2.031,3.064,4.513v15c0,2.481,2.019,4.5,4.5,4.5h2c.276,0,.5-.224,.5-.5v-6.513h4v6.513c0,.276,.224,.5,.5,.5h2c2.481,0,4.5-2.019,4.5-4.5V4.513C21.064,2.031,19.045,.013,16.564,.013Zm3.5,19.5c0,1.93-1.57,3.5-3.5,3.5h-1.5v-6.013h1.436c.276,0,.5-.224,.5-.5s-.224-.5-.5-.5H7.5c-.276,0-.5,.224-.5,.5s.224,.5,.5,.5h1.564v6.013h-1.5c-1.93,0-3.5-1.57-3.5-3.5V4.513c0-1.93,1.57-3.5,3.5-3.5h9c1.93,0,3.5,1.57,3.5,3.5v15Zm-11.064-7.013c0,.276-.224,.5-.5,.5h-1c-.276,0-.5-.224-.5-.5s.224-.5,.5-.5h1c.276,0,.5,.224,.5,.5Zm8,0c0,.276-.224,.5-.5,.5h-1c-.276,0-.5-.224-.5-.5s.224-.5,.5-.5h1c.276,0,.5,.224,.5,.5ZM9,4.5c0,.276-.224,.5-.5,.5h-1c-.276,0-.5-.224-.5-.5s.224-.5,.5-.5h1c.276,0,.5,.224,.5,.5Zm8,0c0,.276-.224,.5-.5,.5h-1c-.276,0-.5-.224-.5-.5s.224-.5,.5-.5h1c.276,0,.5,.224,.5,.5Zm-8,4c0,.276-.224,.5-.5,.5h-1c-.276,0-.5-.224-.5-.5s.224-.5,.5-.5h1c.276,0,.5,.224,.5,.5Zm8,0c0,.276-.224,.5-.5,.5h-1c-.276,0-.5-.224-.5-.5s.224-.5,.5-.5h1c.276,0,.5,.224,.5,.5Zm-4,4c0,.276-.224,.5-.5,.5h-1c-.276,0-.5-.224-.5-.5s.224-.5,.5-.5h1c.276,0,.5,.224,.5,.5Zm0-8c0,.276-.224,.5-.5,.5h-1c-.276,0-.5-.224-.5-.5s.224-.5,.5-.5h1c.276,0,.5,.224,.5,.5Zm0,4c0,.276-.224,.5-.5,.5h-1c-.276,0-.5-.224-.5-.5s.224-.5,.5-.5h1c.276,0,.5,.224,.5,.5Z"/></svg>
