<?xml version="1.0" encoding="UTF-8"?>
<svg xmlns="http://www.w3.org/2000/svg" id="Layer_1" data-name="Layer 1" viewBox="0 0 24 24" width="512" height="512"><path d="m20.5,0H3.5C1.57,0,0,1.57,0,3.5v13c0,1.93,1.57,3.5,3.5,3.5h3.605l3.898,3.284c.285.253.645.379,1.001.379.352,0,.702-.123.978-.368l3.985-3.295h3.532c1.93,0,3.5-1.57,3.5-3.5V3.5c0-1.93-1.57-3.5-3.5-3.5Zm2.5,16.5c0,1.378-1.121,2.5-2.5,2.5h-3.712c-.116,0-.229.041-.318.115l-4.138,3.421c-.189.168-.474.169-.674-.008l-4.048-3.41c-.09-.076-.204-.118-.322-.118h-3.788c-1.379,0-2.5-1.122-2.5-2.5V3.5c0-1.378,1.121-2.5,2.5-2.5h17c1.379,0,2.5,1.122,2.5,2.5v13ZM13.732,4.732l-6.707,6.707c-.651.651-1.025,1.554-1.025,2.475v1.586c0,.276.224.5.5.5h1.586c.936,0,1.814-.364,2.475-1.025l6.707-6.707c.473-.472.732-1.1.732-1.768s-.26-1.296-.732-1.768c-.975-.975-2.561-.975-3.535,0Zm2.828,2.828l-6.707,6.707c-.472.472-1.1.732-1.768.732h-1.086v-1.086c0-.658.267-1.302.732-1.768l6.707-6.707c.584-.585,1.537-.585,2.121,0,.283.283.439.66.439,1.061s-.156.777-.439,1.061Z"/></svg>
