<?xml version="1.0" encoding="UTF-8"?>
<svg xmlns="http://www.w3.org/2000/svg" id="Layer_1" data-name="Layer 1" viewBox="0 0 24 24" width="512" height="512"><path d="M18.5,20c3.238,0,5.5-2.468,5.5-6s-2.262-6-5.5-6c-.471,0-.927,.073-1.365,.2,.498-.84,.865-1.828,.865-2.902,0-2.921-2.692-5.298-6-5.298-1.588,0-3.085,.543-4.216,1.53-1.15,1.004-1.784,2.342-1.784,3.768,0,1.053,.381,2.052,.904,2.914-.451-.135-.92-.212-1.404-.212-3.238,0-5.5,2.468-5.5,6s2.262,6,5.5,6c2.631,0,4.809-2.314,5.988-3.892-.086,2.201-.713,6.892-4.488,6.892h-1.5c-.276,0-.5,.224-.5,.5s.224,.5,.5,.5h13c.276,0,.5-.224,.5-.5s-.224-.5-.5-.5h-1.5c-3.775,0-4.402-4.692-4.488-6.892,1.179,1.578,3.357,3.892,5.988,3.892ZM7,5.298c0-2.37,2.243-4.298,5-4.298s5,1.928,5,4.298c0,1.601-1.102,3.118-2.025,4.014-1.375,1.016-2.423,2.383-2.975,3.194-.423-.621-1.136-1.568-2.065-2.434-.032-.046-.508-.448-.669-.576-.923-.843-2.266-2.448-2.266-4.198Zm-1.5,13.702c-3.108,0-4.5-2.511-4.5-5s1.392-5,4.5-5c1.136,0,2.201,.542,3.112,1.257,.16,.145,.314,.273,.456,.383,1.5,1.34,2.483,3.018,2.5,3.046,.179,.309,.688,.309,.866,0,.016-.027,.947-1.617,2.379-2.937,.21-.145,.49-.369,.798-.66,.86-.63,1.845-1.089,2.89-1.089,3.108,0,4.5,2.511,4.5,5s-1.392,5-4.5,5c-3.321,0-6.037-4.761-6.064-4.81-.089-.157-.255-.255-.436-.255s-.347,.098-.436,.255c-.027,.049-2.743,4.81-6.064,4.81Zm8.596,4h-4.191c1.011-.828,1.687-2.102,2.096-3.558,.408,1.456,1.085,2.73,2.096,3.558Z"/></svg>
