<?xml version="1.0" encoding="UTF-8"?>
<svg xmlns="http://www.w3.org/2000/svg" id="Layer_1" data-name="Layer 1" viewBox="0 0 24 24" width="512" height="512"><path d="M7,9c-2.21,0-4,1.79-4,4s1.79,4,4,4,4-1.79,4-4-1.79-4-4-4Zm0,7c-1.65,0-3-1.35-3-3s1.35-3,3-3,3,1.35,3,3-1.35,3-3,3Zm12.5-7h-5c-.83,0-1.5,.67-1.5,1.5v5c0,.83,.67,1.5,1.5,1.5h5c.83,0,1.5-.67,1.5-1.5v-5c0-.83-.67-1.5-1.5-1.5Zm.5,6.5c0,.28-.22,.5-.5,.5h-5c-.28,0-.5-.22-.5-.5v-5c0-.28,.22-.5,.5-.5h5c.28,0,.5,.22,.5,.5v5Zm-.5-12.5H4.5C2.02,3,0,5.02,0,7.5v9c0,2.48,2.02,4.5,4.5,4.5h15c2.48,0,4.5-2.02,4.5-4.5V7.5c0-2.48-2.02-4.5-4.5-4.5Zm-15,1h15c1.39,0,2.6,.82,3.16,2H1.34c.56-1.18,1.77-2,3.16-2Zm18.5,12.5c0,1.93-1.57,3.5-3.5,3.5H4.5c-1.93,0-3.5-1.57-3.5-3.5V7.5c0-.17,.01-.34,.04-.5H22.96c.02,.16,.04,.33,.04,.5v9Z"/></svg>
