<?xml version="1.0" encoding="UTF-8"?>
<svg xmlns="http://www.w3.org/2000/svg" id="Layer_1" data-name="Layer 1" viewBox="0 0 24 24" width="512" height="512"><path d="M20,19.05V8.533c0-.08-.099-7.992-8.606-8.532-.735-.04-1.41,.397-1.623,1.081-.859,2.765-2.235,3.771-4.321,4.574-.867,.335-1.449,1.177-1.449,2.097,0,1.239,1.008,2.247,2.247,2.247h4.641c-.638,2.617-2.371,3.604-3.967,4.321-1.774,.799-2.921,2.523-2.921,4.393v.336c-1.14,.232-2,1.242-2,2.45,0,1.379,1.121,2.5,2.5,2.5h15c1.379,0,2.5-1.121,2.5-2.5,0-1.208-.86-2.218-2-2.45Zm-12.669-3.817c2.089-.939,4.099-2.274,4.662-5.651,.024-.145-.017-.293-.111-.405-.096-.112-.234-.177-.382-.177H6.247c-.688,0-1.247-.56-1.247-1.247,0-.509,.325-.977,.809-1.163,2.249-.866,3.945-2.084,4.917-5.211,.074-.237,.312-.395,.605-.38,7.559,.479,7.668,7.247,7.669,7.534v10.467H5v-.286c0-1.477,.915-2.843,2.331-3.48Zm12.169,7.767H4.5c-.827,0-1.5-.673-1.5-1.5s.673-1.5,1.5-1.5h15c.827,0,1.5,.673,1.5,1.5s-.673,1.5-1.5,1.5Z"/></svg>
