<?xml version="1.0" encoding="UTF-8"?>
<svg xmlns="http://www.w3.org/2000/svg" id="Layer_1" data-name="Layer 1" viewBox="0 0 24 24" width="512" height="512"><path d="M21.12,8.6c-.56-.48-1.3-.68-2.04-.56-.64,.1-1.19,.47-1.57,.99-.46-.62-1.19-1.02-2.01-1.02-.25,0-.48,.04-.71,.1l1.14-5.04c.17-.72,0-1.46-.43-2.05C15.07,.42,14.39,.05,13.65,0c-1.19-.08-2.32,.8-2.61,2.04l-1.04,4.49-1.04-4.49C8.67,.8,7.55-.08,6.35,0c-.74,.05-1.42,.41-1.86,1-.44,.59-.6,1.34-.43,2.06l1.9,8.17c-.27,.12-.52,.3-.75,.52l-1.78,2.03c-.93,.93-1.44,2.16-1.44,3.47s.51,2.55,1.44,3.47l1.37,1.37c1.23,1.23,2.86,1.9,4.6,1.9h6.1c3.58,0,6.5-2.92,6.5-6.5v-7c0-.73-.32-1.43-.88-1.9Zm-1.88,.43c.45-.07,.89,.05,1.23,.34,.34,.29,.53,.7,.53,1.14v3c0,.83-.67,1.5-1.5,1.5s-1.5-.67-1.5-1.5v-2.89c0-.79,.54-1.47,1.24-1.59Zm-2.24,1.48v3c0,.83-.67,1.5-1.5,1.5s-1.5-.67-1.5-1.5v-3c0-.83,.67-1.5,1.5-1.5s1.5,.67,1.5,1.5Zm-1.5,12.5h-6.1c-1.45,0-2.87-.59-3.89-1.61l-1.37-1.37c-.74-.74-1.15-1.72-1.14-2.77,0-1.04,.41-2.03,1.17-2.79l1.78-2.03c.59-.58,1.54-.58,2.12,0,.28,.28,.44,.66,.44,1.06,0,.4-.16,.78-.46,1.08l-2.01,2.22c-.18,.21-.17,.52,.04,.71,.21,.19,.52,.17,.71-.04l1.99-2.2c.47-.47,.73-1.1,.73-1.77,0-.67-.26-1.3-.73-1.77-.5-.5-1.17-.75-1.83-.73L5.04,2.84c-.1-.43,0-.88,.26-1.23,.27-.36,.66-.57,1.12-.6,.72-.04,1.39,.5,1.57,1.27l1.53,6.6c.05,.23,.25,.39,.49,.39s.43-.16,.49-.39l1.53-6.6c.18-.77,.86-1.32,1.57-1.27,.46,.03,.85,.24,1.12,.6,.26,.35,.36,.8,.26,1.23l-1.37,6.05c-.37,.44-.59,1-.59,1.61v3c0,1.38,1.12,2.5,2.5,2.5,.82,0,1.54-.39,2-1,.46,.61,1.18,1,2,1,.56,0,1.08-.19,1.5-.5v2c0,3.03-2.47,5.5-5.5,5.5Z"/></svg>
