<?xml version="1.0" encoding="UTF-8"?>
<svg xmlns="http://www.w3.org/2000/svg" id="Layer_1" data-name="Layer 1" viewBox="0 0 24 24" width="512" height="512"><path d="m12,4.5v15c0,.276-.224.5-.5.5s-.5-.224-.5-.5v-7.5H1v7.5c0,.276-.224.5-.5.5s-.5-.224-.5-.5V4.5c0-.276.224-.5.5-.5s.5.224.5.5v6.5h10v-6.5c0-.276.224-.5.5-.5s.5.224.5.5Zm11.5,14.5l-7.803-.002c-.278,0-.514-.149-.629-.399-.121-.262-.08-.552.109-.775.666-.785,1.881-1.485,3.167-2.226,2.719-1.566,5.802-3.341,5.652-6.878-.112-2.646-2.307-4.72-4.997-4.72-2.759,0-5.003,2.244-5.003,5.003,0,.276.224.5.5.5s.5-.224.5-.5c0-2.207,1.796-4.003,4.003-4.003,2.152,0,3.908,1.652,3.998,3.763.125,2.931-2.558,4.475-5.152,5.968-1.364.786-2.653,1.527-3.431,2.446-.442.521-.539,1.227-.254,1.842.28.604.869.979,1.537.979l7.803.002c.276,0,.5-.224.5-.5s-.224-.5-.5-.5Z"/></svg>
