<?xml version="1.0" encoding="UTF-8"?>
<svg xmlns="http://www.w3.org/2000/svg" id="Layer_1" data-name="Layer 1" viewBox="0 0 24 24" width="512" height="512"><path d="M23.85,23.85c-.1,.1-.23,.15-.35,.15s-.26-.05-.35-.15L.15,.85C-.05,.66-.05,.34,.15,.15S.66-.05,.85,.15L5.21,4.51c6.08-2.85,13.34-1.58,18.1,3.18,.19,.19,.38,.39,.56,.58,.19,.21,.17,.52-.03,.71-.1,.09-.22,.13-.34,.13-.14,0-.27-.06-.37-.16-.17-.19-.34-.37-.52-.55C18.23,4.02,11.6,2.79,5.97,5.26l4.84,4.84s.09-.03,.14-.04c2.75-.33,5.46,.61,7.42,2.57,.17,.17,.34,.36,.5,.54,.18,.21,.15,.53-.06,.7-.09,.08-.21,.12-.32,.12-.14,0-.28-.06-.38-.18-.14-.16-.29-.33-.44-.48-1.59-1.59-3.73-2.42-5.94-2.34l12.14,12.14c.2,.2,.2,.51,0,.71Zm-9.85-4.85c0,1.1-.9,2-2,2s-2-.9-2-2,.9-2,2-2,2,.9,2,2Zm-1,0c0-.55-.45-1-1-1s-1,.45-1,1,.45,1,1,1,1-.45,1-1Zm-5.24-7.94c-.78,.42-1.49,.95-2.12,1.58-.17,.17-.34,.36-.5,.54-.18,.21-.15,.53,.06,.7,.09,.08,.21,.12,.32,.12,.14,0,.28-.06,.38-.18,.14-.16,.29-.33,.44-.48,.56-.56,1.2-1.03,1.89-1.4,.24-.13,.34-.43,.21-.68-.13-.24-.43-.34-.68-.21ZM2.71,5.97c-.72,.51-1.4,1.09-2.02,1.71-.19,.19-.38,.39-.56,.59-.19,.21-.17,.52,.03,.71,.1,.09,.22,.13,.34,.13,.14,0,.27-.06,.37-.16,.17-.19,.34-.37,.52-.55,.59-.59,1.22-1.13,1.9-1.61,.22-.16,.28-.47,.12-.7-.16-.22-.47-.28-.7-.12Z"/></svg>
