<?xml version="1.0" encoding="UTF-8"?>
<svg xmlns="http://www.w3.org/2000/svg" id="Layer_1" data-name="Layer 1" viewBox="0 0 24 24" width="512" height="512"><path d="m12,0C6.486,0,2,4.389,2,9.783c0,5.222,4.73,10.534,7.55,13.235.687.658,1.568.987,2.45.987s1.763-.329,2.45-.987c2.82-2.701,7.55-8.013,7.55-13.235C22,4.389,17.514,0,12,0Zm1.759,22.296c-.986.944-2.531.944-3.518,0-2.704-2.591-7.241-7.663-7.241-12.513S7.038,1,12,1s9,3.94,9,8.783-4.537,9.922-7.241,12.513Zm-3.907-14.033c-.84-.841-2.208-1.088-3.207-1.147-.44-.031-.875.138-1.188.451-.313.313-.478.746-.451,1.188.059.999.306,2.367,1.147,3.208.84.84,2.299,1.091,3.299,1.15.41,0,.806-.163,1.097-.455.313-.313.477-.746.451-1.188-.06-1-.308-2.367-1.147-3.207Zm-.011,3.688c-.112.113-.259.168-.422.161-1.168-.07-2.077-.374-2.56-.856s-.787-1.392-.856-2.56c-.009-.159.047-.309.16-.421.104-.104.241-.161.388-.161,1.168.069,2.111.375,2.594.857s.787,1.392.856,2.56c.009.159-.047.309-.16.421Zm8.703-4.384c-.312-.313-.744-.482-1.188-.451-.999.059-2.367.307-3.207,1.147-.84.84-1.088,2.208-1.147,3.207-.026.442.138.875.451,1.188.292.292.687.455,1.098.455,1-.06,2.458-.311,3.298-1.15.841-.841,1.088-2.208,1.147-3.208.026-.442-.138-.875-.451-1.188Zm-.547,1.128c-.069,1.168-.374,2.077-.856,2.56s-1.392.787-2.559.856c-.169.003-.31-.048-.422-.161-.113-.113-.169-.262-.16-.421.07-1.168.374-2.077.856-2.56s1.426-.788,2.594-.857c.146,0,.283.057.388.161.113.113.169.262.16.421Z"/></svg>
