<?xml version="1.0" encoding="UTF-8"?>
<svg xmlns="http://www.w3.org/2000/svg" id="Layer_1" data-name="Layer 1" viewBox="0 0 24 24" width="512" height="512"><path d="M12,0C5.383,0,0,5.383,0,12s5.383,12,12,12,12-5.383,12-12S18.617,0,12,0Zm0,23c-6.065,0-11-4.935-11-11S5.935,1,12,1s11,4.935,11,11-4.935,11-11,11ZM14.201,6.731c-.373-.368-.927-.476-1.412-.272-.487,.204-.79,.655-.79,1.18v3.861H5.5c-.276,0-.5,.224-.5,.5s.224,.5,.5,.5h6.5v3.861c0,.524,.302,.976,.79,1.18,.163,.068,.334,.102,.503,.102,.334,0,.662-.129,.909-.374l4.419-4.361c.245-.242,.38-.564,.38-.908s-.135-.666-.38-.908l-4.418-4.36Zm3.716,5.465l-4.418,4.36c-.125,.125-.268,.085-.324,.062-.052-.022-.175-.091-.175-.257V7.639c0-.166,.123-.235,.175-.257,.026-.011,.07-.025,.123-.025,.061,0,.134,.02,.202,.086l4.418,4.36c.054,.053,.083,.123,.083,.197s-.029,.144-.083,.196Z"/></svg>
