<?xml version="1.0" encoding="UTF-8"?>
<svg xmlns="http://www.w3.org/2000/svg" id="Layer_1" data-name="Layer 1" viewBox="0 0 24 24" width="512" height="512"><path d="m9.007,6.007c0-.552.448-1,1-1s1,.448,1,1-.448,1-1,1-1-.448-1-1Zm5.997,3.986c.55,0,.996-.446.996-.996s-.446-.996-.996-.996-.996.446-.996.996.446.996.996.996Zm8.86,5.525c-.683,2.34-1.92,4.45-3.579,6.103-1.524,1.518-3.681,2.388-5.915,2.388h-4.724c-2.235,0-4.391-.87-5.914-2.388-1.659-1.652-2.897-3.763-3.58-6.104-.316-1.079-.111-2.213.562-3.11.408-.545.949-.947,1.562-1.177-.178-.429-.267-.885-.267-1.363,0-1.292.641-2.508,1.714-3.252.18-.12.285-.191.285-.607,0-2.206,1.794-4,4-4,.613,0,.768-.213.903-.4C9.644.587,10.771.006,12.008.006s2.363.581,3.093,1.594c.141.194.293.407.907.407,2.206,0,4,1.794,4,4,0,.416.105.487.239.577,1.119.774,1.761,1.99,1.761,3.282,0,.478-.09.934-.268,1.363.613.23,1.154.632,1.562,1.177.673.897.878,2.031.562,3.111ZM3.276,11.016c.077-.005.155-.008.233-.008h16.997c.078,0,.156.003.233.008.18-.358.269-.735.269-1.149,0-.964-.48-1.872-1.285-2.43-.254-.171-.715-.48-.715-1.43,0-1.654-1.346-3-3-3-1.127,0-1.523-.552-1.714-.817-.544-.754-1.376-1.184-2.286-1.184s-1.743.43-2.281,1.178c-.197.272-.596.823-1.72.823-1.654,0-3,1.346-3,3,0,.949-.461,1.259-.683,1.407-.837.579-1.316,1.487-1.316,2.452,0,.415.089.792.268,1.149Zm19.226,1.99c-.476-.634-1.203-.998-1.996-.998H3.509c-.793,0-1.521.364-1.996.998-.481.643-.628,1.456-.402,2.23.627,2.148,1.809,4.163,3.326,5.675,1.338,1.333,3.236,2.097,5.209,2.097h4.724c1.973,0,3.871-.765,5.21-2.097,1.517-1.512,2.698-3.527,3.325-5.674.226-.775.079-1.589-.402-2.231Z"/></svg>
