<?xml version="1.0" encoding="UTF-8"?>
<svg xmlns="http://www.w3.org/2000/svg" id="Layer_1" data-name="Layer 1" viewBox="0 0 24 24" width="512" height="512"><path d="M7.5,0H3.5C1.57,0,0,1.57,0,3.5V7.5c0,1.93,1.57,3.5,3.5,3.5H7.5c1.93,0,3.5-1.57,3.5-3.5V3.5c0-1.93-1.57-3.5-3.5-3.5Zm2.5,7.5c0,1.378-1.122,2.5-2.5,2.5H3.5c-1.378,0-2.5-1.122-2.5-2.5V3.5c0-1.378,1.122-2.5,2.5-2.5H7.5c1.378,0,2.5,1.122,2.5,2.5V7.5ZM6.5,3h-2c-.827,0-1.5,.673-1.5,1.5v2c0,.827,.673,1.5,1.5,1.5h2c.827,0,1.5-.673,1.5-1.5v-2c0-.827-.673-1.5-1.5-1.5Zm.5,3.5c0,.276-.224,.5-.5,.5h-2c-.276,0-.5-.224-.5-.5v-2c0-.276,.224-.5,.5-.5h2c.276,0,.5,.224,.5,.5v2ZM20.5,0h-4c-1.93,0-3.5,1.57-3.5,3.5V7.5c0,1.93,1.57,3.5,3.5,3.5h4c1.93,0,3.5-1.57,3.5-3.5V3.5c0-1.93-1.57-3.5-3.5-3.5Zm2.5,7.5c0,1.378-1.121,2.5-2.5,2.5h-4c-1.379,0-2.5-1.122-2.5-2.5V3.5c0-1.378,1.121-2.5,2.5-2.5h4c1.379,0,2.5,1.122,2.5,2.5V7.5Zm-3.5-4.5h-2c-.827,0-1.5,.673-1.5,1.5v2c0,.827,.673,1.5,1.5,1.5h2c.827,0,1.5-.673,1.5-1.5v-2c0-.827-.673-1.5-1.5-1.5Zm.5,3.5c0,.276-.225,.5-.5,.5h-2c-.275,0-.5-.224-.5-.5v-2c0-.276,.225-.5,.5-.5h2c.275,0,.5,.224,.5,.5v2ZM7.5,13H3.5c-1.93,0-3.5,1.57-3.5,3.5v4c0,1.93,1.57,3.5,3.5,3.5H7.5c1.93,0,3.5-1.57,3.5-3.5v-4c0-1.93-1.57-3.5-3.5-3.5Zm2.5,7.5c0,1.378-1.122,2.5-2.5,2.5H3.5c-1.378,0-2.5-1.122-2.5-2.5v-4c0-1.378,1.122-2.5,2.5-2.5H7.5c1.378,0,2.5,1.122,2.5,2.5v4Zm-3.5-4.5h-2c-.827,0-1.5,.673-1.5,1.5v2c0,.827,.673,1.5,1.5,1.5h2c.827,0,1.5-.673,1.5-1.5v-2c0-.827-.673-1.5-1.5-1.5Zm.5,3.5c0,.276-.224,.5-.5,.5h-2c-.276,0-.5-.224-.5-.5v-2c0-.276,.224-.5,.5-.5h2c.276,0,.5,.224,.5,.5v2Zm15.5-6.5h-1c-.827,0-1.5,.673-1.5,1.5v1.5h-3v-1.5c0-.827-.673-1.5-1.5-1.5h-1c-.827,0-1.5,.673-1.5,1.5v1c0,.827,.673,1.5,1.5,1.5h1.5v3h-1.5c-.827,0-1.5,.673-1.5,1.5v1c0,.827,.673,1.5,1.5,1.5h1c.827,0,1.5-.673,1.5-1.5v-1.5h2.5c.827,0,1.5-.673,1.5-1.5v-2.5h1.5c.827,0,1.5-.673,1.5-1.5v-1c0-.827-.673-1.5-1.5-1.5Zm-8.5,2.5v-1c0-.276,.225-.5,.5-.5h1c.275,0,.5,.224,.5,.5v1.5h-1.5c-.275,0-.5-.224-.5-.5Zm2,7c0,.276-.225,.5-.5,.5h-1c-.275,0-.5-.224-.5-.5v-1c0-.276,.225-.5,.5-.5h1.5v1.5Zm4-3c0,.276-.225,.5-.5,.5h-2.5v-3h3v2.5Zm3-4c0,.276-.225,.5-.5,.5h-1.5v-1.5c0-.276,.225-.5,.5-.5h1c.275,0,.5,.224,.5,.5v1Z"/></svg>
