<?xml version="1.0" encoding="UTF-8"?>
<svg xmlns="http://www.w3.org/2000/svg" id="Layer_1" data-name="Layer 1" viewBox="0 0 24 24" width="512" height="512"><path d="m23.5,22h-10.342l3.523-3.552c.005-.005.011-.009.016-.014.007-.007.013-.014.019-.021l5.919-5.967c1.814-1.83,1.813-4.806-.002-6.635l-3.401-3.428c-.885-.892-2.062-1.383-3.316-1.383h0c-1.254,0-2.432.492-3.314,1.382L1.365,13.623c-1.814,1.829-1.814,4.805,0,6.634l1.655,1.669c.678.683,1.616,1.074,2.577,1.074h17.902c.276,0,.5-.224.5-.5s-.224-.5-.5-.5ZM13.309,3.087c.696-.701,1.621-1.087,2.606-1.087h0c.985,0,1.911.386,2.607,1.087l3.401,3.428c1.43,1.44,1.43,3.785,0,5.227l-5.581,5.627L7.721,8.678l5.588-5.591Zm-1.559,18.913h-6.152c-.695,0-1.376-.284-1.867-.778l-1.656-1.669c-1.429-1.441-1.429-3.785,0-5.224l4.941-4.944,8.626,8.693-3.89,3.922Z"/></svg>
