<?xml version="1.0" encoding="UTF-8"?>
<svg xmlns="http://www.w3.org/2000/svg" id="Layer_1" data-name="Layer 1" viewBox="0 0 24 24" width="512" height="512"><path d="M24,12v9.5c0,.276-.224,.5-.5,.5s-.5-.224-.5-.5V12c0-6.065-4.935-11-11-11S1,5.935,1,12v7.5c0,.276-.224,.5-.5,.5s-.5-.224-.5-.5v-7.5C0,5.383,5.383,0,12,0s12,5.383,12,12Zm-8.652,10.481c-1.08,.344-2.206,.519-3.348,.519-3.086,0-6.05-1.309-8.13-3.591-.186-.204-.502-.218-.707-.032s-.219,.502-.033,.706c2.27,2.489,5.502,3.917,8.87,3.917,1.245,0,2.474-.19,3.652-.565,.263-.084,.408-.365,.325-.628-.084-.264-.368-.408-.628-.325Zm-6.348-12.481c0-.552-.448-1-1-1s-1,.448-1,1,.448,1,1,1,1-.448,1-1Zm8,0c0-.552-.448-1-1-1s-1,.448-1,1,.448,1,1,1,1-.448,1-1Zm2,5.5v8c0,.276-.224,.5-.5,.5s-.5-.224-.5-.5v-6.001c-.418,.315-.938,.501-1.5,.501h-1.5v2.5c0,.276-.224,.5-.5,.5s-.5-.224-.5-.5v-2.5H7.5c-1.378,0-2.5-1.121-2.5-2.5s1.122-2.5,2.5-2.5h9c1.378,0,2.5,1.121,2.5,2.5Zm-11.5,1.5h1.5v-3h-1.5c-.827,0-1.5,.673-1.5,1.5s.673,1.5,1.5,1.5Zm6.5,0v-3h-4v3h4Zm4-1.5c0-.827-.673-1.5-1.5-1.5h-1.5v3h1.5c.827,0,1.5-.673,1.5-1.5Z"/></svg>
