<?xml version="1.0" encoding="UTF-8"?>
<svg xmlns="http://www.w3.org/2000/svg" id="Layer_1" data-name="Layer 1" viewBox="0 0 24 24" width="512" height="512"><path d="M19.5,0H4.5C2.02,0,0,2.02,0,4.5V15.5c0,2.48,2.02,4.5,4.5,4.5h2.61l3.9,3.28c.29,.25,.64,.38,1,.38s.7-.12,.98-.37l3.99-3.29h2.53c2.48,0,4.5-2.02,4.5-4.5V4.5c0-2.48-2.02-4.5-4.5-4.5Zm3.5,15.5c0,1.93-1.57,3.5-3.5,3.5h-2.71c-.12,0-.23,.04-.32,.11l-4.14,3.42c-.19,.17-.48,.17-.67,0l-4.05-3.41c-.09-.08-.2-.12-.32-.12h-2.79c-1.93,0-3.5-1.57-3.5-3.5V4.5c0-1.93,1.57-3.5,3.5-3.5h15c1.93,0,3.5,1.57,3.5,3.5V15.5Zm-7.5-2.74c0,1.24-1.01,2.24-2.24,2.24h-.76v.5c0,.28-.22,.5-.5,.5s-.5-.22-.5-.5v-.5h-.55c-.98,0-1.89-.53-2.38-1.38-.14-.24-.06-.54,.18-.68,.24-.14,.54-.06,.68,.18,.31,.54,.89,.88,1.52,.88h2.31c.69,0,1.24-.56,1.24-1.24,0-.54-.34-1.01-.85-1.18l-3.62-1.21c-.92-.31-1.53-1.16-1.53-2.13,0-1.24,1.01-2.24,2.24-2.24h.76v-.5c0-.28,.22-.5,.5-.5s.5,.22,.5,.5v.5h.55c.98,0,1.89,.53,2.38,1.37,.14,.24,.06,.54-.18,.68-.24,.14-.54,.06-.68-.18-.31-.54-.89-.88-1.52-.88h-2.31c-.69,0-1.24,.56-1.24,1.24,0,.54,.34,1.01,.85,1.18l3.62,1.21c.92,.31,1.53,1.16,1.53,2.13Z"/></svg>
