<?xml version="1.0" encoding="UTF-8"?>
<svg xmlns="http://www.w3.org/2000/svg" id="Layer_1" data-name="Layer 1" viewBox="0 0 24 24" width="512" height="512"><path d="M11.5,24H4.5c-2.481,0-4.5-2.019-4.5-4.5v-7c0-2.481,2.019-4.5,4.5-4.5h7c2.481,0,4.5,2.019,4.5,4.5v7c0,2.481-2.019,4.5-4.5,4.5ZM4.5,9c-1.93,0-3.5,1.57-3.5,3.5v7c0,1.93,1.57,3.5,3.5,3.5h7c1.93,0,3.5-1.57,3.5-3.5v-7c0-1.93-1.57-3.5-3.5-3.5H4.5Zm19.5,1.5C24,4.71,19.29,0,13.5,0c-.276,0-.5,.224-.5,.5s.224,.5,.5,.5c5.238,0,9.5,4.262,9.5,9.5,0,.276,.224,.5,.5,.5s.5-.224,.5-.5Zm-4,0c0-3.584-2.916-6.5-6.5-6.5-.276,0-.5,.224-.5,.5s.224,.5,.5,.5c3.032,0,5.5,2.467,5.5,5.5,0,.276,.224,.5,.5,.5s.5-.224,.5-.5Zm-16,.5c-.552,0-1,.448-1,1s.448,1,1,1,1-.448,1-1-.448-1-1-1Z"/></svg>
