<?xml version="1.0" encoding="UTF-8"?>
<svg xmlns="http://www.w3.org/2000/svg" id="Layer_1" data-name="Layer 1" viewBox="0 0 24 24" width="512" height="512"><path d="M17.25,3c-.22,0-.44,.01-.65,.04l.87-2.36c.1-.26-.04-.55-.3-.64-.26-.1-.55,.04-.64,.3l-1.1,2.97c-1.53,.51-2.78,1.65-3.43,3.11-.9-2.01-2.91-3.41-5.25-3.41-1.97,0-3.71,1-4.75,2.51V3.5c0-.28-.22-.5-.5-.5s-.5,.22-.5,.5V20.5c0,.28,.22,.5,.5,.5s.5-.22,.5-.5V8.75c0-2.62,2.13-4.75,4.75-4.75s4.75,2.13,4.75,4.75v5.19l-3.47,9.39c-.1,.26,.04,.55,.3,.64,.06,.02,.12,.03,.17,.03,.2,0,.39-.12,.47-.33l2.53-6.85v3.68c0,.28,.22,.5,.5,.5s.5-.22,.5-.5v-6.38l3.7-10c.34-.08,.69-.12,1.05-.12,2.62,0,4.75,2.13,4.75,4.75v11.75c0,.28,.22,.5,.5,.5s.5-.22,.5-.5V8.75c0-3.17-2.58-5.75-5.75-5.75Zm-4.75,8.23v-2.48c0-1.79,.99-3.35,2.45-4.16l-2.45,6.64Z"/></svg>
