<?xml version="1.0" encoding="UTF-8"?>
<svg xmlns="http://www.w3.org/2000/svg" id="Layer_1" data-name="Layer 1" viewBox="0 0 24 24" width="512" height="512"><path d="m15,4.5c0-.276.224-.5.5-.5h3.5V.5c0-.276.224-.5.5-.5s.5.224.5.5v3.5h3.5c.276,0,.5.224.5.5s-.224.5-.5.5h-3.5v3.5c0,.276-.224.5-.5.5s-.5-.224-.5-.5v-3.5h-3.5c-.276,0-.5-.224-.5-.5Zm8.163,12.798c1.098,1.092,1.098,2.799.049,3.848l-.978,1.125c-1.12,1.125-2.607,1.73-4.211,1.73C10.275,24,0,13.725,0,5.976c0-1.603.605-3.089,1.704-4.187l1.176-1.024c.965-.97,2.764-.993,3.779.023l1.959,2.543c1.006,1,1.006,2.707-.043,3.756l-1.487,1.525c1.617,3.804,4.614,6.804,8.295,8.303l1.532-1.494c1.016-1.015,2.786-1.014,3.802.002l2.446,1.874Zm-.658.75l-2.446-1.874c-.736-.725-1.801-.682-2.439-.043,0,.001-.003.003-.005.004l-1.765,1.722c-.141.136-.345.178-.528.109-4.171-1.592-7.556-4.975-9.285-9.281-.074-.184-.032-.394.105-.536l1.722-1.766c.664-.664.664-1.736.005-2.396l-1.959-2.543c-.302-.299-.714-.452-1.133-.452-.436,0-.879.165-1.215.5l-1.176,1.025c-.885.885-1.386,2.121-1.386,3.456,0,7.16,9.864,17.024,17.023,17.024,1.336,0,2.571-.501,3.48-1.411l.978-1.125c.683-.685.683-1.757.023-2.416Z"/></svg>
