<?xml version="1.0" encoding="UTF-8"?>
<svg xmlns="http://www.w3.org/2000/svg" id="Layer_1" data-name="Layer 1" viewBox="0 0 24 24" width="512" height="512"><path d="M21.404,20.697c1.633-1.225,2.596-3.141,2.596-5.197,0-2.313-1.245-4.471-3.25-5.63-.236-.138-.544-.057-.683,.183-.139,.238-.057,.545,.183,.683,1.696,.981,2.75,2.807,2.75,4.765,0,1.787-.86,3.449-2.311,4.482l-5.884-5.884c1.96-1.16,3.195-3.291,3.195-5.598,0-3.584-2.916-6.5-6.5-6.5H6.5c-1.062,0-2.108,.26-3.039,.754L.854,.146C.658-.049,.342-.049,.146,.146S-.049,.658,.146,.854L23.146,23.854c.098,.098,.226,.146,.354,.146s.256-.049,.354-.146c.195-.195,.195-.512,0-.707l-2.45-2.45ZM6.5,3h5c3.032,0,5.5,2.468,5.5,5.5,0,2.039-1.141,3.914-2.93,4.863l-3.137-3.137c.506-.15,1.03-.227,1.566-.227h2c.276,0,.5-.224,.5-.5s-.224-.5-.5-.5h-2c-.813,0-1.603,.148-2.353,.44L4.207,3.5c.715-.328,1.498-.5,2.293-.5ZM3.933,13.947c-.092,.16-.26,.25-.433,.25-.085,0-.171-.021-.25-.067-2.004-1.159-3.25-3.316-3.25-5.63,0-1.143,.301-2.267,.87-3.25,.137-.239,.441-.323,.683-.183,.239,.138,.321,.444,.182,.683-.481,.832-.735,1.783-.735,2.75,0,1.958,1.054,3.783,2.75,4.765,.239,.138,.321,.444,.182,.683Zm5.567,1.053c-.276,0-.5-.224-.5-.5s.224-.5,.5-.5h1c.276,0,.5,.224,.5,.5s-.224,.5-.5,.5h-1Zm8.5,6.5c0,.276-.224,.5-.5,.5h-5c-3.584,0-6.5-2.916-6.5-6.5,0-1.371,.422-2.682,1.22-3.792,.161-.225,.473-.276,.698-.114,.224,.161,.275,.474,.114,.698-.675,.938-1.032,2.048-1.032,3.208,0,3.032,2.467,5.5,5.5,5.5h5c.276,0,.5,.224,.5,.5Z"/></svg>
