<?xml version="1.0" encoding="UTF-8"?>
<svg xmlns="http://www.w3.org/2000/svg" id="Layer_1" data-name="Layer 1" viewBox="0 0 24 24" width="512" height="512"><path d="M6,8c0,.552-.448,1-1,1s-1-.448-1-1,.448-1,1-1,1,.448,1,1Zm12,2c0,.552,.448,1,1,1s1-.448,1-1-.448-1-1-1-1,.448-1,1Zm-13,3c-.552,0-1,.448-1,1s.448,1,1,1,1-.448,1-1-.448-1-1-1Zm13,3c0,.552,.448,1,1,1s1-.448,1-1-.448-1-1-1-1,.448-1,1Zm2.971,4.23c1.812-.691,3.029-2.453,3.029-4.384h0V7.681c0-1.996-1.604-3.681-3.5-3.681-.478,0-1.202,.099-2.042,.212-.992,.135-2.117,.288-2.958,.288-1.502,0-2.829-.356-4.233-.733-1.405-.377-2.858-.767-4.492-.767-1.145,0-2.404,.259-3.745,.77-1.812,.691-3.029,2.453-3.029,4.384v8.205c0,1.974,1.604,3.642,3.5,3.642,.478,0,1.202-.099,2.042-.212,.992-.135,2.117-.288,2.958-.288,1.502,0,2.829,.356,4.233,.733,1.405,.377,2.858,.767,4.492,.767,1.145,0,2.404-.259,3.745-.77Zm-15.563-1.434c-.77,.105-1.497,.204-1.907,.204-1.354,0-2.499-1.209-2.499-2.642V8.154c0-1.543,.936-2.897,2.384-3.449,1.228-.468,2.367-.705,3.39-.705,1.502,0,2.829,.356,4.233,.733,1.405,.377,2.858,.767,4.492,.767,.908,0,2.068-.158,3.093-.296,.77-.105,1.497-.204,1.907-.204,1.354,0,2.499,1.228,2.499,2.681V15.846c0,1.543-.936,2.897-2.384,3.449-1.228,.468-2.367,.705-3.39,.705-1.502,0-2.829-.356-4.233-.733-1.405-.377-2.858-.767-4.492-.767-.908,0-2.068,.158-3.093,.296Zm7.593-3.296v-7c0-.202-.122-.385-.309-.462-.187-.078-.402-.035-.545,.108l-2,2c-.195,.195-.195,.512,0,.707s.512,.195,.707,0l1.146-1.146v5.793c0,.276,.224,.5,.5,.5s.5-.224,.5-.5Z"/></svg>
