<?xml version="1.0" encoding="UTF-8"?>
<svg xmlns="http://www.w3.org/2000/svg" id="Layer_1" data-name="Layer 1" viewBox="0 0 24 24" width="512" height="512"><path d="M23.27,10.002L15.605,2.402C12.596-.516,9.586-.142,8.063,.336c-.518,.163-.899,.572-1.022,1.098-.121,.519,.035,1.049,.42,1.419l5.087,5.019L.706,19.763c-.959,.989-.935,2.575,.055,3.533,.471,.456,1.087,.706,1.74,.706h.039c.668-.011,1.292-.28,1.752-.755l11.815-11.866,2.932,2.893c.472,.467,1.095,.723,1.757,.723h.027c.672-.008,1.3-.277,1.769-.761l.705-.729c.944-.973,.934-2.545-.026-3.507ZM8.155,2.134c-.185-.178-.16-.39-.141-.473,.021-.085,.094-.291,.349-.371,.532-.167,1.155-.289,1.843-.289,1.385,0,3.028,.496,4.7,2.116l5.837,5.787-2.803,2.882L8.161,2.138l-.006-.005ZM3.578,22.548c-.278,.287-.652,.449-1.053,.455-.401,.008-.78-.144-1.068-.424-.593-.575-.608-1.526-.037-2.115L13.26,8.573l2.135,2.106L3.578,22.548ZM22.579,12.813l-.706,.729c-.28,.289-.657,.451-1.061,.456-.391,.017-.783-.149-1.07-.434l-1.091-1.076,2.802-2.88,1.112,1.103c.574,.575,.58,1.519,.014,2.103Z"/></svg>
