<?xml version="1.0" encoding="UTF-8"?>
<svg xmlns="http://www.w3.org/2000/svg" id="Layer_1" data-name="Layer 1" viewBox="0 0 24 24" width="512" height="512"><path d="M19.5,2H4.5C2.02,2,0,4.02,0,6.5v11c0,1.96,1.25,3.62,3,4.24v1.76c0,.28,.22,.5,.5,.5s.5-.22,.5-.5v-1.53c.16,.02,.33,.03,.5,.03h15c.17,0,.34,0,.5-.03v1.53c0,.28,.22,.5,.5,.5s.5-.22,.5-.5v-1.76c1.75-.62,3-2.29,3-4.24V7c0-2.36-1.92-5-4.5-5Zm3.5,15.5c0,1.93-1.57,3.5-3.5,3.5H4.5c-1.93,0-3.5-1.57-3.5-3.5v-.5h1.5c.28,0,.5-.22,.5-.5s-.22-.5-.5-.5H1V8h1.5c.28,0,.5-.22,.5-.5s-.22-.5-.5-.5H1v-.5c0-1.93,1.57-3.5,3.5-3.5h15c1.97,0,3.5,2.15,3.5,4v10.5ZM13,6c-3.31,0-6,2.69-6,6s2.69,6,6,6,6-2.69,6-6-2.69-6-6-6Zm0,11c-2.76,0-5-2.24-5-5s2.24-5,5-5c2.59,0,4.72,1.98,4.98,4.5h-4.48c-.28,0-.5,.22-.5,.5s.22,.5,.5,.5h4.48c-.25,2.52-2.39,4.5-4.98,4.5Z"/></svg>
