<?xml version="1.0" encoding="UTF-8"?>
<svg xmlns="http://www.w3.org/2000/svg" id="Layer_1" data-name="Layer 1" viewBox="0 0 24 24" width="512" height="512"><path d="M19.5,5h-.5V2h2.5c.276,0,.5-.224,.5-.5s-.224-.5-.5-.5h-6c-.276,0-.5,.224-.5,.5s.224,.5,.5,.5h2.5v3H4.5C2.019,5,0,7.019,0,9.5v7c0,1.956,1.254,3.624,3,4.243v1.757c0,.276,.224,.5,.5,.5s.5-.224,.5-.5v-1.528c.164,.018,.331,.028,.5,.028h15c.169,0,.336-.01,.5-.028v1.528c0,.276,.224,.5,.5,.5s.5-.224,.5-.5v-1.757c1.746-.619,3-2.287,3-4.243v-7c0-2.481-2.019-4.5-4.5-4.5Zm3.5,11.5c0,1.93-1.57,3.5-3.5,3.5H4.5c-1.93,0-3.5-1.57-3.5-3.5v-7c0-1.93,1.57-3.5,3.5-3.5h15c1.93,0,3.5,1.57,3.5,3.5v7ZM2,3.5c0-.276,.224-.5,.5-.5h6c.276,0,.5,.224,.5,.5s-.224,.5-.5,.5H2.5c-.276,0-.5-.224-.5-.5Zm15,5.5c-2.206,0-4,1.794-4,4s1.794,4,4,4,4-1.794,4-4-1.794-4-4-4Zm0,7c-1.484,0-2.719-1.083-2.958-2.5h2.458c.276,0,.5-.224,.5-.5s-.224-.5-.5-.5h-2.458c.239-1.417,1.474-2.5,2.958-2.5,1.654,0,3,1.346,3,3s-1.346,3-3,3ZM7,9c-2.206,0-4,1.794-4,4,0,2.5,2,4,4,4,2.206,0,4-1.794,4-4s-1.794-4-4-4Zm0,7c-.647,0-1.246-.207-1.737-.556l1.737-1.737c.195-.195,.195-.512,0-.707s-.512-.195-.707,0l-1.737,1.737c-.35-.49-.556-1.09-.556-1.737,0-1.654,1.346-3,3-3s3,1.346,3,3-1.346,3-3,3Z"/></svg>
