<?xml version="1.0" encoding="UTF-8"?>
<svg xmlns="http://www.w3.org/2000/svg" id="Layer_1" data-name="Layer 1" viewBox="0 0 24 24" width="512" height="512"><path d="M12,0C5.383,0,0,5.383,0,12s5.383,12,12,12,12-5.383,12-12S18.617,0,12,0Zm0,23c-6.065,0-11-4.935-11-11S5.935,1,12,1s11,4.935,11,11-4.935,11-11,11ZM6.587,10.001c-.402,0-.807-.048-1.207-.146-.268-.066-.432-.337-.366-.605,.066-.268,.338-.431,.605-.366,1.447,.354,2.983-.113,4.014-1.224,.188-.203,.503-.216,.707-.027,.203,.188,.214,.504,.027,.707-.994,1.072-2.371,1.661-3.78,1.661Zm12.398-.751c.066,.268-.098,.539-.366,.605-.399,.099-.804,.146-1.207,.146-1.409,0-2.786-.589-3.78-1.661-.188-.203-.176-.519,.027-.707,.202-.189,.519-.176,.707,.027,1.031,1.111,2.569,1.582,4.014,1.224,.268-.066,.539,.098,.605,.366Zm-6.985,3.75c-3.083,0-5.058,2.581-5.764,3.69-.331,.521-.316,1.16,.039,1.668,.353,.505,.944,.739,1.543,.606,.389-.085,.722-.218,1.074-.358,.713-.284,1.522-.606,3.104-.606,1.584,0,2.396,.323,3.111,.607,.353,.14,.686,.272,1.074,.357,.11,.024,.221,.036,.329,.036,.479,0,.926-.23,1.214-.643,.355-.508,.37-1.147,.039-1.668-.706-1.109-2.681-3.69-5.764-3.69Zm4.905,4.785c-.044,.064-.212,.269-.509,.203-.309-.068-.591-.18-.919-.31-.76-.302-1.705-.677-3.48-.678-1.774,0-2.717,.376-3.474,.677-.327,.13-.61,.243-.918,.311-.293,.062-.465-.139-.509-.203-.045-.065-.181-.297-.015-.558,.767-1.205,2.426-3.227,4.92-3.227,2.587,0,4.303,2.257,4.92,3.227,.166,.261,.031,.493-.015,.558Z"/></svg>
