<?xml version="1.0" encoding="UTF-8"?>
<svg xmlns="http://www.w3.org/2000/svg" id="Layer_1" data-name="Layer 1" viewBox="0 0 24 24" width="512" height="512"><path d="M12,24c-.96,0-1.91-.36-2.64-1.09L2.77,15.53c-.76-.75-.98-1.87-.56-2.88s1.36-1.64,2.45-1.65h2.34V3.47c0-1.92,1.57-3.47,3.5-3.47h2.99c1.93,0,3.51,1.56,3.51,3.47v7.53h2.34c1.1,0,2.04,.64,2.45,1.65,.42,1.01,.2,2.11-.57,2.89l-6.56,7.35c-.74,.74-1.71,1.11-2.67,1.11ZM4.66,12c-.82,0-1.33,.53-1.53,1.03s-.22,1.23,.36,1.81l6.59,7.38c1.05,1.05,2.79,1.05,3.86-.02l6.55-7.34s.01-.01,.02-.02c.58-.58,.57-1.31,.36-1.81-.2-.5-.71-1.03-1.53-1.03h-2.84c-.28,0-.5-.22-.5-.5V3.47c0-1.36-1.12-2.47-2.51-2.47h-2.99c-1.38,0-2.51,1.11-2.51,2.47V11.5c0,.13-.04,.26-.14,.35s-.22,.15-.35,.15h-2.84Z"/></svg>
