<?xml version="1.0" encoding="UTF-8"?>
<svg xmlns="http://www.w3.org/2000/svg" id="Layer_1" data-name="Layer 1" viewBox="0 0 24 24" width="512" height="512"><path d="m23.385,9.751l-3.751-6.5c-.801-1.389-2.294-2.251-3.897-2.251h-7.5c-1.603,0-3.096.862-3.897,2.251L.586,9.751c-.8,1.388-.8,3.11,0,4.498l3.751,6.5c.801,1.389,2.294,2.251,3.897,2.251h7.5c1.603,0,3.096-.862,3.897-2.251l3.751-6.5c.801-1.388.801-3.11,0-4.498Zm-.866,3.998l-3.751,6.5c-.623,1.08-1.785,1.751-3.031,1.751h-7.5c-1.247,0-2.408-.671-3.031-1.751l-3.751-6.5c-.623-1.079-.623-2.419,0-3.498l3.751-6.5c.623-1.08,1.785-1.751,3.031-1.751h7.5c1.247,0,2.408.671,3.031,1.751l3.751,6.5c.623,1.079.623,2.419,0,3.498Zm-11.019-.249v-7c0-.276.224-.5.5-.5s.5.224.5.5v7c0,.276-.224.5-.5.5s-.5-.224-.5-.5Zm1.5,3.5c0,.552-.448,1-1,1s-1-.448-1-1,.448-1,1-1,1,.448,1,1Z"/></svg>
