<?xml version="1.0" encoding="UTF-8"?>
<svg xmlns="http://www.w3.org/2000/svg" id="Layer_1" data-name="Layer 1" width="512" height="512" viewBox="0 0 24 24"><path d="M20.5,17c-.17,0-.337,.012-.5,.036V4.5c0-1.93,1.57-3.5,3.5-3.5,.276,0,.5-.224,.5-.5s-.224-.5-.5-.5c-2.481,0-4.5,2.019-4.5,4.5v12.634l-4.82,1.522c.198-.522,.223-1.114,.03-1.682l-1.63-5.231c-.418-1.312-1.824-2.04-3.141-1.624l-6.696,2.13c-1.295,.412-2.029,1.806-1.636,3.108l1.662,5.436c.176,.493,.495,.898,.893,1.184l-3.313,1.046c-.264,.083-.409,.364-.326,.627,.067,.213,.264,.35,.477,.35,.05,0,.101-.007,.15-.023l16.883-5.331c-.338,.538-.533,1.174-.533,1.855,0,1.93,1.57,3.5,3.5,3.5s3.5-1.57,3.5-3.5-1.57-3.5-3.5-3.5ZM3.719,20.479l-1.654-5.413c-.236-.781,.204-1.618,.981-1.865l6.696-2.13c.151-.048,.304-.071,.454-.071,.636,0,1.228,.407,1.43,1.042l1.631,5.234,.004,.012c.268,.783-.152,1.637-.928,1.901l-5.542,1.798-1.38,.436c-.714,.138-1.449-.263-1.692-.946Zm16.781,2.521c-1.379,0-2.5-1.122-2.5-2.5s1.121-2.5,2.5-2.5,2.5,1.122,2.5,2.5-1.121,2.5-2.5,2.5ZM6.148,15.748c-.05,.016-.102,.023-.151,.023-.212,0-.409-.136-.477-.349-.084-.263,.062-.544,.325-.628l2.465-.784c.262-.083,.545,.062,.628,.325,.084,.263-.062,.544-.325,.628l-2.465,.784Z"/></svg>
