<?xml version="1.0" encoding="UTF-8"?>
<svg xmlns="http://www.w3.org/2000/svg" id="Layer_1" data-name="Layer 1" viewBox="0 0 24 24" width="512" height="512"><path d="m22.5,4h-5.028c-.25-2.247-2.16-4-4.472-4h-2c-2.312,0-4.223,1.753-4.472,4H1.5c-.276,0-.5.224-.5.5s.224.5.5.5h1.5c0,.015,0,.031.002.046l1.392,14.873c.218,2.327,2.144,4.081,4.48,4.081h6.272c2.34,0,4.267-1.757,4.481-4.087l1.37-14.867c.001-.015.002-.031.002-.046h1.5c.276,0,.5-.224.5-.5s-.224-.5-.5-.5ZM11,1h2c1.76,0,3.221,1.306,3.464,3H7.536c.243-1.694,1.704-3,3.464-3Zm7.632,18.821c-.167,1.812-1.665,3.179-3.485,3.179h-6.272c-1.817,0-3.315-1.365-3.484-3.174l-1.387-14.826h15.995l-1.366,14.821Zm-2.72-6.671c.193.197.189.514-.008.707-.098.095-.224.143-.35.143-.13,0-.26-.05-.357-.15l-2.515-2.57c-.056-.056-.117-.103-.183-.143v7.363c0,.276-.224.5-.5.5s-.5-.224-.5-.5v-7.363c-.066.04-.129.088-.187.146l-2.511,2.566c-.191.198-.509.202-.707.008-.197-.193-.201-.51-.008-.707l2.515-2.57c.384-.384.886-.577,1.388-.58.003,0,.006,0,.01,0,.003,0,.006,0,.009,0,.502.002,1.003.194,1.385.576l2.519,2.574Z"/></svg>
