<?xml version="1.0" encoding="UTF-8"?>
<svg xmlns="http://www.w3.org/2000/svg" id="Layer_1" data-name="Layer 1" width="512" height="512" viewBox="0 0 24 24"><path d="M20.768,10.01l-4.241-6.084c-.841-1.206-2.222-1.926-3.692-1.926h-.335c-1.378,0-2.5,1.122-2.5,2.5v5.5H3.5c-1.93,0-3.5,1.57-3.5,3.5v2c0,.827,.673,1.5,1.5,1.5h.5v1c0,1.654,1.346,3,3,3s3-1.346,3-3v-1h8v1c0,1.654,1.346,3,3,3s3-1.346,3-3v-1h.5c.827,0,1.5-.673,1.5-1.5v-2c0-1.839-1.427-3.352-3.232-3.49ZM11,4.5c0-.827,.673-1.5,1.5-1.5h.335c1.144,0,2.217,.56,2.872,1.499l3.835,5.501H11V4.5Zm-4,13.5c0,1.103-.897,2-2,2s-2-.897-2-2v-1H7v1Zm14,0c0,1.103-.897,2-2,2s-2-.897-2-2v-1h4v1Zm2-2.5c0,.276-.225,.5-.5,.5H1.5c-.276,0-.5-.224-.5-.5v-2c0-1.378,1.122-2.5,2.5-2.5H20.5c1.379,0,2.5,1.122,2.5,2.5v2Z"/></svg>
