<?xml version="1.0" encoding="UTF-8"?>
<svg xmlns="http://www.w3.org/2000/svg" id="Layer_1" data-name="Layer 1" viewBox="0 0 24 24" width="512" height="512"><path d="M20.5,15H3.5c-1.93,0-3.5,1.57-3.5,3.5v2c0,1.93,1.57,3.5,3.5,3.5H20.5c1.93,0,3.5-1.57,3.5-3.5v-2c0-1.93-1.57-3.5-3.5-3.5Zm2.5,5.5c0,1.38-1.12,2.5-2.5,2.5H3.5c-1.38,0-2.5-1.12-2.5-2.5v-2c0-1.38,1.12-2.5,2.5-2.5H20.5c1.38,0,2.5,1.12,2.5,2.5v2ZM3.5,9h7c1.93,0,3.5-1.57,3.5-3.5v-.5h3c1.38,0,2.5,1.12,2.5,2.5v1.5h-1.64c-.48,0-.91,.29-1.09,.73-.18,.44-.08,.95,.26,1.28l2.14,2.14c.23,.23,.53,.34,.83,.34s.6-.12,.83-.34l2.14-2.14c.34-.34,.44-.84,.26-1.28-.18-.44-.61-.73-1.09-.73h-1.64v-1.5c0-1.93-1.57-3.5-3.5-3.5h-3v-.5c0-1.93-1.57-3.5-3.5-3.5H3.5C1.57,0,0,1.57,0,3.5v2c0,1.93,1.57,3.5,3.5,3.5Zm18.81,1.11s.03,.12-.04,.19l-2.14,2.14c-.07,.07-.18,.07-.25,0l-2.14-2.14c-.07-.07-.06-.15-.04-.19s.06-.11,.16-.11h4.29c.1,0,.15,.07,.16,.11ZM1.1,6.18L6.28,1h3.59L2.93,7.93c-.88-.21-1.59-.88-1.83-1.75Zm11.9-.68c0,1.38-1.12,2.5-2.5,2.5h-1.22l3.72-3.72v1.22Zm-.07-2.57l-5.07,5.07h-3.59L11.18,1.1c.87,.25,1.54,.95,1.75,1.83ZM3.5,1h1.36L1,4.86v-1.36c0-1.38,1.12-2.5,2.5-2.5Z"/></svg>
