<?xml version="1.0" encoding="UTF-8"?>
<svg xmlns="http://www.w3.org/2000/svg" id="Layer_1" data-name="Layer 1" viewBox="0 0 24 24" width="512" height="512"><path d="M19.5,2H4.5C2.02,2,0,4.02,0,6.5v11c0,2.48,2.02,4.5,4.5,4.5h15c2.48,0,4.5-2.02,4.5-4.5V6.5c0-2.48-2.02-4.5-4.5-4.5Zm3.5,4.5v10.5h-4V3h.5c1.93,0,3.5,1.57,3.5,3.5Zm-8,10.5v-6h3v6h-3Zm-5,0V3h4v14h-4Zm-4,0v-6h3v6h-3Zm3-7h-3V3h3v7Zm9,0h-3V3h3v7ZM4.5,3h.5v14H1V6.5c0-1.93,1.57-3.5,3.5-3.5ZM1.04,18H11.5v3H4.5c-1.76,0-3.22-1.31-3.46-3Zm18.46,3h-7v-3h10.46c-.24,1.69-1.7,3-3.46,3Z"/></svg>
