<?xml version="1.0" encoding="UTF-8"?>
<svg xmlns="http://www.w3.org/2000/svg" id="Layer_1" data-name="Layer 1" viewBox="0 0 24 24" width="512" height="512"><path d="m22.532,16.966c-1.97-1.969-5.626-2.966-10.534-2.966-3.467.016-8.107.543-10.53,2.966C.521,17.914,0,19.152,0,20.485l.085,1.215c0,1.266,1.027,2.296,2.356,2.296h.009l2.496-.332c1.256,0,2.28-1.013,2.3-2.264l.21-1.554c1.388-.578,2.882-.84,4.54-.847,1.643.009,3.133.288,4.547.853l.209,1.512c0,1.266,1.027,2.296,2.228,2.296h.007l2.627.34c1.269,0,2.3-1.031,2.299-2.265l.087-1.284c0-1.299-.521-2.537-1.468-3.485Zm.382,4.735c0,.716-.583,1.299-1.234,1.303l-2.627-.34c-.717,0-1.3-.583-1.305-1.367l-.253-1.864c-.023-.174-.137-.323-.299-.393-1.616-.689-3.314-1.03-5.193-1.04-1.88,0-3.638.342-5.207,1.044-.158.07-.269.218-.291.389l-.253,1.864c-.003.022-.005.045-.005.067,0,.717-.583,1.3-1.365,1.304l-2.496.332c-.717,0-1.3-.583-1.301-1.334l-.085-1.215c0-1.032.416-2.019,1.175-2.778,2.182-2.182,6.549-2.658,9.827-2.673,4.752.018,8.026.877,9.823,2.673.759.76,1.176,1.746,1.176,2.744l-.087,1.284Zm-2.061-19.555c-.195-.195-.512-.195-.707,0l-6.312,6.312c-.355.355-.827.551-1.33.551h0c-.504,0-.977-.197-1.332-.554L4.736,2h4.764c.276,0,.5-.224.5-.5s-.224-.5-.5-.5h-5c-.827,0-1.5.673-1.5,1.5v5c0,.276.224.5.5.5s.5-.224.5-.5V2.679l6.462,6.483c.545.546,1.269.847,2.04.848h.002c.77,0,1.493-.3,2.037-.844l6.312-6.312c.195-.195.195-.512,0-.707Z"/></svg>
