<?xml version="1.0" encoding="UTF-8"?>
<svg xmlns="http://www.w3.org/2000/svg" id="Layer_1" data-name="Layer 1" viewBox="0 0 24 24" width="512" height="512"><path d="M23.381,8.854c-.475-.543-1.161-.854-1.881-.854h-.555C20.445,3.477,16.604,0,12,0S3.555,3.477,3.056,8h-.555c-.721,0-1.407,.311-1.881,.854-.475,.542-.692,1.263-.597,1.978l1.119,8.396c.363,2.721,2.707,4.772,5.452,4.772h10.812c2.745,0,5.089-2.052,5.452-4.772l1.119-8.396c.095-.715-.122-1.436-.597-1.978ZM12,1c4.055,0,7.443,3.034,7.938,7H4.062c.494-3.966,3.883-7,7.938-7Zm7.418,8l-4.711,4.711c-.378,.377-1.036,.377-1.414,0l-4.711-4.711h10.836Zm3.568,1.698l-1.119,8.396c-.297,2.227-2.215,3.905-4.461,3.905H6.594c-2.246,0-4.164-1.679-4.461-3.905L1.014,10.698c-.057-.429,.073-.861,.358-1.187s.696-.512,1.129-.512H7.168l5.418,5.418c.377,.378,.88,.586,1.414,.586s1.037-.208,1.414-.586l5.418-5.418h.667c.433,0,.844,.187,1.129,.512s.415,.758,.358,1.187Z"/></svg>
