<?xml version="1.0" encoding="UTF-8"?>
<svg xmlns="http://www.w3.org/2000/svg" id="Layer_1" data-name="Layer 1" viewBox="0 0 24 24" width="512" height="512"><path d="M12,24c-1.358,0-2.641-.521-3.612-1.467l-4.151-3.818c-2.093-2.083-3.237-4.834-3.237-7.761s1.144-5.678,3.222-7.747C6.3,1.139,9.062,0,12,0s5.7,1.139,7.777,3.208c2.078,2.069,3.223,4.821,3.223,7.747s-1.145,5.678-3.223,7.747l-4.176,3.842c-.96,.936-2.243,1.457-3.602,1.457Zm0-23c-2.672,0-5.183,1.036-7.072,2.917-1.889,1.88-2.928,4.379-2.928,7.038s1.04,5.158,2.928,7.038l4.147,3.814c1.587,1.546,4.273,1.536,5.838,.01l4.172-3.838c1.874-1.866,2.914-4.366,2.914-7.024s-1.04-5.158-2.929-7.038c-1.889-1.881-4.4-2.917-7.071-2.917Zm4.354,11.197c.195-.195,.195-.512,0-.707s-.512-.195-.707,0c-.974,.974-2.269,1.51-3.646,1.51s-2.672-.536-3.646-1.51c-.195-.195-.512-.195-.707,0s-.195,.512,0,.707c1.163,1.163,2.709,1.803,4.354,1.803s3.191-.641,4.354-1.803Zm-7.353-5.197c-.552,0-1,.448-1,1s.448,1,1,1,1-.448,1-1-.448-1-1-1Zm6,0c-.552,0-1,.448-1,1s.448,1,1,1,1-.448,1-1-.448-1-1-1Z"/></svg>
