<?xml version="1.0" encoding="UTF-8"?>
<svg xmlns="http://www.w3.org/2000/svg" id="Layer_1" data-name="Layer 1" viewBox="0 0 24 24" width="512" height="512"><path d="M22.688,8.834L15.166,1.312c-1.746-1.746-4.586-1.746-6.332,0L1.312,8.834c-1.746,1.746-1.746,4.586,0,6.332l7.522,7.522c.873,.873,2.02,1.31,3.166,1.31s2.293-.437,3.166-1.31l7.522-7.522c1.746-1.746,1.746-4.586,0-6.332Zm-.707,5.625l-7.522,7.522c-1.355,1.355-3.562,1.355-4.918,0L2.019,14.459c-1.355-1.355-1.355-3.562,0-4.918L9.541,2.019c.678-.678,1.568-1.017,2.459-1.017s1.781,.339,2.459,1.017l7.522,7.522c1.355,1.355,1.355,3.562,0,4.918Zm-4.707-5.727c.975,.975,.975,2.561,0,3.535l-2.421,2.421c-.098,.098-.226,.146-.354,.146s-.256-.049-.354-.146c-.195-.195-.195-.512,0-.707l2.421-2.421c.164-.164,.281-.356,.353-.561h-6.421c-.827,0-1.5,.673-1.5,1.5v4c0,.276-.224,.5-.5,.5s-.5-.224-.5-.5v-4c0-1.379,1.121-2.5,2.5-2.5h6.421c-.072-.205-.19-.397-.353-.561l-2.421-2.421c-.195-.195-.195-.512,0-.707s.512-.195,.707,0l2.421,2.421Z"/></svg>
