<?xml version="1.0" encoding="UTF-8"?>
<svg xmlns="http://www.w3.org/2000/svg" id="Layer_1" data-name="Layer 1" viewBox="0 0 24 24" width="512" height="512"><path d="M19.5,2H4.5C2.019,2,0,4.019,0,6.5v11c0,2.481,2.019,4.5,4.5,4.5h15c2.481,0,4.5-2.019,4.5-4.5V6.5c0-2.481-2.019-4.5-4.5-4.5ZM1,17.5V6.5c0-1.93,1.57-3.5,3.5-3.5H15V21H4.5c-1.93,0-3.5-1.57-3.5-3.5Zm22,0c0,1.93-1.57,3.5-3.5,3.5h-3.5V3h3.5c1.93,0,3.5,1.57,3.5,3.5v11Zm-2-7c0,.276-.224,.5-.5,.5h-2c-.276,0-.5-.224-.5-.5s.224-.5,.5-.5h2c.276,0,.5,.224,.5,.5Zm0,4c0,.276-.224,.5-.5,.5h-2c-.276,0-.5-.224-.5-.5s.224-.5,.5-.5h2c.276,0,.5,.224,.5,.5Zm0-8c0,.276-.224,.5-.5,.5h-2c-.276,0-.5-.224-.5-.5s.224-.5,.5-.5h2c.276,0,.5,.224,.5,.5Z"/></svg>
