<?xml version="1.0" encoding="UTF-8"?>
<svg xmlns="http://www.w3.org/2000/svg" id="Layer_1" data-name="Layer 1" viewBox="0 0 24 24">
  <path d="m12.164,10.13L23.164.13c.204-.185.521-.172.706.034.186.204.171.521-.034.706l-11,10c-.096.087-.216.13-.336.13-.136,0-.271-.055-.37-.164-.186-.204-.171-.521.034-.706Zm11.836,7.62c0,3.173-4.654,6.25-12,6.25S0,20.885,0,17.75v-8.75C0,5.636,5.271,3,12,3c1.222,0,2.425.089,3.575.266.273.042.461.297.419.569-.042.274-.303.461-.569.419-1.102-.168-2.254-.254-3.425-.254C6.037,4,1,6.29,1,9s5.037,5,11,5,11-2.29,11-5c0-1.19-.972-2.121-1.787-2.69-.226-.159-.281-.471-.123-.697.159-.227.471-.279.697-.123,1.447,1.014,2.213,2.228,2.213,3.511v8.75Zm-9-2.932v7.975c1.477-.208,2.837-.563,4-1.029v-7.86c-1.185.419-2.535.732-4,.914Zm-10-.914v7.86c1.163.466,2.523.821,4,1.029v-7.975c-1.465-.182-2.815-.495-4-.914Zm-1,7.408v-7.804c-1.279-.566-2.307-1.269-3-2.068v6.31c0,1.359,1.15,2.617,3,3.561Zm8,1.689c.681,0,1.349-.032,2-.091v-7.988c-.649.052-1.317.08-2,.08s-1.351-.028-2-.08v7.988c.651.06,1.319.091,2,.091Zm11-11.56c-.693.799-1.721,1.502-3,2.068v7.804c1.85-.944,3-2.202,3-3.561v-6.31Z"/>
</svg>
