<?xml version="1.0" encoding="UTF-8"?>
<svg xmlns="http://www.w3.org/2000/svg" id="Layer_1" data-name="Layer 1" width="512" height="512" viewBox="0 0 24 24"><path d="M22,8v-2.771c0-1.998-1.331-3.775-3.236-4.321-2.105-.603-4.38-.908-6.764-.908S7.341,.306,5.236,.908c-1.906,.546-3.236,2.323-3.236,4.321v2.771c-1.103,0-2,.897-2,2v2c0,1.103,.897,2,2,2v2.5c0,1.557,.795,2.932,2,3.74v1.26c0,1.378,1.122,2.5,2.5,2.5s2.5-1.122,2.5-2.5v-.5h6v.5c0,1.378,1.122,2.5,2.5,2.5s2.5-1.122,2.5-2.5v-1.26c1.205-.808,2-2.183,2-3.74v-2.5c1.103,0,2-.897,2-2v-2c0-1.103-.897-2-2-2Zm-9.5,5V6h8.5v7H12.5Zm-9.5,0V6H11.5v7H3ZM5.512,1.869c2.015-.577,4.198-.869,6.488-.869s4.473,.292,6.488,.869c1.406,.403,2.408,1.672,2.503,3.131H3.008c.096-1.459,1.098-2.728,2.503-3.131ZM1,12v-2c0-.551,.449-1,1-1v4c-.551,0-1-.449-1-1Zm7,9.5c0,.827-.673,1.5-1.5,1.5s-1.5-.673-1.5-1.5v-.757c.469,.166,.974,.257,1.5,.257h1.5v.5Zm11,0c0,.827-.673,1.5-1.5,1.5s-1.5-.673-1.5-1.5v-.5h1.5c.526,0,1.031-.091,1.5-.257v.757Zm2-5c0,1.93-1.57,3.5-3.5,3.5H6.5c-1.93,0-3.5-1.57-3.5-3.5v-2.5h3v1.5c0,.276,.224,.5,.5,.5s.5-.224,.5-.5v-1.5h10v1.5c0,.276,.224,.5,.5,.5s.5-.224,.5-.5v-1.5h3v2.5Zm2-4.5c0,.551-.449,1-1,1v-4c.551,0,1,.449,1,1v2Z"/></svg>
