<?xml version="1.0" encoding="UTF-8"?>
<svg xmlns="http://www.w3.org/2000/svg" id="Layer_1" data-name="Layer 1" viewBox="0 0 24 24" width="512" height="512"><path d="M17,19.5c0,.276-.224,.5-.5,.5H7.5c-.276,0-.5-.224-.5-.5s.224-.5,.5-.5h9c.276,0,.5,.224,.5,.5Zm5-15v15c0,2.481-2.019,4.5-4.5,4.5H6.5c-2.481,0-4.5-2.019-4.5-4.5V4.5C2,2.019,4.019,0,6.5,0h11c2.481,0,4.5,2.019,4.5,4.5Zm-1,0c0-1.93-1.57-3.5-3.5-3.5H6.5c-1.93,0-3.5,1.57-3.5,3.5v15c0,1.93,1.57,3.5,3.5,3.5h11c1.93,0,3.5-1.57,3.5-3.5V4.5Zm-3.077,6c0,3.309-2.691,6-6,6s-6-2.691-6-6,2.691-6,6-6,6,2.691,6,6Zm-4.028-4.594c.58,.986,.956,2.424,1.018,4.094h1.984c-.184-1.841-1.37-3.391-3.003-4.094Zm.017,5.094h-3.978c.114,2.607,1.101,4.5,1.989,4.5s1.875-1.893,1.989-4.5Zm0-1c-.114-2.607-1.101-4.5-1.989-4.5s-1.875,1.893-1.989,4.5h3.978Zm-6.964,0h1.984c.063-1.671,.439-3.108,1.018-4.094-1.633,.704-2.819,2.254-3.003,4.094Zm3.003,5.094c-.58-.986-.956-2.424-1.018-4.094h-1.984c.184,1.841,1.37,3.391,3.003,4.094Zm6.947-4.094h-1.984c-.063,1.671-.439,3.108-1.018,4.094,1.633-.704,2.819-2.254,3.003-4.094Z"/></svg>
