<?xml version="1.0" encoding="UTF-8"?>
<svg xmlns="http://www.w3.org/2000/svg" id="Layer_1" data-name="Layer 1" viewBox="0 0 24 24">
  <path d="m22.942,12.588c.842-.825,1.215-2.004.997-3.153C23.077,4.867,18.608.012,12.022.001c0,0,0,0-.001,0-.007,0-.014,0-.021,0s-.014,0-.021,0c0,0,0,0-.001,0C5.392.012.923,4.867.061,9.435c-.218,1.149.155,2.328,1.02,3.174l6.093,5.27c.013.011.029.014.042.024-.135.341-.215.71-.215,1.098v2c0,1.654,1.346,3,3,3h4c1.654,0,3-1.346,3-3v-2c0-.388-.08-.757-.215-1.097.013-.01.029-.014.042-.025l6.115-5.29Zm-.102-3.457c-.717-.589-1.733-1.131-2.841-1.131-1.43,0-2.739.809-3.544,1.437-.319-3.834-2.278-6.934-3.366-8.387,5.234.473,8.811,4.309,9.752,8.081Zm-9.812,6.869h-2.058l-2.412-5.343c.498-.46,1.934-1.657,3.441-1.657s2.943,1.197,3.441,1.657l-2.412,5.343Zm-4.467-6.646c.382-3.845,2.557-6.956,3.438-8.072.881,1.116,3.056,4.227,3.438,8.072-.812-.614-2.07-1.354-3.438-1.354s-2.626.74-3.438,1.354ZM10.911,1.05c-1.088,1.453-3.047,4.553-3.366,8.387-.805-.628-2.114-1.437-3.544-1.437-1.108,0-2.123.542-2.841,1.131C2.1,5.359,5.677,1.523,10.911,1.05ZM1.757,11.873c-.343-.336-.563-.757-.672-1.206h0c.26-.475,1.507-1.667,2.915-1.667,1.542,0,3.012,1.255,3.475,1.689l2.403,5.323c-.855.035-1.612.428-2.137,1.035L1.757,11.873Zm14.243,9.127c0,1.103-.897,2-2,2h-4c-1.103,0-2-.897-2-2v-2c0-1.103.897-2,2-2h4c1.103,0,2,.897,2,2v2Zm-1.878-4.988l2.403-5.323c.464-.434,1.934-1.689,3.475-1.689,1.408,0,2.655,1.192,2.915,1.667,0,0,.001.001.002.002-.107.445-.322.86-.651,1.184l-6.007,5.195c-.525-.607-1.282-1-2.137-1.035Z"/>
</svg>
