<?xml version="1.0" encoding="UTF-8"?>
<svg xmlns="http://www.w3.org/2000/svg" id="Layer_1" data-name="Layer 1" viewBox="0 0 24 24" width="512" height="512"><path d="M12,0C5.383,0,0,5.383,0,12s5.383,12,12,12,12-5.383,12-12S18.617,0,12,0Zm0,23c-6.065,0-11-4.935-11-11S5.935,1,12,1s11,4.935,11,11-4.935,11-11,11Zm-4-11c-.552,0-1-.448-1-1s.448-1,1-1,1,.448,1,1-.448,1-1,1Zm9-1c0,.552-.448,1-1,1s-1-.448-1-1,.448-1,1-1,1,.448,1,1Zm-5,3c-2.155,0-3.862,1.657-4.434,3.295-.137,.39-.077,.81,.166,1.15,.246,.348,.646,.555,1.07,.555h6.385c.422,0,.821-.207,1.067-.551,.243-.338,.306-.755,.173-1.145-.545-1.602-2.282-3.305-4.427-3.305Zm3.441,3.867c-.06,.082-.155,.132-.255,.132h-6.384c-.101,0-.195-.049-.254-.132-.031-.043-.076-.132-.038-.242,.445-1.272,1.819-2.625,3.49-2.625,1.681,0,3.047,1.354,3.48,2.627,.037,.109-.009,.197-.039,.24Zm4.349-8.96c-.088,.062-.189,.093-.29,.093-.156,0-.31-.073-.407-.21-.471-.658-1.775-2.251-3.73-2.81-.266-.075-.419-.353-.344-.618,.076-.265,.354-.422,.618-.343,2.259,.645,3.738,2.445,4.27,3.19,.161,.225,.108,.536-.116,.697Zm-11.153-2.927c-1.955,.559-3.26,2.151-3.73,2.81-.097,.137-.251,.21-.407,.21-.101,0-.202-.03-.29-.093-.225-.161-.277-.473-.116-.697,.531-.745,2.011-2.546,4.27-3.19,.263-.078,.542,.078,.618,.343,.076,.266-.078,.543-.344,.618Z"/></svg>
