<?xml version="1.0" encoding="UTF-8"?>
<svg xmlns="http://www.w3.org/2000/svg" id="Layer_1" data-name="Layer 1" viewBox="0 0 24 24">
  <path d="m19.5,2H4.5C2.019,2,0,4.019,0,6.5v11c0,2.481,2.019,4.5,4.5,4.5h15c2.481,0,4.5-2.019,4.5-4.5V6.5c0-2.481-2.019-4.5-4.5-4.5Zm3.5,15.5c0,1.93-1.57,3.5-3.5,3.5H4.5c-1.93,0-3.5-1.57-3.5-3.5V6.5c0-1.93,1.57-3.5,3.5-3.5h15c1.93,0,3.5,1.57,3.5,3.5v11ZM11,7.5v9c0,.276-.224.5-.5.5s-.5-.224-.5-.5v-4h-5v4c0,.276-.224.5-.5.5s-.5-.224-.5-.5V7.5c0-.276.224-.5.5-.5s.5.224.5.5v4h5v-4c0-.276.224-.5.5-.5s.5.224.5.5Zm5-.5h-1.5c-.827,0-1.5.673-1.5,1.5v7c0,.827.673,1.5,1.5,1.5h1.5c2.206,0,4-1.794,4-4v-2c0-2.206-1.794-4-4-4Zm3,6c0,1.654-1.346,3-3,3h-1.5c-.276,0-.5-.224-.5-.5v-7c0-.276.224-.5.5-.5h1.5c1.654,0,3,1.346,3,3v2Z"/>
</svg>
