<?xml version="1.0" encoding="UTF-8"?>
<svg xmlns="http://www.w3.org/2000/svg" id="Layer_1" data-name="Layer 1" viewBox="0 0 24 24" width="512" height="512"><path d="m20.752,15.177c.763-.643,1.248-1.604,1.248-2.677,0-1.617-1.103-2.982-2.596-3.382.371-.437.596-1.001.596-1.618,0-1.379-1.122-2.5-2.5-2.5h-1.079c-.26-1.78-1.95-4.104-3.644-4.884-.372-.173-.794-.152-1.158.051-.377.212-.632.594-.683,1.022-.26,2.215-1.398,3.42-1.839,3.811h-2.597c-1.378,0-2.5,1.121-2.5,2.5,0,.617.225,1.182.596,1.618-1.493.399-2.596,1.765-2.596,3.382,0,1.073.485,2.034,1.248,2.677-1.874.544-3.248,2.276-3.248,4.323,0,2.481,2.019,4.5,4.5,4.5h15c2.481,0,4.5-2.019,4.5-4.5,0-2.047-1.374-3.779-3.248-4.323Zm-1.252,7.823H4.5c-1.93,0-3.5-1.57-3.5-3.5s1.57-3.5,3.5-3.5h9c.276,0,.5-.224.5-.5s-.224-.5-.5-.5H5.5c-1.378,0-2.5-1.121-2.5-2.5s1.122-2.5,2.5-2.5h8c.276,0,.5-.224.5-.5s-.224-.5-.5-.5h-7c-.827,0-1.5-.673-1.5-1.5s.673-1.5,1.5-1.5h2.778c.112,0,.221-.038.309-.107.961-.756,2.081-2.357,2.342-4.586.013-.112.08-.212.179-.267.059-.033.148-.062.25-.016,1.347.62,2.783,2.549,3.052,3.976h-2.411c-.276,0-.5.224-.5.5s.224.5.5.5h4.5c.827,0,1.5.673,1.5,1.5s-.673,1.5-1.5,1.5c-.276,0-.5.224-.5.5s.224.5.5.5h1c1.378,0,2.5,1.121,2.5,2.5s-1.122,2.5-2.5,2.5h-1c-.276,0-.5.224-.5.5s.224.5.5.5h2c1.93,0,3.5,1.57,3.5,3.5s-1.57,3.5-3.5,3.5Z"/></svg>
