<?xml version="1.0" encoding="UTF-8"?>
<svg xmlns="http://www.w3.org/2000/svg" id="Layer_1" data-name="Layer 1" viewBox="0 0 24 24" width="512" height="512"><path d="m20.5,16H2c-1.103,0-2,.897-2,2v2c0,1.103.897,2,2,2h18.5c.276,0,.5-.224.5-.5v-5c0-.276-.224-.5-.5-.5ZM1,20v-2c0-.552.449-1,1-1h6v4H2c-.551,0-1-.448-1-1Zm19,1h-11v-4h11v4Zm4-4.5v5c0,.276-.224.5-.5.5s-.5-.224-.5-.5v-5c0-.276.224-.5.5-.5s.5.224.5.5ZM14,4.856v-2.356c0-.276.224-.5.5-.5s.5.224.5.5v2.356c0,1.223.651,2.372,1.699,3.001l1.602.961c1.048.63,1.699,1.78,1.699,3.002v1.68c0,.276-.224.5-.5.5s-.5-.224-.5-.5v-1.68c0-.873-.465-1.694-1.214-2.145l-1.602-.961c-1.348-.809-2.185-2.287-2.185-3.858Zm10,5.408v1.235c0,.276-.224.5-.5.5s-.5-.224-.5-.5v-1.235c0-1.223-.651-2.372-1.699-3.001l-2.087-1.252c-.749-.45-1.214-1.271-1.214-2.145V.5c0-.276.224-.5.5-.5s.5.224.5.5v3.367c0,.523.279,1.017.729,1.287l2.086,1.252c1.348.809,2.185,2.287,2.185,3.858Z"/></svg>
