<?xml version="1.0" encoding="UTF-8"?>
<svg xmlns="http://www.w3.org/2000/svg" id="Layer_1" data-name="Layer 1" width="512" height="512" viewBox="0 0 24 24"><path d="M24,11.5c0-1.93-1.57-3.5-3.5-3.5h-.5v-3.5c0-.276-.224-.5-.5-.5s-.5,.224-.5,.5v3.5h-3.723l-3.678-5.885c-.828-1.324-2.254-2.115-3.815-2.115h-2.283c-1.378,0-2.5,1.122-2.5,2.5v5.5h-.5c-1.378,0-2.5,1.122-2.5,2.5v1c0,.276,.224,.5,.5,.5s.5-.224,.5-.5v-1c0-.827,.673-1.5,1.5-1.5H20.5c1.378,0,2.5,1.122,2.5,2.5,0,.538-.178,1.07-.501,1.502l-2.587,3.485c-.568-.311-1.22-.487-1.912-.487-2.206,0-4,1.794-4,4s1.794,4,4,4,4-1.794,4-4c0-1.155-.492-2.197-1.278-2.928l2.577-3.472c.452-.602,.7-1.347,.7-2.1ZM4,2.5c0-.827,.673-1.5,1.5-1.5h2.283c1.214,0,2.324,.615,2.968,1.645l3.347,5.355H4V2.5ZM21,20c0,1.654-1.346,3-3,3s-3-1.346-3-3,1.346-3,3-3,3,1.346,3,3Zm-9.5-2.5h-1.028c-.096-.867-.44-1.66-.958-2.307l.728-.728c.195-.195,.195-.512,0-.707s-.512-.195-.707,0l-.728,.728c-.647-.518-1.441-.862-2.307-.958v-1.028c0-.276-.224-.5-.5-.5s-.5,.224-.5,.5v1.028c-.867,.096-1.66,.44-2.307,.958l-.728-.728c-.195-.195-.512-.195-.707,0s-.195,.512,0,.707l.728,.728c-.518,.647-.862,1.441-.958,2.307H.5c-.276,0-.5,.224-.5,.5s.224,.5,.5,.5H1.528c.096,.867,.44,1.66,.958,2.307l-.728,.728c-.195,.195-.195,.512,0,.707,.098,.098,.226,.146,.354,.146s.256-.049,.354-.146l.728-.728c.647,.518,1.441,.862,2.307,.958v1.028c0,.276,.224,.5,.5,.5s.5-.224,.5-.5v-1.028c.867-.096,1.66-.44,2.307-.958l.728,.728c.098,.098,.226,.146,.354,.146s.256-.049,.354-.146c.195-.195,.195-.512,0-.707l-.728-.728c.518-.647,.862-1.441,.958-2.307h1.028c.276,0,.5-.224,.5-.5s-.224-.5-.5-.5Zm-5.5,4c-1.93,0-3.5-1.57-3.5-3.5s1.57-3.5,3.5-3.5,3.5,1.57,3.5,3.5-1.57,3.5-3.5,3.5Z"/></svg>
