<?xml version="1.0" encoding="UTF-8"?>
<svg xmlns="http://www.w3.org/2000/svg" id="Layer_1" data-name="Layer 1" viewBox="0 0 24 24" width="512" height="512"><path d="M17.987,2.28C16.075,.575,13.51-.235,10.937,.062,6.943,.52,3.644,3.736,3.091,7.708c-.421,3.014,.678,6.01,2.939,8.013,1.252,1.109,1.97,2.725,1.97,4.431v.348c0,1.93,1.57,3.5,3.5,3.5h1c1.93,0,3.5-1.57,3.5-3.5v-.353c0-1.686,.752-3.309,2.118-4.571,1.831-1.694,2.882-4.091,2.882-6.576,0-2.563-1.098-5.012-3.013-6.72Zm-2.987,18.22c0,1.378-1.121,2.5-2.5,2.5h-1c-1.379,0-2.5-1.122-2.5-2.5v-.348c0-.39-.041-.774-.104-1.152h6.213c-.066,.378-.109,.76-.109,1.147v.353Zm2.439-5.658c-.987,.912-1.695,1.993-2.086,3.158h-6.691c-.374-1.161-1.047-2.21-1.969-3.027-2.01-1.78-2.986-4.444-2.612-7.126,.491-3.528,3.422-6.384,6.969-6.792,.323-.037,.644-.055,.962-.055,1.968,0,3.825,.703,5.311,2.027,1.701,1.518,2.678,3.695,2.678,5.973,0,2.24-.909,4.315-2.561,5.842Zm-1.439-2.468c0,1.448-1.178,2.626-2.626,2.626h-.874v1.5c0,.276-.224,.5-.5,.5s-.5-.224-.5-.5v-1.5h-.926c-.979,0-1.892-.526-2.382-1.375-.139-.239-.057-.545,.183-.683,.235-.138,.544-.057,.683,.183,.312,.54,.894,.875,1.517,.875h2.8c.896,0,1.626-.729,1.626-1.626,0-.803-.575-1.478-1.368-1.605l-3.422-.55c-1.28-.206-2.21-1.296-2.21-2.593,0-1.448,1.178-2.626,2.626-2.626h.874v-1.5c0-.276,.224-.5,.5-.5s.5,.224,.5,.5v1.5h.926c.979,0,1.892,.527,2.382,1.375,.139,.239,.057,.545-.183,.683-.236,.136-.545,.057-.683-.183-.312-.54-.894-.875-1.517-.875h-2.8c-.896,0-1.626,.729-1.626,1.626,0,.803,.575,1.478,1.368,1.605l3.422,.55c1.28,.206,2.21,1.296,2.21,2.593Z"/></svg>
