<?xml version="1.0" encoding="UTF-8"?>
<svg xmlns="http://www.w3.org/2000/svg" id="Layer_1" data-name="Layer 1" viewBox="0 0 24 24" width="512" height="512"><path d="M20.5,12h-.5V5.5c0-1.93-1.57-3.5-3.5-3.5H7.5c-1.93,0-3.5,1.57-3.5,3.5v6.5h-.5c-1.93,0-3.5,1.57-3.5,3.5v3c0,1.93,1.57,3.5,3.5,3.5H20.5c1.93,0,3.5-1.57,3.5-3.5v-3c0-1.93-1.57-3.5-3.5-3.5ZM5,5.5c0-1.38,1.12-2.5,2.5-2.5h9c1.38,0,2.5,1.12,2.5,2.5v11.5H5V5.5Zm18,13c0,1.38-1.12,2.5-2.5,2.5H3.5c-1.38,0-2.5-1.12-2.5-2.5v-3c0-1.38,1.12-2.5,2.5-2.5h.5v4.5c0,.28,.22,.5,.5,.5h15c.28,0,.5-.22,.5-.5v-4.5h.5c1.38,0,2.5,1.12,2.5,2.5v3Zm-14.8-7.7c-.2-.2-.2-.51,0-.71s.51-.2,.71,0l1.62,1.62c.39,.39,1.03,.39,1.41,0l3.63-3.63c.2-.2,.51-.2,.71,0s.2,.51,0,.71l-3.63,3.63c-.38,.38-.88,.59-1.41,.59s-1.04-.21-1.41-.59l-1.62-1.62Z"/></svg>
