<?xml version="1.0" encoding="UTF-8"?>
<svg xmlns="http://www.w3.org/2000/svg" id="Layer_1" data-name="Layer 1" viewBox="0 0 24 24" width="512" height="512"><path d="M23.268,10.083c-.437-.437-.998-.678-1.571-.723,.526-1.044,.364-2.35-.488-3.232l-.05-.051c-.678-.654-1.604-.9-2.471-.745,.161-.882-.099-1.826-.779-2.506-.879-.879-2.196-1.055-3.253-.531-.046-.57-.287-1.128-.722-1.563-.945-.944-2.567-.971-3.561,.027C5.56,6.339,4.275,10.547,3.329,14.701l-2.158,2.158c-1.56,1.559-1.56,4.097,0,5.657l.313,.313c.78,.78,1.804,1.169,2.829,1.169s2.048-.39,2.828-1.169l2.123-2.123c4.147-.94,8.344-2.204,14.004-7.088,.473-.472,.732-1.1,.732-1.768s-.26-1.296-.732-1.768Zm-5.359-3.263c.709-.708,1.857-.71,2.568-.01,.338,.343,.523,.796,.523,1.278,0,.487-.189,.945-.534,1.289-1.983,1.984-6.329,5.056-7.405,5.807l-1.768-1.768,6.616-6.596h0Zm-3.285-3.286c.723-.698,1.867-.71,2.578,0,.705,.705,.71,1.848,.017,2.56l-6.633,6.615-1.789-1.789c.674-.956,4.255-5.868,5.827-7.385Zm-3.518-2.094c.567-.567,1.554-.566,2.122,0,.54,.541,.58,1.394,.122,1.982-1.94,2.118-4.442,5.605-5.271,6.78l-1.688-1.688c1.003-2.146,2.457-4.456,4.715-7.074ZM6.434,22.122c-1.171,1.168-3.074,1.168-4.243,0l-.313-.313c-1.169-1.17-1.169-3.073,0-4.243l1.914-1.914,4.556,4.556-1.914,1.914Zm2.806-2.436l-4.903-4.903c.395-1.718,.856-3.448,1.621-5.288l8.567,8.567c-1.843,.771-3.57,1.231-5.284,1.624Zm13.348-6.8c-2.636,2.274-4.947,3.735-7.085,4.741l-1.724-1.724c1.137-.795,4.525-3.21,6.66-5.113,.584-.585,1.537-.585,2.121,0,.283,.283,.439,.66,.439,1.061s-.156,.777-.412,1.036Zm-2.148-2.096c.036-.021-.031,.031,0,0h0Z"/></svg>
