<?xml version="1.0" encoding="UTF-8"?>
<svg xmlns="http://www.w3.org/2000/svg" id="Layer_1" data-name="Layer 1" viewBox="0 0 24 24" width="512" height="512"><path d="m23.5,14h-1.515c-.031-.879-.34-1.703-.876-2.389l1.186-1.124c.201-.189.209-.506.019-.707-.189-.201-.506-.208-.707-.019l-1.205,1.141c-.689-.544-1.518-.856-2.404-.888v-1.515c0-.276-.224-.5-.5-.5s-.5.224-.5.5v1.591c-.783.163-1.504.546-2.083,1.125l-2.996,2.996-1.067-1.067c-.195-.195-.512-.195-.707,0s-.195.512,0,.707l1.067,1.067c-.59.591-.96,1.318-1.119,2.081h-1.595c-.276,0-.5.224-.5.5s.224.5.5.5h1.516c.03.853.329,1.689.881,2.396l-1.165,1.165c-.195.195-.195.512,0,.707.098.098.226.146.354.146s.256-.049.354-.146l1.165-1.165c.706.553,1.542.851,2.396.882v1.516c0,.276.224.5.5.5s.5-.224.5-.5v-1.595c.762-.159,1.489-.528,2.08-1.118l1.066,1.066c.098.098.226.146.354.146s.256-.049.354-.146c.195-.195.195-.512,0-.707l-1.066-1.066,2.293-2.294,1.066,1.066c.098.098.226.146.354.146s.256-.049.354-.146c.195-.195.195-.512,0-.707l-1.066-1.067c.577-.578.96-1.298,1.122-2.08h1.59c.276,0,.5-.224.5-.5s-.224-.5-.5-.5Zm-11.578,6.078c-1.228-1.228-1.228-3.226,0-4.454l3.702-3.702c.595-.595,1.386-.922,2.227-.922s1.632.328,2.227.922.922,1.385.922,2.227-.328,1.632-.922,2.227l-3.702,3.702c-1.229,1.227-3.227,1.227-4.454,0Zm4.078-3.078c0,.552-.448,1-1,1s-1-.448-1-1,.448-1,1-1,1,.448,1,1Zm-6.917-4.216l2.997-2.996,1.067,1.067c.098.098.226.146.354.146s.256-.049.354-.146c.195-.195.195-.512,0-.707l-1.067-1.067c.59-.591.96-1.318,1.118-2.081h1.595c.276,0,.5-.224.5-.5s-.224-.5-.5-.5h-1.516c-.03-.853-.329-1.69-.881-2.396l1.165-1.165c.195-.195.195-.512,0-.707s-.512-.195-.707,0l-1.164,1.164c-.688-.54-1.514-.85-2.396-.882V.5c0-.276-.224-.5-.5-.5s-.5.224-.5.5v1.59c-.782.162-1.502.545-2.08,1.123l-1.066-1.066c-.195-.195-.512-.195-.707,0s-.195.512,0,.707l1.066,1.066-2.293,2.293-1.066-1.066c-.195-.195-.512-.195-.707,0s-.195.512,0,.707l1.066,1.066c-.577.579-.96,1.298-1.122,2.08H.5c-.276,0-.5.224-.5.5s.224.5.5.5h1.515c.031.879.339,1.703.876,2.389l-1.186,1.123c-.201.19-.209.506-.02.707.099.104.231.156.363.156.124,0,.247-.045.344-.137l1.205-1.141c.689.543,1.518.856,2.404.888v1.515c0,.276.224.5.5.5s.5-.224.5-.5v-1.591c.783-.163,1.504-.546,2.083-1.125Zm.768-9.785c.841,0,1.632.328,2.227.922,1.228,1.228,1.228,3.226,0,4.454l-3.702,3.702c-1.189,1.189-3.264,1.189-4.453,0-.595-.595-.922-1.385-.922-2.227s.328-1.632.922-2.227l3.702-3.702c.595-.595,1.385-.922,2.227-.922Zm-1.851,4c0-.552.448-1,1-1s1,.448,1,1-.448,1-1,1-1-.448-1-1Z"/></svg>
