<?xml version="1.0" encoding="UTF-8"?>
<svg xmlns="http://www.w3.org/2000/svg" id="Layer_1" data-name="Layer 1" viewBox="0 0 24 24" width="512" height="512"><path d="M12,5c-1.379,0-2.5-1.122-2.5-2.5s1.121-2.5,2.5-2.5,2.5,1.122,2.5,2.5-1.121,2.5-2.5,2.5Zm0-4c-.827,0-1.5,.673-1.5,1.5s.673,1.5,1.5,1.5,1.5-.673,1.5-1.5-.673-1.5-1.5-1.5Zm3,19.5v-5.55c1.14-.232,2-1.242,2-2.45v-3c0-1.93-1.57-3.5-3.5-3.5h-3c-1.93,0-3.5,1.57-3.5,3.5v3c0,1.208,.86,2.217,2,2.45v5.55c0,.276,.224,.5,.5,.5s.5-.224,.5-.5v-6c0-.276-.224-.5-.5-.5-.827,0-1.5-.673-1.5-1.5v-3c0-1.378,1.121-2.5,2.5-2.5h3c1.379,0,2.5,1.122,2.5,2.5v3c0,.827-.673,1.5-1.5,1.5-.276,0-.5,.224-.5,.5v6c0,.276,.224,.5,.5,.5s.5-.224,.5-.5Zm9-.75c0-1.682-2.337-3.062-6.412-3.786-.275-.05-.531,.133-.58,.405s.133,.531,.404,.58c3.84,.683,5.588,1.931,5.588,2.802,0,1.537-4.518,3.25-11,3.25s-11-1.713-11-3.25c0-.871,1.748-2.119,5.588-2.802,.271-.048,.453-.308,.404-.58-.049-.272-.304-.455-.58-.405-4.075,.725-6.412,2.104-6.412,3.786,0,2.76,6.183,4.25,12,4.25s12-1.49,12-4.25Z"/></svg>
