<?xml version="1.0" encoding="UTF-8"?>
<svg xmlns="http://www.w3.org/2000/svg" id="Layer_1" data-name="Layer 1" width="512" height="512" viewBox="0 0 24 24"><path d="M24,4.5c0,.276-.224,.5-.5,.5-3.873,0-7.465,1.752-9.854,4.808-.099,.126-.245,.192-.394,.192-.108,0-.217-.035-.308-.106-.217-.17-.256-.484-.086-.702,2.581-3.299,6.459-5.192,10.642-5.192,.276,0,.5,.224,.5,.5Zm-14.543,3.404c.089,.064,.192,.096,.294,.096,.154,0,.307-.071,.405-.206C13.255,3.54,18.243,1,23.5,1c.276,0,.5-.224,.5-.5s-.224-.5-.5-.5c-5.575,0-10.866,2.694-14.153,7.206-.163,.223-.113,.536,.11,.699Zm14.043,4.096c-1.747,0-3.351,.802-4.4,2.2-.166,.221-.122,.534,.1,.7,.09,.067,.195,.1,.3,.1,.151,0,.302-.069,.399-.2,.859-1.145,2.172-1.801,3.602-1.801,.276,0,.5-.224,.5-.5s-.224-.5-.5-.5Zm-5.637,8.405c-.401,1.692-1.752,3.047-3.44,3.454-.415,.1-.836,.151-1.251,.141-.739-.013-2.66-.006-4.641,.002-1.245,.004-5.02,.006-5.364-.002-.285-.007-.574-.052-.859-.132-1.045-.297-1.878-1.131-2.175-2.175-.449-1.578,.289-3.214,1.753-3.891,.193-.09,.294-.315,.244-.549-.106-.502-.148-1.02-.124-1.538,.143-3.051,2.644-5.558,5.694-5.706,2.633-.126,5.013,1.442,5.926,3.907,.136,.365,.448,.638,.858,.748,2.498,.671,3.981,3.193,3.378,5.742Zm-3.638-4.776c-.727-.195-1.287-.693-1.536-1.366-.732-1.976-2.305-3.256-4.94-3.256-2.499,.122-4.627,2.254-4.744,4.754-.021,.433,.014,.865,.104,1.283,.147,.693-.183,1.377-.803,1.664-.871,.403-1.566,1.463-1.211,2.71,.2,.703,.783,1.287,1.486,1.487,.203,.058,.409,.089,.61,.094,.752,.019,3.083,.01,5.336,.002,1.99-.007,3.919-.015,4.66-.002,.349,.005,.669-.033,1.001-.113,1.326-.319,2.387-1.384,2.702-2.712,.478-2.019-.692-4.016-2.665-4.546Zm9.274-7.628c-3.189,0-6.148,1.588-7.916,4.247-.153,.23-.091,.541,.14,.693,.085,.057,.181,.083,.276,.083,.161,0,.32-.078,.416-.223,1.582-2.38,4.23-3.801,7.084-3.801,.276,0,.5-.224,.5-.5s-.224-.5-.5-.5Z"/></svg>
