<?xml version="1.0" encoding="UTF-8"?>
<svg xmlns="http://www.w3.org/2000/svg" id="Layer_1" data-name="Layer 1" viewBox="0 0 24 24">
  <path d="m24,18.5c0,3.032-2.468,5.5-5.5,5.5h-2.885c-.276,0-.5-.224-.5-.5s.224-.5.5-.5h2.885c2.481,0,4.5-2.019,4.5-4.5,0-1.571-.813-3.005-2.174-3.833-.221-.134-.303-.413-.189-.646.241-.496.363-1.008.363-1.521,0-1.276-.71-2.452-1.852-3.067-.206-.111-.308-.352-.244-.577.065-.229.096-.421.096-.605,0-1.24-1.01-2.25-2.25-2.25h-1.25c-.276,0-.5-.224-.5-.5,0-1.643-1.505-3.99-3.017-4.428-.227,3.818-2.688,4.848-2.798,4.892-.059.024-.122.036-.186.036h-1.75c-1.24,0-2.25,1.01-2.25,2.25,0,.185.03.377.096.605.063.226-.038.466-.244.577-1.142.615-1.852,1.791-1.852,3.067,0,.514.122,1.025.363,1.521.113.232.031.512-.189.646-1.361.828-2.174,2.262-2.174,3.833,0,2.481,2.019,4.5,4.5,4.5h2c.276,0,.5.224.5.5s-.224.5-.5.5h-2c-3.032,0-5.5-2.468-5.5-5.5,0-1.778.849-3.41,2.29-4.445-.192-.508-.29-1.029-.29-1.555,0-1.517.774-2.921,2.045-3.751-.03-.173-.045-.338-.045-.499,0-1.792,1.458-3.25,3.25-3.25h1.64c.391-.199,2.11-1.261,2.11-4.5,0-.276.224-.5.5-.5,2.256,0,4.187,2.888,4.466,5h.784c1.792,0,3.25,1.458,3.25,3.25,0,.161-.015.326-.045.499,1.271.83,2.045,2.234,2.045,3.751,0,.525-.098,1.047-.29,1.555,1.441,1.035,2.29,2.667,2.29,4.445Zm-7.235-1.33l-4.258,6.23c-.269.389-.685.6-1.119.6-.199,0-.402-.044-.597-.136-.621-.293-.923-.958-.734-1.617l.749-2.247h-2.383c-.451,0-.866-.21-1.138-.575-.274-.369-.356-.833-.224-1.271l2.126-6.155c.205-.597.774-.998,1.417-.998h1.895c.497,0,.96.243,1.24.649.276.403.337.918.16,1.377l-.693,1.974h2.388c.521,0,.996.283,1.24.738.242.453.216,1.002-.069,1.432Zm-.812-.959c-.034-.063-.137-.211-.358-.211h-3.094c-.162,0-.314-.079-.408-.211-.094-.133-.117-.302-.063-.455l.933-2.653c.064-.167.045-.331-.047-.465-.094-.138-.245-.216-.415-.216h-1.895c-.219,0-.404.127-.472.323l-2.12,6.138c-.034.113-.009.255.075.367.081.109.203.172.335.172h3.077c.161,0,.312.077.405.208.095.13.12.298.069.45l-.963,2.884c-.074.261.139.386.205.417.069.032.3.117.466-.125l4.252-6.223c.116-.174.051-.338.018-.4Z"/>
</svg>
