<?xml version="1.0" encoding="UTF-8"?>
<svg xmlns="http://www.w3.org/2000/svg" id="Layer_1" data-name="Layer 1" viewBox="0 0 24 24" width="512" height="512"><path d="M19.5,2H6.649C6.085,.822,4.891,0,3.5,0,1.57,0,0,1.57,0,3.5V19.5c0,2.481,2.019,4.5,4.5,4.5h15c2.481,0,4.5-2.019,4.5-4.5V6.5c0-2.481-2.019-4.5-4.5-4.5Zm3.449,4h-6.449c-.827,0-1.5-.673-1.5-1.5v-1.5h4.5c1.758,0,3.204,1.308,3.449,3ZM1,3.5c0-1.379,1.121-2.5,2.5-2.5s2.5,1.121,2.5,2.5v13c0,1.379-1.121,2.5-2.5,2.5s-2.5-1.121-2.5-2.5V3.5ZM19.5,23H4.5c-1.93,0-3.5-1.57-3.5-3.5v-.558c.636,.651,1.52,1.058,2.5,1.058,1.93,0,3.5-1.57,3.5-3.5V3.5c0-.171-.027-.335-.051-.5h7.051v1.5c0,1.379,1.121,2.5,2.5,2.5h6.5v12.5c0,1.93-1.57,3.5-3.5,3.5Zm-3.5-12c0,.552-.448,1-1,1s-1-.448-1-1,.448-1,1-1,1,.448,1,1Zm-4,0c0,.552-.448,1-1,1s-1-.448-1-1,.448-1,1-1,1,.448,1,1Zm8,0c0,.552-.448,1-1,1s-1-.448-1-1,.448-1,1-1,1,.448,1,1Zm-4,4c0,.552-.448,1-1,1s-1-.448-1-1,.448-1,1-1,1,.448,1,1Zm-4,0c0,.552-.448,1-1,1s-1-.448-1-1,.448-1,1-1,1,.448,1,1Zm8,0c0,.552-.448,1-1,1s-1-.448-1-1,.448-1,1-1,1,.448,1,1Zm-4,4c0,.552-.448,1-1,1s-1-.448-1-1,.448-1,1-1,1,.448,1,1Zm-4,0c0,.552-.448,1-1,1s-1-.448-1-1,.448-1,1-1,1,.448,1,1Zm8,0c0,.552-.448,1-1,1s-1-.448-1-1,.448-1,1-1,1,.448,1,1Z"/></svg>
