<?xml version="1.0" encoding="UTF-8"?>
<svg xmlns="http://www.w3.org/2000/svg" id="Layer_1" data-name="Layer 1" viewBox="0 0 24 24" width="512" height="512"><path d="M20.802,6.199c-.57-1.898-2.297-3.199-4.302-3.199-.1,0-.197,.006-.3,.017-1.07-1.87-3.031-3.017-5.2-3.017-2.972,0-5.44,2.12-5.917,5.001-.027,0-.055-.001-.083-.001C2.243,5,0,7.243,0,10c0,3.264,2.62,5.928,5.868,5.998,.281,.827,.759,2.49,.996,4.814,.185,1.817,1.683,3.188,3.484,3.188h3.307c1.794,0,3.292-1.367,3.484-3.179,.302-2.861,1.018-4.868,1.474-5.909,.287,.057,.583,.088,.886,.088,2.481,0,4.5-2.019,4.5-4.5,0-2.004-1.301-3.731-3.198-4.301Zm-4.656,14.517c-.139,1.302-1.209,2.284-2.49,2.284h-3.307c-1.287,0-2.357-.984-2.49-2.289-.224-2.199-.659-3.843-.959-4.78,1.198-.183,2.319-.728,3.209-1.566,.411,.419,.881,.765,1.392,1.029v4.947c0,.276,.224,.5,.5,.5s.5-.224,.5-.5v-4.55c.482,.137,.985,.209,1.5,.209,1.361,0,2.646-.493,3.655-1.396h.002c-.483,1.127-1.205,3.206-1.512,6.112Zm3.354-6.716c-1.001,0-1.719-.454-1.734-.46-1.054-.604-1.766-1.74-1.766-3.04,0-.276-.224-.5-.5-.5s-.5,.224-.5,.5c0,1.446,.685,2.734,1.748,3.558-.785,.611-1.74,.942-2.748,.942-1.36,0-2.631-.613-3.485-1.682-.093-.116-.231-.185-.379-.188-.151-.004-.289,.059-.387,.169-.952,1.081-2.318,1.701-3.749,1.701-2.757,0-5-2.243-5-5,0-2.206,1.794-4,4-4s4,1.794,4,4c0,.276,.224,.5,.5,.5s.5-.224,.5-.5c0-2.387-1.682-4.388-3.922-4.883,.417-2.375,2.462-4.117,4.922-4.117,1.907,0,3.622,1.065,4.476,2.781,.096,.194,.352,.3,.563,.266,.152-.022,.304-.046,.461-.046,1.639,0,3.038,1.118,3.405,2.72,.043,.187,.188,.333,.376,.375,1.601,.367,2.719,1.767,2.719,3.405,0,1.93-1.57,3.5-3.5,3.5Z"/></svg>
