<?xml version="1.0" encoding="UTF-8"?>
<svg xmlns="http://www.w3.org/2000/svg" id="Layer_1" data-name="Layer 1" viewBox="0 0 24 24" width="512" height="512"><path d="M19.5,24H4.5c-2.481,0-4.5-2.019-4.5-4.5V4.5C0,2.019,2.019,0,4.5,0h15c2.481,0,4.5,2.019,4.5,4.5v15c0,2.481-2.019,4.5-4.5,4.5ZM4.5,1c-1.93,0-3.5,1.57-3.5,3.5v15c0,1.93,1.57,3.5,3.5,3.5h15c1.93,0,3.5-1.57,3.5-3.5V4.5c0-1.93-1.57-3.5-3.5-3.5H4.5Zm5.423,16.767l5.9-9.355c.26-.521,.232-1.126-.073-1.622-.306-.495-.835-.79-1.417-.79h-5.833c-.276,0-.5,.224-.5,.5s.224,.5,.5,.5h5.833c.236,0,.442,.115,.566,.316s.135,.437,.054,.605l-5.876,9.312c-.147,.233-.078,.542,.156,.689,.083,.053,.175,.077,.266,.077,.166,0,.328-.082,.423-.233Z"/></svg>
