<?xml version="1.0" encoding="UTF-8"?>
<svg xmlns="http://www.w3.org/2000/svg" id="Layer_1" data-name="Layer 1" viewBox="0 0 24 24" width="512" height="512"><path d="M23.614,14.1c-.316-.439-.776-.74-1.292-.854l.823-.823c.776-.776,.904-1.997,.296-2.841-.364-.506-.921-.829-1.532-.894,.263-.677,.197-1.449-.227-2.038-.375-.521-.952-.849-1.584-.9-.633-.052-1.252,.176-1.701,.625l-.305,.305c-.056-.281-.169-.551-.342-.79-.375-.521-.952-.849-1.584-.9-.631-.048-1.252,.176-1.701,.625l-4.464,4.464v-1.49c0-1.274-.896-2.38-2.083-2.573-.735-.121-1.476,.085-2.035,.561-.56,.476-.881,1.17-.881,1.905v7.015c0,1.736,.676,3.368,1.904,4.596l1.979,1.979c1.283,1.282,2.967,1.923,4.652,1.923s3.369-.641,4.652-1.923l5.132-5.132c.776-.776,.904-1.997,.296-2.841Zm-1.003,2.134l-5.132,5.132c-2.176,2.174-5.715,2.175-7.89,0l-1.979-1.979c-1.039-1.039-1.611-2.42-1.611-3.889v-7.015c0-.441,.193-.858,.529-1.144,.341-.29,.778-.409,1.227-.335,.709,.115,1.244,.797,1.244,1.586v2.697c0,.202,.122,.385,.309,.462,.188,.078,.402,.035,.545-.108l5.318-5.318c.241-.24,.581-.366,.914-.335,.344,.028,.647,.201,.854,.487,.324,.451,.242,1.117-.191,1.55-.002,.002-.003,.003-.005,.005l-4.21,4.21c-.195,.195-.195,.512,0,.707,.098,.098,.226,.146,.354,.146s.256-.049,.354-.146l5.864-5.864c.241-.241,.581-.366,.914-.335,.344,.028,.647,.201,.854,.487,.324,.45,.242,1.116-.191,1.549l-5.801,5.802c-.195,.195-.195,.512,0,.707s.512,.195,.707,0l5.278-5.278c.24-.241,.573-.362,.913-.335,.345,.028,.648,.201,.854,.487,.324,.45,.242,1.116-.191,1.549l-5.215,5.215c-.195,.195-.195,.512,0,.707s.512,.195,.707,0l3.105-3.105c.241-.24,.574-.361,.913-.335,.345,.028,.648,.201,.854,.487,.324,.451,.242,1.117-.191,1.55ZM5.964,23.761c-.095,.153-.258,.237-.426,.237-.09,0-.181-.024-.263-.075-.431-.267-.832-.585-1.193-.946l-2.539-2.991c-.995-1.173-1.543-2.667-1.543-4.204v-7.298c0-.735,.321-1.429,.881-1.905,.56-.476,1.3-.682,2.035-.561,.272,.044,.458,.301,.413,.574-.044,.272-.299,.456-.574,.413-.45-.075-.886,.045-1.226,.335-.336,.286-.529,.703-.529,1.144v7.298c0,1.301,.464,2.564,1.306,3.558l2.511,2.961c.279,.276,.62,.546,.985,.772,.235,.146,.307,.454,.162,.688ZM18,4c1.103,0,2-.897,2-2s-.897-2-2-2-2,.897-2,2,.897,2,2,2Zm0-3c.551,0,1,.449,1,1s-.449,1-1,1-1-.449-1-1,.449-1,1-1ZM4.838,5.971c.26-.092,.396-.378,.304-.638-.095-.267-.143-.547-.143-.833,0-1.378,1.122-2.5,2.5-2.5s2.5,1.122,2.5,2.5c0,.286-.048,.566-.143,.833-.092,.26,.044,.546,.304,.638,.055,.02,.112,.029,.167,.029,.206,0,.399-.128,.471-.333,.083-.235,.141-.477,.172-.724,.173,.037,.35,.057,.528,.057,1.378,0,2.5-1.122,2.5-2.5s-1.122-2.5-2.5-2.5c-1.006,0-1.875,.598-2.271,1.458-.51-.291-1.1-.458-1.729-.458-1.93,0-3.5,1.57-3.5,3.5,0,.399,.067,.792,.2,1.167,.092,.26,.378,.397,.638,.304ZM11.5,1c.827,0,1.5,.673,1.5,1.5s-.673,1.5-1.5,1.5c-.19,0-.378-.037-.553-.106-.12-.684-.439-1.3-.895-1.786,.173-.638,.756-1.108,1.448-1.108Z"/></svg>
