<?xml version="1.0" encoding="UTF-8"?>
<svg xmlns="http://www.w3.org/2000/svg" id="Layer_1" data-name="Layer 1" viewBox="0 0 24 24" width="512" height="512"><path d="M0,5.5c0-1.93,1.57-3.5,3.5-3.5H20.5c1.93,0,3.5,1.57,3.5,3.5,0,.28-.22,.5-.5,.5s-.5-.22-.5-.5c0-1.38-1.12-2.5-2.5-2.5H3.5c-1.38,0-2.5,1.12-2.5,2.5,0,.28-.22,.5-.5,.5s-.5-.22-.5-.5Zm23.67,13.53c-.26-.09-.55,.04-.64,.31-.35,1-1.3,1.67-2.36,1.67H3.33c-1.06,0-2.01-.67-2.36-1.67-.09-.26-.38-.39-.64-.31-.26,.09-.4,.38-.31,.64,.49,1.4,1.82,2.33,3.3,2.33H20.67c1.48,0,2.81-.94,3.3-2.33,.09-.26-.04-.55-.31-.64ZM0,16.5v-7c0-1.38,1.12-2.5,2.5-2.5h1.5c1.65,0,3,1.35,3,3s-1.35,3-3,3H1v3.5c0,.28-.22,.5-.5,.5s-.5-.22-.5-.5Zm1-4.5h3c1.1,0,2-.9,2-2s-.9-2-2-2h-1.5c-.83,0-1.5,.67-1.5,1.5v2.5Zm11.83,.88l2.1,3.35c.15,.23,.08,.54-.16,.69-.08,.05-.17,.08-.26,.08-.17,0-.33-.08-.42-.23l-2.35-3.77h-2.72v3.5c0,.28-.22,.5-.5,.5s-.5-.22-.5-.5v-7c0-1.38,1.12-2.5,2.5-2.5h1.5c1.65,0,3,1.35,3,3,0,1.37-.92,2.52-2.17,2.88Zm1.17-2.88c0-1.1-.9-2-2-2h-1.5c-.83,0-1.5,.67-1.5,1.5v2.5h3c1.1,0,2-.9,2-2Zm10,.5v3c0,1.93-1.57,3.5-3.5,3.5s-3.5-1.57-3.5-3.5v-3c0-1.93,1.57-3.5,3.5-3.5s3.5,1.57,3.5,3.5Zm-1,0c0-1.38-1.12-2.5-2.5-2.5s-2.5,1.12-2.5,2.5v3c0,1.38,1.12,2.5,2.5,2.5s2.5-1.12,2.5-2.5v-3Z"/></svg>
