<?xml version="1.0" encoding="UTF-8"?>
<svg xmlns="http://www.w3.org/2000/svg" id="Layer_1" data-name="Layer 1" viewBox="0 0 24 24">
  <path d="m23.558,21.829c-.755,1.359-2.135,2.171-3.69,2.171H4.324c-1.555,0-2.935-.812-3.69-2.171-.756-1.358-.717-2.959.104-4.279L8.875,4.87c.608-.921,1.56-1.526,2.625-1.691V.5c0-.276.224-.5.5-.5s.5.224.5.5v2.654c1.142.119,2.173.739,2.814,1.711l.876,1.364c.149.232.082.542-.151.691-.233.148-.542.08-.691-.15l-.873-1.359c-.526-.798-1.417-1.278-2.379-1.278s-1.853.48-2.383,1.283L1.583,18.084c-.623,1.001-.652,2.223-.075,3.26s1.629,1.656,2.816,1.656h15.544c1.187,0,2.239-.619,2.816-1.656s.547-2.259-.079-3.267l-4.026-6.272c-.149-.232-.082-.542.151-.691.232-.149.541-.082.691.15l4.03,6.279c.824,1.327.863,2.928.107,4.286Zm-9.272-8.539l6.29-10.056c.146-.233.455-.306.689-.158.234.146.305.455.159.689l-6.318,10.1c.552.544.894,1.3.894,2.134,0,1.654-1.346,3-3,3s-3-1.346-3-3,1.346-3,3-3c.46,0,.896.104,1.286.29Zm-1.286.71c-1.103,0-2,.897-2,2s.897,2,2,2,2-.897,2-2-.897-2-2-2Z"/>
</svg>
