<?xml version="1.0" encoding="UTF-8"?>
<svg xmlns="http://www.w3.org/2000/svg" id="Layer_1" data-name="Layer 1" viewBox="0 0 24 24" width="512" height="512"><path d="M12,0C5.383,0,0,5.383,0,12s5.383,12,12,12,12-5.383,12-12S18.617,0,12,0Zm0,23c-6.065,0-11-4.935-11-11S5.935,1,12,1s11,4.935,11,11-4.935,11-11,11Zm-1-11c0-2.206-1.794-4-4-4s-4,1.794-4,4,1.794,4,4,4,4-1.794,4-4Zm-4,3c-1.654,0-3-1.346-3-3s1.346-3,3-3,3,1.346,3,3-1.346,3-3,3Zm10-7c-2.206,0-4,1.794-4,4s1.794,4,4,4,4-1.794,4-4-1.794-4-4-4Zm0,7c-1.654,0-3-1.346-3-3s1.346-3,3-3,3,1.346,3,3-1.346,3-3,3Zm-1.701,3.099c.221,.165,.267,.478,.103,.699-.099,.132-.249,.201-.402,.201-.104,0-.207-.031-.297-.098-.012-.009-1.239-.901-2.702-.901s-2.69,.893-2.702,.901c-.224,.164-.534,.117-.699-.104-.164-.222-.118-.534,.103-.699,.061-.045,1.497-1.099,3.299-1.099s3.238,1.054,3.299,1.099Zm-.206-13.308c-.16-.226-.108-.537,.116-.698,.227-.158,.537-.107,.698,.116,.471,.659,1.776,2.253,3.73,2.811,.265,.075,.419,.353,.343,.618-.062,.219-.263,.362-.48,.362-.045,0-.092-.006-.138-.02-2.257-.644-3.737-2.445-4.27-3.189ZM4.02,7.638c-.076-.266,.078-.543,.343-.618,1.954-.558,3.26-2.151,3.73-2.811,.16-.224,.472-.274,.698-.116,.225,.161,.276,.473,.116,.698-.532,.744-2.013,2.546-4.27,3.189-.046,.014-.093,.02-.138,.02-.218,0-.418-.144-.48-.362Zm2.98,2.363c-.205,0-.398,.04-.584,.097,.343,.159,.584,.501,.584,.903,0,.552-.448,1-1,1-.403,0-.745-.241-.903-.584-.057,.186-.097,.379-.097,.584,0,1.105,.895,2,2,2s2-.895,2-2-.895-2-2-2Zm.5,3.5c-.276,0-.5-.224-.5-.5s.224-.5,.5-.5,.5,.224,.5,.5-.224,.5-.5,.5Zm9.5-3.5c-.205,0-.398,.04-.584,.097,.343,.159,.584,.501,.584,.903,0,.552-.448,1-1,1-.403,0-.745-.241-.903-.584-.057,.186-.097,.379-.097,.584,0,1.105,.895,2,2,2s2-.895,2-2-.895-2-2-2Zm.5,3.5c-.276,0-.5-.224-.5-.5s.224-.5,.5-.5,.5,.224,.5,.5-.224,.5-.5,.5Z"/></svg>
