<?xml version="1.0" encoding="UTF-8"?>
<svg xmlns="http://www.w3.org/2000/svg" id="Layer_1" data-name="Layer 1" viewBox="0 0 24 24" width="512" height="512"><path d="M22.017,5.831L14.517,.771c-1.528-1.032-3.504-1.033-5.034,0L1.983,5.831c-1.242,.838-1.983,2.232-1.983,3.729v9.939c0,2.481,2.019,4.5,4.5,4.5h3.573c.763,0,1.448-.424,1.789-1.105l2.085-4.171c.078-.155,.069-.339-.022-.486s-.252-.237-.425-.237h-3.533c-.375,0-.706-.197-.885-.526s-.163-.714,.019-.996l5.464-7.125c.282-.43,.975-.449,1.281-.036,.149,.201,.192,.454,.141,.635l-1.943,4.345c-.069,.154-.055,.334,.037,.476,.092,.143,.25,.229,.419,.229h3.659c.279,0,.532,.13,.694,.357,.162,.227,.202,.508,.11,.774l-1.991,5.888c-.157,.464-.083,.957,.202,1.354,.281,.393,.737,.626,1.219,.626h3.106c2.481,0,4.5-2.019,4.5-4.5V9.561c0-1.497-.741-2.892-1.983-3.729Zm.983,13.669c0,1.93-1.57,3.5-3.5,3.5h-3.106c-.163,0-.311-.076-.406-.209-.095-.132-.12-.297-.067-.451l1.99-5.885c.198-.572,.109-1.185-.243-1.678-.352-.494-.901-.777-1.508-.777h-2.889l1.651-3.699c.167-.545,.067-1.121-.272-1.579-.339-.459-.861-.722-1.432-.722-.603,0-1.159,.301-1.467,.773l-5.465,7.127c-.408,.626-.438,1.393-.082,2.05s1.016,1.05,1.764,1.05h2.724l-1.724,3.447c-.17,.341-.513,.553-.895,.553h-3.573c-1.93,0-3.5-1.57-3.5-3.5V9.561c0-1.164,.577-2.249,1.542-2.901L10.042,1.599c1.189-.803,2.726-.803,3.915,0l7.5,5.061c.966,.652,1.542,1.737,1.542,2.901v9.939Z"/></svg>
