<?xml version="1.0" encoding="UTF-8"?>
<svg xmlns="http://www.w3.org/2000/svg" id="Layer_1" data-name="Layer 1" width="512" height="512" viewBox="0 0 24 24"><path d="M23.86,11.346l-2.956,3.082c-.376,.376-.913,.581-1.405,.585-.468-.022-.993-.229-1.349-.585l-3.015-3.068c-.193-.197-.191-.514,.006-.707,.198-.193,.515-.19,.707,.006l3.012,3.065c.044,.043,.091,.082,.14,.115V.5c0-.276,.224-.5,.5-.5s.5,.224,.5,.5V13.875c.068-.04,.132-.088,.19-.146l2.949-3.074c.189-.199,.507-.206,.706-.015s.206,.508,.015,.707Zm-14.86,6.154c0,1.378-1.121,2.5-2.5,2.5s-2.5-1.122-2.5-2.5c0-1.208,.86-2.217,2-2.45v-2.55c0-.276,.224-.5,.5-.5s.5,.224,.5,.5v2.55c1.14,.232,2,1.242,2,2.45Zm-1,0c0-.827-.673-1.5-1.5-1.5s-1.5,.673-1.5,1.5,.673,1.5,1.5,1.5,1.5-.673,1.5-1.5Zm11.5-2.487c-.015,.001,.021,.002,0,0h0Zm-6.5,2.487c0,3.584-2.916,6.5-6.5,6.5S0,21.084,0,17.5c0-1.763,.727-3.456,2-4.681V4.5C2,2.019,4.019,0,6.5,0s4.5,2.019,4.5,4.5V12.819c1.273,1.225,2,2.918,2,4.681Zm-1,0c0-1.554-.668-3.045-1.834-4.091-.105-.095-.166-.23-.166-.372V4.5c0-1.93-1.57-3.5-3.5-3.5s-3.5,1.57-3.5,3.5V13.037c0,.142-.061,.277-.166,.372-1.166,1.046-1.834,2.537-1.834,4.091,0,3.033,2.468,5.5,5.5,5.5s5.5-2.467,5.5-5.5Z"/></svg>
