<?xml version="1.0" encoding="UTF-8"?>
<svg xmlns="http://www.w3.org/2000/svg" id="Layer_1" data-name="Layer 1" viewBox="0 0 24 24">
  <path d="m17.206,8.999c.191.199.186.516-.014.707l-4.739,4.568c-.465.466-1.093.726-1.761.726s-1.296-.26-1.768-.732l-2.265-2.104c-.202-.188-.214-.504-.026-.707.189-.203.505-.212.707-.026l2.278,2.117c.593.592,1.568.579,2.134.013l4.746-4.574c.198-.191.515-.186.707.013Zm6.225,5.255l-3.763,6.5c-.802,1.385-2.294,2.246-3.895,2.246h-7.544c-1.6,0-3.093-.86-3.895-2.246L.571,14.254c-.805-1.391-.805-3.118,0-4.509l3.763-6.5c.802-1.385,2.294-2.246,3.895-2.246h7.544c1.601,0,3.093.86,3.895,2.246l3.763,6.5c.806,1.391.806,3.118,0,4.509Zm-.865-4.008l-3.763-6.5c-.623-1.077-1.784-1.747-3.029-1.747h-7.544c-1.245,0-2.405.669-3.029,1.747l-3.763,6.5c-.625,1.082-.625,2.425,0,3.507l3.763,6.5c.624,1.077,1.785,1.747,3.029,1.747h7.544c1.245,0,2.406-.669,3.029-1.747l3.763-6.5c.626-1.082.626-2.425,0-3.507Z"/>
</svg>
