<?xml version="1.0" encoding="UTF-8"?>
<svg xmlns="http://www.w3.org/2000/svg" id="Layer_1" data-name="Layer 1" viewBox="0 0 24 24" width="512" height="512"><path d="m23.612,4.475l-1.702-.394-.425-1.702c-.056-.223-.256-.379-.485-.379s-.43.156-.485.379l-.427,1.709-1.709.427c-.223.056-.379.256-.379.485s.156.43.379.485l1.709.427.427,1.709c.056.223.256.379.485.379s.43-.156.485-.379l.429-1.715,1.716-.462c.222-.06.374-.262.37-.491s-.164-.427-.388-.479Zm-11.612.525c1.379,0,2.5-1.121,2.5-2.5s-1.121-2.5-2.5-2.5-2.5,1.121-2.5,2.5,1.121,2.5,2.5,2.5Zm0-4c.827,0,1.5.673,1.5,1.5s-.673,1.5-1.5,1.5-1.5-.673-1.5-1.5.673-1.5,1.5-1.5Zm-3.5,19c-.276,0-.5-.224-.5-.5s.224-.5.5-.5h7c.276,0,.5.224.5.5s-.224.5-.5.5h-7ZM4.464,7.686l.923-2.306,2.308-.973c.188-.08.31-.266.306-.47-.004-.205-.132-.387-.323-.459l-2.294-.868-.919-2.296c-.15-.381-.777-.381-.928,0l-.921,2.301L.314,3.536c-.19.075-.314.26-.314.464s.124.389.314.464l2.301.921.921,2.301c.075.19.26.314.464.314s.389-.124.464-.314Zm-1-2.871c-.051-.127-.151-.228-.278-.278l-1.339-.536,1.339-.536c.127-.051.228-.151.278-.278l.536-1.339.536,1.339c.052.13.156.232.287.282l1.33.504-1.348.567c-.123.052-.221.151-.27.275l-.536,1.339-.536-1.339Zm12.64,3.069c-.844-1.18-2.213-1.884-3.662-1.884h-.883c-1.449,0-2.818.704-3.662,1.884l-3.804,5.325c-.16.226-.108.537.116.698.227.159.537.107.698-.116l3.804-5.325c.089-.125.186-.242.289-.353v5.387c0,.827.673,1.5,1.5,1.5h3c.827,0,1.5-.673,1.5-1.5v-5.387c.103.111.2.228.289.353l3.804,5.325c.098.137.252.209.407.209.101,0,.202-.03.291-.093.225-.161.276-.473.116-.698l-3.804-5.325Zm-2.604,6.116h-3c-.275,0-.5-.225-.5-.5v-6.132c.478-.238,1.011-.368,1.559-.368h.883c.548,0,1.08.13,1.559.368v6.132c0,.275-.225.5-.5.5Zm6.5,9.5c0,.276-.224.5-.5.5H4.5c-.276,0-.5-.224-.5-.5s.224-.5.5-.5h15c.276,0,.5.224.5.5Z"/></svg>
