<?xml version="1.0" encoding="UTF-8"?>
<svg xmlns="http://www.w3.org/2000/svg" id="Layer_1" data-name="Layer 1" viewBox="0 0 24 24" width="512" height="512"><path d="M11.85,12.85L.85,23.85c-.1,.1-.23,.15-.35,.15s-.26-.05-.35-.15c-.2-.2-.2-.51,0-.71L11.15,12.15c.2-.2,.51-.2,.71,0s.2,.51,0,.71ZM23.85,.15c-.2-.2-.51-.2-.71,0l-4.17,4.17c-1.45-1.77-3.57-3-5.93-3.26-2.5-.28-4.94,.45-6.85,2.06-1.88,1.59-3.04,3.9-3.19,6.35-.02,.28,.19,.51,.47,.53,.27,.01,.51-.19,.53-.47,.13-2.17,1.16-4.23,2.83-5.64,1.7-1.43,3.86-2.09,6.09-1.83,3.62,.41,6.57,3.32,7.01,6.93,.29,2.34-.41,4.58-1.95,6.32-.81,.92-.98,2.16-.98,3.04,0,2.7-1.89,4.65-4.5,4.65-.28,0-.5,.22-.5,.5s.22,.5,.5,.5c3.19,0,5.5-2.38,5.5-5.65,0-.71,.13-1.69,.73-2.37,1.71-1.93,2.52-4.52,2.2-7.11-.17-1.35-.65-2.62-1.36-3.73L23.85,.85c.2-.2,.2-.51,0-.71ZM15.04,13.35c.1,.08,.21,.12,.33,.12,.14,0,.28-.06,.38-.17,.81-.91,1.25-2.09,1.25-3.31,0-2.76-2.24-5-5-5-2.57,0-4.72,1.91-5,4.45-.03,.27,.17,.52,.44,.55,.28,.03,.52-.17,.55-.44,.22-2.03,1.94-3.55,4-3.55,2.21,0,4,1.79,4,4,0,.98-.35,1.92-1,2.65-.18,.21-.16,.52,.04,.71Z"/></svg>
