<?xml version="1.0" encoding="UTF-8"?>
<svg xmlns="http://www.w3.org/2000/svg" id="Layer_1" data-name="Layer 1" viewBox="0 0 24 24" width="512" height="512"><path d="m22.5,0h-6c-.827,0-1.5.673-1.5,1.5v7.798c0,.659.369,1.247.964,1.532.237.114.489.17.739.17.377,0,.749-.127,1.059-.375l1.738-1.391,1.738,1.39c.515.411,1.202.49,1.798.205.595-.286.964-.873.964-1.532V1.5c0-.827-.673-1.5-1.5-1.5Zm.5,9.298c0,.275-.148.511-.396.631-.25.12-.525.087-.74-.084l-2.051-1.64c-.184-.146-.441-.146-.625,0l-2.051,1.641c-.216.172-.492.203-.74.084-.248-.12-.396-.355-.396-.631V1.5c0-.276.225-.5.5-.5h6c.275,0,.5.224.5.5v7.798Zm1,4.202v6c0,2.481-2.019,4.5-4.5,4.5H4.5c-2.481,0-4.5-2.019-4.5-4.5V7.5C0,5.019,2.019,3,4.5,3h8c.276,0,.5.224.5.5s-.224.5-.5.5H4.5c-1.609,0-2.968,1.092-3.375,2.574l8.4,8.401c1.323,1.323,3.628,1.322,4.95,0l2.175-2.134c.199-.193.514-.189.708.007.193.197.189.514-.007.707l-2.172,2.13c-.847.847-1.977,1.314-3.179,1.314s-2.332-.468-3.182-1.318L1,7.863v11.637c0,1.93,1.57,3.5,3.5,3.5h15c1.93,0,3.5-1.57,3.5-3.5v-6c0-.276.224-.5.5-.5s.5.224.5.5Z"/></svg>
