<?xml version="1.0" encoding="UTF-8"?>
<svg xmlns="http://www.w3.org/2000/svg" id="Layer_1" data-name="Layer 1" viewBox="0 0 24 24" width="512" height="512"><path d="m9.5,8h-1.5c-1.103,0-2,.897-2,2v1.5c0,.827.673,1.5,1.5,1.5h2.5v.5c0,1.379-1.121,2.5-2.5,2.5-.276,0-.5.224-.5.5s.224.5.5.5c1.93,0,3.5-1.57,3.5-3.5v-4c0-.827-.673-1.5-1.5-1.5Zm-2.5,3.5v-1.5c0-.552.448-1,1-1h1.5c.275,0,.5.225.5.5v2.5h-2.5c-.275,0-.5-.225-.5-.5Zm9.5-3.5h-1.5c-1.103,0-2,.897-2,2v1.5c0,.827.673,1.5,1.5,1.5h2.5v.5c0,1.379-1.121,2.5-2.5,2.5-.276,0-.5.224-.5.5s.224.5.5.5c1.93,0,3.5-1.57,3.5-3.5v-4c0-.827-.673-1.5-1.5-1.5Zm-2.5,3.5v-1.5c0-.552.448-1,1-1h1.5c.275,0,.5.225.5.5v2.5h-2.5c-.275,0-.5-.225-.5-.5ZM19.5,0H4.5C2.019,0,0,2.019,0,4.5v15c0,2.481,2.019,4.5,4.5,4.5h15c2.481,0,4.5-2.019,4.5-4.5V4.5c0-2.481-2.019-4.5-4.5-4.5Zm3.5,19.5c0,1.93-1.57,3.5-3.5,3.5H4.5c-1.93,0-3.5-1.57-3.5-3.5V4.5c0-1.93,1.57-3.5,3.5-3.5h15c1.93,0,3.5,1.57,3.5,3.5v15Z"/></svg>
