<?xml version="1.0" encoding="UTF-8"?>
<svg xmlns="http://www.w3.org/2000/svg" id="Layer_1" data-name="Layer 1" viewBox="0 0 24 24" width="512" height="512"><path d="M12,0C5.383,0,0,5.069,0,11.3c0,2.556,1.758,3.7,3.5,3.7,1.016,0,2.028-.565,3.2-1.22,.364-.203,.739-.413,1.13-.614-.568,2.518-.829,4.744-.829,5.834,0,2.757,2.243,5,5,5s5-2.243,5-5c0-1.09-.261-3.316-.829-5.834,.39,.201,.766,.411,1.13,.614,1.172,.655,2.184,1.22,3.2,1.22,2.191,0,3.5-1.383,3.5-3.7C24,5.069,18.617,0,12,0Zm4,19c0,2.206-1.794,4-4,4s-4-1.794-4-4c0-1.142,.308-3.622,.983-6.369,.911-.369,1.906-.631,3.017-.631s2.106,.262,3.017,.631c.675,2.747,.983,5.227,.983,6.369Zm4.5-5c-.755,0-1.662-.507-2.712-1.093-1.521-.85-3.414-1.907-5.788-1.907s-4.267,1.057-5.788,1.907c-1.05,.586-1.958,1.093-2.712,1.093-1.208,0-2.5-.709-2.5-2.7C1,5.621,5.935,1,12,1s11,4.621,11,10.3c0,2.35-1.566,2.7-2.5,2.7Z"/></svg>
