<?xml version="1.0" encoding="UTF-8"?>
<svg xmlns="http://www.w3.org/2000/svg" id="Layer_1" data-name="Layer 1" viewBox="0 0 24 24" width="512" height="512"><path d="M12,0C5.383,0,0,5.383,0,12s5.383,12,12,12,12-5.383,12-12S18.617,0,12,0Zm0,23c-6.065,0-11-4.935-11-11S5.935,1,12,1s11,4.935,11,11-4.935,11-11,11Zm-3-12c0,.552-.448,1-1,1s-1-.448-1-1,.448-1,1-1,1,.448,1,1Zm7,1c-.552,0-1-.448-1-1s.448-1,1-1,1,.448,1,1-.448,1-1,1Zm-3.962,1c-3.083,0-5.057,2.581-5.763,3.69-.331,.52-.317,1.159,.037,1.667,.354,.506,.943,.74,1.544,.607,.389-.085,.722-.218,1.074-.358,.714-.284,1.522-.606,3.104-.606,1.584,0,2.396,.323,3.111,.607,.354,.14,.687,.272,1.075,.357,.11,.024,.22,.036,.328,.036,.479,0,.926-.231,1.213-.643,.355-.508,.37-1.147,.039-1.667-.706-1.109-2.68-3.69-5.764-3.69Zm4.905,4.785c-.045,.063-.216,.263-.508,.203-.31-.068-.593-.18-.92-.31-.76-.302-1.705-.677-3.48-.678-1.774,0-2.717,.376-3.475,.677-.327,.13-.609,.243-.918,.311-.302,.061-.465-.139-.51-.203-.045-.065-.18-.297-.014-.558,.767-1.206,2.425-3.227,4.919-3.227,2.588,0,4.303,2.257,4.92,3.227,.166,.261,.03,.493-.015,.558Zm2.877-8.878c-.089,.063-.19,.093-.291,.093-.155,0-.31-.073-.407-.209-.471-.659-1.776-2.251-3.73-2.81-.266-.076-.419-.353-.343-.618,.075-.265,.35-.418,.618-.344,2.257,.646,3.737,2.446,4.27,3.19,.16,.225,.108,.537-.116,.697Zm-11.153-2.926c-1.956,.559-3.261,2.151-3.73,2.81-.098,.137-.252,.209-.407,.209-.101,0-.202-.03-.29-.093-.226-.161-.277-.473-.117-.698,.531-.744,2.011-2.545,4.27-3.19,.269-.074,.543,.079,.618,.344,.076,.266-.077,.542-.343,.618Z"/></svg>
