<?xml version="1.0" encoding="UTF-8"?>
<svg xmlns="http://www.w3.org/2000/svg" id="Layer_1" data-name="Layer 1" viewBox="0 0 24 24" width="512" height="512"><path d="m19.949,4.671l-4.774,13.09c-.482,1.359-1.729,2.239-3.175,2.239s-2.692-.88-3.176-2.243L4.051,4.671c-.095-.259.039-.546.299-.641.257-.094.546.039.641.299l4.774,13.09c.414,1.167,1.426,1.581,2.235,1.581s1.821-.414,2.234-1.577l4.775-13.094c.095-.259.386-.392.641-.299.26.095.394.382.299.641Zm4.051-.171v15c0,2.481-2.019,4.5-4.5,4.5H4.5c-2.481,0-4.5-2.019-4.5-4.5V4.5C0,2.019,2.019,0,4.5,0h15c2.481,0,4.5,2.019,4.5,4.5Zm-1,0c0-1.93-1.57-3.5-3.5-3.5H4.5c-1.93,0-3.5,1.57-3.5,3.5v15c0,1.93,1.57,3.5,3.5,3.5h15c1.93,0,3.5-1.57,3.5-3.5V4.5Z"/></svg>
