<?xml version="1.0" encoding="UTF-8"?>
<svg xmlns="http://www.w3.org/2000/svg" id="Layer_1" data-name="Layer 1" viewBox="0 0 24 24" width="512" height="512"><path d="m22,17H7.964c-3.809,0-7.582,2.478-7.741,2.583-.14.093-.223.25-.223.417,0,.168.084.324.225.417.16.105,3.955,2.583,7.739,2.583h14.036c1.103,0,2-.897,2-2v-2c0-1.103-.897-2-2-2Zm-8.793,5l-4-4h5.086l4,4h-5.086Zm-11.732-2.001c1.204-.677,3.785-1.937,6.328-1.989l3.99,3.99h-3.829c-2.575,0-5.254-1.31-6.489-2.001Zm21.525,1.001c0,.551-.449,1-1,1h-2.293l-4-4h6.293c.551,0,1,.449,1,1v2ZM14,5.856v-2.356c0-.276.224-.5.5-.5s.5.224.5.5v2.356c0,1.222.651,2.372,1.699,3.001l1.602.961c1.048.628,1.699,1.778,1.699,3.001v1.68c0,.276-.224.5-.5.5s-.5-.224-.5-.5v-1.68c0-.873-.465-1.694-1.214-2.144l-1.602-.961c-1.348-.809-2.185-2.288-2.185-3.859Zm10,5.408v1.235c0,.276-.224.5-.5.5s-.5-.224-.5-.5v-1.235c0-1.222-.651-2.372-1.699-3.001l-2.087-1.252c-.749-.449-1.214-1.271-1.214-2.144V1.5c0-.276.224-.5.5-.5s.5.224.5.5v3.368c0,.524.279,1.017.729,1.286l2.087,1.252c1.348.809,2.185,2.287,2.185,3.858Z"/></svg>
