<?xml version="1.0" encoding="UTF-8"?>
<svg xmlns="http://www.w3.org/2000/svg" id="Layer_1" data-name="Layer 1" viewBox="0 0 24 24" width="512" height="512"><path d="M4,9.5v2h2.5c.276,0,.5,.224,.5,.5s-.224,.5-.5,.5h-2.5v2c0,.827,.673,1.5,1.5,1.5h2c.827,0,1.5-.673,1.5-1.5,0-.276,.224-.5,.5-.5s.5,.224,.5,.5c0,1.378-1.121,2.5-2.5,2.5h-2c-1.379,0-2.5-1.122-2.5-2.5v-2h-.5c-.276,0-.5-.224-.5-.5s.224-.5,.5-.5h.5v-2c0-1.378,1.121-2.5,2.5-2.5h2c1.379,0,2.5,1.122,2.5,2.5,0,.276-.224,.5-.5,.5s-.5-.224-.5-.5c0-.827-.673-1.5-1.5-1.5h-2c-.827,0-1.5,.673-1.5,1.5ZM19.5,2H4.5C2.019,2,0,4.019,0,6.5v11c0,2.481,2.019,4.5,4.5,4.5h4c.276,0,.5-.224,.5-.5s-.224-.5-.5-.5H4.5c-1.93,0-3.5-1.57-3.5-3.5V6.5c0-1.93,1.57-3.5,3.5-3.5h15c1.93,0,3.5,1.57,3.5,3.5v2c0,.276,.224,.5,.5,.5s.5-.224,.5-.5v-2c0-2.481-2.019-4.5-4.5-4.5Zm-6,6h7c.276,0,.5-.224,.5-.5s-.224-.5-.5-.5h-7c-.276,0-.5,.224-.5,.5s.224,.5,.5,.5Zm0,4h3c.276,0,.5-.224,.5-.5s-.224-.5-.5-.5h-3c-.276,0-.5,.224-.5,.5s.224,.5,.5,.5Zm9.768-.268c.473,.472,.732,1.1,.732,1.768s-.26,1.296-.732,1.768l-7.707,7.707c-.66,.661-1.539,1.025-2.475,1.025h-1.586c-.276,0-.5-.224-.5-.5v-1.586c0-.921,.374-1.823,1.025-2.475l7.707-7.707c.975-.975,2.561-.975,3.535,0Zm-.268,1.768c0-.401-.156-.777-.439-1.061-.584-.585-1.537-.585-2.121,0l-7.707,7.707c-.466,.465-.732,1.11-.732,1.768v1.086h1.086c.668,0,1.296-.26,1.768-.732l7.707-7.707c.283-.283,.439-.66,.439-1.061Z"/></svg>
