<?xml version="1.0" encoding="UTF-8"?>
<svg xmlns="http://www.w3.org/2000/svg" id="Layer_1" data-name="Layer 1" viewBox="0 0 24 24" width="512" height="512"><path d="M23.84,14.57l-1.8-6.45c-.86-3.1-3.43-5.39-6.51-5.97,0,0-.01-.02-.02-.02-1.54-1.37-3.52-2.13-5.56-2.13C6,0,2.64,2.69,1.79,6.53L.07,12.79c-.28,1.28,.02,2.59,.84,3.61,.82,1.02,2.03,1.6,3.34,1.6h.44c.08,.13,.15,.27,.25,.4,.82,1.02,2.03,1.6,3.34,1.6h1.61c.05,2.21,1.86,4,4.08,4s4.03-1.79,4.08-4h1.67c1.35,0,2.59-.62,3.41-1.69,.81-1.07,1.08-2.44,.71-3.74ZM1.69,15.77c-.62-.78-.86-1.79-.65-2.74l1.72-6.26C3.52,3.37,6.47,1,9.95,1c1.31,0,2.59,.36,3.71,1.01-3.81,.14-7.01,2.79-7.84,6.51l-1.72,6.26c-.17,.75-.11,1.5,.12,2.21-.99,0-1.91-.45-2.53-1.23Zm12.28,7.23c-1.67,0-3.03-1.34-3.08-3h6.16c-.05,1.66-1.41,3-3.08,3Zm8.36-5.29c-.62,.82-1.58,1.29-2.61,1.29H8.28c-1,0-1.93-.45-2.56-1.23-.62-.78-.86-1.79-.65-2.74l1.72-6.26c.76-3.4,3.71-5.77,7.19-5.77,3.3,0,6.21,2.22,7.1,5.39l1.8,6.45c.28,1,.08,2.04-.55,2.86Z"/></svg>
