<?xml version="1.0" encoding="UTF-8"?>
<svg xmlns="http://www.w3.org/2000/svg" id="Layer_1" data-name="Layer 1" viewBox="0 0 24 24" width="512" height="512"><path d="M13,11.5c0,.276-.224,.5-.5,.5h-2c-1.272,0-2.387-.682-3-1.699-.613,1.017-1.728,1.699-3,1.699h-1c-.536,0-1.045-.122-1.5-.338v5.338H10.5c.276,0,.5,.224,.5,.5s-.224,.5-.5,.5H2v2.5c0,1.379,1.121,2.5,2.5,2.5h7c.276,0,.5,.224,.5,.5s-.224,.5-.5,.5H4.5c-1.93,0-3.5-1.57-3.5-3.5V10.947c-.618-.632-1-1.495-1-2.447C0,8.459,2.015,.379,2.015,.379c.056-.223,.256-.379,.485-.379H21.5c.229,0,.43,.156,.485,.379,0,0,2.015,8.08,2.015,8.121,0,.399-.067,.792-.199,1.166-.092,.262-.38,.399-.638,.306-.261-.092-.397-.378-.306-.638,.088-.25,.136-.51,.142-.775l-1.89-7.559h-4.109v3.5c0,.276-.224,.5-.5,.5s-.5-.224-.5-.5V1H8v3.5c0,.276-.224,.5-.5,.5s-.5-.224-.5-.5V1H2.891l-1.89,7.559c.016,.701,.323,1.331,.803,1.776,.021,.016,.04,.033,.058,.052,.439,.382,1.012,.613,1.637,.613h1c1.379,0,2.5-1.121,2.5-2.5,0-.276,.224-.5,.5-.5s.5,.224,.5,.5c0,1.379,1.121,2.5,2.5,2.5h2c.276,0,.5,.224,.5,.5Zm11,7v2c0,1.93-1.57,3.5-3.5,3.5h-4c-1.93,0-3.5-1.57-3.5-3.5v-2c0-1.393,.819-2.599,2-3.162v-1.838c0-1.93,1.57-3.5,3.5-3.5s3.5,1.57,3.5,3.5v1.838c1.181,.563,2,1.769,2,3.162Zm-8-3.464c.163-.023,.33-.036,.5-.036h4c.17,0,.337,.012,.5,.036v-1.536c0-1.379-1.121-2.5-2.5-2.5s-2.5,1.121-2.5,2.5v1.536Zm7,3.464c0-1.379-1.121-2.5-2.5-2.5h-4c-1.379,0-2.5,1.121-2.5,2.5v2c0,1.379,1.121,2.5,2.5,2.5h4c1.379,0,2.5-1.121,2.5-2.5v-2Zm-4.5,0c-.552,0-1,.448-1,1s.448,1,1,1,1-.448,1-1-.448-1-1-1Z"/></svg>
