<?xml version="1.0" encoding="UTF-8"?>
<svg xmlns="http://www.w3.org/2000/svg" id="Layer_1" data-name="Layer 1" viewBox="0 0 24 24" width="512" height="512"><path d="M17.25,20c3.171,0,5.75-2.824,5.75-6.304,0-3.837-4.098-9.181-7.904-12.522-1.766-1.549-4.427-1.549-6.19,0C5.098,4.515,1,9.859,1,13.696c0,3.479,2.58,6.304,5.75,6.304,2.123,0,3.689-1.413,4.638-2.62-.282,2.36-1.241,5.62-4.388,5.62h-1.5c-.276,0-.5,.224-.5,.5s.224,.5,.5,.5h13c.276,0,.5-.224,.5-.5s-.224-.5-.5-.5h-1.5c-3.147,0-4.106-3.26-4.388-5.62,.949,1.207,2.516,2.62,4.638,2.62Zm-10.5-.994c-2.619,0-4.75-2.382-4.75-5.31,0-3.369,3.806-8.472,7.565-11.771,1.388-1.219,3.482-1.219,4.871,0,3.759,3.299,7.564,8.401,7.564,11.771,0,2.928-2.131,5.31-4.75,5.31-2.98,0-4.781-3.685-4.799-3.722-.002-.005-.115-.284-.451-.284s-.449,.28-.451,.284c-.018,.037-1.818,3.722-4.799,3.722Zm7.346,3.994h-4.191c1.011-.828,1.687-2.102,2.096-3.558,.408,1.456,1.085,2.73,2.096,3.558Z"/></svg>
