<?xml version="1.0" encoding="UTF-8"?>
<svg xmlns="http://www.w3.org/2000/svg" id="Layer_1" data-name="Layer 1" viewBox="0 0 24 24" width="512" height="512"><path d="m10.5,23h-4c-1.93,0-3.5-1.57-3.5-3.5v-1.5h3.5c.276,0,.5-.224.5-.5s-.224-.5-.5-.5h-3.5v-3h3.5c.276,0,.5-.224.5-.5s-.224-.5-.5-.5h-3.5v-3h3.5c.276,0,.5-.224.5-.5s-.224-.5-.5-.5h-3.5v-4h16v3.5c0,.276.224.5.5.5s.5-.224.5-.5v-3.551c1.14-.232,2-1.242,2-2.449,0-1.379-1.121-2.5-2.5-2.5H2.5C1.121,0,0,1.121,0,2.5c0,1.208.86,2.217,2,2.449v14.551c0,2.481,2.019,4.5,4.5,4.5h4c.276,0,.5-.224.5-.5s-.224-.5-.5-.5ZM1,2.5c0-.827.673-1.5,1.5-1.5h17c.827,0,1.5.673,1.5,1.5s-.673,1.5-1.5,1.5H2.5c-.827,0-1.5-.673-1.5-1.5Zm16.5,8.5c-3.584,0-6.5,2.916-6.5,6.5s2.916,6.5,6.5,6.5,6.5-2.916,6.5-6.5-2.916-6.5-6.5-6.5Zm-5.5,6.5c0-3.032,2.468-5.5,5.5-5.5,1.337,0,2.563.48,3.517,1.276l-7.74,7.74c-.796-.954-1.276-2.18-1.276-3.517Zm5.5,5.5c-1.337,0-2.563-.48-3.517-1.276l7.74-7.74c.796.954,1.276,2.18,1.276,3.517,0,3.032-2.468,5.5-5.5,5.5Z"/></svg>
