<?xml version="1.0" encoding="UTF-8"?>
<svg xmlns="http://www.w3.org/2000/svg" id="Layer_1" data-name="Layer 1" viewBox="0 0 24 24" width="512" height="512"><path d="M19.5,8H6.737c.073-.201,.184-.387,.34-.542L13.67,.864c.195-.195,.195-.512,0-.707s-.512-.195-.707,0L6.37,6.751c-.467,.467-.725,1.088-.725,1.749s.257,1.282,.725,1.749l6.593,6.594c.098,.098,.226,.146,.354,.146s.256-.049,.354-.146c.195-.195,.195-.512,0-.707l-6.593-6.594c-.155-.155-.267-.341-.34-.542h12.763c1.93,0,3.5,1.57,3.5,3.5v11c0,.276,.224,.5,.5,.5s.5-.224,.5-.5V12.5c0-2.481-2.019-4.5-4.5-4.5Z"/><path d="M1.734,10.262c-.472-.473-.732-1.101-.732-1.768s.26-1.296,.732-1.768L7.599,.861c.195-.195,.195-.512,0-.707s-.512-.195-.707,0L1.027,6.02C.366,6.68,.001,7.559,.001,8.494s.364,1.813,1.025,2.475l5.865,5.865c.098,.098,.226,.146,.354,.146s.256-.049,.354-.146c.195-.195,.195-.512,0-.707L1.734,10.262Z"/></svg>
