<?xml version="1.0" encoding="UTF-8"?>
<svg xmlns="http://www.w3.org/2000/svg" id="Layer_1" data-name="Layer 1" viewBox="0 0 24 24" width="512" height="512"><path d="m19.5,5h-2c-.827,0-1.5.673-1.5,1.5v5.5h-1.273L4.376.171c-.095-.109-.232-.171-.376-.171h-.5c-.276,0-.5.224-.5.5v5c0,.827-.673,1.5-1.5,1.5H.5c-.276,0-.5.224-.5.5s.224.5.5.5h1c1.378,0,2.5-1.122,2.5-2.5V1.259l9.398,10.741H3c-1.654,0-3,1.346-3,3v2c0,1.383.941,2.55,2.216,2.895-.142.35-.216.723-.216,1.105,0,1.654,1.346,3,3,3s3-1.346,3-3c0-.344-.06-.68-.176-1h8.352c-.116.32-.176.656-.176,1,0,1.654,1.346,3,3,3s3-1.346,3-3c0-.425-.092-.84-.268-1.224,1.324-.5,2.268-1.78,2.268-3.276v-7c0-2.481-2.019-4.5-4.5-4.5ZM5,23c-1.103,0-2-.897-2-2,0-.351.095-.693.277-1h3.446c.182.307.277.649.277,1,0,1.103-.897,2-2,2Zm11-4H7.01s-.008,0-.013,0h-3.998c-1.103,0-2-.897-2-2v-2c0-1.103.897-2,2-2h13v6Zm3,4c-1.103,0-2-.897-2-2,0-.351.095-.693.277-1h3.445c.182.307.277.649.277,1,0,1.103-.897,2-2,2Zm1.719-3.007s0,0,0,0c-.005,0-.006,0,0,0Zm2.281-3.493c0,1.378-1.122,2.5-2.5,2.5h-3.5v-6h6v3.5Zm0-4.5h-6v-5.5c0-.276.224-.5.5-.5h2c1.93,0,3.5,1.57,3.5,3.5v2.5Z"/></svg>
