<?xml version="1.0" encoding="UTF-8"?>
<svg xmlns="http://www.w3.org/2000/svg" id="Layer_1" data-name="Layer 1" viewBox="0 0 24 24" width="512" height="512"><path d="M5,6c1.654,0,3-1.346,3-3S6.654,0,5,0,2,1.346,2,3s1.346,3,3,3Zm0-5c1.103,0,2,.897,2,2s-.897,2-2,2-2-.897-2-2,.897-2,2-2Zm6.3,10.9c-.22,.167-.534,.122-.7-.1-.382-.509-.965-.8-1.6-.8-1.103,0-2,.897-2,2s.897,2,2,2c.137,0,.271-.014,.401-.04,.271-.055,.535,.121,.589,.391s-.121,.534-.391,.589c-.194,.039-.394,.06-.599,.06-1.654,0-3-1.346-3-3s1.346-3,3-3c.953,0,1.827,.438,2.4,1.2,.166,.221,.121,.534-.1,.7Zm1.7-5.9c1.654,0,3-1.346,3-3s-1.346-3-3-3-3,1.346-3,3,1.346,3,3,3Zm0-5c1.103,0,2,.897,2,2s-.897,2-2,2-2-.897-2-2,.897-2,2-2ZM5,9c-2.206,0-4,1.794-4,4v.5c0,.276-.224,.5-.5,.5s-.5-.224-.5-.5v-.5c0-2.757,2.243-5,5-5,.571,0,1.131,.096,1.667,.284,.26,.092,.397,.377,.305,.638-.093,.26-.378,.395-.638,.305-.428-.151-.876-.228-1.333-.228Zm4.997,9.582c-.031,.274-.275,.466-.552,.442-.146-.016-.295-.024-.445-.024-2.206,0-4,1.794-4,4v.5c0,.276-.224,.5-.5,.5s-.5-.224-.5-.5v-.5c0-2.757,2.243-5,5-5,.188,0,.373,.01,.555,.03,.274,.03,.473,.277,.442,.552Zm5.918-9.046c-.097,.144-.255,.222-.416,.222-.096,0-.192-.027-.278-.084-1.036-.694-2.383-.859-3.555-.446-.261,.09-.546-.045-.638-.305-.092-.261,.045-.546,.305-.638,1.467-.517,3.149-.309,4.445,.558,.229,.154,.291,.464,.137,.694Zm7.477,10.253l-1.325-.756c.278-.621,.432-1.309,.432-2.033s-.155-1.411-.432-2.033l1.325-.756c.24-.137,.323-.442,.186-.682s-.443-.324-.682-.186l-1.326,.757c-.816-1.142-2.101-1.928-3.571-2.075v-1.525c0-.276-.224-.5-.5-.5s-.5,.224-.5,.5v1.525c-1.47,.147-2.754,.933-3.571,2.075l-1.326-.757c-.24-.138-.545-.054-.682,.186-.137,.24-.054,.545,.186,.682l1.325,.756c-.278,.621-.432,1.309-.432,2.033s.155,1.411,.432,2.033l-1.325,.756c-.24,.137-.323,.442-.186,.682,.092,.162,.261,.252,.435,.252,.084,0,.169-.021,.248-.066l1.326-.757c.816,1.142,2.101,1.928,3.571,2.075v1.525c0,.276,.224,.5,.5,.5s.5-.224,.5-.5v-1.525c1.47-.147,2.754-.933,3.571-2.075l1.326,.757c.078,.045,.164,.066,.248,.066,.174,0,.342-.09,.435-.252,.137-.24,.054-.545-.186-.682Zm-5.893,1.211c-2.206,0-4-1.794-4-4s1.794-4,4-4,4,1.794,4,4-1.794,4-4,4Z"/></svg>
