<?xml version="1.0" encoding="UTF-8"?>
<svg xmlns="http://www.w3.org/2000/svg" id="Layer_1" data-name="Layer 1" viewBox="0 0 24 24" width="512" height="512"><path d="m22.5,0h-9c-.276,0-.5.224-.5.5s.224.5.5.5h.5v19c0,2.206,1.794,4,4,4s4-1.794,4-4V1h.5c.276,0,.5-.224.5-.5s-.224-.5-.5-.5Zm-4.5,23c-1.654,0-3-1.346-3-3v-10h6v10c0,1.654-1.346,3-3,3Zm3-14h-6V1h6v8ZM10.5,0H1.5c-.276,0-.5.224-.5.5s.224.5.5.5h.5v19c0,2.206,1.794,4,4,4s4-1.794,4-4V1h.5c.276,0,.5-.224.5-.5s-.224-.5-.5-.5Zm-4.5,23c-1.654,0-3-1.346-3-3v-10h6v10c0,1.654-1.346,3-3,3Zm3-14H3V1h6v8Z"/></svg>
