<?xml version="1.0" encoding="UTF-8"?>
<svg xmlns="http://www.w3.org/2000/svg" id="Layer_1" data-name="Layer 1" viewBox="0 0 24 24">
  <path d="m10.571,22.97c-1.465-.21-2.571-1.486-2.571-2.97h.5c.276,0,.5-.224.5-.5s-.224-.5-.5-.5H3.501c-.742,0-1.441-.326-1.917-.896-.477-.568-.675-1.313-.544-2.044l1.46-8.176c.298-1.672,1.748-2.885,3.446-2.885h10.109c1.698,0,3.147,1.213,3.446,2.885l.125.703c.048.272.311.452.58.404.272-.049.453-.309.404-.58l-.125-.703c-.384-2.149-2.247-3.709-4.43-3.709h-.556c.315-.418.501-.938.501-1.5,0-1.379-1.122-2.5-2.5-2.5h-5c-1.378,0-2.5,1.121-2.5,2.5,0,.562.187,1.082.501,1.5h-.556c-2.183,0-4.046,1.56-4.43,3.709L.055,15.885c-.183,1.022.095,2.065.762,2.862.667.796,1.645,1.253,2.684,1.253h3.499c0,1.978,1.474,3.68,3.429,3.96.024.003.048.005.071.005.245,0,.458-.18.495-.429.039-.273-.151-.527-.424-.566ZM7,2.5c0-.827.673-1.5,1.5-1.5h5c.827,0,1.5.673,1.5,1.5s-.673,1.5-1.5,1.5h-5c-.827,0-1.5-.673-1.5-1.5Zm10.5,8.5c-3.584,0-6.5,2.916-6.5,6.5s2.916,6.5,6.5,6.5,6.5-2.916,6.5-6.5-2.916-6.5-6.5-6.5Zm0,12c-3.033,0-5.5-2.468-5.5-5.5s2.467-5.5,5.5-5.5,5.5,2.468,5.5,5.5-2.467,5.5-5.5,5.5Zm3.5-5.5c0,.276-.224.5-.5.5h-2.5v2.5c0,.276-.224.5-.5.5s-.5-.224-.5-.5v-2.5h-2.5c-.276,0-.5-.224-.5-.5s.224-.5.5-.5h2.5v-2.5c0-.276.224-.5.5-.5s.5.224.5.5v2.5h2.5c.276,0,.5.224.5.5Z"/>
</svg>
