<?xml version="1.0" encoding="UTF-8"?>
<svg xmlns="http://www.w3.org/2000/svg" id="Layer_1" data-name="Layer 1" viewBox="0 0 24 24" width="512" height="512"><path d="M17,20.5c0,.28-.22,.5-.5,.5H4.5c-2.48,0-4.5-2.02-4.5-4.5V7.5c0-.79,.21-1.57,.6-2.25,.14-.24,.44-.32,.68-.18,.24,.14,.32,.44,.18,.68-.31,.53-.47,1.13-.47,1.75v9c0,1.93,1.57,3.5,3.5,3.5h12c.28,0,.5,.22,.5,.5Zm7-4V7.5c0-2.48-2.02-4.5-4.5-4.5H4.5c-.25,0-.49,.02-.73,.06L.85,.15C.66-.05,.34-.05,.15,.15S-.05,.66,.15,.85L6.45,7.15c-1.45,.46-2.45,1.91-2.45,3.72v2.25c0,2.21,1.48,3.88,3.45,3.88h.33c1.1,0,2.11-.61,2.77-1.68,.14-.23,.07-.54-.16-.69-.24-.15-.54-.07-.69,.16-.47,.76-1.17,1.2-1.92,1.2h-.33c-1.42,0-2.45-1.21-2.45-2.88v-2.25c0-1.67,1.03-2.88,2.45-2.88h.33c.75,0,1.45,.44,1.92,1.2,.14,.23,.45,.31,.69,.16,.24-.15,.31-.45,.16-.69-.66-1.07-1.67-1.68-2.77-1.68h-.07l-3-3h14.79c1.93,0,3.5,1.57,3.5,3.5v9c0,1.54-1.01,2.9-2.47,3.35l-2.97-2.95c.79-.22,1.49-.76,1.99-1.57,.14-.23,.07-.54-.16-.69-.23-.15-.54-.07-.69,.16-.47,.76-1.17,1.2-1.92,1.2h-.33c-1.42,0-2.45-1.21-2.45-2.88v-2.25c0-1.67,1.03-2.88,2.45-2.88h.33c.75,0,1.45,.44,1.92,1.2,.14,.23,.45,.31,.69,.16,.24-.15,.31-.45,.16-.69-.66-1.07-1.67-1.68-2.77-1.68h-.33c-1.97,0-3.45,1.67-3.45,3.88v2.25c0,2.13,1.38,3.75,3.24,3.87l6.91,6.86c.1,.1,.23,.15,.35,.15s.26-.05,.35-.15c.19-.2,.19-.51,0-.71l-2.54-2.52c1.61-.71,2.69-2.31,2.69-4.12Z"/></svg>
