<?xml version="1.0" encoding="UTF-8"?>
<svg xmlns="http://www.w3.org/2000/svg" id="Layer_1" data-name="Layer 1" viewBox="0 0 24 24" width="512" height="512"><path d="m12,0C5.383,0,0,5.383,0,12s5.383,12,12,12,12-5.383,12-12S18.617,0,12,0Zm11,12c0,2.853-1.101,5.447-2.889,7.404l-3.404-3.404h2.293c.551,0,1-.448,1-1v-2c0-.552-.449-1-1-1h-6.293L4.596,3.889c1.957-1.788,4.551-2.889,7.404-2.889,6.065,0,11,4.935,11,11Zm-9.293,1h5.293v2h-3.293l-2-2Zm-12.707-1c0-2.853,1.101-5.447,2.889-7.404l15.515,15.515c-1.957,1.788-4.551,2.889-7.404,2.889-6.065,0-11-4.935-11-11Zm11,3.5c0,.276-.224.5-.5.5h-6.5c-.551,0-1-.448-1-1v-2c0-.552.449-1,1-1h3.5c.276,0,.5.224.5.5s-.224.5-.5.5h-3.5v2h4v-1.5c0-.276.224-.5.5-.5s.5.224.5.5v1.5h1.5c.276,0,.5.224.5.5Zm0-12c0-.276.224-.5.5-.5s.5.224.5.5c0,.829.69,1.618,1.759,2.011l2.826,1.039c1.489.548,2.415,1.678,2.415,2.95,0,.276-.224.5-.5.5s-.5-.224-.5-.5c0-.829-.69-1.618-1.759-2.011l-2.826-1.039c-1.489-.548-2.415-1.678-2.415-2.95Z"/></svg>
