<?xml version="1.0" encoding="UTF-8"?>
<svg xmlns="http://www.w3.org/2000/svg" id="Layer_1" data-name="Layer 1" viewBox="0 0 24 24" width="512" height="512"><path d="m19.5,0H4.5C2.019,0,0,2.019,0,4.5v15c0,2.481,2.019,4.5,4.5,4.5h15c2.481,0,4.5-2.019,4.5-4.5V4.5c0-2.481-2.019-4.5-4.5-4.5Zm3.5,19.5c0,1.93-1.57,3.5-3.5,3.5H4.5c-1.93,0-3.5-1.57-3.5-3.5V4.5c0-1.93,1.57-3.5,3.5-3.5h15c1.93,0,3.5,1.57,3.5,3.5v15ZM5.009,10.247c-.651.651-1.01,1.503-1.008,2.42l.056,1.159c0,.921.746,1.67,1.729,1.67l1.614-.215c.923,0,1.674-.751,1.671-1.621l.127-1.203c1.925-.756,3.762-.758,5.603-.006l.125,1.185c.016.907.756,1.642,1.602,1.642h.008l1.735.223c.923,0,1.673-.751,1.672-1.65l.058-1.205c0-.895-.357-1.746-1.009-2.397-3.006-3.006-10.977-3.006-13.982,0Zm13.935,3.579c0,.371-.302.674-.608.678l-1.735-.223c-.371,0-.674-.303-.674-.674l-.191-1.839c-1.127-.504-2.536-.873-3.696-.873s-2.598.365-3.772.867l-.191,1.845c0,.371-.303.674-.738.678l-1.606.215c-.371,0-.673-.303-.674-.697l-.056-1.16c0-.626.254-1.226.716-1.688,2.773-2.772,10.181-2.388,12.568,0,.462.463.717,1.062.717,1.666l-.058,1.206Z"/></svg>
