<?xml version="1.0" encoding="UTF-8"?>
<svg xmlns="http://www.w3.org/2000/svg" id="Layer_1" data-name="Layer 1" viewBox="0 0 24 24" width="512" height="512"><path d="M23.5,0c-.276,0-.5,.224-.5,.5v1.5h-3V.5c0-.276-.224-.5-.5-.5s-.5,.224-.5,.5v1.5h-3V.5c0-.276-.224-.5-.5-.5s-.5,.224-.5,.5v1.5h-3V.5c0-.276-.224-.5-.5-.5s-.5,.224-.5,.5V3.5c0,1.393,.819,2.599,2,3.162v2.838c0,.276,.224,.5,.5,.5s.5-.224,.5-.5v-2.536c.163,.023,.33,.036,.5,.036h6c.17,0,.337-.012,.5-.036v14.036c0,1.103-.897,2-2,2h-2.5c-.276,0-.5,.224-.5,.5s.224,.5,.5,.5h2.5c1.654,0,3-1.346,3-3V6.662c1.181-.563,2-1.769,2-3.162V.5c0-.276-.224-.5-.5-.5Zm-3,6h-6c-1.378,0-2.5-1.121-2.5-2.5v-.5h11v.5c0,1.379-1.122,2.5-2.5,2.5Zm-7.227,6.304l-3-2.348c-1.633-1.277-3.914-1.277-5.547,0l-3,2.348c-1.097,.859-1.727,2.151-1.727,3.544v4.152c0,2.206,1.794,4,4,4h7c2.206,0,4-1.794,4-4v-4.152c0-1.393-.629-2.685-1.727-3.544Zm.727,7.696c0,1.654-1.346,3-3,3H4c-1.654,0-3-1.346-3-3v-4.152c0-1.083,.489-2.088,1.343-2.757l3-2.348c.635-.496,1.396-.745,2.157-.745s1.522,.249,2.157,.745l3,2.348c.854,.669,1.343,1.674,1.343,2.757v4.152Zm-5.5-5h-2c-.827,0-1.5,.673-1.5,1.5v2c0,.827,.673,1.5,1.5,1.5h2c.827,0,1.5-.673,1.5-1.5v-2c0-.827-.673-1.5-1.5-1.5Zm.5,3.5c0,.275-.224,.5-.5,.5h-2c-.276,0-.5-.225-.5-.5v-2c0-.275,.224-.5,.5-.5h2c.276,0,.5,.225,.5,.5v2Z"/></svg>
