<?xml version="1.0" encoding="UTF-8"?>
<svg xmlns="http://www.w3.org/2000/svg" id="Layer_1" data-name="Layer 1" viewBox="0 0 24 24" width="512" height="512"><path d="M18.09,23c-.9,0-1.79-.34-2.48-1.02l-7.93-7.93-2.18,2.18c-.77,.77-1.88,.98-2.88,.56-1-.42-1.62-1.35-1.62-2.44V4.5c0-1.93,1.57-3.5,3.5-3.5H14.35s0,0,0,0c1.09,0,2.02,.62,2.44,1.62,.42,1,.2,2.11-.56,2.88l-2.18,2.18,7.93,7.93h0c.66,.66,1.02,1.54,1.02,2.47s-.36,1.81-1.02,2.47l-1.41,1.42c-.68,.68-1.58,1.02-2.47,1.02ZM7.68,12.84c.13,0,.26,.05,.35,.15l8.28,8.28c.97,.97,2.56,.98,3.54,0l1.41-1.42c.47-.47,.73-1.1,.73-1.77s-.26-1.29-.73-1.77L12.99,8.03c-.2-.2-.2-.51,0-.71l2.53-2.53c.57-.57,.55-1.3,.35-1.79-.2-.49-.71-1.01-1.51-1.01H4.5c-1.38,0-2.5,1.13-2.5,2.5V14.35c0,.81,.52,1.31,1.01,1.52,.49,.2,1.21,.22,1.79-.35l2.53-2.53c.1-.1,.23-.15,.35-.15Z"/></svg>
