<?xml version="1.0" encoding="UTF-8"?>
<svg xmlns="http://www.w3.org/2000/svg" id="Layer_1" data-name="Layer 1" viewBox="0 0 24 24" width="512" height="512"><path d="M19.5,24h-7c-2.48,0-4.5-2.02-4.5-4.5v-1c0-.28,.22-.5,.5-.5s.5,.22,.5,.5v1c0,1.93,1.57,3.5,3.5,3.5h7c1.93,0,3.5-1.57,3.5-3.5v-7c0-1.93-1.57-3.5-3.5-3.5h-1c-.28,0-.5-.22-.5-.5s.22-.5,.5-.5h1c2.48,0,4.5,2.02,4.5,4.5v7c0,2.48-2.02,4.5-4.5,4.5ZM1.11,3.62c.32-1.23,1.28-2.2,2.51-2.51,.27-.07,.43-.34,.36-.61-.07-.27-.34-.43-.61-.36C1.79,.55,.55,1.79,.14,3.38c-.07,.27,.09,.54,.36,.61,.04,.01,.08,.02,.12,.02,.22,0,.43-.15,.48-.38Zm-.11,5.88v-3c0-.28-.22-.5-.5-.5s-.5,.22-.5,.5v3c0,.28,.22,.5,.5,.5s.5-.22,.5-.5ZM10,.5c0-.28-.22-.5-.5-.5h-3c-.28,0-.5,.22-.5,.5s.22,.5,.5,.5h3c.28,0,.5-.22,.5-.5Zm5.5,3.48c.27-.07,.43-.34,.36-.61-.41-1.58-1.65-2.82-3.23-3.23-.27-.07-.54,.09-.61,.36-.07,.27,.09,.54,.36,.61,1.23,.32,2.2,1.28,2.51,2.51,.06,.23,.26,.38,.48,.38,.04,0,.08,0,.12-.02Zm-2.87,11.87c1.58-.41,2.82-1.65,3.23-3.23,.07-.27-.09-.54-.36-.61-.27-.07-.54,.09-.61,.36-.32,1.23-1.28,2.2-2.51,2.51-.27,.07-.43,.34-.36,.61,.06,.23,.26,.38,.48,.38,.04,0,.08,0,.12-.02Zm3.38-6.36v-3c0-.28-.22-.5-.5-.5s-.5,.22-.5,.5v3c0,.28,.22,.5,.5,.5s.5-.22,.5-.5Zm-6,6c0-.28-.22-.5-.5-.5h-3c-.28,0-.5,.22-.5,.5s.22,.5,.5,.5h3c.28,0,.5-.22,.5-.5Zm-6.02,0c.07-.27-.09-.54-.36-.61-1.23-.32-2.2-1.28-2.51-2.51-.07-.27-.34-.43-.61-.36-.27,.07-.43,.34-.36,.61,.41,1.58,1.65,2.82,3.23,3.23,.04,.01,.08,.02,.12,.02,.22,0,.43-.15,.48-.38Z"/></svg>
