<?xml version="1.0" encoding="UTF-8"?>
<svg xmlns="http://www.w3.org/2000/svg" id="Layer_1" data-name="Layer 1" viewBox="0 0 24 24" width="512" height="512"><path d="m22.5,4h-5.028c-.25-2.247-2.16-4-4.472-4h-2c-2.312,0-4.223,1.753-4.472,4H1.5c-.276,0-.5.224-.5.5s.224.5.5.5h1.5c0,.015,0,.031.002.046l1.392,14.873c.218,2.327,2.144,4.081,4.48,4.081h6.272c2.34,0,4.267-1.757,4.481-4.087l1.37-14.867c.001-.015.002-.031.002-.046h1.5c.276,0,.5-.224.5-.5s-.224-.5-.5-.5ZM11,1h2c1.76,0,3.221,1.306,3.464,3H7.536c.243-1.694,1.704-3,3.464-3Zm7.632,18.821c-.167,1.812-1.665,3.179-3.485,3.179h-6.272c-1.817,0-3.315-1.365-3.484-3.174l-1.387-14.826h15.995l-1.366,14.821Zm-2.632-4.321v3c0,.276-.224.5-.5.5s-.5-.224-.5-.5v-3c0-1.378-1.121-2.5-2.5-2.5h-3.363c.04.066.089.129.146.187l2.566,2.511c.197.193.201.51.008.707-.098.1-.228.15-.357.15-.126,0-.252-.047-.35-.143l-2.57-2.515c-.384-.384-.577-.886-.58-1.388,0-.003,0-.006,0-.009,0-.003,0-.006,0-.009.002-.502.194-1.003.576-1.384l2.574-2.519c.198-.192.515-.189.707.008.193.197.189.514-.008.707l-2.57,2.515c-.056.056-.104.117-.143.183h3.364c1.93,0,3.5,1.57,3.5,3.5Z"/></svg>
