<?xml version="1.0" encoding="UTF-8"?>
<svg xmlns="http://www.w3.org/2000/svg" id="Layer_1" data-name="Layer 1" viewBox="0 0 24 24" width="512" height="512"><path d="M21.119,8.595c-.56-.477-1.301-.678-2.035-.562-.639,.104-1.193,.472-1.569,.988-.456-.619-1.189-1.022-2.015-1.022-.817,0-1.544,.394-2,1.002-.456-.608-1.183-1.002-2-1.002-.562,0-1.082,.187-1.5,.501V2.607C10,1.333,9.104,.228,7.916,.034c-.732-.117-1.475,.085-2.035,.562-.56,.476-.881,1.17-.881,1.905v1.5H1.5c-.215,0-.406,.138-.474,.342-.068,.204,.002,.429,.174,.558l1.466,1.1-1.466,1.1c-.172,.129-.243,.354-.174,.558,.068,.204,.259,.342,.474,.342h3.5v4.229l-1.557,1.554c-.929,.926-1.442,2.16-1.443,3.472s.51,2.547,1.438,3.475l1.072,1.072c1.417,1.417,3.3,2.197,5.303,2.197h7.687c2.481,0,4.5-2.019,4.5-4.5V10.5c0-.734-.321-1.429-.881-1.905Zm-7.119,1.905c0-.827,.673-1.5,1.5-1.5s1.5,.673,1.5,1.5v2c0,.827-.673,1.5-1.5,1.5s-1.5-.673-1.5-1.5v-2Zm-4,0c0-.827,.673-1.5,1.5-1.5s1.5,.673,1.5,1.5v2c0,.827-.673,1.5-1.5,1.5s-1.5-.673-1.5-1.5v-2ZM6,2.5c0-.44,.193-.857,.529-1.143,.341-.29,.778-.408,1.227-.336,.709,.115,1.245,.797,1.245,1.586v1.393h-3v-1.5ZM3,7l.8-.6c.126-.094,.2-.243,.2-.4s-.074-.306-.2-.4l-.8-.6h6v2H3Zm6,1v3.275c-.884-.667-2.113-.669-3-.007v-3.268h3Zm12,11.5c0,1.93-1.57,3.5-3.5,3.5h-7.687c-1.736,0-3.369-.676-4.596-1.904l-1.072-1.072c-.739-.739-1.146-1.722-1.145-2.768,0-1.045,.409-2.027,1.149-2.765l2.287-2.283c.584-.583,1.535-.583,2.12,.001,.284,.284,.439,.661,.439,1.062,0,.401-.157,.778-.441,1.061l-2.408,2.405c-.195,.195-.195,.512,0,.708,.195,.195,.512,.195,.708,0l2.408-2.405c.217-.216,.388-.466,.511-.736,.449,.43,1.058,.696,1.728,.696,.817,0,1.544-.394,2-1.002,.456,.608,1.183,1.002,2,1.002s1.544-.394,2-1.002c.456,.608,1.183,1.002,2,1.002,.562,0,1.082-.187,1.5-.501v5.001Zm0-7c0,.827-.673,1.5-1.5,1.5s-1.5-.673-1.5-1.5v-2c0-.828,.672-1.5,1.5-1.5s1.5,.672,1.5,1.5v2Z"/></svg>
