<?xml version="1.0" encoding="UTF-8"?>
<svg xmlns="http://www.w3.org/2000/svg" id="Layer_1" data-name="Layer 1" viewBox="0 0 24 24" width="512" height="512"><path d="M19.795,10.01c-.651-2.311-2.779-4.01-5.295-4.01s-4.637,1.694-5.292,4H4.5c-2.481,0-4.5,2.019-4.5,4.5v3c0,1.956,1.254,3.624,3,4.243v1.757c0,.276,.224,.5,.5,.5s.5-.224,.5-.5v-1.528c.164,.018,.331,.028,.5,.028h15c.169,0,.336-.01,.5-.028v1.528c0,.276,.224,.5,.5,.5s.5-.224,.5-.5v-1.757c1.746-.619,3-2.287,3-4.243v-3c0-2.382-1.861-4.338-4.205-4.49Zm-5.295-3.01c2.481,0,4.5,2.019,4.5,4.5s-2.019,4.5-4.5,4.5-4.5-2.019-4.5-4.5,2.019-4.5,4.5-4.5Zm8.5,10.5c0,1.93-1.57,3.5-3.5,3.5H4.5c-1.93,0-3.5-1.57-3.5-3.5v-3c0-1.93,1.57-3.5,3.5-3.5h4.523c-.015,.165-.023,.331-.023,.5,0,3.032,2.467,5.5,5.5,5.5s5.5-2.468,5.5-5.5c0-.157-.007-.313-.02-.467,1.703,.235,3.02,1.7,3.02,3.467v3ZM5,14c0,.552-.448,1-1,1s-1-.448-1-1,.448-1,1-1,1,.448,1,1ZM14,3.5V.5c0-.276,.224-.5,.5-.5s.5,.224,.5,.5V3.5c0,.276-.224,.5-.5,.5s-.5-.224-.5-.5Zm4.313,.433l1.796-2.245c.173-.215,.488-.248,.703-.078,.216,.173,.25,.487,.078,.703l-1.796,2.245c-.099,.123-.244,.188-.391,.188-.109,0-.22-.036-.312-.109-.216-.173-.25-.487-.078-.703Zm-10.204-1.62c-.172-.216-.137-.53,.078-.703,.217-.172,.53-.136,.703,.078l1.793,2.242c.172,.216,.137,.53-.078,.703-.092,.073-.203,.109-.312,.109-.147,0-.292-.064-.391-.188l-1.793-2.242Z"/></svg>
