<?xml version="1.0" encoding="UTF-8"?>
<svg xmlns="http://www.w3.org/2000/svg" id="Layer_1" data-name="Layer 1" width="512" height="512" viewBox="0 0 24 24"><path d="M20.5,17c-.17,0-.337,.012-.5,.036V4.5c0-1.93,1.57-3.5,3.5-3.5,.276,0,.5-.224,.5-.5s-.224-.5-.5-.5c-2.481,0-4.5,2.019-4.5,4.5v12.634L2.451,22.36l-1.322-4c-.211-.634-.162-1.312,.137-1.909,.3-.597,.813-1.042,1.45-1.253l.466-.158,.468,1.506c.12,.383,.382,.697,.737,.882,.218,.114,.454,.171,.693,.171,.151,0,.304-.023,.452-.07l7.804-2.458c.787-.248,1.227-1.091,.98-1.877l-.539-1.735,2.882-.978c.262-.089,.402-.373,.313-.634-.088-.261-.373-.401-.634-.313l-2.859,.97-.627-2.017c-.279-.894-.891-1.625-1.721-2.059-.831-.434-1.78-.517-2.672-.236l-3.987,1.256c-1.837,.579-2.863,2.544-2.29,4.382l.701,2.254-.487,.165c-.888,.294-1.607,.917-2.026,1.753s-.487,1.785-.192,2.671l1.318,3.987-1.148,.363c-.264,.083-.409,.364-.326,.627,.067,.213,.264,.35,.477,.35,.05,0,.101-.007,.15-.023l16.883-5.331c-.338,.538-.533,1.174-.533,1.855,0,1.93,1.57,3.5,3.5,3.5s3.5-1.57,3.5-3.5-1.57-3.5-3.5-3.5ZM4.775,8.403l3.987-1.256c.248-.078,.501-.117,.754-.117,.397,0,.792,.096,1.154,.285,.593,.31,1.029,.832,1.229,1.47l1.463,4.708c.083,.262-.063,.543-.326,.625l-7.804,2.458c-.125,.041-.262,.029-.382-.034-.118-.062-.205-.167-.245-.293l-1.466-4.716c-.41-1.313,.323-2.717,1.636-3.13Zm15.725,14.597c-1.379,0-2.5-1.122-2.5-2.5s1.121-2.5,2.5-2.5,2.5,1.122,2.5,2.5-1.121,2.5-2.5,2.5Z"/></svg>
