<?xml version="1.0" encoding="UTF-8"?>
<svg xmlns="http://www.w3.org/2000/svg" id="Layer_1" data-name="Layer 1" viewBox="0 0 24 24" width="512" height="512"><path d="M12,0C5.383,0,0,5.383,0,12s5.383,12,12,12,12-5.383,12-12S18.617,0,12,0Zm0,23c-6.065,0-11-4.935-11-11S5.935,1,12,1s11,4.935,11,11-4.935,11-11,11Zm1-11.5v7c0,.276-.224,.5-.5,.5s-.5-.224-.5-.5v-6.098l-3.235,2.021c-.235,.147-.543,.076-.689-.159-.146-.234-.075-.543,.159-.689l4-2.5c.154-.097,.349-.101,.507-.014,.159,.088,.258,.256,.258,.438Z"/></svg>
