<?xml version="1.0" encoding="UTF-8"?>
<svg xmlns="http://www.w3.org/2000/svg" id="Layer_1" data-name="Layer 1" viewBox="0 0 24 24" width="512" height="512"><path d="M23.5,1H.5c-.28,0-.5-.22-.5-.5S.22,0,.5,0H23.5c.28,0,.5,.22,.5,.5s-.22,.5-.5,.5Zm.5,11.5c0-.28-.22-.5-.5-.5H.5c-.28,0-.5,.22-.5,.5s.22,.5,.5,.5H23.5c.28,0,.5-.22,.5-.5ZM6,8v-2c0-1.1-.9-2-2-2H2c-1.1,0-2,.9-2,2v2c0,1.1,.9,2,2,2h2c1.1,0,2-.9,2-2Zm-2-3c.55,0,1,.45,1,1v2c0,.55-.45,1-1,1H2c-.55,0-1-.45-1-1v-2c0-.55,.45-1,1-1h2Zm11,3v-2c0-1.1-.9-2-2-2h-2c-1.1,0-2,.9-2,2v2c0,1.1,.9,2,2,2h2c1.1,0,2-.9,2-2Zm-2-3c.55,0,1,.45,1,1v2c0,.55-.45,1-1,1h-2c-.55,0-1-.45-1-1v-2c0-.55,.45-1,1-1h2Zm11,3v-2c0-1.1-.9-2-2-2h-2c-1.1,0-2,.9-2,2v2c0,1.1,.9,2,2,2h2c1.1,0,2-.9,2-2Zm-2-3c.55,0,1,.45,1,1v2c0,.55-.45,1-1,1h-2c-.55,0-1-.45-1-1v-2c0-.55,.45-1,1-1h2ZM6,20v-2c0-1.1-.9-2-2-2H2c-1.1,0-2,.9-2,2v2c0,1.1,.9,2,2,2h2c1.1,0,2-.9,2-2Zm-2-3c.55,0,1,.45,1,1v2c0,.55-.45,1-1,1H2c-.55,0-1-.45-1-1v-2c0-.55,.45-1,1-1h2Zm11,3v-2c0-1.1-.9-2-2-2h-2c-1.1,0-2,.9-2,2v2c0,1.1,.9,2,2,2h2c1.1,0,2-.9,2-2Zm-2-3c.55,0,1,.45,1,1v2c0,.55-.45,1-1,1h-2c-.55,0-1-.45-1-1v-2c0-.55,.45-1,1-1h2Zm11,3v-2c0-1.1-.9-2-2-2h-2c-1.1,0-2,.9-2,2v2c0,1.1,.9,2,2,2h2c1.1,0,2-.9,2-2Zm-2-3c.55,0,1,.45,1,1v2c0,.55-.45,1-1,1h-2c-.55,0-1-.45-1-1v-2c0-.55,.45-1,1-1h2Z"/></svg>
