<?xml version="1.0" encoding="UTF-8"?>
<svg xmlns="http://www.w3.org/2000/svg" id="Layer_1" data-name="Layer 1" viewBox="0 0 24 24" width="512" height="512"><path d="M5.91,23c-.94,0-1.81-.36-2.48-1.03l-1.41-1.41c-.66-.66-1.02-1.54-1.02-2.47s.36-1.81,1.02-2.47l7.93-7.93-2.18-2.18c-.77-.77-.98-1.87-.57-2.88,.42-1,1.35-1.62,2.44-1.62h9.85c1.93,0,3.5,1.58,3.5,3.5V14.35c0,1.09-.62,2.02-1.62,2.44-1,.42-2.1,.2-2.88-.56l-2.18-2.18-7.93,7.93c-.66,.66-1.54,1.03-2.47,1.03ZM9.65,2c-.81,0-1.31,.52-1.52,1.01-.2,.49-.22,1.21,.35,1.79l2.53,2.53c.2,.2,.2,.51,0,.71L2.73,16.32h0c-.47,.47-.73,1.1-.73,1.77s.26,1.29,.73,1.77l1.41,1.41c.94,.94,2.59,.95,3.54,0L15.96,12.98c.09-.09,.22-.15,.35-.15h0c.13,0,.26,.05,.35,.15l2.53,2.54c.57,.57,1.3,.55,1.79,.35,.49-.2,1.01-.71,1.01-1.52V4.5c0-1.38-1.12-2.5-2.5-2.5H9.65s0,0,0,0ZM2.38,15.96h0Z"/></svg>
