<?xml version="1.0" encoding="UTF-8"?>
<svg xmlns="http://www.w3.org/2000/svg" id="Layer_1" data-name="Layer 1" viewBox="0 0 24 24" width="512" height="512"><path d="M1.147,1.854c-.094,.196-.147,.415-.147,.646v7c0,.276-.224,.5-.5,.5s-.5-.224-.5-.5V2.5C0,1.122,1.122,0,2.5,0h7c.276,0,.5,.224,.5,.5s-.224,.5-.5,.5H2.5c-.231,0-.451,.053-.646,.147L15.354,14.646c.195,.195,.195,.512,0,.707-.098,.098-.226,.146-.354,.146s-.256-.049-.354-.146L1.147,1.854Zm12.853,2.146c-1.653,0-3.291,.412-4.737,1.191-.243,.131-.334,.434-.203,.677,.131,.242,.433,.335,.677,.203,1.301-.701,2.775-1.071,4.263-1.071,4.963,0,9,4.038,9,9s-4.037,9-9,9S5,18.962,5,14c0-1.488,.371-2.962,1.071-4.263,.131-.243,.041-.546-.203-.677-.245-.132-.546-.041-.677,.203-.779,1.446-1.191,3.084-1.191,4.737,0,5.514,4.486,10,10,10s10-4.486,10-10S19.514,4,14,4Z"/></svg>
