<?xml version="1.0" encoding="UTF-8"?>
<svg xmlns="http://www.w3.org/2000/svg" id="Layer_1" data-name="Layer 1" viewBox="0 0 24 24" width="512" height="512"><path d="M23.5,8c-.276,0-.5,.224-.5,.5v1.5h-4V.5c0-.276-.224-.5-.5-.5s-.5,.224-.5,.5v1.5h-3V.5c0-.276-.224-.5-.5-.5s-.5,.224-.5,.5v1.5h-4V.5c0-.276-.224-.5-.5-.5s-.5,.224-.5,.5v1.5h-3V.5c0-.276-.224-.5-.5-.5s-.5,.224-.5,.5V10H1v-1.5c0-.276-.224-.5-.5-.5s-.5,.224-.5,.5v11.5c0,2.206,1.794,4,4,4h4.5c.276,0,.5-.224,.5-.5v-5.5c0-1.654,1.346-3,3-3s3,1.346,3,3v5.5c0,.276,.224,.5,.5,.5h4.5c2.206,0,4-1.794,4-4V8.5c0-.276-.224-.5-.5-.5ZM6,3h12v7h-4v-3c0-1.103-.897-2-2-2s-2,.897-2,2v3H6V3Zm7,7h-2v-3c0-.552,.449-1,1-1s1,.448,1,1v3Zm7,13h-4v-5c0-2.206-1.794-4-4-4s-4,1.794-4,4v5H4c-1.654,0-3-1.346-3-3V11H23v9c0,1.654-1.346,3-3,3Z"/></svg>
