<?xml version="1.0" encoding="UTF-8"?>
<svg xmlns="http://www.w3.org/2000/svg" id="Layer_1" data-name="Layer 1" viewBox="0 0 24 24" width="512" height="512"><path d="M23.728,12.64l-3.596-5.14,3.588-5.113c.323-.459,.362-1.055,.103-1.553-.259-.499-.769-.809-1.331-.809H3.496C1.566,.025-.004,1.596-.004,3.526l.004,19.974c0,.276,.224,.5,.5,.5s.5-.224,.5-.5V15H22.498c.562,0,1.071-.31,1.331-.807,.259-.498,.221-1.093-.101-1.554Zm-.786,1.092c-.088,.168-.254,.269-.444,.269H.998l-.002-10.474C.996,2.147,2.118,1.025,3.496,1.025H22.491c.19,0,.356,.101,.444,.27,.087,.169,.075,.362-.034,.518l-3.789,5.4c-.121,.172-.121,.401,0,.574l3.797,5.426c.109,.156,.121,.35,.034,.519Z"/></svg>
