<?xml version="1.0" encoding="UTF-8"?>
<svg xmlns="http://www.w3.org/2000/svg" id="Layer_1" data-name="Layer 1" viewBox="0 0 24 24">
  <path d="m18,12c0,.916-.356,1.776-1.004,2.424l-4.131,4.417c-.099.105-.232.159-.365.159-.123,0-.245-.044-.341-.135-.202-.188-.212-.505-.024-.707l4.143-4.429c.47-.471.723-1.081.723-1.729s-.253-1.258-.711-1.717l-4.154-4.441c-.188-.202-.178-.518.024-.707.202-.188.518-.178.707.024l4.143,4.429c.636.636.992,1.497.992,2.412Zm-5.133-.339l-6-6.5c-.187-.202-.503-.215-.707-.028-.203.187-.215.503-.028.707l5.687,6.161-5.687,6.161c-.188.203-.175.52.028.707.096.089.218.133.339.133.135,0,.269-.054.367-.161l6-6.5c.177-.192.177-.487,0-.679Z"/>
</svg>
