<?xml version="1.0" encoding="UTF-8"?>
<svg xmlns="http://www.w3.org/2000/svg" id="Layer_1" data-name="Layer 1" viewBox="0 0 24 24" width="512" height="512"><path d="m23.409,9.893c-.478-.567-1.176-.893-1.916-.893h-3.079l4.693-3.879c.566-.566.879-1.32.879-2.121s-.312-1.555-.879-2.121c-1.134-1.135-3.078-1.168-4.274.035l-6.68,8.086H2.507c-.74,0-1.438.326-1.916.893-.479.568-.68,1.314-.553,2.045.549,3.159,2.344,6.076,4.839,7.828.543.314,1.123,1.049,1.123,1.643,0,.877-.714,1.591-1.591,1.591-.276,0-.5.224-.5.5s.224.5.5.5c.021,0,.04-.006.06-.006.011,0,.02.006.03.006h15c.011,0,.02-.005.03-.006.021,0,.04.006.06.006.276,0,.5-.224.5-.5s-.224-.5-.5-.5c-.877,0-1.591-.714-1.591-1.591,0-.594.58-1.329,1.159-1.667,2.459-1.728,4.254-4.646,4.803-7.804.127-.731-.074-1.477-.553-2.045Zm-3.838-8.307c.756-.756,2.072-.756,2.828,0,.378.378.586.88.586,1.414s-.208,1.036-.551,1.382l-5.59,4.618h-3.396l6.122-7.414ZM6.439,23c.346-.44.561-.988.561-1.591,0-.49-.195-.981-.479-1.409h10.96c-.286.43-.481.92-.481,1.409,0,.602.215,1.15.561,1.591H6.439Zm16.539-11.232c-.505,2.903-2.295,5.677-4.505,7.232H5.529c-2.246-1.579-4.001-4.33-4.506-7.232-.076-.44.046-.889.333-1.231.287-.341.707-.537,1.151-.537h18.986c.444,0,.864.196,1.151.537.287.342.409.791.333,1.231Z"/></svg>
