<?xml version="1.0" encoding="UTF-8"?>
<svg xmlns="http://www.w3.org/2000/svg" id="Layer_1" data-name="Layer 1" width="512" height="512" viewBox="0 0 24 24"><path d="M23.439,10.133l-2.427-5.461c-.722-1.624-2.335-2.672-4.112-2.672H4.5C2.019,2,0,4.019,0,6.5V15.5c0,1.653,1.437,2.96,3,3.367v1.133c0,1.654,1.346,3,3,3s3-1.346,3-3v-1h6v1c0,1.654,1.346,3,3,3s3-1.346,3-3v-1.036c1.694-.243,3-1.704,3-3.464v-2.727c0-.917-.188-1.805-.561-2.64Zm-3.341-5.055l2.187,4.921h-7.285V3h1.9c1.382,0,2.638,.816,3.198,2.079Zm-12.099,4.921V3h6v7h-6ZM4.5,3h2.5v7H1v-3.5c0-1.93,1.57-3.5,3.5-3.5Zm3.5,17c0,1.103-.897,2-2,2s-2-.897-2-2v-1h4v1Zm10,2c-1.103,0-2-.897-2-2v-1h4v1c0,1.103-.897,2-2,2Zm5-6.5c0,1.378-1.121,2.5-2.5,2.5H4c-1.359,0-3-1.115-3-2.5v-4.5H22.706c.195,.569,.294,1.164,.294,1.773v2.727Z"/></svg>
