<?xml version="1.0" encoding="UTF-8"?>
<svg xmlns="http://www.w3.org/2000/svg" id="Layer_1" data-name="Layer 1" width="512" height="512" viewBox="0 0 24 24"><path d="M21.759,9.122c-1.321-.734-2.886-1.122-4.525-1.122h-3.459l-3.193-5.7c-.795-1.419-2.299-2.3-3.926-2.3h-1.156c-1.378,0-2.5,1.122-2.5,2.5v3c0,.276,.224,.5,.5,.5s.5-.224,.5-.5V2.5c0-.827,.673-1.5,1.5-1.5h1.156c1.265,0,2.435,.686,3.054,1.789l2.919,5.211H2.5c-1.378,0-2.5,1.122-2.5,2.5v3c0,1.378,1.122,2.5,2.5,2.5H12.628l-2.919,5.21c-.619,1.104-1.789,1.79-3.054,1.79h-1.156c-.827,0-1.5-.673-1.5-1.5v-3c0-.276-.224-.5-.5-.5s-.5,.224-.5,.5v3c0,1.378,1.122,2.5,2.5,2.5h1.156c1.626,0,3.131-.881,3.926-2.301l3.193-5.699h3.459c1.64,0,3.204-.388,4.525-1.122,1.487-.827,2.241-1.795,2.241-2.878s-.754-2.052-2.241-2.878Zm-5.721,5.878H5v-6h11.038c.405,.237,1.962,1.262,1.962,3s-1.557,2.763-1.962,3ZM1,13.5v-3c0-.827,.673-1.5,1.5-1.5h1.5v6h-1.5c-.827,0-1.5-.673-1.5-1.5Zm20.272,.504c-1.053,.585-2.287,.921-3.592,.984,.658-.654,1.319-1.645,1.319-2.988s-.662-2.335-1.319-2.988c1.305,.063,2.539,.399,3.592,.984,.788,.438,1.728,1.142,1.728,2.004s-.939,1.566-1.728,2.004Z"/></svg>
