<?xml version="1.0" encoding="UTF-8"?>
<svg xmlns="http://www.w3.org/2000/svg" id="Layer_1" data-name="Layer 1" viewBox="0 0 24 24" width="512" height="512"><path d="M20,14h.5c1.93,0,3.5-1.57,3.5-3.5,0-.276-.224-.5-.5-.5s-.5,.224-.5,.5c0,1.379-1.121,2.5-2.5,2.5h-.5V1h3.5c.276,0,.5-.224,.5-.5s-.224-.5-.5-.5H.5C.224,0,0,.224,0,.5s.224,.5,.5,.5h3.5V23H.5c-.276,0-.5,.224-.5,.5s.224,.5,.5,.5H23.5c.276,0,.5-.224,.5-.5s-.224-.5-.5-.5h-3.5V14Zm-1-4H5v-2h14v2Zm0-3H5v-2h14v2ZM5,17h14v2H5v-2Zm14-1H5v-2h14v2Zm-14-3v-2h14v2H5ZM19,1v3H5V1h14ZM5,23v-3h14v3H5Z"/></svg>
