<?xml version="1.0" encoding="UTF-8"?>
<svg xmlns="http://www.w3.org/2000/svg" id="Layer_1" data-name="Layer 1" viewBox="0 0 24 24" width="512" height="512"><path d="m21.5,8c-.276,0-.5-.224-.5-.5V.5c0-.276.224-.5.5-.5s.5.224.5.5v7c0,.276-.224.5-.5.5Zm-3.5-.5V.5c0-.276-.224-.5-.5-.5s-.5.224-.5.5v7c0,.276.224.5.5.5s.5-.224.5-.5Zm4.234,14.77l.978-1.125c1.049-1.049,1.049-2.756-.049-3.848l-2.446-1.874c-1.016-1.017-2.786-1.017-3.802-.002l-1.532,1.494c-3.681-1.499-6.678-4.499-8.295-8.303l1.487-1.525c1.049-1.049,1.049-2.756.043-3.756l-1.959-2.543c-1.016-1.017-2.814-.993-3.779-.023l-1.176,1.024C.605,2.887,0,4.374,0,5.976c0,7.749,10.275,18.024,18.023,18.024,1.604,0,3.091-.605,4.211-1.73ZM5.909,1.446l1.959,2.543c.659.659.659,1.732-.005,2.396l-1.722,1.766c-.138.142-.18.352-.105.536,1.729,4.306,5.114,7.688,9.285,9.281.185.068.389.027.528-.109l1.765-1.722s.004-.003.005-.004c.639-.639,1.703-.682,2.439.043l2.446,1.874c.659.659.659,1.731-.023,2.416l-.978,1.125c-.909.91-2.145,1.411-3.48,1.411C10.864,23,1,13.136,1,5.976c0-1.335.501-2.571,1.386-3.456l1.176-1.025c.336-.336.779-.5,1.215-.5.419,0,.831.152,1.133.452Z"/></svg>
