<?xml version="1.0" encoding="UTF-8"?>
<svg xmlns="http://www.w3.org/2000/svg" id="Layer_1" data-name="Layer 1" viewBox="0 0 24 24" width="512" height="512"><path d="M19.5,8h-.5V3.5c0-1.93-1.57-3.5-3.5-3.5h-7c-1.93,0-3.5,1.57-3.5,3.5v4.5h-.5c-2.481,0-4.5,2.019-4.5,4.5v7c0,2.481,2.019,4.5,4.5,4.5h15c2.481,0,4.5-2.019,4.5-4.5v-7c0-2.481-2.019-4.5-4.5-4.5ZM6,3.5c0-1.378,1.122-2.5,2.5-2.5h7c1.379,0,2.5,1.122,2.5,2.5V13H6V3.5Zm-1.5,5.5h.5v4.5c0,.276,.224,.5,.5,.5h13c.276,0,.5-.224,.5-.5v-4.5h.5c1.93,0,3.5,1.57,3.5,3.5v5.5H1v-5.5c0-1.93,1.57-3.5,3.5-3.5Zm15,14H4.5c-1.93,0-3.5-1.57-3.5-3.5v-.5H23v.5c0,1.93-1.57,3.5-3.5,3.5Z"/></svg>
