<?xml version="1.0" encoding="UTF-8"?>
<svg xmlns="http://www.w3.org/2000/svg" id="Layer_1" data-name="Layer 1" viewBox="0 0 24 24" width="512" height="512"><path d="M8,9c0,.552-.448,1-1,1s-1-.448-1-1,.448-1,1-1,1,.448,1,1Zm16,10.5v-7.145c0-3.396-1.392-6.688-3.82-9.034C17.857,1.076,14.825-.115,11.629,.009,5.309,.225,.094,5.542,.002,11.862c-.044,3.103,1.133,6.031,3.315,8.245,2.474,2.51,5.96,3.893,9.815,3.893h6.367c2.481,0,4.5-2.019,4.5-4.5Zm-4.515-15.46c2.233,2.159,3.515,5.189,3.515,8.315v7.145c0,1.93-1.57,3.5-3.5,3.5h-6.367c-3.585,0-6.818-1.276-9.103-3.595-1.993-2.022-3.069-4.696-3.028-7.528C1.086,6.082,5.868,1.206,11.663,1.008c.125-.004,.248-.006,.372-.006,2.781,0,5.415,1.071,7.451,3.039ZM5.354,16.854l5.293-5.293c.195-.195,.512-.195,.707,0l2.586,2.586c.585,.585,1.536,.585,2.121,0l4.293-4.293c.195-.195,.195-.512,0-.707s-.512-.195-.707,0l-4.293,4.293c-.195,.195-.512,.195-.707,0l-2.586-2.586c-.585-.585-1.536-.585-2.121,0l-5.293,5.293c-.195,.195-.195,.512,0,.707,.098,.098,.226,.146,.354,.146s.256-.049,.354-.146Z"/></svg>
