<?xml version="1.0" encoding="UTF-8"?>
<svg xmlns="http://www.w3.org/2000/svg" id="Layer_1" data-name="Layer 1" width="512" height="512" viewBox="0 0 24 24"><path d="M15.766,9.017L9.918,1h2.582c.276,0,.5-.224,.5-.5s-.224-.5-.5-.5h-3c-1.378,0-2.5,1.122-2.5,2.5v6.5h-2.231l-1.246-1.88c-.464-.701-1.243-1.12-2.084-1.12-.793,0-1.438,.646-1.438,1.438v9.123c0,.793,.646,1.438,1.452,1.438,.845,0,1.626-.422,2.09-1.128l1.229-1.872h2.23v6.5c0,1.378,1.122,2.5,2.5,2.5h3c.276,0,.5-.224,.5-.5s-.224-.5-.5-.5h-2.582l5.848-8.017c2.216-.153,8.234-.775,8.234-2.983s-6.018-2.83-8.234-2.983Zm-.297,4.984c-.148,.009-.285,.084-.373,.205,0,0-6.255,8.587-6.27,8.634-.489-.247-.826-.755-.826-1.339v-7c0-.276-.224-.5-.5-.5h-3c-.168,0-.326,.085-.418,.226l-1.376,2.097c-.278,.424-.747,.677-1.267,.677-.242,0-.438-.197-.438-.438V7.438c0-.242,.197-.438,.438-.438,.505,0,.972,.251,1.25,.671l1.394,2.104c.093,.14,.25,.224,.417,.224h3c.276,0,.5-.224,.5-.5V2.5c0-.585,.336-1.092,.826-1.339,.016,.047,6.27,8.634,6.27,8.634,.087,.121,.224,.195,.373,.205,3.562,.223,7.531,1.1,7.531,2.001s-3.969,1.778-7.531,2.001Z"/></svg>
