<?xml version="1.0" encoding="UTF-8"?>
<svg xmlns="http://www.w3.org/2000/svg" id="Layer_1" data-name="Layer 1" viewBox="0 0 24 24" width="512" height="512"><path d="m23.987,9.521c-.395-3.208-2.175-6.19-4.884-8.183-.393-.289-.895-.401-1.376-.312-.489.092-.923.385-1.189.804l-2.754,4.329c-.151.239-.203.534-.14.809.062.27.223.496.454.64,1.05.648,1.732,1.715,1.874,2.926.066.559.505.965,1.045.965h5.195c.514,0,1.004-.22,1.346-.605.333-.377.489-.877.429-1.372Zm-1.178.709c-.151.172-.369.27-.597.27h-5.195s-.051-.083-.051-.083c-.178-1.516-1.031-2.85-2.339-3.72l2.754-4.329c.119-.187.312-.317.53-.358.05-.009.099-.014.147-.014.163,0,.319.051.452.147,2.487,1.83,4.122,4.564,4.483,7.5.026.214-.04.422-.186.587Zm-7.539,4.71c-.28-.501-.913-.688-1.411-.416-1.158.631-2.561.632-3.721,0-.495-.271-1.125-.088-1.406.407-.445.784-.9,1.605-1.336,2.392-.416.749-.813,1.467-1.168,2.09-.243.428-.298.943-.15,1.413.148.468.472.841.912,1.05,1.578.746,3.264,1.125,5.01,1.125s3.43-.378,5.005-1.123c.439-.207.763-.579.91-1.048.149-.474.094-.992-.149-1.418l-2.495-4.471Zm1.691,5.588c-.063.199-.199.357-.384.444-2.885,1.363-6.275,1.362-9.16-.002-.186-.088-.322-.246-.386-.446-.064-.205-.041-.431.065-.618.356-.625.756-1.347,1.173-2.1.435-.782.888-1.601,1.389-2.405,1.438.783,3.188.756,4.738.027l2.498,4.475c.107.189.132.417.066.625Zm-8.935-9.994c.14-1.201.816-2.263,1.854-2.912.229-.143.388-.367.449-.634.063-.273.013-.567-.137-.807,0,0,0,0,0,0L7.461,1.843c-.266-.423-.699-.719-1.191-.812-.48-.092-.986.021-1.379.312C2.186,3.335.407,6.316.013,9.523c-.061.493.096.993.429,1.37.342.386.832.606,1.346.606h5.195c.54,0,.979-.407,1.045-.966Zm-6.837-.304c-.146-.165-.212-.373-.186-.585.361-2.935,1.994-5.668,4.479-7.498.132-.098.288-.148.451-.148.049,0,.099.005.148.015.219.041.412.173.531.361l2.732,4.339.005.061c-1.298.812-2.143,2.14-2.37,3.725H1.787c-.228,0-.445-.098-.597-.269Zm10.81,2.77c1.103,0,2-.897,2-2s-.897-2-2-2-2,.897-2,2,.897,2,2,2Zm0-3c.552,0,1,.448,1,1s-.448,1-1,1-1-.448-1-1,.448-1,1-1Z"/></svg>
