<?xml version="1.0" encoding="UTF-8"?>
<svg xmlns="http://www.w3.org/2000/svg" id="Layer_1" data-name="Layer 1" viewBox="0 0 24 24" width="512" height="512"><path d="m19.5,4h-4.5v-1c0-1.654-1.346-3-3-3s-3,1.346-3,3v1h-4.5C2.019,4,0,6.019,0,8.5v11c0,2.481,2.019,4.5,4.5,4.5h15c2.481,0,4.5-2.019,4.5-4.5v-11c0-2.481-2.019-4.5-4.5-4.5Zm-9.5-1c0-1.103.897-2,2-2s2,.897,2,2v3.5c0,.275-.224.5-.5.5h-3c-.276,0-.5-.225-.5-.5v-3.5Zm13,16.5c0,1.93-1.57,3.5-3.5,3.5H4.5c-1.93,0-3.5-1.57-3.5-3.5v-11c0-1.93,1.57-3.5,3.5-3.5h4.5v1.5c0,.827.673,1.5,1.5,1.5h3c.827,0,1.5-.673,1.5-1.5v-1.5h4.5c1.93,0,3.5,1.57,3.5,3.5v11Zm-11-3.5c1.654,0,3-1.346,3-3s-1.346-3-3-3-3,1.346-3,3,1.346,3,3,3Zm0-5c1.103,0,2,.897,2,2s-.897,2-2,2-2-.897-2-2,.897-2,2-2Zm4.985,9.88c.066.268-.097.539-.365.605-.041.01-.081.015-.121.015-.224,0-.428-.152-.485-.38-.449-1.808-2.137-3.12-4.015-3.12s-3.566,1.312-4.015,3.12c-.067.268-.339.429-.606.365-.268-.066-.431-.338-.365-.605.558-2.248,2.655-3.88,4.985-3.88s4.427,1.632,4.985,3.88Z"/></svg>
