<?xml version="1.0" encoding="UTF-8"?>
<svg xmlns="http://www.w3.org/2000/svg" id="Layer_1" data-name="Layer 1" viewBox="0 0 24 24" width="512" height="512"><path d="M22,9.75c0-2.067-1.683-3.75-3.75-3.75-1.277,0-2.441,.64-3.127,1.677-.584-.876-1.526-1.494-2.615-1.643,.13-3.959,1.919-5.035,2.992-5.035,.827,0,1.5,.673,1.5,1.5,0,.275-.225,.5-.5,.5s-.5,.224-.5,.5,.224,.5,.5,.5c.827,0,1.5-.673,1.5-1.5,0-1.379-1.121-2.5-2.5-2.5-1.125,0-2.841,.786-3.607,3.398-.622-1.452-1.704-2.613-3.169-3.346-.247-.123-.547-.022-.671,.224-.123,.247-.023,.547,.224,.671,1.951,.975,3.078,2.771,3.21,5.088-1.087,.15-2.027,.767-2.61,1.642-.686-1.037-1.85-1.677-3.127-1.677-2.067,0-3.75,1.683-3.75,3.75,0,1.963,1.517,3.579,3.44,3.737-.287,.537-.44,1.14-.44,1.763,0,1.86,1.363,3.409,3.142,3.7-.094,.34-.142,.691-.142,1.05,0,2.206,1.794,4,4,4s4-1.794,4-4c0-.359-.048-.71-.142-1.05,1.779-.291,3.142-1.84,3.142-3.7,0-.627-.152-1.228-.438-1.763,1.922-.159,3.438-1.775,3.438-3.737Zm-10-2.75c1.517,0,2.75,1.233,2.75,2.75s-1.233,2.75-2.75,2.75-2.75-1.233-2.75-2.75,1.233-2.75,2.75-2.75ZM3,9.75c0-1.517,1.233-2.75,2.75-2.75,1.113,0,2.11,.664,2.539,1.692,.02,.048,.046,.091,.078,.128-.076,.297-.117,.609-.117,.93s.041,.632,.117,.93c-.031,.037-.058,.08-.078,.128-.429,1.028-1.426,1.692-2.539,1.692-1.517,0-2.75-1.233-2.75-2.75Zm3,5.5c0-.704,.266-1.372,.748-1.885,.87-.239,1.627-.784,2.128-1.543,.423,.635,1.034,1.135,1.753,1.418,.008,.009,.016,.018,.024,.026,.545,.522,.846,1.228,.846,1.983,0,1.517-1.233,2.75-2.75,2.75s-2.75-1.233-2.75-2.75Zm6,7.75c-1.654,0-3-1.346-3-3,0-.355,.063-.698,.185-1.025,1.203-.14,2.235-.852,2.815-1.856,.58,1.004,1.611,1.716,2.815,1.856,.123,.327,.185,.671,.185,1.025,0,1.654-1.346,3-3,3Zm3.25-5c-1.517,0-2.75-1.233-2.75-2.75,0-.713,.272-1.389,.766-1.903,.028-.029,.05-.06,.07-.093,.734-.281,1.358-.786,1.788-1.431,.502,.759,1.259,1.304,2.129,1.543,.483,.511,.747,1.175,.747,1.884,0,1.517-1.233,2.75-2.75,2.75Zm3-5.5c-.191,0-.379-.02-.561-.058-.049-.02-.1-.032-.153-.036-.811-.217-1.491-.797-1.825-1.599-.02-.048-.046-.09-.078-.128,.076-.297,.117-.609,.117-.93s-.041-.632-.117-.93c.031-.037,.058-.08,.078-.128,.429-1.028,1.426-1.692,2.539-1.692,1.517,0,2.75,1.233,2.75,2.75s-1.233,2.75-2.75,2.75Z"/></svg>
