<?xml version="1.0" encoding="UTF-8"?>
<svg xmlns="http://www.w3.org/2000/svg" id="Layer_1" data-name="Layer 1" viewBox="0 0 24 24" width="512" height="512"><path d="M12,0C5.383,0,0,5.383,0,12s5.383,12,12,12,12-5.383,12-12S18.617,0,12,0Zm0,23c-6.065,0-11-4.935-11-11S5.935,1,12,1s11,4.935,11,11-4.935,11-11,11Zm3.401-4.202c-.099,.132-.249,.201-.402,.201-.104,0-.207-.031-.297-.098-.012-.009-1.239-.901-2.702-.901s-2.69,.893-2.702,.901c-.223,.164-.534,.117-.699-.104-.164-.222-.118-.534,.103-.699,.061-.045,1.497-1.099,3.299-1.099s3.238,1.054,3.299,1.099c.221,.165,.267,.478,.103,.699Zm4.579-10.16c-.062,.219-.263,.362-.48,.362-.045,0-.092-.006-.138-.02-2.257-.644-3.737-2.445-4.27-3.189-.16-.226-.108-.537,.116-.698,.226-.159,.537-.108,.698,.116,.471,.659,1.776,2.253,3.73,2.811,.265,.075,.419,.353,.343,.618Zm-15.343,.343c-.046,.014-.093,.02-.138,.02-.218,0-.418-.144-.48-.362-.076-.266,.078-.543,.343-.618,1.954-.558,3.26-2.151,3.73-2.811,.161-.225,.473-.275,.698-.116,.225,.161,.276,.473,.116,.698-.532,.744-2.013,2.546-4.27,3.189Zm13.14,1.936l-2.376,1.584,2.376,1.584c.229,.153,.292,.464,.139,.693-.097,.145-.255,.223-.416,.223-.096,0-.192-.027-.277-.084l-3-2c-.139-.093-.223-.249-.223-.416s.084-.323,.223-.416l3-2c.227-.152,.539-.092,.693,.139,.153,.229,.091,.54-.139,.693Zm-8,2l-3,2c-.085,.057-.182,.084-.277,.084-.161,0-.319-.078-.416-.223-.153-.229-.091-.54,.139-.693l2.376-1.584-2.376-1.584c-.229-.153-.292-.464-.139-.693,.154-.23,.465-.291,.693-.139l3,2c.139,.093,.223,.249,.223,.416s-.084,.323-.223,.416Z"/></svg>
