<?xml version="1.0" encoding="UTF-8"?>
<svg xmlns="http://www.w3.org/2000/svg" id="Layer_1" data-name="Layer 1" viewBox="0 0 24 24">
  <path d="m22.119,3.595c-.56-.477-1.301-.679-2.035-.562-.405.066-.771.244-1.084.492v-.026c0-1.378-1.122-2.5-2.5-2.5-.64,0-1.218.249-1.66.645-.351-.957-1.263-1.645-2.34-1.645-1.378,0-2.5,1.122-2.5,2.5v.026c-.313-.248-.679-.426-1.084-.492-.732-.116-1.475.085-2.035.562-.56.476-.881,1.17-.881,1.905v10.601l-1.796-1.428c-1.006-.94-2.588-.888-3.529.119s-.889,2.593.111,3.53l3.354,3.234c2.304,2.221,5.334,3.444,8.534,3.444h2.352c4.397,0,7.974-3.577,7.974-7.974V5.5c0-.734-.321-1.429-.881-1.905Zm-.119,12.431c0,3.846-3.128,6.974-6.974,6.974h-2.352c-2.939,0-5.724-1.124-7.84-3.164l-3.359-3.239c-.604-.566-.635-1.519-.07-2.123.273-.292.644-.46,1.043-.474.409-.007.781.129,1.103.428l2.637,2.1c.151.12.356.144.529.059.173-.083.283-.258.283-.45V4.5c0-.44.193-.857.529-1.143.341-.29.778-.408,1.227-.336.709.115,1.245.797,1.245,1.586v5.893c0,.276.224.5.5.5s.5-.224.5-.5V2.5c0-.827.673-1.5,1.5-1.5s1.5.673,1.5,1.5v8c0,.276.224.5.5.5s.5-.224.5-.5V3.5c0-.827.673-1.5,1.5-1.5s1.5.673,1.5,1.5v7c0,.276.224.5.5.5s.5-.224.5-.5v-4.893c0-.789.535-1.471,1.244-1.586.451-.074.886.046,1.227.336.336.286.529.703.529,1.143v10.526Z"/>
</svg>
