<?xml version="1.0" encoding="UTF-8"?>
<svg xmlns="http://www.w3.org/2000/svg" id="Layer_1" data-name="Layer 1" viewBox="0 0 24 24" width="512" height="512"><path d="M23.97,23.32l-2.88-7.32h2.41c.28,0,.5-.22,.5-.5s-.22-.5-.5-.5h-2.81l-1.18-3h3.98c.28,0,.5-.22,.5-.5s-.22-.5-.5-.5h-4.38L15.83,2.61C15.19,1,13.73,0,12,0s-3.19,1-3.83,2.61l-3.3,8.39H.5c-.28,0-.5,.22-.5,.5s.22,.5,.5,.5h3.98l-1.18,3H.5c-.28,0-.5,.22-.5,.5s.22,.5,.5,.5H2.91L.03,23.32c-.1,.26,.03,.55,.28,.65,.26,.1,.55-.03,.65-.28l3.02-7.69H20.01l3.02,7.69c.08,.2,.27,.32,.47,.32,.06,0,.12-.01,.18-.03,.26-.1,.38-.39,.28-.65ZM9.11,2.98c.57-1.45,1.87-1.97,2.89-1.97s2.32,.52,2.89,1.97l3.15,8.02H5.95L9.11,2.98ZM4.38,15l1.18-3h12.88l1.18,3H4.38Z"/></svg>
