<?xml version="1.0" encoding="UTF-8"?>
<svg xmlns="http://www.w3.org/2000/svg" id="Layer_1" data-name="Layer 1" viewBox="0 0 24 24" width="512" height="512"><path d="M23.201,6.276c-.667-.812-1.652-1.276-2.702-1.276h-4.499v-.5c0-1.379-1.121-2.5-2.5-2.5h-1V.5c0-.276-.224-.5-.5-.5s-.5,.224-.5,.5v1.5h-1c-1.379,0-2.5,1.121-2.5,2.5v.5H3.501c-1.05,0-2.035,.465-2.702,1.276-.668,.811-.935,1.867-.732,2.898l.902,4.596c.367,1.871,2.018,3.229,3.925,3.229h3.106v4.5c0,1.379,1.121,2.5,2.5,2.5h3c1.379,0,2.5-1.121,2.5-2.5v-4.5h3.106c1.907,0,3.558-1.358,3.925-3.229l.902-4.597c.202-1.03-.064-2.087-.732-2.897Zm-14.201-1.776c0-.827,.673-1.5,1.5-1.5h3c.827,0,1.5,.673,1.5,1.5v.5h-6v-.5Zm0,1.5h6v5h-6V6ZM1.047,8.982c-.144-.737,.047-1.491,.523-2.071,.477-.579,1.181-.911,1.931-.911h4.499v5H1.443l-.396-2.018Zm13.953,12.518c0,.827-.673,1.5-1.5,1.5h-3c-.827,0-1.5-.673-1.5-1.5v-4.5h6v4.5Zm7.051-7.923c-.276,1.404-1.514,2.423-2.944,2.423H4.894c-1.431,0-2.668-1.019-2.944-2.423l-.31-1.577H22.36l-.31,1.577Zm.902-4.596l-.396,2.019h-6.557V6h4.499c.75,0,1.454,.332,1.931,.911,.477,.58,.667,1.334,.523,2.07Z"/></svg>
