<?xml version="1.0" encoding="UTF-8"?>
<svg xmlns="http://www.w3.org/2000/svg" id="Layer_1" data-name="Layer 1" viewBox="0 0 24 24" width="512" height="512"><path d="m20.613,6.693l-1.52-3.752c-.725-1.787-2.45-2.941-4.396-2.941h-5.339c-1.947,0-3.672,1.155-4.396,2.941l-1.521,3.752c-.424,1.046-.525,2.184-.294,3.29l2.155,10.285c.452,2.163,2.402,3.732,4.637,3.732h4.176c2.233,0,4.184-1.569,4.637-3.732l2.154-10.285c.232-1.104.13-2.242-.294-3.29Zm-.685,3.085l-2.154,10.285c-.357,1.702-1.896,2.937-3.658,2.937h-4.176c-1.764,0-3.302-1.235-3.658-2.937l-2.155-10.285c-.19-.911-.106-1.848.243-2.709l1.521-3.752c.569-1.407,1.931-2.316,3.468-2.316h5.339c1.537,0,2.898.909,3.469,2.316l1.52,3.752c.351.863.434,1.8.243,2.71Z"/></svg>
