<?xml version="1.0" encoding="UTF-8"?>
<svg xmlns="http://www.w3.org/2000/svg" id="Layer_1" data-name="Layer 1" viewBox="0 0 24 24" width="512" height="512"><path d="M16,14.5c0,.276-.224,.5-.5,.5h-7c-.276,0-.5-.224-.5-.5s.224-.5,.5-.5h7c.276,0,.5,.224,.5,.5Zm8-7v11c0,2.481-2.019,4.5-4.5,4.5H4.5c-2.481,0-4.5-2.019-4.5-4.5V5.5C0,3.019,2.019,1,4.5,1h3.028c.386,0,.772,.091,1.117,.264l3.156,1.578c.207,.104,.438,.158,.67,.158h7.028c2.481,0,4.5,2.019,4.5,4.5ZM1,5.5v1.5H22.964c-.243-1.694-1.704-3-3.464-3h-7.028c-.386,0-.772-.091-1.117-.264l-3.156-1.578c-.207-.104-.438-.158-.67-.158h-3.028c-1.93,0-3.5,1.57-3.5,3.5Zm22,13V8H1v10.5c0,1.93,1.57,3.5,3.5,3.5h15c1.93,0,3.5-1.57,3.5-3.5Z"/></svg>
