<?xml version="1.0" encoding="UTF-8"?>
<svg xmlns="http://www.w3.org/2000/svg" id="Layer_1" data-name="Layer 1" width="512" height="512" viewBox="0 0 24 24"><path d="M23.628,13.054c-.631,.727-1.651,1.469-2.382,1.882-.078,.044-.162,.064-.246,.064-.174,0-.344-.091-.436-.254-.136-.24-.051-.546,.189-.682,.776-.438,1.647-1.124,2.119-1.666,.126-.146,.161-.343,.093-.526-.032-.088-.138-.297-.412-.338-2.528-.374-4.694-1.761-5.793-3.707-.609-1.08-.726-2.229-.761-3.311-.031-.948,.103-1.905,.397-2.846,.08-.256-.061-.438-.124-.505-.137-.143-.332-.198-.518-.146-1.002,.274-2.098,.808-2.791,1.357-.857,.681-1.553,1.577-2.009,2.593-.113,.252-.41,.366-.661,.251-.252-.113-.364-.409-.251-.661,.521-1.16,1.316-2.186,2.3-2.966,.959-.762,2.255-1.294,3.148-1.539,.539-.147,1.111,.014,1.501,.417,.391,.405,.525,.966,.359,1.498-.258,.821-.38,1.69-.353,2.514,.03,.954,.129,1.96,.632,2.852,.948,1.681,2.843,2.881,5.068,3.211,.557,.082,1.007,.448,1.203,.979,.194,.523,.089,1.109-.275,1.529Zm-20.529,.373c-.143-.66-.131-1.338,.033-2.014,.427-1.752,1.909-3.104,3.688-3.363,1.211-.179,2.414,.125,3.379,.851,.219,.167,.533,.124,.7-.099,.166-.221,.122-.534-.099-.7-1.181-.889-2.65-1.259-4.125-1.042-2.179,.318-3.993,1.973-4.515,4.117-.201,.823-.215,1.651-.041,2.461,.058,.263-.065,.509-.305,.611-1.377,.591-2.097,2.087-1.71,3.557,.167,.634,.556,1.205,1.096,1.607,.09,.067,.194,.1,.299,.1,.152,0,.303-.069,.4-.201,.165-.221,.12-.534-.102-.699-.359-.269-.617-.646-.727-1.061-.294-1.119,.35-2.046,1.138-2.384,.681-.293,1.046-1.009,.889-1.741Zm16.779,7.134c-.376,1.641-1.683,2.943-3.328,3.319-.324,.073-.648,.113-.964,.119H5.915c-.241-.007-.482-.042-.72-.104-1.005-.265-1.825-1.084-2.09-2.088-.387-1.471,.333-2.967,1.71-3.558,.239-.103,.362-.349,.305-.611-.174-.81-.16-1.638,.041-2.461,.521-2.145,2.336-3.799,4.515-4.117,2.514-.362,4.939,1.006,5.905,3.335,.235,.565,.764,.687,1.094,.761,2.347,.633,3.754,3.007,3.203,5.405Zm-3.463-4.44c-.393-.088-1.322-.298-1.758-1.342-.705-1.7-2.364-2.776-4.176-2.776-.219,0-.439,.016-.661,.048-1.779,.26-3.262,1.611-3.688,3.363-.164,.676-.176,1.354-.033,2.014,.157,.732-.208,1.448-.889,1.741-.788,.338-1.432,1.265-1.138,2.384,.175,.661,.715,1.201,1.377,1.376,.163,.042,.329,.066,.494,.071,1.346,.036,7.966,.031,9.624,0,.248-.004,.504-.036,.761-.094,1.253-.287,2.289-1.319,2.575-2.568,.43-1.872-.663-3.724-2.488-4.217Z"/></svg>
