<?xml version="1.0" encoding="UTF-8"?>
<svg xmlns="http://www.w3.org/2000/svg" id="Layer_1" data-name="Layer 1" viewBox="0 0 24 24" width="512" height="512"><path d="M15,14c0-1.654-1.346-3-3-3H3c-1.654,0-3,1.346-3,3,0,1.304,.836,2.415,2,2.828v3.172H.5c-.276,0-.5,.224-.5,.5s.224,.5,.5,.5h1.5v2.5c0,.276,.224,.5,.5,.5s.5-.224,.5-.5v-2.5H12v2.5c0,.276,.224,.5,.5,.5s.5-.224,.5-.5v-2.5h1.5c.276,0,.5-.224,.5-.5s-.224-.5-.5-.5h-1.5v-3.172c1.164-.413,2-1.524,2-2.828Zm-3,6H3v-3H12v3Zm0-4H3c-1.103,0-2-.897-2-2s.897-2,2-2H12c1.103,0,2,.897,2,2s-.897,2-2,2Zm11.869-2.972c-.372,1.461-1.576,2.596-3.067,2.892-.555,.11-1.063,.119-1.578,.119-.735,0-1.224,.202-1.224,1.191v6.27c0,.276-.224,.5-.5,.5s-.5-.224-.5-.5v-6.27c0-.818,.289-2.191,2.224-2.191,.463,0,.917-.008,1.383-.1,1.098-.218,2.02-1.085,2.293-2.157,.189-.742,.109-1.483-.23-2.144-.206-.398-.204-.879,.003-1.285,.217-.424,.327-.879,.327-1.354,0-.972-.439-1.858-1.174-2.371-.503-.352-.815-.938-.857-1.608-.066-1.045-.653-1.965-1.612-2.522-1.07-.626-2.398-.662-3.549-.102-.981,.477-1.649,1.525-1.787,2.805-.062,.573-.37,1.094-.847,1.427-.735,.514-1.174,1.4-1.174,2.372,0,.146,.01,.288,.031,.428,.04,.272-.149,.527-.422,.567-.277,.032-.527-.149-.567-.423-.027-.187-.042-.378-.042-.572,0-1.298,.599-2.491,1.602-3.191,.239-.167,.395-.428,.425-.715,.174-1.624,1.05-2.969,2.343-3.597,1.453-.707,3.131-.656,4.491,.137,1.251,.729,2.019,1.94,2.106,3.324,.023,.365,.181,.675,.432,.851,1.002,.7,1.601,1.894,1.601,3.191,0,.634-.147,1.242-.436,1.809-.061,.118-.062,.261-.005,.373,.454,.88,.561,1.864,.311,2.847Z"/></svg>
