<?xml version="1.0" encoding="UTF-8"?>
<svg xmlns="http://www.w3.org/2000/svg" id="Layer_1" data-name="Layer 1" viewBox="0 0 24 24" width="512" height="512"><path d="M19.5,23h-3.38c2.896-1.497,4.88-4.521,4.88-8,0-4.583-5.789-9.608-7.932-11.31,.559-.355,.932-.979,.932-1.69,0-1.103-.897-2-2-2s-2,.897-2,2c0,.682,.343,1.284,.865,1.645-2.226,1.535-7.865,5.957-7.865,11.355,0,3.479,1.984,6.503,4.88,8h-3.38c-.276,0-.5,.224-.5,.5s.224,.5,.5,.5h15c.276,0,.5-.224,.5-.5s-.224-.5-.5-.5ZM12,1c.551,0,1,.449,1,1s-.449,1-1,1-1-.449-1-1,.449-1,1-1ZM4,15c0-5.375,6.526-9.943,7.976-10.892,.692,.532,2.596,2.053,4.375,3.989l-4.235,5.082c-.177,.212-.148,.527,.064,.704,.094,.078,.207,.116,.32,.116,.144,0,.286-.062,.385-.18l4.137-4.965c1.619,1.906,2.979,4.112,2.979,6.145,0,4.411-3.589,8-8,8s-8-3.589-8-8Z"/></svg>
