<?xml version="1.0" encoding="UTF-8"?>
<svg xmlns="http://www.w3.org/2000/svg" id="Layer_1" data-name="Layer 1" viewBox="0 0 24 24" width="512" height="512"><path d="m22.888,11.142c-.69-.287-1.446-.139-1.975.388l-1.016,1.011c-.352-1.616-1.575-2.91-3.15-3.365,1.356-.895,2.253-2.433,2.253-4.176,0-2.757-2.243-5-5-5-1.977,0-3.689,1.153-4.5,2.822-.811-1.669-2.523-2.822-4.5-2.822C2.243,0,0,2.243,0,5c0,1.902,1.068,3.56,2.636,4.405-1.554.71-2.636,2.279-2.636,4.095v6c0,2.481,2.019,4.5,4.5,4.5h11c2.152,0,3.956-1.518,4.397-3.54l1.016,1.011c.351.349.802.532,1.267.532.236,0,.476-.047.708-.144.686-.285,1.112-.922,1.112-1.664v-7.39c0-.741-.426-1.378-1.112-1.664ZM14,1c2.206,0,4,1.794,4,4s-1.794,4-4,4-4-1.794-4-4,1.794-4,4-4Zm-2.997,8h-3.007c.635-.477,1.153-1.101,1.503-1.822.35.721.868,1.345,1.503,1.822ZM1,5C1,2.794,2.794,1,5,1s4,1.794,4,4-1.794,4-4,4S1,7.206,1,5Zm18,14.5c0,1.93-1.57,3.5-3.5,3.5H4.5c-1.93,0-3.5-1.57-3.5-3.5v-6c0-1.93,1.57-3.5,3.5-3.5h11c1.93,0,3.5,1.57,3.5,3.5v6Zm4,.695c0,.334-.186.611-.496.74-.315.129-.646.065-.886-.174l-1.618-1.609v-5.304l1.618-1.609c.24-.24.571-.305.886-.174.311.129.496.406.496.74v7.39Z"/></svg>
