<?xml version="1.0" encoding="UTF-8"?>
<svg xmlns="http://www.w3.org/2000/svg" id="Layer_1" data-name="Layer 1" viewBox="0 0 24 24" width="512" height="512"><path d="m12,0C5.383,0,0,5.383,0,12s5.383,12,12,12,12-5.383,12-12S18.617,0,12,0Zm0,23c-6.065,0-11-4.935-11-11S5.935,1,12,1s11,4.935,11,11-4.935,11-11,11Zm5.147-9.968c.406.63.462,1.415.151,2.1-.834,1.836-2.91,3.118-5.048,3.118-2.895,0-5.25-2.407-5.25-5.365v-1.77c0-2.958,2.355-5.365,5.25-5.365,1.784,0,3.43.913,4.404,2.443.148.233.08.542-.153.69-.235.147-.543.08-.69-.153-.789-1.24-2.12-1.98-3.56-1.98-2.343,0-4.25,1.958-4.25,4.365v1.77c0,2.407,1.907,4.365,4.25,4.365,1.731,0,3.472-1.064,4.138-2.532.172-.379.143-.796-.082-1.145-.231-.358-.626-.573-1.057-.573h-2.75c-.276,0-.5-.224-.5-.5s.224-.5.5-.5h2.75c.772,0,1.481.386,1.897,1.032Z"/></svg>
