<?xml version="1.0" encoding="UTF-8"?>
<svg xmlns="http://www.w3.org/2000/svg" id="Layer_1" data-name="Layer 1" width="512" height="512" viewBox="0 0 24 24"><path d="M8.86,24.008c-2.272,0-4.544-.865-6.274-2.595-3.459-3.459-3.459-9.089,0-12.548C4.757,6.695,9.666,3.562,12.598,1.69l.633-.404c.563-.36,1.249-.382,1.833-.063,.586,.321,.936,.912,.936,1.581v.812L21.55,.271c.632-.412,1.438-.331,1.987,.214,.55,.545,.638,1.35,.219,2.001l-3.367,5.531h.807c.669,0,1.26,.35,1.581,.937,.32,.585,.297,1.271-.063,1.833l-.335,.523c-1.888,2.957-5.048,7.906-7.246,10.104-1.729,1.729-4.001,2.595-6.273,2.595ZM14.2,2c-.149,0-.297,.043-.43,.128l-.634,.405c-2.898,1.85-7.749,4.946-9.843,7.039C.224,12.642,.224,17.637,3.293,20.706c3.069,3.07,8.064,3.07,11.133,0,2.121-2.121,5.244-7.012,7.11-9.935l.335-.524c.16-.25,.171-.555,.028-.814-.143-.261-.406-.416-.704-.416h-1.696c-.181,0-.347-.098-.436-.255-.088-.157-.085-.351,.009-.505l3.836-6.302c.2-.312,.091-.596-.075-.761-.167-.166-.451-.273-.752-.076l-6.324,3.811c-.153,.092-.346,.095-.504,.007-.157-.089-.254-.255-.254-.436v-1.696c0-.298-.155-.561-.416-.703-.122-.067-.253-.101-.384-.101Zm-5.2,17c-2.206,0-4-1.794-4-4s1.794-4,4-4,4,1.794,4,4-1.794,4-4,4Zm0-7c-1.654,0-3,1.346-3,3s1.346,3,3,3,3-1.346,3-3-1.346-3-3-3Z"/></svg>
