<?xml version="1.0" encoding="UTF-8"?>
<svg xmlns="http://www.w3.org/2000/svg" id="Layer_1" data-name="Layer 1" viewBox="0 0 24 24" width="512" height="512"><path d="M23.5,7h-.389c-1.7,.003-3.596,.009-4.701-.704l3.443-3.443c.195-.195,.195-.512,0-.707s-.512-.195-.707,0l-3.431,3.431c-.716-1.186-.716-3.275-.716-4.994v-.083c0-.276-.224-.458-.5-.458s-.5,.266-.5,.542c0,1.297,0,2.693,.258,3.899-4.03-3.149-8.021-3.347-10.948-.432C2.746,6.606,0,12.562,0,17.354c0,2.183,.567,3.854,1.685,4.968,1.201,1.197,2.987,1.687,5.002,1.687,4.734,0,10.727-2.706,13.33-5.299,1.366-1.361,2.059-2.95,2.059-4.722,0-1.964-.88-4.116-2.514-6.208,.989,.202,2.096,.222,3.156,.222,.133,0,.265,0,.396,0h.386c.276,0,.5-.224,.5-.5s-.224-.5-.5-.5Zm-4.19,11.001c-3.682,3.669-13.623,6.897-16.919,3.613-.923-.919-1.391-2.353-1.391-4.26C1,12.877,3.644,7.124,6.016,4.759c1.284-1.279,2.667-1.758,4.016-1.758,3.183,0,6.183,2.66,7.278,3.75,2.428,2.419,3.765,4.989,3.765,7.235,0,1.497-.594,2.847-1.765,4.014Zm-7.397-8.472c-.117,.117-.472,.473-.884,2.204-.084,.351,.018,.711,.272,.966,.196,.195,.455,.301,.723,.301,.081,0,.162-.009,.242-.029,1.733-.412,2.088-.768,2.205-.884,.342-.341,.53-.795,.53-1.279s-.188-.937-.53-1.278c-.683-.684-1.875-.684-2.557,0Zm1.85,1.85c-.028,.028-.312,.281-1.762,.586,.337-1.417,.591-1.701,.619-1.729,.153-.153,.355-.237,.572-.237s.418,.084,.571,.237,.237,.355,.237,.571-.084,.419-.237,.572Zm2.15,2.15c-.117,.117-.472,.473-.884,2.204-.084,.351,.018,.711,.272,.966,.196,.195,.455,.301,.723,.301,.081,0,.162-.009,.242-.029,1.733-.412,2.088-.768,2.205-.884,.342-.341,.53-.795,.53-1.279s-.188-.937-.53-1.278c-.683-.684-1.875-.683-2.557,0Zm1.85,.707c.153,.153,.237,.355,.237,.571s-.084,.419-.237,.572c-.028,.028-.312,.281-1.762,.586,.337-1.417,.591-1.701,.619-1.729,.153-.153,.355-.237,.572-.237s.418,.084,.571,.237Zm-11.85-2.707c-.117,.117-.472,.473-.884,2.204-.084,.351,.018,.711,.272,.966,.196,.195,.455,.301,.723,.301,.081,0,.162-.009,.242-.029,1.733-.412,2.088-.768,2.205-.884,.342-.341,.53-.795,.53-1.279s-.188-.937-.53-1.278c-.683-.684-1.875-.683-2.557,0Zm1.85,1.85c-.028,.028-.312,.281-1.762,.586,.337-1.417,.591-1.701,.619-1.729,.153-.153,.355-.237,.572-.237s.418,.084,.571,.237,.237,.355,.237,.571-.084,.419-.237,.572Zm-3.85,4.15c-.117,.117-.472,.473-.884,2.204-.084,.351,.018,.711,.272,.966,.196,.195,.455,.301,.723,.301,.081,0,.162-.009,.242-.029,1.733-.412,2.088-.768,2.205-.884,.342-.341,.53-.795,.53-1.279s-.188-.937-.53-1.278c-.683-.684-1.875-.683-2.557,0Zm1.85,1.85c-.028,.028-.312,.281-1.762,.586,.337-1.417,.591-1.701,.619-1.729,.153-.153,.355-.237,.572-.237s.418,.084,.571,.237,.237,.355,.237,.571-.084,.419-.237,.572Zm4.15-3.85c-.117,.117-.472,.473-.884,2.204-.084,.351,.018,.711,.272,.966,.196,.195,.455,.301,.723,.301,.081,0,.162-.009,.242-.029,1.733-.412,2.088-.768,2.205-.884,.342-.341,.53-.795,.53-1.279s-.188-.937-.53-1.278c-.683-.684-1.875-.683-2.557,0Zm1.85,1.85c-.028,.028-.312,.281-1.762,.586,.337-1.417,.591-1.701,.619-1.729,.153-.153,.355-.237,.572-.237s.418,.084,.571,.237,.237,.355,.237,.571-.084,.419-.237,.572Zm-3.74-8.38c.081,0,.162-.009,.242-.029,1.733-.412,2.088-.768,2.205-.884,.342-.341,.53-.795,.53-1.279s-.188-.937-.53-1.278c-.683-.684-1.875-.684-2.557,0-.117,.117-.472,.473-.884,2.204-.084,.351,.018,.711,.272,.966,.196,.195,.455,.301,.723,.301Zm.597-2.763c.153-.153,.355-.237,.572-.237s.418,.084,.571,.237,.237,.355,.237,.571-.084,.419-.237,.572c-.028,.028-.312,.281-1.762,.586,.337-1.417,.591-1.701,.619-1.729Z"/></svg>
