<?xml version="1.0" encoding="UTF-8"?>
<svg xmlns="http://www.w3.org/2000/svg" id="Layer_1" data-name="Layer 1" viewBox="0 0 24 24" width="512" height="512"><path d="m19.5,0H4.5C2.019,0,0,2.019,0,4.5v15c0,2.481,2.019,4.5,4.5,4.5h15c2.481,0,4.5-2.019,4.5-4.5V4.5c0-2.481-2.019-4.5-4.5-4.5Zm3.5,19.5c0,1.93-1.57,3.5-3.5,3.5H4.5c-1.93,0-3.5-1.57-3.5-3.5V4.5c0-1.93,1.57-3.5,3.5-3.5h15c1.93,0,3.5,1.57,3.5,3.5v15ZM6,10.636v2.728c0,3.108,2.5,5.636,5.572,5.636h.682c1.885,0,3.637-.937,4.687-2.505.153-.23.464-.291.694-.137.229.154.291.464.137.694-1.236,1.846-3.299,2.949-5.518,2.949h-.682c-3.624,0-6.572-2.977-6.572-6.636v-2.728c0-3.659,2.948-6.636,6.572-6.636h.682c2.219,0,4.282,1.103,5.518,2.949.154.229.092.54-.137.694-.23.153-.541.092-.694-.137-1.05-1.569-2.802-2.505-4.687-2.505h-.682c-3.073,0-5.572,2.528-5.572,5.636Z"/></svg>
