<?xml version="1.0" encoding="UTF-8"?>
<svg xmlns="http://www.w3.org/2000/svg" id="Layer_1" data-name="Layer 1" viewBox="0 0 24 24" width="512" height="512"><path d="M15.241,8.755c.726,.725,1.255,1.628,1.531,2.61,.074,.266-.08,.542-.347,.617-.266,.076-.541-.08-.616-.346-.229-.817-.671-1.569-1.275-2.173-.942-.943-2.196-1.462-3.529-1.462s-2.586,.519-3.529,1.462L2.462,14.48c-.943,.942-1.462,2.196-1.462,3.529s.519,2.587,1.462,3.529c.942,.943,2.196,1.462,3.529,1.462s2.586-.519,3.529-1.462l2.507-2.507c.195-.195,.512-.195,.707,0s.195,.512,0,.707l-2.507,2.507c-1.131,1.132-2.636,1.755-4.236,1.755s-3.105-.623-4.236-1.755c-1.132-1.131-1.755-2.636-1.755-4.236s.623-3.104,1.755-4.236l5.014-5.018c1.131-1.132,2.636-1.755,4.236-1.755s3.105,.623,4.236,1.755ZM18.006,0c-1.601,0-3.104,.623-4.236,1.755l-2.507,2.507c-.195,.195-.195,.512,0,.707s.512,.195,.707,0l2.507-2.507c.942-.943,2.196-1.462,3.529-1.462s2.586,.519,3.528,1.462c.942,.942,1.462,2.196,1.462,3.529s-.52,2.586-1.462,3.529l-5.014,5.018c-.942,.943-2.196,1.462-3.529,1.462s-2.587-.519-3.529-1.462c-.604-.604-1.045-1.355-1.275-2.173-.075-.267-.352-.423-.617-.346-.266,.075-.421,.351-.346,.617,.277,.983,.806,1.885,1.531,2.61,1.131,1.132,2.636,1.755,4.236,1.755s3.104-.623,4.236-1.755l5.014-5.018c1.132-1.131,1.755-2.636,1.755-4.236s-.623-3.105-1.755-4.236c-1.131-1.132-2.636-1.755-4.235-1.755Z"/></svg>
