<?xml version="1.0" encoding="UTF-8"?>
<svg xmlns="http://www.w3.org/2000/svg" id="Layer_1" data-name="Layer 1" viewBox="0 0 24 24" width="512" height="512"><path d="M22.119,3.595c-.56-.476-1.305-.679-2.035-.562-.403,.065-.772,.236-1.084,.482v-.016c0-1.378-1.121-2.5-2.5-2.5-.635,0-1.215,.238-1.656,.63-.354-.951-1.271-1.63-2.344-1.63-1.379,0-2.5,1.122-2.5,2.5v.016c-.312-.246-.681-.417-1.084-.483-.73-.116-1.476,.085-2.035,.562s-.881,1.17-.881,1.905V15.35l-1.796-1.677c-1.007-.94-2.589-.888-3.529,.119-.94,1.006-.889,2.592,.111,3.53l4.457,4.297c1.592,1.535,3.688,2.381,5.899,2.381h7.357c2.481,0,4.5-2.019,4.5-4.5V5.5c0-.734-.321-1.429-.881-1.905Zm-.119,15.905c0,1.93-1.57,3.5-3.5,3.5h-7.357c-1.952,0-3.801-.746-5.206-2.101L1.475,16.598c-.604-.566-.635-1.519-.069-2.123,.563-.602,1.512-.635,2.116-.071l2.638,2.462c.145,.136,.357,.171,.54,.093,.183-.079,.301-.259,.301-.458V4.5c0-.44,.192-.857,.528-1.143,.341-.291,.777-.41,1.228-.336,.709,.115,1.244,.797,1.244,1.586v5.893c0,.276,.224,.5,.5,.5s.5-.224,.5-.5V2.5c0-.827,.673-1.5,1.5-1.5s1.5,.673,1.5,1.5V10.5c0,.276,.224,.5,.5,.5s.5-.224,.5-.5V3.5c0-.827,.673-1.5,1.5-1.5s1.5,.673,1.5,1.5v7c0,.276,.224,.5,.5,.5s.5-.224,.5-.5V5.607c0-.789,.535-1.471,1.244-1.586,.451-.075,.887,.045,1.228,.336,.336,.286,.528,.703,.528,1.143v14Zm-8-4.5c0,.552-.448,1-1,1s-1-.448-1-1,.448-1,1-1,1,.448,1,1Zm5,0c0,.552-.448,1-1,1s-1-.448-1-1,.448-1,1-1,1,.448,1,1Zm-2,4c0,.552-.448,1-1,1s-1-.448-1-1,.448-1,1-1,1,.448,1,1Zm-5,0c0,.552-.448,1-1,1s-1-.448-1-1,.448-1,1-1,1,.448,1,1Z"/></svg>
