<?xml version="1.0" encoding="UTF-8"?>
<svg xmlns="http://www.w3.org/2000/svg" id="Layer_1" data-name="Layer 1" viewBox="0 0 24 24">
  <path d="m9.727,18.727c.225.127.47.19.712.19.249,0,.494-.066.71-.196l4.655-2.493c.436-.261.696-.721.696-1.229s-.26-.967-.717-1.241l-4.612-2.468c-.45-.269-.99-.276-1.444-.018-.455.258-.727.724-.727,1.247v4.961c0,.523.271.989.727,1.247Zm.273-6.208c0-.228.153-.339.219-.376.039-.021.113-.056.21-.056.071,0,.156.019.248.073l4.612,2.468c.19.114.21.297.21.371s-.021.257-.189.359l-4.655,2.493c-.195.118-.37.043-.437.005-.066-.037-.219-.149-.219-.376v-4.961ZM19.5,1H4.5C2.019,1,0,3.019,0,5.5v13c0,2.481,2.019,4.5,4.5,4.5h15c2.481,0,4.5-2.019,4.5-4.5V5.5c0-2.481-2.019-4.5-4.5-4.5Zm0,1c.283,0,.557.034.821.097l-4.903,4.903h-4.836l5-5h3.918Zm-5.332,0l-5,5h-4.943l5.106-5h4.836ZM1,5.5c0-1.93,1.57-3.5,3.5-3.5h3.402L2.796,7h-1.796v-1.5Zm22,13c0,1.93-1.57,3.5-3.5,3.5H4.5c-1.93,0-3.5-1.57-3.5-3.5v-10.5h22v10.5Zm0-11.5h-6.168l4.488-4.488c1.007.615,1.68,1.724,1.68,2.988v1.5Z"/>
</svg>
