<?xml version="1.0" encoding="UTF-8"?>
<svg xmlns="http://www.w3.org/2000/svg" id="Layer_1" data-name="Layer 1" width="512" height="512" viewBox="0 0 24 24"><path d="M15.97,19.555c-.28,2.534-2.417,4.445-4.97,4.445H4.5c-2.481,0-4.5-2.019-4.5-4.5V4.5c0-.276,.224-.5,.5-.5s.5,.224,.5,.5v4.5H5.5c.276,0,.5,.224,.5,.5s-.224,.5-.5,.5H1v9.5c0,1.93,1.57,3.5,3.5,3.5h6.5c2.042,0,3.751-1.528,3.976-3.555,.03-.275,.277-.474,.552-.442,.274,.03,.473,.277,.442,.552ZM24,7.157v10.343c0,1.379-1.121,2.5-2.5,2.5h-.793l3.146,3.146c.195,.195,.195,.512,0,.707-.098,.098-.226,.146-.354,.146s-.256-.049-.354-.146L.146,.854C-.049,.658-.049,.342,.146,.146S.658-.049,.854,.146l.838,.838c.796-.637,1.78-.984,2.809-.984h7c2.481,0,4.5,2.019,4.5,4.5V15.293l3.707,3.707h1.793c.827,0,1.5-.673,1.5-1.5V8h-1.5c-.827,0-1.5-.673-1.5-1.5V2.707l-1.854-1.854c-.195-.195-.195-.512,0-.707s.512-.195,.707,0l1.997,1.997,.005,.005,1.826,1.826c.851,.85,1.318,1.98,1.318,3.183Zm-9,2.843h-4.293l4.293,4.293v-4.293ZM2.404,1.697l7.303,7.303h5.293V4.5c0-1.93-1.57-3.5-3.5-3.5H4.5c-.762,0-1.493,.246-2.096,.697ZM21.5,7h1.496c-.038-.876-.398-1.694-1.022-2.318l-.975-.975v2.793c0,.275,.225,.5,.5,.5Z"/></svg>
