<?xml version="1.0" encoding="UTF-8"?>
<svg xmlns="http://www.w3.org/2000/svg" id="Layer_1" data-name="Layer 1" viewBox="0 0 24 24">
  <path d="m16,10c0,.552-.448,1-1,1s-1-.448-1-1,.448-1,1-1,1,.448,1,1Zm-7,1c.552,0,1-.448,1-1s-.448-1-1-1-1,.448-1,1,.448,1,1,1Zm3,9c-4.411,0-8-3.589-8-8S7.589,4,12,4s8,3.589,8,8-3.589,8-8,8Zm7-8c0-3.86-3.141-7-7-7s-7,3.14-7,7,3.141,7,7,7,7-3.14,7-7Zm-3.853,1.646c-.014.014-1.388,1.354-3.147,1.354s-3.134-1.341-3.147-1.354c-.195-.193-.513-.193-.706.002-.195.196-.195.511,0,.706.067.067,1.672,1.646,3.854,1.646s3.786-1.579,3.854-1.646c.195-.195.195-.51,0-.706-.193-.195-.511-.195-.706-.002Zm-7.647,9.354h-3c-1.93,0-3.5-1.57-3.5-3.5v-3c0-.276-.224-.5-.5-.5s-.5.224-.5.5v3c0,2.481,2.019,4.5,4.5,4.5h3c.276,0,.5-.224.5-.5s-.224-.5-.5-.5Zm16-7c-.276,0-.5.224-.5.5v3c0,1.93-1.57,3.5-3.5,3.5h-3c-.276,0-.5.224-.5.5s.224.5.5.5h3c2.481,0,4.5-2.019,4.5-4.5v-3c0-.276-.224-.5-.5-.5ZM19.5,0h-3c-.276,0-.5.224-.5.5s.224.5.5.5h3c1.93,0,3.5,1.57,3.5,3.5v3c0,.276.224.5.5.5s.5-.224.5-.5v-3c0-2.481-2.019-4.5-4.5-4.5ZM.5,8c.276,0,.5-.224.5-.5v-3c0-1.93,1.57-3.5,3.5-3.5h3c.276,0,.5-.224.5-.5s-.224-.5-.5-.5h-3C2.019,0,0,2.019,0,4.5v3c0,.276.224.5.5.5Z"/>
</svg>
