<?xml version="1.0" encoding="UTF-8"?>
<svg xmlns="http://www.w3.org/2000/svg" id="Layer_1" data-name="Layer 1" viewBox="0 0 24 24" width="512" height="512"><path d="M22,8.5c0,.276-.224,.5-.5,.5h-4.112c-.511,0-.965-.267-1.212-.714-.248-.447-.234-.973,.036-1.406L20.991,1.522c.058-.105-.008-.264-.041-.323-.033-.061-.133-.199-.338-.199h-4.112c-.276,0-.5-.224-.5-.5s.224-.5,.5-.5h4.112c.511,0,.965,.267,1.212,.714,.248,.447,.234,.973-.036,1.406l-4.779,5.357c-.058,.105,.008,.264,.041,.323,.033,.061,.133,.199,.338,.199h4.112c.276,0,.5,.224,.5,.5Zm0,8.5v6.5c0,.276-.224,.5-.5,.5s-.5-.224-.5-.5v-3.5h-4v3.5c0,.276-.224,.5-.5,.5s-.5-.224-.5-.5v-6.5c0-1.654,1.346-3,3-3s3,1.346,3,3Zm-1,0c0-1.103-.897-2-2-2s-2,.897-2,2v2h4v-2Zm-9.854,1.561l-4.146,4.146V.5c0-.276-.224-.5-.5-.5s-.5,.224-.5,.5V22.707L1.854,18.561c-.195-.195-.512-.195-.707,0s-.195,.512,0,.707l4.293,4.293c.283,.283,.66,.439,1.061,.439s.777-.156,1.061-.439l4.293-4.293c.195-.195,.195-.512,0-.707s-.512-.195-.707,0Z"/></svg>
