<?xml version="1.0" encoding="UTF-8"?>
<svg xmlns="http://www.w3.org/2000/svg" id="Layer_1" data-name="Layer 1" viewBox="0 0 24 24" width="512" height="512"><path d="m12.225,2.002c-3.233-.042-6.315,1.161-8.631,3.435-.54.531-3.594,3.563-3.594,8.563v4c0,2.206,1.794,4,4,4h16c2.206,0,4-1.794,4-4v-3.618c0-6.707-5.282-12.261-11.775-12.38Zm8.858,5.991s0,0,0,0c-.002,0-.002,0,0,0Zm-16.789-1.842c2.074-2.036,4.803-3.15,7.705-3.15,3.501,0,6.369,1.607,8.349,4H3.514c.244-.294.504-.578.78-.85Zm.706,14.85h-1c-1.654,0-3-1.346-3-3v-4c0-2.166.62-4.232,1.776-6h3.55c-.847,1.591-1.326,3.92-1.326,6.522v6.478Zm9,0h-4v-5c0-1.103.897-2,2-2s2,.897,2,2v5Zm4,0h-3v-5c0-1.654-1.346-3-3-3s-3,1.346-3,3v5h-3v-6.478c0-2.728.541-5.103,1.484-6.518.001-.002.002-.003.003-.005h9.025s.002.003.003.005c.943,1.415,1.484,3.79,1.484,6.518v6.478Zm5-3c0,1.654-1.346,3-3,3h-1v-6.478c0-2.602-.479-4.932-1.326-6.522h3.414c1.205,1.826,1.912,4.026,1.912,6.382v3.618Z"/></svg>
