<?xml version="1.0" encoding="UTF-8"?>
<svg xmlns="http://www.w3.org/2000/svg" id="Layer_1" data-name="Layer 1" viewBox="0 0 24 24" width="512" height="512"><path d="m20,0h-8c-2.206,0-4,1.794-4,4v12c0,1.654,1.346,3,3,3h9c2.206,0,4-1.794,4-4V4c0-2.206-1.794-4-4-4Zm-8,1h8c1.654,0,3,1.346,3,3v9h-12c-.768,0-1.469.29-2,.766V4c0-1.654,1.346-3,3-3Zm8,17h-9c-1.103,0-2-.897-2-2s.897-2,2-2h12v1c0,1.654-1.346,3-3,3Zm-4.385,3.715c-.659,1.388-2.078,2.285-3.615,2.285H3c-1.654,0-3-1.346-3-3v-12c0-2.206,1.794-4,4-4h1.5c.276,0,.5.224.5.5s-.224.5-.5.5h-1.5c-1.654,0-3,1.346-3,3v9.766c.531-.476,1.232-.766,2-.766h3.5c.276,0,.5.224.5.5s-.224.5-.5.5h-3.5c-1.103,0-2,.897-2,2s.897,2,2,2h9c1.153,0,2.217-.673,2.711-1.715.118-.248.416-.354.666-.237.25.119.356.417.237.667Z"/></svg>
