<?xml version="1.0" encoding="UTF-8"?>
<svg xmlns="http://www.w3.org/2000/svg" id="Layer_1" data-name="Layer 1" viewBox="0 0 24 24" width="512" height="512"><path d="m13,7c0,.552-.448,1-1,1s-1-.448-1-1,.448-1,1-1,1,.448,1,1Zm11,12.5v-7.145C24,5.869,19.097.454,12.838.028c-3.469-.236-6.876,1.036-9.329,3.492C1.057,5.977-.211,9.378.029,12.854c.441,6.354,6.074,11.146,13.104,11.146h6.367c2.481,0,4.5-2.019,4.5-4.5ZM12.77,1.026c5.737.39,10.23,5.366,10.23,11.329v7.145c0,1.93-1.57,3.5-3.5,3.5h-6.367c-6.604,0-11.695-4.296-12.105-10.214-.221-3.188.941-6.308,3.189-8.559,2.07-2.073,4.878-3.227,7.8-3.227.25,0,.502.008.753.025Zm.23,17.474v-7c0-.827-.673-1.5-1.5-1.5h-1c-.276,0-.5.224-.5.5s.224.5.5.5h1c.275,0,.5.225.5.5v7c0,.276.224.5.5.5s.5-.224.5-.5Z"/></svg>
