<?xml version="1.0" encoding="UTF-8"?>
<svg xmlns="http://www.w3.org/2000/svg" id="Layer_1" data-name="Layer 1" viewBox="0 0 24 24" width="512" height="512"><path d="M8,12c-2.206,0-4,1.794-4,4s1.794,4,4,4,4-1.794,4-4-1.794-4-4-4Zm0,7c-1.654,0-3-1.346-3-3s1.346-3,3-3,3,1.346,3,3-1.346,3-3,3Zm13.5-11H8.245C3.941,8,.329,11.247,.022,15.393c-.182,2.46,.75,4.826,2.557,6.492,1.492,1.374,3.418,2.114,5.428,2.114,.425,0,.853-.032,1.281-.1,2.506-.393,4.768-2.102,5.904-4.462,.53-1.103,.802-2.247,.808-3.401,.003-.756,.5-1.38,1.208-1.517l4.277-.832c1.575-.307,2.515-1.26,2.515-2.55v-.637c0-1.378-1.122-2.5-2.5-2.5Zm1.5,3.137c0,.797-.606,1.354-1.706,1.568l-4.276,.832c-1.182,.229-2.012,1.256-2.018,2.495-.005,1.004-.243,2.004-.709,2.972-.995,2.068-2.971,3.565-5.157,3.907-2.157,.335-4.296-.306-5.877-1.762-1.581-1.458-2.397-3.529-2.238-5.683,.268-3.626,3.442-6.467,7.226-6.467h13.255c.827,0,1.5,.673,1.5,1.5v.637ZM9,4.5V.5c0-.276,.224-.5,.5-.5s.5,.224,.5,.5V4.5c0,.276-.224,.5-.5,.5s-.5-.224-.5-.5Zm3.053,.776L14.053,1.276c.124-.248,.423-.347,.671-.224,.247,.124,.347,.424,.224,.671l-2,4c-.088,.175-.264,.276-.448,.276-.075,0-.151-.017-.223-.053-.247-.124-.347-.424-.224-.671ZM4.053,1.724c-.124-.247-.023-.547,.224-.671,.247-.124,.547-.024,.671,.224l2,4c.124,.247,.023,.547-.224,.671-.072,.036-.148,.053-.223,.053-.184,0-.36-.101-.448-.276L4.053,1.724Z"/></svg>
