<?xml version="1.0" encoding="UTF-8"?>
<svg xmlns="http://www.w3.org/2000/svg" id="Layer_1" data-name="Layer 1" viewBox="0 0 24 24" width="512" height="512"><path d="M24,6.5v2c0,.276-.224,.5-.5,.5s-.5-.224-.5-.5v-2c0-1.93-1.57-3.5-3.5-3.5H4.5c-1.93,0-3.5,1.57-3.5,3.5v11c0,1.93,1.57,3.5,3.5,3.5h4c.276,0,.5,.224,.5,.5s-.224,.5-.5,.5H4.5c-2.481,0-4.5-2.019-4.5-4.5V6.5C0,4.019,2.019,2,4.5,2h15c2.481,0,4.5,2.019,4.5,4.5Zm-10.5,1.5h7c.276,0,.5-.224,.5-.5s-.224-.5-.5-.5h-7c-.276,0-.5,.224-.5,.5s.224,.5,.5,.5Zm0,4h3c.276,0,.5-.224,.5-.5s-.224-.5-.5-.5h-3c-.276,0-.5,.224-.5,.5s.224,.5,.5,.5Zm9.768-.268c.473,.472,.732,1.1,.732,1.768s-.26,1.296-.732,1.768l-7.707,7.707c-.66,.661-1.539,1.025-2.475,1.025h-1.586c-.276,0-.5-.224-.5-.5v-1.586c0-.921,.374-1.823,1.025-2.475l7.707-7.707c.975-.975,2.561-.975,3.535,0Zm-.268,1.768c0-.401-.156-.777-.439-1.061-.584-.585-1.537-.585-2.121,0l-7.707,7.707c-.466,.465-.732,1.11-.732,1.768v1.086h1.086c.668,0,1.296-.26,1.768-.732l7.707-7.707c.283-.283,.439-.66,.439-1.061Zm-15.163-1.758l-2.49-.467c-.78-.146-1.347-.83-1.347-1.624,0-.911,.741-1.652,1.651-1.652h1.774c.623,0,1.204,.335,1.517,.875,.139,.239,.446,.32,.683,.183,.239-.138,.321-.444,.183-.683-.49-.848-1.402-1.375-2.382-1.375h-.426v-1.5c0-.276-.224-.5-.5-.5s-.5,.224-.5,.5v1.5h-.349c-1.462,0-2.651,1.189-2.651,2.652,0,1.275,.909,2.371,2.163,2.606l2.49,.467c.78,.146,1.347,.83,1.347,1.624,0,.911-.741,1.652-1.651,1.652h-1.774c-.623,0-1.204-.335-1.517-.875-.14-.241-.448-.321-.683-.183-.239,.138-.321,.444-.183,.683,.49,.848,1.402,1.375,2.382,1.375h.426v1.5c0,.276,.224,.5,.5,.5s.5-.224,.5-.5v-1.5h.349c1.462,0,2.651-1.189,2.651-2.652,0-1.275-.909-2.371-2.163-2.606Z"/></svg>
