<?xml version="1.0" encoding="UTF-8"?>
<svg xmlns="http://www.w3.org/2000/svg" id="Layer_1" data-name="Layer 1" viewBox="0 0 24 24" width="512" height="512"><path d="m12.379,20.21c.195.195.195.512,0,.707-.098.098-.226.146-.354.146s-.256-.049-.354-.146L.934,10.179c-.195-.195-.195-.512,0-.707s.512-.195.707,0l10.739,10.738Zm6.509-2.029l.003.003c.012-.016.005-.01-.003-.003ZM1.02,13.056c-.195-.195-.512-.195-.707,0s-.195.512,0,.707l5.728,5.728c.098.098.226.146.354.146s.256-.049.354-.146c.195-.195.195-.512,0-.707L1.02,13.056Zm2.594-5.91c-.195-.195-.512-.195-.707,0s-.195.512,0,.707l12.428,12.428c.098.098.226.146.354.146s.256-.049.354-.146c.195-.195.195-.512,0-.707L3.613,7.146Zm20.24,16c.195.195.195.512,0,.707-.098.098-.226.146-.354.146s-.256-.049-.354-.146L.146.854C-.049.658-.049.342.146.146S.658-.049.854.146l4.634,4.634c1.946-1.181,4.11-1.78,6.434-1.78,6.247,0,9.817,4.283,11.39,6.836.92,1.494.92,3.35,0,4.844-.71,1.153-1.932,2.818-3.717,4.203,0,0-.001,0-.002.001l4.262,4.262Zm-8.693-8.693c1.219-1.568,1.108-3.842-.331-5.282s-3.714-1.55-5.282-.331l5.613,5.613Zm3.731,3.731c1.667-1.292,2.901-2.945,3.568-4.028.72-1.17.72-2.625,0-3.795-1.463-2.375-4.777-6.361-10.538-6.361-2.054,0-3.971.508-5.704,1.51l2.619,2.619c1.962-1.606,4.87-1.494,6.7.336s1.942,4.738.336,6.7l3.017,3.017c-.008.008-.015.017.003.003Z"/></svg>
