<?xml version="1.0" encoding="UTF-8"?>
<svg xmlns="http://www.w3.org/2000/svg" id="Layer_1" data-name="Layer 1" viewBox="0 0 24 24" width="512" height="512"><path d="M16,12h-2v-2c0-1.103-.897-2-2-2s-2,.897-2,2v2h-2c-1.103,0-2,.897-2,2s.897,2,2,2h2v2c0,1.103,.897,2,2,2s2-.897,2-2v-2h2c1.103,0,2-.897,2-2s-.897-2-2-2Zm0,3h-2.5c-.276,0-.5,.224-.5,.5v2.5c0,.552-.448,1-1,1s-1-.448-1-1v-2.5c0-.276-.224-.5-.5-.5h-2.5c-.552,0-1-.448-1-1s.448-1,1-1h2.5c.276,0,.5-.224,.5-.5v-2.5c0-.552,.448-1,1-1s1,.448,1,1v2.5c0,.276,.224,.5,.5,.5h2.5c.552,0,1,.448,1,1s-.448,1-1,1Zm6.017-9.169l-1.017-.686V1.5c0-.276-.224-.5-.5-.5s-.5,.224-.5,.5v2.97L14.518,.771c-1.529-1.033-3.507-1.033-5.034,0L1.983,5.831c-1.242,.838-1.983,2.232-1.983,3.729v9.939c0,2.481,2.019,4.5,4.5,4.5h15c2.481,0,4.5-2.019,4.5-4.5V9.561c0-1.497-.741-2.892-1.983-3.729Zm.983,13.669c0,1.93-1.57,3.5-3.5,3.5H4.5c-1.93,0-3.5-1.57-3.5-3.5V9.561c0-1.165,.576-2.249,1.542-2.901L10.043,1.599c.594-.401,1.275-.603,1.957-.603s1.363,.201,1.958,.603l7.5,5.061c.966,.652,1.542,1.736,1.542,2.901v9.939Z"/></svg>
