<?xml version="1.0" encoding="UTF-8"?>
<svg xmlns="http://www.w3.org/2000/svg" id="Layer_1" data-name="Layer 1" viewBox="0 0 24 24" width="512" height="512"><path d="m23.465,9.746l-3.763-6.5c-.802-1.385-2.294-2.246-3.895-2.246h-7.545c-1.6,0-3.092.86-3.895,2.246L.605,9.746c-.806,1.391-.806,3.118,0,4.509l3.763,6.5c.803,1.385,2.295,2.246,3.895,2.246h7.545c1.601,0,3.093-.86,3.895-2.246l3.763-6.5c.806-1.391.806-3.118,0-4.509Zm-.865,4.008l-3.763,6.5c-.623,1.077-1.784,1.747-3.029,1.747h-7.545c-1.244,0-2.405-.669-3.029-1.747l-3.763-6.5c-.626-1.082-.626-2.425,0-3.507l3.763-6.5c.624-1.077,1.785-1.747,3.029-1.747h7.545c1.245,0,2.406.669,3.029,1.747l3.763,6.5c.626,1.082.626,2.425,0,3.507Zm-6.746-4.9l-3.146,3.146,3.146,3.146c.195.195.195.512,0,.707-.098.098-.226.146-.354.146s-.256-.049-.354-.146l-3.146-3.146-3.146,3.146c-.098.098-.226.146-.354.146s-.256-.049-.354-.146c-.195-.195-.195-.512,0-.707l3.146-3.146-3.146-3.146c-.195-.195-.195-.512,0-.707s.512-.195.707,0l3.146,3.146,3.146-3.146c.195-.195.512-.195.707,0s.195.512,0,.707Z"/></svg>
