<?xml version="1.0" encoding="UTF-8"?>
<svg xmlns="http://www.w3.org/2000/svg" id="Layer_1" data-name="Layer 1" viewBox="0 0 24 24">
  <path d="m12.174,15.546c.195.195.195.512,0,.707l-5.817,5.827c-.593.594-1.381.92-2.22.92-.67,0-1.307-.209-1.839-.594l-1.447,1.448c-.098.098-.226.146-.354.146s-.256-.049-.354-.146c-.195-.195-.195-.512,0-.707l1.448-1.448c-.887-1.227-.779-2.954.325-4.059l5.855-5.865c.195-.196.512-.195.707,0,.195.195.195.512,0,.707l-5.855,5.865c-.834.835-.834,2.193,0,3.027.809.809,2.218.81,3.026,0l5.817-5.826c.195-.196.512-.195.707,0Zm11.68,7.601c.195.195.195.512,0,.707-.098.098-.226.146-.354.146s-.256-.049-.354-.146L.146.854C-.049.658-.049.342.146.146S.658-.049.854.146l6.428,6.428,3.26-3.26c1.638-1.639,4.238-1.748,6.004-.324l1.991-1.994c1.186-1.187,3.077-1.329,4.308-.323.689.564,1.11,1.395,1.154,2.279.044.885-.289,1.751-.915,2.377l-8.517,8.529,9.287,9.287Zm-9.994-9.994l5.731-5.739-3.026-3.026-5.731,5.739,3.027,3.027Zm3.411-9.473l3.026,3.026,2.079-2.082c.427-.427.653-1.017.624-1.621-.031-.611-.312-1.164-.789-1.555-.838-.684-2.141-.573-2.968.256l-1.973,1.976Zm-9.282,3.602l2.138,2.138,5.707-5.715c-1.372-1.036-3.336-.93-4.584.317l-3.26,3.26Z"/>
</svg>
