<?xml version="1.0" encoding="UTF-8"?>
<svg xmlns="http://www.w3.org/2000/svg" id="Layer_1" data-name="Layer 1" viewBox="0 0 24 24" width="512" height="512"><path d="M19.5,5c1.38,0,2.5-1.12,2.5-2.5s-1.12-2.5-2.5-2.5-2.5,1.12-2.5,2.5,1.12,2.5,2.5,2.5Zm0-4c.83,0,1.5,.67,1.5,1.5s-.67,1.5-1.5,1.5-1.5-.67-1.5-1.5,.67-1.5,1.5-1.5Zm2.27,14.71c-.28-.45-.75-.71-1.28-.71h-4.73l2.98-6.68c.34-.73,.28-1.57-.15-2.24s-1.17-1.08-1.97-1.08h-4.43c-.96,0-1.82,.54-2.25,1.4l-1.9,3.88c-.12,.25-.02,.55,.23,.67,.25,.12,.55,.02,.67-.23l1.9-3.88c.25-.52,.77-.84,1.35-.84h2.16l-3.16,6.81c-.33,.7-.27,1.5,.14,2.15,.42,.65,1.12,1.04,1.89,1.04h3.76c0,3.86-3.14,7-7,7s-7-3.14-7-7c0-2.6,1.43-4.98,3.73-6.19,.24-.13,.34-.43,.21-.68-.13-.25-.43-.34-.68-.21-2.63,1.39-4.27,4.1-4.27,7.08,0,4.41,3.59,8,8,8s8-3.59,8-8h2.5c.25,0,.38,.17,.42,.24s.13,.26,.03,.48l-2.89,5.55c-.13,.24-.03,.55,.21,.67,.07,.04,.15,.06,.23,.06,.18,0,.35-.1,.44-.27l2.9-5.56c.23-.47,.21-1.01-.07-1.46Zm-9.59-1.29c-.23-.37-.26-.8-.08-1.2l3.36-7.23h1.16c.47,0,.88,.23,1.13,.62,.25,.39,.28,.86,.08,1.29l-3.16,7.09h-1.44c-.43,0-.82-.21-1.05-.58Z"/></svg>
