<?xml version="1.0" encoding="UTF-8"?>
<svg xmlns="http://www.w3.org/2000/svg" id="Layer_1" data-name="Layer 1" viewBox="0 0 24 24" width="512" height="512"><path d="m23,2.5c0-1.379-1.122-2.5-2.5-2.5H3.5C2.122,0,1,1.121,1,2.5c0,1.208.86,2.217,2,2.449v14.551c0,2.481,2.019,4.5,4.5,4.5h9c2.481,0,4.5-2.019,4.5-4.5V4.949c1.14-.232,2-1.242,2-2.449Zm-6.5,20.5H7.5c-1.93,0-3.5-1.57-3.5-3.5V5h16v14.5c0,1.93-1.57,3.5-3.5,3.5Zm4-19H3.5c-.827,0-1.5-.673-1.5-1.5s.673-1.5,1.5-1.5h17c.827,0,1.5.673,1.5,1.5s-.673,1.5-1.5,1.5Zm-4.5,10c0,.276-.224.5-.5.5h-3v3c0,.276-.224.5-.5.5s-.5-.224-.5-.5v-3h-3c-.276,0-.5-.224-.5-.5s.224-.5.5-.5h3v-3c0-.276.224-.5.5-.5s.5.224.5.5v3h3c.276,0,.5.224.5.5Z"/></svg>
