<?xml version="1.0" encoding="UTF-8"?>
<svg xmlns="http://www.w3.org/2000/svg" id="Layer_1" data-name="Layer 1" viewBox="0 0 24 24" width="512" height="512"><path d="m19.5,0H4.5C2.019,0,0,2.019,0,4.5v15c0,2.481,2.019,4.5,4.5,4.5h15c2.481,0,4.5-2.019,4.5-4.5V4.5c0-2.481-2.019-4.5-4.5-4.5Zm3.5,19.5c0,1.93-1.57,3.5-3.5,3.5H4.5c-1.93,0-3.5-1.57-3.5-3.5V4.5c0-1.93,1.57-3.5,3.5-3.5h15c1.93,0,3.5,1.57,3.5,3.5v15Zm-7.824-13.257c-.483-1.363-1.73-2.243-3.176-2.243s-2.693.88-3.175,2.239l-4.775,13.09c-.095.259.039.546.298.641.258.094.546-.039.641-.298l1.704-4.671h10.612l1.704,4.671c.074.203.266.329.47.329.057,0,.115-.01.171-.03.259-.095.393-.382.298-.641l-4.773-13.085Zm-8.118,7.757l2.708-7.423c.413-1.163,1.425-1.577,2.234-1.577s1.821.415,2.235,1.582l2.706,7.418H7.058Z"/></svg>
