<?xml version="1.0" encoding="UTF-8"?>
<svg xmlns="http://www.w3.org/2000/svg" id="Layer_1" data-name="Layer 1" viewBox="0 0 24 24" width="512" height="512"><path d="M20.814,13c-1.172,0-1.785,.357-2.277,.645-.198,.115-.365,.212-.549,.276-.164-4.186-2.085-8.913-5.584-13.714-.189-.26-.619-.26-.809,0-3.499,4.801-5.42,9.529-5.584,13.714-.183-.064-.351-.161-.549-.276-.492-.287-1.105-.645-2.277-.645-1.322,0-3.186,1.361-3.186,4.389,0,3.646,2.804,6.611,6.25,6.611,2.578,0,4.796-1.659,5.75-4.021,.954,2.362,3.172,4.021,5.75,4.021,3.446,0,6.25-2.966,6.25-6.611,0-3.027-1.863-4.389-3.186-4.389ZM12,1.359c3.107,4.418,4.82,8.726,4.986,12.534-.115-.056-.222-.132-.352-.225-.418-.298-.938-.669-2.135-.669-.963,0-1.933,.629-2.5,1.851-.567-1.222-1.537-1.851-2.5-1.851-1.197,0-1.717,.371-2.135,.669-.13,.093-.237,.169-.352,.225,.166-3.808,1.879-8.116,4.986-12.534ZM6.25,23c-2.895,0-5.25-2.518-5.25-5.611,0-2.337,1.278-3.389,2.186-3.389,.901,0,1.325,.247,1.774,.508,.396,.23,.844,.492,1.54,.492,.722,0,1.106-.274,1.446-.517,.348-.249,.677-.483,1.554-.483,.97,0,2,1.188,2,3.389,0,3.094-2.355,5.611-5.25,5.611Zm11.5,0c-2.895,0-5.25-2.518-5.25-5.611,0-2.201,1.03-3.389,2-3.389,.877,0,1.206,.234,1.554,.483,.34,.242,.725,.517,1.446,.517,.696,0,1.145-.262,1.54-.492,.449-.261,.873-.508,1.774-.508,.907,0,2.186,1.052,2.186,3.389,0,3.094-2.355,5.611-5.25,5.611Z"/></svg>
