<?xml version="1.0" encoding="UTF-8"?>
<svg xmlns="http://www.w3.org/2000/svg" id="Layer_1" data-name="Layer 1" viewBox="0 0 24 24" width="512" height="512"><path d="M18.5,0H5.5C3.02,0,1,2.02,1,4.5v15c0,2.48,2.02,4.5,4.5,4.5h13c2.48,0,4.5-2.02,4.5-4.5V4.5c0-2.48-2.02-4.5-4.5-4.5ZM5.5,1h13c1.93,0,3.5,1.57,3.5,3.5v11.5H2V4.5c0-1.93,1.57-3.5,3.5-3.5Zm13,22H5.5c-1.93,0-3.5-1.57-3.5-3.5v-2.5H22v2.5c0,1.93-1.57,3.5-3.5,3.5Zm1.5-3c0,.55-.45,1-1,1s-1-.45-1-1,.45-1,1-1,1,.45,1,1Zm-3,0c0,.55-.45,1-1,1s-1-.45-1-1,.45-1,1-1,1,.45,1,1Z"/></svg>
