<?xml version="1.0" encoding="UTF-8"?>
<svg xmlns="http://www.w3.org/2000/svg" id="Layer_1" data-name="Layer 1" viewBox="0 0 24 24" width="512" height="512"><path d="m19,5c1.379,0,2.5-1.121,2.5-2.5s-1.121-2.5-2.5-2.5-2.5,1.121-2.5,2.5,1.121,2.5,2.5,2.5Zm0-4c.827,0,1.5.673,1.5,1.5s-.673,1.5-1.5,1.5-1.5-.673-1.5-1.5.673-1.5,1.5-1.5Zm4.979,17.274s-1.515-9.255-1.515-9.255c-.201-1.464-1.483-3.02-3.465-3.02s-3.264,1.556-3.463,3.007l-1.517,9.268c-.089.646.108,1.283.554,1.794.517.592,1.293.932,2.132.932h.294v2.5c0,.276.224.5.5.5s.5-.224.5-.5v-2.5h2v2.5c0,.276.224.5.5.5s.5-.224.5-.5v-2.5h.294c.839,0,1.615-.34,2.132-.932.445-.511.643-1.148.554-1.794Zm-1.308,1.137c-.326.374-.828.589-1.378.589h-4.588c-.55,0-1.052-.215-1.378-.589-.253-.29-.366-.646-.319-.988l1.517-9.267c.146-1.061,1.111-2.156,2.475-2.156s2.329,1.096,2.477,2.169l1.514,9.247c.046.354-.066.707-.318.995ZM4,5c1.379,0,2.5-1.121,2.5-2.5S5.379,0,4,0,1.5,1.121,1.5,2.5s1.121,2.5,2.5,2.5Zm0-4c.827,0,1.5.673,1.5,1.5s-.673,1.5-1.5,1.5-1.5-.673-1.5-1.5.673-1.5,1.5-1.5Zm0,5C1.794,6,0,7.794,0,10v4.5c0,1.208.86,2.218,2,2.45v6.55c0,.276.224.5.5.5s.5-.224.5-.5v-6.5h2v6.5c0,.276.224.5.5.5s.5-.224.5-.5v-6.55c1.14-.232,2-1.242,2-2.45v-4.5c0-2.206-1.794-4-4-4Zm3,8.5c0,.827-.673,1.5-1.5,1.5h-3c-.827,0-1.5-.673-1.5-1.5v-4.5c0-1.654,1.346-3,3-3s3,1.346,3,3v4.5ZM12,.5v23c0,.276-.224.5-.5.5s-.5-.224-.5-.5V.5c0-.276.224-.5.5-.5s.5.224.5.5Z"/></svg>
