<?xml version="1.0" encoding="UTF-8"?>
<svg xmlns="http://www.w3.org/2000/svg" id="Layer_1" data-name="Layer 1" viewBox="0 0 24 24" width="512" height="512"><path d="M19.5,3H4.5C2.02,3,0,5.02,0,7.5v9c0,2.48,2.02,4.5,4.5,4.5h15c2.48,0,4.5-2.02,4.5-4.5V7.5c0-2.48-2.02-4.5-4.5-4.5ZM5.93,20l.89-1.33c.28-.42,.75-.67,1.25-.67h7.86c.5,0,.97,.25,1.25,.67l.89,1.33H5.93Zm17.07-3.5c0,1.93-1.57,3.5-3.5,3.5h-.23l-1.26-1.89c-.46-.7-1.24-1.11-2.08-1.11h-7.86c-.84,0-1.62,.42-2.08,1.11l-1.26,1.89h-.23c-1.93,0-3.5-1.57-3.5-3.5V7.5c0-1.93,1.57-3.5,3.5-3.5h15c1.93,0,3.5,1.57,3.5,3.5v9Zm-5.5-8.5H7c-1.65,0-3,1.35-3,3s1.35,3,3,3h10.5c1.65,0,3-1.35,3-3s-1.35-3-3-3Zm-2.23,1c-.48,.53-.77,1.23-.77,2s.29,1.47,.77,2h-6.03c.48-.53,.77-1.23,.77-2s-.29-1.47-.77-2h6.03Zm-10.27,2c0-1.1,.9-2,2-2s2,.9,2,2-.9,2-2,2-2-.9-2-2Zm12.5,2c-1.1,0-2-.9-2-2s.9-2,2-2,2,.9,2,2-.9,2-2,2Z"/></svg>
