<?xml version="1.0" encoding="UTF-8"?>
<svg xmlns="http://www.w3.org/2000/svg" id="Layer_1" data-name="Layer 1" viewBox="0 0 24 24" width="512" height="512"><path d="m17.5,7c.276,0,.5-.224.5-.5s-.224-.5-.5-.5h-5v-1.5c0-.276-.224-.5-.5-.5s-.5.224-.5.5v1.5h-5c-.276,0-.5.224-.5.5s.224.5.5.5h5v2h-4c-.276,0-.5.224-.5.5s.224.5.5.5h4v2h-3c-.276,0-.5.224-.5.5s.224.5.5.5h3v2h-2.914c-.882.007-1.637.519-1.971,1.334-.335.816-.154,1.711.469,2.334l.6.6c.473.473,1.1.732,1.768.732h5.097c.668,0,1.295-.26,1.768-.732l.6-.6c.623-.623.804-1.518.469-2.334-.334-.815-1.089-1.327-2.008-1.334h-2.876v-2h3c.276,0,.5-.224.5-.5s-.224-.5-.5-.5h-3v-2h4c.276,0,.5-.224.5-.5s-.224-.5-.5-.5h-4v-2h5Zm-2.095,9c.563.005.913.371,1.054.713.14.343.147.85-.251,1.248l-.6.6c-.279.279-.666.439-1.061.439h-5.097c-.395,0-.781-.16-1.061-.439l-.6-.6c-.398-.398-.391-.905-.251-1.248.141-.342.49-.708,1.083-.713h6.782Zm8.095,7h-1.5V1h1.5c.276,0,.5-.224.5-.5s-.224-.5-.5-.5H.5C.224,0,0,.224,0,.5s.224.5.5.5h1.5v22H.5c-.276,0-.5.224-.5.5s.224.5.5.5h23c.276,0,.5-.224.5-.5s-.224-.5-.5-.5ZM3,1h18v22H3V1Z"/></svg>
