<?xml version="1.0" encoding="UTF-8"?>
<svg xmlns="http://www.w3.org/2000/svg" id="Layer_1" data-name="Layer 1" viewBox="0 0 24 24" width="512" height="512"><path d="M19.35,15.141c.198,.192,.204,.509,.012,.707l-1.786,1.845c-.188,.193-.439,.3-.707,.303-.309,.008-.521-.102-.713-.29l-1.723-1.705-1.729,1.711c-.188,.187-.438,.289-.704,.289s-.514-.103-.702-.289l-1.728-1.711-1.724,1.705c-.191,.188-.424,.291-.713,.29-.268-.003-.519-.109-.706-.302l-1.787-1.846c-.192-.198-.187-.515,.012-.707,.198-.19,.515-.186,.707,.012l1.786,1.845,1.721-1.708c.389-.382,1.02-.383,1.406,0l1.729,1.712,1.728-1.711c.389-.383,1.02-.382,1.406,0l1.724,1.706,1.784-1.842c.193-.197,.51-.202,.707-.012Zm4.65-3.141c0,6.617-5.383,12-12,12S0,18.617,0,12,5.383,0,12,0s12,5.383,12,12Zm-1,0c0-6.065-4.935-11-11-11S1,5.935,1,12s4.935,11,11,11,11-4.935,11-11Zm-8.777-2.084l3,2c.085,.057,.182,.084,.277,.084,.161,0,.319-.078,.416-.223,.153-.229,.091-.54-.139-.693l-2.376-1.584,2.376-1.584c.229-.153,.292-.464,.139-.693-.155-.23-.466-.291-.693-.139l-3,2c-.139,.093-.223,.249-.223,.416s.084,.323,.223,.416Zm-8.139,1.861c.097,.145,.255,.223,.416,.223,.096,0,.192-.027,.277-.084l3-2c.139-.093,.223-.249,.223-.416s-.084-.323-.223-.416l-3-2c-.228-.151-.54-.092-.693,.139-.153,.229-.091,.54,.139,.693l2.376,1.584-2.376,1.584c-.229,.153-.292,.464-.139,.693Z"/></svg>
