<?xml version="1.0" encoding="UTF-8"?>
<svg xmlns="http://www.w3.org/2000/svg" id="Layer_1" data-name="Layer 1" viewBox="0 0 24 24" width="512" height="512"><path d="M22.19,3.82c-1.15-1.19-2.69-1.82-4.46-1.82-2.18,.05-4.19,1.26-5.24,3.16-.02,.04-.23,.4-.47,.95-.24-.61-.48-.95-.48-.95-1.06-1.91-3.07-3.12-5.26-3.17-1.77,0-3.31,.63-4.46,1.83C.59,5.09-.07,6.9,0,8.78c0,4.84,5.7,10.33,9.1,13.16,.84,.7,1.87,1.05,2.91,1.05s2.06-.35,2.9-1.05c2.73-2.28,9.08-8.11,9.08-13.11,.07-1.92-.59-3.75-1.81-5.02Zm-7.91,17.36c-.66,.55-1.47,.82-2.27,.82V10c0-1.93,1.34-4.32,1.35-4.34,.88-1.6,2.57-2.61,4.38-2.65,1.49,0,2.78,.52,3.73,1.52,1.03,1.07,1.59,2.63,1.53,4.3,0,4.72-6.67,10.65-8.72,12.36Z"/></svg>
