<?xml version="1.0" encoding="UTF-8"?>
<svg xmlns="http://www.w3.org/2000/svg" id="Layer_1" data-name="Layer 1" width="512" height="512" viewBox="0 0 24 24"><path d="M8,14c.552,0,1,.448,1,1s-.448,1-1,1-1-.448-1-1,.448-1,1-1Zm3,1c0,.552,.448,1,1,1s1-.448,1-1-.448-1-1-1-1,.448-1,1Zm4,0c0,.552,.448,1,1,1s1-.448,1-1-.448-1-1-1-1,.448-1,1Zm-9,4c0,.552,.448,1,1,1s1-.448,1-1-.448-1-1-1-1,.448-1,1Zm4,0c0,.552,.448,1,1,1s1-.448,1-1-.448-1-1-1-1,.448-1,1Zm4,0c0,.552,.448,1,1,1s1-.448,1-1-.448-1-1-1-1,.448-1,1Zm-9,4c0,.552,.448,1,1,1s1-.448,1-1-.448-1-1-1-1,.448-1,1Zm4,0c0,.552,.448,1,1,1s1-.448,1-1-.448-1-1-1-1,.448-1,1Zm4,0c0,.552,.448,1,1,1s1-.448,1-1-.448-1-1-1-1,.448-1,1Zm5.654-3.39c3.08-1.001,5.227-3.744,5.34-6.826,.134-3.612-2.325-6.807-5.847-7.597-.441-.099-.806-.378-1-.767C15.533,1.198,12.045-.522,8.473,.142,5.338,.724,2.804,3.222,2.167,6.359c-.19,.933-.218,1.873-.083,2.796,.083,.568-.058,1.073-.387,1.387C.319,11.86-.271,13.774,.121,15.665c.356,1.719,1.545,3.171,3.18,3.884,.253,.11,.548-.006,.658-.259s-.006-.548-.259-.658c-1.318-.574-2.314-1.789-2.6-3.17-.321-1.55,.161-3.119,1.288-4.196,.566-.541,.815-1.362,.685-2.254-.118-.808-.093-1.633,.074-2.452C3.704,3.816,5.917,1.633,8.655,1.125c3.128-.581,6.185,.924,7.598,3.743,.33,.658,.94,1.13,1.676,1.295,3.052,.684,5.182,3.453,5.066,6.584-.099,2.665-1.967,5.041-4.65,5.912-.263,.085-.407,.368-.321,.63,.069,.211,.265,.346,.476,.346,.051,0,.103-.008,.154-.024Z"/></svg>
