<?xml version="1.0" encoding="UTF-8"?>
<svg xmlns="http://www.w3.org/2000/svg" id="Layer_1" data-name="Layer 1" viewBox="0 0 24 24" width="512" height="512"><path d="M12,23c-.83,0-1.65-.28-2.34-.83C6.07,19.28,0,13,0,7.82,0,4.06,2.8,1,6.25,1c2.54,0,4.79,1.8,5.75,4.3,.96-2.5,3.21-4.3,5.75-4.3,3.45,0,6.25,3.06,6.25,6.81,0,6.25-8.04,13.05-9.66,14.35-.69,.56-1.52,.83-2.34,.83ZM6.25,2C3.4,2,1,4.67,1,7.82c0,4.81,5.83,10.8,9.28,13.58,1.01,.82,2.42,.82,3.44,0,4.28-3.45,9.28-9.08,9.28-13.58,0-3.15-2.4-5.81-5.25-5.81s-5.25,2.75-5.25,6h0c0,.14-.06,.26-.15,.35l-2.15,2.15c-.28,.28-.28,.74,0,1.02l3.32,3.32c.64,.64,.64,1.67,0,2.31l-1.69,1.69c-.2,.2-.51,.2-.71,0s-.2-.51,0-.71l1.69-1.69c.25-.25,.25-.65,0-.9l-3.32-3.32c-.67-.67-.67-1.77,0-2.44l2-2c-.1-3.16-2.46-5.79-5.25-5.79Z"/></svg>
