<?xml version="1.0" encoding="UTF-8"?>
<svg xmlns="http://www.w3.org/2000/svg" id="Layer_1" data-name="Layer 1" width="512" height="512" viewBox="0 0 24 24"><path d="M19,11c-.357,0-.704,.038-1.04,.109l-.879-2.746c.142-.042,.285-.077,.431-.105,.621-.118,1.122-.213,1.541-.243,.238,1.132,1.244,1.985,2.446,1.985,.827,0,1.5-.673,1.5-1.5v-2c0-.827-.673-1.5-1.5-1.5-1.212,0-2.225,.867-2.452,2.013-.501,.031-1.049,.135-1.721,.263-.187,.035-.37,.081-.551,.135l-.633-1.978c-.466-1.456-1.806-2.433-3.333-2.433h-2.311c-.276,0-.5,.224-.5,.5s.224,.5,.5,.5h2.311c1.091,0,2.048,.698,2.38,1.738l.656,2.05c-.586,.303-1.117,.712-1.568,1.212h-5.832c-.044-.211-.115-.419-.214-.619-.427-.852-1.283-1.381-2.236-1.381H2.5c-.276,0-.5,.224-.5,.5s.224,.5,.5,.5h3.496c.58,0,1.082,.31,1.342,.829,.099,.199,.153,.407,.161,.615,0,.29-.113,.703-.303,.956l-.636,.848c-.501-.165-1.025-.249-1.56-.249-2.757,0-5,2.243-5,5s2.243,5,5,5,5-2.243,5-5c0-.113-.004-.224-.011-.335,.512-.241,.965-.604,1.312-1.065,0,0,3.61-4.794,3.63-4.826,.351-.413,.766-.757,1.226-1.017l.851,2.658c-1.768,.771-3.007,2.536-3.007,4.585,0,2.757,2.243,5,5,5s5-2.243,5-5-2.243-5-5-5Zm2.5-5c.275,0,.5,.224,.5,.5v2c0,.276-.225,.5-.5,.5-.827,0-1.5-.673-1.5-1.5s.673-1.5,1.5-1.5ZM5,20c-2.206,0-4-1.794-4-4s1.794-4,4-4c.312,0,.618,.036,.917,.106l-1.121,1.494c-.343,.458-.396,1.06-.141,1.571,.255,.511,.77,.829,1.341,.829h2.504c.168,0,.335-.012,.499-.036v.036c0,2.206-1.793,4-3.999,4Zm5.501-6c-.471,.626-1.219,1-2.001,1h-2.504c-.193,0-.36-.103-.447-.276-.086-.173-.068-.369,.048-.524l2.4-3.2c.227-.303,.378-.645,.451-1h5.052l-2.999,4Zm8.499,6c-2.206,0-4-1.794-4-4,0-1.604,.948-2.99,2.314-3.627l1.209,3.779c.068,.212,.265,.348,.477,.348,.051,0,.102-.008,.152-.024,.263-.084,.408-.365,.324-.628l-1.21-3.78c.238-.044,.483-.068,.733-.068,2.206,0,4,1.794,4,4s-1.794,4-4,4Z"/></svg>
