<?xml version="1.0" encoding="UTF-8"?>
<svg xmlns="http://www.w3.org/2000/svg" id="Layer_1" data-name="Layer 1" viewBox="0 0 24 24" width="512" height="512"><path d="M19.5,18c-1.38,0-2.5-1.12-2.5-2.5s1.12-2.5,2.5-2.5,2.5,1.12,2.5,2.5-1.12,2.5-2.5,2.5Zm0-4c-.83,0-1.5,.67-1.5,1.5s.67,1.5,1.5,1.5,1.5-.67,1.5-1.5-.67-1.5-1.5-1.5Zm4.12,9.98c.27-.07,.43-.34,.36-.61-.5-1.96-2.39-3.38-4.48-3.38s-3.98,1.42-4.48,3.38c-.07,.27,.09,.54,.36,.61,.27,.07,.54-.09,.61-.36,.38-1.5,1.9-2.62,3.52-2.62s3.13,1.13,3.52,2.62c.06,.23,.26,.38,.48,.38,.04,0,.08,0,.12-.02Zm-10.62-.48c0-.28-.22-.5-.5-.5H4.5c-1.93,0-3.5-1.57-3.5-3.5V4.5c0-1.93,1.57-3.5,3.5-3.5h15c1.93,0,3.5,1.57,3.5,3.5V12.5c0,.28,.22,.5,.5,.5s.5-.22,.5-.5V4.5c0-2.48-2.02-4.5-4.5-4.5H4.5C2.02,0,0,2.02,0,4.5v15c0,2.48,2.02,4.5,4.5,4.5H12.5c.28,0,.5-.22,.5-.5Zm2.73-4.42c.24-.13,.34-.43,.21-.68-.13-.25-.43-.34-.68-.21-1,.53-2.13,.81-3.27,.81-3.86,0-7-3.14-7-7s3.14-7,7-7c3.32,0,6.2,2.35,6.86,5.6,.05,.27,.32,.44,.59,.39,.27-.06,.45-.32,.39-.59-.75-3.71-4.05-6.4-7.84-6.4-4.41,0-8,3.59-8,8s3.59,8,8,8c1.3,0,2.59-.32,3.73-.92Zm-3.73-6.08c.55,0,1-.45,1-1s-.45-1-1-1-1,.45-1,1,.45,1,1,1Z"/></svg>
