<?xml version="1.0" encoding="UTF-8"?>
<svg xmlns="http://www.w3.org/2000/svg" id="Layer_1" data-name="Layer 1" viewBox="0 0 24 24" width="512" height="512"><path d="M12.5,11h9c1.378,0,2.5-1.121,2.5-2.5V4.5c0-1.379-1.122-2.5-2.5-2.5h-3.086c-.131,0-.26-.054-.354-.146l-1.414-1.414c-.283-.283-.66-.439-1.061-.439h-3.086c-1.378,0-2.5,1.121-2.5,2.5v2.5H1V.5c0-.276-.224-.5-.5-.5S0,.224,0,.5V14.5c0,2.481,2.019,4.5,4.5,4.5h5.5v2.5c0,1.379,1.122,2.5,2.5,2.5h9c1.378,0,2.5-1.121,2.5-2.5v-4c0-1.379-1.122-2.5-2.5-2.5h-3.086c-.131,0-.26-.054-.354-.146l-1.414-1.414c-.283-.283-.66-.439-1.061-.439h-3.086c-1.378,0-2.5,1.121-2.5,2.5v2.5H4.5c-1.93,0-3.5-1.57-3.5-3.5V6H10v2.5c0,1.379,1.122,2.5,2.5,2.5Zm-1.5-8.5c0-.827,.673-1.5,1.5-1.5h3.086c.131,0,.26,.054,.354,.146l1.414,1.414c.283,.283,.66,.439,1.061,.439h3.086c.827,0,1.5,.673,1.5,1.5v4c0,.827-.673,1.5-1.5,1.5H12.5c-.827,0-1.5-.673-1.5-1.5V2.5Zm0,13c0-.827,.673-1.5,1.5-1.5h3.086c.131,0,.26,.054,.354,.146l1.414,1.414c.283,.283,.66,.439,1.061,.439h3.086c.827,0,1.5,.673,1.5,1.5v4c0,.827-.673,1.5-1.5,1.5H12.5c-.827,0-1.5-.673-1.5-1.5v-6Z"/></svg>
