<?xml version="1.0" encoding="UTF-8"?>
<svg xmlns="http://www.w3.org/2000/svg" id="Layer_1" data-name="Layer 1" viewBox="0 0 24 24">
  <path d="m24,17c0-.621-.233-1.211-.649-1.668.099-.271.149-.549.149-.832,0-1.223-.882-2.244-2.103-2.454-.201-.766-.719-1.389-1.397-1.739v-2.307C20,3.589,16.411,0,12,0S4,3.589,4,8v2.307c-.674.348-1.19.965-1.394,1.724-1.192.189-2.106,1.225-2.106,2.469,0,.283.05.562.149.832-.416.457-.649,1.047-.649,1.668,0,.654.26,1.278.712,1.742-.14.315-.212.657-.212,1.008,0,1.248.919,2.285,2.178,2.466.396,1.067,1.406,1.784,2.572,1.784,1.517,0,2.75-1.233,2.75-2.75v-8.5c0-1.517-1.233-2.75-2.75-2.75-.085,0-.167.013-.25.021v-2.021c0-3.86,3.14-7,7-7s7,3.14,7,7v2.021c-.083-.008-.165-.021-.25-.021-1.517,0-2.75,1.233-2.75,2.75v8.5c0,1.517,1.233,2.75,2.75,2.75,1.161,0,2.167-.711,2.567-1.77,1.229-.156,2.183-1.209,2.183-2.48,0-.351-.072-.692-.212-1.008.452-.464.712-1.088.712-1.742ZM7,12.75v8.5c0,.965-.785,1.75-1.75,1.75-.822,0-1.523-.562-1.704-1.365-.051-.229-.286-.386-.521-.386-.826.026-1.525-.663-1.525-1.499,0-.301.089-.592.258-.842.153-.225.098-.53-.124-.688-.397-.282-.634-.739-.634-1.221,0-.448.206-.871.564-1.16.188-.152.241-.417.125-.629-.125-.23-.189-.47-.189-.711,0-.827.673-1.5,1.466-1.501.132.014.265-.022.37-.105.104-.083.171-.204.186-.336.098-.888.841-1.558,1.728-1.558.965,0,1.75.785,1.75,1.75Zm15.366,5.471c-.222.157-.277.463-.124.688.169.25.258.541.258.842,0,.824-.667,1.495-1.524,1.495h-.01c-.243-.023-.459.152-.512.39-.181.804-.881,1.365-1.704,1.365-.965,0-1.75-.785-1.75-1.75v-8.5c0-.965.785-1.75,1.75-1.75.887,0,1.63.669,1.728,1.558.015.132.065.254.169.337.104.083.218.12.353.105.827,0,1.5.673,1.5,1.5,0,.241-.064.48-.189.711-.116.212-.063.477.125.629.359.289.564.712.564,1.16,0,.481-.237.938-.634,1.221Z"/>
</svg>
