<?xml version="1.0" encoding="UTF-8"?>
<svg xmlns="http://www.w3.org/2000/svg" id="Layer_1" data-name="Layer 1" width="512" height="512" viewBox="0 0 24 24"><path d="M22.017,5.831L14.517,.771c-1.528-1.032-3.504-1.033-5.034,0L1.983,5.831c-1.242,.837-1.983,2.231-1.983,3.729v9.939c0,2.481,2.019,4.5,4.5,4.5,.276,0,.5-.224,.5-.5V14h14v9.5c0,.276,.224,.5,.5,.5,2.481,0,4.5-2.019,4.5-4.5V9.561c0-1.498-.741-2.893-1.983-3.729ZM5,13v-.5c0-1.379,1.122-2.5,2.5-2.5h9c1.378,0,2.5,1.121,2.5,2.5v.5H5Zm18,6.5c0,1.76-1.306,3.221-3,3.465V12.5c0-1.93-1.57-3.5-3.5-3.5H7.5c-1.93,0-3.5,1.57-3.5,3.5v10.465c-1.694-.244-3-1.705-3-3.465V9.561c0-1.165,.577-2.25,1.542-2.901L10.042,1.599c1.189-.803,2.726-.803,3.915,0l7.5,5.061c.966,.651,1.542,1.736,1.542,2.901v9.939Z"/></svg>
