<?xml version="1.0" encoding="UTF-8"?>
<svg xmlns="http://www.w3.org/2000/svg" id="Layer_1" data-name="Layer 1" viewBox="0 0 24 24" width="512" height="512"><path d="m18.026,8.248h0c0,.089-.047.17-.124.215l-1.283.742.504,1.531c.036.111-.004.232-.099.299-.095.066-.221.063-.312-.008l-1.237-.956-1.238.957c-.093.072-.223.073-.317.002-.089-.067-.126-.182-.092-.288l.499-1.56-1.289-.717c-.079-.044-.127-.126-.127-.216,0-.137.111-.248.248-.248h1.607l.45-1.718c.031-.118.137-.2.259-.2s.228.082.259.2l.449,1.718h1.596c.137,0,.248.111.248.248Zm3.974-3.748v16c0,1.93-1.57,3.5-3.5,3.5H6.5c-2.481,0-4.5-2.019-4.5-4.5V4.5C2,2.019,4.019,0,6.5,0h11c2.481,0,4.5,2.019,4.5,4.5Zm-1,16c0-1.378-1.122-2.5-2.5-2.5H3v1.5c0,1.93,1.57,3.5,3.5,3.5h12c1.378,0,2.5-1.122,2.5-2.5Zm0-16c0-1.93-1.57-3.5-3.5-3.5H6.5c-1.93,0-3.5,1.57-3.5,3.5v12.5h15.5c.978,0,1.864.404,2.5,1.053V4.5Zm-8.394.201c.053.324-.098.637-.385.798-1.391.782-2.221,2.09-2.221,3.5,0,1.419.645,2.608,1.916,3.532.264.191.391.515.321.822-.065.291-.292.507-.59.562-.29.055-.561.083-.826.083-.579,0-1.131-.133-1.791-.417-1.553-.668-2.688-2.091-2.963-3.713-.045-.267-.066-.543-.066-.87s.021-.603.067-.87c.274-1.622,1.41-3.045,2.962-3.713.918-.395,2.002-.518,2.972-.334.315.059.553.302.605.618Zm-1.457.298c-.567,0-1.209.115-1.725.336-1.244.535-2.153,1.67-2.372,2.961-.041.239-.053.472-.053.703s.012.464.052.702c.219,1.292,1.128,2.427,2.373,2.962.564.243,1,.36,1.469.334-1.242-1.066-1.894-2.438-1.894-3.999s.792-3.019,2.149-4Z"/></svg>
