<?xml version="1.0" encoding="UTF-8"?>
<svg xmlns="http://www.w3.org/2000/svg" id="Layer_1" data-name="Layer 1" viewBox="0 0 24 24" width="512" height="512"><path d="M19.5,0H4.5C2.02,0,0,2.02,0,4.5v1c0,.81,.4,1.53,1,1.99,0,0,0,0,0,.01v12c0,2.48,2.02,4.5,4.5,4.5h13c2.48,0,4.5-2.02,4.5-4.5V7.5s0,0,0-.01c.6-.46,1-1.17,1-1.99v-1c0-2.48-2.02-4.5-4.5-4.5Zm2.5,19.5c0,1.93-1.57,3.5-3.5,3.5H5.5c-1.93,0-3.5-1.57-3.5-3.5V7.95c.16,.03,.33,.05,.5,.05H21.5c.17,0,.34-.02,.5-.05v11.55Zm1-14c0,.83-.67,1.5-1.5,1.5H2.5c-.83,0-1.5-.67-1.5-1.5v-1c0-1.93,1.57-3.5,3.5-3.5h15c1.93,0,3.5,1.57,3.5,3.5v1Zm-7.5,12.26c0,1.24-1.01,2.24-2.24,2.24h-.76v.5c0,.28-.22,.5-.5,.5s-.5-.22-.5-.5v-.5h-.55c-.98,0-1.89-.53-2.38-1.38-.14-.24-.06-.54,.18-.68,.24-.14,.54-.06,.68,.18,.31,.54,.89,.88,1.52,.88h2.31c.69,0,1.24-.56,1.24-1.24,0-.54-.34-1.01-.85-1.18l-3.62-1.21c-.92-.31-1.53-1.16-1.53-2.13,0-1.24,1.01-2.24,2.24-2.24h.76v-.5c0-.28,.22-.5,.5-.5s.5,.22,.5,.5v.5h.55c.98,0,1.89,.53,2.38,1.38,.14,.24,.06,.54-.18,.68-.24,.14-.55,.06-.68-.18-.31-.54-.89-.88-1.52-.88h-2.31c-.69,0-1.24,.56-1.24,1.24,0,.54,.34,1.01,.85,1.18l3.62,1.21c.92,.31,1.53,1.16,1.53,2.13Z"/></svg>
