<?xml version="1.0" encoding="UTF-8"?>
<svg xmlns="http://www.w3.org/2000/svg" id="arrow-circle-down" viewBox="0 0 24 24" width="512" height="512"><path d="M14.975,1.384c-.197-.197-.5-.474-.818-.756C13.687,.212,13.098,.004,12.508,.002l-.008-.002-.009,.002c-.589,.002-1.178,.21-1.647,.626-.318,.282-.621,.558-.815,.753l-2.879,2.828c-.197,.193-.2,.51-.006,.707,.194,.196,.509,.198,.708,.006l2.882-2.831c.187-.187,.474-.448,.774-.715,.148-.131,.316-.223,.493-.286V19.5c0,1.93-1.57,3.5-3.5,3.5H.5c-.276,0-.5,.224-.5,.5s.224,.5,.5,.5H8.5c2.481,0,4.5-2.019,4.5-4.5V1.089c.177,.063,.345,.155,.493,.286,.3,.267,.587,.527,.777,.718l2.879,2.828c.098,.096,.224,.144,.351,.144,.13,0,.259-.05,.356-.149,.193-.197,.191-.514-.006-.707l-2.876-2.825Z"/></svg>
