<?xml version="1.0" encoding="UTF-8"?>
<svg xmlns="http://www.w3.org/2000/svg" id="Layer_1" data-name="Layer 1" viewBox="0 0 24 24" width="512" height="512"><path d="m23.854,23.854c-.098.098-.226.146-.354.146s-.256-.049-.354-.146l-6-6c-.195-.195-.195-.512,0-.707s.512-.195.707,0l6,6c.195.195.195.512,0,.707Zm-1.725-15.619l-6.897,6.898c-1.849,1.849-4.307,2.867-6.922,2.867h-1.603L.854,23.854c-.098.098-.226.146-.354.146s-.256-.049-.354-.146c-.195-.195-.195-.512,0-.707l5.854-5.854v-1.602c0-.996.149-1.968.434-2.893L1.871,8.235c-.655.44-1.095.684-1.134.706-.075.041-.157.06-.236.06-.179,0-.351-.095-.441-.263-.131-.243-.04-.546.203-.677.01-.006,2.426-1.456,4.307-3.337C6.748,2.545,8.053.275,8.065.252c.138-.24.442-.323.682-.187.24.137.324.442.188.682-.023.04-.275.473-.711,1.112l3.777,3.777,3.777-3.777c-.436-.64-.688-1.072-.711-1.112-.137-.24-.053-.545.188-.682.239-.136.543-.053.682.187.013.023,1.318,2.292,3.496,4.471,1.875,1.875,4.296,3.331,4.307,3.337.243.131.334.434.203.677-.091.167-.263.263-.441.263-.079,0-.161-.019-.236-.06-.039-.021-.479-.266-1.134-.706Zm-15.307,3.536c.483-1.105,1.167-2.124,2.046-3.002l2.426-2.426-3.659-3.659c-.6.809-1.386,1.775-2.357,2.746-.924.924-1.821,1.658-2.577,2.219l4.122,4.122Zm1.488,5.229c2.18,0,4.232-.797,5.844-2.238l-4.916-4.915c-1.441,1.612-2.238,3.664-2.238,5.844v1.309h1.31Zm12.991-9.351c-.756-.561-1.653-1.294-2.577-2.219-.972-.971-1.757-1.938-2.357-2.746l-6.438,6.438,4.95,4.95,6.423-6.423Z"/></svg>
