<?xml version="1.0" encoding="UTF-8"?>
<svg xmlns="http://www.w3.org/2000/svg" id="Layer_1" data-name="Layer 1" viewBox="0 0 24 24" width="512" height="512"><path d="M24,23.5c0,.28-.22,.5-.5,.5-1.27,0-1.9-.96-2.42-1.72-.53-.79-.89-1.28-1.58-1.28-.77,0-1.29,.61-1.89,1.32-.67,.79-1.42,1.68-2.65,1.68s-1.97-.89-2.62-1.68c-.58-.71-1.08-1.32-1.84-1.32-.71,0-1.33,.53-2.04,1.15-.95,.82-2.13,1.85-3.96,1.85-2.48,0-4.5-2.02-4.5-4.5s2.02-4.5,4.5-4.5h1c.28,0,.5,.22,.5,.5s-.22,.5-.5,.5h-1c-1.93,0-3.5,1.57-3.5,3.5s1.57,3.5,3.5,3.5c1.46,0,2.4-.82,3.31-1.6,.79-.69,1.61-1.4,2.69-1.4,1.24,0,1.97,.89,2.62,1.68,.58,.71,1.08,1.32,1.84,1.32s1.29-.61,1.89-1.32c.67-.79,1.42-1.68,2.65-1.68s1.9,.96,2.42,1.72c.53,.79,.89,1.28,1.58,1.28,.28,0,.5,.22,.5,.5Z"/><path d="M23.23,.77c-1.03-1.03-2.71-1.03-3.74,0L9.03,11.24c-.66,.66-1.03,1.54-1.03,2.48v1.79c0,.28,.22,.5,.5,.5h1.79c.94,0,1.81-.36,2.48-1.03L23.23,4.51c1.03-1.03,1.03-2.71,0-3.74ZM12.06,14.27c-.47,.47-1.1,.73-1.77,.73h-1.29v-1.29c0-.67,.26-1.3,.73-1.77L17.98,3.69l2.32,2.32L12.06,14.27ZM22.52,3.8l-1.5,1.5-2.32-2.32,1.5-1.5c.64-.64,1.68-.64,2.32,0,.64,.64,.64,1.68,0,2.32Z"/></svg>
