<?xml version="1.0" encoding="UTF-8"?>
<svg xmlns="http://www.w3.org/2000/svg" id="Layer_1" data-name="Layer 1" viewBox="0 0 24 24" width="512" height="512"><path d="M8.685,18H3.5c-2.29,0-3.5-1.21-3.5-3.5v-5.188C0,4.597,3.823,.343,8.348,.022c2.602-.178,5.161,.77,7.007,2.614,1.852,1.853,2.808,4.417,2.623,7.037-.319,4.514-4.575,8.326-9.293,8.326Zm.3-17c-.188,0-.377,.007-.566,.021C4.397,1.305,1,5.102,1,9.312v5.188c0,1.729,.771,2.5,2.5,2.5h5.185c4.213,0,8.012-3.388,8.295-7.396,.165-2.331-.686-4.612-2.332-6.26-1.507-1.506-3.545-2.344-5.663-2.344Zm15.016,20.001v-4.726c0-2.698-1.424-5.354-3.717-6.93-.228-.155-.538-.098-.695,.129-.156,.228-.099,.539,.129,.695,2.025,1.393,3.283,3.731,3.283,6.105v4.726c0,1.652-1.088,1.999-2,1.999h-4.722c-2.374,0-4.714-1.258-6.107-3.283-.157-.229-.467-.285-.695-.129-.228,.156-.285,.468-.129,.695,1.578,2.293,4.233,3.717,6.932,3.717h4.722c1.851,0,3-1.149,3-2.999ZM9.5,10.75c0-.454,.23-.727,.947-1.121,1.125-.621,1.729-1.895,1.506-3.168-.212-1.21-1.205-2.202-2.413-2.413-1.627-.287-3.208,.771-3.53,2.353-.055,.271,.12,.534,.391,.59,.272,.054,.535-.119,.59-.391,.214-1.057,1.276-1.758,2.377-1.567,.802,.141,1.459,.799,1.6,1.602,.152,.867-.242,1.699-1.003,2.119-.511,.282-1.464,.806-1.464,1.997,0,.276,.224,.5,.5,.5s.5-.224,.5-.5Zm-.5,2.25c-.552,0-1,.448-1,1s.448,1,1,1,1-.448,1-1-.448-1-1-1Z"/></svg>
