<?xml version="1.0" encoding="UTF-8"?>
<svg xmlns="http://www.w3.org/2000/svg" id="Layer_1" data-name="Layer 1" viewBox="0 0 24 24" width="512" height="512"><path d="m17.768,18.5l3.148-4.723c.153-.229.091-.54-.139-.693-.23-.153-.541-.091-.693.139l-2.917,4.376-3.835-5.753c2.669-.608,4.668-2.995,4.668-5.846,0-3.309-2.691-6-6-6h-4.5C5.019,0,3,2.019,3,4.5v16c0,.276.224.5.5.5s.5-.224.5-.5v-8.5h8c.076,0,.15-.009.225-.011l4.341,6.511-3.148,4.723c-.153.229-.091.54.139.693.085.057.182.084.277.084.162,0,.32-.078.417-.223l2.917-4.376,2.917,4.376c.096.145.255.223.417.223.095,0,.191-.027.277-.084.23-.153.292-.464.139-.693l-3.148-4.723Zm-13.768-7.5v-6.5c0-1.93,1.57-3.5,3.5-3.5h4.5c2.757,0,5,2.243,5,5s-2.243,5-5,5H4Z"/></svg>
