<?xml version="1.0" encoding="UTF-8"?>
<svg xmlns="http://www.w3.org/2000/svg" id="Layer_1" data-name="Layer 1" viewBox="0 0 24 24">
  <path d="m23.854,23.146l-4.142-4.142,1.287-13.958c.001-.015.002-.031.002-.046h1.5c.276,0,.5-.224.5-.5s-.224-.5-.5-.5h-5.028c-.25-2.247-2.16-4-4.472-4h-2c-2.312,0-4.223,1.753-4.472,4h-1.821L.854.146C.658-.049.342-.049.146.146S-.049.658.146.854l23,23c.098.098.226.146.354.146s.256-.049.354-.146c.195-.195.195-.512,0-.707ZM11,1h2c1.76,0,3.221,1.306,3.464,3H7.536c.243-1.694,1.704-3,3.464-3Zm8.998,4l-1.206,13.085L5.707,5h14.291Zm-1.831,17.169c.183.207.163.523-.044.706-.822.726-1.879,1.125-2.976,1.125h-6.272c-2.337,0-4.263-1.754-4.48-4.08l-1.158-12.373c-.025-.275.177-.519.452-.545.272-.015.519.177.544.451l1.158,12.373c.168,1.81,1.667,3.174,3.484,3.174h6.272c.853,0,1.675-.311,2.315-.875.207-.182.523-.161.706.044Z"/>
</svg>
