<?xml version="1.0" encoding="UTF-8"?>
<svg xmlns="http://www.w3.org/2000/svg" id="Layer_1" data-name="Layer 1" viewBox="0 0 24 24" width="512" height="512"><path d="m23.949,10.573c-.12-.327-.434-.547-.782-.547h-2.501l-.888-2.49c-.119-.321-.432-.536-.778-.536s-.659.217-.783.549l-.883,2.477h-2.501c-.349,0-.662.22-.782.546-.119.327-.021.698.252.928l1.973,1.605-.783,2.512c-.106.337.011.706.294.918.146.109.318.167.5.167.166,0,.326-.049.464-.141l2.257-1.511,2.294,1.494c.287.188.684.177.965-.038.28-.215.394-.586.281-.92l-.815-2.485,1.978-1.611c.264-.221.36-.59.24-.919Zm-3.382,2.189l.882,2.688-2.45-1.596-2.425,1.652.857-2.748-2.128-1.732h2.735l.961-2.696.961,2.696h2.737l-2.131,1.736Zm-5.672,8.539c-3.334-1.91-6.896-5.356-6.896-9.3s3.561-7.388,6.893-9.298c.566-.325.845-.931.709-1.544-.135-.612-.645-1.044-1.298-1.101,0,0-.108-.009-.11-.009C7.654-.465,1.834,3.327.372,9.078c-.9,3.541-.166,7.074,2.069,9.949,2.422,3.115,6.331,4.974,10.458,4.974.468,0,.918-.015,1.359-.052.679-.057,1.206-.498,1.345-1.123.134-.604-.145-1.203-.708-1.525Zm-.268,1.309c-.034.15-.17.319-.453.343-.414.035-.837.048-1.275.048-3.82,0-7.435-1.715-9.669-4.588-2.041-2.625-2.712-5.853-1.89-9.089C2.6,4.372,7.408,1,13.004,1c.367,0,.737.014,1.111.044l.039-.499.063.507c.318.028.393.252.407.32.016.068.043.305-.23.462-3.574,2.049-7.395,5.795-7.395,10.165s3.821,8.118,7.398,10.168c.262.15.247.359.229.441Z"/></svg>
