<?xml version="1.0" encoding="UTF-8"?>
<svg xmlns="http://www.w3.org/2000/svg" id="Layer_1" data-name="Layer 1" viewBox="0 0 24 24" width="512" height="512"><path d="m24,3.5v17c0,1.93-1.57,3.5-3.5,3.5h-4c-.276,0-.5-.224-.5-.5s.224-.5.5-.5h4c1.378,0,2.5-1.122,2.5-2.5V3.5c0-1.378-1.122-2.5-2.5-2.5h-4c-.276,0-.5-.224-.5-.5s.224-.5.5-.5h4c1.93,0,3.5,1.57,3.5,3.5Zm-5.925,10.89l-6.152,5.899c-.43.463-1.007.712-1.606.712-.271,0-.545-.05-.812-.155-.91-.356-1.501-1.249-1.504-2.275v-2.57H2.5c-1.378,0-2.5-1.122-2.5-2.5v-3c0-1.378,1.122-2.5,2.5-2.5h5.5v-2.57c.005-1.028.596-1.92,1.506-2.276.86-.333,1.793-.114,2.437.577l6.112,5.857c1.246,1.338,1.246,3.483.02,4.803Zm-.732-4.101l-6.112-5.857c-.384-.411-.884-.534-1.361-.347-.418.164-.867.603-.87,1.347v3.068c0,.276-.224.5-.5.5H2.5c-.827,0-1.5.673-1.5,1.5v3c0,.827.673,1.5,1.5,1.5h6c.276,0,.5.224.5.5v3.069c.002.742.451,1.182.869,1.346.476.186.978.063,1.341-.327l6.152-5.899c.857-.923.858-2.458-.02-3.4Z"/></svg>
