<?xml version="1.0" encoding="UTF-8"?>
<svg xmlns="http://www.w3.org/2000/svg" id="Layer_1" data-name="Layer 1" viewBox="0 0 24 24" width="512" height="512"><path d="M19,8.5c0-.73-.32-1.43-.88-1.9-.56-.48-1.3-.68-2.04-.56-1.19,.19-2.08,1.3-2.08,2.57v1.49l-4.46-4.46c-.45-.45-1.06-.67-1.7-.63-.63,.05-1.21,.38-1.58,.9-.17,.24-.29,.51-.34,.79l-.31-.31c-.45-.45-1.07-.67-1.7-.62-.63,.05-1.21,.38-1.58,.9-.42,.59-.49,1.36-.23,2.04-.61,.06-1.17,.39-1.53,.89-.61,.84-.48,2.06,.3,2.84l.82,.82c-.52,.11-.98,.42-1.29,.86-.61,.84-.48,2.06,.3,2.84l5.13,5.13c1.28,1.28,2.97,1.92,4.65,1.92s3.37-.64,4.65-1.92l1.98-1.98c1.23-1.23,1.9-2.86,1.9-4.6v-7.01Zm-1,7.01c0,1.47-.57,2.85-1.61,3.89l-1.98,1.98c-2.17,2.18-5.71,2.18-7.89,0L1.39,16.25c-.43-.43-.52-1.1-.19-1.55,.21-.29,.51-.46,.85-.49,.34-.03,.67,.09,.91,.34l3.1,3.1c.2,.2,.51,.2,.71,0s.2-.51,0-.71L1.56,11.73c-.43-.43-.52-1.1-.19-1.55,.21-.29,.51-.46,.85-.49,.33-.03,.67,.09,.91,.34l5.28,5.28c.2,.2,.51,.2,.71,0s.2-.51,0-.71L3.32,8.8c-.43-.43-.52-1.1-.19-1.55,.21-.29,.51-.46,.85-.49,.34-.03,.67,.09,.91,.34l5.86,5.86c.1,.1,.23,.15,.35,.15s.26-.05,.35-.15c.2-.2,.2-.51,0-.71l-4.21-4.21c-.43-.43-.52-1.1-.19-1.55,.21-.29,.51-.46,.85-.49,.34-.03,.67,.1,.91,.34l5.32,5.32c.14,.14,.36,.19,.54,.11,.19-.08,.31-.26,.31-.46v-2.7c0-.79,.53-1.47,1.24-1.59,.45-.07,.89,.04,1.23,.34,.34,.29,.53,.7,.53,1.14v7.01Zm6-7.01v7.3c0,1.54-.55,3.03-1.54,4.21l-2.51,2.96c-.39,.39-.79,.71-1.22,.98-.08,.05-.17,.07-.26,.07-.17,0-.33-.08-.43-.24-.15-.24-.07-.54,.16-.69,.36-.22,.7-.49,1.01-.8l2.48-2.93c.84-.99,1.31-2.26,1.31-3.56v-7.3c0-.44-.19-.86-.53-1.14-.34-.29-.78-.41-1.23-.34-.28,.04-.53-.14-.57-.41-.04-.27,.14-.53,.41-.57,.73-.12,1.48,.08,2.04,.56,.56,.48,.88,1.17,.88,1.9ZM11.15,3.35c-.2-.2-.2-.51,0-.71l1.5-1.5c.2-.2,.51-.2,.71,0s.2,.51,0,.71l-1.5,1.5c-.1,.1-.23,.15-.35,.15s-.26-.05-.35-.15ZM3.65,1.85c-.2-.2-.2-.51,0-.71s.51-.2,.71,0l1.5,1.5c.2,.2,.2,.51,0,.71-.1,.1-.23,.15-.35,.15s-.26-.05-.35-.15l-1.5-1.5Zm4.35,.65V.5c0-.28,.22-.5,.5-.5s.5,.22,.5,.5V2.5c0,.28-.22,.5-.5,.5s-.5-.22-.5-.5Z"/></svg>
