<?xml version="1.0" encoding="UTF-8"?>
<svg xmlns="http://www.w3.org/2000/svg" id="Layer_1" data-name="Layer 1" viewBox="0 0 24 24" width="512" height="512"><path d="M23.808,20.197L15.741,1.557c-.52-1.276-1.979-1.895-3.259-1.371l-.926,.378c-.358,.146-.671,.368-.921,.649-.438-.726-1.234-1.212-2.142-1.212H2.5C1.122,0,0,1.121,0,2.5V21.5c0,1.379,1.122,2.5,2.5,2.5h5.993c1.378,0,2.5-1.121,2.5-2.5V5.689l7.265,16.79c.522,1.286,2.014,1.885,3.259,1.367l.925-.378c1.261-.486,1.906-2.026,1.366-3.271ZM12.505,6.666l3.704-1.51,5.37,12.411-3.704,1.511L12.505,6.666ZM1,6h3.993v12H1V6Zm4.993,0h4v12H5.993V6Zm4-3.5v2.5H5.993V1h2.5c.827,0,1.5,.673,1.5,1.5ZM2.5,1h2.493V5H1V2.5c0-.827,.673-1.5,1.5-1.5ZM1,21.5v-2.5h3.993v4H2.5c-.827,0-1.5-.673-1.5-1.5Zm7.493,1.5h-2.5v-4h4v2.5c0,.827-.673,1.5-1.5,1.5ZM11.934,1.489l.926-.378c.751-.31,1.642,.051,1.959,.832l.993,2.294-3.704,1.51-.997-2.304c-.312-.766,.057-1.643,.823-1.955Zm10.947,20.245c-.155,.369-.445,.656-.816,.808h0l-.925,.378c-.765,.312-1.643-.056-1.959-.829l-.907-2.096,3.704-1.511,.909,2.101c.152,.371,.15,.779-.005,1.149Z"/></svg>
