<?xml version="1.0" encoding="UTF-8"?>
<svg xmlns="http://www.w3.org/2000/svg" id="Layer_1" data-name="Layer 1" viewBox="0 0 24 24" width="512" height="512"><path d="M23.81,1.77c-.421-1.075-1.427-1.77-2.563-1.77H2.754C1.617,0,.611,.695,.19,1.77-.214,2.8,.03,3.898,.871,4.675l8.503,7.31c.616,.559,1.36,.888,2.126,.988v10.027H6.5c-.276,0-.5,.224-.5,.5s.224,.5,.5,.5h11c.276,0,.5-.224,.5-.5s-.224-.5-.5-.5h-5V12.974c.765-.099,1.506-.425,2.116-.98l8.559-7.36c.795-.736,1.039-1.833,.635-2.864Zm-1.333,2.147l-8.522,7.328c-.548,.498-1.266,.748-1.954,.755-.69-.008-1.41-.261-1.964-.764L2.785,5h14.715c.276,0,.5-.224,.5-.5s-.224-.5-.5-.5H1.622l-.117-.101c-.494-.457-.638-1.117-.384-1.765,.27-.689,.911-1.134,1.633-1.134H21.246c.722,0,1.363,.445,1.633,1.134,.254,.648,.11,1.309-.402,1.783ZM12,12c-.011,0,.01,0,0,0h0Z"/></svg>
