<?xml version="1.0" encoding="UTF-8"?>
<svg xmlns="http://www.w3.org/2000/svg" id="Layer_1" data-name="Layer 1" viewBox="0 0 24 24" width="512" height="512"><path d="M20.5,6h-1.5V3.5c0-1.93-1.57-3.5-3.5-3.5H6.5c-1.93,0-3.5,1.57-3.5,3.5v6c0,.526,.118,1.038,.34,1.504-1.856,.084-3.34,1.62-3.34,3.496v6c0,1.93,1.57,3.5,3.5,3.5H12.5c1.93,0,3.5-1.57,3.5-3.5v-1.5h4.5c1.93,0,3.5-1.57,3.5-3.5v-6c0-1.93-1.57-3.5-3.5-3.5ZM4,3.5c0-1.379,1.122-2.5,2.5-2.5H15.5c1.378,0,2.5,1.121,2.5,2.5v2.5h-6.5c-1.93,0-3.5,1.57-3.5,3.5v1.5h-3.499c-.324-.431-.501-.956-.501-1.5V3.5ZM12.5,12c.637,0,1.22,.24,1.662,.634l-.015,.013-4.797,4.797c-.717,.717-1.966,.717-2.682,0L1.861,12.639l-.014-.013c.441-.389,1.019-.626,1.652-.626H12.5Zm2.5,8.5c0,1.379-1.122,2.5-2.5,2.5H3.5c-1.378,0-2.5-1.121-2.5-2.5v-6c0-.382,.086-.744,.24-1.068l4.72,4.72c.547,.547,1.274,.849,2.048,.849s1.501-.301,2.048-.849l4.708-4.708c.15,.321,.235,.679,.235,1.057v6Zm8-5c0,1.379-1.122,2.5-2.5,2.5h-4.5v-3.5c0-1.93-1.57-3.5-3.5-3.5h-3.5v-1.5c0-1.379,1.122-2.5,2.5-2.5h9c1.378,0,2.5,1.121,2.5,2.5v6Zm-2-5.5c0,.552-.448,1-1,1s-1-.448-1-1,.448-1,1-1,1,.448,1,1Z"/></svg>
