<?xml version="1.0" encoding="UTF-8"?>
<svg xmlns="http://www.w3.org/2000/svg" id="Layer_1" data-name="Layer 1" viewBox="0 0 24 24">
  <path d="m24,5.5v11c0,.276-.224.5-.5.5s-.5-.224-.5-.5V5.5c0-.44-.192-.857-.528-1.143-.341-.291-.775-.41-1.228-.336-.709.115-1.244.797-1.244,1.586v4.893c0,.276-.224.5-.5.5s-.5-.224-.5-.5V3.5c0-.827-.673-1.5-1.5-1.5s-1.5.673-1.5,1.5v7c0,.276-.224.5-.5.5s-.5-.224-.5-.5V2.5c0-.827-.673-1.5-1.5-1.5s-1.5.673-1.5,1.5v8c0,.276-.224.5-.5.5s-.5-.224-.5-.5v-5.893c0-.789-.535-1.471-1.245-1.586-.449-.072-.885.046-1.227.336-.336.286-.529.703-.529,1.143v12c0,.199-.118.379-.301.458-.182.079-.394.043-.541-.093l-2.637-2.462c-.603-.563-1.552-.532-2.116.071-.565.604-.534,1.557.07,2.123l4.462,4.302c1.405,1.354,3.254,2.101,5.206,2.101h4.357c.276,0,.5.224.5.5s-.224.5-.5.5h-4.357c-2.212,0-4.307-.846-5.9-2.381l-4.457-4.297c-1-.938-1.052-2.523-.111-3.53.455-.487,1.073-.768,1.74-.791.647-.021,1.301.216,1.789.671l1.796,1.676V4.5c0-.734.321-1.429.881-1.905.561-.476,1.304-.678,2.035-.562.405.066.771.244,1.084.492v-.026c0-1.378,1.122-2.5,2.5-2.5,1.077,0,1.989.688,2.34,1.645.443-.396,1.021-.645,1.66-.645,1.379,0,2.5,1.122,2.5,2.5v.025c.313-.248.679-.426,1.084-.492.731-.118,1.476.085,2.035.562.56.476.881,1.17.881,1.905Zm-7,9.455c0-.229-.156-.43-.379-.485l-1.709-.427-.427-1.709c-.111-.445-.859-.445-.971,0l-.425,1.702-1.702.394c-.224.052-.384.249-.388.479s.148.432.37.491l1.716.462.429,1.715c.056.223.256.379.485.379s.43-.156.485-.379l.427-1.709,1.709-.427c.223-.056.379-.256.379-.485Zm7,5.045c0,.205-.124.388-.314.464l-2.301.92-.921,2.301c-.075.19-.26.314-.464.314s-.389-.125-.464-.314l-.923-2.306-2.308-.972c-.188-.08-.31-.266-.306-.47s.132-.386.323-.458l2.294-.868.919-2.296c.15-.38.777-.38.928,0l.921,2.301,2.301.92c.19.076.314.26.314.464Zm-1.847,0l-1.339-.536c-.127-.051-.228-.151-.278-.279l-.536-1.339-.536,1.339c-.052.13-.156.232-.287.282l-1.33.503,1.348.568c.123.052.221.151.27.275l.536,1.339.536-1.339c.051-.127.151-.228.278-.279l1.339-.536ZM2.026,8.658c.068.204.259.342.474.342s.406-.138.474-.342l.421-1.263,1.263-.421c.204-.068.342-.259.342-.474s-.138-.406-.342-.474l-1.263-.421-.421-1.263c-.136-.408-.812-.408-.948,0l-.419,1.257-1.256.393c-.205.064-.347.252-.351.468s.13.409.333.48l1.27.449.423,1.269Z"/>
</svg>
