<?xml version="1.0" encoding="UTF-8"?>
<svg xmlns="http://www.w3.org/2000/svg" id="Layer_1" data-name="Layer 1" viewBox="0 0 24 24" width="512" height="512"><path d="M22.209,10.788c-.779-1.129-1.209-2.119-1.209-2.788v-3.435c0-2.307-1.718-4.229-3.997-4.472-.863-.092-1.478-.093-1.503-.093h-7c-.025,0-.64,0-1.503,.093-2.279,.243-3.997,2.166-3.997,4.472v3.435c0,.669-.43,1.659-1.209,2.788-.518,.749-.791,1.629-.791,2.546v6.166c0,2.481,2.019,4.5,4.5,4.5h13c2.481,0,4.5-2.019,4.5-4.5v-6.166c0-.917-.273-1.797-.791-2.546ZM8.5,1h7s.173,0,.454,.014l-3.959,9.676L8.046,1.014c.281-.014,.451-.014,.454-.014Zm3,22H5.5c-1.93,0-3.5-1.57-3.5-3.5v-2.5H6.5c.276,0,.5-.224,.5-.5s-.224-.5-.5-.5H2v-2.666c0-.713,.212-1.397,.613-1.978,.633-.916,1.387-2.241,1.387-3.356v-3.435c0-1.762,1.288-3.235,3.01-3.466,.006,.03,4.49,10.999,4.49,10.999v10.901Zm10.5-7h-4.5c-.276,0-.5,.224-.5,.5s.224,.5,.5,.5h4.5v2.5c0,1.93-1.57,3.5-3.5,3.5h-6V12.099S16.984,1.13,16.99,1.099c1.722,.23,3.01,1.703,3.01,3.466v3.435c0,1.115,.754,2.441,1.387,3.356,.401,.581,.613,1.265,.613,1.978v2.666Z"/></svg>
