<?xml version="1.0" encoding="UTF-8"?>
<svg xmlns="http://www.w3.org/2000/svg" id="Layer_1" data-name="Layer 1" viewBox="0 0 24 24" width="512" height="512"><path d="M21.5,21c-.276,0-.5-.224-.5-.5V3.5c0-.276,.224-.5,.5-.5s.5,.224,.5,.5V20.5c0,.276-.224,.5-.5,.5Zm-4,0c-.276,0-.5-.224-.5-.5V3.5c0-.276,.224-.5,.5-.5s.5,.224,.5,.5V20.5c0,.276-.224,.5-.5,.5Zm-13.206,.003c-.345,0-.692-.079-1.017-.239-.788-.389-1.278-1.176-1.278-2.055V5.401c0-.914,.51-1.731,1.33-2.134,.821-.401,1.78-.303,2.501,.255l8.022,6.211c.729,.536,1.146,1.361,1.146,2.267s-.42,1.735-1.152,2.271l-8.162,6.257c-.41,.314-.898,.475-1.391,.475Zm.088-16.983c-.206,0-.414,.048-.612,.145-.482,.237-.771,.699-.771,1.236v13.309c0,.503,.269,.936,.72,1.158,.451,.222,.958,.173,1.357-.133l8.172-6.264c.48-.352,.751-.886,.751-1.471s-.271-1.119-.742-1.463l-.011-.008L5.219,4.313c-.25-.194-.542-.293-.837-.293Z"/></svg>
