<?xml version="1.0" encoding="UTF-8"?>
<svg xmlns="http://www.w3.org/2000/svg" id="Layer_1" data-name="Layer 1" viewBox="0 0 24 24" width="512" height="512"><path d="M20,0H7.5C4.977,0,3,3.075,3,7v10.5c0,1.029-.617,1.94-1.573,2.322-.866,.347-1.427,1.141-1.427,2.024,0,1.188,.966,2.153,2.153,2.153H12.5c2.481,0,4.5-2.019,4.5-4.5v-3.5h3c2.243,0,4-3.514,4-8S22.243,0,20,0Zm-4,8v11.5c0,1.93-1.57,3.5-3.5,3.5H2.153c-.636,0-1.153-.518-1.153-1.153,0-.472,.313-.901,.798-1.096,1.338-.534,2.202-1.811,2.202-3.251V7c0-3.252,1.603-6,3.5-6h10.535c-1.224,1.353-2.035,3.952-2.035,7Zm1,7v-1.655c.294,.662,.643,1.222,1.035,1.655h-1.035Zm3,0c-1.419,0-3-2.875-3-7s1.581-7,3-7,3,2.875,3,7-1.581,7-3,7Zm1-7c0,.828-.448,1.5-1,1.5s-1-.672-1-1.5,.448-1.5,1-1.5,1,.672,1,1.5Z"/></svg>
