<?xml version="1.0" encoding="UTF-8"?>
<svg xmlns="http://www.w3.org/2000/svg" id="Layer_1" data-name="Layer 1" viewBox="0 0 24 24" width="512" height="512"><path d="M12,23.66c-.36,0-.72-.13-1-.38l-3.9-3.28H3.5c-1.93,0-3.5-1.57-3.5-3.5V3.5C0,1.57,1.57,0,3.5,0H20.5c1.93,0,3.5,1.57,3.5,3.5v13c0,1.93-1.57,3.5-3.5,3.5h-3.53l-3.99,3.29c-.28,.25-.63,.37-.98,.37ZM3.5,1c-1.38,0-2.5,1.12-2.5,2.5v13c0,1.38,1.12,2.5,2.5,2.5h3.79c.12,0,.23,.04,.32,.12l4.05,3.41c.2,.18,.48,.18,.67,0l4.14-3.42c.09-.07,.2-.11,.32-.11h3.71c1.38,0,2.5-1.12,2.5-2.5V3.5c0-1.38-1.12-2.5-2.5-2.5H3.5Zm14.32,11.89c.21-.17,.25-.49,.07-.7-.17-.21-.49-.25-.7-.07-.02,.02-2.37,1.89-5.19,1.89s-5.16-1.87-5.19-1.89c-.21-.17-.53-.14-.7,.07-.17,.21-.14,.53,.07,.7,.11,.09,2.64,2.11,5.82,2.11s5.71-2.03,5.82-2.11Z"/><g><circle cx="8.75" cy="7" r="1"/><circle cx="15.25" cy="7" r="1"/></g></svg>
