<?xml version="1.0" encoding="UTF-8"?>
<svg xmlns="http://www.w3.org/2000/svg" id="Layer_1" data-name="Layer 1" width="512" height="512" viewBox="0 0 24 24"><path d="M9.5,11c-.276,0-.5-.224-.5-.5,0-1.215-.771-2.5-1.5-2.5s-1.5,1.285-1.5,2.5c0,.276-.224,.5-.5,.5s-.5-.224-.5-.5c0-1.652,1.069-3.5,2.5-3.5s2.5,1.848,2.5,3.5c0,.276-.224,.5-.5,.5Zm9.5-.5c0-1.652-1.069-3.5-2.5-3.5s-2.5,1.848-2.5,3.5c0,.276,.224,.5,.5,.5s.5-.224,.5-.5c0-1.215,.771-2.5,1.5-2.5s1.5,1.285,1.5,2.5c0,.276,.224,.5,.5,.5s.5-.224,.5-.5Zm-4,6.5c0-2.206-1.346-4-3-4s-3,1.794-3,4,1.346,4,3,4,3-1.794,3-4Zm-1,0c0,1.626-.916,3-2,3s-2-1.374-2-3,.916-3,2-3,2,1.374,2,3Zm5,6.5V14.5c0-.276-.224-.5-.5-.5s-.5,.224-.5,.5v9c0,.276,.224,.5,.5,.5s.5-.224,.5-.5Zm-13,0V14.5c0-.276-.224-.5-.5-.5s-.5,.224-.5,.5v9c0,.276,.224,.5,.5,.5s.5-.224,.5-.5Zm9.652-.065c.263-.084,.408-.365,.325-.628-.084-.264-.366-.408-.628-.325-2.159,.688-4.537,.688-6.696,0-.265-.082-.544,.062-.628,.325-.083,.263,.062,.544,.325,.628,1.178,.375,2.407,.565,3.652,.565s2.474-.19,3.652-.565Zm6.249-4.651c1.374-2.001,2.1-4.347,2.1-6.783C24,5.383,18.617,0,12,0S0,5.383,0,12c0,2.437,.726,4.782,2.1,6.783,.157,.228,.467,.286,.695,.129,.228-.156,.285-.468,.129-.695-1.258-1.833-1.924-3.983-1.924-6.217C1,5.935,5.935,1,12,1s11,4.935,11,11c0,2.233-.666,4.384-1.924,6.217-.156,.228-.099,.539,.129,.695,.087,.06,.185,.088,.283,.088,.159,0,.316-.076,.413-.217Z"/></svg>
