<?xml version="1.0" encoding="UTF-8"?>
<svg xmlns="http://www.w3.org/2000/svg" id="Layer_1" data-name="Layer 1" viewBox="0 0 24 24">
  <path d="m20.5,2h-5c-1.93,0-3.5,1.57-3.5,3.5v1.705l-3.143-5.206c-.361-.625-1.009-.999-1.731-.999s-1.37.374-1.733,1.001L.271,10.964c-.363.635-.361,1.392.006,2.025.367.633,1.023,1.011,1.755,1.011h3.26c-.189.634-.292,1.305-.292,2,0,3.86,3.141,7,7,7s7-3.14,7-7c0-.695-.102-1.366-.292-2h1.792c1.93,0,3.5-1.57,3.5-3.5v-5c0-1.93-1.57-3.5-3.5-3.5ZM2.031,13c-.371,0-.704-.191-.89-.513-.187-.321-.188-.705-.003-1.027L6.26,2.5c.363-.626,1.366-.634,1.737.007l3.92,6.494c-2.751.032-5.126,1.66-6.241,3.999h-3.645Zm9.969,9c-3.309,0-6-2.691-6-6s2.691-6,6-6,6,2.691,6,6-2.691,6-6,6Zm11-11.5c0,1.378-1.121,2.5-2.5,2.5h-2.176c-.988-2.075-2.969-3.59-5.324-3.928v-3.572c0-1.378,1.121-2.5,2.5-2.5h5c1.379,0,2.5,1.122,2.5,2.5v5Z"/>
</svg>
