<?xml version="1.0" encoding="UTF-8"?>
<svg xmlns="http://www.w3.org/2000/svg" id="Layer_1" data-name="Layer 1" viewBox="0 0 24 24" width="512" height="512"><path d="M0,5.5c0-.276,.224-.5,.5-.5H18.5c.276,0,.5,.224,.5,.5s-.224,.5-.5,.5H.5c-.276,0-.5-.224-.5-.5Zm.5,5.5H18.5c.276,0,.5-.224,.5-.5s-.224-.5-.5-.5H.5c-.276,0-.5,.224-.5,.5s.224,.5,.5,.5Zm18,4H.5c-.276,0-.5,.224-.5,.5s.224,.5,.5,.5H18.5c.276,0,.5-.224,.5-.5s-.224-.5-.5-.5Zm-2,5H.5c-.276,0-.5,.224-.5,.5s.224,.5,.5,.5H16.5c.276,0,.5-.224,.5-.5s-.224-.5-.5-.5Zm7.5,1.5c0,1.379-1.121,2.5-2.5,2.5s-2.5-1.121-2.5-2.5c0-1.208,.86-2.218,2-2.45V4.5c0-1.93-1.57-3.5-3.5-3.5H.5c-.276,0-.5-.224-.5-.5S.224,0,.5,0H17.5c2.481,0,4.5,2.019,4.5,4.5v14.55c1.14,.232,2,1.242,2,2.45Zm-1,0c0-.827-.673-1.5-1.5-1.5s-1.5,.673-1.5,1.5,.673,1.5,1.5,1.5,1.5-.673,1.5-1.5Z"/></svg>
