<?xml version="1.0" encoding="UTF-8"?>
<svg xmlns="http://www.w3.org/2000/svg" id="Layer_1" data-name="Layer 1" viewBox="0 0 24 24" width="512" height="512"><path d="M12,9C17.934,8.844,17.933,.155,12,0c-5.934,.156-5.933,8.845,0,9Zm0-8c4.615,.121,4.614,6.879,0,7-4.615-.121-4.614-6.879,0-7Zm10.384,10.046c-1.027-.857-2.372-1.212-3.689-.973l-4.209,.766c-1.073,.195-1.964,.848-2.485,1.736-.521-.888-1.413-1.541-2.486-1.736l-4.209-.766c-1.314-.239-2.66,.115-3.688,.973-1.027,.857-1.617,2.116-1.617,3.455v3.701c0,2.176,1.554,4.038,3.695,4.427l6.784,1.234c1.009,.183,2.032,.183,3.041,0l6.785-1.234c2.141-.389,3.694-2.251,3.694-4.427v-3.701c0-1.338-.589-2.597-1.616-3.455Zm-10.884,11.938c-.281-.019-.562-.054-.842-.104l-6.784-1.234c-1.666-.303-2.874-1.751-2.874-3.443v-3.701c0-1.041,.458-2.02,1.257-2.687,.799-.669,1.855-.943,2.869-.757l4.209,.766c1.254,.228,2.165,1.319,2.165,2.594v8.567Zm11.5-4.782c0,1.692-1.209,3.14-2.874,3.443l-6.785,1.234c-.279,.051-.56,.085-.841,.104V14.417c0-1.275,.91-2.366,2.165-2.594l4.209-.765c1.021-.19,2.069,.09,2.869,.756,.799,.667,1.257,1.646,1.257,2.687v3.701Z"/></svg>
