<?xml version="1.0" encoding="UTF-8"?>
<svg xmlns="http://www.w3.org/2000/svg" id="Layer_1" data-name="Layer 1" viewBox="0 0 24 24" width="512" height="512"><path d="M23,6.398c0,.833-.305,1.635-.858,2.257l-7.142,8.035v6.81c0,.183-.1,.351-.26,.438-.075,.041-.157,.062-.24,.062-.094,0-.187-.026-.269-.078l-5-3.183c-.145-.092-.231-.251-.231-.422v-3.627L1.858,8.655c-.554-.622-.858-1.424-.858-2.257,0-1.874,1.524-3.398,3.398-3.398h1.602c.276,0,.5,.224,.5,.5s-.224,.5-.5,.5h-1.602c-1.322,0-2.398,1.076-2.398,2.398,0,.588,.215,1.153,.606,1.593l7.268,8.177c.081,.092,.126,.21,.126,.332v3.543l4,2.546v-6.089c0-.122,.045-.24,.126-.332l7.268-8.177c.392-.439,.606-1.005,.606-1.593,0-1.322-1.076-2.398-2.398-2.398h-1.602c-.276,0-.5-.224-.5-.5s.224-.5,.5-.5h1.602c1.874,0,3.398,1.524,3.398,3.398Zm-12.79,.819l3.422,.552c.793,.126,1.368,.802,1.368,1.604,0,.896-.729,1.626-1.626,1.626h-2.8c-.623,0-1.204-.335-1.517-.875-.139-.239-.444-.322-.683-.183-.239,.138-.321,.443-.183,.683,.489,.849,1.402,1.375,2.382,1.375h.926v1.5c0,.276,.224,.5,.5,.5s.5-.224,.5-.5v-1.5h.874c1.448,0,2.626-1.178,2.626-2.626,0-1.297-.93-2.388-2.21-2.592l-3.422-.552c-.793-.126-1.368-.802-1.368-1.604,0-.896,.729-1.626,1.626-1.626h2.8c.623,0,1.204,.335,1.517,.875,.138,.239,.443,.32,.683,.183s.321-.443,.183-.683c-.489-.849-1.402-1.375-2.382-1.375h-.926V.5c0-.276-.224-.5-.5-.5s-.5,.224-.5,.5v1.5h-.874c-1.448,0-2.626,1.178-2.626,2.626,0,1.297,.93,2.388,2.21,2.592Z"/></svg>
