<?xml version="1.0" encoding="UTF-8"?>
<svg xmlns="http://www.w3.org/2000/svg" id="Layer_1" data-name="Layer 1" viewBox="0 0 24 24" width="512" height="512"><path d="M24,9.5v10c0,2.48-2.02,4.5-4.5,4.5H4.5c-2.48,0-4.5-2.02-4.5-4.5V7.5C0,5.02,2.02,3,4.5,3H13.5c.28,0,.5,.22,.5,.5s-.22,.5-.5,.5H4.5c-1.61,0-2.97,1.09-3.38,2.57L9.52,14.97c1.36,1.37,3.58,1.36,4.95,0l4.67-4.82c.19-.2,.51-.2,.71-.01,.2,.19,.2,.51,.01,.71l-4.67,4.83c-.88,.88-2.04,1.32-3.19,1.32s-2.3-.44-3.18-1.32L1,7.86v11.64c0,1.93,1.57,3.5,3.5,3.5h15c1.93,0,3.5-1.57,3.5-3.5V9.5c0-.28,.22-.5,.5-.5s.5,.22,.5,.5Zm-8-5.5c0-2.21,1.79-4,4-4s4,1.79,4,4-1.79,4-4,4-4-1.79-4-4Zm1,0c0,1.65,1.35,3,3,3s3-1.35,3-3-1.35-3-3-3-3,1.35-3,3Z"/></svg>
