<?xml version="1.0" encoding="UTF-8"?>
<svg xmlns="http://www.w3.org/2000/svg" id="Layer_1" data-name="Layer 1" viewBox="0 0 24 24" width="512" height="512"><path d="M12,24C5.383,24,0,18.617,0,12S5.383,0,12,0s12,5.383,12,12-5.383,12-12,12ZM12,1C5.935,1,1,5.935,1,12s4.935,11,11,11,11-4.935,11-11S18.065,1,12,1Zm.742,11.938c.159-.088,.258-.256,.258-.438V5.5c0-.276-.224-.5-.5-.5s-.5,.224-.5,.5v6.098l-3.235-2.021c-.234-.147-.542-.076-.689,.159-.146,.233-.075,.542,.159,.688l4,2.5c.081,.051,.173,.076,.265,.076,.083,0,.167-.021,.242-.062Z"/></svg>
