<?xml version="1.0" encoding="UTF-8"?>
<svg xmlns="http://www.w3.org/2000/svg" id="Layer_1" data-name="Layer 1" width="512" height="512" viewBox="0 0 24 24"><path d="M10,24c-2.671,0-5.183-1.04-7.071-2.929S0,16.67,0,14C0,8.581,6.715,1.654,7.001,1.362c.739-.857,1.842-1.362,3.005-1.362h.002c1.164,0,2.268,.506,3.028,1.388,.264,.27,6.964,7.193,6.964,12.61,0,2.672-1.04,5.184-2.929,7.072-1.89,1.889-4.4,2.929-7.071,2.929Zm.006-23c-.872,0-1.699,.378-2.27,1.038-.088,.092-6.736,6.95-6.736,11.962,0,2.403,.937,4.664,2.636,6.364,1.7,1.7,3.96,2.636,6.364,2.636s4.664-.936,6.364-2.636,2.636-3.96,2.636-6.365c0-5.011-6.634-11.866-6.7-11.935-.592-.684-1.42-1.063-2.293-1.064h0Zm11.494,4c-1.379,0-2.5-1.122-2.5-2.5s1.121-2.5,2.5-2.5,2.5,1.122,2.5,2.5-1.121,2.5-2.5,2.5Zm0-4c-.827,0-1.5,.673-1.5,1.5s.673,1.5,1.5,1.5,1.5-.673,1.5-1.5-.673-1.5-1.5-1.5Z"/></svg>
