<?xml version="1.0" encoding="UTF-8"?>
<svg xmlns="http://www.w3.org/2000/svg" id="Layer_1" data-name="Layer 1" width="512" height="512" viewBox="0 0 24 24"><path d="M10.356,24H5.5c-.276,0-.5-.224-.5-.5s.224-.5,.5-.5c2.083,0,4.357-.827,5.352-1.626,.184-.147,.151-.349,.136-.406-.018-.069-.08-.232-.286-.271-4.858-.905-8.68-5.163-8.702-9.694-.005-1.124,.18-2.256,.549-3.363C4.05,3.141,8.612,0,13.644,0h4.856c.276,0,.5,.224,.5,.5s-.224,.5-.5,.5c-2.083,0-4.357,.827-5.352,1.626-.184,.147-.151,.349-.136,.406,.018,.069,.08,.232,.286,.271,4.858,.905,8.68,5.163,8.702,9.694,.005,1.124-.18,2.256-.549,3.363-1.5,4.497-6.062,7.639-11.094,7.639Zm-.325-1h.325c4.607,0,8.78-2.86,10.146-6.955,.335-1.004,.502-2.027,.498-3.043-.022-4.539-4.026-7.996-7.886-8.716h0c-.529-.099-.94-.485-1.072-1.01-.135-.536,.049-1.084,.479-1.43,.358-.287,.856-.581,1.447-.847h-.325C9.037,1,4.864,3.86,3.498,7.955c-.335,1.004-.502,2.027-.498,3.043,.022,4.539,4.026,7.996,7.886,8.716,.529,.099,.94,.485,1.072,1.01,.135,.536-.049,1.084-.479,1.43-.358,.287-.856,.581-1.447,.847Zm1.968-8c-1.654,0-3-1.346-3-3s1.346-3,3-3,3,1.346,3,3-1.346,3-3,3Zm0-5c-1.103,0-2,.897-2,2s.897,2,2,2,2-.897,2-2-.897-2-2-2Z"/></svg>
