<?xml version="1.0" encoding="UTF-8"?>
<svg xmlns="http://www.w3.org/2000/svg" id="Layer_1" data-name="Layer 1" viewBox="0 0 24 24" width="512" height="512"><path d="m21.652,2.356C20.135.838,18.116.002,15.969.002s-4.166.836-5.684,2.354c-2.265,2.265-3.019,7.665-3.266,10.682-.075.91.188,1.803.729,2.517l-3.206,3.206c-.245-1.008-1.154-1.758-2.236-1.758C1.039,17.003.008,18.035.008,19.304c0,1.302,1.095,2.352,2.402,2.297,0,.034-.002.068-.002.103,0,1.268,1.031,2.3,2.3,2.3s2.3-1.032,2.3-2.3c0-1.082-.75-1.991-1.758-2.235l3.206-3.206c.633.479,1.408.74,2.21.74.102,0,.203-.004.305-.012.877-.072,2.226-.211,3.669-.466.261-.046.44-.287.41-.549-.027-.236-.042-.477-.042-.721,0-3.446,2.804-6.25,6.25-6.25.698,0,1.385.115,2.04.341.144.051.303.031.431-.05s.213-.216.229-.368c.27-2.44-.571-4.834-2.306-6.569ZM2.809,20.495c-.87.372-1.801-.308-1.801-1.192,0-.717.583-1.3,1.3-1.3s1.301.583,1.301,1.3c0,.167-.036.335-.107.5l-.692.692Zm3.199,1.208c0,.717-.583,1.3-1.3,1.3s-1.3-.583-1.3-1.3c0-.167.036-.334.106-.499l.693-.694c.87-.369,1.8.31,1.8,1.193Zm16.997-13.489c-.569-.141-1.154-.212-1.747-.212-3.998,0-7.25,3.252-7.25,7.25,0,.122.003.242.009.362-1.233.201-2.363.315-3.128.378-.789.069-1.553-.216-2.104-.768s-.833-1.32-.769-2.104c.19-2.319.861-7.942,2.977-10.057,1.329-1.329,3.097-2.062,4.977-2.062s3.647.732,4.977,2.062c1.376,1.376,2.109,3.226,2.06,5.151Z"/></svg>
