<?xml version="1.0" encoding="UTF-8"?>
<svg xmlns="http://www.w3.org/2000/svg" id="Layer_1" data-name="Layer 1" viewBox="0 0 24 24" width="512" height="512"><path d="M12,0C5.383,0,0,5.383,0,12s5.383,12,12,12,12-5.383,12-12S18.617,0,12,0Zm0,23c-6.065,0-11-4.935-11-11S5.935,1,12,1s11,4.935,11,11-4.935,11-11,11Zm5-7.5c0,.276-.224,.5-.5,.5H7.5c-.276,0-.5-.224-.5-.5s.224-.5,.5-.5h9c.276,0,.5,.224,.5,.5Zm0-5.5c0,.552-.448,1-1,1s-1-.448-1-1,.448-1,1-1,1,.448,1,1Zm-9-1c.552,0,1,.448,1,1s-.448,1-1,1-1-.448-1-1,.448-1,1-1Zm1.5-2h-3c-.276,0-.5-.224-.5-.5s.224-.5,.5-.5h3c.276,0,.5,.224,.5,.5s-.224,.5-.5,.5Zm8.293-.895c.157,.227,.1,.538-.128,.695-.226,.158-.539,.1-.695-.129-.017-.023-.495-.672-1.47-.672-1.329,0-2.03,1.672-2.037,1.688-.079,.193-.266,.311-.463,.311-.062,0-.126-.012-.188-.036-.255-.104-.379-.395-.276-.65,.039-.094,.957-2.312,2.964-2.312,1.514,0,2.262,1.06,2.293,1.105Z"/></svg>
