<?xml version="1.0" encoding="UTF-8"?>
<svg xmlns="http://www.w3.org/2000/svg" id="Layer_1" data-name="Layer 1" viewBox="0 0 24 24" width="512" height="512"><path d="M17.5,0H6.5C4.019,0,2,2.019,2,4.5V20.5c0,1.93,1.57,3.5,3.5,3.5h12c2.481,0,4.5-2.019,4.5-4.5V4.5c0-2.481-2.019-4.5-4.5-4.5Zm3.5,4.5v12.5H7V1h5V9.848c0,.502,.307,.93,.782,1.091,.476,.16,.979,.007,1.284-.392l.934-1.223,.934,1.223c.306,.402,.82,.551,1.284,.392,.475-.161,.782-.589,.782-1.091V1.036c1.694,.243,3,1.704,3,3.464ZM13,1h4V9.848c0,.09-.056,.127-.103,.144-.046,.015-.114,.02-.168-.051l-1.331-1.743c-.189-.248-.605-.248-.795,0l-1.331,1.743c-.056,.072-.123,.067-.168,.052-.047-.016-.103-.054-.103-.144V1ZM3,4.5c0-1.76,1.306-3.221,3-3.464v15.964h-.5c-.978,0-1.864,.404-2.5,1.053V4.5Zm14.5,18.5H5.5c-3.286-.059-3.284-4.942,0-5h15.5v1.5c0,1.93-1.57,3.5-3.5,3.5Z"/></svg>
