<?xml version="1.0" encoding="UTF-8"?>
<svg xmlns="http://www.w3.org/2000/svg" id="Layer_1" data-name="Layer 1" viewBox="0 0 24 24" width="512" height="512"><path d="M16,4.5V1.5c0-.276,.224-.5,.5-.5s.5,.224,.5,.5v3c0,.276-.224,.5-.5,.5s-.5-.224-.5-.5Zm-4,1.5c.276,0,.5-.224,.5-.5V1.5c0-.276-.224-.5-.5-.5s-.5,.224-.5,.5V5.5c0,.276,.224,.5,.5,.5Zm-4.5-1c.276,0,.5-.224,.5-.5V1.511c0-.276-.224-.5-.5-.5s-.5,.224-.5,.5v2.989c0,.276,.224,.5,.5,.5Zm15.656,7.253c-.076,.08-.721,.747-1.918,1.52,.575,.409,1.04,.961,1.352,1.618,.993,2.09,.113,4.605-1.961,5.607-2.151,1.04-4.686,2.001-8.629,2.001s-6.477-.962-8.629-2.001c-2.074-1.001-2.954-3.517-1.961-5.607,.313-.659,.779-1.211,1.355-1.621-1.148-.738-1.788-1.384-1.913-1.516C.279,11.649-.022,10.857,0,10.026c.024-.832,.37-1.604,.975-2.175,1.234-1.167,3.198-1.123,4.378,.099,.013,.013,2.149,2.05,6.646,2.05s6.642-2.04,6.664-2.061c1.205-1.204,3.172-1.224,4.386-.044,1.234,1.2,1.281,3.115,.107,4.358Zm-3.287,1.926c-.797-.281-1.653-.232-2.415,.135-1.473,.711-2.964,1.186-5.455,1.186s-3.981-.474-5.455-1.186c-.434-.209-.9-.315-1.368-.315-.352,0-.706,.06-1.048,.18-.803,.283-1.449,.866-1.817,1.641-.758,1.596-.088,3.515,1.493,4.278,2.045,.988,4.454,1.902,8.194,1.902s6.149-.914,8.194-1.902c1.581-.764,2.112-2.624,1.493-4.277-.495-1.321-1.775-1.626-1.818-1.641Zm2.483-5.568c-.824-.801-2.161-.783-2.982,.036-.021,.022-2.466,2.353-7.37,2.353s-7.334-2.324-7.357-2.347c-.809-.836-2.142-.867-2.98-.075-.41,.387-.645,.912-.661,1.477-.016,.564,.188,1.102,.576,1.512,.074,.078,.896,.879,2.213,1.673l.007-.003c1.049-.37,2.18-.308,3.182,.177,1.389,.67,2.713,1.086,5.02,1.086s3.632-.416,5.02-1.086c.992-.479,2.111-.545,3.151-.188,0,0,1.559-.919,2.258-1.659,.794-.843,.761-2.14-.077-2.955Z"/></svg>
