<?xml version="1.0" encoding="UTF-8"?>
<svg xmlns="http://www.w3.org/2000/svg" id="Layer_1" data-name="Layer 1" viewBox="0 0 24 24" width="512" height="512"><path d="m19,9c0-2.757-2.243-5-5-5h-5.5c-1.93,0-3.5,1.57-3.5,3.5v12c0,.276.224.5.5.5s.5-.224.5-.5v-5.5h8c.063,0,.126-.002.189-.004l2.864,5.728c.088.175.265.276.447.276.075,0,.151-.017.224-.053.247-.124.347-.424.224-.671l-2.715-5.43c2.163-.55,3.768-2.514,3.768-4.846Zm-5,4H6v-5.5c0-1.378,1.121-2.5,2.5-2.5h5.5c2.206,0,4,1.794,4,4s-1.794,4-4,4ZM19.5,0H4.5C2.019,0,0,2.019,0,4.5v15c0,2.481,2.019,4.5,4.5,4.5h15c2.481,0,4.5-2.019,4.5-4.5V4.5c0-2.481-2.019-4.5-4.5-4.5Zm3.5,19.5c0,1.93-1.57,3.5-3.5,3.5H4.5c-1.93,0-3.5-1.57-3.5-3.5V4.5c0-1.93,1.57-3.5,3.5-3.5h15c1.93,0,3.5,1.57,3.5,3.5v15Z"/></svg>
