<?xml version="1.0" encoding="UTF-8"?>
<svg xmlns="http://www.w3.org/2000/svg" id="Layer_1" data-name="Layer 1" viewBox="0 0 24 24" width="512" height="512"><path d="m21.5,19c-.596,0-1.136.218-1.566.567l-3.702-3.459,5.465-5.107h1.802c.276,0,.5-.224.5-.5s-.224-.5-.5-.5h-13.396c-1.468,0-2.846-.718-3.688-1.92L.909.213C.752-.014.438-.068.213.091-.013.249-.068.561.091.787l5.507,7.867c.855,1.223,2.168,2.026,3.618,2.264l5.552,5.189-3.702,3.459c-.43-.349-.97-.567-1.566-.567-1.379,0-2.5,1.121-2.5,2.5s1.121,2.5,2.5,2.5,2.5-1.121,2.5-2.5c0-.42-.114-.811-.298-1.159l3.798-3.549,3.798,3.549c-.184.348-.298.738-.298,1.159,0,1.379,1.121,2.5,2.5,2.5s2.5-1.121,2.5-2.5-1.121-2.5-2.5-2.5Zm-12,4c-.827,0-1.5-.673-1.5-1.5s.673-1.5,1.5-1.5,1.5.673,1.5,1.5-.673,1.5-1.5,1.5Zm1.268-12h9.465l-4.732,4.423-4.732-4.423Zm10.732,12c-.827,0-1.5-.673-1.5-1.5s.673-1.5,1.5-1.5,1.5.673,1.5,1.5-.673,1.5-1.5,1.5Z"/></svg>
