<?xml version="1.0" encoding="UTF-8"?>
<svg xmlns="http://www.w3.org/2000/svg" id="Layer_1" data-name="Layer 1" viewBox="0 0 24 24" width="512" height="512"><path d="M12,5c-1.103,0-2,.897-2,2s.897,2,2,2,2-.897,2-2-.897-2-2-2Zm0,3c-.551,0-1-.448-1-1s.449-1,1-1,1,.448,1,1-.449,1-1,1Zm10.017-2.169l-1.017-.686V1.5c0-.276-.224-.5-.5-.5s-.5,.224-.5,.5v2.97L14.517,.771c-1.528-1.032-3.504-1.032-5.034,0L1.983,5.831c-1.242,.838-1.983,2.232-1.983,3.729v9.939c0,2.481,2.019,4.5,4.5,4.5h3c.827,0,1.5-.673,1.5-1.5V13.5c0-.827,.673-1.5,1.5-1.5h3c.827,0,1.5,.673,1.5,1.5v9c0,.827,.673,1.5,1.5,1.5h3c2.481,0,4.5-2.019,4.5-4.5V9.561c0-1.497-.741-2.892-1.983-3.729ZM8,22.5c0,.275-.224,.5-.5,.5h-3c-1.76,0-3.221-1.306-3.464-3h6.964v2.5Zm0-3.5H1v-3h7v3Zm0-5.5v1.5H1v-3h7.501c-.315,.418-.501,.938-.501,1.5Zm11.5,9.5h-3c-.276,0-.5-.225-.5-.5v-2.5h6.964c-.243,1.694-1.704,3-3.464,3Zm3.5-4h-7v-3h7v3Zm0-4h-7v-1.5c0-.562-.187-1.082-.501-1.5h7.501v3Zm0-4H1v-1.439c0-1.164,.577-2.249,1.542-2.901L10.042,1.599c1.189-.803,2.726-.803,3.915,0l7.5,5.061c.966,.652,1.542,1.737,1.542,2.901v1.439Z"/></svg>
