<?xml version="1.0" encoding="UTF-8"?>
<svg xmlns="http://www.w3.org/2000/svg" id="Layer_1" data-name="Layer 1" viewBox="0 0 24 24" width="512" height="512"><path d="m14,12c0-1.103-.897-2-2-2s-2,.897-2,2,.897,2,2,2,2-.897,2-2Zm-3,0c0-.552.448-1,1-1s1,.448,1,1-.448,1-1,1-1-.448-1-1Zm-4-2c1.103,0,2-.897,2-2s-.897-2-2-2-2,.897-2,2,.897,2,2,2Zm0-3c.552,0,1,.448,1,1s-.448,1-1,1-1-.448-1-1,.448-1,1-1Zm13,0c1.654,0,3-1.346,3-3s-1.346-3-3-3-3,1.346-3,3,1.346,3,3,3Zm0-5c1.103,0,2,.897,2,2s-.897,2-2,2-2-.897-2-2,.897-2,2-2Zm4,10c0,6.617-5.383,12-12,12S0,18.617,0,12,5.383,0,12,0c1.245,0,2.474.19,3.651.565.264.084.409.365.325.628s-.365.408-.628.325c-1.08-.344-2.207-.519-3.349-.519C5.935,1,1,5.935,1,12s4.935,11,11,11,11-4.935,11-11c0-1.142-.175-2.269-.519-3.349-.084-.263.062-.544.325-.628.261-.082.544.062.628.325.375,1.178.565,2.406.565,3.651Zm-12-7c3.859,0,7,3.141,7,7s-3.141,7-7,7c-3.638,0-6.704-2.839-6.98-6.462-.021-.275.186-.516.461-.537.245-.028.516.185.537.461.236,3.105,2.864,5.538,5.982,5.538,3.309,0,6-2.691,6-6s-2.691-6-6-6c-.156,0-.312.007-.465.018-.252.021-.515-.188-.534-.464-.02-.275.188-.515.464-.534.177-.013.355-.02.535-.02Z"/></svg>
