<?xml version="1.0" encoding="UTF-8"?>
<svg xmlns="http://www.w3.org/2000/svg" id="Layer_1" data-name="Layer 1" viewBox="0 0 24 24" width="512" height="512"><path d="M10.992,14.544c.048,.272-.133,.532-.404,.58-3.817,.68-6.588,3.992-6.588,7.876v.5c0,.276-.224,.5-.5,.5s-.5-.224-.5-.5v-.5c0-4.369,3.117-8.096,7.412-8.86,.277-.046,.532,.133,.58,.404Zm12.861,9.31c-.098,.098-.226,.146-.354,.146s-.256-.049-.354-.146L.146,.854C-.049,.658-.049,.342,.146,.146S.658-.049,.854,.146L6.038,5.331c.334-2.995,2.88-5.331,5.962-5.331,3.309,0,6,2.691,6,6,0,3.082-2.336,5.628-5.331,5.962l11.184,11.184c.195,.195,.195,.512,0,.707ZM7.009,6.302l4.688,4.688c.1,.006,.201,.009,.302,.009,2.757,0,5-2.243,5-5S14.757,1,12,1,7,3.243,7,6c0,.101,.003,.202,.009,.302Z"/></svg>
