<?xml version="1.0" encoding="UTF-8"?>
<svg xmlns="http://www.w3.org/2000/svg" id="Layer_1" data-name="Layer 1" width="512" height="512" viewBox="0 0 24 24"><path d="M12,5c.534,0,1.036-.208,1.414-.586s.586-.88,.586-1.414c0-1.156-1.188-2.526-1.295-2.644-.328-.445-1.11-.41-1.382-.035-.135,.152-1.323,1.522-1.323,2.682,0,.532,.208,1.033,.586,1.411s.88,.586,1.414,.586Zm0-3.933c.414,.49,1,1.378,1,1.933,0,.267-.104,.518-.293,.707-.379,.377-1.035,.377-1.414,0-.188-.189-.293-.439-.293-.704,0-.546,.564-1.412,1-1.936Zm-6,3.933c.534,0,1.036-.208,1.414-.586s.586-.88,.586-1.414c0-1.156-1.188-2.526-1.295-2.644-.328-.445-1.11-.41-1.382-.035-.135,.152-1.323,1.522-1.323,2.682,0,.532,.208,1.033,.586,1.411s.88,.586,1.414,.586Zm0-3.933c.414,.49,1,1.378,1,1.933,0,.267-.104,.518-.293,.707-.379,.377-1.035,.377-1.414,0-.188-.189-.293-.439-.293-.704,0-.546,.564-1.412,1-1.936Zm12,3.933c.534,0,1.036-.208,1.414-.586s.586-.88,.586-1.414c0-1.156-1.188-2.526-1.295-2.644-.328-.445-1.11-.41-1.382-.035-.135,.152-1.323,1.522-1.323,2.682,0,.532,.208,1.033,.586,1.411s.88,.586,1.414,.586Zm0-3.933c.414,.49,1,1.378,1,1.933,0,.267-.104,.518-.293,.707-.379,.377-1.035,.377-1.414,0-.188-.189-.293-.439-.293-.704,0-.546,.564-1.412,1-1.936Zm4.144,11.801l-2.058-3.601c-.8-1.398-2.297-2.268-3.907-2.268H7.821c-1.61,0-3.107,.869-3.907,2.268l-2.058,3.601c-.561,.98-.856,2.096-.856,3.226v1.406c0,1.393,.819,2.599,2,3.162v.838c0,1.379,1.121,2.5,2.5,2.5s2.5-1.121,2.5-2.5v-.5h8v.5c0,1.379,1.121,2.5,2.5,2.5s2.5-1.121,2.5-2.5v-.838c1.181-.563,2-1.769,2-3.162v-1.406c0-1.13-.296-2.245-.856-3.226ZM4.783,9.764c.621-1.088,1.785-1.764,3.038-1.764h8.357c1.253,0,2.417,.676,3.038,1.764l2.058,3.601c.117,.205,.221,.418,.311,.636H2.415c.09-.218,.193-.43,.311-.636l2.058-3.601Zm2.217,11.736c0,.827-.673,1.5-1.5,1.5s-1.5-.673-1.5-1.5v-.536c.163,.023,.33,.036,.5,.036h2.5v.5Zm13,0c0,.827-.673,1.5-1.5,1.5s-1.5-.673-1.5-1.5v-.5h2.5c.17,0,.337-.012,.5-.036v.536Zm2-4c0,1.379-1.121,2.5-2.5,2.5H4.5c-1.379,0-2.5-1.121-2.5-2.5v-1.406c0-.368,.038-.735,.111-1.094h2.889v1.5c0,.276,.224,.5,.5,.5s.5-.224,.5-.5v-1.5h12v1.5c0,.276,.224,.5,.5,.5s.5-.224,.5-.5v-1.5h2.889c.073,.359,.111,.725,.111,1.094v1.406Z"/></svg>
