<?xml version="1.0" encoding="UTF-8"?>
<svg xmlns="http://www.w3.org/2000/svg" id="Layer_1" data-name="Layer 1" viewBox="0 0 24 24" width="512" height="512"><path d="m14.854,14.146c.195.195.195.512,0,.707-.098.098-.226.146-.354.146s-.256-.049-.354-.146l-2.5-2.5c-.094-.094-.146-.221-.146-.354v-5.5c0-.276.224-.5.5-.5s.5.224.5.5v5.293l2.354,2.354Zm3.146,5.849s0,.003,0,.005v3.5c0,.276-.224.5-.5.5s-.5-.224-.5-.5v-2.842c-1.472.853-3.18,1.342-5,1.342s-3.528-.489-5-1.342v2.842c0,.276-.224.5-.5.5s-.5-.224-.5-.5v-3.5s0-.003,0-.005c-2.427-1.826-4-4.73-4-7.995s1.573-6.169,4-7.995c0-.002,0-.003,0-.005V.5c0-.276.224-.5.5-.5s.5.224.5.5v2.842c1.472-.853,3.18-1.342,5-1.342s3.528.489,5,1.342V.5c0-.276.224-.5.5-.5s.5.224.5.5v3.5s0,.003,0,.005c2.427,1.826,4,4.73,4,7.995s-1.573,6.169-4,7.995Zm3-7.995c0-4.962-4.038-9-9-9S3,7.038,3,12s4.038,9,9,9,9-4.037,9-9Z"/></svg>
