<?xml version="1.0" encoding="UTF-8"?>
<svg xmlns="http://www.w3.org/2000/svg" id="Layer_1" data-name="Layer 1" viewBox="0 0 24 24" width="512" height="512"><path d="M20.75,13c-1.12,0-2.15,.63-2.75,1.58-.59-.96-1.61-1.58-2.75-1.58-1.79,0-3.25,1.58-3.25,3.52,0,2.51,3.04,5.62,4.83,7.07,.34,.27,.75,.41,1.17,.41s.83-.14,1.17-.41c1.79-1.44,4.83-4.55,4.83-7.07,0-1.94-1.46-3.52-3.25-3.52Zm-2.21,9.81c-.31,.25-.77,.25-1.08,0-1.79-1.44-4.46-4.3-4.46-6.29,0-1.39,1.01-2.52,2.25-2.52,1.08,0,2.04,.87,2.25,2.03,.04,.24,.25,.41,.49,.41s.45-.17,.49-.41c.21-1.16,1.18-2.03,2.27-2.03,1.24,0,2.25,1.13,2.25,2.52,0,1.98-2.67,4.85-4.46,6.29Zm.96-20.81h-7.03c-.23,0-.46-.05-.67-.16L8.65,.26c-.34-.17-.73-.26-1.12-.26h-3.03C2.02,0,0,2.02,0,4.5v13c0,2.48,2.02,4.5,4.5,4.5h7c.28,0,.5-.22,.5-.5s-.22-.5-.5-.5H4.5c-1.93,0-3.5-1.57-3.5-3.5V7H23v4.5c0,.28,.22,.5,.5,.5s.5-.22,.5-.5V6.5c0-2.48-2.02-4.5-4.5-4.5ZM1,4.5c0-1.93,1.57-3.5,3.5-3.5h3.03c.23,0,.46,.05,.67,.16l3.16,1.58c.34,.17,.73,.26,1.12,.26h7.03c1.76,0,3.22,1.31,3.46,3H1v-1.5Z"/></svg>
