<?xml version="1.0" encoding="UTF-8"?>
<svg xmlns="http://www.w3.org/2000/svg" id="Layer_1" data-name="Layer 1" viewBox="0 0 24 24" width="512" height="512"><path d="M16.5,10h4c1.378,0,2.5-1.122,2.5-2.5V3.5c0-1.378-1.122-2.5-2.5-2.5h-4c-1.378,0-2.5,1.122-2.5,2.5V7.5c0,1.378,1.122,2.5,2.5,2.5Zm-1.5-6.5c0-.827,.673-1.5,1.5-1.5h4c.827,0,1.5,.673,1.5,1.5V7.5c0,.827-.673,1.5-1.5,1.5h-4c-.827,0-1.5-.673-1.5-1.5V3.5Zm8.73,16.37l-3.38-5.519c-.374-.689-1.065-1.102-1.85-1.102s-1.476,.412-1.836,1.079l-3.407,5.564c-.357,.658-.341,1.436,.042,2.079,.383,.644,1.059,1.028,1.808,1.028h6.787c.749,0,1.425-.384,1.808-1.028,.383-.644,.398-1.421,.028-2.102Zm-.888,1.59c-.201,.338-.556,.54-.949,.54h-6.787c-.393,0-.748-.202-.949-.54-.201-.337-.209-.745-.035-1.068l3.407-5.564c.196-.362,.559-.578,.971-.578s.774,.216,.984,.601l3.38,5.519c.187,.346,.179,.753-.022,1.091ZM10.854,4.318c.195,.195,.195,.512,0,.707-.098,.098-.226,.146-.354,.146s-.256-.049-.354-.146L6.561,1.439c-.16-.16-.353-.274-.561-.344V23.5c0,.276-.224,.5-.5,.5s-.5-.224-.5-.5V1.096c-.208,.07-.401,.184-.561,.344L.854,5.025c-.195,.195-.512,.195-.707,0s-.195-.512,0-.707L3.732,.732c.943-.944,2.592-.944,3.535,0l3.586,3.585Z"/></svg>
