<?xml version="1.0" encoding="UTF-8"?>
<svg xmlns="http://www.w3.org/2000/svg" id="Layer_1" data-name="Layer 1" viewBox="0 0 24 24" width="512" height="512"><path d="m11.306,11.407l2.308.972.922,2.306c.076.19.26.314.464.314s.388-.125.464-.314l.92-2.301,2.301-.92c.19-.076.314-.26.314-.464s-.125-.388-.314-.464l-2.301-.92-.92-2.301c-.152-.38-.776-.38-.929,0l-.918,2.296-2.294.868c-.191.073-.319.254-.323.458s.117.391.306.47Zm2.871-.939c.131-.05.235-.152.288-.282l.536-1.339.536,1.339c.051.127.151.228.279.279l1.339.536-1.339.536c-.127.051-.228.151-.279.279l-.536,1.339-.536-1.339c-.05-.124-.147-.223-.27-.275l-1.348-.568,1.33-.503ZM5.37,6.445l1.716.461.429,1.715c.056.223.255.379.485.379s.429-.156.485-.379l.427-1.709,1.709-.427c.223-.056.379-.255.379-.485s-.156-.429-.379-.485l-1.709-.427-.427-1.709c-.111-.445-.858-.445-.97,0l-.426,1.703-1.702.393c-.223.052-.383.249-.387.479-.004.229.148.432.37.492ZM17.5,0H6.5C4.019,0,2,2.019,2,4.5v16c0,1.93,1.57,3.5,3.5,3.5h12c2.481,0,4.5-2.019,4.5-4.5V4.5c0-2.481-2.019-4.5-4.5-4.5ZM3,4.5c0-1.93,1.57-3.5,3.5-3.5h11c1.93,0,3.5,1.57,3.5,3.5v12.5H5.5c-.978,0-1.864.404-2.5,1.053V4.5Zm14.5,18.5H5.5c-1.378,0-2.5-1.122-2.5-2.5s1.122-2.5,2.5-2.5h15.5v1.5c0,1.93-1.57,3.5-3.5,3.5Z"/></svg>
