<?xml version="1.0" encoding="UTF-8"?>
<svg xmlns="http://www.w3.org/2000/svg" id="Layer_1" data-name="Layer 1" viewBox="0 0 24 24" width="512" height="512"><path d="M9,7c0-.55,.45-1,1-1s1,.45,1,1-.45,1-1,1-1-.45-1-1Zm15-.5v7c0,2.48-2.02,4.5-4.5,4.5H9.5c-2.48,0-4.5-2.02-4.5-4.5V6.5c0-2.48,2.02-4.5,4.5-4.5h10c2.48,0,4.5,2.02,4.5,4.5ZM6.88,15.82l6.17-6.17c.82-.82,2.15-.82,2.97,0l1.04,1.04c.42,.41,1.14,.42,1.55,0l4.39-4.39c-.1-1.84-1.63-3.3-3.49-3.3H9.5c-1.93,0-3.5,1.57-3.5,3.5v7c0,.89,.33,1.7,.88,2.32Zm16.12-2.32V7.71l-3.69,3.69c-.79,.79-2.18,.79-2.97,0l-1.04-1.04c-.43-.43-1.13-.43-1.55,0l-6.11,6.11c.54,.34,1.18,.54,1.86,.54h10c1.93,0,3.5-1.57,3.5-3.5Zm-6.19,6.62c-.64,.56-1.46,.88-2.31,.88H4.5c-1.93,0-3.5-1.57-3.5-3.5v-7c0-1.25,.67-2.41,1.75-3.03,.24-.14,.32-.44,.18-.68-.14-.24-.44-.32-.68-.18-1.39,.8-2.25,2.3-2.25,3.9v7c0,2.48,2.02,4.5,4.5,4.5H14.5c1.1,0,2.15-.4,2.98-1.12,.21-.18,.23-.5,.04-.71s-.5-.23-.71-.04Z"/></svg>
