<?xml version="1.0" encoding="UTF-8"?>
<svg xmlns="http://www.w3.org/2000/svg" id="Layer_1" data-name="Layer 1" viewBox="0 0 24 24" width="512" height="512"><path d="m13,12c0,.552-.448,1-1,1s-1-.448-1-1,.448-1,1-1,1,.448,1,1Zm11,2.722c0,.499-.28.941-.731,1.154-.449.212-.963.148-1.343-.165-.179-.147-.373-.311-.577-.484-.999-.846-2.241-1.899-3.273-2.224-.04.219,0,.402.044.598.258,1.161.612,2.75.208,4.199-1.009,3.62-4.712,6.158-9.027,6.199-.007,0-.015,0-.022,0h-.081v-.002c-.465-.028-.872-.302-1.074-.729-.212-.447-.148-.962.165-1.343.147-.179.311-.372.483-.576.847-1,1.901-2.243,2.225-3.276-.229-.037-.407.002-.596.043-1.071.238-2.539.564-4.107.189C2.163,17.32,0,13.018,0,9.278c0-.499.28-.941.731-1.154.447-.213.962-.148,1.343.165.179.147.373.311.577.484.999.846,2.241,1.899,3.273,2.224-.026-.547-.504-3.112-.091-4.749C6.762,2.57,10.417,0,14.722,0c.499,0,.941.28,1.154.731.212.447.148.962-.165,1.343-.147.179-.311.373-.484.577-.846.999-1.899,2.241-2.224,3.273h.408c1.114-.233,2.641-.552,4.353-.21,4.092.818,6.234,5.15,6.235,9.007Zm-1,0c0-3.449-1.867-7.314-5.432-8.027-1.513-.303-2.865-.019-3.952.208l-.366.076c-.364.074-.731-.046-.979-.322-.253-.281-.336-.667-.222-1.031.385-1.226,1.51-2.554,2.415-3.621.17-.2.331-.39.475-.565.096-.117.056-.236.034-.281-.022-.048-.092-.159-.25-.159-3.847,0-7.103,2.26-7.918,5.492-.261,1.036-.101,2.885.175,4.257.073.365-.047.731-.322.979-.281.252-.665.336-1.031.222-1.226-.385-2.554-1.51-3.621-2.415-.2-.17-.39-.331-.565-.475-.115-.095-.236-.055-.281-.034-.048.022-.159.092-.159.25,0,3.348,1.899,7.19,5.526,8.056,1.345.323,2.627.037,3.657-.193.196-.043.7-.141.77-.141.294,0,.574.123.776.348.252.28.335.664.222,1.025-.385,1.227-1.511,2.556-2.417,3.624-.169.2-.33.389-.473.563-.096.117-.056.236-.034.281.022.046.088.153.238.159,3.883-.027,7.208-2.268,8.1-5.468.336-1.208.014-2.656-.221-3.713-.045-.203-.087-.394-.123-.568-.073-.365.047-.731.322-.979.282-.253.666-.335,1.031-.222,1.226.385,2.554,1.51,3.621,2.415.2.17.39.331.565.475.116.096.236.056.281.034.048-.022.159-.092.159-.25Z"/></svg>
