<?xml version="1.0" encoding="UTF-8"?>
<svg xmlns="http://www.w3.org/2000/svg" id="Layer_1" data-name="Layer 1" viewBox="0 0 24 24" width="512" height="512"><path d="M17.5,0H6.5C4.019,0,2,2.019,2,4.5v15c0,2.481,2.019,4.5,4.5,4.5h11c2.481,0,4.5-2.019,4.5-4.5V4.5c0-2.481-2.019-4.5-4.5-4.5Zm3.5,19.5c0,1.93-1.57,3.5-3.5,3.5H6.5c-1.93,0-3.5-1.57-3.5-3.5V4.5c0-1.93,1.57-3.5,3.5-3.5h11c1.93,0,3.5,1.57,3.5,3.5v15ZM14.5,4h-5c-1.378,0-2.5,1.122-2.5,2.5v12c0,.827,.673,1.5,1.5,1.5h7c.827,0,1.5-.673,1.5-1.5V6.5c0-1.378-1.122-2.5-2.5-2.5Zm-6.5,3h8v5H8V7Zm1.5-2h5c.652,0,1.208,.418,1.414,1h-7.828c.206-.582,.762-1,1.414-1Zm6,14h-7c-.276,0-.5-.224-.5-.5v-5.5h8v5.5c0,.276-.224,.5-.5,.5Z"/></svg>
