<?xml version="1.0" encoding="UTF-8"?>
<svg xmlns="http://www.w3.org/2000/svg" id="Layer_1" data-name="Layer 1" viewBox="0 0 24 24">
  <path d="m18.387,10.368l-2.387-.521V2.607c0-1.273-.896-2.379-2.084-2.573-.729-.115-1.475.086-2.035.562-.56.476-.881,1.17-.881,1.905v6.253l-.106-.023c-.953-.208-1.938.023-2.697.635-.484.39-.837.9-1.029,1.472-.006.006-.013.012-.02.019l-4.221,4.192c-.596.592-.925,1.381-.927,2.221-.002.841.325,1.631.92,2.226l2.308,2.308c1.416,1.417,3.299,2.197,5.303,2.197h6.97c2.481,0,4.5-2.019,4.5-4.5v-4.721c0-2.136-1.52-3.991-3.613-4.412Zm2.613,9.132c0,1.93-1.57,3.5-3.5,3.5h-6.97c-1.736,0-3.368-.676-4.596-1.904l-2.308-2.308c-.405-.405-.628-.944-.627-1.517s.226-1.11.632-1.513l3.368-3.346v5.088c0,.276.224.5.5.5s.5-.224.5-.5v-5.636c0-.672.3-1.299.823-1.72.523-.422,1.199-.58,1.857-.438l.713.156c.147.032.302-.004.42-.099.118-.095.187-.238.187-.39V2.5c0-.44.192-.857.528-1.143.341-.29.775-.41,1.228-.336.709.115,1.244.797,1.244,1.586v7.642c0,.235.164.438.394.488l2.784.608s.006.001.009.002c1.63.326,2.813,1.77,2.813,3.432v4.721Z"/>
</svg>
