<?xml version="1.0" encoding="UTF-8"?>
<svg xmlns="http://www.w3.org/2000/svg" id="Layer_1" data-name="Layer 1" viewBox="0 0 24 24" width="512" height="512"><path d="M19.5,0H4.5C2.019,0,0,2.019,0,4.5v15c0,2.481,2.019,4.5,4.5,4.5h15c2.481,0,4.5-2.019,4.5-4.5V4.5c0-2.481-2.019-4.5-4.5-4.5Zm3.5,19.5c0,1.93-1.57,3.5-3.5,3.5H4.5c-1.93,0-3.5-1.57-3.5-3.5V4.5c0-1.93,1.57-3.5,3.5-3.5h15c1.93,0,3.5,1.57,3.5,3.5v15Z"/><path d="M17.087,9H6.913c-.577,0-1.075,.333-1.3,.87-.224,.535-.106,1.146,.3,1.557l5.087,5.154c.267,.271,.622,.419,1,.419s.733-.149,.999-.419l5.088-5.154c.406-.411,.523-1.022,.3-1.557-.225-.536-.723-.87-1.3-.87Zm.289,1.724l-5.089,5.154c-.154,.157-.419,.157-.575,0l-5.088-5.154c-.185-.188-.114-.406-.088-.469,.031-.077,.133-.255,.377-.255h10.174c.244,0,.346,.179,.377,.255,.026,.062,.097,.281-.088,.469Z"/></svg>
