<?xml version="1.0" encoding="UTF-8"?>
<svg xmlns="http://www.w3.org/2000/svg" id="Layer_1" data-name="Layer 1" viewBox="0 0 24 24" width="512" height="512"><path d="M19,13.127V4.5c0-2.481-2.019-4.5-4.5-4.5h-5c-2.481,0-4.5,2.019-4.5,4.5V13.127c-1.723,.445-3,2.013-3,3.873v6.5c0,.276,.224,.5,.5,.5s.5-.224,.5-.5v-5.5H21v5.5c0,.276,.224,.5,.5,.5s.5-.224,.5-.5v-6.5c0-1.861-1.277-3.428-3-3.873Zm-1-8.627V13h-3V1.036c1.694,.243,3,1.704,3,3.464ZM10,13V1h4V13h-4ZM6,4.5c0-1.76,1.306-3.221,3-3.464V13h-3V4.5Zm-3,12.5c0-1.654,1.346-3,3-3h12c1.654,0,3,1.346,3,3H3Z"/></svg>
