<?xml version="1.0" encoding="UTF-8"?>
<svg xmlns="http://www.w3.org/2000/svg" id="Layer_1" data-name="Layer 1" viewBox="0 0 24 24" width="512" height="512"><path d="M23.716,14.608c-1.206,5.44-6.131,9.389-11.711,9.392h-.006c-6.619-.002-11.999-5.385-11.999-12S5.38,.002,11.995,0h.006c3.968,.001,7.671,1.958,9.912,5.235,.155,.228,.097,.539-.131,.695-.226,.157-.537,.099-.695-.13C19.033,2.795,15.637,1.001,12.003,1c-6.069,0-11.003,4.935-11.003,11s4.934,10.999,10.998,11c5.12,0,9.636-3.621,10.741-8.608,.061-.268,.318-.438,.597-.38,.27,.06,.439,.327,.38,.597Zm-14.716-4.608c0-.552-.448-1-1-1s-1,.448-1,1,.448,1,1,1,1-.448,1-1Zm8,0c0-.552-.448-1-1-1s-1,.448-1,1,.448,1,1,1,1-.448,1-1Zm6.331-1.295c.835,.899,.783,2.309-.114,3.145l-6.155,5.787c-.19,.179-.483,.183-.678,.007-.019-.016-1.858-1.644-4.384-1.644s-4.646,1.854-4.667,1.873c-.096,.085-.215,.126-.333,.126-.138,0-.274-.056-.373-.167-.184-.206-.166-.521,.04-.706,.097-.086,2.414-2.127,5.333-2.127,.393,0,.77,.033,1.128,.09l7.06-6.501c.896-.832,2.308-.781,3.144,.116Zm-2.465,.619l-6.57,6.05c1.11,.363,1.949,.905,2.396,1.237l.804-.756-.644-.701c-.187-.204-.174-.52,.03-.707,.203-.187,.52-.174,.706,.03l.636,.693,1.316-1.238-.562-.603c-.188-.202-.177-.519,.025-.707,.203-.188,.519-.176,.707,.025l.558,.599,1.274-1.198-.535-.575c-.188-.202-.177-.519,.025-.707,.203-.188,.519-.177,.707,.025l.531,.571,.26-.244c.497-.462,.525-1.238,.065-1.733-.462-.495-1.237-.522-1.732-.062Z"/></svg>
