<?xml version="1.0" encoding="UTF-8"?>
<svg xmlns="http://www.w3.org/2000/svg" id="Layer_1" data-name="Layer 1" viewBox="0 0 24 24" width="512" height="512"><path d="M6,10.5c0,.276-.224,.5-.5,.5s-.5-.224-.5-.5c0-1.652,1.069-3.5,2.5-3.5s2.5,1.848,2.5,3.5c0,.276-.224,.5-.5,.5s-.5-.224-.5-.5c0-1.215-.771-2.5-1.5-2.5s-1.5,1.285-1.5,2.5Zm10.5-3.5c-1.431,0-2.5,1.848-2.5,3.5,0,.276,.224,.5,.5,.5s.5-.224,.5-.5c0-1.215,.771-2.5,1.5-2.5s1.5,1.285,1.5,2.5c0,.276,.224,.5,.5,.5s.5-.224,.5-.5c0-1.652-1.069-3.5-2.5-3.5Zm7.5,5c0,6.617-5.383,12-12,12S0,18.617,0,12,5.383,0,12,0s12,5.383,12,12Zm-1,0c0-6.065-4.935-11-11-11S1,5.935,1,12s4.935,11,11,11,11-4.935,11-11Zm-5.467,3.912c.717,1.185,.678,2.968-.644,3.767-.37,.224-.762,.323-1.15,.323-.998,0-1.97-.652-2.489-1.511,0,0-.871-1.455-.883-1.499-.12,.006-.242,.009-.367,.009-2.918,0-5.236-2.04-5.333-2.127-.206-.184-.224-.5-.04-.706,.183-.207,.499-.225,.706-.041,.021,.019,2.138,1.874,4.667,1.874,2.593,0,3.807-1.538,3.857-1.603,.102-.131,.269-.204,.43-.195,.167,.011,.317,.104,.4,.248l.846,1.462Zm-.86,.509l-.521-.9c-.508,.447-1.406,1.06-2.722,1.335l.675,1.117c.473,.782,1.473,1.327,2.267,.851,.792-.479,.773-1.621,.3-2.402Z"/></svg>
