<?xml version="1.0" encoding="UTF-8"?>
<svg xmlns="http://www.w3.org/2000/svg" id="Layer_1" data-name="Layer 1" viewBox="0 0 24 24" width="512" height="512"><path d="m23.854,23.146l-3.564-3.564c.69-.314,1.291-.795,1.763-1.416.884-1.165,1.167-2.641.776-4.048l-2.048-7.444c-1.092-3.93-4.704-6.674-8.782-6.674-2.998,0-5.752,1.429-7.448,3.843L.854.146C.658-.049.342-.049.146.146S-.049.658.146.854l23,23c.098.098.226.146.354.146s.256-.049.354-.146c.195-.195.195-.512,0-.707ZM11.999,1c3.631,0,6.846,2.443,7.818,5.941l2.048,7.444c.307,1.105.084,2.263-.609,3.177-.449.591-1.047,1.021-1.735,1.251L5.27,4.563c1.499-2.234,4-3.563,6.729-3.563Zm4.001,18H5.642c-1.11,0-2.145-.497-2.84-1.363-.694-.865-.955-1.983-.721-3.043l1.99-7.215c.073-.266-.083-.542-.349-.615-.263-.071-.542.083-.615.349l-1.996,7.24c-.306,1.382.026,2.807.911,3.909.885,1.104,2.204,1.738,3.62,1.738h1.931c.217,2.242,2.111,4,4.409,4,2.449,0,4.519-2.061,4.519-4.5,0-.276-.224-.5-.5-.5Zm-4.019,4c-1.746,0-3.191-1.311-3.403-3h6.884c-.252,1.67-1.744,3-3.481,3Z"/></svg>
