<?xml version="1.0" encoding="UTF-8"?>
<svg xmlns="http://www.w3.org/2000/svg" id="Layer_1" data-name="Layer 1" width="512" height="512" viewBox="0 0 24 24"><path d="M19,3c0-.552,.448-1,1-1s1,.448,1,1-.448,1-1,1-1-.448-1-1Zm-3,4c.552,0,1-.448,1-1s-.448-1-1-1-1,.448-1,1,.448,1,1,1Zm6,3c.552,0,1-.448,1-1s-.448-1-1-1-1,.448-1,1,.448,1,1,1Zm-6.104,9h-2.78c-.048,0-.076-.025-.092-.047-.012-.015-.022-.035-.023-.062l1.926-3.13c.145-.234,.071-.543-.164-.688-.231-.146-.542-.072-.688,.164,0,0-2.014,3.283-2.026,3.324-.104,.341-.04,.701,.172,.987,.213,.286,.539,.45,.896,.45h2.78c.041,0,.071,.019,.091,.055s.018,.072-.013,.119l-1.898,3.062c-.146,.235-.073,.543,.161,.688,.082,.051,.173,.075,.264,.075,.167,0,.33-.084,.425-.236l1.891-3.05c.225-.34,.245-.774,.052-1.133-.192-.358-.564-.581-.972-.581Zm4.589-5.338c-.409-.109-.722-.382-.857-.747-.914-2.466-3.286-4.031-5.926-3.907-3.051,.147-5.552,2.654-5.694,5.705-.024,.518,.018,1.035,.124,1.539,.05,.232-.051,.458-.244,.548-1.464,.678-2.202,2.314-1.753,3.892,.297,1.045,1.13,1.878,2.175,2.176,.287,.08,.575,.125,.858,.132,.332,.009,2.333,0,2.333,0,.276,0,.5-.224,.5-.5s-.224-.5-.5-.5c-1.435,.005-1.79,.014-2.308,0-.2-.005-.406-.037-.611-.094-.702-.2-1.286-.784-1.486-1.487-.317-1.118,.181-2.233,1.212-2.711,.62-.287,.95-.972,.803-1.663-.089-.42-.124-.853-.104-1.284,.117-2.5,2.246-4.632,4.745-4.754,2.2-.106,4.178,1.202,4.939,3.257,.25,.674,.81,1.171,1.536,1.365,1.973,.53,3.143,2.527,2.665,4.547-.315,1.328-1.376,2.393-2.701,2.712-.336,.081-.673,.113-1.006,.112l-.684-.006c-.274,0-.498,.221-.5,.496s.22,.502,.496,.504l.674,.006c.415,0,.834-.04,1.253-.14,1.688-.406,3.039-1.763,3.44-3.454,.604-2.549-.88-5.071-3.379-5.743Zm-15.705,2.718c-2.588-1.741-4.054-4.868-3.733-7.966C1.424,4.756,4.337,1.683,7.973,1.106c1.129-.182,2.438-.127,3.502,.141,.249,.062,.437,.251,.502,.504,.064,.247-.006,.497-.187,.667-1.365,1.281-3.242,3.296-3.78,5.984-.055,.271,.121,.534,.393,.588,.261,.053,.533-.12,.588-.393,.477-2.38,2.112-4.163,3.483-5.451,.452-.424,.628-1.039,.471-1.646-.156-.604-.626-1.072-1.226-1.224C10.512-.026,9.088-.083,7.815,.118,3.74,.766,.475,4.211,.052,8.311c-.358,3.461,1.278,6.954,4.169,8.899,.086,.058,.183,.085,.279,.085,.16,0,.318-.077,.415-.221,.154-.229,.093-.54-.136-.694Z"/></svg>
