<?xml version="1.0" encoding="UTF-8"?>
<svg xmlns="http://www.w3.org/2000/svg" id="Layer_1" data-name="Layer 1" viewBox="0 0 24 24">
  <path d="m23.268,1.466l-.733-.733c-.865-.865-2.219-.98-3.243-.249l-7.582,6.229-1.337,1.353c-.286-.039-.576-.066-.872-.066-3.584,0-6.5,2.916-6.5,6.5,0,.289.025.571.062.85l-2.183,2.115c-1.17,1.17-1.17,3.073,0,4.243l1.414,1.414c.566.567,1.32.879,2.121.879s1.555-.312,2.115-.873l2.242-2.171c.24.027.482.044.729.044,3.584,0,6.5-2.916,6.5-6.5,0-.24-.015-.475-.04-.708l1.445-1.465,6.161-7.685c.677-.991.552-2.327-.298-3.176ZM5.828,22.414c-.756.756-2.072.756-2.828,0l-1.414-1.414c-.78-.78-.78-2.049-.006-2.823l1.736-1.682c.65,2.009,2.25,3.593,4.27,4.217l-1.758,1.702Zm3.672-2.414c-3.032,0-5.5-2.467-5.5-5.5s2.468-5.5,5.5-5.5,5.5,2.467,5.5,5.5-2.468,5.5-5.5,5.5Zm13.263-15.953l-6.104,7.615-.94.951c-.615-2.024-2.194-3.63-4.199-4.288l.862-.875,7.517-6.173c.599-.427,1.409-.357,1.929.162l.733.733c.51.51.585,1.311.202,1.875Z"/>
  <path d="m12.5,14h-2.5v-2.5c0-.276-.224-.5-.5-.5s-.5.224-.5.5v2.5h-2.5c-.276,0-.5.224-.5.5s.224.5.5.5h2.5v2.5c0,.276.224.5.5.5s.5-.224.5-.5v-2.5h2.5c.276,0,.5-.224.5-.5s-.224-.5-.5-.5Z"/>
</svg>
