<?xml version="1.0" encoding="UTF-8"?>
<svg xmlns="http://www.w3.org/2000/svg" id="Layer_1" data-name="Layer 1" viewBox="0 0 24 24" width="512" height="512"><path d="m24,12c0,4.15-.627,12-3,12s-2.864-7.894-2.94-9.476c-.013-.276.2-.511.476-.523.256-.04.509.198.523.475.293,6.071,1.491,8.524,1.941,8.524.679,0,2-3.883,2-11s-1.321-11-2-11c-.645,0-1.935,3.708-1.998,10.505-.002.274-.226.495-.5.495h-1.872c-.872,0-1.692-.464-2.142-1.211l-1.843-3.062c-.017-.029-.035-.057-.054-.084l-2.8,6.067c-.084.183-.266.29-.455.29-.07,0-.141-.015-.209-.046-.251-.116-.36-.413-.245-.664l2.877-6.235c-.129-.036-.263-.055-.4-.055h-2.593l-2.673,5.849c-.269.656-.022,1.429.594,1.818l5.061,2.899c.156.089.251.254.251.434v5.5c0,.276-.224.5-.5.5s-.5-.224-.5-.5v-5.21l-4.828-2.767c-1.046-.66-1.457-1.948-.996-3.072l2.491-5.451h-1.931c-.572,0-1.085.317-1.341.829l-1.447,2.895c-.124.247-.424.349-.671.224-.247-.124-.347-.424-.224-.671l1.447-2.895c.426-.853,1.283-1.382,2.236-1.382h5.624c.872,0,1.692.464,2.142,1.211l1.843,3.062c.27.448.762.727,1.285.727h1.379c.085-4.31.794-11,2.99-11,2.373,0,3,7.85,3,12Zm-19.311,4.779c-.257-.103-.547.021-.65.278-.229.572-.776.942-1.393.942H.5c-.276,0-.5.224-.5.5s.224.5.5.5h2.146c1.028,0,1.939-.616,2.321-1.571.103-.256-.022-.547-.278-.649ZM9,2.5c0-1.379,1.122-2.5,2.5-2.5s2.5,1.121,2.5,2.5-1.122,2.5-2.5,2.5-2.5-1.121-2.5-2.5Zm1,0c0,.827.673,1.5,1.5,1.5s1.5-.673,1.5-1.5-.673-1.5-1.5-1.5-1.5.673-1.5,1.5Z"/></svg>
