<?xml version="1.0" encoding="UTF-8"?>
<svg xmlns="http://www.w3.org/2000/svg" id="Layer_1" data-name="Layer 1" viewBox="0 0 24 24" width="512" height="512"><path d="M24,12c0,2.668-.857,5.194-2.479,7.305-.167,.219-.481,.26-.701,.092-.219-.168-.26-.482-.092-.701,1.486-1.935,2.271-4.249,2.271-6.695,0-6.065-4.935-11-11-11S1,5.935,1,12c0,4.42,2.628,8.395,6.696,10.126,.254,.108,.373,.401,.264,.655-.081,.19-.266,.305-.46,.305-.065,0-.132-.013-.196-.04C2.867,21.158,0,16.822,0,12,0,5.383,5.383,0,12,0s12,5.383,12,12ZM15,5c-.552,0-1,.448-1,1s.448,1,1,1,1-.448,1-1-.448-1-1-1Zm-5,1c0-.552-.448-1-1-1s-1,.448-1,1,.448,1,1,1,1-.448,1-1Zm2.5,10.5v-6c0-.276-.224-.5-.5-.5s-.5,.224-.5,.5v6c0,.276,.224,.5,.5,.5s.5-.224,.5-.5Zm6.797,4.098c-.222-.163-.535-.116-.699,.105l-1.009,1.367c-.478,.591-1.187,.93-1.945,.93h-3.144c-.827,0-1.5-.673-1.5-1.5v-1c0-.827,.673-1.5,1.5-1.5h1c.827,0,1.5,.673,1.5,1.5,0,.276,.224,.5,.5,.5s.5-.224,.5-.5c0-1.379-1.122-2.5-2.5-2.5h-1c-1.378,0-2.5,1.121-2.5,2.5v1c0,1.379,1.122,2.5,2.5,2.5h3.144c1.062,0,2.055-.475,2.736-1.318l1.022-1.385c.164-.222,.117-.535-.105-.699Zm-5.262-8.422c.078,.196,.266,.315,.465,.315,.062,0,.124-.012,.185-.035,1.559-.618,2.605-1.544,2.648-1.583,.206-.184,.224-.5,.04-.705-.184-.207-.5-.226-.706-.041-.01,.008-.965,.85-2.352,1.399-.256,.102-.382,.393-.28,.649Zm-4.329-.641c-1.399-.551-2.364-1.4-2.374-1.408-.207-.185-.522-.166-.706,.041-.184,.206-.166,.521,.04,.705,.044,.039,1.101,.974,2.673,1.592,.06,.024,.122,.035,.183,.035,.199,0,.388-.12,.465-.317,.101-.257-.025-.547-.282-.647Z"/></svg>
