<?xml version="1.0" encoding="UTF-8"?>
<svg xmlns="http://www.w3.org/2000/svg" id="Layer_1" data-name="Layer 1" viewBox="0 0 24 24" width="512" height="512"><path d="m14,12c0,.552-.448,1-1,1s-1-.448-1-1,.448-1,1-1,1,.448,1,1Zm-3,6c-.552,0-1,.448-1,1s.448,1,1,1,1-.448,1-1-.448-1-1-1Zm.25-14c-.552,0-1,.448-1,1s.448,1,1,1,1-.448,1-1-.448-1-1-1Zm5.75,16.5v-.5h2.5c2.481,0,4.5-2.019,4.5-4.5v-3c0-.735-.321-1.429-.881-1.905-.56-.476-1.305-.679-2.035-.561-1.188.194-2.084,1.3-2.084,2.574v1.893c0,.276-.225.5-.5.5h-1c-.275,0-.5-.224-.5-.5V5.193C17,2.536,15.019.265,12.49.023c-1.436-.138-2.799.317-3.853,1.276-1.041.946-1.638,2.295-1.638,3.701v4.5c0,.276-.225.5-.5.5h-1c-.275,0-.5-.224-.5-.5v-1.893c0-1.274-.896-2.38-2.084-2.574-.729-.119-1.475.086-2.035.561-.56.476-.881,1.17-.881,1.905v3c0,2.481,2.019,4.5,4.5,4.5h2.5v5.5c0,1.93,1.57,3.5,3.5,3.5h3c1.93,0,3.5-1.57,3.5-3.5ZM2.756,6.021c.709.115,1.244.797,1.244,1.586v1.893c0,.827.673,1.5,1.5,1.5h1c.827,0,1.5-.673,1.5-1.5v-4.5c0-1.125.478-2.204,1.31-2.96.844-.768,1.945-1.13,3.085-1.021,2.021.193,3.605,2.027,3.605,4.175v9.307c0,.827.673,1.5,1.5,1.5h1c.827,0,1.5-.673,1.5-1.5v-1.893c0-.789.535-1.471,1.244-1.586h0c.451-.073.885.046,1.227.335.337.286.529.703.529,1.144v3c0,1.93-1.57,3.5-3.5,3.5h-3c-.276,0-.5.224-.5.5v1c0,1.378-1.121,2.5-2.5,2.5h-3c-1.379,0-2.5-1.122-2.5-2.5v-6c0-.276-.224-.5-.5-.5h-3c-1.93,0-3.5-1.57-3.5-3.5v-3c0-.441.192-.858.529-1.144.275-.234.612-.357.969-.357.085,0,.171.007.258.021Zm18.408,4.506h.01-.01Z"/></svg>
