<?xml version="1.0" encoding="UTF-8"?>
<svg xmlns="http://www.w3.org/2000/svg" id="Layer_1" data-name="Layer 1" width="512" height="512" viewBox="0 0 24 24"><path d="M23,4h-1.5c-.275,0-.5-.225-.5-.5s.225-.5,.5-.5h1.5c.59,0,.855-.261,.974-.48,.186-.343,.082-.723-.062-.943-.781-1.189-2.194-1.782-3.606-1.509-1.388,.27-2.491,1.387-2.745,2.778-.009,.052-.017,.103-.023,.154H6.537c-.006-.051-.013-.102-.023-.154C6.261,1.454,5.157,.337,3.769,.067,2.357-.205,.945,.386,.163,1.576c-.145,.22-.249,.6-.063,.943,.097,.18,.352,.48,.974,.48h1.426c.276,0,.5,.225,.5,.5s-.224,.5-.5,.5H1.074c-.622,0-.877,.301-.974,.48-.186,.344-.082,.724,.063,.943,.656,.997,1.755,1.574,2.923,1.574,.226,0,.455-.021,.683-.065,1.389-.27,2.492-1.387,2.746-2.78,.009-.051,.016-.102,.023-.152h11c.006,.051,.013,.103,.023,.154,.254,1.392,1.357,2.509,2.745,2.778,.229,.044,.458,.065,.684,.065,1.168,0,2.268-.577,2.923-1.574,.145-.221,.248-.601,.062-.943-.118-.22-.384-.48-.974-.48Zm-17.439-.499c0,.156-.001,.312-.03,.473-.178,.976-.98,1.788-1.953,1.977-.972,.188-1.914-.174-2.491-.95h1.413c.827,0,1.5-.673,1.5-1.5s-.673-1.5-1.5-1.5H1.086c.578-.777,1.52-1.14,2.492-.95,.972,.188,1.775,1.001,1.952,1.975,.029,.161,.031,.318,.031,.477Zm14.935,2.449c-.972-.188-1.774-1.001-1.952-1.976-.03-.162-.031-.318-.031-.475s0-.312,.031-.475c.178-.975,.98-1.787,1.952-1.976,.171-.033,.34-.05,.507-.05,.785,0,1.509,.359,1.984,1h-1.487c-.827,0-1.5,.673-1.5,1.5s.673,1.5,1.5,1.5h1.488c-.577,.777-1.521,1.141-2.492,.95Zm-.41,3.317c-.8-1.398-2.297-2.268-3.907-2.268H7.821c-1.61,0-3.107,.869-3.907,2.268l-2.058,3.601c-.561,.981-.856,2.097-.856,3.226v1.406c0,1.393,.819,2.599,2,3.162v.838c0,1.379,1.122,2.5,2.5,2.5s2.5-1.121,2.5-2.5v-.5h8v.5c0,1.379,1.121,2.5,2.5,2.5s2.5-1.121,2.5-2.5v-.838c1.181-.563,2-1.769,2-3.162v-1.406c0-1.13-.296-2.245-.856-3.226l-2.058-3.601Zm-15.304,.496c.622-1.088,1.787-1.764,3.039-1.764h8.357c1.253,0,2.417,.676,3.038,1.764l2.058,3.601c.117,.205,.221,.418,.311,.636H2.414c.09-.218,.193-.43,.31-.636l2.058-3.601Zm2.218,11.736c0,.827-.673,1.5-1.5,1.5s-1.5-.673-1.5-1.5v-.536c.163,.023,.33,.036,.5,.036h2.5v.5Zm13,0c0,.827-.673,1.5-1.5,1.5s-1.5-.673-1.5-1.5v-.5h2.5c.17,0,.337-.012,.5-.036v.536Zm2-4c0,1.379-1.121,2.5-2.5,2.5H4.5c-1.378,0-2.5-1.121-2.5-2.5v-1.406c0-.368,.038-.735,.111-1.094h2.889v1.5c0,.276,.224,.5,.5,.5s.5-.224,.5-.5v-1.5h12v1.5c0,.276,.224,.5,.5,.5s.5-.224,.5-.5v-1.5h2.889c.073,.359,.111,.725,.111,1.094v1.406Z"/></svg>
