<?xml version="1.0" encoding="UTF-8"?>
<svg xmlns="http://www.w3.org/2000/svg" id="Layer_1" data-name="Layer 1" viewBox="0 0 24 24" width="512" height="512"><path d="m18.5,10h-5.798c-.753,0-1.39-.46-1.621-1.173-.23-.708.011-1.449.615-1.888l6.007-4.678c.39-.284.302-.668.266-.78-.076-.233-.292-.482-.67-.482h-5.798c-.276,0-.5-.224-.5-.5s.224-.5.5-.5h5.798c.753,0,1.39.46,1.621,1.173.23.708-.011,1.449-.615,1.888l-6.007,4.678c-.39.284-.302.668-.266.78.076.233.292.482.67.482h5.798c.276,0,.5.224.5.5s-.224.5-.5.5ZM1.469,21.03l8.67-6.25c.749-.54,1.051-1.452.769-2.324-.286-.885-1.078-1.457-2.019-1.457H.518c-.276,0-.5.224-.5.5s.224.5.5.5h8.372c.605,0,.948.395,1.067.764.116.359.071.864-.402,1.206L.884,20.22c-.749.54-1.051,1.452-.769,2.323.286.886,1.078,1.457,2.019,1.457h8.372c.276,0,.5-.224.5-.5s-.224-.5-.5-.5H2.134c-.605,0-.948-.395-1.067-.764-.116-.359-.071-.864.402-1.206Zm22.031-.03h-4.932c-.386,0-.513-.299-.543-.391-.029-.09-.101-.4.226-.639l5.108-4.149c.557-.405.779-1.088.567-1.74-.213-.657-.8-1.081-1.494-1.081h-4.932c-.276,0-.5.224-.5.5s.224.5.5.5h4.932c.386,0,.513.299.543.391.029.09.101.4-.226.639l-5.108,4.149c-.557.405-.779,1.088-.567,1.74.213.657.8,1.081,1.494,1.081h4.932c.276,0,.5-.224.5-.5s-.224-.5-.5-.5Z"/></svg>
