<?xml version="1.0" encoding="UTF-8"?>
<svg xmlns="http://www.w3.org/2000/svg" id="Layer_1" data-name="Layer 1" width="512" height="512" viewBox="0 0 24 24"><path d="M2.257,9.298l-1.634-.413c-.269-.07-.54,.093-.607,.362-.067,.268,.095,.539,.362,.606l1.635,.413c.166,.042,.306,.146,.394,.294,.088,.147,.113,.32,.071,.487l-.413,1.635c-.067,.268,.095,.539,.362,.606,.269,.067,.54-.095,.607-.362l.413-1.634c.066-.264,.067-.534,.004-.791l2.19-1.331c.352,.391,.824,.67,1.358,.779v2.595c-.252,.078-.483,.218-.675,.409l-1.192,1.191c-.195,.195-.195,.512,0,.707s.512,.195,.707,0l1.192-1.191c.242-.244,.666-.244,.909,0l1.192,1.191c.098,.098,.226,.146,.354,.146s.256-.049,.354-.146c.195-.195,.195-.512,0-.707l-1.191-1.191c-.185-.185-.406-.321-.648-.4v-2.605c.53-.108,1-.385,1.351-.771l2.219,1.325c-.062,.256-.062,.525,.005,.788l.413,1.635c.067,.268,.341,.432,.607,.362,.268-.067,.43-.339,.362-.606l-.413-1.636c-.042-.166-.017-.339,.071-.486,.088-.147,.228-.252,.395-.294l1.634-.413c.268-.067,.43-.339,.362-.606-.067-.269-.339-.431-.607-.362l-1.634,.413c-.254,.063-.484,.185-.676,.352l-2.228-1.33c.089-.257,.138-.532,.138-.819,0-.297-.052-.581-.147-.846l2.216-1.322c.196,.177,.434,.305,.697,.37l1.634,.413c.266,.067,.539-.094,.607-.362,.067-.268-.095-.539-.362-.606l-1.635-.413c-.167-.042-.306-.146-.395-.294-.088-.147-.113-.32-.071-.487l.413-1.635c.067-.268-.095-.539-.362-.606-.272-.07-.54,.095-.607,.362l-.413,1.634c-.064,.254-.067,.514-.011,.762l-2.232,1.332c-.349-.376-.811-.645-1.332-.751V2.445c.242-.079,.463-.215,.648-.4l1.192-1.191c.195-.195,.195-.512,0-.707s-.512-.195-.707,0l-1.192,1.191c-.242,.244-.666,.244-.909,0L5.84,.146c-.195-.195-.512-.195-.707,0s-.195,.512,0,.707l1.191,1.191c.192,.192,.423,.331,.676,.409v2.596c-.524,.107-.99,.379-1.339,.759l-2.203-1.338c.056-.248,.054-.509-.011-.763l-.413-1.635c-.067-.268-.339-.431-.607-.362-.268,.067-.43,.339-.362,.606l.413,1.636c.042,.166,.017,.339-.071,.486-.088,.147-.228,.252-.395,.294l-1.634,.413c-.268,.067-.43,.339-.362,.606,.068,.27,.341,.432,.607,.362l1.634-.413c.263-.065,.5-.192,.695-.368l2.192,1.331c-.093,.261-.144,.542-.144,.835,0,.283,.047,.555,.134,.809l-2.203,1.34c-.192-.167-.421-.287-.674-.351Zm5.243-3.298c.508,0,1.5,.308,1.5,1.5s-.985,1.5-1.5,1.5c-.827,0-1.5-.673-1.5-1.5s.673-1.5,1.5-1.5Zm15.5-.5c0-1.379-1.122-2.5-2.5-2.5-1.106,0-2.193,.717-2.528,1.667-.092,.26-.377,.396-.638,.305-.26-.092-.397-.378-.305-.639,.478-1.352,1.938-2.333,3.472-2.333,1.93,0,3.5,1.57,3.5,3.5s-1.57,3.5-3.5,3.5h-3c-.276,0-.5-.224-.5-.5s.224-.5,.5-.5h3c1.378,0,2.5-1.121,2.5-2.5Zm1,10c0,1.93-1.57,3.5-3.5,3.5-1.534,0-2.994-.981-3.472-2.333-.092-.261,.045-.547,.305-.639,.261-.093,.546,.045,.638,.305,.335,.95,1.422,1.667,2.528,1.667,1.378,0,2.5-1.121,2.5-2.5s-1.122-2.5-2.5-2.5h-5c-.276,0-.5-.224-.5-.5s.224-.5,.5-.5h5c1.93,0,3.5,1.57,3.5,3.5Zm-9,5c0,1.93-1.57,3.5-3.5,3.5-1.534,0-2.994-.981-3.472-2.333-.092-.261,.045-.547,.305-.639,.262-.092,.546,.045,.638,.305,.335,.95,1.422,1.667,2.528,1.667,1.378,0,2.5-1.121,2.5-2.5s-1.122-2.5-2.5-2.5H.5c-.276,0-.5-.224-.5-.5s.224-.5,.5-.5H11.5c1.93,0,3.5,1.57,3.5,3.5Z"/></svg>
