<?xml version="1.0" encoding="UTF-8"?>
<svg xmlns="http://www.w3.org/2000/svg" id="Layer_1" data-name="Layer 1" viewBox="0 0 24 24">
  <path d="m20,10c0-3.438-2.185-6.368-5.235-7.497.981-.361,1.891-.91,2.674-1.636.203-.188.214-.504.027-.706-.188-.203-.505-.216-.707-.026-1.298,1.203-2.988,1.866-4.759,1.866s-3.461-.663-4.759-1.866c-.203-.189-.52-.177-.707.026-.188.202-.176.519.027.706.783.727,1.693,1.275,2.674,1.636-3.051,1.129-5.235,4.059-5.235,7.497,0,4.242,3.322,7.714,7.5,7.975v3.025h-2c-.276,0-.5.224-.5.5s.224.5.5.5h2v1.5c0,.276.224.5.5.5s.5-.224.5-.5v-1.5h2c.276,0,.5-.224.5-.5s-.224-.5-.5-.5h-2v-3.025c4.178-.26,7.5-3.732,7.5-7.975Zm-15,0c0-3.859,3.14-7,7-7s7,3.141,7,7-3.14,7-7,7-7-3.141-7-7Z"/>
</svg>
