<?xml version="1.0" encoding="UTF-8"?>
<svg xmlns="http://www.w3.org/2000/svg" id="Layer_1" data-name="Layer 1" viewBox="0 0 24 24" width="512" height="512"><path d="m19.5,7H4.5c-2.481,0-4.5,2.019-4.5,4.5v8c0,2.481,2.019,4.5,4.5,4.5h15c2.481,0,4.5-2.019,4.5-4.5v-8c0-2.481-2.019-4.5-4.5-4.5Zm-9.5,16h-5v-2.5c0-1.378,1.121-2.5,2.5-2.5s2.5,1.122,2.5,2.5v2.5Zm9,0h-5v-2.5c0-1.378,1.121-2.5,2.5-2.5s2.5,1.122,2.5,2.5v2.5Zm4-3.5c0,1.76-1.306,3.221-3,3.464v-2.464c0-1.93-1.57-3.5-3.5-3.5s-3.5,1.57-3.5,3.5v2.5h-2v-2.5c0-1.93-1.57-3.5-3.5-3.5s-3.5,1.57-3.5,3.5v2.464c-1.694-.243-3-1.704-3-3.464v-8c0-1.93,1.57-3.5,3.5-3.5h15c1.93,0,3.5,1.57,3.5,3.5v8ZM7.5,10c-1.379,0-2.5,1.122-2.5,2.5s1.121,2.5,2.5,2.5,2.5-1.122,2.5-2.5-1.121-2.5-2.5-2.5Zm0,4c-.827,0-1.5-.673-1.5-1.5s.673-1.5,1.5-1.5,1.5.673,1.5,1.5-.673,1.5-1.5,1.5Zm9-4c-1.379,0-2.5,1.122-2.5,2.5s1.121,2.5,2.5,2.5,2.5-1.122,2.5-2.5-1.121-2.5-2.5-2.5Zm0,4c-.827,0-1.5-.673-1.5-1.5s.673-1.5,1.5-1.5,1.5.673,1.5,1.5-.673,1.5-1.5,1.5ZM5.05,5h4.9c.518,0,.979-.309,1.178-.787s.09-1.023-.276-1.389L8.401.374c-.496-.497-1.307-.497-1.803,0l-2.45,2.45c-.366.366-.475.911-.276,1.389s.66.787,1.178.787Zm-.194-1.469l2.45-2.45c.054-.054.124-.08.194-.08s.141.026.194.08l2.45,2.45c.117.117.081.249.06.3-.021.051-.088.169-.254.169h-4.9c-.166,0-.232-.119-.254-.169-.021-.051-.058-.183.06-.3Zm10.743,1.096c.248.249.575.373.901.373s.653-.125.901-.373l2.45-2.451c.366-.365.475-.911.276-1.389-.197-.478-.66-.787-1.178-.787h-4.9c-.518,0-.98.309-1.178.787-.198.478-.09,1.023.276,1.389l2.45,2.451Zm-1.803-3.457c.021-.051.088-.17.254-.17h4.9c.166,0,.233.119.254.17.021.051.058.182-.06.299l-2.45,2.451c-.106.108-.28.108-.389,0l-2.45-2.451c-.117-.117-.081-.248-.06-.299Z"/></svg>
