<?xml version="1.0" encoding="UTF-8"?>
<svg xmlns="http://www.w3.org/2000/svg" id="Layer_1" data-name="Layer 1" viewBox="0 0 24 24" width="512" height="512"><path d="M12,0C5.383,0,0,5.383,0,12v7.5c0,2.481,2.019,4.5,4.5,4.5h2c.827,0,1.5-.673,1.5-1.5v-5.5c0-2.206,1.794-4,4-4s4,1.794,4,4v5.5c0,.827,.673,1.5,1.5,1.5h2c2.481,0,4.5-2.019,4.5-4.5v-7.5C24,5.383,18.617,0,12,0Zm10.247,8c.486,1.24,.753,2.59,.753,4v4h-6V8h5.247Zm-.451-1H12.5V1.012c4.054,.182,7.544,2.569,9.297,5.988ZM11.5,1.012V7H2.203C3.956,3.581,7.446,1.194,11.5,1.012ZM1.753,8H7v8H1v-4c0-1.41,.267-2.76,.753-4Zm5.247,14.5c0,.276-.225,.5-.5,.5h-2c-1.93,0-3.5-1.57-3.5-3.5v-2.5H7v5.5Zm5-10.5c-1.634,0-3.087,.788-4,2.003v-6.003h8v6.003c-.913-1.216-2.366-2.003-4-2.003Zm7.5,11h-2c-.275,0-.5-.224-.5-.5v-5.5h6v2.5c0,1.93-1.57,3.5-3.5,3.5Z"/></svg>
