<?xml version="1.0" encoding="UTF-8"?>
<svg xmlns="http://www.w3.org/2000/svg" id="Layer_1" data-name="Layer 1" viewBox="0 0 24 24">
  <path d="m0,12s0-.006,0,0h0Zm23.5-.5H1.089c.075-.209.198-.401.364-.565l3.948-4.043c.193-.197.189-.514-.009-.707-.197-.192-.513-.189-.707.009L.744,10.23c-.474.467-.738,1.105-.744,1.77.002.658.258,1.296.716,1.761l3.923,4.086c.098.102.229.153.361.153.125,0,.25-.046.346-.14.199-.19.206-.508.015-.707l-3.928-4.091c-.16-.162-.279-.354-.351-.562h22.418c.276,0,.5-.224.5-.5s-.224-.5-.5-.5Z"/>
</svg>
