<?xml version="1.0" encoding="UTF-8"?>
<svg xmlns="http://www.w3.org/2000/svg" id="Layer_1" data-name="Layer 1" viewBox="0 0 24 24" width="512" height="512"><path d="M6,11.5c0,.276-.224,.5-.5,.5s-.5-.224-.5-.5c0-1.652,1.069-3.5,2.5-3.5s2.5,1.848,2.5,3.5c0,.276-.224,.5-.5,.5s-.5-.224-.5-.5c0-1.215-.771-2.5-1.5-2.5s-1.5,1.285-1.5,2.5Zm12.5,.5c.276,0,.5-.224,.5-.5,0-1.652-1.069-3.5-2.5-3.5s-2.5,1.848-2.5,3.5c0,.276,.224,.5,.5,.5s.5-.224,.5-.5c0-1.215,.771-2.5,1.5-2.5s1.5,1.285,1.5,2.5c0,.276,.224,.5,.5,.5Zm-11.833,3.873c.097,.086,2.414,2.127,5.333,2.127s5.236-2.041,5.333-2.127c.206-.184,.224-.5,.04-.706-.184-.207-.499-.225-.706-.041-.021,.019-2.137,1.873-4.667,1.873s-4.646-1.854-4.667-1.873c-.207-.184-.522-.167-.706,.041-.184,.206-.166,.521,.04,.706ZM1,2.5C1,.028,11.551,0,12,0s11,.028,11,2.5-10.551,2.5-11,2.5-11-.028-11-2.5Zm.995,.032c.247,.485,3.803,1.468,10.005,1.468,6.083,0,9.62-.945,9.987-1.5-.367-.555-3.904-1.5-9.987-1.5C5.798,1,2.242,1.982,1.995,2.532Zm20.244,3.207c-.146-.235-.452-.307-.688-.165-.235,.144-.309,.452-.165,.688,1.057,1.723,1.614,3.708,1.614,5.739,0,6.065-4.935,11-11,11S1,18.065,1,12c0-2.031,.558-4.016,1.614-5.739,.144-.235,.07-.543-.165-.688-.236-.144-.543-.071-.688,.165-1.151,1.88-1.761,4.045-1.761,6.261,0,6.617,5.383,12,12,12s12-5.383,12-12c0-2.216-.609-4.381-1.761-6.261Z"/></svg>
