<?xml version="1.0" encoding="UTF-8"?>
<svg xmlns="http://www.w3.org/2000/svg" id="Layer_1" data-name="Layer 1" viewBox="0 0 24 24" width="512" height="512"><path d="M12,24c-1.358,0-2.642-.521-3.611-1.467l-4.152-3.818c-2.092-2.083-3.236-4.834-3.236-7.761s1.145-5.678,3.223-7.747C6.301,1.139,9.062,0,12,0s5.699,1.139,7.777,3.208h0c2.078,2.069,3.223,4.821,3.223,7.747s-1.145,5.678-3.223,7.747l-4.176,3.842c-.96,.936-2.243,1.457-3.602,1.457ZM12,1c-2.671,0-5.183,1.036-7.072,2.917-1.888,1.88-2.928,4.379-2.928,7.038s1.04,5.158,2.928,7.038l4.148,3.814c1.586,1.546,4.271,1.536,5.838,.01l4.172-3.838c1.874-1.866,2.914-4.366,2.914-7.024s-1.04-5.158-2.928-7.038h0c-1.89-1.881-4.401-2.917-7.072-2.917Zm-.441,12.563l6.293-6.207c.196-.194,.198-.51,.005-.707-.196-.197-.512-.199-.708-.005l-6.295,6.209c-.193,.195-.513,.195-.712-.005l-3.293-3.207c-.195-.191-.513-.188-.707,.01-.192,.198-.188,.514,.01,.707l3.288,3.202c.293,.293,.677,.439,1.062,.439,.383,0,.767-.146,1.058-.437Z"/></svg>
