<?xml version="1.0" encoding="UTF-8"?>
<svg xmlns="http://www.w3.org/2000/svg" id="Layer_1" data-name="Layer 1" viewBox="0 0 24 24" width="512" height="512"><path d="M12,14c-1.1,0-2-.9-2-2s.9-2,2-2,2,.9,2,2-.9,2-2,2Zm0-3c-.55,0-1,.45-1,1s.45,1,1,1,1-.45,1-1-.45-1-1-1Zm8.49,9.49c4.68-4.68,4.68-12.29,0-16.97-.2-.2-.51-.2-.71,0s-.2,.51,0,.71c4.29,4.29,4.29,11.27,0,15.56-.2,.2-.2,.51,0,.71,.1,.1,.23,.15,.35,.15s.26-.05,.35-.15Zm-3.54-3.54c2.73-2.73,2.73-7.17,0-9.9-.2-.2-.51-.2-.71,0s-.2,.51,0,.71c2.34,2.34,2.34,6.15,0,8.49-.2,.2-.2,.51,0,.71,.1,.1,.23,.15,.35,.15s.26-.05,.35-.15Zm-12.73,3.54c.2-.2,.2-.51,0-.71C-.07,15.49-.07,8.51,4.22,4.22c.2-.2,.2-.51,0-.71s-.51-.2-.71,0C-1.16,8.19-1.16,15.81,3.51,20.49c.1,.1,.23,.15,.35,.15s.26-.05,.35-.15Zm3.54-3.54c.2-.2,.2-.51,0-.71-2.34-2.34-2.34-6.15,0-8.49,.2-.2,.2-.51,0-.71s-.51-.2-.71,0c-1.32,1.32-2.05,3.08-2.05,4.95s.73,3.63,2.05,4.95c.1,.1,.23,.15,.35,.15s.26-.05,.35-.15Z"/></svg>
