<?xml version="1.0" encoding="UTF-8"?>
<svg xmlns="http://www.w3.org/2000/svg" id="Layer_1" data-name="Layer 1" viewBox="0 0 24 24" width="512" height="512"><path d="m12,0C5.383,0,0,5.383,0,12s5.383,12,12,12,12-5.383,12-12S18.617,0,12,0Zm0,23c-6.065,0-11-4.935-11-11S5.935,1,12,1s11,4.935,11,11-4.935,11-11,11Zm6.621-16.19l-1.144,9.522c-.174.946-.846,1.656-1.726,1.661-.983.005-1.711-.511-2.021-1.351l-1.736-5.137-1.776,5.123c-.335.907-1.123,1.438-1.998,1.362-.86-.074-1.525-.713-1.694-1.628l-1.148-9.554c-.033-.274.163-.523.437-.556.279-.038.523.163.556.437l1.143,9.522c.098.526.474.755.792.781.336.037.762-.141.971-.703l2.25-6.493c.07-.201.26-.336.473-.336h.002c.214,0,.403.138.472.34l2.199,6.507c.203.549.649.726.994.688.33-.028.72-.257.823-.814l1.139-9.491c.033-.274.29-.472.556-.437.274.032.47.281.437.556Z"/></svg>
