<?xml version="1.0" encoding="UTF-8"?>
<svg xmlns="http://www.w3.org/2000/svg" id="Layer_1" data-name="Layer 1" viewBox="0 0 24 24">
  <path d="m24,23.5c0,.276-.224.5-.5.5H4.5c-2.481,0-4.5-2.019-4.5-4.5V.5C0,.224.224,0,.5,0s.5.224.5.5v19c0,1.93,1.57,3.5,3.5,3.5h19c.276,0,.5.224.5.5Zm-5.5-3.5c.276,0,.5-.224.5-.5V6.5c0-.276-.224-.5-.5-.5s-.5.224-.5.5v13c0,.276.224.5.5.5Zm-4,0c.276,0,.5-.224.5-.5v-8c0-.276-.224-.5-.5-.5s-.5.224-.5.5v8c0,.276.224.5.5.5Zm-4,0c.276,0,.5-.224.5-.5V6.5c0-.276-.224-.5-.5-.5s-.5.224-.5.5v13c0,.276.224.5.5.5Zm-4,0c.276,0,.5-.224.5-.5v-8c0-.276-.224-.5-.5-.5s-.5.224-.5.5v8c0,.276.224.5.5.5Z"/>
</svg>
