<?xml version="1.0" encoding="UTF-8"?>
<svg xmlns="http://www.w3.org/2000/svg" id="Layer_1" data-name="Layer 1" viewBox="0 0 24 24" width="512" height="512"><path d="M21,17.5s0,0,0,.01c0,.5-.19,1-.58,1.38l-2.05,1.99c-.1,.09-.22,.14-.35,.14s-.26-.05-.36-.15c-.19-.2-.19-.51,0-.71l2.04-1.99c.06-.06,.1-.12,.14-.18h-5.36c-.28,0-.5-.22-.5-.5s.22-.5,.5-.5h5.36c-.04-.07-.09-.13-.15-.19l-2.04-1.98c-.2-.19-.2-.51,0-.71,.19-.2,.51-.2,.71,0l2.04,1.99c.38,.38,.58,.88,.58,1.38,0,0,0,0,0,.01Zm3,0c0,3.58-2.92,6.5-6.5,6.5s-6.5-2.92-6.5-6.5,2.92-6.5,6.5-6.5,6.5,2.92,6.5,6.5Zm-1,0c0-3.03-2.47-5.5-5.5-5.5s-5.5,2.47-5.5,5.5,2.47,5.5,5.5,5.5,5.5-2.47,5.5-5.5Zm-14,3c0,.28-.22,.5-.5,.5H4.5c-2.48,0-4.5-2.02-4.5-4.5V4.5C0,2.02,2.02,0,4.5,0c0,0,11.13-.02,11.19,0,.51,.09,.98,.37,1.35,.74l3.24,3.27c.47,.47,.72,1.1,.72,1.76v2.73c0,.28-.22,.5-.5,.5s-.5-.22-.5-.5v-2.73c0-.4-.15-.77-.43-1.06l-3.24-3.27c-.1-.1-.21-.18-.33-.25V5.5c0,.83-.67,1.5-1.5,1.5H6.5c-.83,0-1.5-.67-1.5-1.5V1h-.5c-1.93,0-3.5,1.57-3.5,3.5v12c0,1.93,1.57,3.5,3.5,3.5h4c.28,0,.5,.22,.5,.5ZM15,5.5V1H6V5.5c0,.28,.22,.5,.5,.5H14.5c.28,0,.5-.22,.5-.5Zm-3.03,5.34c.09-.26-.04-.55-.3-.64-.37-.13-.77-.2-1.17-.2-1.93,0-3.5,1.57-3.5,3.5,0,.99,.42,1.95,1.17,2.61,.09,.09,.21,.13,.33,.13,.14,0,.27-.06,.37-.17,.18-.21,.17-.52-.04-.71-.53-.47-.83-1.15-.83-1.86,0-1.38,1.12-2.5,2.5-2.5,.29,0,.57,.05,.83,.14,.26,.09,.55-.04,.64-.3Z"/></svg>
