<?xml version="1.0" encoding="UTF-8"?>
<svg xmlns="http://www.w3.org/2000/svg" id="Layer_1" data-name="Layer 1" viewBox="0 0 24 24" width="512" height="512"><path d="m3,6C3,2.691,5.691,0,9,0c1.391,0,2.747.487,3.818,1.371.213.176.243.491.067.704-.176.214-.493.243-.704.067-.893-.737-2.022-1.143-3.182-1.143-2.757,0-5,2.243-5,5s2.243,5,5,5c.973,0,1.916-.279,2.727-.809.233-.149.542-.085.692.146.15.231.086.541-.146.692-.974.635-2.105.971-3.273.971-3.309,0-6-2.691-6-6Zm15,17v.5c0,.276-.224.5-.5.5s-.5-.224-.5-.5v-.5c0-2.953-1.613-5.532-4-6.918v2.968c1.14.232,2,1.242,2,2.449v2c0,.276-.224.5-.5.5s-.5-.224-.5-.5v-2c0-.827-.673-1.5-1.5-1.5s-1.5.673-1.5,1.5v2c0,.276-.224.5-.5.5s-.5-.224-.5-.5v-2c0-1.208.86-2.217,2-2.449v-3.462c-.927-.377-1.939-.589-3-.589s-2.073.212-3,.589v3.482c.86.224,1.5,1,1.5,1.929,0,1.103-.897,2-2,2s-2-.897-2-2c0-.929.64-1.705,1.5-1.929v-2.989c-2.387,1.386-4,3.964-4,6.918v.5c0,.276-.224.5-.5.5s-.5-.224-.5-.5v-.5c0-4.963,4.037-9,9-9s9,4.037,9,9Zm-12.5-3c-.552,0-1,.448-1,1s.448,1,1,1,1-.448,1-1-.448-1-1-1ZM23.994,4.752c.064,1.324-.419,2.599-1.361,3.589-1.005,1.055-2.418,1.659-3.878,1.659h-2.755c-.962,0-2-.763-2-1.994v-2.765c0-1.458.604-2.87,1.657-3.873C16.647.424,17.925-.063,19.248.006c2.579.126,4.62,2.167,4.746,4.746Zm-.998.049c-.102-2.063-1.733-3.695-3.797-3.797-.062-.003-.123-.004-.185-.004-.982,0-1.924.384-2.668,1.092-.855.815-1.347,1.964-1.347,3.149v2.765c0,.702.651.994,1,.994h2.755c1.188,0,2.337-.491,3.153-1.349.752-.79,1.139-1.803,1.088-2.851Z"/></svg>
