<?xml version="1.0" encoding="UTF-8"?>
<svg xmlns="http://www.w3.org/2000/svg" id="Layer_1" data-name="Layer 1" viewBox="0 0 24 24" width="512" height="512"><path d="M17,19c0,.552-.448,1-1,1s-1-.448-1-1,.448-1,1-1,1,.448,1,1Zm5.823-8.072c.762,1.39,1.177,2.964,1.177,4.572v3c0,2.481-2.019,4.5-4.5,4.5,0,0-16.705-.005-16.808-.016-1.51-.151-2.692-1.524-2.692-3.127v-4.049c0-2.249,.768-4.458,2.163-6.218,.172-.216,.486-.252,.703-.082,.216,.172,.253,.486,.082,.703-1.255,1.584-1.947,3.572-1.947,5.597v4.049c0,1.095,.787,2.032,1.792,2.132,.571,.059,1.125-.122,1.549-.506,.418-.378,.659-.919,.659-1.483v-4.192c0-1.795,.471-3.485,1.293-4.94-.454-.833-1.293-2.372-1.293-3.702,0-1.635,1.447-2.985,3.296-3.15,.425-1.173,1.589-2.017,2.855-2.017,.342,0,.654,.1,.927,.213,.713-.805,1.526-1.213,2.421-1.213,.908,0,1.748,.411,2.45,1.193,.285-.11,.59-.193,.925-.193,1.253,0,2.406,.844,2.829,2.017,1.85,.165,3.296,1.514,3.296,3.149,0,1.706-.907,3.319-1.177,3.762Zm-15.913-1.019c1.612-2.212,4.108-3.704,6.959-3.888,2.651-.171,5.19,.731,7.126,2.547,.455,.426,.863,.894,1.221,1.395,.321-.623,.784-1.709,.784-2.796,0-1.338-1.39-2.167-2.677-2.167-.236,0-.44-.165-.489-.396-.194-.915-1.036-1.604-1.959-1.604-.278,0-.569,.121-.867,.255-.208,.095-.461,.033-.603-.152-1.104-1.442-2.606-1.516-3.785,.025-.141,.186-.39,.247-.603,.152-.338-.154-.616-.28-.867-.28-.922,0-1.794,.705-1.986,1.604-.049,.231-.253,.396-.489,.396-1.287,0-2.676,.828-2.676,2.167,0,.927,.509,1.987,.91,2.742Zm13.401-.611c-1.732-1.624-3.989-2.279-6.378-2.279-4.395,0-6.65,4.159-6.694,4.208-.787,1.339-1.239,2.91-1.239,4.582v4.192c0,.74-.275,1.453-.764,2h14.264c1.93,0,3.5-1.57,3.5-3.5v-3c0-2.375-.955-4.578-2.688-6.203Zm-1.312,9.703c0,.552,.448,1,1,1s1-.448,1-1-.448-1-1-1-1,.448-1,1Zm-1-4c-.552,0-1,.448-1,1s.448,1,1,1,1-.448,1-1-.448-1-1-1Z"/></svg>
