<?xml version="1.0" encoding="UTF-8"?>
<svg xmlns="http://www.w3.org/2000/svg" id="Layer_1" data-name="Layer 1" viewBox="0 0 24 24" width="512" height="512"><path d="M24,18.5v2c0,1.93-1.57,3.5-3.5,3.5H3.5c-1.93,0-3.5-1.57-3.5-3.5v-2c0-1.93,1.57-3.5,3.5-3.5h3c.28,0,.5,.22,.5,.5s-.22,.5-.5,.5H3.5c-1.38,0-2.5,1.12-2.5,2.5v2c0,1.38,1.12,2.5,2.5,2.5H20.5c1.38,0,2.5-1.12,2.5-2.5v-2c0-1.38-1.12-2.5-2.5-2.5h-3c-.28,0-.5-.22-.5-.5s.22-.5,.5-.5h3c1.93,0,3.5,1.57,3.5,3.5Zm0-15v2c0,1.93-1.57,3.5-3.5,3.5H12.5v6h1.64c.48,0,.91,.29,1.09,.73,.18,.44,.08,.95-.25,1.28l-2.14,2.14c-.23,.23-.53,.34-.83,.34s-.6-.12-.83-.34l-2.14-2.14c-.34-.34-.44-.84-.25-1.28,.18-.44,.61-.73,1.09-.73h1.64v-6H3.5c-1.93,0-3.5-1.57-3.5-3.5V3.5C0,1.57,1.57,0,3.5,0H20.5c1.93,0,3.5,1.57,3.5,3.5Zm-9.86,12.5h-4.29c-.1,0-.15,.07-.16,.11-.02,.04-.04,.12,.04,.19l2.14,2.14c.07,.07,.18,.07,.25,0l2.14-2.14c.07-.07,.06-.15,.04-.19-.02-.04-.06-.11-.16-.11ZM21.25,1.11l-6.89,6.89h3.59l5-5c-.18-.89-.84-1.61-1.7-1.88ZM7.95,8L14.95,1h-3.59l-7,7h3.59ZM1,3.5v1.45L4.95,1h-1.45c-1.38,0-2.5,1.12-2.5,2.5Zm2,4.45s.01-.01,.02-.02L9.95,1h-3.59L1.11,6.25c.27,.86,.99,1.52,1.89,1.7Zm9.95,.05L19.95,1h-3.59l-7,7h3.59Zm10.05-2.5v-1.14l-3.64,3.64h1.14c1.38,0,2.5-1.12,2.5-2.5Z"/></svg>
