<?xml version="1.0" encoding="UTF-8"?>
<svg xmlns="http://www.w3.org/2000/svg" id="Layer_1" data-name="Layer 1" width="512" height="512" viewBox="0 0 24 24"><path d="M12,18c2.206,0,4-1.794,4-4,0-2.037-1.529-3.722-3.5-3.969V5h4c.276,0,.5-.224,.5-.5s-.224-.5-.5-.5h-4v-1.5c0-.827,.673-1.5,1.5-1.5h2.5c.276,0,.5-.224,.5-.5s-.224-.5-.5-.5h-2.5c-1.379,0-2.5,1.121-2.5,2.5v7.531c-1.971,.247-3.5,1.932-3.5,3.969,0,2.206,1.794,4,4,4Zm0-7c1.654,0,3,1.346,3,3s-1.346,3-3,3-3-1.346-3-3,1.346-3,3-3Zm11.879,11.407c.181,.21,.156,.525-.053,.705-.666,.572-1.524,.888-2.417,.888-1.239,0-2.434-.594-3.137-1.494-.703,.9-1.896,1.494-3.136,1.494s-2.434-.594-3.137-1.494c-.703,.9-1.897,1.494-3.137,1.494s-2.433-.594-3.136-1.494c-.703,.9-1.897,1.494-3.137,1.494-.893,0-1.751-.315-2.417-.888-.209-.18-.233-.495-.053-.705,.18-.209,.495-.232,.705-.053,.484,.416,1.111,.646,1.765,.646,1.168,0,2.315-.72,2.668-1.674,.145-.393,.793-.393,.938,0,.353,.954,1.499,1.674,2.667,1.674s2.315-.72,2.668-1.674c.145-.393,.793-.393,.938,0,.353,.954,1.5,1.674,2.668,1.674s2.314-.72,2.667-1.674c.145-.393,.793-.393,.938,0,.353,.954,1.5,1.674,2.668,1.674,.653,0,1.28-.229,1.765-.646,.211-.18,.526-.156,.705,.053Zm-6.075-6.733c-.096-.26,.036-.547,.295-.643,.261-.098,.547,.036,.643,.295,.353,.954,1.5,1.674,2.668,1.674,.653,0,1.28-.229,1.765-.646,.211-.179,.526-.157,.705,.053,.181,.21,.156,.525-.053,.705-.666,.572-1.524,.888-2.417,.888-1.591,0-3.107-.979-3.605-2.326ZM.121,16.407c.18-.21,.495-.231,.705-.053,.484,.416,1.111,.646,1.765,.646,1.168,0,2.315-.72,2.668-1.674,.096-.258,.382-.393,.643-.295,.259,.096,.391,.383,.295,.643-.498,1.348-2.015,2.326-3.605,2.326-.893,0-1.751-.315-2.417-.888-.209-.18-.233-.495-.053-.705Z"/></svg>
