<?xml version="1.0" encoding="UTF-8"?>
<svg xmlns="http://www.w3.org/2000/svg" id="Layer_1" data-name="Layer 1" viewBox="0 0 24 24">
  <path d="m23.5,0h-1.5c-1.103,0-2.063.708-2.388,1.761-.145.468-.318,1.054-.514,1.727-.341-.104-.579-.173-.773-.229-.256-.074-.432-.125-.671-.207-.263-.088-.545.05-.635.313-.089.261.052.545.312.634.256.086.442.141.715.22.193.056.431.125.774.229-.117.406-.239.835-.365,1.281-.08.235-.184.547-.306.922-.111.339-.25.762-.412,1.243-.4-.123-.669-.2-.883-.262-.258-.075-.433-.125-.674-.208-.262-.091-.545.05-.635.312-.089.261.051.545.312.634.256.087.442.142.718.222.205.059.46.133.837.248-1.263,3.623-3.459,9.159-5.413,9.159-1.103,0-2-.897-2-2v-3.5c0-1.107.393-1.5,1.5-1.5.276,0,.5-.224.5-.5s-.224-.5-.5-.5H.5c-.276,0-.5.224-.5.5s.224.5.5.5c1.107,0,1.5.393,1.5,1.5v4.461c0,3.824,2.897,7.04,7.08,7.04,2.801,0,5.615-2.095,6.573-4.907.476-1.397,1.585-5.347,2.657-9.165.904-3.218,1.758-6.257,2.257-7.873.195-.631.771-1.056,1.433-1.056h1.5c.276,0,.5-.224.5-.5s-.224-.5-.5-.5Zm-8.794,18.771c-.82,2.408-3.345,4.253-5.756,4.228-3.281-.048-5.95-2.757-5.95-6.038v-4.461c0-.612-.115-1.112-.342-1.5h6.685c-.228.388-.342.888-.342,1.5v3.5c0,1.654,1.346,3,3,3,1.319,0,2.546-1.371,3.679-3.449-.415,1.436-.76,2.595-.973,3.22ZM1.124,7.611c-.082-.361-.124-.734-.124-1.111,0-1.277.835-2.515,1.333-3.14.204-.257.52-.384.854-.355.329.035.613.23.761.523.176.353.263.472.418.472.097-.097.142-.666.171-1.042.056-.706.125-1.583.524-2.319.176-.324.486-.549.853-.617.381-.073.765.033,1.059.282,2.711,2.306,4.028,4.333,4.028,6.196,0,.376-.042.75-.124,1.111-.053.232-.259.389-.487.389-.036,0-.073-.004-.111-.013-.269-.061-.438-.329-.376-.598.065-.288.099-.587.099-.889,0-1.531-1.237-3.36-3.677-5.435-.062-.054-.14-.075-.228-.061-.049.009-.115.036-.156.111-.298.549-.355,1.278-.406,1.921-.069.875-.154,1.964-1.168,1.964-.801,0-1.129-.656-1.305-1.008-.281.413-1.061,1.5-1.061,2.508,0,.302.033.601.099.889.062.269-.107.537-.376.598-.28.064-.538-.108-.599-.376Zm5.227-1.938c.288.374.648,1.021.648,1.352,0,.552-.448,1-1,1s-1-.448-1-1c0-.332.36-.979.648-1.352.089-.115.22-.173.352-.173s.263.058.352.173Zm2.729,18.327c.029,0-.029,0,0,0h0Z"/>
</svg>
