<?xml version="1.0" encoding="UTF-8"?>
<svg xmlns="http://www.w3.org/2000/svg" id="Layer_1" data-name="Layer 1" viewBox="0 0 24 24" width="512" height="512"><path d="M23.278,10.243l-2.914-3.086c-.19-.2-.506-.209-.707-.021-.201,.19-.21,.506-.021,.707l2.924,3.096c.161,.161,.281,.352,.354,.561h-5.915v-3c0-.276-.224-.5-.5-.5s-.5,.224-.5,.5v3h-2.018c-.257-3.627-3.29-6.5-6.982-6.5C3.14,5,0,8.14,0,12s3.14,7,7,7c3.692,0,6.725-2.873,6.982-6.5h2.018v3c0,.276,.224,.5,.5,.5s.5-.224,.5-.5v-3h5.914c-.075,.21-.197,.404-.364,.571l-2.914,3.086c-.189,.201-.18,.517,.021,.707,.097,.091,.22,.136,.343,.136,.133,0,.265-.053,.364-.157l2.904-3.076c.472-.472,.732-1.1,.732-1.768s-.26-1.296-.722-1.757ZM7,18c-3.309,0-6-2.691-6-6S3.691,6,7,6s6,2.691,6,6-2.691,6-6,6Z"/></svg>
