<?xml version="1.0" encoding="UTF-8"?>
<svg xmlns="http://www.w3.org/2000/svg" id="Layer_1" data-name="Layer 1" viewBox="0 0 24 24" width="512" height="512"><path d="M11,21.5c0,.28-.22,.5-.5,.5H4.5c-2.48,0-4.5-2.02-4.5-4.5V4.5C0,2.02,2.02,0,4.5,0h13c2.48,0,4.5,2.02,4.5,4.5v4c0,.28-.22,.5-.5,.5s-.5-.22-.5-.5V4.5c0-1.93-1.57-3.5-3.5-3.5H4.5c-1.93,0-3.5,1.57-3.5,3.5v13c0,1.93,1.57,3.5,3.5,3.5h6c.28,0,.5,.22,.5,.5Zm0-4c0,.28-.22,.5-.5,.5H5.5c-.83,0-1.5-.67-1.5-1.5V5.5c0-.83,.67-1.5,1.5-1.5h3c.2,0,.38,.12,.46,.31s.03,.4-.11,.54l-3.85,3.85v7.79c0,.28,.22,.5,.5,.5h5c.28,0,.5,.22,.5,.5ZM5,7.29l2.29-2.29h-1.79c-.28,0-.5,.22-.5,.5v1.79Zm9,5.21v-3c0-.28-.22-.5-.5-.5s-.5,.22-.5,.5v3c0,.28-.22,.5-.5,.5h-3c-.28,0-.5-.22-.5-.5v-2.17c0-.4,.16-.78,.44-1.06l3.83-3.83c.28-.28,.67-.44,1.06-.44h2.17c.28,0,.5,.22,.5,.5v2c0,.28,.22,.5,.5,.5s.5-.22,.5-.5v-2c0-.83-.67-1.5-1.5-1.5h-2.17c-.67,0-1.29,.26-1.77,.73l-3.83,3.83c-.47,.47-.73,1.1-.73,1.77v2.17c0,.83,.67,1.5,1.5,1.5h3c.83,0,1.5-.67,1.5-1.5Zm4.5,6c-.55,0-1,.45-1,1s.45,1,1,1,1-.45,1-1-.45-1-1-1Zm5.5,0v2c0,1.93-1.57,3.5-3.5,3.5h-4c-1.93,0-3.5-1.57-3.5-3.5v-2c0-1.39,.82-2.6,2-3.16v-1.84c0-1.93,1.57-3.5,3.5-3.5s3.5,1.57,3.5,3.5v1.84c1.18,.56,2,1.77,2,3.16Zm-8-3.46c.16-.02,.33-.04,.5-.04h4c.17,0,.34,.01,.5,.04v-1.54c0-1.38-1.12-2.5-2.5-2.5s-2.5,1.12-2.5,2.5v1.54Zm7,3.46c0-1.38-1.12-2.5-2.5-2.5h-4c-1.38,0-2.5,1.12-2.5,2.5v2c0,1.38,1.12,2.5,2.5,2.5h4c1.38,0,2.5-1.12,2.5-2.5v-2Z"/></svg>
