<?xml version="1.0" encoding="UTF-8"?>
<svg xmlns="http://www.w3.org/2000/svg" id="Layer_1" data-name="Layer 1" viewBox="0 0 24 24" width="512" height="512"><path d="m15.5,23.5c0,.276-.224.5-.5.5h-7.5c-4.136,0-7.5-3.364-7.5-7.5V7.5c0-.276.224-.5.5-.5s.5.224.5.5v9c0,3.584,2.916,6.5,6.5,6.5h7.5c.276,0,.5.224.5.5ZM24,4.5v8.298c0,1.203-.469,2.333-1.318,3.182l-3.702,3.702c-.838.838-1.997,1.318-3.182,1.318H7.5c-2.481,0-4.5-2.019-4.5-4.5V4.5C3,2.019,5.019,0,7.5,0h12c2.481,0,4.5,2.019,4.5,4.5Zm-8.202,15.5c.068,0,.134-.016.202-.02v-4.48c0-1.379,1.121-2.5,2.5-2.5h4.48c.004-.068.02-.133.02-.202V4.5c0-1.93-1.57-3.5-3.5-3.5H7.5c-1.93,0-3.5,1.57-3.5,3.5v12c0,1.93,1.57,3.5,3.5,3.5h8.298Zm6.979-6h-4.277c-.827,0-1.5.673-1.5,1.5v4.273c.473-.174.913-.439,1.272-.799l3.702-3.702c.366-.365.63-.801.803-1.272Z"/></svg>
