<?xml version="1.0" encoding="UTF-8"?>
<svg xmlns="http://www.w3.org/2000/svg" id="Layer_1" data-name="Layer 1" viewBox="0 0 24 24" width="512" height="512"><path d="M20.5,24H3.5C1.57,24,0,22.43,0,20.5V7.5C0,5.57,1.57,4,3.5,4h3.606L11.013,.708c.559-.497,1.416-.497,1.983,.009l3.972,3.283h3.531c1.93,0,3.5,1.57,3.5,3.5v13c0,1.93-1.57,3.5-3.5,3.5ZM3.5,5c-1.379,0-2.5,1.122-2.5,2.5v13c0,1.378,1.121,2.5,2.5,2.5H20.5c1.379,0,2.5-1.122,2.5-2.5V7.5c0-1.378-1.121-2.5-2.5-2.5h-3.711c-.116,0-.229-.041-.318-.115L12.346,1.476c-.203-.18-.488-.18-.679-.012l-4.057,3.418c-.09,.076-.204,.118-.322,.118H3.5Z"/></svg>
