<?xml version="1.0" encoding="UTF-8"?>
<svg xmlns="http://www.w3.org/2000/svg" id="Layer_1" data-name="Layer 1" width="512" height="512" viewBox="0 0 24 24"><path d="M22,15.671v-4.343c0-1.69,.658-3.279,1.854-4.475,.195-.195,.195-.512,0-.707s-.512-.195-.707,0c-1.384,1.385-2.146,3.225-2.146,5.182v1.671h-3.036c-.171-1.19-.943-2.188-1.997-2.677-.014-.038-4.44-6.397-4.44-6.397-.872-1.251-2.811-1.926-4.191-1.926h-.836c-1.379,0-2.5,1.122-2.5,2.5v5.5h-.5c-1.93,0-3.5,1.57-3.5,3.5v2c0,.652,.418,1.208,1,1.414v1.086c0,1.654,1.346,3,3,3s3-1.346,3-3v-1h4v1c0,1.654,1.346,3,3,3s3-1.346,3-3v-1.086c.582-.206,1-.762,1-1.414v-1.5h3v1.671c0,1.957,.763,3.797,2.146,5.182,.098,.098,.226,.146,.354,.146s.256-.049,.354-.146c.195-.195,.195-.512,0-.707-1.195-1.196-1.854-2.785-1.854-4.475ZM5,4.5c0-.827,.673-1.5,1.5-1.5h.836c1.144,0,2.717,.561,3.371,1.499,0,0,3.807,5.501,3.793,5.501H5V4.5Zm1,13.5c0,1.103-.897,2-2,2s-2-.897-2-2v-1H6v1Zm8,2c-1.103,0-2-.897-2-2v-1h4v1c0,1.103-.897,2-2,2Zm3-4.5c0,.276-.225,.5-.5,.5H1.5c-.275,0-.5-.224-.5-.5v-2c0-1.378,1.121-2.5,2.5-2.5H14.5c1.379,0,2.5,1.122,2.5,2.5v2Z"/></svg>
