<?xml version="1.0" encoding="UTF-8"?>
<svg xmlns="http://www.w3.org/2000/svg" id="Layer_1" data-name="Layer 1" viewBox="0 0 24 24" width="512" height="512"><path d="m18,3.76V.5c0-.276-.224-.5-.5-.5s-.5.224-.5.5v2.757c-.469-.166-.974-.257-1.5-.257h-7c-.526,0-1.031.09-1.5.256V.499C7,.223,6.776,0,6.5,0s-.5.224-.5.5v3.26c-1.205.808-2,2.183-2,3.74v9c0,1.557.795,2.932,2,3.74v3.26c0,.276.224.5.5.5s.5-.224.5-.5v-2.757c.469.166.974.257,1.5.257h7c.526,0,1.031-.09,1.5-.256v2.757c0,.276.224.5.5.5s.5-.224.5-.5v-3.26c1.205-.808,2-2.183,2-3.74V7.5c0-1.557-.795-2.932-2-3.74Zm1,12.74c0,1.93-1.57,3.5-3.5,3.5h-7c-1.93,0-3.5-1.571-3.5-3.501V7.499c0-1.93,1.57-3.5,3.5-3.5h7c1.93,0,3.5,1.571,3.5,3.501v9Zm-11-4v1c0,.276-.224.5-.5.5s-.5-.224-.5-.5v-1c0-.276.224-.5.5-.5s.5.224.5.5Zm3,0v1c0,.276-.224.5-.5.5s-.5-.224-.5-.5v-1c0-.276.224-.5.5-.5s.5.224.5.5Zm3,0v1c0,.276-.224.5-.5.5s-.5-.224-.5-.5v-1c0-.276.224-.5.5-.5s.5.224.5.5Zm-6,4v1c0,.276-.224.5-.5.5s-.5-.224-.5-.5v-1c0-.276.224-.5.5-.5s.5.224.5.5Zm3,0v1c0,.276-.224.5-.5.5s-.5-.224-.5-.5v-1c0-.276.224-.5.5-.5s.5.224.5.5Zm3,0v1c0,.276-.224.5-.5.5s-.5-.224-.5-.5v-1c0-.276.224-.5.5-.5s.5.224.5.5Zm3-4v1c0,.276-.224.5-.5.5s-.5-.224-.5-.5v-1c0-.276.224-.5.5-.5s.5.224.5.5Zm0,4v1c0,.276-.224.5-.5.5s-.5-.224-.5-.5v-1c0-.276.224-.5.5-.5s.5.224.5.5Zm-1.5-10.5h-7c-.827,0-1.5.673-1.5,1.5v1c0,.827.673,1.5,1.5,1.5h7c.827,0,1.5-.673,1.5-1.5v-1c0-.827-.673-1.5-1.5-1.5Zm.5,2.5c0,.276-.225.5-.5.5h-7c-.275,0-.5-.224-.5-.5v-1c0-.276.225-.5.5-.5h7c.275,0,.5.224.5.5v1Z"/></svg>
