<?xml version="1.0" encoding="UTF-8"?>
<svg xmlns="http://www.w3.org/2000/svg" id="Layer_1" data-name="Layer 1" viewBox="0 0 24 24" width="512" height="512"><path d="M21.143,3.382c.525-.459,.857-1.132,.857-1.882V.5c0-.276-.224-.5-.5-.5s-.5,.224-.5,.5V1.5c0,.827-.673,1.5-1.5,1.5s-1.5-.673-1.5-1.5V.5c0-.276-.224-.5-.5-.5s-.5,.224-.5,.5V1.5c0,.687,.279,1.311,.729,1.763-1.832,.638-3.149,2.366-3.149,4.379,0,.021-.129,2.14-2.477,4.482-2.231,2.226-4.229,2.454-4.415,2.471-1.258,.006-2.438,.5-3.324,1.392-.499,.502-.87,1.097-1.099,1.745-.453-.452-1.077-.732-1.766-.732H.5c-.276,0-.5,.224-.5,.5s.224,.5,.5,.5H1.5c.827,0,1.5,.673,1.5,1.5s-.673,1.5-1.5,1.5H.5c-.276,0-.5,.224-.5,.5s.224,.5,.5,.5H1.5c.749,0,1.422-.331,1.88-.855,.722,1.676,2.394,2.855,4.332,2.855,.975-.004,6.091-.275,11.05-5.223,4.985-4.974,5.238-10.066,5.238-11.037,0-1.953-1.179-3.633-2.857-4.358Zm-3.088,14.687c-4.681,4.671-9.44,4.927-10.345,4.931-2.036,0-3.701-1.653-3.71-3.686-.004-.989,.377-1.92,1.074-2.623,.698-.703,1.628-1.092,2.664-1.099,.42-.035,2.64-.335,5.071-2.76,2.637-2.63,2.766-5.046,2.771-5.168,0-2.021,1.664-3.664,3.71-3.664s3.71,1.678,3.71,3.741c0,.901-.238,5.634-4.945,10.329Z"/></svg>
