<?xml version="1.0" encoding="UTF-8"?>
<svg xmlns="http://www.w3.org/2000/svg" id="Layer_1" data-name="Layer 1" viewBox="0 0 24 24" width="512" height="512"><path d="m23.737,8.06c-.01-.006-2.142-1.172-4.307-3.337C17.252,2.545,15.947.275,15.935.252c-.138-.24-.443-.323-.682-.187-.24.137-.324.442-.188.682.023.04.275.473.711,1.112l-6.848,6.848c-1.849,1.849-2.867,4.307-2.867,6.922v1.603L.208,23.085c-.195.195-.195.512,0,.707.098.098.226.146.354.146s.256-.049.354-.146l5.854-5.854h1.602c2.614,0,5.072-1.018,6.922-2.867l6.837-6.837c.655.44,1.095.684,1.134.706.075.041.157.06.236.06.179,0,.351-.095.441-.263.131-.243.04-.546-.203-.677ZM7.062,16.939v-1.31c0-2.18.797-4.232,2.238-5.844l4.915,4.916c-1.612,1.441-3.665,2.238-5.844,2.238h-1.309Zm7.877-2.928l-4.949-4.95,6.377-6.377c.6.809,1.386,1.775,2.357,2.746.924.924,1.821,1.658,2.577,2.219l-6.362,6.362Z"/></svg>
