<?xml version="1.0" encoding="UTF-8"?>
<svg xmlns="http://www.w3.org/2000/svg" id="Layer_1" data-name="Layer 1" viewBox="0 0 24 24" width="512" height="512"><path d="m23.038,1.962c-1.276-1.276-3.356-1.281-4.638-.008L1.109,19.181l-.002.002c-.041.041-.808,1.049-.951,1.36-.243.528-.196,1.14.124,1.637.333.516.895.823,1.504.823h.012c.238-.001.463-.005.645-.012,4.151-.167,7.939-1.682,10.396-4.16l2.587-2.646,1.272,1.283c.318.32.79.379,1.175.148.387-.231.557-.677.425-1.108-.654-2.126-1.033-4.049.965-6.057l3.807-3.872c1.25-1.281,1.237-3.353-.029-4.618Zm-10.915,16.168c-2.278,2.298-5.822,3.706-9.723,3.862-.171.006-.386.01-.611.011-.267.014-.521-.135-.669-.366-.136-.211-.157-.458-.056-.677.105-.229.761-1.06.801-1.122l8.653-8.621c.02.033,4.201,4.257,4.201,4.257l-2.596,2.655Zm10.229-12.25l-3.804,3.868c-2.383,2.394-1.904,4.797-1.144,7.016,0,0-6.165-6.211-6.199-6.232l7.899-7.87c.891-.885,2.338-.88,3.226.006.88.88.889,2.321.021,3.211Zm-.852-1.38c0,.552-.448,1-1,1s-1-.448-1-1,.448-1,1-1,1,.448,1,1Z"/></svg>
