<?xml version="1.0" encoding="UTF-8"?>
<svg xmlns="http://www.w3.org/2000/svg" id="Layer_1" data-name="Layer 1" viewBox="0 0 24 24" width="512" height="512"><path d="m23.269,7.197c-.41-.259-.927-.264-1.458-.008-.172.082-.381.194-.621.323-1.03.557-2.754,1.487-4.689,1.487h-.5v-.5c0-.276-.224-.5-.5-.5s-.5.224-.5.5v.5h-4v-.5c0-.276-.224-.5-.5-.5s-.5.224-.5.5v.5h-3.5c-.163,0-.331.008-.5.023v-.523c0-.276-.224-.5-.5-.5s-.5.224-.5.5v.677c-1.252.268-2.54.796-3.522,1.261-.897.425-1.478,1.345-1.478,2.343v.504c0,.979.536,1.862,1.398,2.304,1.261.645,3.169,1.412,5.102,1.412h10c1.637,0,3.732,1.042,4.858,1.602l.427.209c.263.126.522.188.767.188.25,0,.484-.065.691-.196.48-.303.757-.929.757-1.716l.025-8.172c0-.788-.276-1.414-.757-1.718Zm-.269,9.886v.002c0,.419-.114.761-.291.872-.137.087-.345.021-.494-.049l-.411-.202c-1.199-.597-3.433-1.706-5.304-1.706H6.5c-1.733,0-3.483-.708-4.646-1.303-.526-.27-.854-.811-.854-1.413v-.504c0-.613.355-1.179.905-1.438,1.059-.501,3.063-1.342,4.595-1.342h10c2.188,0,4.052-1.006,5.165-1.607.223-.12.415-.225.575-.301.149-.071.357-.138.494-.049.177.111.291.453.291.87l-.025,8.17Zm-11-4.083c0,.552-.448,1-1,1s-1-.448-1-1,.448-1,1-1,1,.448,1,1Zm-5,0c0,.552-.448,1-1,1s-1-.448-1-1,.448-1,1-1,1,.448,1,1Zm10,0c0,.552-.448,1-1,1s-1-.448-1-1,.448-1,1-1,1,.448,1,1Z"/></svg>
