<?xml version="1.0" encoding="UTF-8"?>
<svg xmlns="http://www.w3.org/2000/svg" id="Layer_1" data-name="Layer 1" viewBox="0 0 24 24" width="512" height="512"><path d="M12,0C5.383,0,0,5.383,0,12s5.383,12,12,12,12-5.383,12-12S18.617,0,12,0Zm0,23c-6.065,0-11-4.935-11-11S5.935,1,12,1s11,4.935,11,11-4.935,11-11,11Zm3.401-5.202c-.099,.132-.249,.201-.402,.201-.104,0-.207-.031-.297-.098-.012-.009-1.239-.901-2.702-.901s-2.69,.893-2.702,.901c-.223,.164-.534,.117-.699-.104-.164-.222-.118-.534,.103-.699,.061-.045,1.497-1.099,3.299-1.099s3.238,1.054,3.299,1.099c.221,.165,.267,.478,.103,.699Zm-5.731-5.827l-4,1.442c-.057,.02-.113,.029-.17,.029-.205,0-.396-.127-.471-.33-.094-.26,.041-.547,.301-.641l4-1.442c.262-.089,.546,.041,.641,.301,.094,.26-.041,.547-.301,.641Zm9.301,1.142c-.074,.203-.266,.33-.471,.33-.057,0-.113-.01-.17-.029l-4-1.442c-.26-.094-.395-.381-.301-.641,.095-.26,.381-.39,.641-.301l4,1.442c.26,.094,.395,.381,.301,.641Z"/></svg>
