<?xml version="1.0" encoding="UTF-8"?>
<svg xmlns="http://www.w3.org/2000/svg" id="Layer_1" data-name="Layer 1" viewBox="0 0 24 24" width="512" height="512"><path d="M22.148,2.84c-.679-1.726-2.321-2.84-4.185-2.84H2.5c-.166,0-.321,.083-.414,.22-.093,.137-.112,.312-.05,.466l1.91,4.775C3.335,6.554,.745,11.561,.021,19.051c-.123,1.266,.298,2.532,1.153,3.474,.851,.938,2.064,1.475,3.329,1.475h11.997c1.264,0,2.478-.538,3.329-1.475,.855-.942,1.275-2.208,1.153-3.474-.747-7.737-3.49-12.826-3.981-13.686V1h.963c1.449,0,2.727,.866,3.254,2.207,.813,2.069,1.783,5.361,1.783,9.293,0,.276,.224,.5,.5,.5s.5-.224,.5-.5c0-4.089-1.007-7.51-1.852-9.66Zm-3.06,19.012c-.672,.74-1.591,1.147-2.588,1.147H4.503c-.997,0-1.917-.408-2.588-1.147-.666-.733-.993-1.72-.898-2.706,.222-2.296,.63-4.362,1.103-6.146H15.5c.276,0,.5-.224,.5-.5s-.224-.5-.5-.5H2.398c.937-3.187,2.019-5.311,2.394-6h11.416c.611,1.12,3.092,6.036,3.778,13.147,.095,.986-.232,1.972-.898,2.706Zm-3.088-16.853H4.839L3.238,1h12.762V5Z"/></svg>
