<?xml version="1.0" encoding="UTF-8"?>
<svg xmlns="http://www.w3.org/2000/svg" id="Layer_1" data-name="Layer 1" viewBox="0 0 24 24" width="512" height="512"><path d="m22.55,23.002c-.068-.007-1.61-.189-1.86-1.713,2.05-1.564,3.31-3.679,3.31-6.004,0-3.512-2.233-6.791-3.419-8.286h.919c.276,0,.5-.224.5-.5s-.224-.5-.5-.5H2.5c-.276,0-.5.224-.5.5s.224.5.5.5h.919c-1.187,1.495-3.419,4.774-3.419,8.286,0,2.325,1.26,4.44,3.31,6.004-.25,1.524-1.792,1.706-1.86,1.713-.273.028-.474.271-.447.545.024.258.242.452.497.452.016,0,.032,0,.048-.002.77-.074,2.181-.613,2.644-2.1,2.1,1.31,4.829,2.102,7.808,2.102s5.708-.793,7.808-2.102c.464,1.487,1.875,2.026,2.644,2.1.017.002.032.002.048.002.253,0,.47-.192.496-.45.028-.274-.172-.519-.446-.548ZM1,15.286c0-3.808,3.029-7.491,3.724-8.286h14.553c.695.795,3.724,4.477,3.724,8.286,0,4.254-4.935,7.714-11,7.714S1,19.54,1,15.286ZM7,1c0-.552.448-1,1-1s1,.448,1,1-.448,1-1,1-1-.448-1-1Zm8,2c0-.552.448-1,1-1s1,.448,1,1-.448,1-1,1-1-.448-1-1Z"/></svg>
