<?xml version="1.0" encoding="UTF-8"?>
<svg xmlns="http://www.w3.org/2000/svg" id="Layer_1" data-name="Layer 1" viewBox="0 0 24 24" width="512" height="512"><path d="m21.5,4h-4.028c-.25-2.247-2.16-4-4.472-4h-2c-2.312,0-4.223,1.753-4.472,4H2.5c-.276,0-.5.224-.5.5s.224.5.5.5h1.499l-.025,14.5c0,2.481,2.019,4.5,4.5,4.5h7c2.481,0,4.5-2.019,4.5-4.499l.025-14.501h1.501c.276,0,.5-.224.5-.5s-.224-.5-.5-.5ZM11,1h2c1.76,0,3.221,1.306,3.464,3H7.536c.243-1.694,1.704-3,3.464-3Zm7.974,18.5c0,1.93-1.57,3.5-3.5,3.5h-7c-1.93,0-3.5-1.57-3.5-3.499l.025-14.501h14l-.025,14.5Zm-3.062-6.85c.193.197.189.514-.008.707-.097.095-.224.143-.35.143-.13,0-.259-.05-.357-.15l-2.515-2.57c-.056-.056-.117-.103-.183-.142v7.363c0,.276-.224.5-.5.5s-.5-.224-.5-.5v-7.362c-.066.04-.129.088-.187.146l-2.511,2.566c-.193.198-.509.201-.707.008-.197-.193-.201-.51-.008-.707l2.515-2.57c.384-.384.886-.577,1.388-.58.003,0,.006,0,.009,0,.003,0,.006,0,.009,0,.502.002,1.003.194,1.384.576l2.519,2.574Z"/></svg>
