<?xml version="1.0" encoding="UTF-8"?>
<svg xmlns="http://www.w3.org/2000/svg" id="Layer_1" data-name="Layer 1" viewBox="0 0 24 24" width="512" height="512"><path d="M9.99,6.402c.054,.271-.122,.534-.392,.588-1.244,.249-2.515,.912-3.776,1.973-.094,.079-.208,.117-.321,.117-.143,0-.284-.061-.383-.179-.178-.211-.15-.526,.061-.704,1.392-1.17,2.813-1.905,4.224-2.188,.274-.057,.535,.121,.588,.393Zm14.01,5.598c0,1.774-.378,3.483-1.125,5.079-.085,.182-.265,.288-.454,.288-.071,0-.143-.015-.211-.047-.25-.117-.358-.415-.241-.665,.684-1.462,1.031-3.028,1.031-4.655,0-.891-.107-1.758-.308-2.588l-2.692,3.268v5.657c0,1.555-.79,2.981-2.113,3.817-1.333,.842-3.437,1.846-5.887,1.846s-4.554-1.004-5.887-1.846c-1.323-.836-2.113-2.263-2.113-3.817v-5.658l-2.689-3.278c-.203,.834-.311,1.704-.311,2.599,0,1.584,.33,3.112,.979,4.543,.114,.252,.003,.548-.249,.662-.251,.115-.548,.003-.662-.248-.709-1.562-1.069-3.229-1.069-4.957C0,5.373,5.373,0,12,0s12,5.373,12,12Zm-5,1H5v5.337c0,1.209,.616,2.32,1.647,2.972,1.221,.771,3.141,1.691,5.353,1.691s4.131-.92,5.353-1.691c1.032-.651,1.647-1.763,1.647-2.972v-5.337Zm3.345-4.74c-1.534-4.23-5.592-7.26-10.345-7.26S3.196,4.025,1.659,8.248l3.078,3.752h14.527l3.081-3.74Zm-3.523-.062c-1.392-1.17-2.813-1.905-4.224-2.188-.275-.058-.535,.121-.588,.393-.054,.271,.122,.534,.392,.588,1.244,.249,2.515,.912,3.776,1.973,.094,.079,.208,.117,.321,.117,.143,0,.284-.061,.383-.179,.178-.211,.15-.526-.061-.704Z"/></svg>
