<?xml version="1.0" encoding="UTF-8"?>
<svg xmlns="http://www.w3.org/2000/svg" id="Layer_1" data-name="Layer 1" viewBox="0 0 24 24" width="512" height="512"><path d="M24,12c0,6.617-5.383,12-12,12S0,18.617,0,12c0-.879,.096-1.757,.284-2.608,.06-.27,.328-.438,.596-.38,.27,.06,.44,.327,.38,.597-.173,.78-.261,1.585-.261,2.392,0,6.065,4.935,11,11,11s11-4.935,11-11S18.065,1,12,1c-1.675,0-3.285,.367-4.782,1.091-.249,.122-.547,.017-.668-.232-.12-.249-.016-.548,.232-.668,1.635-.79,3.391-1.19,5.218-1.19,6.617,0,12,5.383,12,12Zm-15.298,5.099c-.221,.165-.267,.478-.103,.698,.165,.222,.477,.27,.699,.104,.012-.009,1.239-.901,2.702-.901s2.69,.893,2.702,.901c.089,.066,.194,.098,.297,.098,.153,0,.304-.069,.402-.202,.164-.221,.118-.533-.103-.698-.06-.045-1.497-1.099-3.298-1.099s-3.238,1.054-3.298,1.099Zm-3.202-5.099h4c.276,0,.5-.224,.5-.5s-.224-.5-.5-.5H5.5c-.276,0-.5,.224-.5,.5s.224,.5,.5,.5Zm13,0c.276,0,.5-.224,.5-.5s-.224-.5-.5-.5h-4c-.276,0-.5,.224-.5,.5s.224,.5,.5,.5h4ZM0,4.5C0,3.229,1.018,1.552,1.66,.792c.21-.248,.517-.391,.841-.392h.002c.323,0,.628,.141,.839,.388,.641,.748,1.657,2.418,1.657,3.712,0,1.379-1.122,2.5-2.5,2.5S0,5.879,0,4.5Zm1,0c0,.827,.673,1.5,1.5,1.5s1.5-.673,1.5-1.5c0-.917-.823-2.368-1.417-3.062h-.159c-.597,.707-1.424,2.163-1.424,3.062Z"/></svg>
