<?xml version="1.0" encoding="UTF-8"?>
<svg xmlns="http://www.w3.org/2000/svg" id="Layer_1" data-name="Layer 1" width="512" height="512" viewBox="0 0 24 24"><path d="M21.092,19.83c1.875-2.09,2.908-4.87,2.908-7.83C24,5.383,18.617,0,12,0S0,5.383,0,12c0,2.962,1.034,5.744,2.912,7.834l.018,.021c-1.077,.075-1.93,.975-1.93,2.07,0,1.145,.931,2.075,2.075,2.075H20.925c1.145,0,2.075-.931,2.075-2.075,0-1.099-.857-2-1.908-2.095Zm-.167,3.17H3.075c-.593,0-1.075-.482-1.075-1.075s.482-1.075,1.075-1.075l.119-.015c.102-.024,.62-.175,.77-.659,.07-.227,.073-.585-.308-1.01-1.713-1.906-2.656-4.451-2.656-7.166C1,5.935,5.935,1,12,1s11,4.935,11,11c0,2.715-.943,5.26-2.656,7.166-.381,.424-.378,.783-.308,1.01,.149,.484,.667,.635,.77,.659l.119,.015c.593,0,1.075,.482,1.075,1.075s-.482,1.075-1.075,1.075ZM12,4c-4.411,0-8,3.589-8,8s3.589,8,8,8,8-3.589,8-8-3.589-8-8-8Zm6.29,4.932l-2.914,1.18c-.655,.261-1.368,.186-1.955-.211-.586-.396-.922-1.029-.922-1.737v-3.145c2.546,.181,4.721,1.729,5.79,3.914Zm-4.949,4.832c-.418-.172-.871-.264-1.342-.264s-.923,.092-1.341,.264c.046-.447,.008-.906-.118-1.356-.123-.44-.323-.843-.587-1.196,.418-.076,.822-.238,1.185-.483,.348-.236,.639-.535,.861-.877,.222,.342,.513,.641,.861,.877,.363,.246,.767,.408,1.186,.484-.264,.353-.464,.757-.587,1.197-.126,.449-.164,.907-.118,1.355Zm-1.841-8.746v3.145c0,.708-.336,1.341-.922,1.737s-1.298,.473-1.949,.213l-2.909-1.204c1.074-2.172,3.242-3.711,5.779-3.891Zm-6.5,6.982c0-.755,.121-1.483,.343-2.165,0,0,2.661,1.105,2.679,1.112,.766,.307,1.333,.938,1.556,1.731,.221,.788,.069,1.615-.417,2.273l-1.769,2.312c-1.465-1.284-2.392-3.168-2.392-5.264Zm3.188,5.868l1.812-2.368c.477-.636,1.206-1,2-1s1.523,.364,2,1l1.788,2.384c-1.093,.706-2.393,1.116-3.788,1.116-1.405,0-2.714-.416-3.812-1.132Zm8.399-.586l-1.737-2.316c-.495-.66-.651-1.494-.429-2.288s.79-1.425,1.556-1.731l.005-.002,2.682-1.085c.217,.675,.335,1.394,.335,2.141,0,2.106-.935,3.998-2.412,5.283Z"/></svg>
