<?xml version="1.0" encoding="UTF-8"?>
<svg xmlns="http://www.w3.org/2000/svg" id="Layer_1" data-name="Layer 1" viewBox="0 0 24 24" width="512" height="512"><path d="m23.242.762c-.979-.982-2.686-.982-3.665,0L.151,20.267c-.075.075-.124.172-.14.276-.009.057-.076.567.28.983.181.21.532.461,1.179.461.52,0,.907.01,1.145,0,1.814-.072,3.579-.484,5.246-1.225,2.634-1.17,4.359-3.199,5.128-6.033l10.252-10.294c1.009-1.012,1.009-2.66,0-3.674ZM7.455,19.849c-1.551.689-3.192,1.072-4.88,1.139-.308.014-.539,0-1.105,0-.202,0-.354-.04-.417-.109-.017-.019-.029-.041-.037-.063l8.478-8.513,2.484,2.328c-.708,2.445-2.229,4.2-4.523,5.219ZM22.533,3.73l-10.005,10.045-2.328-2.183L20.285,1.467c.6-.602,1.648-.602,2.248,0,.622.625.622,1.64,0,2.264Zm-4.533,19.77c0,.276-.224.5-.5.5h-3c-.276,0-.5-.224-.5-.5s.224-.5.5-.5h3c.276,0,.5.224.5.5Zm-6,0c0,.276-.224.5-.5.5h-3c-.276,0-.5-.224-.5-.5s.224-.5.5-.5h3c.276,0,.5.224.5.5Zm12,0c0,.276-.224.5-.5.5h-3c-.276,0-.5-.224-.5-.5s.224-.5.5-.5h3c.276,0,.5.224.5.5Z"/></svg>
