<?xml version="1.0" encoding="UTF-8"?>
<svg xmlns="http://www.w3.org/2000/svg" id="Layer_1" data-name="Layer 1" viewBox="0 0 24 24" width="512" height="512"><path d="M24,5.5V15.6c0,2-.78,3.89-2.2,5.3l-2.95,2.95c-.1,.1-.23,.15-.35,.15s-.26-.05-.35-.15c-.2-.2-.2-.51,0-.71l2.95-2.95c1.23-1.23,1.9-2.86,1.9-4.6V5.5c0-.83-.67-1.5-1.5-1.5s-1.5,.67-1.5,1.5V13.5s0,.04,0,.06c-.01,.55-.21,1.09-.58,1.54l-2.64,2.75c-.1,.1-.23,.15-.36,.15s-.25-.05-.35-.14c-.2-.19-.21-.51-.01-.71l2.62-2.72c.22-.26,.33-.58,.33-.91,0,0,0-.01,0-.02v-.05c-.01-.34-.14-.68-.38-.96-.27-.3-.63-.47-1.03-.5-.39,0-.78,.11-1.08,.38l-2.73,2.51c-.52,.47-.93,1.03-1.23,1.66,.3,.75,.46,1.56,.46,2.38v4.56c0,.28-.22,.5-.5,.5s-.5-.22-.5-.5v-4.56c0-1.53-.65-3.01-1.78-4.05l-2.73-2.52c-.29-.26-.68-.38-1.08-.38-.4,.02-.77,.2-1.03,.5-.49,.55-.51,1.39-.03,1.96l2.59,2.7c.19,.2,.19,.52-.01,.71-.2,.19-.52,.19-.71-.01l-2.62-2.72c-.38-.45-.57-.99-.6-1.53,0-.03,0-.06,0-.1V5.5c0-.83-.67-1.5-1.5-1.5s-1.5,.67-1.5,1.5V15.6c0,1.74,.68,3.37,1.9,4.6l2.95,2.95c.2,.2,.2,.51,0,.71-.1,.1-.23,.15-.35,.15s-.26-.05-.35-.15l-2.95-2.95c-1.42-1.42-2.2-3.3-2.2-5.3V5.5c0-1.38,1.12-2.5,2.5-2.5s2.5,1.12,2.5,2.5v6c.39-.29,.86-.47,1.36-.49,.67-.05,1.31,.19,1.8,.63l2.74,2.52c.43,.39,.79,.84,1.1,1.32,.3-.48,.67-.93,1.1-1.32l2.73-2.52c.5-.45,1.14-.68,1.81-.64,.5,.03,.97,.2,1.36,.49V5.5c0-1.38,1.12-2.5,2.5-2.5s2.5,1.12,2.5,2.5Zm-13.97-.13l3.62,1.21c.51,.17,.85,.64,.85,1.18,0,.69-.56,1.24-1.24,1.24h-2.31c-.62,0-1.2-.33-1.52-.88-.14-.24-.44-.32-.68-.18-.24,.14-.32,.44-.18,.68,.49,.85,1.4,1.38,2.38,1.38h.55v.5c0,.28,.22,.5,.5,.5s.5-.22,.5-.5v-.5h.76c1.24,0,2.24-1.01,2.24-2.24,0-.97-.62-1.82-1.53-2.13l-3.62-1.21c-.51-.17-.85-.64-.85-1.18,0-.69,.56-1.24,1.24-1.24h2.31c.62,0,1.2,.33,1.52,.88,.14,.24,.44,.32,.68,.18,.24-.14,.32-.44,.18-.68-.49-.85-1.4-1.38-2.38-1.38h-.55V.5c0-.28-.22-.5-.5-.5s-.5,.22-.5,.5v.5h-.76c-1.24,0-2.24,1.01-2.24,2.24,0,.97,.62,1.82,1.53,2.13Z"/></svg>
