<?xml version="1.0" encoding="UTF-8"?>
<svg xmlns="http://www.w3.org/2000/svg" id="Layer_1" data-name="Layer 1" viewBox="0 0 24 24" width="512" height="512"><path d="M18.015,7.078c.13-1.966,1.175-5.078,4.485-5.078,.276,0,.5-.224,.5-.5s-.224-.5-.5-.5c-1.608,0-2.778,.581-3.615,1.426-.131-.317-.369-.585-.684-.754-1.519-.811-4.733-1.673-7.701-1.673-2.402,0-4.594,.547-6.701,1.673-.493,.264-.799,.772-.799,1.327s.306,1.063,.799,1.327c.823,.44,1.659,.791,2.515,1.056-1.801,.638-3.476,2.043-4.687,3.958C-.948,13.411-.451,17.905,2.808,20.026c.993,.646,2.099,.962,3.232,.962,1.559,0,3.167-.598,4.597-1.758,1.077,2.899,3.428,4.77,6.362,4.77,4.056,0,7-3.575,7-8.5,0-4.504-2.462-7.878-5.985-8.422Zm-.997-.077h-.018c-1.249,0-2.393,.339-3.378,.953-.47-.795-1.11-1.459-1.909-1.979l-.027-.017c2.209-.156,4.411-.715,5.833-1.31-.302,.815-.454,1.647-.502,2.353ZM4,3c0-.09,.026-.314,.271-.444,1.958-1.047,3.996-1.556,6.229-1.556,2.979,0,6.021,.909,7.229,1.556,.244,.13,.271,.354,.271,.444s-.026,.314-.271,.444c-1.208,.646-4.25,1.556-7.229,1.556-2.233,0-4.271-.509-6.229-1.556-.244-.13-.271-.354-.271-.444Zm-.646,16.188c-2.78-1.81-3.151-5.726-.882-9.312,1.253-1.981,3.032-3.349,4.88-3.752,1.351-.297,2.671-.057,3.815,.688,.697,.454,1.249,1.037,1.645,1.738-1.741,1.5-2.812,3.979-2.812,6.95,0,.953,.111,1.854,.318,2.69-2.211,1.983-4.855,2.371-6.964,.999Zm13.646,3.812c-2.657,0-4.756-1.842-5.599-4.65,.004-.103-.401-1.427-.401-2.85,0-2.747,1.008-5.017,2.628-6.316,.013-.005,.026-.01,.039-.016,.082-.038,1.409-1.168,3.333-1.168,3.477,0,6,3.154,6,7.5s-2.523,7.5-6,7.5Zm0-3.5c0,.276-.224,.5-.5,.5-1.542,0-2.5-1.341-2.5-3.5,0-.276,.224-.5,.5-.5s.5,.224,.5,.5c0,.587,.108,2.5,1.5,2.5,.276,0,.5,.224,.5,.5ZM5.908,12.319c-.98,1.18-1.196,2.529-.502,3.141,.207,.183,.227,.498,.045,.705-.099,.112-.237,.17-.375,.17-.118,0-.235-.041-.331-.125-1.127-.992-.962-2.897,.394-4.529,.177-.212,.491-.241,.704-.065,.212,.177,.242,.492,.065,.704Z"/></svg>
