<?xml version="1.0" encoding="UTF-8"?>
<svg xmlns="http://www.w3.org/2000/svg" id="Layer_1" data-name="Layer 1" viewBox="0 0 24 24" width="512" height="512"><path d="M19.5,0H4.5C2.019,0,0,2.019,0,4.5v2c0,2.481,2.019,4.5,4.5,4.5h15c2.481,0,4.5-2.019,4.5-4.5v-2c0-2.481-2.019-4.5-4.5-4.5Zm3.5,6.5c0,1.93-1.57,3.5-3.5,3.5H4.5c-1.93,0-3.5-1.57-3.5-3.5v-2c0-1.93,1.57-3.5,3.5-3.5h15c1.93,0,3.5,1.57,3.5,3.5v2Zm-3,0c0,.276-.224,.5-.5,.5H4.5c-.276,0-.5-.224-.5-.5s.224-.5,.5-.5h15c.276,0,.5,.224,.5,.5Zm-7.5,7v10c0,.276-.224,.5-.5,.5s-.5-.224-.5-.5V13.5c0-.276,.224-.5,.5-.5s.5,.224,.5,.5Zm-5.5-.003l1,.007s-.038,5.341-.038,6.997c0,1.93-1.57,3.5-3.5,3.5s-3.5-1.57-3.5-3.5c0-1.534,.981-2.994,2.334-3.472,.257-.091,.546,.044,.638,.305,.092,.26-.045,.546-.306,.638-.949,.335-1.666,1.422-1.666,2.528,0,1.378,1.121,2.5,2.5,2.5s2.5-1.122,2.5-2.5c0-1.658,.038-7.003,.038-7.003Zm16,7.003c0,1.93-1.57,3.5-3.5,3.5s-3.5-1.57-3.5-3.5v-7c0-.276,.224-.5,.5-.5s.5,.224,.5,.5v7c0,1.378,1.121,2.5,2.5,2.5s2.5-1.122,2.5-2.5c0-1.106-.717-2.193-1.667-2.528-.26-.092-.396-.378-.305-.638,.093-.26,.378-.394,.639-.305,1.352,.478,2.333,1.938,2.333,3.472Z"/></svg>
