<?xml version="1.0" encoding="UTF-8"?>
<svg xmlns="http://www.w3.org/2000/svg" id="Layer_1" data-name="Layer 1" viewBox="0 0 24 24" width="512" height="512"><path d="M12,0C5.383,0,0,5.383,0,12s5.383,12,12,12,12-5.383,12-12S18.617,0,12,0Zm0,23c-6.065,0-11-4.935-11-11S5.935,1,12,1s11,4.935,11,11-4.935,11-11,11Zm5.373-14.167c-.099,.111-.236,.167-.374,.167-.118,0-.237-.042-.332-.126-.021-.019-2.138-1.874-4.667-1.874s-4.646,1.854-4.667,1.874c-.207,.183-.523,.164-.706-.041-.184-.206-.166-.521,.04-.706,.097-.087,2.415-2.127,5.333-2.127s5.236,2.04,5.333,2.127c.206,.184,.224,.5,.04,.706Zm-.373,5.167c0,.552-.448,1-1,1s-1-.448-1-1,.448-1,1-1,1,.448,1,1Zm-8,0c0,.552-.448,1-1,1s-1-.448-1-1,.448-1,1-1,1,.448,1,1Z"/></svg>
