<?xml version="1.0" encoding="UTF-8"?>
<svg xmlns="http://www.w3.org/2000/svg" id="Layer_1" data-name="Layer 1" width="512" height="512" viewBox="0 0 24 24"><path d="M24,17.5c0-1.385-.236-2.748-.702-4.051l-.879-2.462c-.638-1.786-2.341-2.986-4.238-2.986h-5.362c-1.896,0-3.6,1.2-4.238,2.987l-.879,2.461c-.466,1.304-.702,2.667-.702,4.052,0,1.393,.819,2.599,2,3.162v1.338c0,1.103,.897,2,2,2s2-.897,2-2v-1h5v1c0,1.103,.897,2,2,2s2-.897,2-2v-1.338c1.181-.563,2-1.769,2-3.162Zm-15.356-3.715l.879-2.461c.497-1.39,1.821-2.323,3.296-2.323h5.362c1.475,0,2.8,.934,3.296,2.323l.879,2.462c.143,.399,.261,.805,.357,1.215H8.287c.095-.41,.214-.816,.357-1.215Zm3.356,8.215c0,.551-.449,1-1,1s-1-.449-1-1v-1.036c.163,.023,.33,.036,.5,.036h1.5v1Zm9,0c0,.551-.449,1-1,1s-1-.449-1-1v-1h1.5c.17,0,.337-.012,.5-.036v1.036Zm-.5-2H10.5c-1.378,0-2.5-1.122-2.5-2.5,0-.504,.035-1.005,.103-1.5h2.897v1.5c0,.276,.224,.5,.5,.5s.5-.224,.5-.5v-1.5h7v1.5c0,.276,.224,.5,.5,.5s.5-.224,.5-.5v-1.5h2.897c.068,.495,.103,.996,.103,1.5,0,1.378-1.122,2.5-2.5,2.5ZM5.5,12H3.5c-1.378,0-2.5-1.122-2.5-2.5,0-.504,.035-1.005,.103-1.5h2.897v1.5c0,.276,.224,.5,.5,.5s.5-.224,.5-.5v-1.5h3.5c.276,0,.5-.224,.5-.5s-.224-.5-.5-.5H1.287c.095-.41,.214-.816,.357-1.215l.879-2.461c.497-1.39,1.821-2.323,3.296-2.323h5.362c1.475,0,2.8,.934,3.296,2.323l.837,2.345c.092,.26,.379,.396,.639,.303,.26-.093,.396-.379,.303-.639l-.837-2.346c-.638-1.786-2.341-2.986-4.238-2.986H5.819C3.922,0,2.219,1.2,1.581,2.987l-.879,2.461c-.466,1.304-.702,2.667-.702,4.052,0,1.394,.818,2.599,2,3.162v1.338c0,1.103,.897,2,2,2s2-.897,2-2v-1.5c0-.276-.224-.5-.5-.5Zm-.5,2c0,.551-.449,1-1,1s-1-.449-1-1v-1.036c.164,.023,.33,.036,.5,.036h1.5v1Z"/></svg>
