<?xml version="1.0" encoding="UTF-8"?>
<svg xmlns="http://www.w3.org/2000/svg" id="Layer_1" data-name="Layer 1" viewBox="0 0 24 24" width="512" height="512"><path d="m16.608,16h-4.108v-3h4c.276,0,.5-.224.5-.5s-.224-.5-.5-.5h-4v-3h5c.276,0,.5-.224.5-.5s-.224-.5-.5-.5h-5v-3h6c.276,0,.5-.224.5-.5s-.224-.5-.5-.5h-6V1h7c.276,0,.5-.224.5-.5s-.224-.5-.5-.5H4.5c-.276,0-.5.224-.5.5s.224.5.5.5h7v3h-6c-.276,0-.5.224-.5.5s.224.5.5.5h6v3h-5c-.276,0-.5.224-.5.5s.224.5.5.5h5v3h-4c-.276,0-.5.224-.5.5s.224.5.5.5h4v3h-4.112c-1.399.011-2.597.822-3.127,2.116-.53,1.295-.245,2.715.744,3.704l.667.666c.976.977,2.273,1.514,3.653,1.514h5.352c1.38,0,2.678-.537,3.653-1.514l.667-.666c.989-.989,1.274-2.409.744-3.704-.53-1.294-1.729-2.105-3.131-2.116Zm1.68,5.113l-.667.666c-.787.787-1.833,1.221-2.946,1.221h-5.352c-1.113,0-2.16-.434-2.946-1.221l-.667-.666c-.836-.836-.82-1.9-.526-2.617.294-.718,1.028-1.486,2.206-1.496,1.425,0,2.608,1.075,2.608,2.5,0,.276.224.5.5.5s.5-.224.5-.5c0-.999-.377-1.874-1.004-2.5h4.062c-.651.636-1.058,1.52-1.058,2.5,0,.276.224.5.5.5s.5-.224.5-.5c0-1.379,1.226-2.5,2.604-2.5,1.182.01,1.916.778,2.21,1.496.294.717.31,1.781-.526,2.617Z"/></svg>
