<?xml version="1.0" encoding="UTF-8"?>
<svg xmlns="http://www.w3.org/2000/svg" id="Layer_1" data-name="Layer 1" viewBox="0 0 24 24" width="512" height="512"><path d="M14,13c0-1.1-.9-2-2-2s-2,.9-2,2c0,.81,.58,2.03,1.42,3.03-.62,.56-1.42,.97-2.42,.97-.8,0-1.58-.39-2.28-.99,1.39-1.6,2.28-3.76,2.28-5.01,0-1.65-1.35-3-3-3s-3,1.35-3,3c0,1.23,.87,3.43,2.3,5.03-.58,.5-1.22,.86-1.88,.97-.27,.04-.46,.3-.41,.57,.04,.25,.25,.42,.49,.42,.03,0,.05,0,.08,0,.88-.14,1.7-.61,2.42-1.25,.87,.76,1.88,1.26,3,1.26,3.3,0,5-3.5,5-5Zm-10-2c0-1.1,.9-2,2-2s2,.9,2,2-.8,2.93-1.98,4.31c-1.2-1.36-2.02-3.22-2.02-4.31Zm7,2c0-.55,.45-1,1-1s1,.45,1,1c0,.45-.29,1.41-.91,2.27-.68-.85-1.09-1.8-1.09-2.27Zm12.27-1.27c-.94-.94-2.59-.94-3.54,0l-7.71,7.71c-.66,.66-1.03,1.54-1.03,2.47v1.59c0,.28,.22,.5,.5,.5h1.59c.94,0,1.81-.36,2.47-1.03l7.71-7.71c.47-.47,.73-1.1,.73-1.77s-.26-1.3-.73-1.77Zm-.71,2.83l-7.71,7.71c-.47,.47-1.1,.73-1.77,.73h-1.09v-1.09c0-.67,.26-1.3,.73-1.77l7.71-7.71c.57-.57,1.55-.57,2.12,0,.28,.28,.44,.66,.44,1.06s-.16,.78-.44,1.06Zm-14.06,6.44H4.5c-1.93,0-3.5-1.57-3.5-3.5V4.5c0-1.93,1.57-3.5,3.5-3.5h6.5v3.5c0,1.38,1.12,2.5,2.5,2.5h3.5v3.5c0,.28,.22,.5,.5,.5s.5-.22,.5-.5v-3.67c.01-.98-.35-1.89-1.01-2.56l-3.24-3.24c-.66-.66-1.54-1.03-2.47-1.03H4.5C2.02,0,0,2.02,0,4.5v13c0,2.48,2.02,4.5,4.5,4.5h4c.28,0,.5-.22,.5-.5s-.22-.5-.5-.5ZM16.28,4.97c.29,.29,.49,.64,.61,1.03h-3.39c-.83,0-1.5-.67-1.5-1.5V1.11c.39,.12,.74,.33,1.04,.62l3.24,3.24Z"/></svg>
