<?xml version="1.0" encoding="UTF-8"?>
<svg xmlns="http://www.w3.org/2000/svg" id="Layer_1" data-name="Layer 1" viewBox="0 0 24 24" width="512" height="512"><path d="m16.5,2h-.55c-.232-1.14-1.242-2-2.45-2h-3c-1.208,0-2.217.86-2.45,2h-.55c-2.481,0-4.5,2.019-4.5,4.5v13c0,2.481,2.019,4.5,4.5,4.5h9c2.481,0,4.5-2.019,4.5-4.5V6.5c0-2.481-2.019-4.5-4.5-4.5Zm3.5,17.5c0,1.93-1.57,3.5-3.5,3.5H7.5c-1.93,0-3.5-1.57-3.5-3.5V6.5c0-1.93,1.57-3.5,3.5-3.5h1c.276,0,.5-.224.5-.5,0-.827.673-1.5,1.5-1.5h3c.827,0,1.5.673,1.5,1.5,0,.276.224.5.5.5h1c1.93,0,3.5,1.57,3.5,3.5v13Zm-8-6.5c1.654,0,3-1.346,3-3s-1.346-3-3-3-3,1.346-3,3,1.346,3,3,3Zm0-5c1.103,0,2,.897,2,2s-.897,2-2,2-2-.897-2-2,.897-2,2-2Zm4.985,9.879c.066.268-.097.54-.365.606-.041.01-.081.015-.121.015-.224,0-.428-.152-.485-.379-.449-1.808-2.137-3.121-4.015-3.121s-3.566,1.312-4.015,3.121c-.067.268-.339.427-.606.365-.268-.066-.431-.338-.365-.606.558-2.248,2.655-3.879,4.985-3.879s4.427,1.631,4.985,3.879Z"/></svg>
