<?xml version="1.0" encoding="UTF-8"?>
<svg xmlns="http://www.w3.org/2000/svg" id="Layer_1" data-name="Layer 1" viewBox="0 0 24 24" width="512" height="512"><path d="M5,6c0-.55,.45-1,1-1s1,.45,1,1-.45,1-1,1-1-.45-1-1Zm19-.5V14.5c0,2.48-2.02,4.5-4.5,4.5h-7v3h4.5c.28,0,.5,.22,.5,.5s-.22,.5-.5,.5H7c-.28,0-.5-.22-.5-.5s.22-.5,.5-.5h4.5v-3H4.5c-2.48,0-4.5-2.02-4.5-4.5V5.5C0,3.02,2.02,1,4.5,1h15c2.48,0,4.5,2.02,4.5,4.5ZM1,14.5c0,.74,.23,1.43,.63,2l6.67-6.67c1.09-1.09,2.98-1.09,4.07,0l.63,.63c.71,.71,1.95,.71,2.66,0l6.81-6.81c-.62-.99-1.72-1.66-2.97-1.66H4.5c-1.93,0-3.5,1.57-3.5,3.5V14.5ZM23,5.5c0-.29-.04-.58-.1-.85l-6.52,6.52c-1.09,1.09-2.98,1.09-4.07,0l-.63-.63c-.71-.71-1.95-.71-2.66,0l-6.69,6.69c.6,.48,1.36,.77,2.19,.77h15c1.93,0,3.5-1.57,3.5-3.5V5.5Z"/></svg>
