<?xml version="1.0" encoding="UTF-8"?>
<svg xmlns="http://www.w3.org/2000/svg" id="Layer_1" data-name="Layer 1" viewBox="0 0 24 24" width="512" height="512"><path d="M16.5,7H7.5c-.28,0-.5,.22-.5,.5v9c0,.28,.22,.5,.5,.5h9c.28,0,.5-.22,.5-.5V7.5c0-.28-.22-.5-.5-.5Zm-.5,9H8V8h8v8Zm7.5-5c.28,0,.5-.22,.5-.5s-.22-.5-.5-.5h-1.5v-2h1.5c.28,0,.5-.22,.5-.5s-.22-.5-.5-.5h-1.5v-.5c0-2.48-2.02-4.5-4.5-4.5h-.5V.5c0-.28-.22-.5-.5-.5s-.5,.22-.5,.5v1.5h-2V.5c0-.28-.22-.5-.5-.5s-.5,.22-.5,.5v1.5h-2V.5c0-.28-.22-.5-.5-.5s-.5,.22-.5,.5v1.5h-2V.5c0-.28-.22-.5-.5-.5s-.5,.22-.5,.5v1.5h-.5c-2.48,0-4.5,2.02-4.5,4.5v.5H.5c-.28,0-.5,.22-.5,.5s.22,.5,.5,.5h1.5v2H.5c-.28,0-.5,.22-.5,.5s.22,.5,.5,.5h1.5v2H.5c-.28,0-.5,.22-.5,.5s.22,.5,.5,.5h1.5v2H.5c-.28,0-.5,.22-.5,.5s.22,.5,.5,.5h1.5v.5c0,2.48,2.02,4.5,4.5,4.5h.5v1.5c0,.28,.22,.5,.5,.5s.5-.22,.5-.5v-1.5h2v1.5c0,.28,.22,.5,.5,.5s.5-.22,.5-.5v-1.5h2v1.5c0,.28,.22,.5,.5,.5s.5-.22,.5-.5v-1.5h2v1.5c0,.28,.22,.5,.5,.5s.5-.22,.5-.5v-1.5h.5c2.48,0,4.5-2.02,4.5-4.5v-.5h1.5c.28,0,.5-.22,.5-.5s-.22-.5-.5-.5h-1.5v-2h1.5c.28,0,.5-.22,.5-.5s-.22-.5-.5-.5h-1.5v-2h1.5Zm-2.5,6.5c0,1.93-1.57,3.5-3.5,3.5H6.5c-1.93,0-3.5-1.57-3.5-3.5V6.5c0-1.93,1.57-3.5,3.5-3.5h11c1.93,0,3.5,1.57,3.5,3.5v11Z"/></svg>
