<?xml version="1.0" encoding="UTF-8"?>
<svg xmlns="http://www.w3.org/2000/svg" id="Layer_1" data-name="Layer 1" viewBox="0 0 24 24" width="512" height="512"><path d="m24,21.5c0,.276-.224.5-.5.5H.5c-.276,0-.5-.224-.5-.5s.224-.5.5-.5h23c.276,0,.5.224.5.5ZM.387,17.092c-.257-.506-.387-1.042-.387-1.592,0-.736.237-1.448.687-2.059L9.201,3.403c.644-.881,1.672-1.403,2.799-1.403,1.121,0,2.145.516,2.811,1.416l8.481,9.989c.817,1.112.93,2.477.322,3.678-.609,1.201-1.775,1.917-3.121,1.917l-16.984.009c-1.346,0-2.513-.717-3.122-1.917Zm.613-1.592c0,.392.094.775.278,1.14.435.857,1.269,1.369,2.229,1.369l16.984-.009c.961,0,1.795-.512,2.229-1.369.434-.858.354-1.833-.214-2.607L14.015,4.021c-.475-.649-1.209-1.021-2.015-1.021s-1.54.372-2.015,1.021L1.471,14.06c-.3.411-.471.918-.471,1.44Z"/></svg>
