<?xml version="1.0" encoding="UTF-8"?>
<svg xmlns="http://www.w3.org/2000/svg" id="Layer_1" data-name="Layer 1" viewBox="0 0 24 24" width="512" height="512"><path d="m20.558,6.693l-1.521-3.752c-.724-1.787-2.448-2.941-4.396-2.941h-5.339c-1.946,0-3.672,1.154-4.396,2.941l-1.52,3.752c-.424,1.048-.526,2.186-.294,3.29l2.154,10.284c.453,2.163,2.403,3.732,4.637,3.732h4.176c2.234,0,4.185-1.569,4.637-3.732l2.155-10.284c.231-1.106.13-2.244-.294-3.29Zm-.685,3.085l-2.155,10.284c-.356,1.702-1.895,2.938-3.658,2.938h-4.176c-1.763,0-3.301-1.235-3.658-2.938l-2.154-10.284c-.191-.909-.107-1.847.243-2.71l1.52-3.752c.57-1.407,1.932-2.316,3.469-2.316h5.339c1.537,0,2.898.909,3.468,2.316l1.521,3.752c.35.862.434,1.799.243,2.71Zm-3.873-.778c0,.276-.224.5-.5.5h-3v5c0,.276-.224.5-.5.5s-.5-.224-.5-.5v-5h-3c-.276,0-.5-.224-.5-.5s.224-.5.5-.5h3v-3c0-.276.224-.5.5-.5s.5.224.5.5v3h3c.276,0,.5.224.5.5Z"/></svg>
