<?xml version="1.0" encoding="UTF-8"?>
<svg xmlns="http://www.w3.org/2000/svg" id="Layer_1" data-name="Layer 1" viewBox="0 0 24 24" width="512" height="512"><path d="M7,12c0,.552-.448,1-1,1s-1-.448-1-1,.448-1,1-1,1,.448,1,1Zm6,0c0,.552,.448,1,1,1s1-.448,1-1-.448-1-1-1-1,.448-1,1Zm-11-1c-.552,0-1,.448-1,1s.448,1,1,1,1-.448,1-1-.448-1-1-1Zm16,0c-.552,0-1,.448-1,1s.448,1,1,1,1-.448,1-1-.448-1-1-1Zm4,0c-.552,0-1,.448-1,1s.448,1,1,1,1-.448,1-1-.448-1-1-1Zm-12,0c-.552,0-1,.448-1,1s.448,1,1,1,1-.448,1-1-.448-1-1-1Zm.939-2.439c.293,.293,.678,.439,1.062,.439s.765-.146,1.055-.436l3.793-3.707c.197-.192,.201-.51,.008-.707-.191-.197-.509-.2-.707-.008l-3.65,3.568V.5c0-.276-.224-.5-.5-.5s-.5,.224-.5,.5V7.71l-3.65-3.568c-.196-.194-.514-.188-.707,.008-.193,.197-.189,.515,.008,.707l3.789,3.703Zm2.121,6.879c-.585-.584-1.536-.584-2.121,0l-3.75,3.75c-.195,.195-.195,.512,0,.707,.098,.098,.226,.146,.354,.146s.256-.049,.354-.146l3.604-3.604v7.207c0,.276,.224,.5,.5,.5s.5-.224,.5-.5v-7.21l3.65,3.568c.198,.194,.516,.189,.707-.008,.193-.197,.189-.515-.008-.707l-3.789-3.703Z"/></svg>
