<?xml version="1.0" encoding="UTF-8"?>
<svg xmlns="http://www.w3.org/2000/svg" id="Layer_1" data-name="Layer 1" viewBox="0 0 24 24" width="512" height="512"><path d="M15.401,17.797c-.098,.132-.249,.202-.402,.202-.103,0-.208-.032-.297-.098-.012-.009-1.239-.902-2.702-.902s-2.69,.893-2.702,.902c-.223,.165-.536,.116-.699-.104-.164-.222-.118-.534,.103-.698,.06-.045,1.497-1.099,3.298-1.099s3.238,1.054,3.298,1.099c.221,.165,.267,.477,.103,.698Zm-5.401-7.797c0-.552-.448-1-1-1h-3.5c-.276,0-.5,.224-.5,.5s.224,.5,.5,.5h2.5c0,.552,.448,1,1,1s1-.448,1-1Zm14,2c0,6.617-5.383,12-12,12S0,18.617,0,12,5.383,0,12,0s12,5.383,12,12Zm-1,0c0-6.065-4.935-11-11-11S1,5.935,1,12s4.935,11,11,11,11-4.935,11-11Zm-6-3h-3.5c-.276,0-.5,.224-.5,.5s.224,.5,.5,.5h2.5c0,.552,.448,1,1,1s1-.448,1-1-.448-1-1-1Z"/></svg>
