<?xml version="1.0" encoding="UTF-8"?>
<svg xmlns="http://www.w3.org/2000/svg" id="Layer_1" data-name="Layer 1" viewBox="0 0 24 24" width="512" height="512"><path d="M12,20c-2.28,0-4-1.72-4-4,0-3.645,1.57-6,4-6s4,2.355,4,6c0,2.28-1.72,4-4,4Zm0-9c-2.214,0-3,2.693-3,5,0,1.738,1.262,3,3,3s3-1.262,3-3c0-2.307-.786-5-3-5Zm0,13c-5.514,0-10-4.049-10-9.025C2,5.286,8.606,0,12,0c2.591,0,4.598,1.529,5.367,4.089,.553,1.84,1.452,3.588,2.675,5.196,1.464,1.926,1.958,3.362,1.958,5.689,0,4.977-4.486,9.025-10,9.025ZM12,1C9.309,1,3,5.754,3,14.975c0,4.425,4.038,8.025,9,8.025s9-3.6,9-8.025c0-2.102-.427-3.337-1.755-5.084-1.295-1.704-2.249-3.559-2.835-5.514-.646-2.146-2.253-3.377-4.41-3.377Z"/></svg>
