<?xml version="1.0" encoding="UTF-8"?>
<svg xmlns="http://www.w3.org/2000/svg" id="Layer_1" data-name="Layer 1" viewBox="0 0 24 24">
  <path d="m23.379.477c-.394-.357-.914-.524-1.43-.464-6.617.797-9.053,6.063-9.944,9.488-.002,0-.004-.001-.006-.001s-.004.001-.006.001C11.104,6.075,8.668.81,2.051.013c-.513-.057-1.035.107-1.43.464C.213.848-.014,1.376,0,1.927h0c.089,3.481,1.195,6.218,3.289,8.133,2.902,2.654,6.804,2.932,8.211,2.94v10.499c0,.276.224.5.5.5s.5-.224.5-.5v-10.499c1.407-.008,5.31-.286,8.211-2.94,2.094-1.916,3.2-4.652,3.289-8.133h0c.014-.551-.213-1.08-.621-1.451ZM3.958,9.316C2.076,7.592,1.081,5.097,1,1.902c-.007-.26.101-.51.294-.685.18-.165.402-.241.638-.211,7.97.96,9.312,8.86,9.528,10.992-1.316-.022-4.916-.311-7.502-2.681Zm16.084,0c-2.587,2.37-6.186,2.659-7.502,2.681.217-2.131,1.559-10.031,9.528-10.992.032-.004.063-.006.095-.006.197,0,.388.075.543.217.193.176.301.425.294.686-.081,3.195-1.076,5.689-2.958,7.414Z"/>
</svg>
