<?xml version="1.0" encoding="UTF-8"?>
<svg xmlns="http://www.w3.org/2000/svg" id="Layer_1" data-name="Layer 1" viewBox="0 0 24 24" width="512" height="512"><path d="M19.405,1.943L10.299,.074c-1.062-.219-2.146,.05-2.981,.732-.837,.683-1.317,1.693-1.317,2.773v.389l-3.963,3.929c-1.352,1.337-1.378,3.541-.061,4.913l5.023,5.21v2.479c0,1.93,1.57,3.5,3.5,3.5h7c1.93,0,3.5-1.57,3.5-3.5v-3.904l1.463-3.659c.356-.89,.537-1.827,.537-2.786v-3.8c0-2.127-1.512-3.981-3.595-4.408Zm2.595,8.208c0,.831-.156,1.643-.465,2.414l-1.499,3.749c-.024,.059-.036,.122-.036,.186v4c0,1.378-1.121,2.5-2.5,2.5h-7c-1.379,0-2.5-1.122-2.5-2.5v-2.68c0-.129-.05-.254-.14-.347L2.697,12.118c-.941-.98-.922-2.554,.043-3.509l3.26-3.231v5.123c0,.276,.224,.5,.5,.5s.5-.224,.5-.5V3.58c0-.778,.346-1.507,.949-1.999,.603-.492,1.387-.685,2.148-.528l9.106,1.869c1.62,.333,2.796,1.774,2.796,3.429v3.8Z"/></svg>
