<?xml version="1.0" encoding="UTF-8"?>
<svg xmlns="http://www.w3.org/2000/svg" id="Layer_1" data-name="Layer 1" viewBox="0 0 24 24" width="512" height="512"><path d="M18.488,5.02C18.255,.372,14.635,0,13.5,0c-.276,0-.5,.224-.5,.5s.224,.5,.5,.5c1.431,0,3.79,.537,3.987,4.023-3.045,.263-5.462,2.842-5.487,5.977,0,2.58-1.243,4-3.5,4-2.112,0-3.46-1.394-4.121-4.262-.236-1.023-1.122-1.738-2.155-1.738C1.032,9,.06,9.936,.009,11.131c-.006,.152-.009,.305-.009,.459,0,6.726,5.594,12.407,12.216,12.407,6.718,0,11.784-5.373,11.784-12.498v-.542c0-3.122-2.431-5.691-5.512-5.938Zm-.488,.98c1.224,0,2.346,.438,3.216,1.165-.685,1.137-1.897,1.835-3.216,1.835s-2.519-.691-3.206-1.819c.87-.736,1.989-1.181,3.206-1.181Zm5,5.5c0,6.555-4.636,11.498-10.784,11.498-6.08,0-11.216-5.224-11.216-11.407,0-.141,.003-.28,.009-.418,.027-.657,.562-1.172,1.215-1.172,.564,0,1.05,.396,1.181,.962,.96,4.164,3.301,5.038,5.096,5.038,2.817,0,4.5-1.869,4.5-4.996,.009-1.163,.413-2.234,1.081-3.084,.887,1.295,2.342,2.08,3.919,2.08,1.585,0,3.047-.793,3.933-2.1,.668,.843,1.067,1.905,1.067,3.058v.542ZM4.001,3.171v-.671c0-.276,.222-.5,.498-.5h0c.275,0,.5,.223,.5,.5v.671c0,.779,.304,1.511,.854,2.062,.729,.729,1.146,1.738,1.146,2.768v.501c-.002,.276-.226,.499-.501,.499h0c-.276,0-.5-.225-.499-.501v-.5c0-.766-.311-1.517-.853-2.06-.739-.739-1.146-1.722-1.146-2.768Zm5.146,1.46c-.739-.739-1.146-1.722-1.146-2.768V.5c0-.276,.224-.5,.5-.5s.5,.224,.5,.5V1.864c0,.779,.303,1.511,.854,2.061,.739,.739,1.146,1.722,1.146,2.768v.808c0,.276-.224,.5-.5,.5s-.5-.224-.5-.5v-.808c0-.779-.303-1.51-.854-2.061Z"/></svg>
