<?xml version="1.0" encoding="UTF-8"?>
<svg xmlns="http://www.w3.org/2000/svg" id="Layer_1" data-name="Layer 1" viewBox="0 0 24 24" width="512" height="512"><path d="M17.171,8.03l-2.171-.868V1h.5c.276,0,.5-.224,.5-.5s-.224-.5-.5-.5h-7c-.276,0-.5,.224-.5,.5s.224,.5,.5,.5h.5V7.162l-2.171,.868c-1.719,.688-2.829,2.327-2.829,4.178v7.292c0,2.481,2.019,4.5,4.5,4.5h7c2.481,0,4.5-2.019,4.5-4.5v-7.292c0-1.851-1.11-3.491-2.829-4.178Zm1.829,11.47c0,1.93-1.57,3.5-3.5,3.5h-7c-1.93,0-3.5-1.57-3.5-3.5v-7.292c0-1.439,.864-2.715,2.2-3.25l2.485-.994c.19-.076,.314-.26,.314-.464V1h4V7.5c0,.205,.124,.388,.314,.464l2.485,.994c1.337,.535,2.2,1.81,2.2,3.25v7.292Zm-3.5-5.5h-7c-.276,0-.5,.224-.5,.5v4c0,.276,.224,.5,.5,.5h7c.276,0,.5-.224,.5-.5v-4c0-.276-.224-.5-.5-.5Zm-.5,4h-6v-3h6v3Z"/></svg>
