<?xml version="1.0" encoding="UTF-8"?>
<svg xmlns="http://www.w3.org/2000/svg" id="Layer_1" data-name="Layer 1" viewBox="0 0 24 24">
  <path d="m23.558,1.582l-1.14-1.139c-.548-.548-1.412-.592-2.011-.099-.646.533-1.679,1.215-2.938,1.442-.772.139-1.447.478-1.951.98L.891,17.396C.315,17.971-.002,18.737-.001,19.552c0,.814.318,1.58.895,2.155l1.4,1.401c.595.594,1.376.892,2.157.892s1.562-.297,2.156-.892l14.624-14.625c.504-.503.844-1.179.983-1.954.228-1.259.91-2.292,1.442-2.937.493-.597.45-1.461-.099-2.011ZM5.9,22.401c-.798.799-2.1.8-2.899,0l-1.4-1.401c-.388-.387-.602-.902-.602-1.449s.213-1.061.6-1.448L15.718,3.982l4.3,4.3-14.118,14.119ZM22.885,2.956c-.608.737-1.389,1.924-1.655,3.396-.083.466-.282.858-.539,1.189l-4.232-4.232c.331-.257.723-.455,1.19-.539,1.472-.266,2.659-1.047,3.396-1.655.092-.076.202-.113.313-.113.128,0,.256.049.354.147l1.14,1.139c.183.183.197.469.034.667Zm-5.885,5.044c0,.552-.448,1-1,1s-1-.448-1-1,.448-1,1-1,1,.448,1,1Zm-2.75,2.75c0,.552-.448,1-1,1s-1-.448-1-1,.448-1,1-1,1,.448,1,1Zm-2.75,2.75c0,.552-.448,1-1,1s-1-.448-1-1,.448-1,1-1,1,.448,1,1Zm-2.75,2.75c0,.552-.448,1-1,1s-1-.448-1-1,.448-1,1-1,1,.448,1,1Zm-2.75,2.75c0,.552-.448,1-1,1s-1-.448-1-1,.448-1,1-1,1,.448,1,1Z"/>
</svg>
