<?xml version="1.0" encoding="UTF-8"?>
<svg xmlns="http://www.w3.org/2000/svg" id="Layer_1" data-name="Layer 1" viewBox="0 0 24 24" width="512" height="512"><path d="M19.5,13h-4.3l1.66-4.69c.44-1.31-.26-2.73-1.56-3.17-.59-.2-1.21-.17-1.76,.05l.42-2.27c.11-.66-.04-1.32-.42-1.87-.39-.54-.96-.91-1.62-1.02-1.35-.23-2.65,.68-2.88,2.03l-.04,.19-.03-.17C8.73,.71,7.43-.2,6.08,.03c-.66,.11-1.23,.47-1.62,1.02-.39,.55-.54,1.21-.42,1.87l.42,2.26c-.55-.23-1.17-.25-1.76-.05-1.31,.45-2.01,1.87-1.56,3.18l1.66,4.69h-.29c-.76,0-1.46,.34-1.94,.92-.48,.59-.66,1.35-.51,2.09l.92,4.41c.43,2.08,2.29,3.58,4.41,3.58h14.12c2.48,0,4.5-2.02,4.5-4.5v-2c0-2.48-2.02-4.5-4.5-4.5Zm3.5,4.5v.5H10v-.5c0-1.93,1.57-3.5,3.5-3.5h6c1.93,0,3.5,1.57,3.5,3.5Zm-4.15,1.5l-1.35,.9-1.35-.9h2.7ZM13.37,6.5c.4-.45,1.04-.62,1.6-.42,.78,.27,1.2,1.12,.94,1.9l-1.77,5.02h-2.05l1.19-6.42s.06-.05,.09-.08Zm-3.35-4.26c.14-.81,.92-1.36,1.73-1.22,.4,.07,.74,.28,.97,.61,.23,.33,.32,.73,.26,1.11l-1.9,10.26h-3.22L10.02,2.24Zm-4.75-.61c.23-.33,.58-.54,.97-.61,.81-.14,1.59,.41,1.73,1.24l.51,2.54-1.61,8L5.02,2.75c-.07-.4,.02-.79,.25-1.12ZM2.08,7.99c-.27-.78,.15-1.64,.94-1.91,.57-.2,1.2-.03,1.6,.42,.03,.03,.06,.05,.09,.08l1.19,6.42H3.85l-1.77-5.01Zm3.3,15.01c-1.65,0-3.09-1.17-3.43-2.79l-.92-4.41c-.09-.44,.02-.9,.3-1.25s.71-.55,1.16-.55H10.67c-1.02,.83-1.67,2.09-1.67,3.5v2c0,1.41,.65,2.67,1.67,3.5H5.38Zm14.12,0h-6c-1.93,0-3.5-1.57-3.5-3.5v-.5h4.35l2.87,1.92c.08,.06,.18,.08,.28,.08s.19-.03,.28-.08l2.87-1.92h2.35v.5c0,1.93-1.57,3.5-3.5,3.5Z"/></svg>
