<?xml version="1.0" encoding="UTF-8"?>
<svg xmlns="http://www.w3.org/2000/svg" id="Layer_1" data-name="Layer 1" width="512" height="512" viewBox="0 0 24 24"><path d="M9,10.5c0-1.215-.771-2.5-1.5-2.5s-1.5,1.285-1.5,2.5c0,.276-.224,.5-.5,.5s-.5-.224-.5-.5c0-1.652,1.069-3.5,2.5-3.5s2.5,1.848,2.5,3.5c0,.276-.224,.5-.5,.5s-.5-.224-.5-.5Zm7.5-3.5c-1.431,0-2.5,1.848-2.5,3.5,0,.276,.224,.5,.5,.5s.5-.224,.5-.5c0-1.215,.771-2.5,1.5-2.5s1.5,1.285,1.5,2.5c0,.276,.224,.5,.5,.5s.5-.224,.5-.5c0-1.652-1.069-3.5-2.5-3.5Zm7.5,5c0,6.617-5.383,12-12,12S0,18.617,0,12,5.383,0,12,0s12,5.383,12,12Zm-1,0c0-6.065-4.935-11-11-11S1,5.935,1,12s4.935,11,11,11,11-4.935,11-11Zm-8.529,4c.326-.318,.529-.76,.529-1.25,0-.965-.785-1.75-1.75-1.75h-1.25c-.276,0-.5,.224-.5,.5s.224,.5,.5,.5h1.25c.413,0,.75,.336,.75,.75s-.337,.75-.75,.75h-.25c-.276,0-.5,.224-.5,.5s.224,.5,.5,.5h.25c.413,0,.75,.336,.75,.75s-.337,.75-.75,.75h-1.25c-.276,0-.5,.224-.5,.5s.224,.5,.5,.5h1.25c.965,0,1.75-.785,1.75-1.75,0-.49-.204-.932-.529-1.25Z"/></svg>
