<?xml version="1.0" encoding="UTF-8"?>
<svg xmlns="http://www.w3.org/2000/svg" id="Layer_1" data-name="Layer 1" viewBox="0 0 24 24" width="512" height="512"><path d="m24,20.5c0,1.93-1.57,3.5-3.5,3.5s-3.5-1.57-3.5-3.5V1h-9v15.112c0,4.766-3.031,7.634-3.16,7.754-.096.089-.218.134-.34.134-.134,0-.268-.054-.366-.16-.188-.202-.177-.518.025-.706.028-.027,2.841-2.706,2.841-7.022V1h-1c-1.596,0-2.841.438-3.7,1.302-1.295,1.303-1.3,3.175-1.3,3.194.001.276-.22.501-.496.504h-.004c-.274,0-.497-.22-.5-.494,0-.093-.007-2.293,1.582-3.899C2.635.541,4.122,0,6,0h17.5c.276,0,.5.224.5.5s-.224.5-.5.5h-5.5v19.5c0,1.378,1.122,2.5,2.5,2.5s2.5-1.122,2.5-2.5c0-.276.224-.5.5-.5s.5.224.5.5Z"/></svg>
