<?xml version="1.0" encoding="UTF-8"?>
<svg xmlns="http://www.w3.org/2000/svg" id="Layer_1" data-name="Layer 1" viewBox="0 0 24 24" width="512" height="512"><path d="M24,3.5c0-1.93-1.57-3.5-3.5-3.5s-3.5,1.57-3.5,3.5c0,1.76,1.306,3.221,3,3.464v.536c0,1.93-1.57,3.5-3.5,3.5H7.5c-1.412,0-2.674,.654-3.5,1.674V6.964c1.694-.243,3-1.704,3-3.464,0-1.93-1.57-3.5-3.5-3.5S0,1.57,0,3.5c0,1.76,1.306,3.221,3,3.464v10.072c-1.694,.243-3,1.704-3,3.464,0,1.93,1.57,3.5,3.5,3.5s3.5-1.57,3.5-3.5c0-1.76-1.306-3.221-3-3.464v-1.536c0-1.93,1.57-3.5,3.5-3.5h9c2.481,0,4.5-2.019,4.5-4.5v-.536c1.694-.243,3-1.704,3-3.464ZM1,3.5c0-1.378,1.122-2.5,2.5-2.5s2.5,1.122,2.5,2.5-1.122,2.5-2.5,2.5S1,4.878,1,3.5ZM6,20.5c0,1.378-1.122,2.5-2.5,2.5s-2.5-1.122-2.5-2.5,1.122-2.5,2.5-2.5,2.5,1.122,2.5,2.5ZM20.5,6c-1.378,0-2.5-1.122-2.5-2.5s1.122-2.5,2.5-2.5,2.5,1.122,2.5,2.5-1.122,2.5-2.5,2.5Z"/></svg>
