<?xml version="1.0" encoding="UTF-8"?>
<svg xmlns="http://www.w3.org/2000/svg" id="Layer_1" data-name="Layer 1" viewBox="0 0 24 24" width="512" height="512"><path d="m11.5,19c-.276,0-.5-.224-.5-.5v-10c0-.276.224-.5.5-.5s.5.224.5.5v10c0,.276-.224.5-.5.5Zm0,2c-.552,0-1,.448-1,1s.448,1,1,1,1-.448,1-1-.448-1-1-1Zm6.647-13.809c-.44-.098-.805-.377-1-.766-1.616-3.224-5.104-4.944-8.675-4.279-3.135.582-5.669,3.081-6.306,6.218-.19.933-.218,1.873-.083,2.796.083.567-.058,1.073-.387,1.387C.604,13.592.001,14.996,0,16.5c0,3.032,2.467,5.5,5.5,5.5h2c.276,0,.5-.224.5-.5s-.224-.5-.5-.5h-2c-2.481,0-4.5-2.019-4.5-4.499.001-1.229.495-2.376,1.388-3.231.566-.54.815-1.361.685-2.254-.118-.808-.093-1.633.074-2.452.556-2.742,2.77-4.926,5.508-5.435,3.13-.582,6.185.923,7.598,3.744.33.659.941,1.131,1.676,1.295,3.051.685,5.182,3.453,5.066,6.584-.128,3.445-3.16,6.248-6.759,6.248h-.736c-.276,0-.5.224-.5.5s.224.5.5.5h.736c4.13,0,7.611-3.234,7.758-7.211.134-3.612-2.325-6.808-5.847-7.598Z"/></svg>
