<?xml version="1.0" encoding="UTF-8"?>
<svg xmlns="http://www.w3.org/2000/svg" id="Layer_1" data-name="Layer 1" viewBox="0 0 24 24" width="512" height="512"><path d="m19.5,2H4.5C2.019,2,0,4.019,0,6.5v11c0,2.481,2.019,4.5,4.5,4.5h15c2.481,0,4.5-2.019,4.5-4.5V6.5c0-2.481-2.019-4.5-4.5-4.5ZM1,7h10.5v6.5H1v-6.5Zm11.5,0h10.5v6.5h-10.5v-6.5ZM4.5,3h15c1.76,0,3.221,1.306,3.464,3H1.036c.243-1.694,1.704-3,3.464-3Zm-3.5,14.5v-3h10.5v6.5h-7c-1.93,0-3.5-1.57-3.5-3.5Zm18.5,3.5h-7v-6.5h10.5v3c0,1.93-1.57,3.5-3.5,3.5Z"/></svg>
