<?xml version="1.0" encoding="UTF-8"?>
<svg xmlns="http://www.w3.org/2000/svg" id="Layer_1" data-name="Layer 1" width="512" height="512" viewBox="0 0 24 24"><path d="M12,24c-.276,0-.5-.224-.5-.5v-3.516c-1.104-.068-2.148-.361-3.087-.835l-1.767,3.037c-.142,.239-.447,.318-.684,.182-.239-.14-.32-.445-.182-.684l1.769-3.04c-.867-.582-1.614-1.329-2.196-2.196l-3.026,1.762c-.238,.137-.545,.058-.685-.181-.139-.239-.058-.545,.181-.685l3.025-1.76c-.472-.938-.765-1.981-.833-3.085H.5c-.276,0-.5-.224-.5-.5s.224-.5,.5-.5h3.516c.068-1.105,.362-2.151,.837-3.092l-3.035-1.766c-.239-.14-.32-.445-.182-.684,.14-.241,.445-.32,.684-.182l3.038,1.769c.587-.872,1.341-1.623,2.214-2.206l-1.763-3.032c-.139-.238-.058-.545,.182-.684,.236-.138,.544-.059,.684,.182l1.763,3.032c.933-.466,1.969-.755,3.063-.822V.5c0-.276,.224-.5,.5-.5s.5,.224,.5,.5v3.516c1.1,.068,2.14,.359,3.075,.829l1.768-3.039c.139-.24,.446-.319,.684-.182,.239,.14,.32,.445,.182,.684l-1.769,3.04c.871,.584,1.623,1.334,2.207,2.205l3.049-1.775c.236-.139,.544-.059,.685,.181,.139,.239,.058,.545-.181,.685l-3.048,1.773c.472,.938,.765,1.981,.833,3.084h3.516c.276,0,.5,.224,.5,.5s-.224,.5-.5,.5h-3.516c-.068,1.101-.359,2.142-.83,3.078l3.038,1.767c.238,.14,.319,.445,.181,.685-.142,.238-.444,.317-.685,.181l-3.038-1.769c-.58,.866-1.324,1.613-2.188,2.195l1.772,3.048c.139,.238,.058,.544-.182,.684-.237,.137-.545,.058-.684-.182l-1.77-3.043c-.942,.477-1.99,.772-3.1,.841v3.516c0,.276-.224,.5-.5,.5Zm0-19c-3.859,0-7,3.141-7,7s3.141,7,7,7,7-3.141,7-7-3.141-7-7-7Zm0,12c-1.413,0-2.768-.603-3.715-1.652-.96-1.064-1.406-2.442-1.258-3.879,.229-2.205,1.984-4.058,4.176-4.405,.681-.108,1.443-.077,2.094,.085,.393,.1,.701,.406,.804,.802,.102,.393-.018,.807-.311,1.081-.819,.771-1.29,1.778-1.29,2.765,0,1.089,.604,2.208,1.613,2.994,.319,.246,.479,.649,.414,1.05-.063,.402-.34,.737-.722,.874-.496,.177-1.188,.286-1.806,.286Zm.031-9c-.229,0-.457,.018-.671,.052-1.752,.277-3.156,1.758-3.339,3.521-.119,1.15,.238,2.254,1.007,3.105,.758,.84,1.841,1.322,2.972,1.322,.496,0,1.087-.092,1.469-.228,.05-.019,.066-.059,.071-.089,.005-.029,.002-.071-.039-.104-1.253-.975-2.001-2.389-2.001-3.784,0-1.262,.585-2.535,1.606-3.493,.027-.026,.036-.061,.025-.102-.006-.025-.025-.069-.079-.082-.312-.079-.668-.119-1.021-.119Z"/></svg>
