<?xml version="1.0" encoding="UTF-8"?>
<svg xmlns="http://www.w3.org/2000/svg" id="Layer_1" data-name="Layer 1" viewBox="0 0 24 24">
  <path d="m19.5,1H4.5C2.019,1,0,3.019,0,5.5v13c0,2.481,2.019,4.5,4.5,4.5h15c2.481,0,4.5-2.019,4.5-4.5V5.5c0-2.481-2.019-4.5-4.5-4.5Zm0,1c.283,0,.557.034.821.097l-4.903,4.903h-4.836l5-5h3.918Zm-5.332,0l-5,5h-4.943l5.106-5h4.836ZM1,5.5c0-1.93,1.57-3.5,3.5-3.5h3.402L2.796,7h-1.796v-1.5Zm22,13c0,1.93-1.57,3.5-3.5,3.5H4.5c-1.93,0-3.5-1.57-3.5-3.5v-10.5h22v10.5Zm0-11.5h-6.168l4.488-4.488c1.007.615,1.68,1.724,1.68,2.988v1.5Z"/>
</svg>
