<?xml version="1.0" encoding="UTF-8"?>
<svg xmlns="http://www.w3.org/2000/svg" id="Layer_1" data-name="Layer 1" viewBox="0 0 24 24" width="512" height="512"><path d="M23.371,10.096c-.658-1.139-1.775-1.954-3.064-2.237-1.788-.394-4.735-.813-7.807-.855v-3.004h3c.276,0,.5-.224,.5-.5s-.224-.5-.5-.5h-3V.5c0-.276-.224-.5-.5-.5s-.5,.224-.5,.5V3h-3c-.276,0-.5,.224-.5,.5s.224,.5,.5,.5h3v3.004c-3.072,.042-6.018,.461-7.807,.855-1.289,.283-2.406,1.099-3.064,2.237C-.026,11.229-.175,12.596,.222,13.854l3.082,9.146h-.804c-.276,0-.5,.224-.5,.5s.224,.5,.5,.5H21.5c.276,0,.5-.224,.5-.5s-.224-.5-.5-.5h-.804l3.085-9.155c.395-1.249,.245-2.616-.41-3.749Zm-.54,3.439l-3.189,9.465H4.359L1.172,13.544c-.314-.997-.2-2.044,.322-2.947,.519-.896,1.398-1.538,2.414-1.762,1.834-.403,4.923-.835,8.092-.835s6.258,.432,8.092,.835c1.016,.224,1.895,.865,2.414,1.762,.522,.903,.637,1.95,.325,2.938Z"/></svg>
