<?xml version="1.0" encoding="UTF-8"?>
<svg xmlns="http://www.w3.org/2000/svg" id="Layer_1" data-name="Layer 1" viewBox="0 0 24 24" width="512" height="512"><path d="M19,.5c0-.276,.224-.5,.5-.5h4c.202,0,.385,.122,.462,.309s.034,.402-.108,.545l-3.146,3.146h2.793c.276,0,.5,.224,.5,.5s-.224,.5-.5,.5h-4c-.202,0-.385-.122-.462-.309s-.034-.402,.108-.545l3.146-3.146h-2.793c-.276,0-.5-.224-.5-.5Zm-2.038,3.809c-.077-.187-.26-.309-.462-.309h-4c-.276,0-.5,.224-.5,.5s.224,.5,.5,.5h2.793l-3.146,3.146c-.143,.143-.186,.358-.108,.545s.26,.309,.462,.309h4c.276,0,.5-.224,.5-.5s-.224-.5-.5-.5h-2.793l3.146-3.146c.143-.143,.186-.358,.108-.545Zm-6.962,13.691c0-1.103,.897-2,2-2s2,.897,2,2-.897,2-2,2-2-.897-2-2Zm1,0c0,.551,.448,1,1,1s1-.449,1-1-.448-1-1-1-1,.449-1,1Zm2.844-6.86c-.201-.189-.518-.181-.707,.02-.189,.201-.181,.517,.02,.707,.849,.802,1.835,1.137,2.788,1.137,1.097,0,2.149-.444,2.895-1.133,.203-.187,.216-.503,.028-.707-.187-.202-.503-.215-.706-.028-.846,.78-2.767,1.47-4.317,.004Zm-2.977,.021c-.187-.202-.503-.215-.706-.028-.846,.78-2.767,1.47-4.317,.004-.201-.19-.518-.18-.707,.02-.189,.201-.181,.517,.02,.707,.849,.802,1.835,1.137,2.788,1.137,1.097,0,2.149-.444,2.895-1.133,.203-.187,.216-.503,.028-.707Zm11.522-4.121c-.254,.108-.372,.402-.264,.656,.58,1.362,.874,2.81,.874,4.304,0,6.065-4.935,11-11,11S1,18.065,1,12,5.935,1,12,1c1.494,0,2.942,.294,4.304,.874,.256,.108,.548-.01,.656-.264,.108-.254-.01-.548-.264-.656-1.487-.633-3.067-.954-4.696-.954C5.383,0,0,5.383,0,12s5.383,12,12,12,12-5.383,12-12c0-1.63-.321-3.21-.954-4.696-.108-.255-.399-.373-.656-.264Z"/></svg>
