<?xml version="1.0" encoding="UTF-8"?>
<svg xmlns="http://www.w3.org/2000/svg" id="arrow-circle-down" viewBox="0 0 24 24" width="512" height="512"><path d="M19.492,5.215l2.455,2.457c.23,.23,.536,.353,.848,.353,.155,0,.312-.03,.461-.093,.451-.187,.742-.622,.742-1.109l.002-5.324c0-.4-.155-.776-.438-1.061C23.278,.154,22.901-.002,22.501-.002h-5.32c-.488,0-.924,.291-1.111,.742-.187,.451-.084,.966,.261,1.311l2.455,2.457-6.785,6.785L5.215,4.508l2.456-2.455h0c.345-.344,.447-.857,.261-1.308C7.748,.295,7.312,.003,6.823,.002l-5.323-.002C.673,0,0,.673,0,1.5V6.82C0,7.308,.291,7.744,.742,7.931c.149,.062,.306,.092,.461,.092,.312,0,.618-.122,.849-.353l2.456-2.455,6.785,6.785-6.785,6.785-2.456-2.455c-.346-.345-.86-.445-1.31-.261C.291,16.256,0,16.692,0,17.18v5.32c0,.827,.673,1.5,1.5,1.5l5.324-.002c.488,0,.923-.293,1.109-.744,.186-.45,.083-.964-.261-1.308h0l-2.456-2.455,6.785-6.785,6.785,6.785-2.455,2.457c-.345,.345-.447,.859-.261,1.311,.187,.451,.623,.742,1.111,.742h5.32c.4,0,.777-.156,1.061-.439,.283-.284,.439-.66,.438-1.061l-.002-5.324c0-.487-.291-.923-.742-1.109-.452-.189-.965-.085-1.309,.26l-2.455,2.457-6.785-6.785,6.785-6.785Zm-2.498-4.092c.02-.047,.07-.125,.188-.125h5.32c.133,0,.258,.052,.353,.146,.094,.095,.146,.22,.146,.354l-.002,5.324c0,.117-.078,.167-.125,.186-.045,.02-.136,.04-.219-.043l-2.769-2.772c-.012-.015-.017-.033-.031-.047s-.032-.019-.046-.031l-2.769-2.772c-.083-.083-.063-.174-.044-.221ZM1.345,6.963c-.083,.083-.174,.062-.221,.044-.046-.02-.125-.069-.125-.187V1.5c0-.275,.225-.5,.5-.5l5.322,.002c.118,0,.168,.078,.187,.125s.039,.137-.043,.22l-2.768,2.766c-.016,.013-.036,.019-.051,.034s-.021,.034-.034,.051L1.345,6.963Zm5.621,15.69c.083,.083,.062,.173,.043,.22s-.069,.125-.186,.125l-5.323,.002c-.276,0-.5-.225-.5-.5v-5.32c0-.117,.078-.167,.125-.187,.021-.008,.049-.017,.083-.017,.042,0,.091,.014,.138,.061l2.768,2.766c.013,.016,.018,.035,.033,.05s.034,.021,.05,.033l2.769,2.766h0Zm15.688-5.618c.083-.083,.174-.063,.219-.043,.046,.019,.125,.068,.125,.186l.002,5.324c0,.134-.052,.259-.146,.354-.095,.095-.22,.146-.353,.146h-5.32c-.118,0-.168-.078-.188-.125-.019-.047-.039-.138,.044-.221l2.769-2.772c.015-.012,.033-.017,.046-.031s.019-.032,.031-.047l2.769-2.772Z"/></svg>
