<?xml version="1.0" encoding="UTF-8"?>
<svg xmlns="http://www.w3.org/2000/svg" id="Layer_1" data-name="Layer 1" viewBox="0 0 24 24" width="512" height="512"><path d="m5.208,5.604l.792.396v2c0,3.309,2.691,6,6,6s6-2.691,6-6v-2.001l.791-.396c.746-.371,1.209-1.119,1.209-1.953,0-.971-.652-1.835-1.587-2.103L13.666.2c-1.094-.271-2.262-.269-3.394.018l-4.685,1.332c-.934.266-1.586,1.13-1.586,2.101,0,.834.463,1.582,1.208,1.953Zm6.792,7.396c-2.757,0-5-2.243-5-5v-.639c.929.275,2.612.639,5,.639s4.07-.365,5-.639v.639c0,2.757-2.243,5-5,5ZM5.86,2.511l4.67-1.327c.958-.24,1.96-.244,2.878-.017l4.731,1.343c.507.146.861.614.861,1.141,0,.452-.251.857-.655,1.059l-1.068.534c-.169.085-.276.258-.276.447v.624c-.776.256-2.458.686-5,.686s-4.223-.43-5-.686v-.624c0-.189-.107-.362-.276-.447l-1.069-.534c-.404-.201-.654-.606-.654-1.059,0-.526.354-.995.86-1.14Zm3.211,1.232c.142-.236.448-.315.686-.172l2.243,1.346,2.243-1.346c.237-.144.544-.064.686.172.142.236.065.544-.171.686l-2.5,1.5c-.079.048-.168.071-.257.071s-.178-.023-.257-.071l-2.5-1.5c-.237-.142-.313-.449-.171-.686Zm11.914,19.728c.016.276-.194.513-.47.528-.01,0-.02,0-.029,0-.263,0-.483-.205-.499-.471-.235-4.055-3.481-7.256-7.486-7.505v7.476c0,.276-.224.5-.5.5s-.5-.224-.5-.5v-7.476c-4.005.249-7.251,3.451-7.486,7.505-.016.275-.253.495-.528.47-.276-.016-.486-.252-.47-.528.275-4.75,4.222-8.471,8.984-8.471s8.709,3.721,8.984,8.471Z"/></svg>
