<?xml version="1.0" encoding="UTF-8"?>
<svg xmlns="http://www.w3.org/2000/svg" id="Layer_1" data-name="Layer 1" width="512" height="512" viewBox="0 0 24 24"><path d="M12.828,19.001c-.635,0-1.233-.084-1.759-.201-.539-.12-.95-.551-1.047-1.097-.098-.551,.133-1.08,.602-1.381,.25-.16,.529-.302,.84-.457,.707-.354,1.586-.796,2.597-1.805,1.009-1.01,1.451-1.89,1.805-2.597,.155-.311,.297-.59,.457-.84,.299-.469,.831-.698,1.38-.602,.546,.097,.977,.507,1.097,1.046h0c.377,1.698,.408,4.14-1.589,6.138-1.38,1.38-2.971,1.794-4.382,1.794Zm4.631-8c-.086,0-.208,.028-.295,.163-.142,.222-.267,.473-.405,.749-.387,.771-.868,1.731-1.992,2.855-1.125,1.124-2.084,1.605-2.855,1.992-.276,.138-.526,.263-.748,.405-.18,.115-.169,.293-.157,.365,.01,.057,.06,.246,.279,.295,1.452,.321,3.537,.355,5.217-1.324,1.676-1.677,1.643-3.761,1.32-5.213h0c-.049-.22-.238-.27-.295-.279-.018-.003-.042-.006-.069-.006ZM6.5,24c-1.378,0-2.5-1.122-2.5-2.5,0-1.293,1.017-2.964,1.658-3.713,.21-.246,.516-.387,.839-.387h.003c.324,0,.63,.144,.84,.392,.642,.76,1.66,2.439,1.66,3.708,0,1.378-1.122,2.5-2.5,2.5Zm-.083-5.563c-.594,.695-1.417,2.146-1.417,3.063,0,.827,.673,1.5,1.5,1.5s1.5-.673,1.5-1.5c0-.898-.827-2.355-1.424-3.062h-.159Zm15.083-9.438c-1.269,0-2.948-1.018-3.708-1.66-.249-.21-.391-.516-.392-.84s.14-.631,.387-.842c.75-.641,2.42-1.658,3.713-1.658,1.378,0,2.5,1.122,2.5,2.5s-1.122,2.5-2.5,2.5Zm-3.063-2.424c.707,.597,2.165,1.424,3.063,1.424,.827,0,1.5-.673,1.5-1.5s-.673-1.5-1.5-1.5c-.917,0-2.368,.823-3.063,1.417v.159Zm-6.839,2.414l3.536-.707c.271-.054,.446-.317,.392-.588-.054-.271-.316-.45-.588-.392l-2.8,.56,.56-2.8c.054-.271-.122-.534-.392-.588-.269-.056-.535,.121-.588,.392l-.707,3.536c-.033,.164,.019,.333,.137,.452,.095,.095,.222,.146,.354,.146,.033,0,.065-.003,.098-.01Zm-3.315,6.144l.707-3.536c.033-.164-.019-.333-.137-.452-.119-.118-.288-.169-.452-.137l-3.536,.707c-.271,.054-.446,.317-.392,.588,.054,.271,.315,.449,.588,.392l2.8-.56-.56,2.8c-.054,.271,.122,.534,.392,.588,.033,.007,.066,.01,.099,.01,.233,0,.442-.164,.49-.402Zm-5.489,3.778c.228-.156,.286-.467,.129-.695-1.258-1.834-1.924-3.984-1.924-6.217C1,5.935,5.935,1,12,1c2.233,0,4.383,.666,6.217,1.924,.229,.158,.54,.099,.695-.129,.156-.228,.099-.539-.129-.695C16.782,.726,14.436,0,12,0,5.383,0,0,5.383,0,12c0,2.436,.726,4.782,2.1,6.783,.097,.142,.253,.217,.413,.217,.098,0,.196-.028,.282-.088Zm21.206-6.912c0-.522-.034-1.049-.102-1.564-.036-.274-.286-.471-.56-.431-.274,.036-.467,.287-.431,.56,.062,.474,.093,.957,.093,1.436,0,6.065-4.935,11-11,11-.479,0-.962-.031-1.436-.093-.276-.041-.525,.157-.56,.431-.036,.273,.157,.524,.431,.56,.516,.067,1.042,.102,1.564,.102,6.617,0,12-5.383,12-12Z"/></svg>
