<?xml version="1.0" encoding="UTF-8"?>
<svg xmlns="http://www.w3.org/2000/svg" id="Layer_1" data-name="Layer 1" viewBox="0 0 24 24" width="512" height="512"><path d="M7.5,14.5c-1.93,0-3.5-1.57-3.5-3.5s1.57-3.5,3.5-3.5,3.5,1.57,3.5,3.5-1.57,3.5-3.5,3.5Zm0-6c-1.379,0-2.5,1.121-2.5,2.5s1.121,2.5,2.5,2.5,2.5-1.121,2.5-2.5-1.121-2.5-2.5-2.5Zm0,1.5c-.552,0-1,.448-1,1s.448,1,1,1,1-.448,1-1-.448-1-1-1Zm9,4.5c-1.93,0-3.5-1.57-3.5-3.5s1.57-3.5,3.5-3.5,3.5,1.57,3.5,3.5-1.57,3.5-3.5,3.5Zm0-6c-1.379,0-2.5,1.121-2.5,2.5s1.121,2.5,2.5,2.5,2.5-1.121,2.5-2.5-1.121-2.5-2.5-2.5Zm0,1.5c-.552,0-1,.448-1,1s.448,1,1,1,1-.448,1-1-.448-1-1-1Zm-4.5,14C5.383,24,0,18.617,0,12S5.383,0,12,0s12,5.383,12,12-5.383,12-12,12ZM12,1C5.935,1,1,5.935,1,12s4.935,11,11,11,11-4.935,11-11S18.065,1,12,1Zm-2.398,18c-.358,0-.696-.175-.904-.468-.205-.29-.257-.646-.141-.978,.444-1.27,1.77-2.555,3.443-2.555s3.016,1.32,3.439,2.563c.112,.33,.059,.685-.146,.971-.208,.291-.546,.465-.903,.465h-4.788Zm2.398-2.999c-1.195,0-2.18,.971-2.5,1.885,.022,.083,.052,.115,.102,.115h4.788c.051,0,.08-.034,.09-.048-.303-.993-1.321-1.952-2.479-1.952Zm8.791-7.593c.225-.161,.276-.473,.116-.698-.532-.744-2.013-2.546-4.27-3.189-.27-.081-.543,.078-.618,.343-.076,.266,.078,.543,.343,.618,1.954,.558,3.26,2.151,3.73,2.811,.098,.136,.252,.209,.407,.209,.101,0,.202-.03,.291-.093Zm-16.884-.116c.471-.659,1.776-2.253,3.73-2.811,.265-.075,.419-.353,.343-.618-.075-.264-.35-.424-.618-.343-2.257,.644-3.737,2.445-4.27,3.189-.16,.226-.108,.537,.116,.698,.089,.062,.19,.093,.291,.093,.155,0,.31-.073,.407-.209Z"/></svg>
