<?xml version="1.0" encoding="UTF-8"?>
<svg xmlns="http://www.w3.org/2000/svg" id="Layer_1" data-name="Layer 1" viewBox="0 0 24 24" width="512" height="512"><path d="M12,23.66c-.36,0-.72-.13-1-.38l-3.9-3.28H3.5c-1.93,0-3.5-1.57-3.5-3.5V3.5C0,1.57,1.57,0,3.5,0H20.5c1.93,0,3.5,1.57,3.5,3.5v13c0,1.93-1.57,3.5-3.5,3.5h-3.53l-3.99,3.29c-.28,.25-.63,.37-.98,.37ZM3.5,1c-1.38,0-2.5,1.12-2.5,2.5v13c0,1.38,1.12,2.5,2.5,2.5h3.79c.12,0,.23,.04,.32,.12l4.05,3.41c.2,.18,.48,.18,.67,0l4.14-3.42c.09-.07,.2-.11,.32-.11h3.71c1.38,0,2.5-1.12,2.5-2.5V3.5c0-1.38-1.12-2.5-2.5-2.5H3.5Zm5.24,15.02c-.21,0-.42-.07-.6-.2-.34-.25-.48-.7-.36-1.1l.94-3.01-2.37-1.93c-.33-.28-.44-.72-.3-1.11,.14-.39,.52-.65,.94-.65h3l1.06-2.85c.14-.37,.51-.62,.94-.62s.8,.24,.94,.62l1.06,2.85h3c.42,0,.8,.26,.94,.66,.14,.39,.03,.83-.29,1.1l-2.37,1.93,.98,2.98c.13,.4,0,.85-.34,1.11-.34,.26-.8,.28-1.16,.05l-2.75-1.79-2.71,1.81c-.17,.11-.36,.17-.56,.17Zm-1.74-7.01l2.62,2.13c.16,.13,.22,.34,.16,.54l-1.04,3.34,2.98-1.99c.17-.11,.38-.11,.55,0l3.03,1.97-1.09-3.31c-.06-.2,0-.41,.16-.54l2.63-2.14h-3.36c-.21,.01-.4-.12-.47-.31l-1.18-3.18-1.18,3.18c-.07,.2-.26,.33-.47,.33h-3.35Z"/></svg>
