<?xml version="1.0" encoding="UTF-8"?>
<svg xmlns="http://www.w3.org/2000/svg" id="Layer_1" data-name="Layer 1" width="512" height="512" viewBox="0 0 24 24"><path d="M12,24C5.383,24,0,18.617,0,12S5.383,0,12,0s12,5.383,12,12-5.383,12-12,12ZM12,1C5.935,1,1,5.935,1,12s4.935,11,11,11,11-4.935,11-11S18.065,1,12,1Zm-2.99,11.174c-.232,0-.465-.074-.667-.223l-.849-.624-.849,.624c-.394,.291-.926,.294-1.326,.007-.404-.292-.566-.786-.413-1.26l.331-1.025-.873-.638c-.401-.292-.56-.787-.406-1.258,.154-.472,.574-.776,1.07-.776h1.068l.324-1.01c.152-.475,.573-.782,1.072-.782s.919,.307,1.072,.781l.324,1.011h1.068c.496,0,.916,.305,1.07,.776,.154,.472-.005,.966-.406,1.258l-.873,.638,.331,1.025c.153,.474-.009,.968-.413,1.259-.2,.145-.429,.217-.658,.217Zm-1.516-2.088l1.441,1.06c.051,.039,.096,.038,.148,.001,.052-.038,.066-.08,.046-.141l-.554-1.713,1.457-1.065c.052-.038,.065-.08,.045-.14-.02-.061-.056-.087-.12-.087h-1.797l-.547-1.705c-.039-.122-.201-.123-.24,0l-.547,1.705h-1.798c-.064,0-.1,.026-.12,.087-.02,.061-.006,.103,.045,.14l1.457,1.065-.554,1.713c-.02,.061-.006,.103,.046,.141,.046,.032,.102,.032,.147,0l1.442-1.06Zm10.516,2.088c-.232,0-.465-.074-.667-.223l-.849-.624-.849,.624c-.395,.291-.926,.294-1.326,.007-.404-.292-.566-.786-.413-1.26l.331-1.025-.873-.638c-.401-.292-.56-.787-.406-1.258,.154-.472,.574-.776,1.07-.776h1.068l.324-1.01c.152-.475,.573-.782,1.072-.782s.919,.307,1.072,.781l.324,1.011h1.068c.496,0,.916,.305,1.07,.776,.154,.472-.005,.966-.406,1.258l-.873,.638,.331,1.025c.153,.474-.009,.968-.413,1.259-.2,.145-.429,.217-.658,.217Zm-1.516-2.088l1.441,1.06c.051,.039,.096,.038,.148,.001,.052-.038,.066-.08,.046-.141l-.554-1.713,1.457-1.065c.052-.038,.065-.08,.045-.14-.02-.061-.056-.087-.12-.087h-1.797l-.547-1.705c-.039-.122-.201-.123-.24,0l-.547,1.705h-1.798c-.064,0-.1,.026-.12,.087-.02,.061-.006,.103,.045,.14l1.457,1.065-.554,1.713c-.02,.061-.006,.103,.046,.141,.047,.032,.102,.032,.147,0l1.442-1.06Zm-4.494,9.915c-3.05,0-5.595-1.854-6.764-3.69-.331-.521-.316-1.16,.039-1.668,.353-.505,.943-.738,1.543-.606,.287,.063,.613,.156,.98,.262,1.028,.296,2.436,.702,4.198,.702,1.764,0,3.176-.407,4.207-.703,.367-.105,.692-.199,.979-.261,.598-.133,1.189,.101,1.543,.606,.355,.508,.37,1.147,.039,1.668h0c-1.169,1.836-3.713,3.69-6.764,3.69Zm-5.508-5c-.227,0-.358,.16-.397,.215-.045,.065-.181,.297-.015,.558,1.022,1.606,3.249,3.227,5.92,3.227s4.898-1.621,5.92-3.227h0c.166-.261,.031-.493-.015-.558-.044-.063-.214-.266-.509-.203-.268,.059-.573,.147-.917,.246-1.088,.313-2.578,.741-4.483,.742-1.904,0-3.39-.429-4.475-.742-.344-.099-.649-.187-.917-.246-.04-.009-.077-.012-.112-.012Z"/></svg>
