<?xml version="1.0" encoding="UTF-8"?>
<svg xmlns="http://www.w3.org/2000/svg" id="Layer_1" data-name="Layer 1" width="512" height="512" viewBox="0 0 24 24"><path d="M23.945,5.997c-.089,.173-.264,.272-.446,.272-.077,0-.154-.018-.227-.055L13.979,1.459c-1.238-.608-2.722-.607-3.965,.003L.728,6.215c-.246,.125-.547,.027-.673-.218s-.028-.547,.218-.673L9.566,.568c1.527-.751,3.342-.752,4.861-.003l9.3,4.759c.246,.126,.343,.428,.218,.673Zm-1.802,6.871c.561,.981,.856,2.097,.856,3.226v1.406c0,1.393-.819,2.599-2,3.162v.838c0,1.379-1.122,2.5-2.5,2.5s-2.5-1.121-2.5-2.5v-.5H8v.5c0,1.379-1.122,2.5-2.5,2.5s-2.5-1.121-2.5-2.5v-.838c-1.181-.563-2-1.769-2-3.162v-1.406c0-1.129,.296-2.244,.856-3.226l2.058-3.601c.8-1.398,2.297-2.268,3.907-2.268h8.357c1.61,0,3.107,.869,3.907,2.268l2.058,3.601Zm-19.419,.496c-.117,.205-.221,.418-.31,.636H21.586c-.09-.218-.193-.43-.31-.636l-2.058-3.601c-.622-1.088-1.787-1.764-3.039-1.764H7.821c-1.252,0-2.417,.676-3.039,1.764l-2.058,3.601Zm4.275,7.636h-2.5c-.17,0-.337-.012-.5-.036v.536c0,.827,.673,1.5,1.5,1.5s1.5-.673,1.5-1.5v-.5Zm13-.036c-.163,.023-.33,.036-.5,.036h-2.5v.5c0,.827,.673,1.5,1.5,1.5s1.5-.673,1.5-1.5v-.536Zm2-4.87c0-.368-.038-.735-.111-1.094h-2.889v1.5c0,.276-.224,.5-.5,.5s-.5-.224-.5-.5v-1.5H6v1.5c0,.276-.224,.5-.5,.5s-.5-.224-.5-.5v-1.5H2.111c-.073,.359-.111,.726-.111,1.094v1.406c0,1.379,1.122,2.5,2.5,2.5h15c1.378,0,2.5-1.121,2.5-2.5v-1.406Z"/></svg>
