<?xml version="1.0" encoding="UTF-8"?>
<svg xmlns="http://www.w3.org/2000/svg" id="Layer_1" data-name="Layer 1" viewBox="0 0 24 24" width="512" height="512"><path d="M13.5,24h-2.595c-.158,0-.307-.075-.402-.202-.094-.127-.123-.292-.077-.443,.365-1.2,.574-2.241,.574-2.854,0-1.448-1.051-2.5-2.5-2.5s-2.5,1.052-2.5,2.5c0,.613,.209,1.654,.574,2.854,.046,.151,.018,.316-.077,.443-.095,.127-.244,.202-.402,.202h-1.595c-2.481,0-4.5-2.019-4.5-4.5V10.5c0-2.481,2.019-4.5,4.5-4.5h.91c-.263-.99-.41-1.878-.41-2.5,0-1.995,1.505-3.5,3.5-3.5s3.5,1.505,3.5,3.5c0,.598-.151,1.47-.431,2.5h1.931c2.481,0,4.5,2.019,4.5,4.5v.91c.988-.263,1.876-.41,2.5-.41,1.995,0,3.5,1.505,3.5,3.5s-1.505,3.5-3.5,3.5c-.597,0-1.47-.151-2.5-.432v1.932c0,2.481-2.019,4.5-4.5,4.5Zm-1.931-1h1.931c1.93,0,3.5-1.57,3.5-3.5v-2.596c0-.158,.075-.308,.202-.401,.127-.095,.291-.124,.443-.077,1.201,.365,2.241,.574,2.854,.574,1.449,0,2.5-1.052,2.5-2.5s-1.051-2.5-2.5-2.5c-.652,0-1.72,.206-2.854,.551-.152,.046-.316,.018-.443-.077-.127-.094-.202-.243-.202-.401v-1.572c0-1.93-1.57-3.5-3.5-3.5h-2.595c-.158,0-.307-.075-.402-.202-.094-.127-.123-.292-.077-.443,.365-1.2,.574-2.241,.574-2.854,0-1.448-1.051-2.5-2.5-2.5s-2.5,1.052-2.5,2.5c0,.65,.206,1.718,.551,2.854,.046,.152,.018,.316-.077,.443-.094,.127-.243,.202-.401,.202h-1.572c-1.93,0-3.5,1.57-3.5,3.5v9c0,1.93,1.57,3.5,3.5,3.5h.931c-.28-1.03-.431-1.902-.431-2.5,0-1.995,1.505-3.5,3.5-3.5s3.5,1.505,3.5,3.5c0,.598-.151,1.47-.431,2.5Z"/></svg>
