<?xml version="1.0" encoding="UTF-8"?>
<svg xmlns="http://www.w3.org/2000/svg" id="Layer_1" data-name="Layer 1" viewBox="0 0 24 24" width="512" height="512"><path d="M10.86,19.16c.19,.2,.18,.52-.02,.71l-3.59,3.41c-.48,.48-1.12,.72-1.76,.72s-1.28-.24-1.77-.73L.16,19.86c-.2-.19-.21-.51-.02-.71,.19-.2,.51-.21,.71-.02l3.59,3.41c.17,.17,.36,.29,.57,.36V.5c0-.28,.22-.5,.5-.5s.5,.22,.5,.5V22.91c.21-.07,.4-.19,.56-.35l3.59-3.42c.2-.19,.52-.18,.71,.02Zm12.14-2.66v4c0,1.38-1.12,2.5-2.5,2.5h-4c-1.38,0-2.5-1.12-2.5-2.5v-4c0-1.38,1.12-2.5,2.5-2.5h4c1.38,0,2.5,1.12,2.5,2.5Zm-1,0c0-.83-.67-1.5-1.5-1.5h-4c-.83,0-1.5,.67-1.5,1.5v4c0,.83,.67,1.5,1.5,1.5h4c.83,0,1.5-.67,1.5-1.5v-4Zm1.29-7.46c-.36,.6-.99,.96-1.69,.96h-6.21c-.7,0-1.33-.36-1.69-.96-.36-.6-.37-1.33-.04-1.94l3.12-5.09c.34-.62,.98-1.01,1.72-1.01s1.38,.38,1.73,1.03l3.09,5.04c.35,.64,.33,1.36-.03,1.97Zm-.84-1.47l-3.09-5.04c-.18-.34-.5-.53-.86-.53s-.68,.19-.85,.51l-3.12,5.09c-.15,.28-.14,.64,.03,.93,.18,.3,.49,.47,.83,.47h6.21c.34,0,.65-.18,.83-.47,.18-.3,.18-.65,.02-.96Z"/></svg>
