<?xml version="1.0" encoding="UTF-8"?>
<svg xmlns="http://www.w3.org/2000/svg" id="Layer_1" data-name="Layer 1" viewBox="0 0 24 24" width="512" height="512"><path d="M12,24C5.383,24,0,18.617,0,12S5.383,0,12,0s12,5.383,12,12-5.383,12-12,12ZM12,1C5.935,1,1,5.935,1,12s4.935,11,11,11,11-4.935,11-11S18.065,1,12,1Zm-3.405,18c-.964,0-1.859-.365-2.521-1.028l-.589-.675c-.305-.303-.486-.739-.486-1.204s.181-.9,.509-1.229l1.459-1.126c.622-.627,1.708-.635,2.387,.021l.911,.725c1.955-.816,3.337-2.202,4.215-4.224l-.737-.927c-.64-.635-.64-1.737,.038-2.415l1.04-1.361c.743-.756,1.844-.706,2.501-.049l.625,.542c.688,.684,1.053,1.579,1.053,2.543,0,4.473-5.932,10.405-10.405,10.405Zm-.447-4.727c-.188,0-.377,.072-.521,.216l-1.459,1.126c-.091,.097-.167,.282-.167,.479s.077,.382,.216,.522l.589,.675c.449,.448,1.093,.709,1.79,.709,3.574,0,9.405-5.254,9.405-9.405,0-.697-.261-1.34-.734-1.812l-.625-.543c-.33-.327-.79-.303-1.069-.023l-1.04,1.361c-.331,.336-.331,.805-.043,1.092l1.14,1.428-.108,.27c-1.002,2.497-2.739,4.232-5.161,5.156l-.267,.102-1.423-1.137c-.144-.144-.333-.216-.522-.216Z"/></svg>
