<?xml version="1.0" encoding="UTF-8"?>
<svg xmlns="http://www.w3.org/2000/svg" id="Layer_1" data-name="Layer 1" viewBox="0 0 24 24" width="512" height="512"><path d="M9.5,16c-3.032,0-5.5-2.467-5.5-5.5s2.468-5.5,5.5-5.5,5.5,2.467,5.5,5.5-2.468,5.5-5.5,5.5Zm0-10c-2.481,0-4.5,2.019-4.5,4.5s2.019,4.5,4.5,4.5,4.5-2.019,4.5-4.5-2.019-4.5-4.5-4.5Zm3.546,18C5.853,24,0,18.148,0,10.955v-.729C0,4.824,4.244,.241,9.461,.01c3.503-.152,6.74,1.493,8.685,4.406,.342,.513,.878,.9,1.551,1.121h0c2.574,.843,4.304,3.23,4.304,5.94,0,1.857-.82,3.605-2.251,4.798-.521,.433-.894,1.056-1.052,1.753-.755,3.349-4.116,5.972-7.651,5.972ZM9.91,1c-.135,0-.27,.003-.404,.009C4.815,1.216,1,5.351,1,10.226v.729c0,6.642,5.403,12.045,12.046,12.045,3.087,0,6.02-2.281,6.677-5.192,.205-.911,.698-1.728,1.386-2.301,1.202-1.001,1.892-2.47,1.892-4.029,0-2.276-1.453-4.282-3.614-4.99h0c-.888-.291-1.604-.814-2.072-1.516-1.673-2.506-4.418-3.971-7.403-3.971Zm2.09,17c-.552,0-1,.448-1,1s.448,1,1,1,1-.448,1-1-.448-1-1-1Zm7-8c-.552,0-1,.448-1,1s.448,1,1,1,1-.448,1-1-.448-1-1-1Zm-4,6c-.552,0-1,.448-1,1s.448,1,1,1,1-.448,1-1-.448-1-1-1Z"/></svg>
