<?xml version="1.0" encoding="UTF-8"?>
<svg xmlns="http://www.w3.org/2000/svg" id="Layer_1" data-name="Layer 1" viewBox="0 0 24 24" width="512" height="512"><path d="M22.657,18.119c.224-.331,.343-.718,.343-1.119,0-1.103-.897-2-2-2-.755,0-1.435,.441-1.774,1.151-1.397-.727-4.396-2.053-4.523-2.108-.208-.092-.452-.032-.593,.146-.142,.178-.146,.428-.011,.61,.068,.091,1.667,2.236,2.479,3.248-.914,.197-1.577,1.019-1.577,1.953,0,1.082,.893,1.999,1.958,2.003l.093-.002c.236,1.159,1.265,1.999,2.449,1.999s2.217-.844,2.435-1.947l.018-.053h.048c1.103,0,2-.897,2-2,0-.843-.539-1.599-1.343-1.881Zm-.657,2.881h-.409c-.216,0-.407,.139-.475,.344l-.146,.454c-.14,.696-.758,1.202-1.47,1.202s-1.33-.506-1.47-1.202l-.081-.401c-.047-.234-.253-.401-.49-.401h-.008l-.499,.008c-.517-.002-.952-.461-.952-1.003,0-.467,.332-.877,.788-.976l.79-.17c.169-.037,.308-.158,.365-.321,.059-.163,.028-.345-.08-.48l-.506-.631c-.341-.425-.833-1.068-1.288-1.668,.933,.426,2.02,.934,2.694,1.284l.458,.239c.119,.062,.259,.073,.39,.031,.128-.043,.234-.137,.293-.259l.224-.467c.172-.359,.506-.583,.872-.583,.552,0,1,.448,1,1,0,.2-.059,.393-.171,.558l-.364,.538c-.087,.129-.109,.29-.061,.438s.163,.264,.31,.314l.612,.215c.403,.142,.674,.519,.674,.938,0,.552-.448,1-1,1ZM9.99,8.761c-.815-1.334-2.376-2.567-3.553-2.809-.27-.056-.444-.32-.39-.591,.056-.271,.323-.442,.591-.39,1.463,.3,3.23,1.674,4.205,3.268,.144,.235,.069,.543-.166,.688-.081,.05-.171,.073-.261,.073-.168,0-.332-.085-.427-.239Zm3.937,0c-.095,.154-.259,.239-.427,.239-.09,0-.18-.023-.261-.073-.235-.145-.31-.452-.166-.688,.975-1.594,2.742-2.968,4.205-3.268,.268-.052,.535,.118,.591,.39,.055,.271-.119,.535-.39,.591-1.177,.241-2.737,1.475-3.553,2.809Zm-3.927,1.739c0,.276-.224,.5-.5,.5h-3c-.276,0-.5-.224-.5-.5s.224-.5,.5-.5h3c.276,0,.5,.224,.5,.5Zm4,0c0-.276,.224-.5,.5-.5h3c.276,0,.5,.224,.5,.5s-.224,.5-.5,.5h-3c-.276,0-.5-.224-.5-.5ZM.101,13.564c-.066-.518-.101-1.044-.101-1.564C0,5.383,5.383,0,12,0s12,5.383,12,12c0,.521-.034,1.047-.101,1.564-.033,.252-.248,.436-.495,.436-.021,0-.043,0-.065-.004-.273-.035-.467-.286-.432-.561,.062-.475,.093-.958,.093-1.436,0-6.065-4.935-11-11-11S1,5.935,1,12c0,.478,.031,.961,.093,1.436,.035,.274-.158,.525-.432,.561-.282,.032-.524-.158-.561-.432Zm14.888,9.555c.06,.27-.11,.537-.38,.597-.85,.188-1.728,.284-2.608,.284s-1.759-.096-2.608-.284c-.27-.06-.439-.327-.38-.597s.324-.437,.597-.38c1.557,.346,3.227,.346,4.783,0,.274-.057,.537,.11,.597,.38Zm-7.565-5.072c.812-1.013,2.41-3.157,2.479-3.248,.136-.183,.131-.433-.011-.61-.141-.178-.386-.237-.593-.146-.127,.056-3.125,1.381-4.523,2.108-.34-.71-1.02-1.151-1.774-1.151-1.103,0-2,.897-2,2,0,.401,.119,.789,.343,1.118h0c-.803,.283-1.342,1.039-1.342,1.882,0,1.103,.897,2,2,2h.051c.235,1.159,1.265,2,2.449,2s2.214-.841,2.449-1.999l.103,.002c1.056-.004,1.948-.921,1.948-2.003,0-.934-.663-1.756-1.577-1.953Zm-.365,2.956l-.509-.008c-.248-.014-.451,.164-.498,.401l-.081,.401c-.14,.696-.758,1.202-1.47,1.202s-1.33-.506-1.485-1.26l-.131-.396c-.067-.205-.259-.344-.475-.344h-.409c-.552,0-1-.448-1-1,0-.419,.271-.796,.673-.938l.613-.215c.146-.051,.261-.167,.31-.314s.026-.309-.061-.438l-.365-.539c-.111-.164-.17-.356-.17-.557,0-.552,.448-1,1-1,.366,0,.7,.224,.872,.583l.224,.467c.059,.122,.165,.216,.293,.259,.131,.043,.271,.03,.39-.031l.457-.239c.675-.351,1.763-.858,2.695-1.284-.455,.601-.948,1.243-1.289,1.668l-.505,.631c-.108,.136-.139,.317-.08,.48,.058,.163,.196,.284,.365,.321l.79,.169c.456,.1,.788,.51,.788,.977,0,.542-.436,1.001-.942,1.003Z"/></svg>
