<?xml version="1.0" encoding="UTF-8"?>
<svg xmlns="http://www.w3.org/2000/svg" id="Layer_1" data-name="Layer 1" width="512" height="512" viewBox="0 0 24 24"><path d="M23.5,20c-.276,0-.5,.224-.5,.5,0,1.378-1.122,2.5-2.5,2.5h-.691l-1.613-3.225c1.435-.388,2.715-1.262,3.597-2.497l1.523-2.132c1.101-1.541,.787-3.652-.713-4.807l-6.799-5.234c-.219-.169-.534-.128-.701,.091-.168,.219-.128,.533,.091,.701l.655,.504c.19,.418,1.15,2.614,1.15,4.288-.019,1.826-1.574,3.312-3.467,3.312h-2.032c-.276,0-.5,.224-.5,.5s.224,.5,.5,.5h2.032c2.439,0,4.443-1.93,4.468-4.365,0-.998-.299-2.136-.607-3.047l4.601,3.542c1.072,.825,1.295,2.333,.51,3.434l-1.523,2.132c-1.03,1.442-2.703,2.303-4.476,2.303H7.719l1.103-1.976c.193-.359,.231-.771,.109-1.16-.123-.389-.39-.704-.726-.873l-3.375-1.982c-.358-.179-.625-.487-.752-.867-.127-.38-.098-.787,.057-1.102l2.024-3.211c.179-.358,.487-.625,.867-.752,.379-.127,.786-.098,1.145,.081,.177,.089,.74,.389,1.454,.773l-2.047,3.348c-.144,.235-.07,.543,.166,.688,.082,.05,.171,.073,.26,.073,.168,0,.333-.085,.427-.239l2.075-3.394c1.685,.91,3.646,1.976,3.678,1.994,.243,.132,.546,.042,.678-.201,.132-.243,.042-.546-.201-.678-.22-.12-5.408-2.94-6.044-3.258-.598-.298-1.275-.347-1.909-.135-.633,.211-1.147,.656-1.421,1.21l-2.024,3.211c-.298,.597-.347,1.275-.135,1.909,.211,.633,.656,1.147,1.224,1.429l3.373,1.981c.122,.061,.21,.167,.251,.296,.041,.13,.028,.267-.032,.379l-1.371,2.456H2.825l-1.778-4h1.453c.276,0,.5-.224,.5-.5s-.224-.5-.5-.5H.5c-.276,0-.5,.224-.5,.5v.5c0,.07,.015,.139,.043,.203l1.735,3.904c-1.027,.311-1.778,1.266-1.778,2.393,0,1.378,1.122,2.5,2.5,2.5h7c1.378,0,2.5-1.122,2.5-2.5,0-.562-.187-1.082-.501-1.5h5.006c.225,0,.448-.012,.669-.035l1.518,3.035h-3.191c-.276,0-.5,.224-.5,.5s.224,.5,.5,.5h5c1.93,0,3.5-1.57,3.5-3.5,0-.276-.224-.5-.5-.5Zm-12.5,1.5c0,.827-.673,1.5-1.5,1.5H2.5c-.827,0-1.5-.673-1.5-1.5s.673-1.5,1.5-1.5h7c.827,0,1.5,.673,1.5,1.5Zm-.5-16.5c1.378,0,2.5-1.122,2.5-2.5s-1.122-2.5-2.5-2.5-2.5,1.122-2.5,2.5,1.122,2.5,2.5,2.5Zm0-4c.827,0,1.5,.673,1.5,1.5s-.673,1.5-1.5,1.5-1.5-.673-1.5-1.5,.673-1.5,1.5-1.5Z"/></svg>
