<?xml version="1.0" encoding="UTF-8"?>
<svg xmlns="http://www.w3.org/2000/svg" id="Layer_1" data-name="Layer 1" width="512" height="512" viewBox="0 0 24 24"><path d="M11.5,24c-1.534,0-2.994-.981-3.472-2.333-.092-.26,.045-.546,.305-.638,.262-.088,.546,.045,.638,.305,.335,.95,1.422,1.667,2.528,1.667,1.378,0,2.5-1.122,2.5-2.5s-1.122-2.5-2.5-2.5H.5c-.276,0-.5-.224-.5-.5s.224-.5,.5-.5H11.5c1.93,0,3.5,1.57,3.5,3.5s-1.57,3.5-3.5,3.5Zm9-5c-1.534,0-2.994-.981-3.472-2.333-.092-.26,.045-.546,.305-.638,.262-.089,.546,.044,.638,.305,.335,.95,1.422,1.667,2.528,1.667,1.378,0,2.5-1.122,2.5-2.5s-1.122-2.5-2.5-2.5h-5c-.276,0-.5-.224-.5-.5s.224-.5,.5-.5h5c1.93,0,3.5,1.57,3.5,3.5s-1.57,3.5-3.5,3.5ZM7.5,15C3.364,15,0,11.636,0,7.5S3.364,0,7.5,0s7.5,3.364,7.5,7.5-3.364,7.5-7.5,7.5ZM7.5,1C3.916,1,1,3.916,1,7.5s2.916,6.5,6.5,6.5,6.5-2.916,6.5-6.5S11.084,1,7.5,1Zm13,8h-3c-.276,0-.5-.224-.5-.5s.224-.5,.5-.5h3c1.378,0,2.5-1.122,2.5-2.5s-1.122-2.5-2.5-2.5c-1.106,0-2.193,.716-2.528,1.667-.092,.261-.376,.396-.638,.305-.26-.092-.397-.378-.305-.638,.478-1.352,1.938-2.333,3.472-2.333,1.93,0,3.5,1.57,3.5,3.5s-1.57,3.5-3.5,3.5Zm-13,0c-.276,0-.5-.224-.5-.5V3.5c0-.276,.224-.5,.5-.5s.5,.224,.5,.5v5c0,.276-.224,.5-.5,.5Zm-1,2c0,.552,.448,1,1,1s1-.448,1-1-.448-1-1-1-1,.448-1,1Z"/></svg>
