<?xml version="1.0" encoding="UTF-8"?>
<svg xmlns="http://www.w3.org/2000/svg" id="Layer_1" data-name="Layer 1" viewBox="0 0 24 24" width="512" height="512"><path d="m23.854,23.146l-2.854-2.854V5.5c0-2.481-2.019-4.5-4.5-4.5H7.5c-1.522,0-2.934.771-3.762,2.031L.854.146C.658-.049.342-.049.146.146S-.049.658.146.854l23,23c.098.098.226.146.354.146s.256-.049.354-.146c.195-.195.195-.512,0-.707Zm-3.854-3.854L4.465,3.758c.624-1.086,1.782-1.758,3.035-1.758h9c1.93,0,3.5,1.57,3.5,3.5v13.793Zm-8.162-2.661c.204.187.217.503.031.706l-4.825,5.264c-.461.488-1.063.745-1.688.745-.292,0-.59-.057-.881-.172-.91-.361-1.475-1.194-1.475-2.173V7.5c0-.276.224-.5.5-.5s.5.224.5.5v13.502c0,.67.436,1.081.844,1.243.407.162,1.008.163,1.467-.324l4.82-5.259c.187-.204.502-.219.707-.03Z"/></svg>
