<?xml version="1.0" encoding="UTF-8"?>
<svg xmlns="http://www.w3.org/2000/svg" id="Layer_1" data-name="Layer 1" viewBox="0 0 24 24">
  <path d="m23.973,23.664c-.072.207-.266.336-.473.336-.055,0-.11-.009-.164-.028l-11.336-3.943L.664,23.972c-.054.019-.109.028-.164.028-.207,0-.4-.129-.473-.336-.09-.261.048-.545.309-.636l10.143-3.528L.336,15.972c-.261-.091-.398-.375-.309-.636.092-.261.381-.398.637-.308l11.336,3.943,11.336-3.943c.257-.091.546.047.637.308.09.261-.048.545-.309.636l-10.143,3.528,10.143,3.528c.261.091.398.375.309.636ZM5,8.997c0-1.726.74-3.401,2.142-4.845.138-.143.349-.188.532-.12.186.069.313.242.325.439,0,.016.104,1.529,1.001,1.529.305,0,.564-.951.794-1.79.344-1.255.771-2.816,1.828-4.037.091-.105.222-.167.36-.172.132-.013.272.048.371.146.445.445,1.022.934,1.633,1.451,2.233,1.893,5.014,4.248,5.014,7.399,0,3.651-2.923,7.037-7,7.037-4.154,0-7-3.386-7-7.037Zm6.536,5.977c.154.012.307.023.464.023s.31-.012.464-.023c.348-.083.68-.253.951-.524.378-.378.586-.88.586-1.414s-.208-1.037-.586-1.415l-1.414-1.414-1.414,1.414c-.378.378-.586.88-.586,1.415s.208,1.036.586,1.414c.271.271.602.441.951.524Zm-5.536-5.977c0,2.345,1.355,4.374,3.32,5.36-.202-.408-.32-.854-.32-1.322,0-.801.312-1.555.879-2.122l1.768-1.768c.195-.195.512-.195.707,0l1.768,1.768c.566.567.879,1.32.879,2.122,0,.468-.118.914-.32,1.322,1.965-.987,3.32-3.016,3.32-5.36,0-2.688-2.584-4.877-4.66-6.636-.457-.387-.896-.759-1.284-1.116-.686.993-1.021,2.219-1.297,3.229-.37,1.355-.69,2.526-1.759,2.526-.967,0-1.506-.697-1.774-1.418-.814,1.068-1.226,2.214-1.226,3.416Z"/>
</svg>
