<?xml version="1.0" encoding="UTF-8"?>
<svg xmlns="http://www.w3.org/2000/svg" id="Layer_1" data-name="Layer 1" viewBox="0 0 24 24" width="512" height="512"><path d="m18,3.76V.5c0-.276-.224-.5-.5-.5s-.5.224-.5.5v2.757c-.469-.166-.974-.257-1.5-.257h-7c-.526,0-1.031.091-1.5.257V.5c0-.276-.224-.5-.5-.5s-.5.224-.5.5v3.26c-1.205.808-2,2.183-2,3.74v9c0,1.557.795,2.932,2,3.74v3.26c0,.276.224.5.5.5s.5-.224.5-.5v-2.757c.469.166.974.257,1.5.257h7c.526,0,1.031-.091,1.5-.257v2.757c0,.276.224.5.5.5s.5-.224.5-.5v-3.26c1.205-.808,2-2.183,2-3.74V7.5c0-1.557-.795-2.932-2-3.74Zm1,12.74c0,1.93-1.57,3.5-3.5,3.5h-7c-1.93,0-3.5-1.57-3.5-3.5V7.5c0-1.93,1.57-3.5,3.5-3.5h7c.642,0,1.243.174,1.761.477,0,0,0,0,0,0,1.039.608,1.738,1.735,1.738,3.023v9Zm-4.146-2.354c.195.195.195.512,0,.707-.098.098-.226.146-.354.146s-.256-.049-.354-.146l-2.5-2.5c-.094-.094-.146-.221-.146-.354v-4.5c0-.276.224-.5.5-.5s.5.224.5.5v4.293l2.354,2.354Z"/></svg>
