<?xml version="1.0" encoding="UTF-8"?>
<svg xmlns="http://www.w3.org/2000/svg" id="Layer_1" data-name="Layer 1" viewBox="0 0 24 24" width="512" height="512"><path d="m23.61,10.553c-2.069-3.42-4.666-5.878-6.407-7.038,0,0,0,0,0,0-.515-.343-1.095-.522-1.624-.51-.825.006-1.53.284-2.04.803l-.908.927c-.337.343-.927.343-1.263,0l-.909-.927c-.959-.978-2.608-.997-3.603-.333-1.634,1.089-4.306,3.595-6.456,7.075C.124,10.998-.006,11.522.001,12.025c.012.538.183,1.071.516,1.528,2.169,2.974,6.478,6.447,11.482,6.447s9.313-3.479,11.483-6.459c.328-.45.501-1.009.517-1.541.005-.492-.123-1.007-.39-1.447Zm-.935,2.399c-.451.619-4.581,6.048-10.675,6.048S1.776,13.582,1.325,12.964c-.064-.088-.102-.186-.147-.281,1.828.397,6.53,1.317,10.822,1.317s8.978-.915,10.812-1.311c-.043.089-.078.181-.138.263Zm-19.844-.952c2.24-.43,5.84-1,9.169-1s6.907.573,9.147,1.007c-2.241.428-5.827.993-9.147.993s-6.929-.57-9.169-1Zm9.169-2c-4.317,0-9.05.932-10.855,1.324.035-.084.058-.171.107-.251,1.933-3.128,4.486-5.653,6.16-6.768.3-.2.69-.306,1.13-.306.456,0,.883.18,1.204.507l.909.927c.716.729,1.975.729,2.692,0l.908-.927c.402-.411.947-.5,1.333-.503.404.008.717.113,1.062.343,1.651,1.1,4.122,3.443,6.105,6.723.052.086.078.18.114.271-1.789-.397-6.501-1.341-10.868-1.341Z"/></svg>
