<?xml version="1.0" encoding="UTF-8"?>
<svg xmlns="http://www.w3.org/2000/svg" id="Layer_1" data-name="Layer 1" viewBox="0 0 24 24" width="512" height="512"><path d="M19.5,0H4.5C2.019,0,0,2.019,0,4.5v15c0,2.481,2.019,4.5,4.5,4.5h15c2.481,0,4.5-2.019,4.5-4.5V4.5c0-2.481-2.019-4.5-4.5-4.5Zm3.5,19.5c0,1.93-1.57,3.5-3.5,3.5H4.5c-1.93,0-3.5-1.57-3.5-3.5V4.5c0-1.93,1.57-3.5,3.5-3.5h15c1.93,0,3.5,1.57,3.5,3.5v15ZM12.907,5.38c-.484-.491-1.33-.491-1.814,0l-4.362,4.418c-.367,.373-.474,.927-.271,1.412,.204,.487,.656,.79,1.181,.79h3.86v6.5c0,.276,.224,.5,.5,.5s.5-.224,.5-.5v-6.5h3.86c.524,0,.977-.303,1.181-.79,.202-.485,.096-1.039-.272-1.412l-4.361-4.418Zm3.711,5.444c-.022,.053-.092,.175-.258,.175H7.64c-.166,0-.235-.123-.258-.175-.022-.055-.063-.198,.061-.324l4.361-4.418c.053-.053,.123-.083,.196-.083s.144,.029,.196,.083l4.36,4.418c.125,.126,.084,.269,.062,.324Z"/></svg>
