<?xml version="1.0" encoding="UTF-8"?>
<svg xmlns="http://www.w3.org/2000/svg" id="Layer_1" data-name="Layer 1" viewBox="0 0 24 24" width="512" height="512"><path d="M22.798,5.23l-3.521-3.792C17.991,.054,15.96-.378,14.221,.357L2.742,5.227c-1.666,.707-2.742,2.333-2.742,4.143v1.13c0,1.378,1.121,2.5,2.5,2.5H21.5c1.379,0,2.5-1.122,2.5-2.5v-2.208c0-1.139-.427-2.227-1.202-3.062ZM3.133,6.148L14.611,1.278c1.354-.574,2.934-.236,3.933,.84l3.521,3.792c.298,.321,.53,.69,.688,1.089H1.924c.331-.36,.74-.653,1.209-.852Zm19.867,4.352c0,.827-.673,1.5-1.5,1.5H2.5c-.827,0-1.5-.673-1.5-1.5v-1.13c0-.481,.098-.945,.278-1.37H22.987c.008,.097,.013,.194,.013,.292v2.208Zm-1.5,8.5H2.5c-1.379,0-2.5,1.122-2.5,2.5s1.121,2.5,2.5,2.5H21.5c1.379,0,2.5-1.122,2.5-2.5s-1.121-2.5-2.5-2.5Zm0,4H2.5c-.827,0-1.5-.673-1.5-1.5s.673-1.5,1.5-1.5H21.5c.827,0,1.5,.673,1.5,1.5s-.673,1.5-1.5,1.5Zm2.5-6c0,.276-.224,.5-.5,.5-.125,0-.239-.046-.326-.122,0,0-1.067-.903-1.313-1.093-.49-.38-1.229-.379-1.722,0-1.232,.954-3.045,.954-4.277,0-.492-.379-1.23-.379-1.723,0-1.232,.954-3.045,.954-4.277,0-.492-.379-1.23-.379-1.723,0-1.232,.954-3.045,.954-4.277,0-.492-.379-1.23-.379-1.723,0-.245,.19-1.312,1.093-1.312,1.093-.196,.17-.493,.162-.68-.025-.195-.195-.195-.512,0-.707,.034-.034,1.168-.987,1.38-1.152,.856-.659,2.094-.659,2.946,0,.881,.681,2.174,.681,3.055,0,.854-.659,2.092-.66,2.945,0,.881,.681,2.174,.681,3.055,0,.854-.659,2.092-.66,2.945,0,.881,.681,2.174,.681,3.055,0,.854-.659,2.092-.66,2.945,0,.212,.164,1.014,.85,1.268,1.067,.155,.085,.26,.249,.26,.438Z"/></svg>
