<?xml version="1.0" encoding="UTF-8"?>
<svg xmlns="http://www.w3.org/2000/svg" id="Layer_1" data-name="Layer 1" width="512" height="512" viewBox="0 0 24 24"><path d="M16.5,11c-1.055,0-2.5,0-2.5-1.5,0-1.378,1.122-2.5,2.5-2.5s2.5,1.122,2.5,2.5c0,1.5-1.445,1.5-2.5,1.5Zm0-3c-.827,0-1.5,.673-1.5,1.5,0,.399,.147,.5,1.5,.5s1.5-.101,1.5-.5c0-.827-.673-1.5-1.5-1.5Zm-6.5,1.5c0-.276-.224-.5-.5-.5H5.5c-.276,0-.5,.224-.5,.5s.224,.5,.5,.5h4c.276,0,.5-.224,.5-.5Zm2,14.5C5.383,24,0,18.617,0,12S5.383,0,12,0s12,5.383,12,12-5.383,12-12,12ZM12,1C5.935,1,1,5.935,1,12s4.935,11,11,11,11-4.935,11-11S18.065,1,12,1Zm0,18c-3.05,0-5.595-1.854-6.764-3.69-.331-.521-.316-1.16,.039-1.668,.353-.505,.943-.74,1.543-.606,.287,.063,.613,.156,.98,.262,1.028,.296,2.436,.702,4.198,.702,1.764,0,3.176-.407,4.207-.703,.367-.105,.692-.199,.979-.261,.598-.134,1.189,.101,1.543,.606,.355,.508,.37,1.147,.039,1.668h0c-1.169,1.836-3.713,3.69-6.764,3.69Zm-5.508-5c-.227,0-.358,.16-.397,.215-.045,.065-.181,.297-.015,.558,1.022,1.606,3.249,3.227,5.92,3.227s4.898-1.621,5.92-3.227h0c.166-.261,.031-.493-.015-.558-.044-.064-.214-.264-.509-.203-.268,.059-.573,.147-.917,.246-1.088,.313-2.578,.741-4.483,.742-1.904,0-3.39-.429-4.475-.742-.344-.099-.649-.187-.917-.246-.04-.009-.077-.012-.112-.012Z"/></svg>
