<?xml version="1.0" encoding="UTF-8"?>
<svg xmlns="http://www.w3.org/2000/svg" id="Layer_1" data-name="Layer 1" viewBox="0 0 24 24">
  <path d="m20.268,18.738l-3.811-3.872,1.193-1.193c1.505-1.479,2.339-3.463,2.349-5.586.009-2.174-.832-4.219-2.37-5.756-1.503-1.503-3.502-2.331-5.627-2.331s-4.124.828-5.627,2.331c-1.513,1.513-2.368,3.608-2.348,5.751.021,2.111.856,4.068,2.342,5.497l1.223,1.267-3.855,3.888c-.478.476-.738,1.107-.736,1.781.003.673.269,1.303.749,1.774l1.013.994c.485.477,1.118.715,1.75.715.647,0,1.295-.249,1.783-.746l3.727-3.816,3.684,3.817c.488.496,1.135.745,1.781.745.632,0,1.265-.238,1.751-.715l1.013-.994c.48-.472.746-1.102.749-1.774.002-.674-.259-1.306-.732-1.777Zm-1.27-10.655c-.009,1.854-.736,3.586-2.053,4.88l-1.191,1.191-3.015-3.063c1.194-1.01,4.262-3.826,4.262-6.09,0-.917-.266-1.766-.699-2.506.214.169.423.348.619.544,1.348,1.348,2.085,3.14,2.077,5.045ZM12.001,1c2.206,0,4,1.794,4,4,0,.625-.362,1.371-.885,2.119-.884-.712-1.964-1.119-3.115-1.119s-2.231.407-3.116,1.119c-.523-.748-.884-1.494-.884-2.119,0-2.206,1.794-4,4-4Zm2.507,6.913c-.831.998-1.832,1.926-2.508,2.494-.676-.568-1.676-1.496-2.507-2.494,1.433-1.142,3.581-1.143,5.014,0Zm-6.927,14.64c-.58.588-1.529.596-2.118.019l-1.013-.994c-.289-.283-.448-.662-.45-1.065,0-.404.155-.783.444-1.07l3.842-3.874,3.04,3.15-3.746,3.836Zm11.969-.976l-1.013.994c-.589.579-1.539.569-2.115-.016L7.074,12.871c-1.303-1.254-2.03-2.958-2.048-4.799-.018-1.876.731-3.711,2.055-5.034.196-.196.404-.374.619-.544-.433.74-.699,1.589-.699,2.506,0,2.617,4.097,5.972,4.662,6.422l7.896,8.021c.286.285.442.664.441,1.068-.002.403-.161.782-.45,1.065Z"/>
</svg>
