<?xml version="1.0" encoding="UTF-8"?>
<svg xmlns="http://www.w3.org/2000/svg" id="Layer_1" data-name="Layer 1" viewBox="0 0 24 24" width="512" height="512"><path d="m18.764,2.216L12.157.025c-.102-.033-.213-.033-.314,0l-6.607,2.19c-1.936.643-3.236,2.443-3.236,4.482v5.236c0,6.611,7.16,10.703,9.354,11.8,0,0,.421.266.649.266s.627-.214.627-.214c2.198-.884,9.37-4.352,9.37-11.852v-5.236c0-2.04-1.301-3.841-3.236-4.482Zm2.236,9.719c0,6.873-6.692,10.099-8.744,10.924l-.231.094-.224-.112c-2.065-1.032-8.801-4.868-8.801-10.905v-5.236c0-1.607,1.025-3.027,2.551-3.533l6.449-2.139,6.449,2.139c1.526.506,2.551,1.926,2.551,3.533v5.236Zm-5.143-4.085c.196.094.412.15.643.15.827,0,1.5-.673,1.5-1.5s-.673-1.5-1.5-1.5-1.5.673-1.5,1.5c0,.231.057.447.15.643l-.711.711c-.552-.429-1.213-.711-1.94-.803v-1.551c0-.276-.224-.5-.5-.5s-.5.224-.5.5v1.551c-.727.092-1.388.374-1.94.803l-.711-.711c.094-.196.15-.412.15-.643,0-.827-.673-1.5-1.5-1.5s-1.5.673-1.5,1.5.673,1.5,1.5,1.5c.231,0,.447-.057.643-.15l.71.71c-.429.552-.711,1.213-.803,1.94h-1.551c-.276,0-.5.224-.5.5s.224.5.5.5h1.551c.092.727.374,1.388.803,1.94l-.71.71c-.196-.094-.412-.15-.643-.15-.827,0-1.5.673-1.5,1.5s.673,1.5,1.5,1.5,1.5-.673,1.5-1.5c0-.231-.057-.447-.15-.643l.711-.711c.552.429,1.213.711,1.94.803v1.551c0,.276.224.5.5.5s.5-.224.5-.5v-1.551c.727-.092,1.388-.374,1.94-.803l.71.711c-.094.195-.15.412-.15.642,0,.827.673,1.5,1.5,1.5s1.5-.673,1.5-1.5-.673-1.5-1.5-1.5c-.231,0-.447.057-.643.15l-.71-.711c.429-.552.711-1.213.803-1.94h1.551c.276,0,.5-.224.5-.5s-.224-.5-.5-.5h-1.551c-.092-.727-.374-1.388-.803-1.94l.71-.71Zm.643-1.85c.276,0,.5.225.5.5s-.224.5-.5.5-.5-.225-.5-.5.224-.5.5-.5Zm-2.379,7.119s0,0,0,0,0,0,0,0c-.543.543-1.293.879-2.119.879-1.654,0-3-1.346-3-3s1.346-3,3-3,3,1.346,3,3c0,.827-.336,1.576-.879,2.119Zm-7.121-6.619c0-.275.224-.5.5-.5s.5.225.5.5-.224.5-.5.5-.5-.225-.5-.5Zm.5,9.5c-.276,0-.5-.225-.5-.5s.224-.5.5-.5.5.225.5.5-.224.5-.5.5Zm9.5-.5c0,.275-.224.5-.5.5s-.5-.225-.5-.5.224-.5.5-.5.5.225.5.5Z"/></svg>
