<?xml version="1.0" encoding="UTF-8"?>
<svg xmlns="http://www.w3.org/2000/svg" id="Layer_1" data-name="Layer 1" viewBox="0 0 24 24" width="512" height="512"><path d="m23.357,1.933c-.501-.574-1.249-.861-2.001-.887-.616.008-1.193.256-1.642.661-.32-.876-1.103-1.551-2.09-1.683-.687-.091-1.367.089-1.917.508-.55.42-.903,1.029-.995,1.708l-.881,5.98-1.959-6.458c-.222-.656-.686-1.186-1.306-1.493-.619-.306-1.323-.354-1.979-.132-.656.221-1.187.685-1.493,1.305-.138.279-.223.575-.255.875-.436-.231-.931-.347-1.432-.308-.769.059-1.467.446-1.915,1.062-.447.616-.602,1.393-.412,2.168l3.226,10.028-1.952-1.571c-1.044-.976-2.685-.918-3.658.124-.976,1.043-.921,2.687.129,3.67l4.809,4.327c1.563,1.407,3.583,2.182,5.686,2.182h5.188c2.748,0,5.092-2.055,5.452-4.779l2.009-15.201c.112-.752-.11-1.513-.61-2.087Zm-.38,1.948l-2.011,15.209c-.294,2.229-2.211,3.91-4.46,3.91h-5.188c-1.855,0-3.637-.684-5.017-1.925l-4.802-4.32c-.64-.6-.674-1.61-.074-2.251.6-.639,1.605-.673,2.273-.052l3.28,2.642c.172.139.415.148.597.023s.261-.355.192-.565l-3.727-11.582c-.11-.454-.016-.931.26-1.31.278-.384.698-.616,1.182-.653.707-.051,1.413.403,1.688,1.05l2.173,6.6c.069.21.265.344.475.344.052,0,.104-.008.156-.025.263-.086.405-.369.318-.631l-2.385-7.243c-.136-.403-.107-.834.081-1.215.188-.381.514-.666.917-.802.831-.281,1.734.166,2.012.982l2.602,8.578c.068.223.267.378.516.354.233-.017.424-.194.458-.426l1.207-8.194c.057-.421.274-.795.611-1.052.338-.257.757-.367,1.178-.312.869.117,1.482.919,1.367,1.779l-1.173,7.63c-.042.273.146.528.418.57.28.042.528-.145.57-.418,0,0,1.129-6.983,1.141-7.063.124-.827.793-1.458,1.555-1.467.474-.005.922.187,1.234.545.308.353.444.82.374,1.291Z"/></svg>
