<?xml version="1.0" encoding="UTF-8"?>
<svg xmlns="http://www.w3.org/2000/svg" id="Layer_1" data-name="Layer 1" viewBox="0 0 24 24" width="512" height="512"><path d="m12,0C5.383,0,0,5.383,0,12s5.383,12,12,12,12-5.383,12-12S18.617,0,12,0Zm0,23c-6.065,0-11-4.935-11-11S5.935,1,12,1s11,4.935,11,11-4.935,11-11,11Zm4.713-10.993l3.149-3.149c.195-.195.195-.512,0-.707s-.512-.195-.707,0l-3.149,3.149-3.29-3.285,3.154-3.149c.195-.195.195-.512,0-.708-.195-.195-.512-.195-.707,0l-3.155,3.15-3.155-3.15c-.195-.194-.512-.195-.707,0-.195.196-.195.512,0,.708l3.154,3.149-3.29,3.285-3.149-3.149c-.195-.195-.512-.195-.707,0s-.195.512,0,.707l3.149,3.149-3.149,3.144c-.195.194-.195.512,0,.707.098.098.226.146.354.146s.256-.049.354-.146l3.149-3.144,3.291,3.291-3.147,3.147c-.195.195-.195.512,0,.707.098.098.226.146.354.146s.256-.049.354-.146l3.147-3.147,3.147,3.147c.098.098.226.146.354.146s.256-.049.354-.146c.195-.195.195-.512,0-.707l-3.147-3.147,3.291-3.291,3.149,3.144c.098.098.226.146.354.146s.256-.049.354-.146c.195-.195.195-.513,0-.707l-3.149-3.144Zm-4.705,3.291l-3.29-3.29,3.29-3.285,3.29,3.285-3.29,3.29Z"/></svg>
