<?xml version="1.0" encoding="UTF-8"?>
<svg xmlns="http://www.w3.org/2000/svg" id="Layer_1" data-name="Layer 1" viewBox="0 0 24 24" width="512" height="512"><path d="M17.5,2h-5V.5c0-.28-.22-.5-.5-.5s-.5,.22-.5,.5v1.5H6.5C3.47,2,1,4.47,1,7.5c0,.83,.67,1.5,1.5,1.5h.5v5.37c0,4.7,4.21,7.69,6.73,9.05,.71,.39,1.49,.58,2.27,.58s1.56-.19,2.27-.58c2.51-1.36,6.73-4.35,6.73-9.05v-5.37h.5c.83,0,1.5-.67,1.5-1.5,0-3.03-2.47-5.5-5.5-5.5Zm2.5,12.37c0,4.19-3.89,6.92-6.2,8.17-1.13,.61-2.47,.61-3.6,0-2.32-1.26-6.2-3.99-6.2-8.17v-5.37H20v5.37Zm1.5-6.37H2.5c-.28,0-.5-.22-.5-.5,0-2.48,2.02-4.5,4.5-4.5h11c2.48,0,4.5,2.02,4.5,4.5,0,.28-.22,.5-.5,.5Z"/></svg>
