<?xml version="1.0" encoding="UTF-8"?>
<svg xmlns="http://www.w3.org/2000/svg" id="Layer_1" data-name="Layer 1" viewBox="0 0 24 24" width="512" height="512"><path d="m12,0C5.383,0,0,5.383,0,12s5.383,12,12,12,12-5.383,12-12S18.617,0,12,0Zm0,23c-6.065,0-11-4.935-11-11S5.935,1,12,1s11,4.935,11,11-4.935,11-11,11Zm2.5-17h-5c-1.379,0-2.5,1.122-2.5,2.5v8.181c0,.535.319,1.013.813,1.218.5.206,1.051.099,1.437-.286l2.75-2.75,2.75,2.75c.256.256.584.39.924.39.171,0,.345-.034.513-.104.494-.205.813-.683.813-1.218v-8.181c0-1.378-1.121-2.5-2.5-2.5Zm1.5,10.681c0,.191-.138.27-.196.294-.058.023-.211.066-.347-.069l-3.457-3.457-3.457,3.457c-.136.135-.289.093-.347.069-.059-.024-.196-.103-.196-.294v-8.181c0-.827.673-1.5,1.5-1.5h5c.827,0,1.5.673,1.5,1.5v8.181Z"/></svg>
