<?xml version="1.0" encoding="UTF-8"?>
<svg xmlns="http://www.w3.org/2000/svg" id="Layer_1" data-name="Layer 1" viewBox="0 0 24 24" width="512" height="512"><path d="M11.854,18.561c.195,.195,.195,.512,0,.707l-4.293,4.293c-.283,.283-.66,.439-1.061,.439s-.777-.156-1.061-.439L1.146,19.268c-.195-.195-.195-.512,0-.707s.512-.195,.707,0l4.146,4.146V.5c0-.276,.224-.5,.5-.5s.5,.224,.5,.5V22.707l4.146-4.146c.195-.195,.512-.195,.707,0Zm9.646,4.439h-4.112c-.205,0-.305-.139-.338-.199-.033-.06-.099-.218-.041-.323l4.779-5.357c.271-.434,.284-.959,.036-1.406-.247-.447-.701-.714-1.212-.714h-4.112c-.276,0-.5,.224-.5,.5s.224,.5,.5,.5h4.112c.205,0,.305,.139,.338,.199,.033,.06,.099,.218,.041,.323l-4.779,5.357c-.271,.434-.284,.959-.036,1.406,.247,.447,.701,.714,1.212,.714h4.112c.276,0,.5-.224,.5-.5s-.224-.5-.5-.5Zm-5.5-13.5V3c0-1.654,1.346-3,3-3s3,1.346,3,3v6.5c0,.276-.224,.5-.5,.5s-.5-.224-.5-.5v-3.5h-4v3.5c0,.276-.224,.5-.5,.5s-.5-.224-.5-.5Zm1-4.5h4V3c0-1.103-.897-2-2-2s-2,.897-2,2v2Z"/></svg>
