<?xml version="1.0" encoding="UTF-8"?>
<svg xmlns="http://www.w3.org/2000/svg" id="Layer_1" data-name="Layer 1" viewBox="0 0 24 24" width="512" height="512"><path d="M17,9.5v5c0,.276-.224,.5-.5,.5s-.5-.224-.5-.5v-5c0-.224-.05-.436-.138-.627l-8.01,7.981c-.098,.098-.225,.146-.353,.146s-.257-.049-.354-.147c-.194-.196-.194-.512,.002-.707l8.015-7.985,.004-.004c-.201-.1-.427-.157-.667-.157h-5c-.276,0-.5-.224-.5-.5s.224-.5,.5-.5h5c1.379,0,2.5,1.122,2.5,2.5Zm7,2.855v7.145c0,2.481-2.019,4.5-4.5,4.5h-6.367c-3.855,0-7.341-1.382-9.815-3.893C1.136,17.893-.042,14.965,.003,11.862,.094,5.542,5.309,.225,11.629,.009c3.197-.125,6.229,1.067,8.552,3.312,2.427,2.346,3.819,5.639,3.819,9.034Zm-1,0c0-3.126-1.281-6.157-3.515-8.315-2.036-1.968-4.67-3.039-7.451-3.039-.124,0-.247,.002-.372,.006C5.868,1.206,1.086,6.082,1.003,11.877c-.041,2.833,1.034,5.506,3.027,7.528,2.284,2.318,5.518,3.595,9.103,3.595h6.367c1.93,0,3.5-1.57,3.5-3.5v-7.145Z"/></svg>
