<?xml version="1.0" encoding="UTF-8"?>
<svg xmlns="http://www.w3.org/2000/svg" id="Layer_1" data-name="Layer 1" viewBox="0 0 24 24">
  <path d="m23.5,23h-1.5v-.5c0-1.62-1.112-2.974-2.609-3.371,2.3-2.082,3.609-4.987,3.609-8.129C23,4.935,18.065,0,12,0S1,4.935,1,11c0,3.142,1.309,6.047,3.609,8.129-1.497.397-2.609,1.751-2.609,3.371v.5H.5c-.276,0-.5.224-.5.5s.224.5.5.5h23c.276,0,.5-.224.5-.5s-.224-.5-.5-.5ZM2,11C2,5.486,6.486,1,12,1s10,4.486,10,10c0,3.172-1.458,6.087-4.001,7.997-.001,0-.002.002-.003.003h-5.496v-2h2.19c.512,0,.972-.284,1.2-.742.229-.458.181-.996-.126-1.406l-.798-1.063c.173-.117.315-.278.414-.473.211-.422.167-.919-.127-1.312l-.902-1.122c.259-.119.475-.324.607-.591.219-.437.172-.95-.12-1.341l-1.774-2.365c-.508-.677-1.62-.677-2.13,0l-1.773,2.365c-.292.391-.339.904-.12,1.341.133.267.349.472.607.591l-.913,1.136c-.283.378-.327.875-.116,1.297.099.195.241.356.414.473l-.798,1.063c-.307.41-.355.948-.126,1.406.229.458.688.742,1.2.742h2.19v2h-5.496s-.002-.002-.003-.003c-2.543-1.91-4.001-4.825-4.001-7.997Zm8.322,2.276c-.085-.169-.258-.276-.447-.276h-.148c-.133,0-.193-.092-.213-.131-.02-.04-.058-.144.012-.237l1.462-1.818c.12-.15.145-.356.062-.529-.083-.174-.259-.284-.451-.284h-.411c-.157,0-.228-.108-.251-.155-.023-.046-.067-.168.026-.294l1.772-2.364c.087-.116.204-.133.266-.133s.179.017.265.132l1.773,2.365c.094.125.05.248.026.294-.023.047-.094.155-.251.155h-.411c-.192,0-.368.11-.451.284-.083.173-.059.379.062.529l1.451,1.804c.08.107.042.211.022.251-.02.04-.08.131-.213.131h-.148c-.189,0-.362.107-.447.276s-.066.372.047.523l1.239,1.652c.115.153.061.302.032.359-.028.057-.115.189-.306.189h-5.381c-.19,0-.277-.132-.306-.189-.028-.057-.083-.206.032-.359l1.239-1.652c.113-.151.132-.354.047-.523Zm-7.322,9.224c0-1.378,1.121-2.5,2.5-2.5h13c1.379,0,2.5,1.122,2.5,2.5v.5H3v-.5ZM14,4c0-.552.448-1,1-1s1,.448,1,1-.448,1-1,1-1-.448-1-1Zm4,8c0-.552.448-1,1-1s1,.448,1,1-.448,1-1,1-1-.448-1-1Zm-13,0c-.552,0-1-.448-1-1s.448-1,1-1,1,.448,1,1-.448,1-1,1Zm1-6c0-.552.448-1,1-1s1,.448,1,1-.448,1-1,1-1-.448-1-1Z"/>
</svg>
