<?xml version="1.0" encoding="UTF-8"?>
<svg xmlns="http://www.w3.org/2000/svg" id="Layer_1" data-name="Layer 1" viewBox="0 0 24 24" width="512" height="512"><path d="M14.181,14.968c.175,.214,.144,.529-.069,.704-1.044,.855-2.326,1.326-3.611,1.326-.781,0-1.579-.238-2.372-.709-.237-.141-.316-.447-.175-.685,.141-.238,.448-.316,.685-.175,.637,.377,1.264,.568,1.862,.568,1.055,0,2.112-.391,2.977-1.1,.215-.175,.529-.143,.704,.069ZM23.599,5.834c-.466,.73-1.259,1.166-2.12,1.166h-1.226c.543,1.174,.747,2.552,.747,3.5,0,2.676-1.146,5.356-3.146,7.354-1.997,1.998-4.678,3.144-7.354,3.144-1.148,0-2.322-.292-3.5-.868v1.349c0,.861-.436,1.654-1.166,2.12-.407,.261-.868,.393-1.33,.393-.349,0-.698-.075-1.024-.228-1.274-.591-2.676-1.985-3.259-3.243-.354-.76-.292-1.64,.164-2.354,.466-.73,1.259-1.166,2.12-1.166h1.365c-.577-1.178-.868-2.352-.868-3.5,0-2.677,1.146-5.357,3.144-7.354,1.998-1.999,4.679-3.146,7.354-3.146,.948,0,2.326,.204,3.5,.747v-1.242c0-.861,.436-1.654,1.166-2.12,.716-.457,1.597-.518,2.355-.164,1.257,.583,2.651,1.984,3.242,3.259,.354,.76,.291,1.641-.165,2.354Zm-.741-1.935c-.495-1.066-1.706-2.284-2.757-2.772-.457-.212-.966-.175-1.396,.101-.44,.281-.704,.759-.704,1.277v2.094c0,.186-.103,.355-.266,.441-.165,.088-.361,.075-.516-.027-1.03-.699-2.61-1.013-3.719-1.013-2.412,0-4.835,1.04-6.647,2.853-1.812,1.811-2.851,4.233-2.851,6.647,0,1.211,.382,2.472,1.137,3.745,.091,.154,.093,.347,.004,.503-.089,.155-.255,.252-.435,.252H2.505c-.519,0-.996,.264-1.277,.704-.275,.432-.312,.94-.101,1.396,.488,1.052,1.706,2.263,2.772,2.758,.459,.212,.967,.173,1.396-.102,.441-.281,.704-.759,.704-1.277v-2.188c0-.18,.097-.346,.253-.435,.155-.09,.349-.087,.502,.005,1.273,.754,2.533,1.137,3.745,1.137,2.414,0,4.837-1.039,6.647-2.851,1.812-1.812,2.853-4.235,2.853-6.647,0-1.108-.313-2.688-1.013-3.719-.104-.153-.114-.352-.027-.516,.086-.163,.256-.266,.441-.266h2.077c.519,0,.996-.263,1.277-.704,.275-.432,.312-.94,.102-1.396Z"/></svg>
