<?xml version="1.0" encoding="UTF-8"?>
<svg xmlns="http://www.w3.org/2000/svg" id="Layer_1" data-name="Layer 1" viewBox="0 0 24 24" width="512" height="512"><path d="m14.068,6.838c-.345-.826-1.137-1.338-2.068-1.338s-1.724.513-2.071,1.345l-3.893,9.719c-.103.256.022.547.278.65.256.102.547-.022.65-.278l1.176-2.936h7.545l1.096,2.925c.075.201.266.325.468.325.059,0,.118-.01.175-.032.259-.097.39-.385.293-.644l-3.65-9.736Zm-5.528,6.162l2.314-5.777c.223-.533.738-.723,1.146-.723s.923.19,1.139.706l2.172,5.794h-6.77ZM12,0C5.383,0,0,5.383,0,12s5.383,12,12,12,12-5.383,12-12S18.617,0,12,0Zm0,23c-6.065,0-11-4.935-11-11S5.935,1,12,1s11,4.935,11,11-4.935,11-11,11Z"/></svg>
