<?xml version="1.0" encoding="UTF-8"?>
<svg xmlns="http://www.w3.org/2000/svg" id="Layer_1" data-name="Layer 1" viewBox="0 0 24 24" width="512" height="512"><path d="m22.311.851c-1.073-.807-2.429-1.054-3.718-.683l-8.434,2.441c-.839.243-1.771.437-2.846.59-1.015.146-2.361.455-3.009,1.104-.649.648-.958,1.994-1.104,3.01-.154,1.075-.346,2.006-.589,2.846L.17,18.593c-.373,1.29-.125,2.646.683,3.719.807,1.073,2.04,1.688,3.382,1.688h6.704c.18,0,4.444-.049,8.728-4.334,4.285-4.283,4.334-8.548,4.334-8.728v-6.704c0-1.343-.616-2.576-1.689-3.383Zm-3.44.278c.3-.087.605-.13.907-.13.689,0,1.363.223,1.933.65.82.617,1.29,1.559,1.29,2.584v6.543L14.592,2.369l4.28-1.239ZM1.652,21.71c-.616-.819-.806-1.854-.521-2.84l1.239-4.279,8.409,8.409h-6.544c-1.025,0-1.967-.47-2.583-1.29Zm17.308-2.751c-2.713,2.714-5.44,3.604-6.911,3.897L2.687,13.494l.885-3.058c.256-.885.458-1.86.619-2.981.169-1.187.477-2.101.82-2.444s1.257-.65,2.444-.82c1.123-.161,2.098-.363,2.983-.619l3.057-.885,9.362,9.362c-.293,1.471-1.184,4.198-3.897,6.911Z"/><path d="m14.565,8.027c-.195-.195-.512-.195-.707,0l-5.688,5.688c-.195.195-.195.512,0,.707.098.098.226.146.354.146s.256-.049.354-.146l5.688-5.688c.195-.195.195-.512,0-.707Z"/><path d="m16.819,10.988l-5.688,5.688c-.195.195-.195.512,0,.707.098.098.226.146.354.146s.256-.049.354-.146l5.688-5.688c.195-.195.195-.512,0-.707s-.512-.195-.707,0Z"/></svg>
