<?xml version="1.0" encoding="UTF-8"?>
<svg xmlns="http://www.w3.org/2000/svg" id="Layer_1" data-name="Layer 1" viewBox="0 0 24 24" width="512" height="512"><path d="m14.5,13.5c0,.276-.224.5-.5.5s-.5-.224-.5-.5v-3h-3c-.276,0-.5-.224-.5-.5s.224-.5.5-.5h3v-3c0-.276.224-.5.5-.5s.5.224.5.5v3h3c.276,0,.5.224.5.5s-.224.5-.5.5h-3v3Zm9.5-9v9.373c0,.921-.374,1.823-1.025,2.475l-2.627,2.627c-.651.651-1.554,1.025-2.475,1.025h-9.373c-2.481,0-4.5-2.019-4.5-4.5V4.5C4,2.019,6.019,0,8.5,0h11c2.481,0,4.5,2.019,4.5,4.5Zm-15.5,14.5h8.5v-3.5c0-1.379,1.121-2.5,2.5-2.5h3.5V4.5c0-1.93-1.57-3.5-3.5-3.5h-11c-1.93,0-3.5,1.57-3.5,3.5v11c0,1.93,1.57,3.5,3.5,3.5Zm14.487-5h-3.487c-.827,0-1.5.673-1.5,1.5v3.487c.613-.032,1.205-.284,1.641-.72l2.627-2.627c.436-.436.688-1.028.72-1.641Zm-5.487,9H4.5c-1.93,0-3.5-1.57-3.5-3.5V6.5c0-.276-.224-.5-.5-.5s-.5.224-.5.5v13c0,2.481,2.019,4.5,4.5,4.5h13c.276,0,.5-.224.5-.5s-.224-.5-.5-.5Z"/></svg>
