<?xml version="1.0" encoding="UTF-8"?>
<svg xmlns="http://www.w3.org/2000/svg" id="Layer_1" data-name="Layer 1" viewBox="0 0 24 24" width="512" height="512"><path d="m18,7.5v9c0,.276-.224.5-.5.5s-.5-.224-.5-.5V7.5c0-.276.224-.5.5-.5s.5.224.5.5ZM13.5,0c-.276,0-.5.224-.5.5v23c0,.276.224.5.5.5s.5-.224.5-.5V.5c0-.276-.224-.5-.5-.5Zm8,4c-.276,0-.5.224-.5.5v15c0,.276.224.5.5.5s.5-.224.5-.5V4.5c0-.276-.224-.5-.5-.5Zm-12,0c-.276,0-.5.224-.5.5v15c0,.276.224.5.5.5s.5-.224.5-.5V4.5c0-.276-.224-.5-.5-.5Zm-4,3c-.276,0-.5.224-.5.5v9c0,.276.224.5.5.5s.5-.224.5-.5V7.5c0-.276-.224-.5-.5-.5Zm-4,2c-.276,0-.5.224-.5.5v5c0,.276.224.5.5.5s.5-.224.5-.5v-5c0-.276-.224-.5-.5-.5Z"/></svg>
