<?xml version="1.0" encoding="UTF-8"?>
<svg xmlns="http://www.w3.org/2000/svg" id="Layer_1" data-name="Layer 1" viewBox="0 0 24 24" width="512" height="512"><path d="m15,12.5V4.5c0-1.93-1.57-3.5-3.5-3.5h-7c-1.93,0-3.5,1.57-3.5,3.5v15c0,1.93,1.57,3.5,3.5,3.5h8c.276,0,.5.224.5.5s-.224.5-.5.5H4.5c-2.481,0-4.5-2.019-4.5-4.5V4.5C0,2.019,2.019,0,4.5,0h7c2.481,0,4.5,2.019,4.5,4.5v8c0,.276-.224.5-.5.5s-.5-.224-.5-.5Zm-8.5,1.5h-2c-.276,0-.5.224-.5.5s.224.5.5.5h2c.276,0,.5-.224.5-.5s-.224-.5-.5-.5Zm5,0h-2c-.276,0-.5.224-.5.5s.224.5.5.5h2c.276,0,.5-.224.5-.5s-.224-.5-.5-.5Zm-5,4h-2c-.276,0-.5.224-.5.5s.224.5.5.5h2c.276,0,.5-.224.5-.5s-.224-.5-.5-.5Zm5,0h-2c-.276,0-.5.224-.5.5s.224.5.5.5h2c.276,0,.5-.224.5-.5s-.224-.5-.5-.5Zm-3.5-8c.276,0,.5-.224.5-.5v-2h2c.276,0,.5-.224.5-.5s-.224-.5-.5-.5h-2v-2c0-.276-.224-.5-.5-.5s-.5.224-.5.5v2h-2c-.276,0-.5.224-.5.5s.224.5.5.5h2v2c0,.276.224.5.5.5Zm9,5.5c0-1.378,1.121-2.5,2.5-2.5s2.5,1.122,2.5,2.5-1.121,2.5-2.5,2.5-2.5-1.122-2.5-2.5Zm1,0c0,.827.673,1.5,1.5,1.5s1.5-.673,1.5-1.5-.673-1.5-1.5-1.5-1.5.673-1.5,1.5Zm5.984,7.875c-.504-1.956-2.39-3.375-4.484-3.375s-3.98,1.419-4.484,3.375c-.068.267.092.54.359.609.269.069.54-.093.609-.36.385-1.496,1.896-2.625,3.516-2.625s3.131,1.128,3.516,2.625c.059.226.262.375.484.375.041,0,.083-.005.125-.016.268-.069.428-.342.359-.609Z"/></svg>
