<?xml version="1.0" encoding="UTF-8"?>
<svg xmlns="http://www.w3.org/2000/svg" id="Layer_1" data-name="Layer 1" viewBox="0 0 24 24" width="512" height="512"><path d="M12,24C5.724,24,1,15.752,1,10.392,1,4.672,5.935,.018,12,.018s11,4.654,11,10.374c0,5.36-4.724,13.608-11,13.608ZM12,1.018C6.486,1.018,2,5.223,2,10.392c0,4.967,4.294,12.626,10,12.626s10-7.659,10-12.626c0-5.169-4.486-9.374-10-9.374ZM7,14c-1.654,0-3-1.122-3-2.5s1.346-2.5,3-2.5,3,1.122,3,2.5-1.346,2.5-3,2.5Zm0-4c-1.103,0-2,.673-2,1.5s.897,1.5,2,1.5,2-.673,2-1.5-.897-1.5-2-1.5Zm10,4c-1.654,0-3-1.122-3-2.5s1.346-2.5,3-2.5,3,1.122,3,2.5-1.346,2.5-3,2.5Zm0-4c-1.103,0-2,.673-2,1.5s.897,1.5,2,1.5,2-.673,2-1.5-.897-1.5-2-1.5Zm-7,5c-.552,0-1,.448-1,1s.448,1,1,1,1-.448,1-1-.448-1-1-1Zm4,0c-.552,0-1,.448-1,1s.448,1,1,1,1-.448,1-1-.448-1-1-1ZM10,4c-.552,0-1,.448-1,1s.448,1,1,1,1-.448,1-1-.448-1-1-1Zm2,3c-.552,0-1,.448-1,1s.448,1,1,1,1-.448,1-1-.448-1-1-1Zm2-3c-.552,0-1,.448-1,1s.448,1,1,1,1-.448,1-1-.448-1-1-1Zm-4,14c-.552,0-1,.448-1,1s.448,1,1,1,1-.448,1-1-.448-1-1-1Zm4,0c-.552,0-1,.448-1,1s.448,1,1,1,1-.448,1-1-.448-1-1-1Z"/></svg>
