<?xml version="1.0" encoding="UTF-8"?>
<svg xmlns="http://www.w3.org/2000/svg" id="Layer_1" data-name="Layer 1" viewBox="0 0 24 24" width="512" height="512"><path d="M13.854,18.146c.195,.195,.195,.512,0,.707-.098,.098-.226,.146-.354,.146s-.256-.049-.354-.146l-1.5-1.5c-.094-.094-.146-.221-.146-.354v-2.5c0-.276,.224-.5,.5-.5s.5,.224,.5,.5v2.293l1.354,1.354ZM24,7.5v11c0,2.481-2.019,4.5-4.5,4.5h-1c-.276,0-.5-.224-.5-.5s.224-.5,.5-.5h1c1.93,0,3.5-1.57,3.5-3.5V8H1v10.5c0,1.93,1.57,3.5,3.5,3.5h1c.276,0,.5,.224,.5,.5s-.224,.5-.5,.5h-1c-2.481,0-4.5-2.019-4.5-4.5V5.5C0,3.019,2.019,1,4.5,1h3.028c.386,0,.772,.091,1.117,.264l3.156,1.578c.207,.104,.438,.158,.67,.158h7.028c2.481,0,4.5,2.019,4.5,4.5ZM1,7H22.964c-.243-1.694-1.704-3-3.464-3h-7.028c-.386,0-.772-.091-1.117-.264l-3.156-1.578c-.207-.104-.438-.158-.67-.158h-3.028c-1.93,0-3.5,1.57-3.5,3.5v1.5Zm17,10c0,3.309-2.691,6-6,6s-6-2.691-6-6,2.691-6,6-6,6,2.691,6,6Zm-1,0c0-2.757-2.243-5-5-5s-5,2.243-5,5,2.243,5,5,5,5-2.243,5-5Z"/></svg>
