<?xml version="1.0" encoding="UTF-8"?>
<svg xmlns="http://www.w3.org/2000/svg" id="Layer_1" data-name="Layer 1" viewBox="0 0 24 24" width="512" height="512"><path d="m20,23.517c-.009.271-.231.483-.499.483H4.483c-.276-.01-.492-.241-.483-.517.009-.276.268-.479.516-.483h15c.276.01.492.241.483.517ZM7.5,14c-.276,0-.5.224-.5.5s.224.5.5.5h9c.276,0,.5-.224.5-.5s-.224-.5-.5-.5H7.5Zm-1-4h11c.276,0,.5-.224.5-.5s-.224-.5-.5-.5H6.5c-.276,0-.5.224-.5.5s.224.5.5.5ZM9.5,1h5c.276,0,.5-.224.5-.5s-.224-.5-.5-.5h-5c-.276,0-.5.224-.5.5s.224.5.5.5Zm-3.879,2.485l-1.709.427-.427,1.709c-.056.223-.255.379-.485.379s-.429-.156-.485-.379l-.429-1.715-1.716-.462c-.222-.06-.374-.262-.37-.491.004-.229.164-.427.387-.479l1.702-.394.426-1.702c.11-.445.858-.445.97,0l.427,1.709,1.709.427c.223.056.379.256.379.485s-.156.43-.379.485Zm18.379,13.515c0,.204-.125.389-.314.464l-2.301.921-.92,2.301c-.076.19-.26.314-.464.314s-.388-.124-.464-.314l-.922-2.306-2.308-.973c-.188-.08-.31-.266-.306-.47.004-.205.132-.387.323-.459l2.294-.868.918-2.296c.152-.381.776-.381.929,0l.92,2.301,2.301.921c.19.075.314.26.314.464Zm-1.846,0l-1.339-.536c-.127-.051-.228-.151-.279-.278l-.536-1.339-.536,1.339c-.052.13-.156.232-.288.282l-1.33.504,1.348.567c.123.052.22.151.27.275l.536,1.339.536-1.339c.051-.127.151-.228.279-.278l1.339-.536Z"/></svg>
