<?xml version="1.0" encoding="UTF-8"?>
<svg xmlns="http://www.w3.org/2000/svg" id="Layer_1" data-name="Layer 1" viewBox="0 0 24 24" width="512" height="512"><path d="m24.034,12C24.034,5.128,18.513.006,12.432.006,5.487.006.034,5.383.034,12s5.399,12,12.036,12c6.828,0,11.964-5.359,11.964-12Zm-1,0c0,.975-.128,1.921-.367,2.823l-3.169-1.381c.472-.214,1.001-.709,1.001-1.441,0-.825-.651-1.372-1.184-1.448l-1.654-.552h.491c1.018,0,1.846-.828,1.846-1.846v-.308c0-1.018-.828-1.846-1.846-1.846h-.631c-.703,0-1.336.391-1.651,1.021l-.578,1.161-.429.147c-.265.062-.91.272-1.168.874-.068.158-.099.314-.106.461-.277-.274-.657-.433-1.051-.433-.603,0-1.082.393-1.23.691l-.775,1.045c-.129-.079-.338-.228-.457-.335-.099-.148-.116-.333-.046-.497l.935-2.181c.054-.125.148-.221.261-.27l2.596-1.07c.576-.165,1.196-.726,1.196-1.567,0-.4-.153-.766-.43-1.029-.458-.434-1.062-.417-1.282-.399l-1.688.292,1.203-2.885c5.696.389,10.212,5.162,10.212,10.974Zm-22,0C1.034,6.042,5.811,1.175,11.749,1.005l-1.232,2.964c-.101.169-.249.498-.113.792.094.205.31.321.54.283l2.491-.433c.03-.002.303-.021.466.134.08.076.119.175.119.303,0,.466-.466.605-.523.625l-2.655,1.091c-.356.152-.638.435-.793.797l-.935,2.181c-.204.475-.154,1.015.196,1.522.007.007.708.701,1.207.737.474,0,.68-.237.729-.314l.909-1.235c.025-.048.18-.22.385-.22.231,0,.365.159.433.24l.492.487c.145.182.421.378.69.38.385,0,.698-.313.698-.698,0-.053-.008-.105-.025-.156l-.145-.422c-.034-.066-.139-.295-.066-.465.06-.14.29-.25.524-.308l.472-.16c.251-.083.454-.26.572-.496l.583-1.166c.145-.289.435-.468.757-.468h.631c.467,0,.846.379.846.846v.308c0,.467-.379.846-.846.846h-1.263c-.491,0-.891.4-.891.891,0,.364.232.686.577.801l2.503.828c.131.021.419.17.419.48,0,.353-.414.531-.459.551l-.76.376c-.2.116-.319.316-.319.534,0,.28.188.519.468.593l3.937,1.728c-.15.409-.323.806-.518,1.19l-2.468-.429c-.245-.028-.475-.14-.649-.314l-.909-.909c-.207-.207-.482-.321-.775-.321h-.714c-.218,0-.428-.063-.608-.185l-2.243-1.495c-.315-.21-.681-.321-1.059-.321h-1.252c-.432,0-.855.148-1.193.418l-1.26,1.008c-.456.364-.717.907-.717,1.491v.291c0,.503.204.995.559,1.35l1.067,1.067c.245.245.551.418.888.503l.811.202c.398.1.676.456.676.865v2.803c-6.053-.037-10.966-4.957-10.966-10.999Zm11.966,10.96v-2.764c0-.868-.589-1.623-1.433-1.835l-.811-.202c-.16-.04-.306-.123-.423-.24l-1.067-1.067c-.169-.169-.266-.403-.266-.643v-.291c0-.278.125-.537.342-.71l1.26-1.008c.16-.128.362-.199.568-.199h1.252c.18,0,.354.053.504.153l2.242,1.494c.345.231.748.353,1.164.353l.782.028.909.909c.333.333.774.546,1.213.596l2.085.363c-1.791,2.819-4.825,4.768-8.322,5.064ZM7.947,6.724l-1,2c-.088.175-.264.276-.448.276-.075,0-.151-.017-.223-.053-.247-.124-.347-.424-.224-.671l1-2c.124-.247.424-.347.671-.224.247.124.347.424.224.671Z"/></svg>
