<?xml version="1.0" encoding="UTF-8"?>
<svg xmlns="http://www.w3.org/2000/svg" id="Layer_1" data-name="Layer 1" viewBox="0 0 24 24" width="512" height="512"><path d="M18.674,11.031c-.182-.067-.386-.023-.525,.113-3.923,3.874-9.671,4.853-9.729,4.862-.173,.028-.318,.145-.384,.307-.065,.162-.041,.347,.063,.486,.032,.043,.316,.412,.9,.84v1.46c0,1.395,.956,2.9,2.5,2.9s2.5-1.505,2.5-2.9v-.194c5.446-1.285,5.004-7.385,4.998-7.448-.016-.193-.143-.36-.324-.427Zm-5.674,8.069c0,.914-.573,1.9-1.5,1.9s-1.5-.986-1.5-1.9v-2.425c.785-.209,1.836-.537,3-1.026v3.452Zm1-1.226v-2.676c1.308-.628,2.697-1.459,3.981-2.547-.143,1.577-.848,4.358-3.981,5.223ZM6.5,9.5c-1.103,0-2,.897-2,2s.897,2,2,2,2-.897,2-2-.897-2-2-2Zm0,3c-.552,0-1-.449-1-1s.448-1,1-1,1,.449,1,1-.448,1-1,1Zm7.5-2c1.93,0,3.5-1.57,3.5-3.5s-1.57-3.5-3.5-3.5-3.5,1.57-3.5,3.5,1.57,3.5,3.5,3.5Zm0-6c1.379,0,2.5,1.122,2.5,2.5s-1.121,2.5-2.5,2.5-2.5-1.122-2.5-2.5,1.121-2.5,2.5-2.5ZM12,0C5.383,0,0,5.383,0,12s5.383,12,12,12,12-5.383,12-12S18.617,0,12,0Zm0,23c-6.065,0-11-4.935-11-11S5.935,1,12,1s11,4.935,11,11-4.935,11-11,11Zm1-16c0-.552,.448-1,1-1s1,.448,1,1-.448,1-1,1-1-.448-1-1Z"/></svg>
