<?xml version="1.0" encoding="UTF-8"?>
<svg xmlns="http://www.w3.org/2000/svg" id="Layer_1" data-name="Layer 1" viewBox="0 0 24 24" width="512" height="512"><path d="m18.355,6.149c.194.196.192.513-.004.707l-6.793,6.707c-.291.291-.674.437-1.057.437s-.769-.146-1.062-.439l-3.288-3.202c-.198-.193-.202-.509-.01-.707.194-.198.51-.201.707-.01l3.293,3.207c.201.201.518.199.712.005l6.795-6.709c.197-.194.514-.192.707.005Zm5.645-2.649v13c0,1.93-1.57,3.5-3.5,3.5h-3.532l-3.984,3.295c-.276.245-.626.368-.979.368-.356,0-.715-.126-1.001-.379l-3.897-3.284h-3.606c-1.93,0-3.5-1.57-3.5-3.5V3.5C0,1.57,1.57,0,3.5,0h17c1.93,0,3.5,1.57,3.5,3.5Zm-1,0c0-1.378-1.121-2.5-2.5-2.5H3.5c-1.378,0-2.5,1.122-2.5,2.5v13c0,1.378,1.122,2.5,2.5,2.5h3.789c.118,0,.232.042.322.118l4.047,3.41c.198.176.484.178.675.008l4.137-3.421c.09-.074.202-.115.318-.115h3.712c1.379,0,2.5-1.122,2.5-2.5V3.5Z"/></svg>
