<?xml version="1.0" encoding="UTF-8"?>
<svg xmlns="http://www.w3.org/2000/svg" id="Layer_1" data-name="Layer 1" width="512" height="512" viewBox="0 0 24 24"><path d="M13.5,24c-.062,0-.125-.011-.186-.036-.257-.103-.381-.394-.278-.65l2-5c.103-.257,.395-.381,.649-.279,.257,.103,.381,.394,.278,.65l-2,5c-.078,.196-.266,.314-.464,.314Zm-4,0c-.062,0-.125-.011-.186-.036-.256-.103-.381-.394-.279-.65l2-5c.102-.257,.396-.381,.65-.279,.256,.103,.381,.394,.279,.65l-2,5c-.078,.196-.266,.314-.464,.314Zm-4,0c-.062,0-.125-.011-.186-.036-.256-.103-.381-.394-.279-.65l2-5c.102-.257,.396-.381,.65-.279,.256,.103,.381,.394,.279,.65l-2,5c-.078,.196-.266,.314-.464,.314Zm13-4.365c-.211,0-.407-.134-.476-.346-.085-.262,.059-.544,.321-.63,2.683-.872,4.551-3.248,4.649-5.912,.116-3.131-2.015-5.899-5.065-6.584-.735-.165-1.347-.636-1.677-1.294-1.413-2.819-4.464-4.325-7.598-3.744C5.917,1.633,3.704,3.816,3.147,6.559c-.167,.819-.191,1.644-.074,2.452,.13,.892-.119,1.714-.685,2.254-1.127,1.078-1.609,2.646-1.288,4.196,.286,1.381,1.282,2.596,2.6,3.17,.253,.11,.369,.405,.259,.658-.111,.252-.405,.369-.658,.259-1.635-.712-2.824-2.165-3.18-3.884-.391-1.89,.198-3.805,1.577-5.122,.329-.314,.469-.819,.387-1.387-.135-.923-.107-1.863,.083-2.796C2.804,3.222,5.338,.724,8.473,.142c3.576-.665,7.061,1.057,8.675,4.279,.194,.389,.56,.668,1.001,.767,3.521,.79,5.98,3.984,5.847,7.597-.114,3.082-2.261,5.825-5.341,6.826-.051,.017-.104,.024-.154,.024Zm-4.759-4.599c-.173,0-.342-.09-.434-.251l-1.308-2.279-1.307,2.279c-.137,.239-.445,.322-.682,.185-.24-.137-.323-.443-.185-.682l1.312-2.288h-2.637c-.276,0-.5-.224-.5-.5s.224-.5,.5-.5h2.637l-1.312-2.288c-.138-.239-.055-.545,.185-.682,.238-.137,.545-.055,.682,.185l1.307,2.279,1.308-2.279c.137-.24,.441-.323,.683-.185,.239,.137,.322,.443,.185,.682l-1.312,2.288h2.637c.276,0,.5,.224,.5,.5s-.224,.5-.5,.5h-2.637l1.312,2.288c.138,.239,.055,.545-.185,.682-.079,.045-.164,.066-.249,.066Z"/></svg>
