<?xml version="1.0" encoding="UTF-8"?>
<svg xmlns="http://www.w3.org/2000/svg" id="Layer_1" data-name="Layer 1" viewBox="0 0 24 24">
  <path d="m22.952,12.667c-.105-.425-.37-.782-.744-1.008l-1.383-.833c.054-.05,1.482-1.163,1.482-1.163.131-.102.203-.261.192-.427-.01-.165-.102-.314-.245-.399L8.053.446C7.231-.013,6.28-.123,5.373.138c-.905.262-1.652.862-2.103,1.69l-.844,1.552c-.904,1.663-.302,3.778,1.333,4.708l6.4,3.855-1.221,3.664c-.478,1.432-1.812,2.393-3.32,2.393H1v-4.5c0-.276-.224-.5-.5-.5s-.5.224-.5.5v10c0,.276.224.5.5.5s.5-.224.5-.5v-4.5h4.617c1.94,0,3.655-1.236,4.269-3.077l1.151-3.452,3.909,2.354c.465.28.984.424,1.513.424.249,0,.5-.032.749-.097.315-.082.607-.213.871-.385l1.657.998c.264.159.554.234.842.234.555,0,1.098-.282,1.404-.792l.784-1.302c.226-.375.292-.814.187-1.238Zm-5.998,1.518c-.51.132-1.041.057-1.493-.216L4.264,7.226c-1.175-.669-1.606-2.18-.96-3.368l.845-1.552c.322-.591.855-1.02,1.501-1.207.231-.067.467-.1.701-.1.419,0,.833.106,1.204.314l13.558,8.012-.731.567c-.384.297-.696.664-.923,1.081l-1.307,2.294c-.261.459-.687.785-1.198.918Zm4.955-.795l-.784,1.302c-.182.301-.574.397-.874.217l-1.42-.855c.068-.093.132-.19.19-.292l1.21-2.125,1.461.88c.301.181.398.573.217.874Z"/>
</svg>
