<?xml version="1.0" encoding="UTF-8"?>
<svg xmlns="http://www.w3.org/2000/svg" id="Layer_1" data-name="Layer 1" viewBox="0 0 24 24" width="512" height="512"><path d="m23.334,1.851c-.489-.541-1.188-.851-1.917-.851H2.599c-.726.001-1.422.31-1.911.846C.195,2.386-.048,3.114.02,3.843l1.384,14.894c.226,2.43,2.229,4.263,4.661,4.263h11.788c2.416-.001,4.419-1.821,4.657-4.234l1.484-14.908c.073-.731-.167-1.463-.66-2.007Zm-5.481,20.147H6.064c-1.912.001-3.488-1.441-3.665-3.354l-.339-3.643h19.82l-.365,3.667c-.188,1.899-1.764,3.331-3.663,3.331ZM23,3.76l-1.02,10.241H2.007c-.013,0-.026,0-.039.002L1.016,3.75c-.043-.456.104-.893.411-1.23.305-.334.721-.519,1.172-.519h18.818c.453-.001.871.184,1.176.521.304.335.451.786.407,1.237Z"/></svg>
