<?xml version="1.0" encoding="UTF-8"?>
<svg xmlns="http://www.w3.org/2000/svg" id="Layer_1" data-name="Layer 1" viewBox="0 0 24 24" width="512" height="512"><path d="M22.624,9.26l-1.624-1.565V3.5c0-1.93-1.57-3.5-3.5-3.5H6.5c-1.93,0-3.5,1.57-3.5,3.5V7.696l-1.624,1.565c-.875,.844-1.376,2.024-1.376,3.24v7c0,2.481,2.019,4.5,4.5,4.5h15c2.481,0,4.5-2.019,4.5-4.5v-7c0-1.215-.502-2.396-1.376-3.24Zm-.694,.72c.092,.089,.179,.183,.26,.281l-1.189,1.189v-2.365l.929,.896ZM4,3.5c0-1.378,1.122-2.5,2.5-2.5h11c1.378,0,2.5,1.122,2.5,2.5V12.45l-5.525,5.525c-1.365,1.364-3.586,1.364-4.95,0l-5.525-5.525V3.5Zm-1.929,6.48l.929-.896v2.365l-1.189-1.189c.081-.098,.168-.192,.26-.281Zm20.929,9.52c0,1.93-1.57,3.5-3.5,3.5H4.5c-1.93,0-3.5-1.57-3.5-3.5v-7c0-.469,.096-.932,.277-1.36l7.541,7.542c.877,.877,2.03,1.315,3.182,1.315s2.305-.438,3.182-1.315l7.541-7.542c.18,.427,.277,.89,.277,1.36v7ZM8,6.626c0-1.448,1.178-2.626,2.626-2.626h.874v-1.5c0-.276,.224-.5,.5-.5s.5,.224,.5,.5v1.5h.926c.978,0,1.891,.527,2.381,1.375,.139,.239,.057,.545-.182,.683-.241,.139-.545,.057-.683-.182-.312-.54-.894-.875-1.516-.875h-2.8c-.896,0-1.626,.729-1.626,1.626,0,.803,.575,1.478,1.368,1.605l3.422,.55c1.28,.206,2.209,1.296,2.209,2.593,0,1.448-1.178,2.626-2.626,2.626h-.874v1.5c0,.276-.224,.5-.5,.5s-.5-.224-.5-.5v-1.5h-.926c-.979,0-1.891-.526-2.381-1.374-.139-.239-.057-.545,.182-.683,.239-.14,.544-.057,.683,.182,.312,.54,.894,.875,1.516,.875h2.8c.896,0,1.626-.729,1.626-1.626,0-.803-.575-1.478-1.368-1.605l-3.422-.55c-1.28-.206-2.209-1.296-2.209-2.593Z"/></svg>
