<?xml version="1.0" encoding="UTF-8"?>
<svg xmlns="http://www.w3.org/2000/svg" id="Layer_1" data-name="Layer 1" viewBox="0 0 24 24" width="512" height="512"><path d="m22.613,8.367L15.311,1.372c-.884-.884-2.06-1.372-3.311-1.372s-2.427.487-3.303,1.364L1.387,8.367c-.882.844-1.387,2.029-1.387,3.249v7.884c0,2.481,2.019,4.5,4.5,4.5h15c2.481,0,4.5-2.019,4.5-4.5v-7.884c0-1.22-.505-2.405-1.387-3.249Zm-20.535.722l7.318-7.01c.695-.695,1.62-1.079,2.604-1.079s1.908.383,2.611,1.086l7.311,7.003c.075.072.146.147.214.225l-7.661,7.661c-1.322,1.322-3.627,1.322-4.949,0L1.864,9.314c.068-.078.139-.153.214-.225Zm20.922,10.411c0,1.93-1.57,3.5-3.5,3.5H4.5c-1.93,0-3.5-1.57-3.5-3.5v-7.884c0-.499.109-.991.312-1.441l7.507,7.507c.85.85,1.979,1.318,3.182,1.318s2.332-.468,3.182-1.318l7.507-7.507c.203.45.312.941.312,1.441v7.884Z"/></svg>
