<?xml version="1.0" encoding="UTF-8"?>
<svg xmlns="http://www.w3.org/2000/svg" id="Layer_1" data-name="Layer 1" viewBox="0 0 24 24" width="512" height="512"><path d="M21.5,13c-.276,0-.5,.224-.5,.5,0,5.238-4.262,9.5-9.5,9.5h-2c-1.378,0-2.5-1.121-2.5-2.5v-7.973l7.658-2.553c.262-.088,.403-.371,.316-.633-.087-.261-.368-.403-.632-.316l-7.342,2.447v-2.945l7.658-2.553c.262-.088,.403-.371,.316-.633-.087-.262-.368-.405-.632-.316l-7.342,2.447V.5c0-.276-.224-.5-.5-.5s-.5,.224-.5,.5V7.806l-3.658,1.219c-.262,.088-.403,.371-.316,.633,.07,.209,.265,.342,.474,.342,.052,0,.105-.008,.158-.025l3.342-1.114v2.945l-3.658,1.219c-.262,.088-.403,.371-.316,.633,.07,.209,.265,.342,.474,.342,.052,0,.105-.008,.158-.025l3.342-1.114v7.639c0,1.93,1.57,3.5,3.5,3.5h2c5.79,0,10.5-4.71,10.5-10.5,0-.276-.224-.5-.5-.5Z"/></svg>
