<?xml version="1.0" encoding="UTF-8"?>
<svg xmlns="http://www.w3.org/2000/svg" id="Layer_1" data-name="Layer 1" viewBox="0 0 24 24" width="512" height="512"><path d="M19.5,0H4.5C2.019,0,0,2.019,0,4.5v15c0,2.481,2.019,4.5,4.5,4.5h15c2.481,0,4.5-2.019,4.5-4.5V4.5c0-2.481-2.019-4.5-4.5-4.5Zm3.5,15h-2v-2h2v2Zm0-8h-2v-2h2v2ZM17,1h2V3h-2V1Zm-8,0h2V3h-2V1Zm-6,.338v1.662H1.338c.346-.726,.935-1.316,1.662-1.662ZM1,17H3v2H1v-2Zm0-8H3v2H1v-2Zm6,14h-2v-2h2v2Zm8,0h-2v-2h2v2Zm1,0v-2.5c0-.276-.224-.5-.5-.5h-3c-.276,0-.5,.224-.5,.5v2.5h-4v-2.5c0-.276-.224-.5-.5-.5h-3c-.276,0-.5,.224-.5,.5v2.464c-1.53-.22-2.744-1.434-2.964-2.964H3.5c.276,0,.5-.224,.5-.5v-3c0-.276-.224-.5-.5-.5H1v-4H3.5c.276,0,.5-.224,.5-.5v-3c0-.276-.224-.5-.5-.5H1v-3.5c0-.17,.012-.337,.036-.5H3.5c.276,0,.5-.224,.5-.5V1.036c.163-.023,.33-.036,.5-.036h3.5V3.5c0,.276,.224,.5,.5,.5h3c.276,0,.5-.224,.5-.5V1h4V3.5c0,.276,.224,.5,.5,.5h3c.276,0,.5-.224,.5-.5V1.036c1.53,.22,2.744,1.434,2.964,2.964h-2.464c-.276,0-.5,.224-.5,.5v3c0,.276,.224,.5,.5,.5h2.5v4h-2.5c-.276,0-.5,.224-.5,.5v3c0,.276,.224,.5,.5,.5h2.5v3.5c0,.17-.012,.337-.036,.5h-2.464c-.276,0-.5,.224-.5,.5v2.464c-.163,.023-.33,.036-.5,.036h-3.5Zm5-.338v-1.662h1.662c-.346,.726-.935,1.316-1.662,1.662ZM4.5,8h3c.276,0,.5-.224,.5-.5v-3c0-.276-.224-.5-.5-.5h-3c-.276,0-.5,.224-.5,.5v3c0,.276,.224,.5,.5,.5Zm.5-3h2v2h-2v-2Zm7.5,3h3c.276,0,.5-.224,.5-.5v-3c0-.276-.224-.5-.5-.5h-3c-.276,0-.5,.224-.5,.5v3c0,.276,.224,.5,.5,.5Zm.5-3h2v2h-2v-2Zm-5,6.5c0,.276,.224,.5,.5,.5h3c.276,0,.5-.224,.5-.5v-3c0-.276-.224-.5-.5-.5h-3c-.276,0-.5,.224-.5,.5v3Zm1-2.5h2v2h-2v-2Zm-1,3.5c0-.276-.224-.5-.5-.5h-3c-.276,0-.5,.224-.5,.5v3c0,.276,.224,.5,.5,.5h3c.276,0,.5-.224,.5-.5v-3Zm-1,2.5h-2v-2h2v2Zm9-2.5c0-.276-.224-.5-.5-.5h-3c-.276,0-.5,.224-.5,.5v3c0,.276,.224,.5,.5,.5h3c.276,0,.5-.224,.5-.5v-3Zm-1,2.5h-2v-2h2v2Zm1-3.5c0,.276,.224,.5,.5,.5h3c.276,0,.5-.224,.5-.5v-3c0-.276-.224-.5-.5-.5h-3c-.276,0-.5,.224-.5,.5v3Zm1-2.5h2v2h-2v-2Zm-5.5,7h-3c-.276,0-.5,.224-.5,.5v3c0,.276,.224,.5,.5,.5h3c.276,0,.5-.224,.5-.5v-3c0-.276-.224-.5-.5-.5Zm-.5,3h-2v-2h2v2Zm9,.5v-3c0-.276-.224-.5-.5-.5h-3c-.276,0-.5,.224-.5,.5v3c0,.276,.224,.5,.5,.5h3c.276,0,.5-.224,.5-.5Zm-1-.5h-2v-2h2v2Z"/></svg>
