<?xml version="1.0" encoding="UTF-8"?>
<svg xmlns="http://www.w3.org/2000/svg" id="Layer_1" data-name="Layer 1" viewBox="0 0 24 24" width="512" height="512"><path d="M23.854,23.146l-6.449-6.449c1.607-1.775,2.596-4.12,2.596-6.697C20,4.486,15.514,0,10,0S0,4.486,0,10s4.486,10,10,10c2.577,0,4.922-.989,6.697-2.596l6.449,6.449c.098,.098,.226,.146,.354,.146s.256-.049,.354-.146c.195-.195,.195-.512,0-.707ZM1,10C1,5.037,5.038,1,10,1s9,4.037,9,9-4.037,9-9,9S1,14.963,1,10Zm13,2.374c0,1.448-1.178,2.626-2.626,2.626h-.874v1.5c0,.276-.224,.5-.5,.5s-.5-.224-.5-.5v-1.5h-.926c-.979,0-1.891-.526-2.381-1.375-.139-.238-.057-.545,.182-.683,.239-.14,.545-.057,.683,.183,.312,.54,.894,.875,1.516,.875h2.8c.896,0,1.626-.729,1.626-1.626,0-.803-.575-1.479-1.368-1.604l-3.423-.552c-1.28-.204-2.209-1.295-2.209-2.592,0-1.448,1.178-2.626,2.626-2.626h.874v-1.5c0-.276,.224-.5,.5-.5s.5,.224,.5,.5v1.5h.926c.979,0,1.891,.526,2.381,1.375,.139,.238,.057,.545-.183,.683-.237,.138-.544,.057-.683-.183-.312-.54-.894-.875-1.516-.875h-2.8c-.896,0-1.626,.729-1.626,1.626,0,.803,.575,1.479,1.368,1.604l3.423,.552c1.279,.204,2.209,1.295,2.209,2.592Z"/></svg>
