<?xml version="1.0" encoding="UTF-8"?>
<svg xmlns="http://www.w3.org/2000/svg" id="Layer_1" data-name="Layer 1" viewBox="0 0 24 24" width="512" height="512"><path d="M14.881,17c-.128,0-.256-.049-.354-.146-.195-.195-.195-.512,0-.707l3.035-3.036c.585-.585,.585-1.536,0-2.121l-3.136-3.136c-.195-.195-.195-.512,0-.707s.512-.195,.707,0l3.136,3.136c.975,.975,.975,2.561,0,3.535l-3.035,3.036c-.098,.098-.226,.146-.354,.146Zm9.119,2.318v-6.963C24,5.868,19.097,.454,12.837,.028,9.358-.208,5.96,1.065,3.508,3.521S-.211,9.378,.029,12.855c.441,6.354,6.074,11.145,13.104,11.145h6.186c2.582,0,4.682-2.1,4.682-4.682ZM12.77,1.026c5.737,.39,10.23,5.366,10.23,11.329v6.963c0,2.03-1.651,3.682-3.682,3.682h-6.186c-6.604,0-11.695-4.296-12.105-10.214-.221-3.188,.941-6.307,3.188-8.558,2.071-2.073,4.878-3.227,7.8-3.227,.25,0,.502,.009,.753,.026Zm-3.297,15.827c.195-.195,.195-.512,0-.707l-3.036-3.036c-.585-.585-.585-1.536,0-2.121l3.136-3.136c.195-.195,.195-.512,0-.707s-.512-.195-.707,0l-3.136,3.136c-.975,.975-.975,2.561,0,3.535l3.036,3.036c.098,.098,.226,.146,.354,.146s.256-.049,.354-.146Z"/></svg>
