<?xml version="1.0" encoding="UTF-8"?>
<svg xmlns="http://www.w3.org/2000/svg" id="Layer_1" data-name="Layer 1" viewBox="0 0 24 24" width="512" height="512"><path d="M21.76,18.63c-1.71,3.31-5.09,5.37-8.81,5.37h-1.05c-5.46,0-9.91-4.45-9.91-9.91v-4.18C2,4.45,6.45,0,11.91,0h1.05c3.79,0,7.19,2.11,8.88,5.5,.12,.25,.02,.55-.23,.67-.25,.13-.55,.02-.67-.22-1.52-3.05-4.58-4.95-7.98-4.95h-1.05C7,1,3,5,3,9.91v4.18c0,4.26,3,7.83,7,8.7V11.5c0-.28,.22-.5,.5-.5s.5,.22,.5,.5v2c1.03-1.51,2.77-2.5,4.73-2.5h1.77c.28,0,.5,.22,.5,.5s-.22,.5-.5,.5h-1.77c-2.61,0-4.73,2.12-4.73,4.73v6.23c.3,.03,.6,.05,.91,.05h1.05c3.35,0,6.38-1.85,7.92-4.82,.13-.25,.43-.34,.67-.21,.25,.13,.34,.43,.21,.67Z"/></svg>
