<?xml version="1.0" encoding="UTF-8"?>
<svg xmlns="http://www.w3.org/2000/svg" id="Layer_1" data-name="Layer 1" viewBox="0 0 24 24" width="512" height="512"><path d="m19.5,0H4.5C2.019,0,0,2.019,0,4.5v15c0,2.481,2.019,4.5,4.5,4.5h11.843c1.184,0,2.344-.48,3.182-1.318l3.157-3.156c.85-.85,1.318-1.98,1.318-3.183V4.5c0-2.481-2.019-4.5-4.5-4.5ZM1,19.5V4.5c0-1.93,1.57-3.5,3.5-3.5h15c1.93,0,3.5,1.57,3.5,3.5v11.5h-4.5c-1.378,0-2.5,1.121-2.5,2.5v4.5H4.5c-1.93,0-3.5-1.57-3.5-3.5Zm20.975-.682l-3.157,3.156c-.495.495-1.135.83-1.818.962v-4.436c0-.827.673-1.5,1.5-1.5h4.439c-.129.685-.46,1.315-.964,1.818ZM4,6c0-.552.448-1,1-1s1,.448,1,1-.448,1-1,1-1-.448-1-1Zm2,6c0,.552-.448,1-1,1s-1-.448-1-1,.448-1,1-1,1,.448,1,1Zm0,6c0,.552-.448,1-1,1s-1-.448-1-1,.448-1,1-1,1,.448,1,1Z"/></svg>
