<?xml version="1.0" encoding="UTF-8"?>
<svg xmlns="http://www.w3.org/2000/svg" id="Layer_1" data-name="Layer 1" width="512" height="512" viewBox="0 0 24 24"><path d="M11.488,23.998c-.456,0-.917-.047-1.376-.142-2.466-.512-4.464-2.517-4.972-4.988-.461-2.245,.232-4.489,1.859-6.049V4.5C7,2.019,9.019,0,11.5,0s4.5,2.019,4.5,4.5V12.819c1.273,1.225,2,2.918,2,4.681,0,1.964-.875,3.803-2.4,5.044-1.168,.951-2.616,1.454-4.111,1.454Zm.012-22.998c-1.93,0-3.5,1.57-3.5,3.5V13.037c0,.142-.061,.277-.166,.372-1.478,1.325-2.118,3.29-1.714,5.258,.429,2.086,2.114,3.778,4.195,4.21,1.664,.349,3.362-.057,4.653-1.108s2.031-2.606,2.031-4.269c0-1.554-.668-3.045-1.834-4.091-.105-.095-.166-.23-.166-.372V4.5c0-1.93-1.57-3.5-3.5-3.5Zm0,19c-1.379,0-2.5-1.122-2.5-2.5,0-1.208,.86-2.217,2-2.45v-3.55c0-.276,.224-.5,.5-.5s.5,.224,.5,.5v3.55c1.14,.232,2,1.242,2,2.45,0,1.378-1.121,2.5-2.5,2.5Zm0-4c-.827,0-1.5,.673-1.5,1.5s.673,1.5,1.5,1.5,1.5-.673,1.5-1.5-.673-1.5-1.5-1.5ZM21.5,5c-1.379,0-2.5-1.122-2.5-2.5s1.121-2.5,2.5-2.5,2.5,1.122,2.5,2.5-1.121,2.5-2.5,2.5Zm0-4c-.827,0-1.5,.673-1.5,1.5s.673,1.5,1.5,1.5,1.5-.673,1.5-1.5-.673-1.5-1.5-1.5Z"/></svg>
