<?xml version="1.0" encoding="UTF-8"?>
<svg xmlns="http://www.w3.org/2000/svg" id="Layer_1" data-name="Layer 1" viewBox="0 0 24 24" width="512" height="512"><path d="M16.966,.683L7.966,23.683c-.078,.197-.266,.317-.466,.317-.061,0-.123-.011-.182-.034-.257-.101-.384-.391-.284-.648L16.034,.317c.101-.257,.392-.385,.648-.283,.257,.101,.384,.391,.284,.648Zm6.705,18.287c-.056,.021-.114,.03-.17,.03-.205,0-.396-.126-.47-.329l-1.331-3.671h-6.199c-.02,0-.039-.004-.059-.006l-1.333,3.677c-.094,.259-.381,.393-.641,.299-.26-.094-.394-.381-.3-.641l4.156-11.462c.191-.526,.68-.867,1.246-.867s1.054,.341,1.245,.867l4.156,11.462c.094,.26-.04,.547-.3,.641Zm-2.334-4.97l-2.462-6.791c-.068-.188-.236-.209-.305-.209-.069,0-.237,.021-.305,.209l-2.462,6.791h5.534ZM10.532,6.03c-.26-.094-.546,.04-.641,.299l-4.156,11.462c-.068,.188-.236,.209-.305,.209-.069,0-.236-.021-.305-.209L.97,6.329c-.094-.259-.381-.392-.641-.299-.26,.094-.394,.381-.3,.641l4.156,11.462c.191,.526,.68,.867,1.245,.867s1.054-.341,1.246-.867L10.832,6.671c.094-.26-.04-.547-.3-.641Z"/></svg>
