<?xml version="1.0" encoding="UTF-8"?>
<svg xmlns="http://www.w3.org/2000/svg" id="Layer_1" data-name="Layer 1" viewBox="0 0 24 24">
  <path d="m22.914,3.05c-.63-.169-1.27.096-1.592.655-2.474,4.312-6.219,6.145-8.322,6.87v-1.075c0-.276-.224-.5-.5-.5s-.5.224-.5.5v1.378c-.28.072-.47.109-.543.122h-2.457v-1.5c0-.276-.224-.5-.5-.5s-.5.224-.5.5v1.5h-3v-1.5c0-.276-.224-.5-.5-.5s-.5.224-.5.5v1.5H.5c-.276,0-.5.224-.5.5s.224.5.5.5h3.175c-1.021.826-1.675,2.088-1.675,3.5,0,2.481,2.019,4.5,4.5,4.5h4c2.481,0,4.5-2.019,4.5-4.5,0-.978-.314-1.883-.845-2.622,2.145.942,5.105,2.817,7.183,6.43.256.445.714.702,1.207.702.125,0,.251-.017.377-.05.645-.173,1.078-.733,1.078-1.395V4.453c0-.666-.437-1.23-1.086-1.403Zm-12.414,15.95h-4c-1.93,0-3.5-1.57-3.5-3.5s1.57-3.5,3.5-3.5h4c1.93,0,3.5,1.57,3.5,3.5s-1.57,3.5-3.5,3.5Zm12.5-.435c0,.249-.174.385-.336.428-.091.023-.321.056-.459-.184-2.63-4.574-6.503-6.521-8.778-7.31,2.274-.787,6.144-2.732,8.763-7.297.141-.243.374-.212.467-.188.166.044.344.183.344.438v14.112Z"/>
</svg>
