<?xml version="1.0" encoding="UTF-8"?>
<svg xmlns="http://www.w3.org/2000/svg" id="Layer_1" data-name="Layer 1" viewBox="0 0 24 24" width="512" height="512"><path d="M18.383,10.367l-6.383-1.276V2.607C12,1.333,11.104,.228,9.916,.034c-.732-.116-1.475,.085-2.035,.562-.56,.476-.881,1.17-.881,1.906l.004,1.499H3.5c-.215,0-.406,.138-.474,.342-.068,.204,.002,.429,.174,.558l1.466,1.1-1.466,1.1c-.172,.129-.243,.354-.174,.558,.068,.204,.259,.342,.474,.342h3.507l.01,2.985L2.927,15.048c-.596,.592-.925,1.381-.927,2.222-.001,.84,.325,1.63,.919,2.225l2.308,2.308c1.416,1.417,3.299,2.197,5.303,2.197h6.969c2.481,0,4.5-2.019,4.5-4.5v-4.721c0-2.138-1.521-3.993-3.617-4.413ZM8,2.5c0-.44,.193-.857,.529-1.143,.341-.29,.779-.407,1.227-.336,.709,.115,1.245,.797,1.245,1.586v1.393h-2.996l-.004-1.5Zm-2.2,3.1l-.8-.6h6v2H5l.8-.6c.126-.094,.2-.243,.2-.4s-.074-.306-.2-.4Zm15.2,13.9c0,1.93-1.57,3.5-3.5,3.5h-6.969c-1.737,0-3.369-.676-4.596-1.904l-2.308-2.308c-.405-.405-.627-.943-.626-1.516s.225-1.111,.632-1.514l3.39-3.367,.017,5.111c0,.276,.225,.499,.5,.499h.001c.276,0,.5-.226,.499-.501l-.032-9.499h2.993v1.5c0,.238,.168,.443,.402,.49l6.785,1.357c1.63,.326,2.813,1.77,2.813,3.432v4.721Z"/></svg>
