<?xml version="1.0" encoding="UTF-8"?>
<svg xmlns="http://www.w3.org/2000/svg" id="Layer_1" data-name="Layer 1" viewBox="0 0 24 24" width="512" height="512"><path d="M8.5,12c1.671,0,4.5-.316,4.5-1.5s-2.829-1.5-4.5-1.5-4.5,.316-4.5,1.5,2.829,1.5,4.5,1.5Zm0-2c1.696,0,2.849,.279,3.322,.5-.474,.221-1.626,.5-3.322,.5s-2.849-.279-3.322-.5c.474-.221,1.626-.5,3.322-.5Zm15.5-5.5c0-2.523-3.733-4.5-8.5-4.5S7,1.977,7,4.5v1.567C2.973,6.432,0,8.248,0,10.5v8.875c0,2.594,3.733,4.625,8.5,4.625s8.5-2.031,8.5-4.625v-1.445c4.084-.383,7-2.26,7-4.555V4.5ZM15.5,1c4.065,0,7.5,1.603,7.5,3.5,0,1.881-3.375,3.471-7.393,3.499-1.462-1.177-3.949-1.952-6.841-1.997-.508-.48-.766-.985-.766-1.502,0-1.897,3.435-3.5,7.5-3.5Zm-7,6c4.065,0,7.5,1.603,7.5,3.5s-3.435,3.5-7.5,3.5-7.5-1.603-7.5-3.5,3.435-3.5,7.5-3.5Zm0,16c-4.065,0-7.5-1.66-7.5-3.625v-6.725c1.419,1.41,4.214,2.35,7.5,2.35s6.081-.939,7.5-2.35v6.725c0,1.965-3.435,3.625-7.5,3.625Zm14.5-9.625c0,1.692-2.595,3.203-6,3.55v-6.425c0-.54-.171-1.055-.487-1.531,2.842-.171,5.216-1.056,6.487-2.319v6.725Zm-7.5-7.375c1.671,0,4.5-.316,4.5-1.5s-2.829-1.5-4.5-1.5-4.5,.316-4.5,1.5,2.829,1.5,4.5,1.5Zm0-2c1.696,0,2.849,.279,3.322,.5-.474,.221-1.626,.5-3.322,.5s-2.849-.279-3.322-.5c.474-.221,1.626-.5,3.322-.5Z"/></svg>
