<?xml version="1.0" encoding="UTF-8"?>
<svg xmlns="http://www.w3.org/2000/svg" id="Layer_1" data-name="Layer 1" viewBox="0 0 24 24" width="512" height="512"><path d="M23.951,22.013c-.604,1.258-1.859,1.986-3.199,1.986-.519,0-1.05-.109-1.562-.339L.28,14.398c-.248-.122-.351-.421-.229-.669,.123-.247,.422-.35,.669-.229l10.361,5.075,1.853-3.739c.124-.231,.062-.505-.137-.652l-2.018-1.445c-1.018-.957-.998-2.337-.003-3.401l.368-.358-5.777-2.744-.596,1.258c-.085,.18-.265,.286-.452,.286-.072,0-.145-.016-.214-.048-.25-.118-.356-.417-.237-.666l.597-1.258-1.152-.547c-.25-.119-.356-.417-.237-.666,.118-.249,.416-.355,.666-.237l1.152,.547,.586-1.235c.118-.249,.417-.355,.666-.237,.25,.118,.356,.417,.237,.666l-.586,1.235,6.112,2.903,1.497-1.459c.476-.51,1.175-.796,1.892-.774,.57,.019,1.086,.228,1.535,.623,.719,.523,1.169,1.411,1.169,2.346v1.44c0,.59,.348,1.127,.886,1.369l2.819,1.266c.252,.113,.365,.409,.251,.661-.112,.252-.407,.366-.661,.251l-2.819-1.266c-.897-.403-1.476-1.298-1.476-2.281v-1.44c0-.617-.297-1.203-.795-1.566-.309-.269-.605-.392-.941-.403-.44-.02-.85,.159-1.145,.475l-1.249,1.217,1.837,.872c.25,.119,.356,.417,.237,.666-.085,.18-.265,.286-.452,.286-.072,0-.145-.016-.214-.048l-2.171-1.031-.616,.601c-.45,.481-.754,1.291-.077,1.931l1.971,1.406c.601,.444,.787,1.267,.438,1.919l-1.843,3.721,7.635,3.74c1.318,.592,2.833,.079,3.435-1.174,.119-.249,.417-.354,.667-.234,.249,.119,.354,.418,.234,.667ZM16,2.5c0-1.378,1.122-2.5,2.5-2.5s2.5,1.122,2.5,2.5-1.122,2.5-2.5,2.5-2.5-1.122-2.5-2.5Zm1,0c0,.827,.673,1.5,1.5,1.5s1.5-.673,1.5-1.5-.673-1.5-1.5-1.5-1.5,.673-1.5,1.5Z"/></svg>
