<?xml version="1.0" encoding="UTF-8"?>
<svg xmlns="http://www.w3.org/2000/svg" id="Layer_1" data-name="Layer 1" width="512" height="512" viewBox="0 0 24 24"><path d="M23.5,17.5h-1.028c-.096-.867-.44-1.66-.958-2.307l.728-.728c.195-.195,.195-.512,0-.707s-.512-.195-.707,0l-.728,.728c-.647-.518-1.441-.862-2.307-.958v-1.028c0-.276-.224-.5-.5-.5s-.5,.224-.5,.5v1.028c-.867,.096-1.66,.44-2.307,.958l-.728-.728c-.195-.195-.512-.195-.707,0s-.195,.512,0,.707l.728,.728c-.518,.647-.862,1.441-.958,2.307h-3.056c-.096-.867-.44-1.66-.958-2.307l.728-.728c.195-.195,.195-.512,0-.707s-.512-.195-.707,0l-.728,.728c-.647-.518-1.441-.862-2.307-.958v-1.028c0-.276-.224-.5-.5-.5s-.5,.224-.5,.5v1.028c-.867,.096-1.66,.44-2.307,.958l-.728-.728c-.195-.195-.512-.195-.707,0s-.195,.512,0,.707l.728,.728c-.518,.647-.862,1.441-.958,2.307H.5c-.276,0-.5,.224-.5,.5s.224,.5,.5,.5H1.528c.096,.867,.44,1.66,.958,2.307l-.728,.728c-.195,.195-.195,.512,0,.707,.098,.098,.226,.146,.354,.146s.256-.049,.354-.146l.728-.728c.647,.518,1.441,.862,2.307,.958v1.028c0,.276,.224,.5,.5,.5s.5-.224,.5-.5v-1.028c.867-.096,1.66-.44,2.307-.958l.728,.728c.098,.098,.226,.146,.354,.146s.256-.049,.354-.146c.195-.195,.195-.512,0-.707l-.728-.728c.518-.647,.862-1.441,.958-2.307h3.056c.096,.867,.44,1.66,.958,2.307l-.728,.728c-.195,.195-.195,.512,0,.707,.098,.098,.226,.146,.354,.146s.256-.049,.354-.146l.728-.728c.647,.518,1.441,.862,2.307,.958v1.028c0,.276,.224,.5,.5,.5s.5-.224,.5-.5v-1.028c.867-.096,1.66-.44,2.307-.958l.728,.728c.098,.098,.226,.146,.354,.146s.256-.049,.354-.146c.195-.195,.195-.512,0-.707l-.728-.728c.518-.647,.862-1.441,.958-2.307h1.028c.276,0,.5-.224,.5-.5s-.224-.5-.5-.5ZM6,21.5c-1.93,0-3.5-1.57-3.5-3.5s1.57-3.5,3.5-3.5,3.5,1.57,3.5,3.5-1.57,3.5-3.5,3.5Zm12,0c-1.93,0-3.5-1.57-3.5-3.5s1.57-3.5,3.5-3.5,3.5,1.57,3.5,3.5-1.57,3.5-3.5,3.5Zm3.322-13.402L16.521,1.778c-.846-1.114-2.185-1.778-3.583-1.778h-.438c-1.378,0-2.5,1.122-2.5,2.5v5.5H3.5c-1.93,0-3.5,1.57-3.5,3.5v1c0,.276,.224,.5,.5,.5s.5-.224,.5-.5v-1c0-1.378,1.122-2.5,2.5-2.5H20.5c1.378,0,2.5,1.122,2.5,2.5v1c0,.276,.224,.5,.5,.5s.5-.224,.5-.5v-1c0-1.647-1.143-3.031-2.678-3.402ZM11,2.5c0-.827,.673-1.5,1.5-1.5h.438c1.087,0,2.129,.517,2.787,1.383l4.267,5.617H11V2.5Z"/></svg>
