<?xml version="1.0" encoding="UTF-8"?>
<svg xmlns="http://www.w3.org/2000/svg" id="Layer_1" data-name="Layer 1" viewBox="0 0 24 24">
  <path d="m19.5,2H4.5C2.019,2,0,4.019,0,6.5v11c0,2.481,2.019,4.5,4.5,4.5h15c2.481,0,4.5-2.019,4.5-4.5V6.5c0-2.481-2.019-4.5-4.5-4.5Zm3.5,15.5c0,1.93-1.57,3.5-3.5,3.5H4.5c-1.93,0-3.5-1.57-3.5-3.5V6.5c0-1.93,1.57-3.5,3.5-3.5h15c1.93,0,3.5,1.57,3.5,3.5v11ZM13,7.5v9c0,.276-.224.5-.5.5s-.5-.224-.5-.5V7.5c0-.276.224-.5.5-.5s.5.224.5.5Zm7,0c0,.276-.224.5-.5.5h-2.5c-.552,0-1,.449-1,1v2h2.5c.276,0,.5.224.5.5s-.224.5-.5.5h-2.5v4.5c0,.276-.224.5-.5.5s-.5-.224-.5-.5v-7.5c0-1.103.897-2,2-2h2.5c.276,0,.5.224.5.5Zm-15,2.5v4c0,1.103.897,2,2,2s2-.897,2-2v-.5c0-.276-.225-.5-.5-.5h-1c-.276,0-.5-.224-.5-.5s.224-.5.5-.5h1c.827,0,1.5.673,1.5,1.5v.5c0,1.654-1.346,3-3,3s-3-1.346-3-3v-4c0-1.654,1.346-3,3-3s3,1.346,3,3c0,.276-.224.5-.5.5s-.5-.224-.5-.5c0-1.103-.897-2-2-2s-2,.897-2,2Z"/>
</svg>
