<?xml version="1.0" encoding="UTF-8"?>
<svg xmlns="http://www.w3.org/2000/svg" id="Layer_1" data-name="Layer 1" viewBox="0 0 24 24" width="512" height="512"><path d="m19.776,3.208c-2.076-2.068-4.838-3.208-7.776-3.208s-5.701,1.14-7.777,3.208c-2.078,2.069-3.223,4.82-3.223,7.747s1.145,5.677,3.236,7.76l4.151,3.819c.972.945,2.254,1.466,3.612,1.466s2.64-.521,3.602-1.456l4.175-3.843c2.078-2.069,3.223-4.82,3.223-7.746s-1.145-5.678-3.223-7.747Zm-.691,14.771l-4.171,3.839c-1.568,1.525-4.251,1.535-5.839-.01l-4.147-3.815c-1.888-1.88-2.928-4.379-2.928-7.037s1.04-5.158,2.928-7.038c1.889-1.881,4.4-2.917,7.072-2.917s5.183,1.036,7.071,2.917c1.888,1.88,2.928,4.379,2.928,7.038s-1.04,5.157-2.914,7.023Zm-7.585-5.479v-7c0-.276.224-.5.5-.5s.5.224.5.5v7c0,.276-.224.5-.5.5s-.5-.224-.5-.5Zm1.5,3.5c0,.552-.448,1-1,1s-1-.448-1-1,.448-1,1-1,1,.448,1,1Z"/></svg>
