<?xml version="1.0" encoding="UTF-8"?>
<svg xmlns="http://www.w3.org/2000/svg" id="Layer_1" data-name="Layer 1" viewBox="0 0 24 24" width="512" height="512"><path d="m15.814,15.031c1.62-.882,2.902-2.308,3.602-4.031h.584c.552,0,1-.448,1-1v-4c0-.552-.448-1-1-1h-.584c-1.189-2.929-4.065-5-7.416-5s-6.227,2.071-7.416,5h-.584c-.552,0-1,.448-1,1v4c0,.552.448,1,1,1h.584c.699,1.723,1.982,3.149,3.602,4.031-3.465.327-6.186,3.253-6.186,6.802v1.667c0,.276.224.5.5.5s.5-.224.5-.5v-1.667c0-3.217,2.616-5.833,5.833-5.833h6.334c3.217,0,5.833,2.616,5.833,5.833v1.667c0,.276.224.5.5.5s.5-.224.5-.5v-1.667c0-3.549-2.721-6.475-6.186-6.802Zm-10.814-7.031c0-3.859,3.141-7,7-7s7,3.141,7,7-3.141,7-7,7-7-3.141-7-7Zm13,13.5v2c0,.276-.224.5-.5.5s-.5-.224-.5-.5v-2c0-.827-.673-1.5-1.5-1.5h-7c-.827,0-1.5.673-1.5,1.5v2c0,.276-.224.5-.5.5s-.5-.224-.5-.5v-2c0-1.379,1.121-2.5,2.5-2.5h7c1.379,0,2.5,1.121,2.5,2.5Zm-.5-14c0-.604-.477-1.5-1.5-1.5h-7.899c-1.03,0-1.601.887-1.601,1.5,0,3.032,2.468,5.5,5.5,5.5s5.5-2.468,5.5-5.5Zm-10,0c0-.088.158-.5.601-.5h7.899c.447,0,.5.495.5.5,0,2.481-2.019,4.5-4.5,4.5s-4.5-2.019-4.5-4.5Z"/></svg>
