<?xml version="1.0" encoding="UTF-8"?>
<svg xmlns="http://www.w3.org/2000/svg" id="Layer_1" data-name="Layer 1" viewBox="0 0 24 24" width="512" height="512"><path d="M20.181,3.321C17.857,1.076,14.825-.116,11.629,.009,5.309,.225,.094,5.542,.003,11.862c-.045,3.103,1.133,6.031,3.314,8.245,2.475,2.51,5.96,3.893,9.815,3.893h6.367c2.481,0,4.5-2.019,4.5-4.5v-7.145c0-3.396-1.393-6.688-3.819-9.034Zm2.819,16.179c0,1.93-1.57,3.5-3.5,3.5h-6.367c-3.585,0-6.818-1.276-9.103-3.595-1.993-2.022-3.068-4.696-3.027-7.528C1.086,6.082,5.868,1.206,11.662,1.008c.125-.004,.248-.006,.372-.006,2.781,0,5.415,1.071,7.451,3.039,2.233,2.158,3.515,5.189,3.515,8.315v7.145Zm-6.146-9.735c.195,.195,.195,.512,0,.707s-.512,.195-.707,0l-3.035-3.035c-.177-.177-.388-.3-.611-.37v10.433c0,.276-.224,.5-.5,.5s-.5-.224-.5-.5V7.103c-.186,.073-.36,.184-.511,.334l-3.136,3.136c-.098,.098-.226,.146-.354,.146s-.256-.049-.354-.146c-.195-.195-.195-.512,0-.707l3.136-3.136c.974-.974,2.561-.976,3.536,0l3.035,3.035Z"/></svg>
