<?xml version="1.0" encoding="UTF-8"?>
<svg xmlns="http://www.w3.org/2000/svg" id="Layer_1" data-name="Layer 1" viewBox="0 0 24 24" width="512" height="512"><path d="m12,0C5.383,0,0,5.383,0,12s5.383,12,12,12,12-5.383,12-12S18.617,0,12,0Zm0,23c-6.065,0-11-4.935-11-11S5.935,1,12,1s11,4.935,11,11-4.935,11-11,11Zm4-15.95v-1.55c0-.276-.224-.5-.5-.5s-.5.224-.5.5v1.5h-6v-1.5c0-.276-.224-.5-.5-.5s-.5.224-.5.5v1.55c-1.14.232-2,1.242-2,2.45v5c0,1.379,1.121,2.5,2.5,2.5h7c1.379,0,2.5-1.121,2.5-2.5v-5c0-1.208-.86-2.218-2-2.45Zm-7.5.95h7c.827,0,1.5.673,1.5,1.5v.5H7v-.5c0-.827.673-1.5,1.5-1.5Zm7,8h-7c-.827,0-1.5-.673-1.5-1.5v-3.5h10v3.5c0,.827-.673,1.5-1.5,1.5Z"/></svg>
