<?xml version="1.0" encoding="UTF-8"?>
<svg xmlns="http://www.w3.org/2000/svg" id="Layer_1" data-name="Layer 1" viewBox="0 0 24 24" width="512" height="512"><path d="m20.109,12l2.391-4.099c.352-.604.354-1.327.006-1.933-.349-.606-.974-.968-1.673-.968h-4.809L13.666.957c-.35-.599-.973-.957-1.666-.957s-1.317.358-1.667.957l-2.358,4.043H3.168c-.699,0-1.324.362-1.672.968-.349.606-.346,1.329.006,1.934l2.391,4.099-2.391,4.099c-.352.604-.354,1.327-.006,1.934.348.606.973.968,1.672.968h4.807l2.358,4.043h0c.35.599.973.957,1.667.957s1.316-.358,1.666-.957l2.359-4.043h4.809c.699,0,1.324-.362,1.673-.968.348-.606.346-1.329-.007-1.933l-2.391-4.098Zm.725-6c.337,0,.638.174.806.466.167.292.167.64-.003.931l-2.106,3.611-2.922-5.008h4.225ZM11.197,1.461c.337-.576,1.269-.577,1.605,0l2.065,3.539h-5.734l2.064-3.539ZM2.366,7.397c-.17-.291-.171-.639-.003-.931.168-.292.469-.466.806-.466h4.224l-2.921,5.007-2.105-3.61Zm.802,10.603c-.337,0-.638-.174-.806-.466-.167-.292-.167-.64.003-.931l2.105-3.61,2.92,5.007H3.168Zm9.635,4.539c-.337.577-1.269.577-1.605,0l-2.064-3.539h5.734l-2.065,3.539Zm2.648-4.539h-6.901l-3.5-6,3.5-6h6.901l3.5,6-3.5,6Zm6.188-.466c-.168.292-.469.466-.806.466h-4.225l2.922-5.008,2.106,3.61c.17.291.171.639.003.931Z"/></svg>
