<?xml version="1.0" encoding="UTF-8"?>
<svg xmlns="http://www.w3.org/2000/svg" id="Layer_1" data-name="Layer 1" viewBox="0 0 24 24">
  <path d="m17.5,11c-3.584,0-6.5,2.916-6.5,6.5s2.916,6.5,6.5,6.5,6.5-2.916,6.5-6.5-2.916-6.5-6.5-6.5Zm0,12c-3.032,0-5.5-2.468-5.5-5.5s2.468-5.5,5.5-5.5,5.5,2.468,5.5,5.5-2.468,5.5-5.5,5.5Zm1.354-4.854c.195.195.195.512,0,.707-.098.098-.226.146-.354.146s-.256-.049-.354-.146l-1-1c-.094-.094-.146-.221-.146-.354v-2c0-.276.224-.5.5-.5s.5.224.5.5v1.793l.854.854Zm-8.354,4.854h-2.626c-1.817,0-3.315-1.364-3.484-3.174l-1.387-14.826h15.995l-.318,3.454c-.025.275.177.519.452.544.016,0,.031.002.047.002.255,0,.473-.194.497-.454l.322-3.5c.001-.015.002-.031.002-.046h1.5c.276,0,.5-.224.5-.5s-.224-.5-.5-.5h-5.028c-.25-2.247-2.16-4-4.472-4h-2c-2.312,0-4.223,1.753-4.472,4H.5c-.276,0-.5.224-.5.5s.224.5.5.5h1.5c0,.016,0,.031.002.047l1.392,14.873c.218,2.326,2.144,4.08,4.48,4.08h2.626c.276,0,.5-.224.5-.5s-.224-.5-.5-.5Zm-.5-22h2c1.76,0,3.221,1.306,3.464,3H6.536c.243-1.694,1.704-3,3.464-3Z"/>
</svg>
