<?xml version="1.0" encoding="UTF-8"?>
<svg xmlns="http://www.w3.org/2000/svg" id="Layer_1" data-name="Layer 1" width="512" height="512" viewBox="0 0 24 24"><path d="M15,6c0-.552,.448-1,1-1s1,.448,1,1-.448,1-1,1-1-.448-1-1ZM4.781,16.355c-2.626-1.787-4.057-4.83-3.735-7.942C1.424,4.756,4.337,1.683,7.972,1.105c1.131-.179,2.441-.126,3.503,.141,.249,.062,.436,.251,.501,.505,.064,.248-.006,.497-.187,.667-1.27,1.191-3.19,2.992-3.78,5.985-.053,.271,.123,.534,.394,.587,.268,.052,.534-.123,.587-.394,.487-2.472,1.926-3.988,3.483-5.449,.452-.424,.628-1.04,.471-1.646-.156-.604-.626-1.073-1.226-1.224C10.514-.026,9.092-.084,7.815,.118,3.741,.765,.476,4.21,.051,8.311c-.36,3.478,1.237,6.878,4.167,8.872,.086,.059,.184,.086,.281,.086,.16,0,.317-.077,.414-.219,.155-.228,.096-.539-.132-.695ZM20,4c.552,0,1-.448,1-1s-.448-1-1-1-1,.448-1,1,.448,1,1,1Zm2,6c.552,0,1-.448,1-1s-.448-1-1-1-1,.448-1,1,.448,1,1,1Zm-1.509,3.414c-.358-.08-.927-.21-1.184-.826-1.021-2.462-3.589-3.915-6.241-3.524-2.302,.335-4.22,2.083-4.771,4.35-.212,.87-.226,1.745-.042,2.601,.063,.294-.075,.57-.343,.685-1.08,.462-1.864,1.675-1.909,2.967,0,1.576,.88,2.782,2.354,3.225,.048,.014,.097,.021,.144,.021,.215,0,.414-.14,.479-.356,.079-.265-.071-.543-.335-.623-.494-.148-1.643-.666-1.643-2.249,.031-.886,.579-1.755,1.303-2.065,.709-.304,1.09-1.05,.926-1.814-.152-.708-.14-1.432,.036-2.155,.457-1.874,2.042-3.32,3.944-3.597,2.191-.319,4.327,.879,5.173,2.918,.456,1.094,1.434,1.315,1.846,1.408,1.956,.527,3.127,2.511,2.667,4.516-.128,.556-.397,1.087-.778,1.536-.179,.211-.153,.526,.058,.705,.21,.178,.526,.153,.705-.058,.484-.571,.826-1.248,.99-1.959,.581-2.531-.904-5.037-3.381-5.706Zm-.991,5.586c-.276,0-.5,.224-.5,.5v4c0,.276,.224,.5,.5,.5s.5-.224,.5-.5v-4c0-.276-.224-.5-.5-.5Zm-8,0c-.276,0-.5,.224-.5,.5v4c0,.276,.224,.5,.5,.5s.5-.224,.5-.5v-4c0-.276-.224-.5-.5-.5Zm4,0c-.276,0-.5,.224-.5,.5v4c0,.276,.224,.5,.5,.5s.5-.224,.5-.5v-4c0-.276-.224-.5-.5-.5Z"/></svg>
