<?xml version="1.0" encoding="UTF-8"?>
<svg xmlns="http://www.w3.org/2000/svg" id="Layer_1" data-name="Layer 1" viewBox="0 0 24 24" width="512" height="512"><path d="M16,4.5c0-.28,.22-.5,.5-.5h6c.28,0,.5,.22,.5,.5s-.22,.5-.5,.5h-6c-.28,0-.5-.22-.5-.5Zm7.56,1.9c-.26-.05-.53,.12-.59,.39l-.88,4.39c-.33,1.63-1.77,2.81-3.43,2.81H5.88l-1.25-9H13.5c.28,0,.5-.22,.5-.5s-.22-.5-.5-.5H4.49l-.26-1.84C4.06,.93,3,0,1.76,0H.5C.22,0,0,.22,0,.5s.22,.5,.5,.5H1.76c.75,0,1.38,.56,1.49,1.29l1.78,12.83c.31,2.21,2.22,3.88,4.46,3.88h10.02c.28,0,.5-.22,.5-.5s-.22-.5-.5-.5H9.48c-1.73,0-3.22-1.29-3.46-3h12.64c2.14,0,3.99-1.52,4.41-3.62l.88-4.39c.05-.27-.12-.53-.39-.59Zm-14.56,15.6c0,1.1-.9,2-2,2s-2-.9-2-2,.9-2,2-2,2,.9,2,2Zm-1,0c0-.55-.45-1-1-1s-1,.45-1,1,.45,1,1,1,1-.45,1-1Zm11,0c0,1.1-.9,2-2,2s-2-.9-2-2,.9-2,2-2,2,.9,2,2Zm-1,0c0-.55-.45-1-1-1s-1,.45-1,1,.45,1,1,1,1-.45,1-1Z"/></svg>
