<?xml version="1.0" encoding="UTF-8"?>
<svg xmlns="http://www.w3.org/2000/svg" id="Layer_1" data-name="Layer 1" width="512" height="512" viewBox="0 0 24 24"><path d="M12,20c-3.354,0-5.172-2.692-5.798-3.85-.279-.516-.237-1.145,.107-1.602,.327-.435,.865-.634,1.403-.514,.338,.074,.677,.196,1.036,.326,.789,.285,1.771,.64,3.251,.64,1.479,0,2.458-.355,3.245-.64,.358-.13,.697-.253,1.036-.327,.536-.119,1.073,.079,1.4,.511,.345,.457,.388,1.086,.11,1.604h0c-.621,1.158-2.429,3.852-5.792,3.852Zm-4.598-5c-.155,0-.249,.089-.293,.149-.087,.116-.141,.315-.027,.525,.541,1,2.102,3.326,4.918,3.326s4.375-2.325,4.911-3.324h0c.113-.212,.061-.412-.027-.528-.054-.072-.177-.182-.39-.137-.273,.06-.567,.167-.909,.29-.859,.312-1.93,.699-3.585,.7-1.656,0-2.729-.388-3.591-.7-.341-.124-.636-.23-.91-.29-.035-.007-.067-.011-.097-.011Zm2.598-4.5c0-1.652-1.069-3.5-2.5-3.5s-2.5,1.848-2.5,3.5c0,.276,.224,.5,.5,.5s.5-.224,.5-.5c0-1.215,.771-2.5,1.5-2.5s1.5,1.285,1.5,2.5c0,.276,.224,.5,.5,.5s.5-.224,.5-.5Zm9,0c0-1.652-1.069-3.5-2.5-3.5s-2.5,1.848-2.5,3.5c0,.276,.224,.5,.5,.5s.5-.224,.5-.5c0-1.215,.771-2.5,1.5-2.5s1.5,1.285,1.5,2.5c0,.276,.224,.5,.5,.5s.5-.224,.5-.5Zm2.808,7.5c-.587,0-1.138-.228-1.552-.642h0c-.776-.776-1.179-2.413-1.249-3.262-.025-.294,.079-.585,.288-.796,.208-.21,.486-.323,.798-.296,.845,.066,2.479,.465,3.267,1.253,.415,.414,.644,.965,.644,1.551s-.229,1.137-.644,1.551c-.415,.414-.966,.642-1.552,.642Zm-1.792-4c.05,.761,.428,2.131,.947,2.65h0c.451,.452,1.238,.452,1.689,0,.226-.226,.351-.525,.351-.844s-.125-.618-.351-.843c-.536-.536-1.875-.904-2.637-.963ZM2.192,17.999c-.562,0-1.124-.214-1.552-.642C.226,16.943-.002,16.393-.002,15.807s.228-1.137,.643-1.551c.79-.789,2.423-1.187,3.267-1.253,.299-.021,.588,.085,.797,.295,.209,.21,.315,.501,.29,.797-.071,.851-.474,2.487-1.249,3.262h0c-.428,.428-.99,.642-1.552,.642Zm1.805-3.987c-.774,.047-2.114,.415-2.65,.951-.226,.225-.35,.524-.35,.843s.124,.618,.35,.844c.466,.466,1.225,.466,1.69,0h0c.519-.518,.896-1.889,.96-2.638Zm19.513-2.013c.275-.012,.49-.245,.479-.521C23.714,5.042,18.447,0,12,0S.287,5.042,.011,11.479c-.012,.276,.202,.509,.478,.521,.286,.028,.51-.202,.521-.478C1.263,5.622,6.09,1,12,1s10.737,4.622,10.989,10.521c.012,.269,.233,.479,.5,.479h.021Zm-2.891,8.348c.192-.198,.187-.515-.012-.707-.197-.191-.514-.186-.707,.012-2.09,2.159-4.896,3.348-7.901,3.348s-5.811-1.189-7.902-3.348c-.192-.199-.51-.203-.707-.012-.199,.192-.204,.509-.012,.707,2.281,2.355,5.343,3.652,8.621,3.652s6.34-1.297,8.62-3.652Z"/></svg>
