<?xml version="1.0" encoding="UTF-8"?>
<svg xmlns="http://www.w3.org/2000/svg" id="Layer_1" data-name="Layer 1" viewBox="0 0 24 24" width="512" height="512"><path d="M23.5,11.5H7v-3.861c0-.524-.302-.976-.789-1.18-.485-.203-1.039-.095-1.413,.272L.38,11.092c-.245,.242-.38,.564-.38,.908s.135,.666,.38,.908l4.419,4.36c.247,.244,.575,.374,.909,.374,.169,0,.34-.033,.503-.102,.487-.204,.789-.656,.789-1.18v-3.861H23.5c.276,0,.5-.224,.5-.5s-.224-.5-.5-.5ZM6,16.361c0,.166-.122,.235-.175,.257-.055,.023-.198,.064-.324-.062L1.083,12.197c-.054-.053-.083-.123-.083-.197s.029-.144,.083-.196L5.5,7.443c.068-.067,.142-.086,.202-.086,.053,0,.098,.014,.123,.025,.053,.022,.175,.091,.175,.257v8.722Z"/></svg>
