<?xml version="1.0" encoding="UTF-8"?>
<svg xmlns="http://www.w3.org/2000/svg" id="Layer_1" data-name="Layer 1" viewBox="0 0 24 24" width="512" height="512"><path d="M20.5,15H3.5c-1.93,0-3.5-1.57-3.5-3.5V3.5C0,1.57,1.57,0,3.5,0H20.5c1.93,0,3.5,1.57,3.5,3.5V11.5c0,1.93-1.57,3.5-3.5,3.5ZM3.5,1c-1.38,0-2.5,1.12-2.5,2.5V11.5c0,1.38,1.12,2.5,2.5,2.5H20.5c1.38,0,2.5-1.12,2.5-2.5V3.5c0-1.38-1.12-2.5-2.5-2.5H3.5Zm.5,23H2c-1.1,0-2-.9-2-2v-2c0-1.1,.9-2,2-2h2c1.1,0,2,.9,2,2v2c0,1.1-.9,2-2,2Zm-2-5c-.55,0-1,.45-1,1v2c0,.55,.45,1,1,1h2c.55,0,1-.45,1-1v-2c0-.55-.45-1-1-1H2Zm20,5h-2c-1.1,0-2-.9-2-2v-2c0-1.1,.9-2,2-2h2c1.1,0,2,.9,2,2v2c0,1.1-.9,2-2,2Zm-2-5c-.55,0-1,.45-1,1v2c0,.55,.45,1,1,1h2c.55,0,1-.45,1-1v-2c0-.55-.45-1-1-1h-2Zm-7,5h-2c-1.1,0-2-.9-2-2v-2c0-1.1,.9-2,2-2h2c1.1,0,2,.9,2,2v2c0,1.1-.9,2-2,2Zm-2-5c-.55,0-1,.45-1,1v2c0,.55,.45,1,1,1h2c.55,0,1-.45,1-1v-2c0-.55-.45-1-1-1h-2Z"/></svg>
