<?xml version="1.0" encoding="UTF-8"?>
<svg xmlns="http://www.w3.org/2000/svg" id="Layer_1" data-name="Layer 1" viewBox="0 0 24 24" width="512" height="512"><path d="M23.5,12h-2.5v-1.5c0-.83-.67-1.5-1.5-1.5h-3c-.83,0-1.5,.67-1.5,1.5v1.5h-2.5c-.28,0-.5,.22-.5,.5s.22,.5,.5,.5h.5v8.5c0,1.38,1.12,2.5,2.5,2.5h5c1.38,0,2.5-1.12,2.5-2.5V13h.5c.28,0,.5-.22,.5-.5s-.22-.5-.5-.5Zm-7.5-1.5c0-.28,.22-.5,.5-.5h3c.28,0,.5,.22,.5,.5v1.5h-4v-1.5Zm6,11c0,.83-.67,1.5-1.5,1.5h-5c-.83,0-1.5-.67-1.5-1.5V13h8v8.5Zm-11.5-4.5H5.5c-.28,0-.5-.22-.5-.5v-7.79l3.85-3.85c.14-.14,.19-.36,.11-.54-.08-.19-.26-.31-.46-.31h-3c-.83,0-1.5,.67-1.5,1.5v11c0,.83,.67,1.5,1.5,1.5h5c.28,0,.5-.22,.5-.5s-.22-.5-.5-.5ZM5,5.5c0-.28,.22-.5,.5-.5h1.79l-2.29,2.29v-1.79Zm12,1v-1c0-.28-.22-.5-.5-.5h-2.17c-.4,0-.78,.16-1.06,.44l-3.83,3.83c-.28,.28-.44,.66-.44,1.06v2.17c0,.28,.22,.5,.5,.5s.5,.22,.5,.5-.22,.5-.5,.5c-.83,0-1.5-.67-1.5-1.5v-2.17c0-.67,.26-1.3,.73-1.77l3.83-3.83c.47-.47,1.1-.73,1.77-.73h2.17c.83,0,1.5,.67,1.5,1.5v1c0,.28-.22,.5-.5,.5s-.5-.22-.5-.5Zm-6,15c0,.28-.22,.5-.5,.5H4.5c-2.48,0-4.5-2.02-4.5-4.5V4.5C0,2.02,2.02,0,4.5,0h13c2.48,0,4.5,2.02,4.5,4.5v3c0,.28-.22,.5-.5,.5s-.5-.22-.5-.5v-3c0-1.93-1.57-3.5-3.5-3.5H4.5c-1.93,0-3.5,1.57-3.5,3.5v13c0,1.93,1.57,3.5,3.5,3.5h6c.28,0,.5,.22,.5,.5Z"/></svg>
