<?xml version="1.0" encoding="UTF-8"?>
<svg xmlns="http://www.w3.org/2000/svg" id="Layer_1" data-name="Layer 1" viewBox="0 0 24 24" width="512" height="512"><path d="M7.5,8c-.729,0-1.5,1.285-1.5,2.5,0,.276-.224,.5-.5,.5s-.5-.224-.5-.5c0-1.652,1.069-3.5,2.5-3.5s2.5,1.848,2.5,3.5c0,.276-.224,.5-.5,.5s-.5-.224-.5-.5c0-1.215-.771-2.5-1.5-2.5Zm11,3c.276,0,.5-.224,.5-.5,0-1.652-1.069-3.5-2.5-3.5s-2.5,1.848-2.5,3.5c0,.276,.224,.5,.5,.5s.5-.224,.5-.5c0-1.215,.771-2.5,1.5-2.5s1.5,1.285,1.5,2.5c0,.276,.224,.5,.5,.5ZM12,0C5.383,0,0,5.383,0,12c0,3.966,1.957,7.671,5.235,9.913,.229,.155,.54,.097,.695-.131,.156-.228,.098-.539-.13-.695C2.794,19.032,1,15.635,1,12,1,5.935,5.935,1,12,1s11,4.935,11,11c0,3.635-1.794,7.032-4.8,9.087-.228,.156-.286,.468-.13,.695,.097,.142,.253,.218,.413,.218,.097,0,.195-.028,.282-.087,3.278-2.242,5.235-5.947,5.235-9.913C24,5.383,18.617,0,12,0Zm5.846,18.868c-.195-.195-.512-.195-.707,0l-3.302,3.302c-1.104,1.105-2.902,1.104-4.007,0-.535-.535-.83-1.247-.83-2.004v-.786l5.708-5.708c.195-.195,.195-.512,0-.707s-.512-.195-.707,0l-5,5v-2.466c0-.276-.224-.5-.5-.5s-.5,.224-.5,.5v4.666c0,1.024,.399,1.987,1.123,2.711,.747,.747,1.729,1.121,2.71,1.121s1.963-.374,2.71-1.121l3.302-3.302c.195-.195,.195-.512,0-.707Zm-.88-5.123c-.195-.195-.512-.195-.707,0l-4.245,4.245c-.195,.195-.195,.512,0,.707,.098,.098,.226,.146,.354,.146s.256-.049,.354-.146l4.245-4.245c.195-.195,.195-.512,0-.707Zm-3.125,6.571c.128,0,.256-.049,.354-.146l3.479-3.479c.195-.195,.195-.512,0-.707s-.512-.195-.707,0l-3.479,3.479c-.195,.195-.195,.512,0,.707,.098,.098,.226,.146,.354,.146Z"/></svg>
