<?xml version="1.0" encoding="UTF-8"?>
<svg xmlns="http://www.w3.org/2000/svg" id="Layer_1" data-name="Layer 1" viewBox="0 0 24 24" width="512" height="512"><path d="M12,18c.552,0,1,.448,1,1s-.448,1-1,1-1-.448-1-1,.448-1,1-1Zm12,1.5v-7.145c0-3.396-1.392-6.688-3.819-9.033C17.858,1.075,14.823-.082,11.629,.008,5.309,.224,.094,5.542,.002,11.862c-.044,3.103,1.133,6.031,3.315,8.245,2.475,2.51,5.96,3.893,9.815,3.893h6.367c2.481,0,4.5-2.019,4.5-4.5Zm-4.514-15.459c2.233,2.158,3.514,5.188,3.514,8.314v7.145c0,1.93-1.57,3.5-3.5,3.5h-6.367c-3.585,0-6.818-1.276-9.103-3.595-1.993-2.021-3.069-4.696-3.028-7.529C1.086,6.081,5.868,1.205,11.663,1.008c.124-.005,.247-.007,.37-.007,2.782,0,5.417,1.071,7.453,3.04Zm-6.986,11.459v-.5c0-.937,.674-2.1,1.473-2.54,1.5-.826,2.307-2.524,2.009-4.225-.283-1.611-1.605-2.935-3.216-3.217-1.104-.195-2.201,.06-3.088,.713-.876,.645-1.459,1.63-1.599,2.704-.036,.273,.157,.524,.431,.561,.272,.035,.524-.158,.56-.432,.105-.805,.542-1.544,1.2-2.027,.666-.49,1.489-.677,2.323-.534,1.204,.212,2.193,1.2,2.404,2.405,.229,1.3-.363,2.546-1.506,3.177-1.116,.615-1.99,2.115-1.99,3.415v.5c0,.276,.224,.5,.5,.5s.5-.224,.5-.5Z"/></svg>
