<?xml version="1.0" encoding="UTF-8"?>
<svg xmlns="http://www.w3.org/2000/svg" id="Layer_1" data-name="Layer 1" viewBox="0 0 24 24" width="512" height="512"><path d="m15.5,5c1.379,0,2.5-1.122,2.5-2.5s-1.121-2.5-2.5-2.5-2.5,1.122-2.5,2.5,1.121,2.5,2.5,2.5Zm0-4c.827,0,1.5.673,1.5,1.5s-.673,1.5-1.5,1.5-1.5-.673-1.5-1.5.673-1.5,1.5-1.5Zm6.336,8.871l-3.126,2.833c-.742.498-1.646.327-2.118-.339l-2.033-2.92-3.041,7.248c-.08.191-.266.307-.461.307-.065,0-.13-.012-.193-.039-.255-.107-.375-.4-.268-.654l3.3-7.865c-.369-.603-.888-1.031-1.51-1.261-.425-.19-.799-.226-1.184-.123-.492.132-.903.47-1.127.927l-2.827,6.58c-.389.793-.409,1.446.656,2.314l7.688,5.268c.376.277.519.725.378,1.151-.14.427-.521.702-.97.702H4.5c-.276,0-.5-.224-.5-.5s.224-.5.5-.5h10.5l-7.694-5.321c-1.326-1.079-1.623-2.193-.966-3.532l2.827-6.58c.361-.738,1.004-1.268,1.775-1.476.607-.163,1.222-.109,1.824.165.911.336,1.677,1.024,2.126,1.924h0s.003.008.005.011l2.513,3.598c.157.22.458.278.688.126l3.065-2.787c.204-.183.521-.17.706.035.186.205.17.521-.034.707Z"/></svg>
