<?xml version="1.0" encoding="UTF-8"?>
<svg xmlns="http://www.w3.org/2000/svg" id="Layer_1" data-name="Layer 1" viewBox="0 0 24 24" width="512" height="512"><path d="M12,1C6.084,1,1.252,5.622,1,11.521c-.013,.275-.21,.499-.521,.478-.275-.012-.49-.245-.479-.521C.275,5.042,5.547,0,12,0s11.714,5.042,11.989,11.479c.012,.276-.203,.509-.479,.521-.008,0-.015,0-.021,0-.267,0-.488-.21-.5-.479-.252-5.9-5.079-10.521-10.989-10.521Zm5.891,6.188c-.173-.214-.486-.25-.703-.078l-2.389,1.911c-.456,.093-.799,.496-.799,.98,0,.552,.448,1,1,1s1-.448,1-1c0-.197-.057-.38-.155-.535l1.968-1.574c.216-.173,.25-.487,.078-.703Zm-7.891,2.812c0-.483-.343-.887-.799-.98l-2.389-1.911c-.216-.171-.53-.137-.703,.078-.172,.216-.138,.53,.078,.703l1.968,1.574c-.098,.155-.155,.338-.155,.535,0,.552,.448,1,1,1s1-.448,1-1ZM2.395,15h3.085c.654,0,1.264,.344,1.59,.897,.141,.237,.448,.315,.685,.176,.238-.141,.317-.447,.177-.685-.506-.856-1.445-1.388-2.451-1.388h-.979v-.5c0-.276-.224-.5-.5-.5s-.5,.224-.5,.5v.5h-1.105c-1.32,0-2.395,1.056-2.395,2.356,0,1.158,.842,2.135,2.002,2.325l3.835,.626c.674,.11,1.163,.672,1.163,1.337,0,.748-.626,1.356-1.395,1.356H2.521c-.654,0-1.265-.344-1.591-.897-.142-.238-.45-.316-.685-.176-.238,.141-.317,.447-.177,.685,.506,.856,1.445,1.388,2.452,1.388h.979v.5c0,.276,.224,.5,.5,.5s.5-.224,.5-.5v-.5h1.105c1.32,0,2.395-1.056,2.395-2.356,0-1.158-.842-2.135-2.002-2.325l-3.835-.626c-.674-.11-1.163-.672-1.163-1.337,0-.748,.626-1.356,1.395-1.356Zm8.105,5c.276,0,.5-.224,.5-.5v-6c0-.276-.224-.5-.5-.5s-.5,.224-.5,.5v6c0,.276,.224,.5,.5,.5Zm13.5,.5c0,.276-.224,.5-.5,.5h-2.5v2.5c0,.276-.224,.5-.5,.5s-.5-.224-.5-.5v-2.5h-3v2.5c0,.276-.224,.5-.5,.5s-.5-.224-.5-.5v-2.5h-2.5c-.276,0-.5-.224-.5-.5s.224-.5,.5-.5h2.5v-3h-2.5c-.276,0-.5-.224-.5-.5s.224-.5,.5-.5h2.5v-2.5c0-.276,.224-.5,.5-.5s.5,.224,.5,.5v2.5h3v-2.5c0-.276,.224-.5,.5-.5s.5,.224,.5,.5v2.5h2.5c.276,0,.5,.224,.5,.5s-.224,.5-.5,.5h-2.5v3h2.5c.276,0,.5,.224,.5,.5Zm-4-.5v-3h-3v3h3Zm-9.5,2c-.552,0-1,.448-1,1s.448,1,1,1,1-.448,1-1-.448-1-1-1Z"/></svg>
