<?xml version="1.0" encoding="UTF-8"?>
<svg xmlns="http://www.w3.org/2000/svg" id="Layer_1" data-name="Layer 1" viewBox="0 0 24 24" width="512" height="512"><path d="M4.5,3h.55c.23,1.14,1.24,2,2.45,2h3c1.21,0,2.22-.86,2.45-2h.55c1.93,0,3.5,1.57,3.5,3.5,0,.28,.22,.5,.5,.5s.5-.22,.5-.5c0-2.48-2.02-4.5-4.5-4.5h-.55c-.23-1.14-1.24-2-2.45-2h-3c-1.21,0-2.22,.86-2.45,2h-.55C2.02,2,0,4.02,0,6.5v13c0,2.48,2.02,4.5,4.5,4.5h5c.28,0,.5-.22,.5-.5s-.22-.5-.5-.5H4.5c-1.93,0-3.5-1.57-3.5-3.5V6.5c0-1.93,1.57-3.5,3.5-3.5ZM7.5,1h3c.83,0,1.5,.67,1.5,1.5s-.67,1.5-1.5,1.5h-3c-.83,0-1.5-.67-1.5-1.5s.67-1.5,1.5-1.5Zm13,8h-5c-1.93,0-3.5,1.57-3.5,3.5v8c0,1.93,1.57,3.5,3.5,3.5h5c1.93,0,3.5-1.57,3.5-3.5V12.5c0-1.93-1.57-3.5-3.5-3.5Zm2.5,11.5c0,1.38-1.12,2.5-2.5,2.5h-5c-1.38,0-2.5-1.12-2.5-2.5V12.5c0-1.38,1.12-2.5,2.5-2.5h5c1.38,0,2.5,1.12,2.5,2.5v8Zm-2-7c0,.28-.22,.5-.5,.5h-5c-.28,0-.5-.22-.5-.5s.22-.5,.5-.5h5c.28,0,.5,.22,.5,.5Zm0,4c0,.28-.22,.5-.5,.5h-5c-.28,0-.5-.22-.5-.5s.22-.5,.5-.5h5c.28,0,.5,.22,.5,.5Z"/></svg>
