<?xml version="1.0" encoding="UTF-8"?>
<svg xmlns="http://www.w3.org/2000/svg" id="Layer_1" data-name="Layer 1" width="512" height="512" viewBox="0 0 24 24"><path d="M17.5,11c-.095,0-.191-.027-.277-.084l-3-2c-.139-.093-.223-.249-.223-.416s.083-.323,.223-.416l3-2c.23-.153,.54-.091,.693,.139s.091,.54-.139,.693l-2.376,1.584,2.376,1.584c.23,.153,.292,.463,.139,.693-.096,.145-.255,.223-.417,.223Zm-10.722-.084l3-2c.139-.093,.223-.249,.223-.416s-.083-.323-.223-.416l-3-2c-.231-.153-.541-.091-.693,.139-.153,.23-.091,.54,.139,.693l2.376,1.584-2.376,1.584c-.23,.153-.292,.463-.139,.693,.096,.145,.255,.223,.417,.223,.095,0,.191-.027,.277-.084Zm11.183,4.109c.11-.523-.011-1.052-.333-1.449-.301-.371-.733-.575-1.218-.575H7.587c-.485,0-.918,.204-1.219,.577-.322,.4-.441,.932-.327,1.458,.523,2.406,2.792,4.964,5.964,4.964s5.444-2.563,5.954-4.975Zm-1.55-1.024c.227,0,.365,.111,.441,.205,.129,.16,.178,.389,.131,.612-.429,2.027-2.318,4.182-4.976,4.182s-4.547-2.152-4.987-4.177c-.049-.226,0-.457,.128-.617,.076-.094,.213-.206,.44-.206h8.823Zm7.59-2C24,5.383,18.617,0,12,0S0,5.383,0,12s5.383,12,12,12,12-5.383,12-12Zm-1,0c0,6.065-4.935,11-11,11S1,18.065,1,12,5.935,1,12,1s11,4.935,11,11Z"/></svg>
