<?xml version="1.0" encoding="UTF-8"?>
<svg xmlns="http://www.w3.org/2000/svg" id="Layer_1" data-name="Layer 1" viewBox="0 0 24 24" width="512" height="512"><path d="M23.5,24c-.276,0-.5-.224-.5-.5V3.099c0-1.22-.866-1.857-1.608-2.032-.743-.175-1.802,.007-2.347,1.099l-6.595,13.553c-.168,.344-.731,.344-.899,0L4.953,2.161c-.543-1.086-1.603-1.271-2.345-1.094-.742,.175-1.608,.812-1.608,2.032V23.5c.01,.649-1.01,.649-1,0V3.099C0,1.411,1.195,.373,2.379,.094c1.18-.282,2.716,.114,3.471,1.625l6.15,12.639L18.148,1.723c.757-1.515,2.293-1.909,3.473-1.629,1.185,.279,2.379,1.317,2.379,3.005V23.5c0,.276-.224,.5-.5,.5Z"/></svg>
