<?xml version="1.0" encoding="UTF-8"?>
<svg xmlns="http://www.w3.org/2000/svg" id="Layer_1" data-name="Layer 1" viewBox="0 0 24 24" width="512" height="512"><path d="M23.5,24c-.28,0-.5-.22-.5-.5V.5c0-.28,.22-.5,.5-.5s.5,.22,.5,.5V23.5c0,.28-.22,.5-.5,.5ZM0,23c0,.55,.45,1,1,1s1-.45,1-1-.45-1-1-1S0,22.45,0,23Zm5,0c0,.55,.45,1,1,1s1-.45,1-1-.45-1-1-1-1,.45-1,1Zm0-22c0,.55,.45,1,1,1s1-.45,1-1C7,.45,6.55,0,6,0s-1,.45-1,1Zm12,22c0,.55,.45,1,1,1s1-.45,1-1-.45-1-1-1-1,.45-1,1Zm0-22c0,.55,.45,1,1,1s1-.45,1-1C19,.45,18.55,0,18,0s-1,.45-1,1ZM0,1c0,.55,.45,1,1,1s1-.45,1-1C2,.45,1.55,0,1,0S0,.45,0,1Zm0,5c0,.55,.45,1,1,1s1-.45,1-1-.45-1-1-1S0,5.45,0,6Zm0,6c0,.55,.45,1,1,1s1-.45,1-1-.45-1-1-1S0,11.45,0,12Zm0,6c0,.55,.45,1,1,1s1-.45,1-1-.45-1-1-1S0,17.45,0,18Zm11,5c0,.55,.45,1,1,1s1-.45,1-1-.45-1-1-1-1,.45-1,1Zm0-22c0,.55,.45,1,1,1s1-.45,1-1C13,.45,12.55,0,12,0s-1,.45-1,1Zm0,5c0,.55,.45,1,1,1s1-.45,1-1-.45-1-1-1-1,.45-1,1Zm0,6c0,.55,.45,1,1,1s1-.45,1-1-.45-1-1-1-1,.45-1,1Zm0,6c0,.55,.45,1,1,1s1-.45,1-1-.45-1-1-1-1,.45-1,1Zm7-7c-.55,0-1,.45-1,1s.45,1,1,1,1-.45,1-1-.45-1-1-1Zm-12,0c-.55,0-1,.45-1,1s.45,1,1,1,1-.45,1-1-.45-1-1-1Z"/></svg>
