<?xml version="1.0" encoding="UTF-8"?>
<svg xmlns="http://www.w3.org/2000/svg" id="Layer_1" data-name="Layer 1" viewBox="0 0 24 24">
  <path d="m19.5,6H6.901L21.661.973c.261-.089.401-.373.312-.634-.088-.261-.373-.401-.634-.312L3.401,6.136c-1.952.492-3.401,2.262-3.401,4.364v9c0,2.481,2.019,4.5,4.5,4.5h15c2.481,0,4.5-2.019,4.5-4.5v-9c0-2.481-2.019-4.5-4.5-4.5Zm3.5,13.5c0,1.93-1.57,3.5-3.5,3.5H4.5c-1.93,0-3.5-1.57-3.5-3.5v-9c0-1.425.856-2.653,2.081-3.199l.596-.203c.264-.064.54-.098.823-.098h15c1.93,0,3.5,1.57,3.5,3.5v9Zm-14-6c0,.276-.224.5-.5.5H3.5c-.276,0-.5-.224-.5-.5s.224-.5.5-.5h5c.276,0,.5.224.5.5Zm0,3c0,.276-.224.5-.5.5H3.5c-.276,0-.5-.224-.5-.5s.224-.5.5-.5h5c.276,0,.5.224.5.5Zm0,3c0,.276-.224.5-.5.5H3.5c-.276,0-.5-.224-.5-.5s.224-.5.5-.5h5c.276,0,.5.224.5.5Zm0-9c0,.276-.224.5-.5.5H3.5c-.276,0-.5-.224-.5-.5s.224-.5.5-.5h5c.276,0,.5.224.5.5Zm7-.5c-2.757,0-5,2.243-5,5s2.243,5,5,5,5-2.243,5-5-2.243-5-5-5Zm0,9c-2.206,0-4-1.794-4-4s1.794-4,4-4,4,1.794,4,4-1.794,4-4,4Zm0-6c-1.103,0-2,.897-2,2s.897,2,2,2,2-.897,2-2-.897-2-2-2Zm0,3c-.551,0-1-.449-1-1s.449-1,1-1,1,.449,1,1-.449,1-1,1Z"/>
</svg>
