<?xml version="1.0" encoding="UTF-8"?>
<svg xmlns="http://www.w3.org/2000/svg" id="Layer_1" data-name="Layer 1" viewBox="0 0 24 24" width="512" height="512"><path d="M21.887,3.669c1.169-.298,1.841-.721,1.883-.748,.232-.148,.299-.456,.151-.688-.147-.233-.456-.302-.689-.154-.013,.008-1.224,.758-3.231,.869V.5c0-.276-.224-.5-.5-.5s-.5,.224-.5,.5V2.948c-2.008-.112-3.219-.861-3.231-.869-.234-.148-.542-.08-.689,.154-.148,.232-.081,.54,.151,.688,.042,.027,.695,.438,1.834,.735-1.182,.723-2.04,1.947-2.218,3.361-.094,.746-.373,1.746-.705,2.131-1.414,1.639-4.598,1.859-7.525,1.859-3.709,0-6.615,2.868-6.615,6.53,0,3.623,2.918,6.462,6.643,6.462,10.706,0,17.357-6.286,17.357-16.404,0-1.653-.845-3.106-2.113-3.927ZM6.643,23c-3.165,0-5.643-2.399-5.643-5.462,0-3.102,2.466-5.53,5.615-5.53,3.313,0,6.609-.268,8.282-2.206,.689-.798,.917-2.471,.94-2.659,.203-1.619,1.547-2.919,3.162-3.146v2.503c0,.276,.224,.5,.5,.5s.5-.224,.5-.5V3.997c1.717,.245,3,1.737,3,3.598,0,9.502-6.268,15.404-16.357,15.404Z"/></svg>
