<?xml version="1.0" encoding="UTF-8"?>
<svg xmlns="http://www.w3.org/2000/svg" id="Layer_1" data-name="Layer 1" width="512" height="512" viewBox="0 0 24 24"><path d="M12,0C5.383,0,0,5.383,0,12s5.383,12,12,12,12-5.383,12-12S18.617,0,12,0Zm0,23c-6.065,0-11-4.935-11-11S5.935,1,12,1s11,4.935,11,11-4.935,11-11,11Zm0-19c-4.411,0-8,3.589-8,8s3.589,8,8,8,8-3.589,8-8-3.589-8-8-8Zm1.341,9.764c-.418-.172-.871-.264-1.341-.264s-.924,.091-1.341,.264c.046-.447,.008-.906-.118-1.355-.123-.44-.323-.843-.587-1.196,.418-.076,.822-.238,1.185-.483,.348-.236,.639-.535,.861-.877,.222,.342,.513,.641,.861,.877,.363,.246,.767,.408,1.185,.484-.263,.353-.464,.756-.587,1.196-.126,.45-.164,.908-.118,1.356Zm4.949-4.832l-2.914,1.18c-.657,.263-1.368,.186-1.955-.211-.586-.396-.922-1.029-.922-1.737v-3.145c2.546,.181,4.721,1.729,5.79,3.914Zm-6.79-3.914v3.145c0,.708-.336,1.341-.922,1.737s-1.299,.473-1.949,.213l-2.909-1.204c1.074-2.172,3.242-3.711,5.779-3.891Zm-6.5,6.982c0-.755,.121-1.483,.343-2.165l2.679,1.112c.766,.307,1.333,.938,1.555,1.731,.222,.791,.068,1.621-.421,2.279l-1.765,2.307c-1.465-1.284-2.392-3.168-2.392-5.264Zm3.188,5.868l1.812-2.368c.477-.636,1.206-1,2-1s1.523,.364,2,1l1.788,2.384c-1.093,.706-2.393,1.116-3.788,1.116-1.405,0-2.714-.416-3.812-1.132Zm8.399-.585l-1.737-2.316c-.495-.66-.651-1.494-.428-2.288,.223-.794,.79-1.425,1.556-1.731l2.687-1.088c.217,.675,.335,1.394,.335,2.141,0,2.106-.935,3.999-2.413,5.283Z"/></svg>
