<?xml version="1.0" encoding="UTF-8"?>
<svg xmlns="http://www.w3.org/2000/svg" id="Layer_1" data-name="Layer 1" width="512" height="512" viewBox="0 0 24 24"><path d="M23.9,11.478c-.685-5.417-5.107-9.79-10.515-10.399-3.456-.386-6.783,.665-9.361,2.968C1.467,6.332,0,9.614,0,13.05c0,3.341,1.334,6.447,3.758,8.747,.817,.776,1.93,1.203,3.134,1.203h10.21c1.237,0,2.404-.478,3.287-1.345,2.713-2.662,3.993-6.371,3.512-10.178Zm-4.212,9.465c-.695,.682-1.613,1.058-2.586,1.058H6.892c-.946,0-1.815-.33-2.445-.928-2.222-2.109-3.446-4.959-3.446-8.022,0-3.151,1.345-6.161,3.691-8.258,2.04-1.823,4.592-2.793,7.294-2.793,.426,0,.856,.024,1.288,.073,4.955,.558,9.007,4.566,9.635,9.53,.441,3.494-.732,6.898-3.22,9.34Zm-7.688-9.942c-1.103,0-2,.897-2,2,0,.109,.009,.216,.026,.32l-5.14,2.256c-.252,.111-.368,.406-.257,.659,.083,.188,.266,.299,.458,.299,.067,0,.135-.014,.201-.042l5.141-2.257c.367,.465,.934,.764,1.571,.764,1.103,0,2-.897,2-2s-.897-2-2-2Zm0,3c-.551,0-1-.448-1-1s.449-1,1-1,1,.448,1,1-.449,1-1,1Zm8-1c0,2.22-.934,4.357-2.562,5.866-.096,.09-.218,.134-.34,.134-.134,0-.268-.054-.367-.16-.188-.202-.176-.519,.027-.706,1.424-1.32,2.241-3.191,2.241-5.134,0-3.859-3.14-7-7-7-3.675,0-6.743,2.869-6.984,6.533-.019,.275-.258,.494-.532,.466-.276-.019-.484-.256-.466-.532,.276-4.187,3.782-7.467,7.982-7.467,4.411,0,8,3.589,8,8Z"/></svg>
