<?xml version="1.0" encoding="UTF-8"?>
<svg xmlns="http://www.w3.org/2000/svg" id="Layer_1" data-name="Layer 1" viewBox="0 0 24 24" width="512" height="512"><path d="M23.5,21H12.5v-2h8.26c1.235,0,2.24-.999,2.24-2.227v-.357c0-3.033-1.224-5.851-3.446-7.936-1.946-1.825-4.415-2.853-7.054-2.969V3h2c.276,0,.5-.224,.5-.5s-.224-.5-.5-.5h-5c-.276,0-.5,.224-.5,.5s.224,.5,.5,.5h2v2.512c-.077,.003-.154,.007-.231,.012C5.511,5.893,1,10.835,1,16.773c0,1.228,1.005,2.227,2.24,2.227H11.5v2H.5c-.276,0-.5,.224-.5,.5s.224,.5,.5,.5H23.5c.276,0,.5-.224,.5-.5s-.224-.5-.5-.5ZM2,16.773c0-5.413,4.1-9.916,9.333-10.252,.221-.014,.441-.021,.659-.022h.017c2.568,0,4.983,.95,6.861,2.711,2.018,1.893,3.13,4.452,3.13,7.206v.357c0,.676-.556,1.227-1.24,1.227H3.24c-.684,0-1.24-.55-1.24-1.227Z"/></svg>
