<?xml version="1.0" encoding="UTF-8"?>
<svg xmlns="http://www.w3.org/2000/svg" id="Layer_1" data-name="Layer 1" viewBox="0 0 24 24" width="512" height="512"><path d="M4.48,22.141c-.064,.218-.264,.359-.48,.359-.046,0-.094-.006-.141-.02-1.951-.572-3.242-1.862-3.838-3.835-.08-.264,.07-.543,.334-.623,.265-.08,.543,.07,.623,.334,.499,1.652,1.533,2.688,3.162,3.165,.265,.078,.417,.355,.339,.621ZM14.359,.98c1.629,.477,2.663,1.512,3.162,3.165,.065,.216,.264,.355,.479,.355,.048,0,.096-.007,.145-.021,.264-.08,.414-.359,.334-.623-.596-1.974-1.887-3.264-3.838-3.835-.266-.078-.543,.075-.621,.339-.078,.265,.074,.543,.339,.621Zm.246,23.005c-.026,0,.027,0,0,0h0ZM24,7.472v7.17c0,2.249-.915,4.447-2.51,6.031l-.815,.81c-1.627,1.616-3.78,2.502-6.069,2.502-2.319-.021-4.565-.948-6.182-2.611L.701,13.456c-.799-.799-.931-2.063-.303-2.936,.335-.466,.828-.782,1.377-.893l-.889-.889C.083,7.934-.049,6.669,.58,5.797c.383-.532,.97-.869,1.615-.928-.284-.707-.22-1.519,.224-2.137,.388-.539,.986-.878,1.64-.931,.653-.057,1.296,.183,1.76,.647l.349,.349c.055-.306,.174-.6,.361-.859,.388-.539,.986-.878,1.64-.931,.654-.052,1.296,.183,1.76,.647l9.071,9.071v-3.146c0-1.274,.896-2.38,2.084-2.573,.732-.119,1.475,.085,2.035,.561s.881,1.17,.881,1.905Zm-1,0c0-.441-.193-.858-.529-1.144-.341-.29-.778-.408-1.226-.335-.71,.115-1.245,.797-1.245,1.586v4.354c0,.202-.122,.385-.309,.462-.186,.079-.401,.036-.545-.108L9.222,2.361c-.256-.256-.611-.386-.973-.357-.367,.03-.69,.214-.909,.519-.345,.479-.258,1.188,.203,1.649,.001,.001,.002,.003,.004,.004l5.555,5.555c.195,.195,.195,.512,0,.707-.098,.098-.226,.146-.354,.146s-.256-.049-.354-.146L5.111,3.155c-.256-.256-.607-.382-.972-.357-.367,.03-.689,.214-.909,.519-.345,.479-.258,1.188,.202,1.649l7.217,7.217c.195,.195,.195,.512,0,.707-.098,.098-.226,.146-.354,.146s-.256-.049-.354-.146L3.272,6.22c-.256-.256-.607-.387-.972-.357-.367,.029-.689,.213-.909,.519-.345,.479-.258,1.188,.202,1.649l6.604,6.604c.195,.195,.195,.512,0,.707s-.512,.195-.707,0L3.092,10.943c-.256-.256-.613-.385-.972-.357-.367,.03-.69,.214-.91,.519-.345,.479-.258,1.188,.203,1.649l7.727,7.923c1.429,1.471,3.345,2.291,5.396,2.309,2.009,.004,3.979-.767,5.434-2.212l.815-.81c1.408-1.398,2.215-3.337,2.215-5.322V7.472Z"/></svg>
