<?xml version="1.0" encoding="UTF-8"?>
<svg xmlns="http://www.w3.org/2000/svg" id="Layer_1" data-name="Layer 1" viewBox="0 0 24 24" width="512" height="512"><path d="M12,0C5.383,0,0,5.383,0,12s5.383,12,12,12,12-5.383,12-12S18.617,0,12,0Zm0,1c4.653,0,8.631,2.909,10.236,7h-2.378c-.447-1.721-1.999-3-3.858-3-2.206,0-4,1.794-4,4,0,1.754,1.141,3.231,2.715,3.769,.492,.409,1.285,1.283,1.285,2.103,0,1.037-2.775,2.128-4,2.128-.825,0-2.577-.505-3.463-1.239-.009-.016-.011-.035-.023-.051-.052-.072-.121-.119-.195-.154-.197-.214-.319-.444-.319-.684,0-.603,.513-1.59,1.275-2.1,1.579-.536,2.725-2.015,2.725-3.772,0-2.206-1.794-4-4-4-1.859,0-3.411,1.279-3.858,3H1.764C3.369,3.909,7.347,1,12,1Zm7,8c0,1.654-1.346,3-3,3s-3-1.346-3-3,1.346-3,3-3,3,1.346,3,3Zm-14,0c0-1.654,1.346-3,3-3s3,1.346,3,3-1.346,3-3,3-3-1.346-3-3Zm7,14c-6.065,0-11-4.935-11-11,0-1.046,.156-2.055,.43-3.014,.024,.003,.045,.014,.07,.014h2.5c0,2.1,1.631,3.808,3.691,3.969-.423,.601-.691,1.294-.691,1.903,0,.386,.129,.738,.347,1.056l-1.124,.802c-.225,.16-.277,.473-.117,.697,.098,.137,.251,.21,.407,.21,.101,0,.202-.03,.29-.093l1.258-.897c.532,.404,1.199,.721,1.862,.946l-.59,1.721c-.09,.262,.05,.546,.311,.635,.054,.019,.108,.027,.162,.027,.208,0,.402-.131,.473-.338l.609-1.778c.426,.091,.814,.14,1.112,.14,.271,0,.663-.055,1.106-.158l.616,1.797c.07,.207,.265,.338,.473,.338,.054,0,.108-.009,.162-.027,.261-.089,.4-.373,.311-.635l-.6-1.751c.648-.227,1.31-.541,1.843-.937l1.287,.917c.088,.062,.189,.093,.29,.093,.155,0,.31-.073,.407-.21,.16-.225,.107-.537-.117-.697l-1.138-.812c.226-.315,.361-.664,.361-1.046,0-.724-.345-1.386-.727-1.9,2.077-.143,3.727-1.86,3.727-3.972h2.5c.025,0,.046-.011,.07-.014,.274,.959,.43,1.968,.43,3.014,0,6.065-4.935,11-11,11Zm-3-14c0,.552-.448,1-1,1s-1-.448-1-1,.448-1,1-1,1,.448,1,1Zm8,0c0,.552-.448,1-1,1s-1-.448-1-1,.448-1,1-1,1,.448,1,1Z"/></svg>
