<?xml version="1.0" encoding="UTF-8"?>
<svg xmlns="http://www.w3.org/2000/svg" id="Layer_1" data-name="Layer 1" viewBox="0 0 24 24" width="512" height="512"><path d="m16,5.159v-1.159c0-1.103-.897-2-2-2h-.588c.055-.156.086-.325.086-.5,0-.828-.672-1.5-1.5-1.5s-1.5.672-1.5,1.5c0,.175.03.344.086.5h-.583c-1.103,0-2,.897-2,2v1.159c-3.764,1.544-6,4.824-6,8.841,0,5.514,4.486,10,10,10s10-4.486,10-10c0-4.016-2.236-7.297-6-8.841Zm-6-2.159h4c.551,0,1,.449,1,1v1.029l-6-.027v-1.002c0-.551.449-1,1-1Zm-1.408,3h6.816c3.555,1.366,5.592,4.277,5.592,8,0,.483-.039.957-.112,1.419l-2.792-2.792c-.834-.836-2.193-.833-3.006-.02l-2.304,2.059c-.211.211-.493.33-.792.333-.306,0-.606-.117-.847-.359l-2.208-1.999c-.402-.408-.939-.634-1.513-.638h-.012c-.569,0-1.104.22-1.507.622l-2.797,2.779c-.072-.458-.11-.927-.11-1.405,0-3.723,2.037-6.634,5.592-8Zm3.408,17c-4.075,0-7.526-2.723-8.63-6.444l3.242-3.22c.215-.214.5-.331.802-.331h.006c.306.002.592.123.827.359l2.208,1.999c.412.418.972.629,1.55.638.562-.007,1.089-.229,1.466-.607l2.304-2.059c.444-.444,1.168-.444,1.612,0l3.237,3.237c-1.109,3.714-4.556,6.429-8.625,6.429Z"/></svg>
