<?xml version="1.0" encoding="UTF-8"?>
<svg xmlns="http://www.w3.org/2000/svg" id="Layer_1" data-name="Layer 1" viewBox="0 0 24 24" width="512" height="512"><path d="M24,12c0,2.005-.504,3.989-1.459,5.739-.132,.243-.437,.334-.678,.199-.243-.132-.332-.436-.2-.678,.875-1.604,1.337-3.423,1.337-5.261,0-6.065-4.935-11-11-11S1,5.935,1,12s4.935,11,11,11c1.495,0,2.942-.294,4.304-.874,.253-.108,.547,.011,.656,.264,.108,.254-.01,.548-.264,.656-1.486,.633-3.066,.954-4.696,.954C5.383,24,0,18.617,0,12S5.383,0,12,0s12,5.383,12,12ZM7.5,15c.923,0,3.732,0,5.584,2.777,.096,.145,.255,.223,.417,.223,.095,0,.191-.027,.277-.084,.23-.153,.292-.464,.139-.693-2.148-3.223-5.36-3.223-6.416-3.223-.276,0-.5,.224-.5,.5s.224,.5,.5,.5Zm8.5-6c-.552,0-1,.448-1,1s.448,1,1,1,1-.448,1-1-.448-1-1-1Zm-8-1c0-.552-.448-1-1-1s-1,.448-1,1,.448,1,1,1,1-.448,1-1Zm12,2v13.5c0,.276-.224,.5-.5,.5s-.5-.224-.5-.5V12.618c-.734,.84-1.8,1.382-3,1.382-2.206,0-4-1.794-4-4s1.794-4,4-4,4,1.794,4,4Zm-1,0c0-1.654-1.346-3-3-3s-3,1.346-3,3,1.346,3,3,3,3-1.346,3-3Z"/></svg>
