<?xml version="1.0" encoding="UTF-8"?>
<svg xmlns="http://www.w3.org/2000/svg" id="Layer_1" data-name="Layer 1" viewBox="0 0 24 24">
  <path d="m3.5,5c1.378,0,2.5-1.121,2.5-2.5S4.878,0,3.5,0,1,1.121,1,2.5s1.122,2.5,2.5,2.5Zm0-4c.827,0,1.5.673,1.5,1.5s-.673,1.5-1.5,1.5-1.5-.673-1.5-1.5.673-1.5,1.5-1.5Zm20.505,16.387c-.062-.269-.328-.433-.6-.374l-8.748,2.028-3.162-13.638c-.062-.269-.334-.435-.6-.374-.269.062-.437.331-.375.601l1.245,5.371h-3.647c-.191,0-.362-.105-.447-.276l-1.395-2.789c-.597-1.193-1.796-1.935-3.13-1.935-1.735,0-3.146,1.411-3.146,3.146v4.184c0,1.231.658,2.385,1.717,3.013l2.547,1.507c.454.27.736.764.736,1.291v4.36c0,.276.224.5.5.5s.5-.224.5-.5v-4.36c0-.878-.47-1.702-1.226-2.151l-2.547-1.508c-.757-.447-1.227-1.272-1.227-2.151v-4.184c0-1.183.963-2.146,2.146-2.146.3,0,.583.069.854.168v7.332c0,.276.224.5.5.5s.5-.224.5-.5v-6.674c.148.165.279.35.382.556l1.395,2.789c.256.512.77.829,1.342.829h3.879l1.625,7.01c-.033-.001-.063-.01-.096-.01-1.378,0-2.5,1.121-2.5,2.5s1.122,2.5,2.5,2.5,2.5-1.121,2.5-2.5c0-.616-.233-1.174-.604-1.61l8.208-1.903c.269-.062.437-.331.375-.601Zm-10.479,5.613c-.827,0-1.5-.673-1.5-1.5s.673-1.5,1.5-1.5,1.5.673,1.5,1.5-.673,1.5-1.5,1.5Zm-11.526-4.5v5c0,.276-.224.5-.5.5s-.5-.224-.5-.5v-5c0-.276.224-.5.5-.5s.5.224.5.5Zm13.554-3.862c.135.574.485,1.062.987,1.372.353.218.749.329,1.153.329.171,0,.344-.02.515-.061l3.108-.738c1.178-.279,1.912-1.467,1.636-2.646l-.748-3.192c-.135-.575-.486-1.062-.988-1.372-.502-.311-1.095-.406-1.667-.269l-3.107.738c-1.179.279-1.913,1.467-1.636,2.646l.748,3.192Zm1.119-4.866l3.107-.738c.094-.022.188-.033.281-.033.22,0,.437.062.629.18.274.17.466.436.54.75l.748,3.192c.151.644-.25,1.292-.894,1.445l-3.108.738c-.315.075-.636.022-.911-.146-.274-.17-.465-.436-.539-.75l-.748-3.192c-.151-.645.25-1.292.894-1.445Z"/>
</svg>
