<?xml version="1.0" encoding="UTF-8"?>
<svg xmlns="http://www.w3.org/2000/svg" id="Layer_1" data-name="Layer 1" viewBox="0 0 24 24" width="512" height="512"><path d="M17.146,2.854c-.195-.195-.195-.512,0-.707L19.146,.146c.144-.144,.359-.185,.545-.108,.187,.077,.309,.26,.309,.462V9.5c0,.276-.224,.5-.5,.5s-.5-.224-.5-.5V1.707l-1.146,1.146c-.195,.195-.512,.195-.707,0Zm4.854,14.146v1.5c0,3.393-1.725,5.5-4.5,5.5-.276,0-.5-.224-.5-.5s.224-.5,.5-.5c2.675,0,3.316-2.333,3.46-3.747-.527,.459-1.208,.747-1.96,.747-1.654,0-3-1.346-3-3s1.346-3,3-3,3,1.346,3,3Zm-1,0c0-1.103-.897-2-2-2s-2,.897-2,2,.897,2,2,2,2-.897,2-2Zm-9.854,1.561l-4.146,4.146V.5c0-.276-.224-.5-.5-.5s-.5,.224-.5,.5V22.707L1.854,18.561c-.195-.195-.512-.195-.707,0s-.195,.512,0,.707l4.293,4.293c.283,.283,.66,.439,1.061,.439s.777-.156,1.061-.439l4.293-4.293c.195-.195,.195-.512,0-.707s-.512-.195-.707,0Z"/></svg>
