<?xml version="1.0" encoding="UTF-8"?>
<svg xmlns="http://www.w3.org/2000/svg" id="Layer_1" data-name="Layer 1" viewBox="0 0 24 24" width="512" height="512"><path d="M12,24C5.383,24,0,18.617,0,12S5.383,0,12,0s12,5.383,12,12-5.383,12-12,12ZM12,1C5.935,1,1,5.935,1,12s4.935,11,11,11,11-4.935,11-11S18.065,1,12,1Zm3.404,18c-4.473,0-10.404-5.932-10.404-10.405,0-.964,.365-1.859,1.027-2.521l.675-.589c.606-.611,1.777-.633,2.433,.023l1.126,1.459c.286,.279,.467,.715,.467,1.18s-.181,.901-.51,1.229l-.699,.883c.877,2.022,2.26,3.409,4.216,4.225l.91-.725c.678-.655,1.765-.65,2.437,.021l1.361,1.04c.727,.721,.727,1.824,.049,2.501l-.543,.625c-.685,.688-1.58,1.052-2.544,1.052ZM7.905,6c-.196,0-.382,.077-.521,.216l-.675,.589c-.448,.449-.709,1.093-.709,1.79,0,4.151,5.831,9.405,9.404,9.405,.696,0,1.341-.261,1.813-.734l.543-.625c.312-.312,.311-.781,.023-1.069l-1.361-1.04c-.337-.331-.806-.331-1.093-.043l-1.424,1.137-.267-.102c-2.422-.925-4.158-2.66-5.16-5.157l-.108-.27,1.102-1.386c.178-.182,.255-.367,.255-.564s-.077-.382-.217-.521l-1.126-1.459c-.097-.091-.282-.167-.479-.167Z"/></svg>
