<?xml version="1.0" encoding="UTF-8"?>
<svg xmlns="http://www.w3.org/2000/svg" id="Layer_1" data-name="Layer 1" viewBox="0 0 24 24" width="512" height="512"><path d="M12,0C5.383,0,0,5.383,0,12s5.383,12,12,12,12-5.383,12-12S18.617,0,12,0Zm0,23c-6.065,0-11-4.935-11-11S5.935,1,12,1s11,4.935,11,11-4.935,11-11,11ZM16,6.5v11c0,.276-.224,.5-.5,.5s-.5-.224-.5-.5v-3.5h-4.5c-1.379,0-2.5-1.121-2.5-2.5V6.5c0-.276,.224-.5,.5-.5s.5,.224,.5,.5v5c0,.827,.673,1.5,1.5,1.5h4.5V6.5c0-.276,.224-.5,.5-.5s.5,.224,.5,.5Z"/></svg>
