<?xml version="1.0" encoding="UTF-8"?>
<svg xmlns="http://www.w3.org/2000/svg" id="Layer_1" data-name="Layer 1" viewBox="0 0 24 24" width="512" height="512"><path d="M23.5,0c-1.056,0-2.045,.519-2.651,1.396l-6.556,9.885c-.48-.25-1.024-.338-1.572-.244-.666,.113-1.245,.48-1.632,1.036l-1.578,2.288c-.106-.54-.224-1.06-.345-1.598l-.113-.509c-.164-.73-.801-1.242-1.55-1.243l-5.029-.009h-.003c-.739,0-1.392,.522-1.553,1.244l-.108,.482C.395,14.57,.003,16.311,0,19.108c0,1.301,.504,2.527,1.421,3.453,.921,.928,2.143,1.438,3.442,1.438h1.15c2.197,0,4.263-1.074,5.528-2.881l4.036-5.957c.724-1.075,.513-2.493-.464-3.311L21.677,1.956c.414-.599,1.096-.956,1.823-.956,.276,0,.5-.224,.5-.5s-.224-.5-.5-.5ZM14.749,14.603l-4.03,5.949c-1.074,1.533-2.833,2.448-4.705,2.448h-1.15c-1.031,0-2.001-.406-2.731-1.143-.73-.737-1.133-1.713-1.132-2.749,.003-2.686,.383-4.374,.785-6.16l.109-.485c.06-.267,.302-.461,.576-.461h0l5.029,.009c.278,0,.515,.19,.575,.461l.114,.511c.205,.909,.398,1.769,.542,2.742,.03,.203,.182,.367,.382,.414,.205,.049,.409-.035,.524-.203l2.271-3.293c.231-.332,.579-.553,.979-.621,.397-.066,.8,.024,1.129,.261l.364,.264c.662,.477,.823,1.38,.367,2.057Z"/></svg>
