<?xml version="1.0" encoding="UTF-8"?>
<svg xmlns="http://www.w3.org/2000/svg" id="Layer_1" data-name="Layer 1" viewBox="0 0 24 24" width="512" height="512"><path d="m21.961,23.308c.106.255-.014.548-.269.654-.063.025-.128.038-.192.038-.196,0-.381-.115-.461-.308l-2.5-6c-.106-.255.014-.548.269-.654.254-.102.547.015.654.27l2.5,6Zm-16.769-6.27c-.252-.102-.547.015-.654.27l-2.5,6c-.106.255.014.548.269.654.063.025.128.038.192.038.196,0,.381-.115.461-.308l2.5-6c.106-.255-.014-.548-.269-.654Zm12.808-7c-.552,0-1,.448-1,1s.448,1,1,1,1-.448,1-1-.448-1-1-1Zm-12,0c-.552,0-1,.448-1,1s.448,1,1,1,1-.448,1-1-.448-1-1-1Zm18,.975c0,2.817-5.271,5.024-12,5.024S0,13.831,0,11.014c0-1.871,2.234-3.493,6-4.376v-.638c0-3.309,2.691-6,6-6s6,2.691,6,6v.638c3.766.883,6,2.505,6,4.376ZM7,7.068c.422.271,1.817.97,5,.97s4.571-.695,5-.971v-1.067c0-2.757-2.243-5-5-5s-5,2.243-5,5v1.068Zm16,3.945c0-1.319-1.991-2.622-5.115-3.375-.14.141-1.526,1.399-5.885,1.399s-5.745-1.259-5.885-1.399c-3.125.753-5.115,2.056-5.115,3.375,0,1.903,4.518,4.024,11,4.024s11-2.121,11-4.024Zm-11,.025c-.552,0-1,.448-1,1s.448,1,1,1,1-.448,1-1-.448-1-1-1Z"/></svg>
