<?xml version="1.0" encoding="UTF-8"?>
<svg xmlns="http://www.w3.org/2000/svg" id="Layer_1" data-name="Layer 1" viewBox="0 0 24 24" width="512" height="512"><path d="M17.5,11c-3.584,0-6.5,2.916-6.5,6.5s2.916,6.5,6.5,6.5,6.5-2.916,6.5-6.5-2.916-6.5-6.5-6.5Zm0,12c-3.032,0-5.5-2.467-5.5-5.5s2.468-5.5,5.5-5.5,5.5,2.467,5.5,5.5-2.468,5.5-5.5,5.5Zm1.354-4.854c.195,.195,.195,.512,0,.707-.098,.098-.226,.146-.354,.146s-.256-.049-.354-.146l-1-1c-.094-.094-.146-.221-.146-.354v-2c0-.276,.224-.5,.5-.5s.5,.224,.5,.5v1.793l.854,.854Zm.646-14.146h-2.028c-.25-2.247-2.16-4-4.472-4h-2.5c-2.312,0-4.223,1.753-4.472,4h-1.528C2.019,4,0,6.019,0,8.5v11c0,2.481,2.019,4.5,4.5,4.5h6c.276,0,.5-.224,.5-.5s-.224-.5-.5-.5H4.5c-1.93,0-3.5-1.57-3.5-3.5v-6.5H9.5c.276,0,.5-.224,.5-.5s-.224-.5-.5-.5H1v-3.5c0-1.93,1.57-3.5,3.5-3.5h15c1.93,0,3.5,1.57,3.5,3.5v2c0,.276,.224,.5,.5,.5s.5-.224,.5-.5v-2c0-2.481-2.019-4.5-4.5-4.5ZM10.5,1h2.5c1.76,0,3.221,1.306,3.464,3H7.036c.243-1.694,1.704-3,3.464-3Z"/></svg>
