<?xml version="1.0" encoding="UTF-8"?>
<svg xmlns="http://www.w3.org/2000/svg" id="arrow-circle-down" viewBox="0 0 24 24" width="512" height="512"><path d="M19.5,0H4.5C2.019,0,0,2.019,0,4.5v15c0,2.481,2.019,4.5,4.5,4.5h15c2.481,0,4.5-2.019,4.5-4.5V4.5c0-2.481-2.019-4.5-4.5-4.5Zm3.5,19.5c0,1.93-1.57,3.5-3.5,3.5H4.5c-1.93,0-3.5-1.57-3.5-3.5V4.5c0-1.93,1.57-3.5,3.5-3.5h15c1.93,0,3.5,1.57,3.5,3.5v15Z"/><path d="M14.66,9.528l-2.828-2.879c-.193-.197-.51-.2-.707-.006-.197,.193-.2,.51-.006,.707l2.831,2.882c.188,.188,.448,.475,.715,.774,.502,.566,.502,1.42,0,1.986-.267,.3-.527,.587-.718,.777l-2.828,2.879c-.194,.197-.191,.514,.006,.707,.098,.096,.224,.144,.351,.144,.129,0,.259-.05,.356-.149l2.825-2.876c.197-.197,.474-.5,.756-.817,.837-.945,.837-2.369,0-3.314-.282-.317-.559-.62-.753-.814Z"/></svg>
