<?xml version="1.0" encoding="UTF-8"?>
<svg xmlns="http://www.w3.org/2000/svg" id="Layer_1" data-name="Layer 1" viewBox="0 0 24 24" width="512" height="512"><path d="m20.717,15.425c-1.047-1.047-2.752-1.048-3.803-.003l-1.532,1.494c-3.68-1.499-6.678-4.5-8.294-8.303l1.488-1.525c.508-.508.788-1.184.788-1.902s-.28-1.395-.745-1.854l-1.959-2.544c-1.048-1.049-2.756-1.049-3.779-.023l-1.175,1.024C.605,2.886,0,4.373,0,5.977c0,7.748,10.275,18.023,18.024,18.023,1.603,0,3.089-.605,4.21-1.729l.978-1.125c.508-.508.788-1.184.788-1.902s-.28-1.395-.837-1.945l-2.446-1.873Zm1.764,5.039l-.979,1.125c-.908.91-2.144,1.411-3.479,1.411C10.864,23,1,13.136,1,5.977c0-1.336.501-2.571,1.386-3.457l1.175-1.024c.336-.336.779-.501,1.215-.501.419,0,.831.153,1.133.452l1.959,2.544c.319.319.495.744.495,1.195s-.176.876-.5,1.2l-1.722,1.765c-.138.143-.18.353-.106.536,1.729,4.305,5.113,7.688,9.286,9.28.182.07.388.028.527-.108l1.766-1.722s.003-.003.004-.005c.659-.659,1.732-.66,2.44.043l2.446,1.873c.659.659.659,1.731-.023,2.416Zm1.372-13.317c.195.195.195.512,0,.707-.098.098-.226.146-.354.146s-.256-.049-.354-.146l-3.146-3.146-3.146,3.146c-.098.098-.226.146-.354.146s-.256-.049-.354-.146c-.195-.195-.195-.512,0-.707l3.146-3.146-3.146-3.146c-.195-.195-.195-.512,0-.707s.512-.195.707,0l3.146,3.146L23.146.146c.195-.195.512-.195.707,0s.195.512,0,.707l-3.146,3.146,3.146,3.146Z"/></svg>
