<?xml version="1.0" encoding="UTF-8"?>
<svg xmlns="http://www.w3.org/2000/svg" id="Layer_1" data-name="Layer 1" viewBox="0 0 24 24" width="512" height="512"><path d="M11.775,.002C5.169,.123,0,5.788,0,12.395v8.09c0,2.18,.939,3.369,2.24,3.502,1.495,.152,2.76-1.022,2.76-2.487V12c0-3.866,3.134-7,7-7s7,3.134,7,7v9.353c0,1.308,.939,2.502,2.24,2.634,1.495,.152,2.76-1.022,2.76-2.487V12C24,5.298,18.506-.121,11.775,.002ZM4,21.5c0,.827-.673,1.5-1.5,1.5s-1.5-.673-1.5-1.5v-1.5h3v1.5Zm0-2.5H1v-3h3v3Zm0-6.686v2.686H1v-3h3.006c-.004,.104-.006,.209-.006,.314Zm.103-1.314H1.045c.133-1.494,.565-2.924,1.266-4.221l2.606,1.7c-.395,.779-.675,1.628-.815,2.522Zm1.32-3.387l-2.594-1.692c.421-.632,.91-1.226,1.466-1.771,.55-.54,1.143-1.015,1.772-1.424l1.483,2.697c-.832,.586-1.554,1.331-2.127,2.189Zm6.077-3.597c-1.106,.071-2.155,.381-3.098,.883l-1.472-2.678c1.396-.733,2.941-1.152,4.57-1.213v3.009Zm1,0V1.012c1.628,.075,3.167,.524,4.54,1.264l-1.421,2.585c-.963-.49-2.02-.778-3.119-.845Zm6.158,3.545c-.312-.465-.675-.902-1.088-1.302-.341-.331-.706-.627-1.09-.889l1.418-2.579c1.254,.833,2.337,1.921,3.179,3.192l-2.419,1.577Zm.504,.866l2.431-1.585c.686,1.261,1.147,2.668,1.325,4.159h-2.979c-.112-.904-.375-1.771-.776-2.574Zm3.838,13.074c0,.827-.673,1.5-1.5,1.5s-1.5-.673-1.5-1.5v-1.5h3v1.5Zm0-2.5h-3v-3h3v3Zm0-4h-3v-3h2.993c.004,.127,.007,.254,.007,.381v2.619ZM12,7c-2.757,0-5,2.243-5,5v9.5c0,1.378,1.121,2.5,2.5,2.5h5c1.379,0,2.5-1.122,2.5-2.5V12c0-2.757-2.243-5-5-5Zm-2,16h-.5c-.827,0-1.5-.673-1.5-1.5V12c0-1.478,.805-2.771,2-3.463v14.463Zm3,0h-2V8.127c.32-.083,.655-.127,1-.127s.68,.044,1,.127v14.873Zm3-1.5c0,.827-.673,1.5-1.5,1.5h-.5V8.537c1.195,.693,2,1.986,2,3.463v9.5Z"/></svg>
