<?xml version="1.0" encoding="UTF-8"?>
<svg xmlns="http://www.w3.org/2000/svg" id="Layer_1" data-name="Layer 1" viewBox="0 0 24 24" width="512" height="512"><path d="m20.003,10.002h-2v-1.5c0-1.356-1.086-2.463-2.434-2.498l.467-.467c.378-.377.586-.879.586-1.414s-.208-1.036-.586-1.414l-2.122-2.122c-.756-.756-2.072-.756-2.828,0l-1.109,1.109C9.831.737,9.001,0,8.001,0h-3C3.898,0,3.001.898,3.001,2.001v3c0,.369.101.715.276,1.012-1.273.115-2.274,1.187-2.274,2.489v11c0,2.481,2.019,4.5,4.5,4.5h8c2.312,0,4.223-1.753,4.472-4h2.028c1.654,0,3-1.346,3-3v-4c0-1.654-1.346-3-3-3ZM11.794,1.294c.378-.378,1.036-.378,1.414,0l2.122,2.122c.189.189.293.44.293.707s-.104.518-.293.707l-1.112,1.112c-.019.019-.036.039-.051.061h-3.332c-.016-.021-1.163-1.173-1.163-1.173-.189-.189-.293-.44-.293-.707s.104-.518.293-.707l2.122-2.122Zm-7.793.707c0-.551.449-1,1-1h3c.551,0,1,.449,1,1v.672l-.036.036c-.378.378-.586.88-.586,1.414s.208,1.037.586,1.414l.466.466h-4.411c-.007,0-.013,0-.019,0-.551,0-1-.449-1-1v-3Zm9.502,21.001H5.503c-1.93,0-3.5-1.57-3.5-3.5v-11c0-.827.673-1.5,1.5-1.5h12c.827,0,1.5.673,1.5,1.5v11c0,1.93-1.57,3.5-3.5,3.5Zm8.5-6c0,1.103-.897,2-2,2h-2v-8h2c1.103,0,2,.897,2,2v4Z"/></svg>
