<?xml version="1.0" encoding="UTF-8"?>
<svg xmlns="http://www.w3.org/2000/svg" id="Layer_1" data-name="Layer 1" viewBox="0 0 24 24" width="512" height="512"><path d="M4.5,5c1.38,0,2.5-1.12,2.5-2.5S5.88,0,4.5,0,2,1.12,2,2.5s1.12,2.5,2.5,2.5Zm0-4c.83,0,1.5,.67,1.5,1.5s-.67,1.5-1.5,1.5-1.5-.67-1.5-1.5,.67-1.5,1.5-1.5Zm3.61,14.83c-.31,.35-.69,.63-1.11,.83v6.84c0,.28-.22,.5-.5,.5s-.5-.22-.5-.5v-6.54c-.16,.02-.33,.04-.5,.04H3.5c-.17,0-.34-.01-.5-.04v6.54c0,.28-.22,.5-.5,.5s-.5-.22-.5-.5v-6.84c-1.18-.56-2-1.77-2-3.16v-4c0-1.93,1.57-3.5,3.5-3.5h2c.4,0,.79,.07,1.17,.2,.26,.09,.4,.38,.3,.64-.09,.26-.38,.4-.64,.3-.27-.09-.55-.14-.83-.14H3.5c-1.38,0-2.5,1.12-2.5,2.5v4c0,1.38,1.12,2.5,2.5,2.5h2c.71,0,1.39-.3,1.86-.83,.19-.21,.5-.22,.71-.04,.21,.18,.22,.5,.04,.71ZM19.5,5c1.38,0,2.5-1.12,2.5-2.5s-1.12-2.5-2.5-2.5-2.5,1.12-2.5,2.5,1.12,2.5,2.5,2.5Zm0-4c.83,0,1.5,.67,1.5,1.5s-.67,1.5-1.5,1.5-1.5-.67-1.5-1.5,.67-1.5,1.5-1.5Zm4.5,8.5v4c0,1.39-.82,2.6-2,3.16v6.84c0,.28-.22,.5-.5,.5s-.5-.22-.5-.5v-6.54c-.16,.02-.33,.04-.5,.04h-2c-.17,0-.34-.01-.5-.04v6.54c0,.28-.22,.5-.5,.5s-.5-.22-.5-.5v-6.84c-.42-.2-.79-.48-1.11-.83-.18-.21-.17-.52,.04-.71,.2-.18,.52-.17,.71,.04,.47,.53,1.15,.83,1.86,.83h2c1.38,0,2.5-1.12,2.5-2.5v-4c0-1.38-1.12-2.5-2.5-2.5h-2c-.29,0-.57,.05-.83,.14-.26,.09-.55-.04-.64-.3-.09-.26,.04-.55,.3-.64,.37-.13,.77-.2,1.17-.2h2c1.93,0,3.5,1.57,3.5,3.5Zm-7.58,2.39l-2.05,1.99c-.1,.09-.22,.14-.35,.14s-.26-.05-.36-.15c-.19-.2-.19-.51,0-.71l2.04-1.99c.06-.06,.1-.12,.14-.18h-7.72c.04,.07,.09,.13,.15,.19l2.04,1.98c.2,.19,.2,.51,0,.71-.1,.1-.23,.15-.36,.15s-.25-.05-.35-.14l-2.04-1.99c-.38-.38-.58-.88-.58-1.38,0,0,0,0,0-.01s0,0,0-.01c0-.5,.19-1,.58-1.38l2.05-1.99c.2-.19,.51-.19,.71,0s.19,.51,0,.71l-2.04,1.99c-.06,.06-.1,.12-.14,.18h7.72c-.04-.07-.09-.13-.15-.19l-2.04-1.98c-.2-.19-.2-.51,0-.71,.19-.2,.51-.2,.71,0l2.04,1.99c.37,.37,.57,.86,.58,1.35,0,.02,0,.03,0,.05s0,.03,0,.05c-.01,.49-.2,.97-.57,1.34Z"/></svg>
