<?xml version="1.0" encoding="UTF-8"?>
<svg xmlns="http://www.w3.org/2000/svg" id="Layer_1" data-name="Layer 1" viewBox="0 0 24 24" width="512" height="512"><path d="m17,10c0,.276-.224.5-.5.5h-4v4c0,.276-.224.5-.5.5s-.5-.224-.5-.5v-4h-4c-.276,0-.5-.224-.5-.5s.224-.5.5-.5h4v-4c0-.276.224-.5.5-.5s.5.224.5.5v4h4c.276,0,.5.224.5.5Zm7-6.5v13c0,1.93-1.57,3.5-3.5,3.5h-3.532l-3.985,3.295c-.275.245-.626.368-.979.368-.356,0-.715-.126-1.001-.379l-3.897-3.284h-3.606c-1.93,0-3.5-1.57-3.5-3.5V3.5C0,1.57,1.57,0,3.5,0h17c1.93,0,3.5,1.57,3.5,3.5Zm-1,0c0-1.378-1.122-2.5-2.5-2.5H3.5c-1.378,0-2.5,1.122-2.5,2.5v13c0,1.378,1.122,2.5,2.5,2.5h3.789c.118,0,.232.042.322.118l4.047,3.41c.198.176.485.178.675.008l4.137-3.421c.09-.074.203-.115.319-.115h3.711c1.378,0,2.5-1.122,2.5-2.5V3.5Z"/></svg>
