<?xml version="1.0" encoding="UTF-8"?>
<svg xmlns="http://www.w3.org/2000/svg" id="Layer_1" data-name="Layer 1" viewBox="0 0 24 24" width="512" height="512"><path d="M23.85,23.15l-3.02-3.02c4.33-4.7,4.21-12.05-.35-16.61-.2-.2-.51-.2-.71,0s-.2,.51,0,.71c4.17,4.17,4.28,10.88,.35,15.19l-2.83-2.83c1.11-1.27,1.71-2.88,1.71-4.58,0-1.87-.73-3.63-2.05-4.95-.2-.2-.51-.2-.71,0s-.2,.51,0,.71c2.22,2.22,2.33,5.76,.34,8.12l-2.86-2.86c.18-.3,.28-.65,.28-1.02,0-.53-.21-1.04-.59-1.41-.63-.63-1.66-.74-2.43-.3L.85,.15C.66-.05,.34-.05,.15,.15S-.05,.66,.15,.85L23.15,23.85c.1,.1,.23,.15,.35,.15s.26-.05,.35-.15c.2-.2,.2-.51,0-.71ZM12.71,11.29c.19,.19,.29,.44,.29,.71,0,.09-.01,.18-.03,.26l-1.22-1.22c.33-.08,.71,0,.96,.25ZM4.22,19.78c.2,.2,.2,.51,0,.71-.1,.1-.23,.15-.35,.15s-.26-.05-.35-.15C-.42,16.55-1.15,10.48,1.76,5.74c.14-.23,.45-.31,.69-.17,.24,.14,.31,.45,.17,.69C-.05,10.61,.61,16.17,4.22,19.78Zm3.54-3.54c.2,.2,.2,.51,0,.71-.1,.1-.23,.15-.35,.15s-.26-.05-.35-.15c-2.01-2.01-2.61-5.01-1.51-7.64,.11-.26,.4-.38,.65-.27,.26,.11,.38,.4,.27,.65-.94,2.25-.43,4.82,1.3,6.55Z"/></svg>
