<?xml version="1.0" encoding="UTF-8"?>
<svg xmlns="http://www.w3.org/2000/svg" id="Layer_1" data-name="Layer 1" viewBox="0 0 24 24" width="512" height="512"><path d="M18,18c0,.55-.45,1-1,1s-1-.45-1-1,.45-1,1-1,1,.45,1,1Zm2-3c-.55,0-1,.45-1,1s.45,1,1,1,1-.45,1-1-.45-1-1-1Zm0,4c-.55,0-1,.45-1,1s.45,1,1,1,1-.45,1-1-.45-1-1-1Zm3-2c-.55,0-1,.45-1,1s.45,1,1,1,1-.45,1-1-.45-1-1-1Zm0-4c-.55,0-1,.45-1,1s.45,1,1,1,1-.45,1-1-.45-1-1-1Zm0,8c-.55,0-1,.45-1,1s.45,1,1,1,1-.45,1-1-.45-1-1-1Zm-15,.5v-.5h.99c2.11,0,3.96-1.5,4.4-3.57l.52-2.43h.55c1.13,0,1.55-.87,1.55-1.45,0-1.28-2.85-7.44-4.23-9.14C9.35,1.16,5.34-.48,1.32,.13c-.32,.05-.63,.11-.94,.19C.11,.39-.05,.66,.02,.93s.34,.43,.61,.36c.28-.07,.56-.13,.84-.17,3.66-.56,7.3,.94,9.52,3.9,1.41,1.74,4.01,7.67,4.01,8.52,0,.21-.11,.46-.55,.46h-.96c-.24,0-.44,.17-.49,.4l-.6,2.83c-.34,1.61-1.78,2.77-3.42,2.77h-1.49c-.28,0-.5,.22-.5,.5v1c0,.83-.67,1.5-1.5,1.5H.5c-.28,0-.5,.22-.5,.5s.22,.5,.5,.5H5.5c1.38,0,2.5-1.12,2.5-2.5Z"/></svg>
