<?xml version="1.0" encoding="UTF-8"?>
<svg xmlns="http://www.w3.org/2000/svg" id="Layer_1" data-name="Layer 1" viewBox="0 0 24 24" width="512" height="512"><path d="M17.5,20H4.5c-2.481,0-4.5-2.019-4.5-4.5v-7c0-2.481,2.019-4.5,4.5-4.5h13c2.312,0,4.223,1.753,4.473,4h.527c.827,0,1.5,.673,1.5,1.5v5c0,.827-.673,1.5-1.5,1.5h-.527c-.25,2.247-2.16,4-4.473,4ZM4.5,5c-1.93,0-3.5,1.57-3.5,3.5v7c0,1.93,1.57,3.5,3.5,3.5h13c1.93,0,3.5-1.57,3.5-3.5,0-.276,.224-.5,.5-.5h1c.275,0,.5-.224,.5-.5v-5c0-.276-.225-.5-.5-.5h-1c-.276,0-.5-.224-.5-.5,0-1.93-1.57-3.5-3.5-3.5H4.5Z"/></svg>
