<?xml version="1.0" encoding="UTF-8"?>
<svg xmlns="http://www.w3.org/2000/svg" id="Layer_1" data-name="Layer 1" viewBox="0 0 24 24">
  <path d="m11.62,15.619l-5.646,5.647-3.24-3.239,5.76-5.76c.195-.195.195-.512,0-.707s-.512-.195-.707,0l-6.356,6.356c-.922.921-1.43,2.147-1.43,3.451v2.132c0,.276.224.5.5.5h2.132c1.303,0,2.529-.508,3.451-1.43l6.244-6.244c.195-.195.195-.512,0-.707s-.512-.195-.707,0ZM1,23v-1.632c0-.985.365-1.913,1.029-2.632l3.235,3.234c-.719.665-1.648,1.029-2.632,1.029h-1.632Zm22.854.146l-9.148-9.148,8.33-8.382c1.283-1.283,1.283-3.37,0-4.653-1.283-1.283-3.371-1.282-4.652,0l-8.383,8.331L.854.146C.658-.049.342-.049.146.146S-.049.658.146.854l23,23c.098.098.226.146.354.146s.256-.049.354-.146c.195-.195.195-.512,0-.707ZM19.09,1.671c.894-.893,2.346-.893,3.239,0,.893.894.893,2.346,0,3.24l-2.978,2.996-3.258-3.257,2.997-2.979Zm-3.706,3.684l3.262,3.262-4.647,4.675-3.291-3.291,4.675-4.647Z"/>
</svg>
