<?xml version="1.0" encoding="UTF-8"?>
<svg xmlns="http://www.w3.org/2000/svg" id="Layer_1" data-name="Layer 1" viewBox="0 0 24 24" width="512" height="512"><path d="M10.407,13.008L1.168,14.695c-.497,.09-.899,.427-1.075,.901-.177,.473-.093,.991,.224,1.385l1.259,1.565-1.004,2.805c-.184,.59-.027,1.23,.407,1.67,.435,.44,1.077,.604,1.664,.426,.01-.003,.02-.006,.029-.01l2.75-1.008,1.582,1.259c.258,.206,.568,.312,.884,.312,.169,0,.34-.03,.505-.092,.473-.177,.81-.58,.901-1.077l1.695-9.241c.029-.162-.022-.328-.139-.444-.116-.117-.281-.168-.443-.138Zm-2.098,9.643c-.039,.213-.2,.296-.269,.321-.066,.026-.242,.071-.414-.065l-1.802-1.434c-.09-.072-.2-.109-.312-.109-.058,0-.116,.01-.172,.031l-2.997,1.098c-.24,.065-.482,.001-.655-.175-.177-.179-.238-.429-.17-.649l1.092-3.049c.059-.164,.028-.346-.081-.482l-1.435-1.784c-.135-.167-.091-.342-.066-.409,.025-.067,.106-.228,.318-.267l8.527-1.557-1.565,8.529Zm6.324-8.356l1.723,1.705,1.784-1.842c.192-.198,.51-.203,.707-.012,.198,.192,.204,.509,.012,.707l-1.786,1.844c-.188,.193-.439,.3-.707,.303h-.01c-.265,0-.515-.103-.703-.29l-1.723-1.705-1.072,1.1c-.194,.199-.511,.202-.707,.01-.198-.193-.202-.509-.01-.707l1.078-1.107c.396-.39,1.026-.391,1.414-.007Zm3.144-7.379l-2.376,1.584,2.376,1.584c.229,.153,.292,.463,.139,.693-.097,.145-.255,.223-.416,.223-.096,0-.192-.027-.277-.084l-3-2c-.139-.093-.223-.249-.223-.416s.084-.323,.223-.416l3-2c.228-.153,.538-.091,.693,.139,.153,.23,.091,.54-.139,.693Zm-11.555,3.168l2.376-1.584-2.376-1.584c-.229-.153-.292-.463-.139-.693s.466-.291,.693-.139l3,2c.139,.093,.223,.249,.223,.416s-.084,.323-.223,.416l-3,2c-.085,.057-.182,.084-.277,.084-.161,0-.319-.078-.416-.223-.153-.23-.091-.54,.139-.693Zm17.777,1.916c0,6.617-5.383,12-12,12-.176,0-.349-.003-.522-.011-.275-.012-.489-.246-.477-.521,.012-.275,.207-.51,.521-.478,.158,.007,.317,.01,.478,.01,6.065,0,11-4.935,11-11S18.065,1,12,1,1,5.935,1,12c0,.161,.004,.32,.011,.479,.011,.276-.203,.509-.479,.52-.281,.016-.509-.204-.521-.479-.007-.173-.011-.346-.011-.521C0,5.383,5.383,0,12,0s12,5.383,12,12Z"/></svg>
