<?xml version="1.0" encoding="UTF-8"?>
<svg xmlns="http://www.w3.org/2000/svg" id="Layer_1" data-name="Layer 1" viewBox="0 0 24 24" width="512" height="512"><path d="M10.5,17H5.5c-.28,0-.5-.22-.5-.5v-7.79l3.85-3.85c.14-.14,.19-.36,.11-.54s-.26-.31-.46-.31h-3c-.83,0-1.5,.67-1.5,1.5v11c0,.83,.67,1.5,1.5,1.5h5c.28,0,.5-.22,.5-.5s-.22-.5-.5-.5ZM5,5.5c0-.28,.22-.5,.5-.5h1.79l-2.29,2.29v-1.79Zm12,5V5.5c0-.28-.22-.5-.5-.5h-2.17c-.39,0-.78,.16-1.06,.44l-3.83,3.83c-.28,.28-.44,.66-.44,1.06v2.17c0,.28,.22,.5,.5,.5h3c.28,0,.5-.22,.5-.5v-3c0-.28,.22-.5,.5-.5s.5,.22,.5,.5v3c0,.83-.67,1.5-1.5,1.5h-3c-.83,0-1.5-.67-1.5-1.5v-2.17c0-.67,.26-1.3,.73-1.77l3.83-3.83c.47-.47,1.1-.73,1.77-.73h2.17c.83,0,1.5,.67,1.5,1.5v5c0,.28-.22,.5-.5,.5s-.5-.22-.5-.5Zm-8,11c0,.28-.22,.5-.5,.5H4.5c-2.48,0-4.5-2.02-4.5-4.5V4.5C0,2.02,2.02,0,4.5,0h13c2.48,0,4.5,2.02,4.5,4.5v4c0,.28-.22,.5-.5,.5s-.5-.22-.5-.5V4.5c0-1.93-1.57-3.5-3.5-3.5H4.5c-1.93,0-3.5,1.57-3.5,3.5v13c0,1.93,1.57,3.5,3.5,3.5h4c.28,0,.5,.22,.5,.5Zm14.27-9.77c-.97-.97-2.56-.97-3.54,0l-7.71,7.71c-.65,.65-1.03,1.55-1.03,2.47v1.59c0,.28,.22,.5,.5,.5h1.59c.94,0,1.81-.36,2.47-1.03l7.71-7.71c.47-.47,.73-1.1,.73-1.77s-.26-1.3-.73-1.77Zm-.71,2.83l-7.71,7.71c-.47,.47-1.1,.73-1.77,.73h-1.09v-1.09c0-.66,.27-1.3,.73-1.77l7.71-7.71c.58-.58,1.54-.58,2.12,0,.28,.28,.44,.66,.44,1.06s-.16,.78-.44,1.06Z"/></svg>
