<?xml version="1.0" encoding="UTF-8"?>
<svg xmlns="http://www.w3.org/2000/svg" id="Layer_1" data-name="Layer 1" viewBox="0 0 24 24" width="512" height="512"><path d="m17.786,6.964c-.484-.259-.786-.762-.786-1.312V1h1.5c.276,0,.5-.224.5-.5s-.224-.5-.5-.5H5.5c-.276,0-.5.224-.5.5s.224.5.5.5h1.5v4.604c0,.553-.304,1.058-.794,1.315C2.378,8.937,0,12.772,0,16.929c0,.022.056,1.246.151,1.812.514,3.047,3.198,5.259,6.384,5.259h10.93c3.186,0,5.87-2.211,6.384-5.259.101-.597.151-1.207.151-1.812,0-4.097-2.381-7.916-6.214-9.964Zm-11.113.839c.818-.432,1.327-1.274,1.327-2.2V1h8v4.653c0,.919.504,1.76,1.315,2.193,2.637,1.41,4.523,3.729,5.296,6.377-.566.34-3.119,1.776-5.872,1.776-1.834,0-3.151-.472-4.546-.971-1.414-.506-2.876-1.029-4.884-1.029-2.468,0-5.001,1.301-6.271,2.061.304-3.445,2.405-6.555,5.634-8.257Zm16.189,10.771c-.425,2.522-2.745,4.425-5.397,4.425H6.535c-2.652,0-4.973-1.902-5.397-4.425-.073-.433-.117-.873-.132-1.313.798-.521,3.663-2.262,6.303-2.262,1.834,0,3.151.472,4.546.971,1.414.506,2.876,1.029,4.884,1.029,2.701,0,5.153-1.216,6.111-1.757.099.553.15,1.116.15,1.686,0,.55-.046,1.104-.138,1.646Z"/></svg>
