<?xml version="1.0" encoding="UTF-8"?>
<svg xmlns="http://www.w3.org/2000/svg" id="Layer_1" data-name="Layer 1" viewBox="0 0 24 24" width="512" height="512"><path d="m23.854,23.146l-3.611-3.611c1.071-.616,1.758-1.769,1.758-3.035V5.5c0-1.93-1.57-3.5-3.5-3.5H5.5c-.76,0-1.493.246-2.096.697L.854.146C.658-.049.342-.049.146.146S-.049.658.146.854l23,23c.098.098.226.146.354.146s.256-.049.354-.146c.195-.195.195-.512,0-.707ZM5.5,3h13c1.379,0,2.5,1.121,2.5,2.5v11c0,.998-.596,1.897-1.501,2.292L4.121,3.414c.407-.269.885-.414,1.379-.414Zm10.809,16.182c.176.213.146.527-.067.704l-3.379,2.793c-.241.215-.548.322-.857.322-.313,0-.63-.11-.881-.335l-3.166-2.666h-2.458c-1.93,0-3.5-1.57-3.5-3.5V6.5c0-.276.224-.5.5-.5s.5.224.5.5v10c0,1.379,1.121,2.5,2.5,2.5h2.641c.118,0,.232.042.322.117l3.315,2.793c.131.118.312.114.434.01l3.393-2.806c.211-.177.526-.146.704.067Z"/></svg>
