<?xml version="1.0" encoding="UTF-8"?>
<svg xmlns="http://www.w3.org/2000/svg" id="Layer_1" data-name="Layer 1" viewBox="0 0 24 24" width="512" height="512"><path d="m22,9.5c0,3.009-1.383,5.774-3.794,7.585-1.147.863-2.101,2.069-2.833,3.585-.45.933-1.116,1.713-1.979,2.32-.957.673-2.075,1.006-3.212,1.006-1.314,0-2.652-.446-3.793-1.328-1.434-1.108-2.23-2.497-2.368-4.127-.023-.275.181-.518.456-.541.247-.03.518.18.54.456.114,1.34.781,2.491,1.983,3.421,1.775,1.372,4.113,1.493,5.818.295.722-.508,1.278-1.16,1.653-1.937.802-1.662,1.855-2.991,3.132-3.95,2.158-1.621,3.396-4.095,3.396-6.786,0-2.417-1.034-4.728-2.838-6.339-1.829-1.635-4.19-2.386-6.65-2.105-3.78.425-6.903,3.465-7.427,7.229-.078.563-.119,1.606-.086,2.187.016.275-.194.512-.47.528-.298.018-.512-.195-.528-.47-.037-.644.007-1.757.094-2.382C3.68,3.938,7.173.537,11.4.062c2.751-.308,5.386.528,7.429,2.354,2.015,1.801,3.171,4.384,3.171,7.085Zm-9.5-4.499c2.481,0,4.5,2.019,4.5,4.5,0,.276.224.5.5.5s.5-.224.5-.5c0-3.033-2.468-5.5-5.5-5.5-2.824,0-5.188,2.102-5.5,4.943v.198c0,1.024.834,1.858,1.858,1.858,1.094,0,2.03.788,2.132,1.792.104,1.042-.595,2.016-1.59,2.218-.271.055-.445.319-.391.59.049.237.257.4.489.4.033,0,.067-.003.101-.01,1.491-.303,2.539-1.751,2.385-3.298-.151-1.509-1.524-2.691-3.126-2.692-.474,0-.858-.385-.858-.858l-.003-.143c.253-2.28,2.188-3.999,4.503-3.999Z"/></svg>
