<?xml version="1.0" encoding="UTF-8"?>
<svg xmlns="http://www.w3.org/2000/svg" id="Layer_1" data-name="Layer 1" viewBox="0 0 24 24" width="512" height="512"><path d="M8.599,17.797c-.164-.222-.118-.534,.103-.698,.061-.045,1.497-1.099,3.299-1.099s3.238,1.054,3.299,1.099c.221,.165,.267,.477,.103,.698-.099,.132-.249,.202-.402,.202-.104,0-.207-.032-.297-.098-.012-.009-1.239-.902-2.702-.902s-2.69,.893-2.702,.902c-.224,.164-.534,.117-.699-.104Zm14.401,2.703c0,.712-.305,1.393-.837,1.867-.46,.409-1.055,.632-1.668,.632-.097,0-.193-.005-.29-.017-1.241-.143-2.189-1.254-2.206-2.583-.017-1.417-.454-2.967-.858-3.708-.229-.419-.174-.927,.142-1.291,.317-.368,.815-.497,1.27-.328,2.143,.798,4.448,2.836,4.448,5.427Zm-1,0c0-2.256-2.271-3.921-3.798-4.489-.02-.007-.037-.01-.054-.01-.054,0-.091,.032-.11,.055-.043,.05-.05,.103-.02,.157,.474,.868,.962,2.58,.98,4.175,.01,.814,.59,1.518,1.321,1.603,.43,.046,.854-.081,1.177-.369,.319-.285,.503-.693,.503-1.121Zm-3.161-9.629c.203-.187,.216-.503,.028-.707-.187-.202-.504-.215-.706-.028-.847,.781-2.767,1.471-4.317,.004-.201-.189-.518-.18-.707,.02-.189,.201-.181,.517,.02,.707,.849,.802,1.835,1.137,2.788,1.137,1.097,0,2.149-.444,2.895-1.133Zm-7.972-.71c-.187-.201-.503-.215-.706-.028-.846,.781-2.768,1.471-4.317,.004-.201-.19-.517-.18-.707,.02-.189,.201-.181,.517,.02,.707,.849,.802,1.835,1.137,2.788,1.137,1.097,0,2.149-.444,2.895-1.133,.203-.187,.216-.503,.028-.707ZM12,0C5.383,0,0,5.383,0,12s5.383,12,12,12c1.436,0,2.84-.251,4.174-.746,.259-.096,.391-.384,.295-.643-.097-.259-.382-.392-.643-.295-1.223,.454-2.51,.684-3.826,.684-6.065,0-11-4.935-11-11S5.935,1,12,1s11,4.935,11,11c0,.973-.127,1.938-.378,2.87-.072,.267,.086,.541,.353,.613,.265,.074,.541-.086,.612-.353,.274-1.016,.413-2.069,.413-3.13C24,5.383,18.617,0,12,0Z"/></svg>
