<?xml version="1.0" encoding="UTF-8"?>
<svg xmlns="http://www.w3.org/2000/svg" id="Layer_1" data-name="Layer 1" viewBox="0 0 24 24">
  <path d="m12.027,23.148c.194.196.192.513-.004.707-.097.097-.225.145-.352.145-.129,0-.258-.049-.355-.148L2.023,14.473c-.659-.659-1.023-1.538-1.023-2.473s.364-1.814,1.025-2.475L11.316.148c.194-.196.513-.198.707-.003.196.194.198.511.004.707L2.734,10.231c-.475.474-.734,1.101-.734,1.769s.26,1.295.732,1.768l9.295,9.38Zm.412-10.088c-.283-.283-.439-.659-.439-1.06s.156-.777.442-1.063L22.356.851c.193-.197.191-.514-.006-.707-.196-.193-.513-.192-.707.006l-9.911,10.083c-.473.472-.732,1.1-.732,1.768s.26,1.296.729,1.765l9.914,10.086c.098.1.228.149.356.149.127,0,.253-.048.351-.144.197-.193.199-.51.006-.707l-9.917-10.089Z"/>
</svg>
