<?xml version="1.0" encoding="UTF-8"?>
<svg xmlns="http://www.w3.org/2000/svg" id="Layer_1" data-name="Layer 1" viewBox="0 0 24 24" width="512" height="512"><path d="M23.72,9.39c.19,.85,.28,1.73,.28,2.61,0,6.62-5.38,12-12,12S0,18.62,0,12,5.38,0,12,0c.88,0,1.76,.1,2.61,.28,.27,.06,.44,.33,.38,.6-.06,.27-.33,.44-.6,.38-.78-.17-1.59-.26-2.39-.26C5.93,1,1,5.93,1,12s4.93,11,11,11,11-4.93,11-11c0-.81-.09-1.61-.26-2.39-.06-.27,.11-.54,.38-.6,.27-.06,.54,.11,.6,.38ZM13.4,5.14c.27,.05,.53-.12,.59-.39,.05-.27-.12-.53-.39-.59-.52-.11-1.06-.16-1.6-.16-4.41,0-8,3.59-8,8s3.59,8,8,8,8-3.59,8-8c0-.54-.05-1.08-.16-1.6-.05-.27-.32-.44-.59-.39-.27,.06-.45,.32-.39,.59,.09,.46,.14,.93,.14,1.4,0,3.86-3.14,7-7,7s-7-3.14-7-7,3.14-7,7-7c.47,0,.94,.05,1.4,.14Zm-1.83,3.89c.27-.04,.46-.29,.42-.57s-.29-.47-.57-.42c-1.96,.28-3.43,1.98-3.43,3.96,0,2.21,1.79,4,4,4,1.98,0,3.68-1.47,3.96-3.43,.04-.27-.15-.53-.42-.57-.27-.04-.53,.15-.57,.42-.21,1.47-1.49,2.57-2.97,2.57-1.65,0-3-1.35-3-3,0-1.48,1.1-2.76,2.57-2.97Zm4.43-1.74v-2.96c0-.67,.26-1.3,.73-1.77L19.15,.15c.14-.14,.36-.19,.54-.11,.19,.08,.31,.26,.31,.46v3.5h3.5c.2,0,.38,.12,.46,.31,.08,.19,.03,.4-.11,.54l-2.41,2.41c-.47,.47-1.1,.73-1.77,.73h-2.96l-4.35,4.35c-.1,.1-.23,.15-.35,.15s-.26-.05-.35-.15c-.2-.2-.2-.51,0-.71l4.35-4.35Zm1-.29h2.67c.4,0,.78-.16,1.06-.44l1.56-1.56h-2.79c-.28,0-.5-.22-.5-.5V1.71l-1.56,1.56c-.28,.28-.44,.66-.44,1.06v2.67Z"/></svg>
