<?xml version="1.0" encoding="UTF-8"?>
<svg xmlns="http://www.w3.org/2000/svg" id="Layer_1" data-name="Layer 1" viewBox="0 0 24 24" width="512" height="512"><path d="M22.209,10.788c-.779-1.129-1.209-2.119-1.209-2.788v-3.435c0-2.307-1.718-4.229-3.997-4.472-.086-.009-.747-.093-1.503-.093h-7c-.603,0-1.417,.084-1.503,.093-2.279,.243-3.997,2.166-3.997,4.472v3.435c0,.669-.43,1.659-1.209,2.788-.518,.749-.791,1.629-.791,2.546v6.166c0,2.481,2.019,4.5,4.5,4.5h13c2.481,0,4.5-2.019,4.5-4.5v-6.166c0-.917-.273-1.797-.791-2.546Zm-10.709,12.212H5.5c-1.93,0-3.5-1.57-3.5-3.5v-6.166c0-.713,.212-1.397,.613-1.978,.633-.916,1.387-2.241,1.387-3.356v-3.435c0-1.794,1.334-3.289,3.103-3.478l.087-.009,4.311,11.016v10.905ZM8.235,1.006c.166-.006,.263-.006,.265-.006h7s.099,0,.265,.006l-3.765,9.622L8.235,1.006Zm13.765,18.494c0,1.93-1.57,3.5-3.5,3.5h-6V12.095L16.811,1.078l.087,.009c1.769,.189,3.103,1.684,3.103,3.478v3.435c0,1.115,.754,2.441,1.387,3.356,.401,.581,.613,1.265,.613,1.978v6.166ZM5,12.2v1.6c0,.662,.538,1.2,1.2,1.2h1.6c.662,0,1.2-.539,1.2-1.2v-1.6c0-.662-.538-1.2-1.2-1.2h-1.6c-.662,0-1.2,.539-1.2,1.2Zm3,0v1.6c0,.11-.09,.2-.2,.2h-1.6c-.11,0-.2-.09-.2-.2v-1.6c0-.11,.09-.2,.2-.2h1.6c.11,0,.2,.09,.2,.2Zm10.611-.605c-.498-.745-1.725-.745-2.223,0l-1.17,1.755c-.218,.326-.238,.744-.053,1.089,.185,.346,.544,.561,.937,.561h2.795c.393,0,.752-.215,.937-.561,.186-.346,.165-.763-.053-1.089l-1.17-1.755Zm.286,2.405l-2.85-.033c-.018-.032-.003-.054,.003-.062l1.17-1.755c.09-.135,.226-.149,.279-.149s.189,.015,.279,.149l1.17,1.755-.052,.096Zm-11.897,3c-1.103,0-2,.897-2,2s.897,2,2,2,2-.897,2-2-.897-2-2-2Zm0,3c-.552,0-1-.449-1-1s.448-1,1-1,1,.449,1,1-.448,1-1,1Z"/></svg>
