<?xml version="1.0" encoding="UTF-8"?>
<svg xmlns="http://www.w3.org/2000/svg" id="Layer_1" data-name="Layer 1" viewBox="0 0 24 24" width="512" height="512"><path d="m12,15c-.276,0-.5-.224-.5-.5V5.5c0-.276.224-.5.5-.5s.5.224.5.5v9c0,.276-.224.5-.5.5Zm-1,3c0,.552.448,1,1,1s1-.448,1-1-.448-1-1-1-1,.448-1,1Zm12.511-6c-.264.015-.509.203-.521.479-.252,5.9-5.08,10.521-10.99,10.521-3.746,0-7.163-1.854-9.207-4.978.067-.014.136-.022.207-.022h4.5c.276,0,.5-.224.5-.5s-.224-.5-.5-.5H3c-1.103,0-2,.897-2,2v4.5c0,.276.224.5.5.5s.5-.224.5-.5v-4.5c0-.103.016-.203.045-.297,2.238,3.326,5.921,5.297,9.955,5.297,6.447,0,11.713-5.042,11.989-11.479.012-.276-.202-.509-.478-.521ZM12,1c3.746,0,7.163,1.854,9.207,4.978-.067.014-.136.022-.207.022h-4.5c-.276,0-.5.224-.5.5s.224.5.5.5h4.5c1.103,0,2-.897,2-2V.5c0-.276-.224-.5-.5-.5s-.5.224-.5.5v4.5c0,.103-.016.203-.045.297C19.717,1.971,16.034,0,12,0,5.553,0,.287,5.042.011,11.479c-.012.276.202.509.478.521h.022c.266,0,.488-.21.499-.479C1.263,5.621,6.09,1,12,1Z"/></svg>
