<?xml version="1.0" encoding="UTF-8"?>
<svg xmlns="http://www.w3.org/2000/svg" id="Layer_1" data-name="Layer 1" viewBox="0 0 24 24" width="512" height="512"><path d="M20.5,0h-4.5c-1.103,0-2,.897-2,2v1.785c0,.158,.075,.308,.202,.401,.127,.096,.291,.124,.443,.077,.595-.182,1.119-.264,1.354-.264,.551,0,1,.448,1,1s-.449,1-1,1c-.235,0-.759-.082-1.354-.264-.153-.047-.316-.02-.443,.077-.127,.094-.202,.243-.202,.401v1.785c0,1.103,.897,2,2,2h1.136c-.086,.389-.136,.744-.136,1,0,1.103,.897,2,2,2s2-.897,2-2c0-.256-.05-.611-.136-1h1.136c1.103,0,2-.897,2-2V3.5c0-1.93-1.57-3.5-3.5-3.5Zm2.5,8c0,.552-.449,1-1,1h-1.785c-.158,0-.307,.075-.402,.202-.094,.127-.123,.292-.077,.443,.181,.595,.263,1.119,.263,1.354,0,.552-.449,1-1,1s-1-.448-1-1c0-.235,.083-.76,.263-1.354,.046-.151,.018-.316-.077-.443-.095-.127-.244-.202-.402-.202h-1.785c-.551,0-1-.448-1-1v-1.137c.389,.087,.745,.137,1,.137,1.103,0,2-.897,2-2s-.897-2-2-2c-.255,0-.611,.05-1,.137v-1.137c0-.552,.449-1,1-1h4.5c1.378,0,2.5,1.121,2.5,2.5v4.5Zm-6,6h-1.785c-.158,0-.307,.075-.402,.202-.094,.127-.123,.292-.077,.443,.181,.595,.263,1.119,.263,1.354,0,.552-.449,1-1,1s-1-.448-1-1c0-.235,.083-.76,.263-1.354,.046-.151,.018-.316-.077-.443-.095-.127-.244-.202-.402-.202h-2.785V7c0-1.103-.897-2-2-2H3.5c-1.93,0-3.5,1.57-3.5,3.5v12c0,1.93,1.57,3.5,3.5,3.5H15.5c1.93,0,3.5-1.57,3.5-3.5v-4.5c0-1.103-.897-2-2-2ZM1,8.5c0-1.379,1.122-2.5,2.5-2.5h4.5c.551,0,1,.448,1,1v7h-2.136c.086-.389,.136-.744,.136-1,0-1.103-.897-2-2-2s-2,.897-2,2c0,.256,.05,.611,.136,1H1v-5.5Zm8,14.5H3.5c-1.378,0-2.5-1.121-2.5-2.5v-5.5H3.785c.158,0,.307-.075,.402-.202,.094-.127,.123-.292,.077-.443-.181-.595-.263-1.119-.263-1.354,0-.552,.449-1,1-1s1,.448,1,1c0,.235-.083,.76-.263,1.354-.046,.151-.018,.316,.077,.443,.095,.127,.244,.202,.402,.202h2.785v2.137c-.389-.087-.745-.137-1-.137-1.103,0-2,.897-2,2s.897,2,2,2c.255,0,.611-.05,1-.137v2.137Zm9-2.5c0,1.379-1.122,2.5-2.5,2.5h-5.5v-2.785c0-.158-.075-.308-.202-.401-.127-.096-.292-.123-.443-.077-.595,.182-1.119,.264-1.354,.264-.551,0-1-.448-1-1s.449-1,1-1c.235,0,.759,.082,1.354,.264,.151,.045,.315,.018,.443-.077,.127-.094,.202-.243,.202-.401v-2.785h2.136c-.086,.389-.136,.744-.136,1,0,1.103,.897,2,2,2s2-.897,2-2c0-.256-.05-.611-.136-1h1.136c.551,0,1,.448,1,1v4.5Z"/></svg>
