<?xml version="1.0" encoding="UTF-8"?>
<svg xmlns="http://www.w3.org/2000/svg" id="Layer_1" data-name="Layer 1" viewBox="0 0 24 24" width="512" height="512"><path d="m9,6C4.038,6,0,10.038,0,15s4.038,9,9,9,9-4.038,9-9S13.962,6,9,6Zm0,17c-4.411,0-8-3.589-8-8S4.589,7,9,7s8,3.589,8,8-3.589,8-8,8Zm3.855-6.351c.194.196.192.512-.003.706-.068.067-1.685,1.645-3.852,1.645s-3.784-1.577-3.852-1.645c-.196-.194-.198-.509-.004-.706.194-.197.511-.198.707-.006.014.014,1.404,1.356,3.149,1.356s3.135-1.342,3.149-1.356c.196-.193.513-.191.707.005Zm-7.855-3.649c0-.552.448-1,1-1s1,.448,1,1-.448,1-1,1-1-.448-1-1Zm8,0c0,.552-.448,1-1,1s-1-.448-1-1,.448-1,1-1,1,.448,1,1Zm11-8.5c0,.276-.224.5-.5.5h-3.5v3.5c0,.276-.224.5-.5.5s-.5-.224-.5-.5v-3.5h-3.5c-.276,0-.5-.224-.5-.5s.224-.5.5-.5h3.5V.5c0-.276.224-.5.5-.5s.5.224.5.5v3.5h3.5c.276,0,.5.224.5.5Z"/></svg>
