<?xml version="1.0" encoding="UTF-8"?>
<svg xmlns="http://www.w3.org/2000/svg" id="Layer_1" data-name="Layer 1" viewBox="0 0 24 24" width="512" height="512"><path d="M5.514,10.014c.195-.195,.512-.195,.707,0,.195,.195,.195,.512,0,.707l-3.755,3.759c-.942,.942-1.462,2.196-1.462,3.529s.52,2.587,1.462,3.529c.942,.943,2.195,1.462,3.528,1.462s2.587-.519,3.529-1.462l2.988-2.988c.195-.195,.512-.195,.707,0s.195,.512,0,.707l-2.988,2.988c-1.132,1.132-2.636,1.755-4.236,1.755s-3.104-.623-4.235-1.755C.627,21.114,.004,19.609,.004,18.009c0-1.6,.623-3.104,1.755-4.236l3.755-3.759Zm2.037,1.872c-.268,.068-.43,.34-.361,.608,.265,1.039,.808,1.99,1.569,2.752,1.001,1.002,2.329,1.618,3.74,1.735,.014,0,.027,.001,.042,.001,.257,0,.476-.198,.497-.458,.023-.275-.182-.517-.457-.54-1.175-.097-2.281-.61-3.115-1.445-.635-.635-1.087-1.427-1.308-2.292-.067-.267-.335-.431-.607-.361ZM.146,.854L23.146,23.854c.098,.098,.226,.146,.354,.146s.256-.049,.354-.146c.195-.195,.195-.512,0-.707l-7.316-7.316c.243-.18,.479-.372,.693-.586l5.015-5.018c1.132-1.131,1.755-2.636,1.755-4.236,0-1.6-.623-3.104-1.755-4.236-2.336-2.336-6.137-2.336-8.473,0l-2.509,2.509c-.195,.195-.195,.512,0,.707s.512,.195,.707,0l2.509-2.509c1.945-1.946,5.113-1.946,7.059,0,.942,.942,1.462,2.196,1.462,3.529s-.52,2.587-1.462,3.529l-5.015,5.018c-.215,.215-.451,.406-.7,.578l-6.731-6.731c1.843-.768,4.002-.367,5.446,1.077,.605,.605,1.047,1.357,1.276,2.177,.062,.221,.263,.365,.481,.365,.045,0,.09-.006,.135-.019,.267-.075,.421-.351,.347-.617-.276-.984-.806-1.888-1.532-2.613-1.83-1.831-4.619-2.266-6.907-1.124L.854,.146c-.195-.195-.512-.195-.707,0s-.195,.512,0,.707Z"/></svg>
