<?xml version="1.0" encoding="UTF-8"?>
<svg xmlns="http://www.w3.org/2000/svg" id="Layer_1" data-name="Layer 1" viewBox="0 0 24 24" width="512" height="512"><path d="M17.5,0H6.5C4.02,0,2,2.02,2,4.5V20.5c0,1.93,1.57,3.5,3.5,3.5h12c2.48,0,4.5-2.02,4.5-4.5V4.5c0-2.48-2.02-4.5-4.5-4.5Zm3.5,4.5v12.5H7V1h10.5c1.93,0,3.5,1.57,3.5,3.5ZM3,4.5c0-1.76,1.31-3.22,3-3.46v15.96h-.5c-.98,0-1.86,.4-2.5,1.05V4.5Zm14.5,18.5H5.5c-1.38,0-2.5-1.12-2.5-2.5s1.12-2.5,2.5-2.5h15.5v1.5c0,1.93-1.57,3.5-3.5,3.5Zm-7.58-9.03c.26,.09,.55-.04,.64-.3l.97-2.67h4.81l.97,2.67c.07,.2,.27,.33,.47,.33,.06,0,.11,0,.17-.03,.26-.09,.39-.38,.3-.64l-3.07-8.46c-.19-.53-.68-.87-1.25-.87s-1.05,.34-1.24,.87l-3.07,8.46c-.09,.26,.04,.55,.3,.64Zm3.71-8.76c.07-.19,.24-.21,.3-.21s.24,.02,.31,.21l1.74,4.79h-4.08l1.74-4.79Z"/></svg>
