<?xml version="1.0" encoding="UTF-8"?>
<svg xmlns="http://www.w3.org/2000/svg" id="Layer_1" data-name="Layer 1" viewBox="0 0 24 24" width="512" height="512"><path d="M21,18c-1.654,0-3,1.346-3,3s1.346,3,3,3,3-1.346,3-3-1.346-3-3-3Zm0,5c-1.103,0-2-.897-2-2s.897-2,2-2,2,.897,2,2-.897,2-2,2ZM23.567,3.906c.375-.552,.513-1.218,.388-1.874-.125-.656-.498-1.224-1.05-1.599-.552-.375-1.218-.514-1.874-.388-.656,.125-1.224,.498-1.599,1.05L7.702,18.307c-.422,.685-1.324,.898-2.009,.478-.438-.27-.704-.759-.693-1.276,.005-.247,.072-.462,.216-.697,.722-1.174,.356-2.717-.817-3.44-1.174-.723-2.716-.357-3.44,.817-.629,1.021-.952,2.134-.958,3.309-.012,2.279,1.135,4.352,3.07,5.544,1.03,.634,2.19,.959,3.372,.959,.502,0,1.007-.059,1.509-.178,1.681-.399,3.104-1.426,3.995-2.874L23.567,3.906h0ZM11.107,20.406c-.763,1.239-1.966,2.107-3.388,2.445-1.42,.337-2.886,.103-4.125-.661-1.635-1.007-2.604-2.76-2.594-4.688,.005-.988,.278-1.926,.81-2.79,.283-.459,.776-.713,1.28-.713,.268,0,.54,.072,.784,.223,.704,.434,.924,1.36,.49,2.064-.237,.385-.356,.777-.365,1.201-.018,.871,.43,1.693,1.168,2.148,1.155,.71,2.673,.35,3.373-.785l5.559-8.157,2.5,1.655-5.493,8.057ZM22.741,3.343l-5.577,8.18-2.5-1.655L20.259,1.657c.225-.332,.566-.556,.959-.63,.393-.075,.793,.007,1.125,.233,.331,.225,.555,.566,.63,.959,.075,.393-.007,.792-.232,1.124Z"/></svg>
