<?xml version="1.0" encoding="UTF-8"?>
<svg xmlns="http://www.w3.org/2000/svg" id="Layer_1" data-name="Layer 1" viewBox="0 0 24 24" width="512" height="512"><path d="M12,21c-1.1,0-2-.9-2-2s.9-2,2-2,2,.9,2,2-.9,2-2,2Zm0-3c-.55,0-1,.45-1,1s.45,1,1,1,1-.45,1-1-.45-1-1-1Zm6.81-4.12c.21-.18,.23-.5,.05-.71-.16-.18-.32-.37-.5-.54-1.7-1.7-3.96-2.64-6.36-2.64s-4.66,.94-6.36,2.64c-.17,.17-.34,.35-.5,.54-.18,.21-.16,.53,.05,.71,.21,.18,.53,.16,.71-.05,.14-.17,.29-.33,.44-.48,1.51-1.51,3.52-2.34,5.66-2.34s4.15,.83,5.66,2.34c.16,.16,.3,.32,.44,.48,.1,.12,.24,.17,.38,.17,.12,0,.23-.04,.33-.12Zm5.03-4.9c.21-.19,.22-.5,.04-.71-.18-.2-.37-.39-.56-.59-3.02-3.02-7.04-4.69-11.31-4.69S3.71,4.66,.69,7.69c-.19,.19-.38,.39-.56,.59-.19,.21-.17,.52,.04,.71,.21,.18,.52,.17,.71-.04,.17-.19,.34-.37,.52-.55,2.83-2.83,6.6-4.39,10.61-4.39s7.77,1.56,10.61,4.39c.18,.18,.35,.36,.52,.55,.1,.11,.23,.17,.37,.17,.12,0,.24-.04,.33-.13Z"/></svg>
