<?xml version="1.0" encoding="UTF-8"?>
<svg xmlns="http://www.w3.org/2000/svg" id="Layer_1" data-name="Layer 1" viewBox="0 0 24 24" width="512" height="512"><path d="M19.5,0H4.5C2.019,0,0,2.019,0,4.5v15c0,2.481,2.019,4.5,4.5,4.5h15c2.481,0,4.5-2.019,4.5-4.5V4.5c0-2.481-2.019-4.5-4.5-4.5Zm3.5,19.5c0,1.93-1.57,3.5-3.5,3.5H4.5c-1.93,0-3.5-1.57-3.5-3.5V4.5c0-1.93,1.57-3.5,3.5-3.5h15c1.93,0,3.5,1.57,3.5,3.5v15Zm-6.639-7.5h-3.861V5.5c0-.276-.224-.5-.5-.5s-.5,.224-.5,.5v6.5h-3.861c-.524,0-.976,.302-1.18,.79-.203,.485-.096,1.039,.272,1.412l4.361,4.419c.242,.245,.564,.38,.908,.38s.666-.135,.908-.38l4.36-4.418c.368-.373,.475-.927,.272-1.412-.204-.487-.655-.79-1.18-.79Zm.196,1.499l-4.36,4.418c-.106,.107-.288,.107-.393,0l-4.36-4.418c-.125-.126-.084-.269-.062-.324,.022-.052,.091-.175,.257-.175h8.722c.166,0,.235,.123,.257,.175,.023,.056,.063,.198-.062,.324Z"/></svg>
