<?xml version="1.0" encoding="UTF-8"?>
<svg xmlns="http://www.w3.org/2000/svg" id="Layer_1" data-name="Layer 1" viewBox="0 0 24 24" width="512" height="512"><path d="M20.809,9.263c.779,1.444,1.191,3.083,1.191,4.737,0,5.514-4.486,10-10,10S2,19.514,2,14c0-1.654,.412-3.293,1.191-4.737,.133-.245,.438-.33,.678-.203,.243,.132,.334,.435,.203,.678-.701,1.299-1.072,2.773-1.072,4.263,0,4.963,4.037,9,9,9s9-4.037,9-9c0-1.489-.371-2.964-1.072-4.263-.131-.243-.04-.546,.203-.678,.239-.127,.546-.042,.678,.203ZM7.217,15.584c.306-.448,.849-.665,1.386-.554,.379,.079,.683,.23,1.006,.391,.547,.271,1.167,.578,2.393,.579,1.224,0,1.84-.308,2.384-.579,.321-.16,.625-.312,1.004-.391,.532-.11,1.081,.104,1.387,.555,.298,.438,.302,.984,.01,1.425-.596,.899-2.255,2.99-4.785,2.99s-4.198-2.091-4.794-2.99c-.291-.441-.287-.987,.011-1.426Zm.823,.874c.507,.764,1.906,2.542,3.96,2.542s3.444-1.778,3.951-2.543c.09-.135,.036-.253-.003-.311-.03-.044-.14-.178-.354-.138-.253,.054-.489,.171-.763,.308-.61,.304-1.37,.683-2.83,.684-1.46,0-2.224-.379-2.837-.684-.275-.137-.568-.263-.822-.316-.159,0-.272,.108-.298,.146-.04,.059-.093,.177-.004,.312Zm-.04-3.458c.552,0,1-.448,1-1s-.448-1-1-1-1,.448-1,1,.448,1,1,1Zm9-1c0-.552-.448-1-1-1s-1,.448-1,1,.448,1,1,1,1-.448,1-1Zm6.846-7.139c-.177,.169-4.412,4.139-11.846,4.139S.331,5.03,.154,4.861c-.199-.19-.206-.507-.016-.706,.189-.201,.507-.208,.706-.017,.023,.021,1.311,1.221,3.663,2.278,.006-.034,1.232-3.11,1.673-4.118,.67-1.525,1.751-2.299,3.214-2.299,.744,0,1.625,.338,2.243,.861,.201,.172,.508,.166,.71-.008,.611-.526,1.454-.854,2.2-.854,1.417,0,2.64,.859,3.271,2.299,.441,1.008,1.668,4.086,1.674,4.122,2.355-1.057,3.639-2.26,3.661-2.282,.199-.191,.516-.184,.707,.016,.19,.199,.184,.517-.016,.707Zm-5.249,1.933c-.024-.033-1.257-3.101-1.693-4.093-.475-1.081-1.333-1.701-2.355-1.701-.501,0-1.123,.246-1.548,.611-.569,.491-1.436,.5-2.008,.014-.442-.374-1.084-.625-1.598-.625-1.059,0-1.789,.54-2.298,1.701-.436,.992-1.668,4.058-1.691,4.09,1.749,.673,3.967,1.209,6.594,1.209s4.849-.535,6.596-1.206Z"/></svg>
