<?xml version="1.0" encoding="UTF-8"?>
<svg xmlns="http://www.w3.org/2000/svg" id="Layer_1" data-name="Layer 1" viewBox="0 0 24 24" width="512" height="512"><path d="m16,16c0,.276-.224.5-.5.5h-3v3c0,.276-.224.5-.5.5s-.5-.224-.5-.5v-3h-3c-.276,0-.5-.224-.5-.5s.224-.5.5-.5h3v-3c0-.276.224-.5.5-.5s.5.224.5.5v3h3c.276,0,.5.224.5.5Zm6-6.015v9.515c0,2.481-2.019,4.5-4.5,4.5H6.5c-2.481,0-4.5-2.019-4.5-4.5V4.5C2,2.019,4.019,0,6.5,0h5.515c1.736,0,3.369.676,4.596,1.904l3.485,3.485c1.228,1.228,1.904,2.86,1.904,4.596Zm-8-3.485c0,.827.673,1.5,1.5,1.5h5.121c-.273-.704-.682-1.354-1.231-1.904l-3.485-3.485c-.55-.55-1.2-.959-1.904-1.231v5.121Zm7,3.485c0-.335-.038-.663-.096-.985h-5.404c-1.378,0-2.5-1.122-2.5-2.5V1.096c-.323-.058-.651-.096-.985-.096h-5.515c-1.93,0-3.5,1.57-3.5,3.5v15c0,1.93,1.57,3.5,3.5,3.5h11c1.93,0,3.5-1.57,3.5-3.5v-9.515Z"/></svg>
