<?xml version="1.0" encoding="UTF-8"?>
<svg xmlns="http://www.w3.org/2000/svg" id="Layer_1" data-name="Layer 1" viewBox="0 0 24 24">
  <path d="m19.5,6H6.902L21.661.973c.262-.089.401-.373.312-.634-.09-.262-.373-.404-.635-.312L3.404,6.135c-1.953.491-3.404,2.261-3.404,4.365v9c0,2.481,2.019,4.5,4.5,4.5h15c2.481,0,4.5-2.019,4.5-4.5v-9c0-2.481-2.019-4.5-4.5-4.5ZM3.077,7.302l.603-.205c.263-.063.538-.097.82-.097h15c1.76,0,3.221,1.306,3.464,3H1.036c.173-1.206.964-2.216,2.042-2.698Zm16.423,15.698H4.5c-1.93,0-3.5-1.57-3.5-3.5v-8.5h22v8.5c0,1.93-1.57,3.5-3.5,3.5Zm-8.5-9.5c0,.276-.224.5-.5.5H3.5c-.276,0-.5-.224-.5-.5s.224-.5.5-.5h7c.276,0,.5.224.5.5Zm0,7c0,.276-.224.5-.5.5H3.5c-.276,0-.5-.224-.5-.5s.224-.5.5-.5h7c.276,0,.5.224.5.5Zm0-3.5c0,.276-.224.5-.5.5H3.5c-.276,0-.5-.224-.5-.5s.224-.5.5-.5h7c.276,0,.5.224.5.5Zm6-4c-2.206,0-4,1.794-4,4s1.794,4,4,4,4-1.794,4-4-1.794-4-4-4Zm0,7c-1.654,0-3-1.346-3-3s1.346-3,3-3,3,1.346,3,3-1.346,3-3,3Z"/>
</svg>
