<?xml version="1.0" encoding="UTF-8"?>
<svg xmlns="http://www.w3.org/2000/svg" id="Layer_1" data-name="Layer 1" viewBox="0 0 24 24" width="512" height="512"><path d="M5,7.99c-.75,0-1.5-.29-2.07-.86L.15,4.35c-.2-.2-.2-.51,0-.71s.51-.2,.71,0l2.78,2.78c.73,.73,2,.73,2.73,0l3.56-3.56c1.14-1.14,3-1.14,4.14,0l1.56,1.56c.75,.75,1.98,.75,2.73,0L22.65,.15c.2-.2,.51-.2,.71,0s.2,.51,0,.71l-4.28,4.28c-1.14,1.14-3,1.14-4.14,0l-1.56-1.56c-.73-.73-2-.73-2.73,0l-3.56,3.56c-.57,.57-1.32,.86-2.07,.86Zm2,15.51V12.5c0-.28-.22-.5-.5-.5s-.5,.22-.5,.5v11c0,.28,.22,.5,.5,.5s.5-.22,.5-.5Zm-5,0V10.5c0-.28-.22-.5-.5-.5s-.5,.22-.5,.5v13c0,.28,.22,.5,.5,.5s.5-.22,.5-.5Zm10,0V8.5c0-.28-.22-.5-.5-.5s-.5,.22-.5,.5v15c0,.28,.22,.5,.5,.5s.5-.22,.5-.5Zm5,0V11.5c0-.28-.22-.5-.5-.5s-.5,.22-.5,.5v12c0,.28,.22,.5,.5,.5s.5-.22,.5-.5Zm5,0V7.5c0-.28-.22-.5-.5-.5s-.5,.22-.5,.5V23.5c0,.28,.22,.5,.5,.5s.5-.22,.5-.5Z"/></svg>
