<?xml version="1.0" encoding="UTF-8"?>
<svg xmlns="http://www.w3.org/2000/svg" id="Layer_1" data-name="Layer 1" viewBox="0 0 24 24" width="512" height="512"><path d="M18.22,17.52l2.21-6.24,3.42-3.42c.2-.2,.2-.51,0-.71s-.51-.2-.71,0l-3.15,3.15-6.29-6.29,3.15-3.15c.2-.2,.2-.51,0-.71s-.51-.2-.71,0l-3.43,3.43-6.05,2.39L.85,.15C.66-.05,.34-.05,.15,.15S-.05,.66,.15,.85L23.15,23.85c.1,.1,.23,.15,.35,.15s.26-.05,.35-.15c.2-.2,.2-.51,0-.71l-5.63-5.63ZM12.88,4.59l6.54,6.54-1.98,5.6L7.45,6.74l5.43-2.15Zm2.47,14.44l-12.82,3.93c-.26,.07-.52,.06-.75-.02l6.2-6.2c.3,.18,.64,.28,1.02,.28,1.1,0,2-.9,2-2s-.9-2-2-2-2,.9-2,2c0,.37,.1,.72,.28,1.02L1.07,22.22c-.09-.23-.1-.49-.02-.74l3.93-12.83c.08-.26-.07-.54-.33-.62-.27-.08-.54,.07-.62,.33L.09,21.19c-.23,.78-.02,1.59,.55,2.17,.42,.42,.97,.64,1.54,.64,.21,0,.43-.03,.64-.09l12.83-3.93c.26-.08,.41-.36,.33-.62-.08-.26-.36-.41-.62-.33Zm-6.35-5.02c.55,0,1,.45,1,1s-.45,1-1,1-1-.45-1-1,.45-1,1-1Z"/></svg>
