<?xml version="1.0" encoding="UTF-8"?>
<svg xmlns="http://www.w3.org/2000/svg" id="Layer_1" data-name="Layer 1" viewBox="0 0 24 24" width="512" height="512"><path d="M14.831,15c-.128,0-.256-.049-.354-.146-.195-.195-.195-.512,0-.707l3.083-3.083c.585-.585,.585-1.537,0-2.122l-3.088-3.088c-.195-.195-.195-.512,0-.707s.512-.195,.707,0l3.088,3.088c.975,.975,.975,2.562,0,3.536l-3.083,3.083c-.098,.098-.226,.146-.354,.146Zm-5.308-.146c.195-.195,.195-.512,0-.707l-3.083-3.083c-.585-.585-.585-1.537,0-2.122l3.088-3.088c.195-.195,.195-.512,0-.707s-.512-.195-.707,0l-3.088,3.088c-.975,.975-.975,2.562,0,3.536l3.083,3.083c.098,.098,.226,.146,.354,.146s.256-.049,.354-.146Zm3.46,8.441l3.985-3.295h3.532c1.93,0,3.5-1.57,3.5-3.5V3.5c0-1.93-1.57-3.5-3.5-3.5H3.5C1.57,0,0,1.57,0,3.5v13c0,1.93,1.57,3.5,3.5,3.5h3.606l3.897,3.283c.286,.254,.645,.38,1.001,.38,.353,0,.703-.123,.979-.368ZM20.5,1c1.378,0,2.5,1.121,2.5,2.5v13c0,1.379-1.122,2.5-2.5,2.5h-3.711c-.116,0-.229,.041-.318,.114l-4.138,3.421c-.19,.17-.475,.169-.675-.009l-4.047-3.409c-.09-.075-.205-.117-.322-.117H3.5c-1.378,0-2.5-1.121-2.5-2.5V3.5c0-1.379,1.122-2.5,2.5-2.5H20.5Z"/></svg>
