<?xml version="1.0" encoding="UTF-8"?>
<svg xmlns="http://www.w3.org/2000/svg" id="Layer_1" data-name="Layer 1" width="512" height="512" viewBox="0 0 24 24"><path d="M22,12.819V4.5c0-2.481-2.019-4.5-4.5-4.5s-4.5,2.019-4.5,4.5V12.819c-1.273,1.225-2,2.918-2,4.681,0,3.584,2.916,6.5,6.5,6.5s6.5-2.916,6.5-6.5c0-1.763-.727-3.456-2-4.681Zm-4.5,10.181c-3.032,0-5.5-2.468-5.5-5.5,0-1.554,.668-3.045,1.834-4.091,.105-.095,.166-.23,.166-.372V4.5c0-1.93,1.57-3.5,3.5-3.5s3.5,1.57,3.5,3.5V13.037c0,.142,.061,.277,.166,.372,1.166,1.046,1.834,2.537,1.834,4.091,0,3.032-2.468,5.5-5.5,5.5ZM10,7.5c0-1.208-.86-2.217-2-2.45V2.443c.237-.077,.46-.21,.648-.398l1.191-1.192c.195-.195,.195-.512,0-.707s-.512-.195-.707,0l-1.191,1.191c-.25,.251-.66,.25-.91,0L5.84,.146c-.195-.195-.512-.195-.707,0-.195,.195-.195,.512,0,.707l1.191,1.192c.195,.195,.429,.331,.676,.406v2.598c-.524,.107-.99,.378-1.34,.758l-2.203-1.338c.056-.244,.056-.504-.01-.763l-.413-1.634c-.067-.267-.337-.431-.606-.362-.269,.068-.431,.34-.362,.607l.413,1.634c.086,.344-.123,.694-.467,.781l-1.634,.413c-.269,.068-.431,.339-.362,.607,.066,.267,.335,.429,.606,.362l1.634-.413c.268-.067,.503-.197,.694-.37l2.193,1.332c-.093,.261-.144,.542-.144,.835,0,.283,.047,.555,.135,.809l-2.205,1.339c-.188-.163-.416-.286-.674-.351l-1.634-.413c-.271-.069-.54,.095-.606,.362-.068,.268,.094,.54,.362,.607l1.634,.413c.344,.087,.553,.437,.467,.78l-.413,1.634c-.068,.268,.094,.54,.362,.607,.27,.07,.539-.095,.606-.362l.413-1.635c.068-.268,.065-.538,.003-.79l2.191-1.331c.352,.391,.824,.67,1.358,.779v2.598c-.247,.076-.48,.212-.676,.407l-1.191,1.191c-.195,.195-.195,.512,0,.707,.195,.195,.512,.195,.707,0l1.191-1.191c.25-.25,.66-.25,.91,0l1.191,1.191c.098,.098,.226,.146,.354,.146s.256-.049,.354-.146c.195-.195,.195-.512,0-.707l-1.191-1.191c-.189-.188-.411-.321-.648-.398v-2.607c1.14-.232,2-1.242,2-2.45Zm-2.998,5.047h0Zm.498-3.547c-.827,0-1.5-.673-1.5-1.5s.673-1.5,1.5-1.5,1.5,.673,1.5,1.5-.673,1.5-1.5,1.5Zm.497,3.556h0Zm10.003,2.494V7.5c0-.276-.224-.5-.5-.5s-.5,.224-.5,.5v7.55c-1.14,.232-2,1.243-2,2.45,0,1.379,1.121,2.5,2.5,2.5s2.5-1.121,2.5-2.5c0-1.207-.86-2.218-2-2.45Zm-.5,3.95c-.827,0-1.5-.673-1.5-1.5s.673-1.5,1.5-1.5,1.5,.673,1.5,1.5-.673,1.5-1.5,1.5Z"/></svg>
