<?xml version="1.0" encoding="UTF-8"?>
<svg xmlns="http://www.w3.org/2000/svg" id="Layer_1" data-name="Layer 1" viewBox="0 0 24 24" width="512" height="512"><path d="M12.5,2.012V.5c0-.276-.224-.5-.5-.5s-.5,.224-.5,.5v1.512C5.666,2.274,1,7.102,1,13c0,2.896,1.126,5.534,2.962,7.5-1.052,.45-1.962,1.4-1.962,3,0,.276,.224,.5,.5,.5s.5-.224,.5-.5c0-1.534,1.105-2.049,1.765-2.221,1.935,1.693,4.467,2.721,7.235,2.721s5.299-1.028,7.235-2.721c.66,.172,1.765,.688,1.765,2.221,0,.276,.224,.5,.5,.5s.5-.224,.5-.5c0-1.599-.91-2.55-1.962-3,1.836-1.966,2.962-4.604,2.962-7.5,0-5.898-4.666-10.726-10.5-10.988ZM2,13C2,7.486,6.486,3,12,3s10,4.486,10,10-4.486,10-10,10S2,18.514,2,13ZM24,4.5c0,.276-.224,.5-.5,.5s-.5-.224-.5-.5c0-1.679-1.227-3.463-3.5-3.463-.276,0-.5-.224-.5-.5s.224-.5,.5-.5c2.523,0,4.5,1.96,4.5,4.463ZM1,4.5c0,.276-.224,.5-.5,.5s-.5-.224-.5-.5C0,1.997,1.977,.037,4.5,.037c.276,0,.5,.224,.5,.5s-.224,.5-.5,.5c-2.273,0-3.5,1.784-3.5,3.463ZM11.5,15v-7c0-.276,.224-.5,.5-.5s.5,.224,.5,.5v7c0,.276-.224,.5-.5,.5s-.5-.224-.5-.5Zm1.5,3c0,.552-.448,1-1,1s-1-.448-1-1,.448-1,1-1,1,.448,1,1Z"/></svg>
