<?xml version="1.0" encoding="UTF-8"?>
<svg xmlns="http://www.w3.org/2000/svg" id="Layer_1" data-name="Layer 1" viewBox="0 0 24 24" width="512" height="512"><path d="M21.966,15.084c-.194-1.188-1.3-2.084-2.573-2.084H11.104c-.674,0-1.27-.454-1.447-1.104l-.791-2.896h9.633c.276,0,.5-.224,.5-.5s-.224-.5-.5-.5H8.593L6.943,1.959C6.607,.68,5.376-.174,4.137,.002c-.704,.104-1.332,.503-1.723,1.095-.391,.592-.512,1.325-.331,2.015l2.733,10.089c.469,1.733,1.621,3.145,3.117,3.979l-1.67,3.203c-.39,.781-.349,1.69,.11,2.433s1.254,1.186,2.126,1.186h12c.276,0,.5-.224,.5-.5s-.224-.5-.5-.5H8.5c-.523,0-1-.266-1.276-.711s-.3-.991-.07-1.452l1.689-3.239c.706,.261,1.464,.402,2.247,.402h8.409c.734,0,1.429-.321,1.905-.881s.681-1.302,.562-2.035Zm-1.323,1.388c-.286,.336-.703,.528-1.143,.528H11.091c-2.478,0-4.661-1.67-5.309-4.062L3.049,2.854c-.108-.411-.035-.851,.199-1.206,.238-.359,.694-.67,1.227-.67,.673,0,1.311,.511,1.502,1.24l2.716,9.941c.296,1.084,1.288,1.841,2.412,1.841h8.289c.789,0,1.471,.535,1.586,1.244,.073,.45-.046,.887-.336,1.228Z"/></svg>
