<?xml version="1.0" encoding="UTF-8"?>
<svg xmlns="http://www.w3.org/2000/svg" id="Layer_1" data-name="Layer 1" viewBox="0 0 24 24" width="512" height="512"><path d="M11,1V23.5c0,.28-.22,.5-.5,.5s-.5-.22-.5-.5V1H4.5c-1.93,0-3.5,1.57-3.5,3.5v1c0,.28-.22,.5-.5,.5s-.5-.22-.5-.5v-1C0,2.02,2.02,0,4.5,0h12c2.48,0,4.5,2.02,4.5,4.5v1c0,.28-.22,.5-.5,.5s-.5-.22-.5-.5v-1c0-1.93-1.57-3.5-3.5-3.5h-5.5Zm12.86,18.65c-.19-.2-.51-.2-.71,0l-3.15,3.07V10.29l3.1,3.1c.1,.1,.23,.15,.35,.15s.26-.05,.35-.15c.2-.2,.2-.51,0-.71l-3.25-3.25c-.28-.28-.56-.44-1.06-.44s-.78,.16-1.06,.44l-3.25,3.25c-.2,.2-.2,.51,0,.71s.51,.2,.71,0l3.1-3.1v12.42l-3.15-3.07c-.2-.19-.51-.19-.71,0-.19,.2-.19,.51,0,.71l3.29,3.2c.29,.29,.68,.44,1.06,.44,0,0,0,0,0,0,0,0,0,0,0,0,0,0,0,0,0,0,.38,0,.76-.15,1.05-.43l3.29-3.21c.2-.19,.2-.51,0-.71Z"/></svg>
