<?xml version="1.0" encoding="UTF-8"?>
<svg xmlns="http://www.w3.org/2000/svg" id="Layer_1" data-name="Layer 1" viewBox="0 0 24 24" width="512" height="512"><path d="M22,15.34v-1.84c0-1.93-1.57-3.5-3.5-3.5s-3.5,1.57-3.5,3.5v1.84c-1.18,.56-2,1.77-2,3.16v2c0,1.93,1.57,3.5,3.5,3.5h4c1.93,0,3.5-1.57,3.5-3.5v-2c0-1.39-.82-2.6-2-3.16Zm-6-1.84c0-1.38,1.12-2.5,2.5-2.5s2.5,1.12,2.5,2.5v1.54c-.16-.02-.33-.04-.5-.04h-4c-.17,0-.34,.01-.5,.04v-1.54Zm7,7c0,1.38-1.12,2.5-2.5,2.5h-4c-1.38,0-2.5-1.12-2.5-2.5v-2c0-1.38,1.12-2.5,2.5-2.5h4c1.38,0,2.5,1.12,2.5,2.5v2Zm-3.5-1c0,.55-.45,1-1,1s-1-.45-1-1,.45-1,1-1,1,.45,1,1ZM11.5,6.04c-1.38,0-2.5,1.12-2.5,2.5,0,1.26,.79,2.87,1.97,4.07-.88,.83-2.04,1.43-3.47,1.43-1,0-1.96-.52-2.83-1.35,2.12-2.32,3.33-5.91,3.33-8.65C8,1.83,6.21,.04,4,.04S0,1.83,0,4.04c0,2.7,1.3,6.29,3.27,8.62-.83,.72-1.78,1.21-2.83,1.34-.27,.03-.47,.28-.44,.56,.03,.27,.29,.47,.56,.44,1.28-.16,2.42-.75,3.4-1.6,1.06,1.01,2.26,1.65,3.54,1.65,4.21,0,6.5-4.29,6.5-6.5,0-1.38-1.12-2.5-2.5-2.5ZM1,4.04c0-1.65,1.35-3,3-3s3,1.35,3,3c0,2.46-1.11,5.79-3.01,7.91-1.77-2.15-2.99-5.53-2.99-7.91Zm10.64,7.83c-1.08-1.11-1.64-2.47-1.64-3.33s.67-1.5,1.5-1.5,1.5,.67,1.5,1.5-.46,2.17-1.36,3.33Zm3.48-6.06c-.17-.22-.12-.53,.1-.7,.22-.17,.53-.12,.7,.1,.49,.65,.84,1.41,1,2.2,.06,.27-.12,.54-.39,.59-.03,0-.07,.01-.1,.01-.23,0-.44-.16-.49-.4-.14-.66-.41-1.26-.82-1.8Zm-4.12,11.7c0,.28-.22,.5-.5,.5H.5c-.28,0-.5-.22-.5-.5s.22-.5,.5-.5H10.5c.28,0,.5,.22,.5,.5Z"/></svg>
