<?xml version="1.0" encoding="UTF-8"?>
<svg xmlns="http://www.w3.org/2000/svg" id="Layer_1" data-name="Layer 1" viewBox="0 0 24 24" width="512" height="512"><path d="M15.5,6h-.003l-7,.005c-1.929,0-3.497,1.571-3.497,3.5v3.998c0,.935,.364,1.814,1.025,2.474,.66,.659,1.538,1.022,2.473,1.022h7.004c1.929,0,3.498-1.571,3.498-3.5v-4c0-.936-.364-1.815-1.026-2.476-.661-.66-1.539-1.024-2.474-1.024Zm-.003,1h.003c.62,0,1.206,.225,1.664,.635l-3.814,3.815c-.717,.717-1.966,.717-2.683,0l-3.819-3.819c.44-.388,1.017-.625,1.649-.625l7-.005Zm2.503,6.5c0,1.378-1.121,2.499-2.498,2.5h-7.004c-.667,0-1.295-.259-1.767-.73-.472-.471-.731-1.099-.731-1.767v-3.998c0-.382,.086-.744,.24-1.068l3.72,3.72c.548,.547,1.275,.849,2.049,.849s1.501-.301,2.048-.849l3.711-3.711c.152,.326,.232,.684,.232,1.055v4ZM12,0C5.383,0,0,5.383,0,12s5.383,12,12,12,12-5.383,12-12S18.617,0,12,0Zm0,23c-6.065,0-11-4.935-11-11S5.935,1,12,1s11,4.935,11,11-4.935,11-11,11Z"/></svg>
