<?xml version="1.0" encoding="UTF-8"?>
<svg xmlns="http://www.w3.org/2000/svg" id="Layer_1" data-name="Layer 1" width="512" height="512" viewBox="0 0 24 24"><path d="M8.5,12H3V5.965c0-.33,.036-.652,.104-.965h6.896v4.5c0,.276,.224,.5,.5,.5s.5-.224,.5-.5V5h6.896c.068,.312,.104,.635,.104,.965v1.535c0,.276,.224,.5,.5,.5s.5-.224,.5-.5v-1.535c0-2.462-1.635-4.636-3.977-5.287-1.621-.45-3.143-.678-4.523-.678s-2.902,.228-4.523,.678c-2.342,.651-3.977,2.825-3.977,5.287v2.035c-1.103,0-2,.897-2,2v1c0,1.103,.897,2,2,2v3.5c0,1.207,.86,2.217,2,2.45v1.05c0,1.103,.897,2,2,2,.846,0,1.604-.536,1.886-1.333,.092-.26-.044-.546-.305-.638-.258-.093-.546,.044-.638,.305-.141,.398-.521,.667-.943,.667-.551,0-1-.449-1-1v-1h1.5c.276,0,.5-.224,.5-.5s-.224-.5-.5-.5h-2c-.827,0-1.5-.673-1.5-1.5v-3.5h5.5c.276,0,.5-.224,.5-.5s-.224-.5-.5-.5ZM6.245,1.642c1.534-.426,2.965-.642,4.255-.642s2.722,.216,4.255,.642c1.249,.347,2.252,1.227,2.796,2.358H3.448c.545-1.131,1.547-2.011,2.796-2.358ZM1,11v-1c0-.551,.449-1,1-1v3c-.551,0-1-.449-1-1Zm23,8.405c0-1.321-.225-2.623-.67-3.868l-.911-2.551c-.638-1.786-2.341-2.986-4.238-2.986h-3.362c-1.896,0-3.6,1.2-4.238,2.987l-.911,2.551c-.445,1.245-.67,2.546-.67,3.962,0,1.207,.86,2.217,2,2.45v.55c0,.827,.673,1.5,1.5,1.5s1.5-.673,1.5-1.5v-.5h5v.5c0,.827,.673,1.5,1.5,1.5s1.5-.673,1.5-1.5v-.551c1.14-.234,2-1.254,2-2.544Zm-12.478-6.082c.497-1.39,1.821-2.323,3.296-2.323h3.362c1.475,0,2.8,.934,3.296,2.323,0,0,.94,2.635,.955,2.677H10.568c.014-.042,.955-2.677,.955-2.677Zm9.978,7.677H11.5c-.827,0-1.5-.673-1.5-1.595,0-.814,.094-1.619,.279-2.405h2.721v1.5c0,.276,.224,.5,.5,.5s.5-.224,.5-.5v-1.5h5v1.5c0,.276,.224,.5,.5,.5s.5-.224,.5-.5v-1.5h2.72c.186,.795,.28,1.621,.28,2.5,0,.827-.673,1.5-1.5,1.5Z"/></svg>
