<?xml version="1.0" encoding="UTF-8"?>
<svg xmlns="http://www.w3.org/2000/svg" id="Layer_1" data-name="Layer 1" viewBox="0 0 24 24" width="512" height="512"><path d="M20.5,9c1.93,0,3.5-1.57,3.5-3.5V3.5c0-1.93-1.57-3.5-3.5-3.5H3.5C1.57,0,0,1.57,0,3.5v2c0,1.93,1.57,3.5,3.5,3.5h.5v6.5c0,2.48,2.02,4.5,4.5,4.5h2.5v.5c0,1.93,1.57,3.5,3.5,3.5h6c1.93,0,3.5-1.57,3.5-3.5v-2c0-1.93-1.57-3.5-3.5-3.5h-6c-1.93,0-3.5,1.57-3.5,3.5v.5h-2.5c-1.93,0-3.5-1.57-3.5-3.5v-6.5h15.5Zm-8.5,9.5c0-1.38,1.12-2.5,2.5-2.5h6c1.38,0,2.5,1.12,2.5,2.5v2c0,1.38-1.12,2.5-2.5,2.5h-6c-1.38,0-2.5-1.12-2.5-2.5v-2ZM1,5.5V3.5c0-1.38,1.12-2.5,2.5-2.5H20.5c1.38,0,2.5,1.12,2.5,2.5v2c0,1.38-1.12,2.5-2.5,2.5H3.5c-1.38,0-2.5-1.12-2.5-2.5Z"/></svg>
