<?xml version="1.0" encoding="UTF-8"?>
<svg xmlns="http://www.w3.org/2000/svg" id="Layer_1" data-name="Layer 1" viewBox="0 0 24 24" width="512" height="512"><path d="M12,0C5.383,0,0,5.383,0,12s5.383,12,12,12,12-5.383,12-12S18.617,0,12,0Zm4.5,7h3c1.379,0,2.5,1.121,2.5,2.5s-1.121,2.5-2.5,2.5h-3c-1.379,0-2.5-1.121-2.5-2.5s1.121-2.5,2.5-2.5ZM12,1c4.18,0,7.821,2.344,9.682,5.786-.6-.484-1.353-.786-2.182-.786h-3c-1.391,0-2.585,.822-3.149,2h-2.702c-.564-1.178-1.758-2-3.149-2h-3c-.829,0-1.582,.302-2.182,.786C4.179,3.344,7.82,1,12,1Zm-2,8.5c0,1.379-1.121,2.5-2.5,2.5h-3c-1.379,0-2.5-1.121-2.5-2.5s1.121-2.5,2.5-2.5h3c1.379,0,2.5,1.121,2.5,2.5Zm2,13.5c-6.065,0-11-4.935-11-11,0-.546,.053-1.079,.131-1.605,.398,1.495,1.751,2.605,3.369,2.605h3c1.93,0,3.5-1.57,3.5-3.5,0-.171-.027-.335-.051-.5h2.101c-.024,.165-.051,.329-.051,.5,0,1.93,1.57,3.5,3.5,3.5h3c1.618,0,2.971-1.11,3.369-2.605,.077,.525,.131,1.058,.131,1.605,0,6.065-4.935,11-11,11Zm4.424-6.766c.146,.233,.076,.542-.158,.689-1.074,.674-2.669,1.076-4.266,1.076-1.506,0-3.31-.547-4.242-1.062-.241-.134-.329-.438-.195-.68,.134-.242,.437-.33,.68-.195,.834,.461,2.468,.938,3.758,.938,1.417,0,2.812-.346,3.734-.924,.233-.146,.542-.075,.689,.158Zm.576-6.234c0-.552,.448-1,1-1s1,.448,1,1-.448,1-1,1-1-.448-1-1Zm-10,0c0,.552-.448,1-1,1s-1-.448-1-1,.448-1,1-1,1,.448,1,1Z"/></svg>
