<?xml version="1.0" encoding="UTF-8"?>
<svg xmlns="http://www.w3.org/2000/svg" id="Layer_1" data-name="Layer 1" width="512" height="512" viewBox="0 0 24 24"><path d="M18.5,24c-.276,0-.5-.224-.5-.5v-2c0-.276,.224-.5,.5-.5s.5,.224,.5,.5v2c0,.276-.224,.5-.5,.5Zm-6,0c-.276,0-.5-.224-.5-.5v-2c0-.276,.224-.5,.5-.5s.5,.224,.5,.5v2c0,.276-.224,.5-.5,.5Zm-6,0c-.276,0-.5-.224-.5-.5v-2c0-.276,.224-.5,.5-.5s.5,.224,.5,.5v2c0,.276-.224,.5-.5,.5Zm-2-4.097c-.032,0-.064-.003-.097-.009-2.125-.417-3.846-2.117-4.283-4.229-.391-1.89,.198-3.804,1.577-5.122,.329-.314,.469-.819,.387-1.387-.135-.923-.107-1.863,.083-2.796C2.804,3.222,5.338,.724,8.473,.142c3.573-.666,7.06,1.057,8.675,4.279,.195,.389,.559,.668,1,.767,3.521,.79,5.98,3.984,5.847,7.597-.1,2.691-1.737,5.14-4.273,6.392-.248,.124-.548,.021-.669-.227-.123-.248-.021-.547,.227-.669,2.206-1.089,3.63-3.208,3.717-5.532,.116-3.131-2.015-5.9-5.066-6.584-.735-.165-1.346-.636-1.676-1.295-1.413-2.819-4.47-4.325-7.598-3.743C5.917,1.633,3.704,3.816,3.147,6.559c-.167,.819-.191,1.644-.074,2.452,.13,.892-.119,1.714-.685,2.254-1.127,1.078-1.609,2.646-1.288,4.196,.356,1.724,1.761,3.11,3.496,3.451,.271,.053,.448,.316,.395,.587-.047,.239-.256,.404-.49,.404Zm11-1.903c-.276,0-.5-.224-.5-.5v-2c0-.276,.224-.5,.5-.5s.5,.224,.5,.5v2c0,.276-.224,.5-.5,.5Zm-6,0c-.276,0-.5-.224-.5-.5v-2c0-.276,.224-.5,.5-.5s.5,.224,.5,.5v2c0,.276-.224,.5-.5,.5Z"/></svg>
