<?xml version="1.0" encoding="UTF-8"?>
<svg xmlns="http://www.w3.org/2000/svg" id="Layer_1" data-name="Layer 1" viewBox="0 0 24 24" width="512" height="512"><path d="m20,12c0,1.721-.783,3.49-2.146,4.854-.098.098-.226.146-.354.146s-.256-.049-.354-.146c-.195-.195-.195-.512,0-.707,1.177-1.178,1.853-2.689,1.854-4.146,0-1.457-.675-2.968-1.854-4.146-.195-.195-.195-.512,0-.707s.512-.195.707,0c1.365,1.365,2.147,3.134,2.146,4.854ZM15.001,1.715v20.585c0,.557-.272,1.079-.729,1.398-.289.202-.629.306-.973.306-.197,0-.395-.034-.584-.104-2.163-.794-4.59-2.677-6.04-4.684l-.15-.208-2.025-.003C2.02,19.002,0,16.98,0,14.5v-4.994C0,8.303.47,7.171,1.321,6.321c.85-.849,1.979-1.315,3.179-1.315h.007l2.018.003.149-.207C8.172,2.729,10.561.883,12.761.102c.512-.182,1.064-.104,1.513.212.456.322.728.846.728,1.401Zm-1,0c0-.231-.114-.45-.304-.584-.181-.127-.4-.159-.601-.087-2.022.718-4.224,2.423-5.61,4.343l-.299.415c-.094.131-.232.186-.407.208l-2.274-.003h-.005c-.934,0-1.812.363-2.473,1.023-.662.662-1.027,1.541-1.027,2.477v4.994c0,1.93,1.57,3.503,3.501,3.506l2.28.003c.16,0,.311.077.404.208l.299.415c1.322,1.83,3.614,3.611,5.574,4.331.218.079.451.048.64-.083.191-.134.301-.344.301-.578V1.715Z"/></svg>
