<?xml version="1.0" encoding="UTF-8"?>
<svg xmlns="http://www.w3.org/2000/svg" id="Layer_1" data-name="Layer 1" viewBox="0 0 24 24">
  <path d="m11,1h-6.5C2.019,1,0,3.019,0,5.5v3.5c0,1.103.897,2,2,2h9c1.103,0,2-.897,2-2V3c0-1.103-.897-2-2-2Zm1,8c0,.552-.449,1-1,1H2c-.551,0-1-.448-1-1v-3.5c0-1.93,1.57-3.5,3.5-3.5h6.5c.551,0,1,.448,1,1v6Zm7.5-6h-2.5c-1.103,0-2,.897-2,2v13c0,1.103.897,2,2,2h2.5c2.481,0,4.5-2.019,4.5-4.5V7.5c0-2.481-2.019-4.5-4.5-4.5Zm3.5,12.5c0,1.93-1.57,3.5-3.5,3.5h-2.5c-.551,0-1-.448-1-1V5c0-.552.449-1,1-1h2.5c1.93,0,3.5,1.57,3.5,3.5v8Zm-12-2.5h-7c-1.103,0-2,.897-2,2v3.5c0,2.481,2.019,4.5,4.5,4.5h4.5c1.103,0,2-.897,2-2v-6c0-1.103-.897-2-2-2Zm1,8c0,.552-.449,1-1,1h-4.5c-1.93,0-3.5-1.57-3.5-3.5v-3.5c0-.552.449-1,1-1h7c.551,0,1,.448,1,1v6Z"/>
</svg>
