<?xml version="1.0" encoding="UTF-8"?>
<svg xmlns="http://www.w3.org/2000/svg" id="Layer_1" data-name="Layer 1" viewBox="0 0 24 24" width="512" height="512"><path d="M24,15.5c0,.276-.224,.5-.5,.5H9.5c-.276,0-.5-.224-.5-.5s.224-.5,.5-.5h14c.276,0,.5,.224,.5,.5Zm-14.5-4.5h11c.276,0,.5-.224,.5-.5s-.224-.5-.5-.5H9.5c-.276,0-.5,.224-.5,.5s.224,.5,.5,.5Zm0-5h8c.276,0,.5-.224,.5-.5s-.224-.5-.5-.5H9.5c-.276,0-.5,.224-.5,.5s.224,.5,.5,.5Zm0-5h5c.276,0,.5-.224,.5-.5s-.224-.5-.5-.5h-5c-.276,0-.5,.224-.5,.5s.224,.5,.5,.5Zm-.354,18.561l-3.146,3.146V.5c0-.276-.224-.5-.5-.5s-.5,.224-.5,.5V22.707l-3.146-3.146c-.195-.195-.512-.195-.707,0s-.195,.512,0,.707l3.293,3.293c.292,.292,.677,.438,1.061,.438s.769-.146,1.061-.438l3.293-3.293c.195-.195,.195-.512,0-.707s-.512-.195-.707,0Z"/></svg>
