<?xml version="1.0" encoding="UTF-8"?>
<svg xmlns="http://www.w3.org/2000/svg" id="Layer_1" data-name="Layer 1" viewBox="0 0 24 24" width="512" height="512"><path d="M19.5,13h-3.49l.98-10.23c.08-.71-.15-1.41-.62-1.94s-1.15-.83-1.86-.83H2.5C1.79,0,1.11,.3,.64,.83,.17,1.36-.06,2.06,.01,2.76L1.66,19.93c.22,2.32,2.15,4.07,4.48,4.07h13.36c2.48,0,4.5-2.02,4.5-4.5v-2c0-2.48-2.02-4.5-4.5-4.5Zm3.5,4.5v.5H10v-.5c0-1.93,1.57-3.5,3.5-3.5h6c1.93,0,3.5,1.57,3.5,3.5Zm-4.15,1.5l-1.35,.9-1.35-.9h2.7ZM1.39,1.5c.29-.32,.68-.5,1.12-.5H14.5c.43,0,.83,.18,1.12,.5,.29,.32,.42,.73,.37,1.17l-.32,3.34H1.33s-.32-3.35-.32-3.35c-.05-.43,.09-.84,.38-1.17ZM6.14,23c-1.81,0-3.31-1.36-3.48-3.17L1.42,7H15.58s-.57,6-.57,6h-1.5c-2.48,0-4.5,2.02-4.5,4.5v2c0,1.42,.67,2.67,1.71,3.5H6.14Zm13.36,0h-6.01c-1.93,0-3.49-1.57-3.49-3.5v-.5h4.35l2.87,1.92c.08,.06,.18,.08,.28,.08s.19-.03,.28-.08l2.87-1.92h2.35v.5c0,1.93-1.57,3.5-3.5,3.5Z"/></svg>
