<?xml version="1.0" encoding="UTF-8"?>
<svg xmlns="http://www.w3.org/2000/svg" id="Layer_1" data-name="Layer 1" width="512" height="512" viewBox="0 0 24 24"><path d="M7,15.05V4.5c0-.276-.224-.5-.5-.5s-.5,.224-.5,.5V15.05c-1.14,.232-2,1.242-2,2.45,0,1.378,1.121,2.5,2.5,2.5s2.5-1.122,2.5-2.5c0-1.208-.86-2.217-2-2.45Zm-.5,3.95c-.827,0-1.5-.673-1.5-1.5s.673-1.5,1.5-1.5,1.5,.673,1.5,1.5-.673,1.5-1.5,1.5ZM19.482,0c-.01,0,.012,0,0,0h0ZM11,12.819V4.5C11,2.019,8.981,0,6.5,0S2,2.019,2,4.5V12.819c-1.273,1.225-2,2.918-2,4.681,0,3.584,2.916,6.5,6.5,6.5s6.5-2.916,6.5-6.5c0-1.763-.727-3.456-2-4.681Zm-4.5,10.181c-3.032,0-5.5-2.467-5.5-5.5,0-1.555,.668-3.045,1.834-4.091,.105-.095,.166-.23,.166-.372V4.5c0-1.93,1.57-3.5,3.5-3.5s3.5,1.57,3.5,3.5V13.037c0,.142,.061,.277,.166,.372,1.166,1.046,1.834,2.537,1.834,4.091,0,3.033-2.468,5.5-5.5,5.5ZM23.878,4.33c-.197,.194-.514,.191-.707-.007l-2.987-3.043c-.057-.056-.118-.104-.184-.143V14c0,.276-.224,.5-.5,.5s-.5-.224-.5-.5V1.137c-.066,.04-.129,.089-.187,.146l-2.984,3.04c-.191,.198-.508,.201-.707,.007-.196-.193-.199-.51-.006-.707l2.987-3.043C18.484,.198,18.983,.005,19.482,0c.5,.004,1.031,.196,1.411,.576l2.99,3.046c.193,.197,.19,.514-.006,.707Z"/></svg>
