<?xml version="1.0" encoding="UTF-8"?>
<svg xmlns="http://www.w3.org/2000/svg" id="Layer_1" data-name="Layer 1" viewBox="0 0 24 24" width="512" height="512"><path d="m16.854,11.528c.195.195.195.512,0,.707l-3.035,3.035c-.487.487-1.128.731-1.769.731-.016,0-.031,0-.047-.001,0,0-.002,0-.003,0-.003,0-.005,0-.008,0-.62-.014-1.237-.257-1.71-.73l-3.136-3.136c-.195-.195-.195-.512,0-.707s.512-.195.707,0l3.136,3.136c.15.15.325.261.511.334V5.5c0-.276.224-.5.5-.5s.5.224.5.5v9.433c.224-.07.434-.193.611-.37l3.035-3.035c.195-.195.512-.195.707,0Zm7.146-8.028v13c0,1.93-1.57,3.5-3.5,3.5h-3.532l-3.985,3.295c-.275.245-.626.368-.978.368-.356,0-.716-.126-1.001-.379l-3.898-3.284h-3.605c-1.93,0-3.5-1.57-3.5-3.5V3.5C0,1.57,1.57,0,3.5,0h17c1.93,0,3.5,1.57,3.5,3.5Zm-1,0c0-1.378-1.121-2.5-2.5-2.5H3.5c-1.379,0-2.5,1.122-2.5,2.5v13c0,1.378,1.121,2.5,2.5,2.5h3.788c.118,0,.232.042.322.118l4.048,3.41c.2.178.485.177.674.008l4.138-3.421c.09-.074.202-.115.318-.115h3.712c1.379,0,2.5-1.122,2.5-2.5V3.5Z"/></svg>
