<?xml version="1.0" encoding="UTF-8"?>
<svg xmlns="http://www.w3.org/2000/svg" id="Layer_1" data-name="Layer 1" viewBox="0 0 24 24" width="512" height="512"><path d="m23.5,9h-8.561c1.249-.959,2.061-2.512,2.061-4.233v-.767h1.5c.276,0,.5-.224.5-.5s-.224-.5-.5-.5h-1.536c-.243-1.694-1.704-3-3.464-3h-3c-1.76,0-3.221,1.306-3.464,3h-1.536c-.276,0-.5.224-.5.5s.224.5.5.5h1.5v1c0,1.397.591,2.741,1.622,3.686.122.112.248.216.378.314H.5c-.276,0-.5.224-.5.5s.224.5.5.5h1.5v2.5c0,1.379,1.121,2.5,2.5,2.5h.5v4.5c0,1.379,1.121,2.5,2.5,2.5h4v1.5c0,.276.224.5.5.5s.5-.224.5-.5v-1.5h4c1.379,0,2.5-1.121,2.5-2.5v-4.5h.5c1.379,0,2.5-1.121,2.5-2.5v-2.5h1.5c.276,0,.5-.224.5-.5s-.224-.5-.5-.5ZM10.5,1h3c1.208,0,2.218.86,2.45,2h-7.9c.232-1.14,1.242-2,2.45-2Zm-2.5,4v-1h8v1c0,2.209-1.791,4-4,4s-4-1.791-4-4Zm13,7.5c0,.827-.673,1.5-1.5,1.5h-1c-.276,0-.5.224-.5.5v5c0,.827-.673,1.5-1.5,1.5H7.5c-.827,0-1.5-.673-1.5-1.5v-5c0-.276-.224-.5-.5-.5h-1c-.827,0-1.5-.673-1.5-1.5v-2.5h18v2.5Z"/></svg>
