<?xml version="1.0" encoding="UTF-8"?>
<svg xmlns="http://www.w3.org/2000/svg" id="Layer_1" data-name="Layer 1" width="512" height="512" viewBox="0 0 24 24"><path d="M23.798,8.099c-.127-.095-.29-.123-.442-.077l-6.36,1.921c-.507,.142-1.049,.013-1.434-.343-.612-.988-1.705-1.6-2.87-1.6h-2.691V4h2.5c.276,0,.5-.224,.5-.5s-.224-.5-.5-.5H6.5c-.276,0-.5,.224-.5,.5s.224,.5,.5,.5h2.5v4h-3.629l-2-.842c-.768-.285-1.628-.175-2.298,.291-.672,.467-1.073,1.234-1.073,2.053v2.465c0,1.481,.939,2.809,2.337,3.301l1.663,.586v.646c0,1.93,1.57,3.5,3.5,3.5h5.65c1.322,0,2.572-.578,3.429-1.585l7.302-8.591c.077-.091,.119-.206,.119-.324v-1c0-.158-.075-.307-.202-.401ZM2.669,14.324c-.998-.352-1.669-1.299-1.669-2.357v-2.465c0-.498,.234-.947,.644-1.231,.41-.286,.914-.35,1.359-.183l.997,.42v6.286l-1.331-.469Zm20.331-5.008l-7.183,8.45c-.666,.784-1.639,1.233-2.667,1.233H7.5c-1.379,0-2.5-1.121-2.5-2.5v-7.5h7.691c.836,0,1.62,.447,2.046,1.168,.021,.036,.048,.07,.077,.1,.642,.642,1.578,.885,2.462,.634l5.724-1.729v.144Zm-1.677,6.005c-.135,.152-1.323,1.522-1.323,2.682,0,.532,.208,1.033,.586,1.411s.88,.586,1.414,.586,1.036-.208,1.414-.586,.586-.88,.586-1.414c0-1.156-1.188-2.526-1.295-2.644-.328-.445-1.11-.41-1.382-.035Zm1.384,3.386c-.379,.377-1.035,.377-1.414,0-.188-.189-.293-.439-.293-.704,0-.546,.564-1.412,1-1.936,.414,.49,1,1.378,1,1.933,0,.267-.104,.518-.293,.707Z"/></svg>
