<?xml version="1.0" encoding="UTF-8"?>
<svg xmlns="http://www.w3.org/2000/svg" id="Layer_1" data-name="Layer 1" width="512" height="512" viewBox="0 0 24 24"><path d="M20.485,14.652h0c-.409-.11-.722-.382-.857-.748-.914-2.466-3.314-4.038-5.926-3.908-3.051,.148-5.552,2.655-5.694,5.707-.024,.517,.018,1.034,.124,1.538,.05,.233-.051,.458-.244,.548-1.465,.677-2.202,2.314-1.753,3.892,.297,1.045,1.13,1.878,2.174,2.175,.284,.081,.573,.125,.859,.133,.341,.008,4.096,.007,5.345,.002,1.987-.007,3.919-.014,4.66-.002,.416,.013,.837-.041,1.251-.14,1.688-.407,3.039-1.762,3.44-3.454,.604-2.549-.88-5.072-3.378-5.743Zm2.405,5.512c-.315,1.329-1.376,2.394-2.702,2.713-.332,.08-.665,.123-1.001,.112-.744-.013-2.684-.006-4.68,.002-2.243,.008-4.564,.017-5.314-.002-.203-.005-.409-.037-.612-.095-.702-.199-1.286-.783-1.486-1.486-.317-1.119,.181-2.233,1.212-2.711,.62-.287,.95-.971,.803-1.663-.089-.42-.124-.853-.104-1.284,.117-2.5,2.246-4.632,4.745-4.754,2.609,0,4.207,1.28,4.939,3.256,.25,.673,.81,1.171,1.537,1.366,1.972,.53,3.143,2.527,2.664,4.546ZM5.656,14.834c-.224-.249-.425-.513-.604-.789l-3.019,1.779c-.08,.047-.167,.069-.254,.069-.171,0-.338-.088-.431-.246-.141-.238-.062-.544,.177-.685l3.046-1.796c-.307-.681-.494-1.414-.552-2.167H.5c-.276,0-.5-.224-.5-.5s.224-.5,.5-.5h3.519c.064-.843,.291-1.642,.647-2.364l-3.03-1.774c-.238-.14-.318-.446-.179-.684,.14-.24,.444-.318,.685-.179l3.034,1.777c.451-.643,1.015-1.2,1.663-1.644l-1.798-3.033c-.142-.237-.062-.544,.175-.685,.237-.14,.545-.063,.685,.175l1.805,3.043c.704-.337,1.479-.551,2.295-.613V.5c0-.276,.224-.5,.5-.5s.5,.224,.5,.5v3.519c.826,.062,1.622,.281,2.351,.636l1.788-3.054c.139-.239,.445-.318,.685-.179,.238,.14,.318,.446,.179,.684l-1.789,3.056c.499,.349,.953,.77,1.347,1.258,.168,.208,.447,.257,.663,.119l2.56-1.652c.231-.148,.541-.084,.691,.149,.15,.232,.083,.542-.148,.691l-2.56,1.652c-.645,.417-1.496,.273-1.983-.331-1.051-1.301-2.611-2.048-4.282-2.048-3.032,0-5.5,2.467-5.5,5.5,0,1.355,.497,2.658,1.4,3.667,.185,.206,.167,.522-.039,.706-.204,.183-.521,.167-.705-.039Z"/></svg>
