<?xml version="1.0" encoding="UTF-8"?>
<svg xmlns="http://www.w3.org/2000/svg" id="Layer_1" data-name="Layer 1" width="512" height="512" viewBox="0 0 24 24"><path d="M19.5,24h-2c-.276,0-.5-.224-.5-.5s.224-.5,.5-.5h2c.276,0,.5,.224,.5,.5s-.224,.5-.5,.5Zm-6,0H.5c-.276,0-.5-.224-.5-.5s.224-.5,.5-.5H13.5c.276,0,.5,.224,.5,.5s-.224,.5-.5,.5Zm10-4H10.5c-.276,0-.5-.224-.5-.5s.224-.5,.5-.5h13c.276,0,.5,.224,.5,.5s-.224,.5-.5,.5Zm-17,0h-2c-.276,0-.5-.224-.5-.5s.224-.5,.5-.5h2c.276,0,.5,.224,.5,.5s-.224,.5-.5,.5Zm13-4h-2c-.276,0-.5-.224-.5-.5s.224-.5,.5-.5h2c.276,0,.5,.224,.5,.5s-.224,.5-.5,.5Zm-6,0H.5c-.276,0-.5-.224-.5-.5s.224-.5,.5-.5H13.5c.276,0,.5,.224,.5,.5s-.224,.5-.5,.5Zm2.5-4c-.619,0-1.228-.117-1.809-.349-.366-.145-.759-.155-1.105-.025-1.543,.573-3.295,.481-4.772-.265-.299-.149-.646-.139-.954,.029-2.009,1.103-4.606,.617-6.105-1.078C.307,9.242-.137,7.806,.039,6.373c.184-1.506,1.132-2.886,2.536-3.69,1.043-.599,2.13-.804,3.225-.612,.357,.062,.698-.043,.942-.29,1.136-1.148,2.648-1.78,4.258-1.78,1.494,0,2.954,.581,4.111,1.635q.401,.365,.889,.365c1.497,0,2.903,.673,3.856,1.846,.142,.175,.34,.264,.51,.225,.556-.126,1.121-.084,1.678,.122h0c.955,.356,1.677,1.18,1.885,2.15,.194,.908-.023,1.834-.596,2.543-.573,.708-1.423,1.114-2.333,1.114-.229,0-.431-.022-.619-.068-.263-.066-.43,.103-.489,.178-.955,1.201-2.374,1.89-3.892,1.89Zm-2.404-1.464c.324,0,.651,.062,.965,.187,1.603,.64,3.474,.117,4.548-1.234,.289-.363,.835-.691,1.511-.527,.108,.026,.232,.039,.38,.039,.607,0,1.174-.271,1.556-.743,.388-.479,.528-1.085,.396-1.705-.135-.629-.628-1.188-1.256-1.422h0c-.372-.138-.746-.167-1.108-.083-.547,.121-1.123-.096-1.508-.57-.763-.939-1.885-1.477-3.08-1.477-.76,0-.965-.082-1.562-.626-.973-.886-2.194-1.374-3.438-1.374-1.341,0-2.601,.527-3.547,1.483-.479,.483-1.146,.691-1.826,.572-.872-.153-1.708,.008-2.555,.494-1.131,.649-1.895,1.75-2.041,2.944-.142,1.166,.203,2.287,.973,3.157,1.196,1.352,3.266,1.746,4.875,.864,.592-.323,1.296-.341,1.884-.046,1.231,.622,2.69,.698,3.975,.22,.275-.102,.565-.153,.858-.153Z"/></svg>
