<?xml version="1.0" encoding="UTF-8"?>
<svg xmlns="http://www.w3.org/2000/svg" id="Layer_1" data-name="Layer 1" viewBox="0 0 24 24" width="512" height="512"><path d="M13.5,17H3v-4.34c.45,.22,.96,.34,1.5,.34h1c.99,0,1.94-.43,2.61-1.17,.18-.21,.17-.52-.04-.71-.21-.18-.52-.17-.71,.04-.47,.53-1.15,.83-1.86,.83h-1c-.63,0-1.2-.23-1.64-.61-.02-.02-.04-.04-.06-.05-.48-.44-.79-1.07-.8-1.77l.73-2.94c.07-.27-.1-.54-.36-.61-.27-.07-.54,.1-.61,.36,0,0-.77,3.08-.77,3.12,0,.95,.38,1.82,1,2.45v8.05c0,1.65,1.35,3,3,3h6c1.65,0,3-1.35,3-3v-2.5c0-.28-.22-.5-.5-.5Zm-.5,3c0,1.1-.9,2-2,2H5c-1.1,0-2-.9-2-2v-2H13v2Zm10.85,3.15l-1.85-1.85V11.99s0-.03,0-.04c.62-.63,1-1.5,1-2.45,0-.04-2.02-8.12-2.02-8.12-.06-.22-.26-.38-.48-.38H3.5c-.23,0-.43,.16-.48,.38l-.19,.74L.85,.15C.66-.05,.34-.05,.15,.15S-.05,.66,.15,.85L12.14,12.85s0,0,0,0l11,11c.1,.1,.23,.15,.35,.15s.26-.05,.35-.15c.2-.2,.2-.51,0-.71Zm-2.85-2.85l-7.45-7.45c.82-.26,1.52-.81,1.95-1.54,.61,1.02,1.73,1.7,3,1.7h1c.54,0,1.05-.12,1.5-.34v7.63ZM3.89,2h4.11v3.5c0,.28,.22,.5,.5,.5s.5-.22,.5-.5V2h6v3.5c0,.28,.22,.5,.5,.5s.5-.22,.5-.5V2h4.11l1.89,7.56c-.03,1.35-1.14,2.44-2.5,2.44h-1c-1.38,0-2.5-1.12-2.5-2.5,0-.28-.22-.5-.5-.5s-.5,.22-.5,.5c0,1.31-1.02,2.39-2.3,2.49L3.65,2.95l.24-.95Z"/></svg>
