<?xml version="1.0" encoding="UTF-8"?>
<svg xmlns="http://www.w3.org/2000/svg" id="Layer_1" data-name="Layer 1" viewBox="0 0 24 24" width="512" height="512"><path d="M21.5,13h-5c-1.38,0-2.5,1.12-2.5,2.5v5c0,1.38,1.12,2.5,2.5,2.5h5c1.38,0,2.5-1.12,2.5-2.5v-5c0-1.38-1.12-2.5-2.5-2.5Zm1.5,7.5c0,.83-.67,1.5-1.5,1.5h-5c-.83,0-1.5-.67-1.5-1.5v-5c0-.83,.67-1.5,1.5-1.5h5c.83,0,1.5,.67,1.5,1.5v5ZM21.5,1h-3c-1.38,0-2.5,1.12-2.5,2.5v3c0,1.38,1.12,2.5,2.5,2.5h3c1.38,0,2.5-1.12,2.5-2.5V3.5c0-1.38-1.12-2.5-2.5-2.5Zm1.5,5.5c0,.83-.67,1.5-1.5,1.5h-3c-.83,0-1.5-.67-1.5-1.5V3.5c0-.83,.67-1.5,1.5-1.5h3c.83,0,1.5,.67,1.5,1.5v3Zm-12.14,12.66c.19,.2,.18,.52-.02,.71l-3.59,3.41c-.46,.46-1.09,.72-1.76,.72s-1.3-.26-1.77-.73L.16,19.86c-.2-.19-.21-.51-.02-.71,.19-.2,.51-.21,.71-.02l3.59,3.41c.16,.16,.36,.28,.57,.35V.5c0-.28,.22-.5,.5-.5s.5,.22,.5,.5V22.91c.21-.07,.4-.19,.56-.35l3.59-3.42c.2-.19,.52-.18,.71,.02Z"/></svg>
