<?xml version="1.0" encoding="UTF-8"?>
<svg xmlns="http://www.w3.org/2000/svg" id="Layer_1" data-name="Layer 1" viewBox="0 0 24 24" width="512" height="512"><path d="m17.418,15c-2.437,0-4.418,2.019-4.418,4.5,0,2.576,2.618,4.5,4.959,4.5h3.876c.706,0,1.368-.333,1.773-.89.387-.532.493-1.192.292-1.812-.764-2.352-2.621-6.297-6.482-6.297Zm5.381,7.522c-.217.299-.578.478-.964.478h-3.876c-1.831,0-3.959-1.529-3.959-3.5,0-1.93,1.534-3.5,3.418-3.5,3.229,0,4.851,3.512,5.531,5.606.102.312.047.646-.149.916Zm1.2-19.281c0-.867-.336-1.681-.948-2.292h-.001c-1.223-1.224-3.363-1.224-4.584,0L1.43,17.985c-.922.922-1.43,2.147-1.43,3.451v2.063c0,.276.224.5.5.5h2.064c1.304,0,2.529-.508,3.451-1.43L23.052,5.534c.611-.611.948-1.425.948-2.292ZM5.308,21.863c-.733.733-1.708,1.137-2.744,1.137h-1.564v-1.563c0-1.037.404-2.011,1.137-2.744L15.429,5.4l3.171,3.171-13.292,13.292ZM22.345,4.827l-3.038,3.038-3.171-3.171,3.038-3.038c.843-.845,2.325-.845,3.169,0h.001c.422.424.655.987.655,1.586s-.233,1.163-.655,1.585ZM.808,5.39C.225,4.717-.053,3.881.009,3.016c.062-.865.456-1.653,1.108-2.219C1.772.23,2.604-.047,3.474.015c.865.062,1.653.456,2.218,1.109l4.193,5.057c.176.213.147.528-.065.704-.215.177-.529.147-.704-.065L4.929,1.771c-.384-.444-.928-.716-1.527-.759-.593-.042-1.176.148-1.628.54-.453.393-.725.938-.768,1.536-.042.599.149,1.177.541,1.628l4.784,4.968c.191.199.186.515-.014.707-.097.093-.222.14-.347.14-.131,0-.262-.051-.36-.153L.808,5.39Z"/></svg>
