<?xml version="1.0" encoding="UTF-8"?>
<svg xmlns="http://www.w3.org/2000/svg" id="Layer_1" data-name="Layer 1" viewBox="0 0 24 24" width="512" height="512"><path d="M22.424,23.992h-3.442c-.276,0-.5-.224-.5-.5s.224-.5,.5-.5h3.442c.251,0,.468-.121,.58-.323,.057-.102,.131-.308-.014-.54l-6.884-10.832c-.119-.193-.331-.305-.569-.305h0c-.239,0-.451,.112-.567,.3l-6.89,10.841c-.141,.228-.067,.434-.011,.536,.113,.203,.33,.323,.581,.323h3.442c.276,0,.5,.224,.5,.5s-.224,.5-.5,.5h-3.442c-.609,0-1.167-.321-1.454-.837-.274-.492-.26-1.073,.038-1.553l6.89-10.841c.297-.479,.826-.769,1.414-.769h0c.587,0,1.116,.29,1.416,.774l6.883,10.831c.301,.485,.315,1.065,.041,1.558-.287,.516-.845,.837-1.454,.837Zm-6.424-3.492v-5c0-.276-.224-.5-.5-.5s-.5,.224-.5,.5v5c0,.276,.224,.5,.5,.5s.5-.224,.5-.5Zm-11,3c0-.276-.224-.5-.5-.5-1.93,0-3.5-1.57-3.5-3.5V4.5c0-1.93,1.57-3.5,3.5-3.5h15c1.93,0,3.5,1.57,3.5,3.5v12c0,.276,.224,.5,.5,.5s.5-.224,.5-.5V4.5c0-2.481-2.019-4.5-4.5-4.5H4.5C2.019,0,0,2.019,0,4.5v15c0,2.481,2.019,4.5,4.5,4.5,.276,0,.5-.224,.5-.5ZM4,3c-.552,0-1,.448-1,1s.448,1,1,1,1-.448,1-1-.448-1-1-1Zm4,0c-.552,0-1,.448-1,1s.448,1,1,1,1-.448,1-1-.448-1-1-1Zm7.5,19c-.552,0-1,.448-1,1s.448,1,1,1,1-.448,1-1-.448-1-1-1Z"/></svg>
