<?xml version="1.0" encoding="UTF-8"?>
<svg xmlns="http://www.w3.org/2000/svg" id="Layer_1" data-name="Layer 1" viewBox="0 0 24 24" width="512" height="512"><path d="m12,0C5.383,0,0,5.383,0,12s5.383,12,12,12,12-5.383,12-12S18.617,0,12,0Zm9.359,6.226l-2.187,2.188c-.372.372-.887.585-1.414.585h-2.956c.127-.249.198-.53.198-.827v-.831c0-.488-.19-.947-.535-1.292l-.8-.8c-.591-.594-1.508-.709-2.232-.276l-1.548.928c-.105.064-.228.098-.352.098h-.533v-.633c0-.521-.225-1.017-.605-1.351l-1.746-1.624c1.585-.886,3.41-1.392,5.351-1.392,3.949,0,7.419,2.092,9.359,5.226Zm-5.573,5.473c.138.139.214.323.214.518v1.303c0,.133-.036.262-.104.376l-2.462,4.104h-.653l-.671-2.686c-.192-.774-.884-1.314-1.683-1.314h-1.427c-.552,0-1-.449-1-1v-1.045c0-.263.131-.507.35-.653l1.756-1.17c.13-.086.28-.132.435-.132h2.633c.268,0,.521-.058.751-.162l1.862,1.861Zm-3.786,11.301c-6.065,0-11-4.935-11-11,0-3.754,1.891-7.074,4.769-9.06l1.956,1.818c.175.154.275.375.275.608v.826c0,.445.362.808.808.808h.726c.306,0,.605-.083.866-.24l1.546-.927c.329-.197.743-.146,1.012.125l.801.801c.156.156.242.363.242.584v.831c0,.456-.371.827-.827.827h-2.633c-.353,0-.694.104-.989.3l-1.756,1.17c-.498.332-.795.887-.795,1.485v1.045c0,1.103.897,2,2,2h1.427c.338,0,.631.229.712.556l.693,2.774c.1.395.452.67.859.67h.808c.309,0,.6-.165.759-.43l2.494-4.158c.162-.269.248-.577.248-.892v-1.303c0-.462-.18-.897-.507-1.225l-.993-.993h2.258c.79,0,1.563-.32,2.121-.878l1.985-1.986c.727,1.468,1.136,3.119,1.136,4.864,0,6.065-4.935,11-11,11Z"/></svg>
