<?xml version="1.0" encoding="UTF-8"?>
<svg xmlns="http://www.w3.org/2000/svg" id="Layer_1" data-name="Layer 1" viewBox="0 0 24 24" width="512" height="512"><path d="M5,14.5c0-1.293-1.017-2.964-1.658-3.713-.211-.246-.528-.365-.842-.387-.324,0-.63,.144-.84,.392-.642,.76-1.66,2.439-1.66,3.708,0,1.378,1.122,2.5,2.5,2.5s2.5-1.122,2.5-2.5Zm-2.5,1.5c-.827,0-1.5-.673-1.5-1.5,0-.898,.827-2.355,1.424-3.062h.159c.594,.694,1.417,2.146,1.417,3.062,0,.827-.673,1.5-1.5,1.5Zm21.5-4c0,6.617-5.383,12-12,12-3.497,0-6.813-1.521-9.097-4.174-.18-.209-.157-.525,.053-.705,.208-.18,.524-.158,.705,.053,2.094,2.432,5.133,3.826,8.339,3.826,6.065,0,11-4.935,11-11S18.065,1,12,1C7.191,1,2.979,4.075,1.519,8.652c-.084,.264-.367,.409-.628,.325-.263-.084-.408-.366-.325-.628C2.16,3.355,6.754,0,12,0c6.617,0,12,5.383,12,12Zm-9-2c0-.552,.448-1,1-1s1,.448,1,1-.448,1-1,1-1-.448-1-1Zm.093-4.209c-.161-.225-.108-.537,.116-.697,.225-.161,.537-.108,.697,.116,.471,.659,1.775,2.251,3.73,2.81,.266,.076,.419,.353,.344,.618-.063,.22-.263,.363-.481,.363-.045,0-.091-.006-.137-.019-2.258-.646-3.738-2.446-4.27-3.19Zm-6.093,4.209c0,.552-.448,1-1,1s-1-.448-1-1,.448-1,1-1,1,.448,1,1Zm-1.93,6.166c-.146,.419-.081,.871,.179,1.238,.266,.374,.696,.597,1.153,.597h.639c.2,1.523,1.288,3,2.958,3s2.758-1.476,2.958-3h.626c.455,0,.885-.222,1.151-.593,.261-.364,.329-.812,.186-1.23-.646-1.9-2.624-3.176-4.921-3.176s-4.268,1.272-4.93,3.166Zm6.93,1.334c0,1.202-.765,2.5-2,2.5s-2-1.298-2-2.5v-3.067c1.196-.538,2.791-.543,4,.009v3.058ZM8.791,5.093c.225,.16,.277,.473,.116,.697-.531,.744-2.011,2.545-4.27,3.19-.046,.013-.092,.019-.137,.019-.218,0-.418-.143-.481-.363-.076-.265,.078-.542,.344-.618,1.955-.559,3.26-2.151,3.73-2.81,.16-.225,.473-.276,.697-.116Z"/></svg>
