<?xml version="1.0" encoding="UTF-8"?>
<svg xmlns="http://www.w3.org/2000/svg" id="Layer_1" data-name="Layer 1" viewBox="0 0 24 24" width="512" height="512"><path d="M0,4.5c0-.276,.224-.5,.5-.5H1.5c.276,0,.5,.224,.5,.5s-.224,.5-.5,.5H.5c-.276,0-.5-.224-.5-.5Zm20.492,12.041l-1.849,1.396,5.21,5.21c.195,.195,.195,.512,0,.707-.098,.098-.226,.146-.354,.146s-.256-.049-.354-.146L.146,.854C-.049,.658-.049,.342,.146,.146S.658-.049,.854,.146l3.232,3.232,1.561-.873c1.784-.894,3.931-.543,5.314,.717l1.116,1.016,1.023-.964c1.398-1.319,3.594-1.639,5.31-.78l2.482,1.241c.346,.173,.732,.264,1.118,.264h1.49c.276,0,.5,.224,.5,.5s-.224,.5-.5,.5h-1.49c-.54,0-1.082-.128-1.565-.37l-2.482-1.241c-1.351-.677-3.075-.424-4.177,.613l-4.672,4.404,2.267,2.267,3.774-3.614c.199-.191,.517-.183,.707,.016,.19,.199,.184,.516-.016,.707l-1.022,.978,6.465,6.323c.247-.055,.501-.083,.756-.083h1.455c.276,0,.5,.224,.5,.5s-.224,.5-.5,.5h-1.455c-.562,0-1.113,.192-1.553,.541ZM4.821,4.114l3.585,3.585,2.941-2.772-1.06-.965c-1.131-1.031-2.893-1.212-4.173-.572l-1.294,.724Zm15.059,11.636c.123-.098,.253-.186,.389-.265l-6.167-6.032-2.014,1.928,5.842,5.842,1.95-1.473Zm-4.46,3.369l-1.749,1.322c-.961,.747-2.304,.747-3.271-.005l-6.032-4.533c-.774-.582-1.734-.902-2.703-.902H.46c-.276,0-.5,.224-.5,.5s.224,.5,.5,.5H1.665c.753,0,1.5,.25,2.102,.702l6.026,4.527c.662,.515,1.455,.771,2.247,.771s1.581-.256,2.239-.767l1.744-1.317c.22-.167,.264-.48,.098-.7-.168-.222-.479-.264-.701-.098Z"/></svg>
