<?xml version="1.0" encoding="UTF-8"?>
<svg xmlns="http://www.w3.org/2000/svg" id="Layer_1" data-name="Layer 1" viewBox="0 0 24 24">
  <path d="m6.089,16.964c-.186.322-.061.641.123.824.185.184.502.309.845.111l4.354-2.819c.229-.148.541-.084.691.148.149.231.084.541-.148.691l-4.375,2.832c-.282.164-.586.244-.884.244-.438,0-.862-.171-1.19-.5-.553-.552-.66-1.377-.269-2.053l2.726-4.213c.151-.233.463-.297.691-.148.232.15.298.46.148.691l-2.713,4.192Zm17.765,6.183c.195.195.195.512,0,.707-.098.098-.226.146-.354.146s-.256-.049-.354-.146L.146.854C-.049.658-.049.342.146.146S.658-.049.854.146l3.03,3.03C6.103,1.131,8.97,0,12,0c6.617,0,12,5.383,12,12,0,3.029-1.132,5.896-3.176,8.117l3.03,3.03ZM4.591,3.884l5.477,5.477,6.353-4.112c.697-.403,1.523-.296,2.074.256.553.552.66,1.377.269,2.053l-4.124,6.374,5.477,5.477c1.857-2.032,2.884-4.646,2.884-7.409,0-6.065-4.935-11-11-11-2.764,0-5.378,1.027-7.409,2.884Zm9.325,9.325l3.995-6.173c.186-.322.061-.641-.123-.824-.185-.184-.501-.311-.845-.111l-6.153,3.983,3.125,3.125Zm3.345,8.454c-1.604.875-3.423,1.337-5.261,1.337-6.065,0-11-4.935-11-11,0-1.838.463-3.657,1.337-5.26.133-.243.043-.546-.199-.679s-.545-.042-.678.199c-.955,1.75-1.46,3.734-1.46,5.74,0,6.617,5.383,12,12,12,2.005,0,3.989-.504,5.739-1.459.242-.132.332-.436.199-.678-.131-.243-.436-.332-.678-.2Z"/>
</svg>
