<?xml version="1.0" encoding="UTF-8"?>
<svg xmlns="http://www.w3.org/2000/svg" id="Layer_1" data-name="Layer 1" width="512" height="512" viewBox="0 0 24 24"><path d="M11.737,24c-.245,0-.494-.054-.735-.165-.786-.363-1.168-1.198-.93-2.03l1.755-5.805H6.501c-.799,0-1.531-.368-2.007-1.01s-.617-1.449-.386-2.214L7.13,1.788c.325-1.074,1.287-1.788,2.396-1.788h4.373c.688,0,1.333,.338,1.725,.903s.482,1.288,.241,1.932l-2.16,6.165h3.795c.942,0,1.768,.497,2.209,1.33,.441,.833,.389,1.794-.14,2.574l-6.41,10.312c-.339,.509-.868,.785-1.422,.785ZM9.527,1c-.666,0-1.243,.428-1.436,1.066l-3.022,10.988c-.142,.471-.058,.955,.228,1.34,.286,.385,.725,.606,1.205,.606h5.999c.158,0,.307,.075,.401,.202,.094,.127,.123,.291,.077,.442l-1.947,6.442c-.122,.428,.121,.716,.391,.84,.269,.124,.646,.124,.896-.253l6.412-10.315c.328-.484,.36-1.061,.095-1.561-.265-.5-.76-.798-1.326-.798h-4.5c-.162,0-.314-.079-.408-.211-.094-.132-.118-.301-.064-.455l2.397-6.84c.132-.353,.086-.721-.123-1.021-.208-.301-.538-.473-.903-.473h-4.373Z"/></svg>
