<?xml version="1.0" encoding="UTF-8"?>
<svg xmlns="http://www.w3.org/2000/svg" id="Layer_1" data-name="Layer 1" width="512" height="512" viewBox="0 0 24 24"><path d="M21.968,8.507L3.132,4.919c1.073-.281,1.868-1.259,1.868-2.419C5,1.122,3.878,0,2.5,0S0,1.122,0,2.5c0,1.208,.86,2.217,2,2.45V23.5c0,.276,.224,.5,.5,.5s.5-.224,.5-.5v-4.586l18.968-3.613c1.177-.224,2.032-1.257,2.032-2.456v-1.882c0-1.199-.855-2.232-2.032-2.456ZM2.5,4c-.827,0-1.5-.673-1.5-1.5s.673-1.5,1.5-1.5,1.5,.673,1.5,1.5-.673,1.5-1.5,1.5Zm3.5,13.324l-3,.572V5.912l3,.572v10.841Zm1-10.65l3,.572v9.317l-3,.572V6.674Zm3.004,9.888h0Zm3.996-.761l-3,.572V7.436l3,.572v7.793Zm.987-.188h0Zm0-7.417h0Zm3.013,6.843l-3,.571v-7.412l3,.571v6.27Zm5-2.193c0,.719-.513,1.338-1.22,1.473l-2.78,.53v-5.889l2.78,.53c.707,.135,1.22,.754,1.22,1.474v1.882Z"/></svg>
