<?xml version="1.0" encoding="UTF-8"?>
<svg xmlns="http://www.w3.org/2000/svg" id="Layer_1" data-name="Layer 1" viewBox="0 0 24 24" width="512" height="512"><path d="M10.5,11H1.759l2.391-6.576c.527-1.45,1.918-2.424,3.46-2.424h8.778c1.543,0,2.933,.974,3.46,2.424l2.271,6.247c.094,.26,.38,.393,.641,.299,.26-.094,.394-.381,.299-.641l-2.271-6.247c-.67-1.843-2.438-3.082-4.399-3.082H7.611c-1.961,0-3.729,1.239-4.4,3.082L.331,12.001c-.22,.604-.331,1.236-.331,1.879v1.619c0,1.393,.819,2.599,2,3.162v1.838c0,1.378,1.122,2.5,2.5,2.5s2.5-1.122,2.5-2.5v-1.5h1.5c.276,0,.5-.224,.5-.5s-.224-.5-.5-.5H3.5c-1.378,0-2.5-1.122-2.5-2.5v-1.619c0-.526,.091-1.043,.271-1.538l.125-.343h2.605v2c0,.276,.224,.5,.5,.5s.5-.224,.5-.5v-2h5.5c.276,0,.5-.224,.5-.5s-.224-.5-.5-.5Zm-7.5,7.964c.163,.023,.33,.036,.5,.036h2.5v1.5c0,.827-.673,1.5-1.5,1.5s-1.5-.673-1.5-1.5v-1.536Zm-1.602-6.972v0Zm16.101-.992c-3.584,0-6.5,2.916-6.5,6.5s2.916,6.5,6.5,6.5,6.5-2.916,6.5-6.5-2.916-6.5-6.5-6.5Zm0,12c-3.032,0-5.5-2.467-5.5-5.5s2.467-5.5,5.5-5.5,5.5,2.467,5.5,5.5-2.468,5.5-5.5,5.5Zm2.368-5.418c.192,.359,.172,.793-.054,1.132l-1.89,3.049c-.095,.152-.258,.236-.425,.236-.091,0-.182-.024-.264-.075-.234-.146-.307-.454-.161-.688l1.898-3.062c.031-.047,.033-.083,.014-.119s-.051-.055-.092-.055h-2.779c-.357,0-.684-.165-.896-.451-.212-.286-.274-.646-.171-.987,.013-.041,2.025-3.323,2.025-3.323,.146-.237,.455-.308,.688-.164,.235,.145,.309,.453,.164,.688l-1.925,3.13c0,.026,.012,.047,.022,.061,.016,.021,.044,.047,.093,.047h2.779c.407,0,.78,.223,.973,.582Z"/></svg>
