<?xml version="1.0" encoding="UTF-8"?>
<svg xmlns="http://www.w3.org/2000/svg" id="Layer_1" data-name="Layer 1" width="512" height="512" viewBox="0 0 24 24"><path d="M23.965,15.43l-.557-4.5c-.166-1.92-1.091-3.261-2.658-3.87l-4.068-1.736c-1.673-.652-3.545-.311-4.847,.856l-3.859,2.858c-1.012,.918-1.813,2.074-2.289,3.282l-.474,.854c-.274,.689-.242,1.552,.084,2.307,.232,.536,.587,.963,1.017,1.236l-.167,.42c-.426,1.072,.1,2.291,1.172,2.717,.252,.1,.513,.147,.77,.147,.833,0,1.622-.5,1.947-1.319l.143-.359,6.104,2.474-.135,.34c-.206,.52-.198,1.088,.023,1.602,.221,.513,.629,.909,1.148,1.116,.25,.099,.511,.149,.772,.149,.281,0,.562-.058,.828-.172,.513-.221,.909-.629,1.115-1.148l.161-.405c.096,.011,.192,.017,.287,.017,1.045,0,2.034-.628,2.442-1.654l.438-1.104c.512-1.29,.72-2.702,.6-4.104ZM12.466,6.954c.703-.629,1.593-.958,2.493-.958,.453,0,.908,.083,1.345,.252l4.068,1.736c1.223,.476,1.909,1.498,2.041,3.039l.002,.019,.556,4.491v.007l-14.31-5.769,3.805-2.818Zm-3.359,11.357c-.222,.559-.857,.834-1.418,.611-.56-.222-.834-.858-.611-1.418l.151-.379,2.024,.82-.145,.366Zm9.417,4.6c-.269,.116-.563,.12-.835,.012-.271-.107-.484-.314-.6-.582-.115-.268-.12-.564-.012-.836l.132-.334,2.024,.82-.128,.321c-.107,.271-.314,.484-.582,.6Zm3.911-3.746l-.438,1.104c-.328,.828-1.269,1.239-2.097,.913L7.058,15.977c-.353-.139-.652-.457-.842-.896-.22-.508-.248-1.098-.101-1.479l.474-.854c.321-.809,.779-1.566,1.331-2.22,.037,.029,2.611,1.075,2.611,1.075l-.554,1.365c-.104,.256,.02,.547,.275,.651,.062,.025,.125,.037,.188,.037,.197,0,.384-.118,.463-.312l.555-1.367,7.984,3.218-.566,1.394c-.104,.256,.019,.547,.274,.651,.062,.025,.126,.037,.188,.037,.197,0,.385-.118,.463-.312l.567-1.397s2.577,1.031,2.621,1.036c-.044,.876-.23,1.745-.553,2.559ZM6.089,2.475l-1.089-.907v1.229c0,1.215-.989,2.204-2.204,2.204H1.567l.908,1.089c.682,.818,.682,2.004,0,2.822l-.907,1.089h1.229c.589,0,1.144,.229,1.56,.647,.195,.195,.195,.512,0,.707-.098,.097-.226,.146-.354,.146s-.256-.049-.354-.147c-.227-.228-.53-.353-.852-.353H.5c-.194,0-.371-.112-.453-.288-.083-.175-.056-.383,.068-.532l1.591-1.909c.373-.446,.373-1.095,0-1.541L.116,4.82c-.124-.149-.151-.357-.068-.532,.082-.176,.259-.288,.453-.288H2.796c.664,0,1.204-.54,1.204-1.204V.5c0-.194,.112-.371,.288-.453,.174-.082,.383-.056,.532,.068l1.909,1.591c.447,.373,1.094,.373,1.541,0L10.18,.116c.149-.124,.358-.149,.532-.068,.176,.082,.288,.259,.288,.453V2.796c0,.322,.125,.625,.353,.852,.196,.195,.196,.512,0,.708-.195,.195-.513,.195-.707,0-.417-.417-.647-.971-.647-1.56V1.567l-1.089,.908c-.817,.682-2.004,.682-2.822,0Z"/></svg>
