<?xml version="1.0" encoding="UTF-8"?>
<svg xmlns="http://www.w3.org/2000/svg" id="Layer_1" data-name="Layer 1" viewBox="0 0 24 24" width="512" height="512"><path d="M12.5,5c1.378,0,2.5-1.122,2.5-2.5s-1.122-2.5-2.5-2.5-2.5,1.122-2.5,2.5,1.122,2.5,2.5,2.5Zm0-4c.827,0,1.5,.673,1.5,1.5s-.673,1.5-1.5,1.5-1.5-.673-1.5-1.5,.673-1.5,1.5-1.5Zm8.366,12.159s-5.464-5.857-5.474-5.866c-.721-.799-1.762-1.293-2.892-1.293-1.192,0-2.284,.549-3.007,1.426l-5.359,5.746c-.188,.202-.177,.518,.025,.707,.096,.09,.219,.134,.341,.134,.134,0,.267-.053,.366-.159l3.648-3.911-1.494,7.248c-.089,.711,.132,1.427,.606,1.964,.475,.538,1.158,.846,1.875,.846h.5v3.5c0,.276,.224,.5,.5,.5s.5-.224,.5-.5v-3.5h3v3.5c0,.276,.224,.5,.5,.5s.5-.224,.5-.5v-3.5h.5c.717,0,1.4-.308,1.875-.846,.474-.537,.695-1.253,.6-2.003l-1.491-7.225,3.651,3.915c.099,.106,.232,.159,.366,.159,.122,0,.245-.044,.341-.134,.202-.188,.213-.505,.025-.707Zm-4.241,5.333c-.285,.322-.694,.507-1.125,.507h-6c-.43,0-.84-.185-1.125-.507s-.417-.752-.37-1.14l1.66-8.043c.335-1.438,1.438-2.31,2.835-2.31,1.366,0,2.559,.971,2.835,2.31l1.653,8.004c.053,.427-.079,.856-.364,1.179Z"/></svg>
