<?xml version="1.0" encoding="UTF-8"?>
<svg xmlns="http://www.w3.org/2000/svg" id="Layer_1" data-name="Layer 1" viewBox="0 0 24 24" width="512" height="512"><path d="M17.373,15.167c.184,.206,.166,.521-.04,.706-.097,.086-2.414,2.127-5.333,2.127s-5.236-2.041-5.333-2.127c-.206-.184-.224-.5-.04-.706,.183-.207,.498-.225,.706-.041,.021,.019,2.137,1.873,4.667,1.873s4.646-1.854,4.667-1.873c.207-.184,.522-.167,.706,.041Zm-.186-6.058l-2.389,1.911c-.456,.093-.799,.496-.799,.98,0,.552,.448,1,1,1s1-.448,1-1c0-.197-.057-.38-.155-.535l1.968-1.574c.216-.173,.25-.487,.078-.703-.172-.214-.485-.25-.703-.078Zm-9.187,2.891c0,.552,.448,1,1,1s1-.448,1-1c0-.483-.343-.887-.799-.98l-2.389-1.911c-.216-.17-.529-.137-.703,.078-.172,.216-.138,.53,.078,.703l1.968,1.574c-.098,.155-.155,.338-.155,.535Zm14.907-5.001c.701,1.523,1.093,3.217,1.093,5.001,0,6.617-5.383,12-12,12S0,18.617,0,12c0-1.784,.392-3.478,1.093-5.001L.025,1.715C-.074,1.184,.126,.655,.546,.325,.966-.006,1.529-.072,2.015,.15l3.622,1.681C7.482,.672,9.664,0,12,0s4.518,.672,6.363,1.831L21.984,.151c.486-.225,1.052-.157,1.472,.175,.418,.328,.618,.857,.52,1.381l-1.069,5.291Zm-3.594-4.506c1.125,.867,2.092,1.929,2.851,3.135l.831-4.111c.028-.148-.032-.306-.157-.404-.125-.099-.29-.119-.434-.053l-3.091,1.433ZM1.836,5.628c.759-1.206,1.726-2.268,2.851-3.135L1.596,1.059c-.143-.064-.308-.045-.431,.052-.127,.1-.188,.257-.158,.413l.83,4.104Zm21.164,6.373c0-6.065-4.935-11-11-11S1,5.935,1,12s4.935,11,11,11,11-4.935,11-11Z"/></svg>
