<?xml version="1.0" encoding="UTF-8"?>
<svg xmlns="http://www.w3.org/2000/svg" id="Layer_1" data-name="Layer 1" viewBox="0 0 24 24" width="512" height="512"><path d="M3,14.5v8c0,.276-.224,.5-.5,.5s-.5-.224-.5-.5V14.5c0-.276,.224-.5,.5-.5s.5,.224,.5,.5Zm18.5-.5c-.276,0-.5,.224-.5,.5v8c0,.276,.224,.5,.5,.5s.5-.224,.5-.5V14.5c0-.276-.224-.5-.5-.5Zm-9,0c-.276,0-.5,.224-.5,.5v8c0,.276,.224,.5,.5,.5s.5-.224,.5-.5V14.5c0-.276-.224-.5-.5-.5Zm-6.5,0c-.552,0-1,.448-1,1v7c0,.552,.448,1,1,1s1-.448,1-1v-7c0-.552-.448-1-1-1Zm3,0c-.552,0-1,.448-1,1v7c0,.552,.448,1,1,1s1-.448,1-1v-7c0-.552-.448-1-1-1Zm9,0c-.552,0-1,.448-1,1v7c0,.552,.448,1,1,1s1-.448,1-1v-7c0-.552-.448-1-1-1Zm-2.5,0c-.276,0-.5,.224-.5,.5v8c0,.276,.224,.5,.5,.5s.5-.224,.5-.5V14.5c0-.276-.224-.5-.5-.5Zm8-3h-1.5V1.5c0-.276-.224-.5-.5-.5s-.5,.224-.5,.5V11h-2V2c0-.552-.448-1-1-1s-1,.448-1,1V11h-1V1.5c0-.276-.224-.5-.5-.5s-.5,.224-.5,.5V11h-2V1.5c0-.276-.224-.5-.5-.5s-.5,.224-.5,.5V11h-2V2c0-.552-.448-1-1-1s-1,.448-1,1V11h-1V2c0-.552-.448-1-1-1s-1,.448-1,1V11H3V1.5c0-.276-.224-.5-.5-.5s-.5,.224-.5,.5V11H.5c-.276,0-.5,.224-.5,.5s.224,.5,.5,.5H23.5c.276,0,.5-.224,.5-.5s-.224-.5-.5-.5Z"/></svg>
