<?xml version="1.0" encoding="UTF-8"?>
<svg xmlns="http://www.w3.org/2000/svg" id="Layer_1" data-name="Layer 1" viewBox="0 0 24 24" width="512" height="512"><path d="m19.5,0H4.5C2.019,0,0,2.019,0,4.5v15c0,2.481,2.019,4.5,4.5,4.5h15c2.481,0,4.5-2.019,4.5-4.5V4.5c0-2.481-2.019-4.5-4.5-4.5Zm3.5,19.5c0,1.93-1.57,3.5-3.5,3.5H4.5c-1.93,0-3.5-1.57-3.5-3.5V4.5c0-1.93,1.57-3.5,3.5-3.5h15c1.93,0,3.5,1.57,3.5,3.5v15Zm-4-12c0,.276-.224.5-.5.5h-9.5v2.5c0,.276-.224.5-.5.5s-.5-.224-.5-.5v-2.5h-2.5c-.276,0-.5-.224-.5-.5s.224-.5.5-.5h2.5v-2.5c0-.276.224-.5.5-.5s.5.224.5.5v2.5h9.5c.276,0,.5.224.5.5Zm0,9c0,.276-.224.5-.5.5h-2.5v2.5c0,.276-.224.5-.5.5s-.5-.224-.5-.5v-2.5H5.5c-.276,0-.5-.224-.5-.5s.224-.5.5-.5h9.5v-2.5c0-.276.224-.5.5-.5s.5.224.5.5v2.5h2.5c.276,0,.5.224.5.5Z"/></svg>
