<?xml version="1.0" encoding="UTF-8"?>
<svg xmlns="http://www.w3.org/2000/svg" id="Layer_1" data-name="Layer 1" viewBox="0 0 24 24">
  <path d="m24,9.5c0,.276-.224.5-.5.5h-7c-.276,0-.5-.224-.5-.5s.224-.5.5-.5h7c.276,0,.5.224.5.5Zm-1.5,4.5h-6c-.276,0-.5.224-.5.5s.224.5.5.5h6c.276,0,.5-.224.5-.5s-.224-.5-.5-.5Zm-1,5h-5c-.276,0-.5.224-.5.5s.224.5.5.5h5c.276,0,.5-.224.5-.5s-.224-.5-.5-.5Zm-5.005,3.169c.183.207.163.523-.044.706-.822.726-1.879,1.125-2.977,1.125h-7c-2.481,0-4.5-2.019-4.5-4.5l.025-14.5H.5c-.276,0-.5-.224-.5-.5s.224-.5.5-.5h4.028c.25-2.247,2.16-4,4.472-4h2c2.312,0,4.223,1.753,4.472,4h4.028c.276,0,.5.224.5.5s-.224.5-.5.5h-1.501l-.003,1.501c0,.275-.224.499-.5.499h0c-.276,0-.5-.225-.499-.501l.003-1.499H2.999l-.025,14.501c0,1.929,1.57,3.499,3.5,3.499h7c.854,0,1.676-.311,2.315-.875.206-.183.522-.162.706.044ZM5.536,4h8.928c-.243-1.694-1.704-3-3.464-3h-2c-1.76,0-3.221,1.306-3.464,3Z"/>
</svg>
