<?xml version="1.0" encoding="UTF-8"?>
<svg xmlns="http://www.w3.org/2000/svg" id="Layer_1" data-name="Layer 1" viewBox="0 0 24 24" width="512" height="512"><path d="M7.5,21c1.64,0,3.2-.7,4.3-1.93L21.98,7.32c1.43-1.65,1.34-4.15-.2-5.69l-.41-.41c-1.54-1.54-4.04-1.63-5.69-.2L3.92,11.21c-1.22,1.09-1.92,2.65-1.92,4.29v4.79l-1.85,1.85c-.2,.2-.2,.51,0,.71,.1,.1,.23,.15,.35,.15s.26-.05,.35-.15l1.85-1.85H7.5Zm-2.91-9.04L16.34,1.78c1.25-1.09,3.15-1.02,4.33,.15l.41,.41c1.17,1.17,1.24,3.07,.15,4.33l-10.18,11.75c-.24,.27-.51,.51-.81,.72,0-.01-.02-.02-.03-.03L3.9,12.8s-.02-.02-.04-.03c.21-.29,.44-.56,.71-.8Zm-1.58,3.54c0-.63,.13-1.26,.37-1.83l5.96,5.96c-.57,.24-1.19,.37-1.83,.37H3v-4.5Zm21,8c0,.28-.22,.5-.5,.5H4.5c-.28,0-.5-.22-.5-.5s.22-.5,.5-.5H23.5c.28,0,.5,.22,.5,.5Z"/></svg>
