<?xml version="1.0" encoding="UTF-8"?>
<svg xmlns="http://www.w3.org/2000/svg" id="Layer_1" data-name="Layer 1" viewBox="0 0 24 24" width="512" height="512"><path d="m12,0C5.383,0,0,5.383,0,12s5.383,12,12,12,12-5.383,12-12S18.617,0,12,0Zm11,12c0,2.301-.71,4.438-1.923,6.206l-8.577-8.416V1.012c5.834.262,10.5,5.09,10.5,10.988ZM11.5,1.012v8.777L2.907,18.183c-1.203-1.763-1.907-3.892-1.907-6.183C1,6.102,5.666,1.274,11.5,1.012ZM3.512,18.99l7.988-7.803v11.801c-3.211-.144-6.068-1.671-7.988-3.998Zm8.988,3.998v-11.797l7.97,7.82c-1.92,2.315-4.769,3.833-7.97,3.977Z"/></svg>
