<?xml version="1.0" encoding="UTF-8"?>
<svg xmlns="http://www.w3.org/2000/svg" id="Layer_1" data-name="Layer 1" viewBox="0 0 24 24" width="512" height="512"><path d="m20.717,15.424c-1.01-1.011-2.769-1.017-3.789-.016l-1.805,1.518c-3.722-1.498-6.427-4.205-8.046-8.053l1.498-1.785c1.049-1.049,1.049-2.756.043-3.756l-1.959-2.543c-1.016-1.017-2.814-.993-3.779-.023l-1.176,1.024C.605,2.887,0,4.374,0,5.976c0,7.749,10.275,18.024,18.023,18.024,1.604,0,3.091-.605,4.211-1.73l.978-1.125c1.049-1.049,1.049-2.756-.049-3.848l-2.446-1.874Zm1.765,5.04l-.978,1.125c-.909.91-2.145,1.411-3.48,1.411C10.864,23,1,13.136,1,5.976c0-1.335.501-2.571,1.386-3.456l1.176-1.025c.336-.336.779-.5,1.215-.5.419,0,.831.152,1.133.452l1.959,2.543c.659.659.659,1.732-.029,2.423l-1.722,2.049c-.119.142-.15.337-.081.508,1.751,4.358,4.779,7.386,9.002,8.998.17.064.362.033.5-.084,0,0,2.071-1.741,2.081-1.751.639-.639,1.703-.682,2.439.043l2.446,1.874c.659.659.659,1.731-.023,2.416Zm-5.481-15.964v2.793l1.854,1.854c.195.195.195.512,0,.707-.098.098-.226.146-.354.146s-.256-.049-.354-.146l-2-2c-.094-.094-.146-.221-.146-.354v-3c0-.276.224-.5.5-.5s.5.224.5.5Zm-6.393-1.64c1.433-1.817,3.58-2.86,5.893-2.86,4.136,0,7.5,3.364,7.5,7.5,0,2.312-1.043,4.459-2.86,5.893-.092.072-.201.107-.31.107-.147,0-.294-.065-.393-.19-.171-.217-.134-.531.083-.702,1.576-1.242,2.479-3.104,2.479-5.107,0-3.584-2.916-6.5-6.5-6.5-2.004,0-3.865.903-5.107,2.479-.171.217-.485.254-.702.083-.217-.171-.254-.485-.083-.702Z"/></svg>
