<?xml version="1.0" encoding="UTF-8"?>
<svg xmlns="http://www.w3.org/2000/svg" id="Layer_1" data-name="Layer 1" viewBox="0 0 24 24" width="512" height="512"><path d="M11,3.5V.5c0-.276,.224-.5,.5-.5s.5,.224,.5,.5V3.5c0,.276-.224,.5-.5,.5s-.5-.224-.5-.5Zm-3.5,.5c.276,0,.5-.224,.5-.5V.5c0-.276-.224-.5-.5-.5s-.5,.224-.5,.5V3.5c0,.276,.224,.5,.5,.5Zm-4,0c.276,0,.5-.224,.5-.5V.5c0-.276-.224-.5-.5-.5s-.5,.224-.5,.5V3.5c0,.276,.224,.5,.5,.5Zm8.739,3.346l.008-.004c-.013-.005-.033-.01-.008,.004Zm11.761,10.821c0,5.265-10.586,5.833-15.137,5.833-.877,0-2.505-.171-4.837-.508-2.296-.331-4.026-2.36-4.026-4.72v-2.739C0,11.134,3.837,7.083,8.553,7.002c1.185-.021,2.528,.131,3.686,.343,.023,.004,.018,0,.008-.004,2.199-1.118,4.983-1.889,6.566-.862l1.642-1.642c-.274-.178-.455-.487-.455-.838,0-.552,.448-1,1-1s1,.448,1,1c.552,0,1,.448,1,1s-.448,1-1,1c-.351,0-.66-.181-.838-.455l-1.642,1.642c.532,.831,.621,2.075,.259,3.608,2.647,2.158,4.221,4.902,4.221,7.372ZM10.218,9.901c-.785,.786-1.218,1.83-1.218,2.94s.433,2.155,1.218,2.94c1.622,1.622,4.261,1.621,5.881,0,.889-.889,1.894-2.657,2.443-4.299,.628-1.875,.611-3.326-.044-3.981-.336-.335-.88-.503-1.582-.503-.67,0-1.484,.153-2.399,.459-1.642,.549-3.409,1.554-4.299,2.443Zm12.782,8.265c0-2.072-1.307-4.402-3.525-6.32-.605,1.787-1.675,3.649-2.669,4.643-1.006,1.005-2.326,1.508-3.647,1.508s-2.642-.503-3.647-1.508c-2.012-2.011-2.012-5.284,0-7.295,.331-.332,.808-.703,1.377-1.072-.768-.091-1.546-.131-2.318-.12-4.175,.071-7.57,3.674-7.57,8.031v2.739c0,1.866,1.362,3.47,3.169,3.73,2.253,.326,3.876,.498,4.694,.498,6.834,0,14.137-1.27,14.137-4.833Z"/></svg>
