<?xml version="1.0" encoding="UTF-8"?>
<svg xmlns="http://www.w3.org/2000/svg" id="Layer_1" data-name="Layer 1" viewBox="0 0 24 24" width="512" height="512"><path d="M23.355,13.327L14.854,1.384l-.017-.022c-.694-.865-1.728-1.361-2.837-1.361s-2.143,.496-2.854,1.384L.64,13.334c-1.123,1.634-.748,3.829,.886,5.02l8.014,4.948c.759,.469,1.609,.703,2.46,.703s1.701-.234,2.46-.703l8.046-4.97c1.602-1.169,1.977-3.364,.849-5.005ZM2.083,17.523c-1.162-.847-1.434-2.438-.625-3.616L9.943,1.986c.397-.495,.947-.823,1.557-.939V22.969c-.498-.069-.987-.242-1.435-.519l-7.982-4.927Zm19.865-.021l-8.014,4.948c-.448,.277-.936,.45-1.435,.519V1.047c.605,.116,1.152,.44,1.548,.928l8.488,11.925c.814,1.185,.542,2.776-.587,3.602Z"/></svg>
