<?xml version="1.0" encoding="UTF-8"?>
<svg xmlns="http://www.w3.org/2000/svg" id="Layer_1" data-name="Layer 1" viewBox="0 0 24 24" width="512" height="512"><path d="M2.5,24c-.276,0-.5-.224-.5-.5V2.5C2,1.121,3.121,0,4.5,0h4c4.136,0,7.5,3.364,7.5,7.5v10c0,.276-.224,.5-.5,.5s-.5-.224-.5-.5V7.5c0-3.584-2.916-6.5-6.5-6.5H4.5c-.827,0-1.5,.673-1.5,1.5V23.5c0,.276-.224,.5-.5,.5Zm19.5-7.5V.5c0-.276-.224-.5-.5-.5s-.5,.224-.5,.5V16.5c0,3.584-2.916,6.5-6.5,6.5h-4c-.827,0-1.5-.673-1.5-1.5V6.5c0-.276-.224-.5-.5-.5s-.5,.224-.5,.5v15c0,1.379,1.121,2.5,2.5,2.5h4c4.136,0,7.5-3.364,7.5-7.5Z"/></svg>
